<svg width="1472" height="76" viewBox="0 0 1472 76" fill="none" xmlns="http://www.w3.org/2000/svg">
<path d="M29.44 8.95761H25.248V20.2065C25.248 20.5535 25.088 20.6691 24.64 20.6691C24.192 20.698 22.624 20.698 21.376 20.6402C21.888 21.5367 22.496 22.9247 22.688 23.9079C24.896 23.9079 26.528 23.879 27.808 23.3584C29.088 22.8379 29.44 21.9993 29.44 20.2932V8.95761ZM22.688 9.9408H18.56V19.5703H22.688V9.9408ZM12.512 29.7781C13.696 29.2576 14.784 28.6503 15.776 27.9852C16.384 29.1708 17.12 30.2408 17.984 31.1661C16.16 31.3975 14.304 31.5999 12.512 31.7734V29.7781ZM25.44 27.5804C24.352 28.2744 23.008 29.0262 21.792 29.6046C21.056 28.9973 20.416 28.3322 19.872 27.5804H25.44ZM4.48001 13.9025C4.67201 13.6711 4.86401 13.4109 5.05601 13.1217H7.71201V13.9025H4.48001ZM27.52 27.5804H30.56V24.3127H18.336V22.8958H15.68C15.808 22.8668 15.904 22.809 16 22.7801C16.896 22.3753 17.152 21.7969 17.152 20.5245V17.3726H11.648V16.6496H17.408V13.9025H11.648V13.1217H16.704V10.5191H11.648V8.75519H7.71201V10.5191H6.52801C6.68801 10.2011 6.81601 9.85405 6.94401 9.53595L3.58401 8.7841C3.07201 10.23 2.17601 11.7626 1.12001 12.8036C1.66401 13.0639 2.56001 13.4976 3.26401 13.9025H1.40801V16.6496H7.71201V17.3726H2.56001V23.2428H6.01601V19.8305H7.71201V23.85H11.648V19.8305H13.472V20.5535C13.472 20.7848 13.376 20.8426 13.12 20.8426C12.896 20.8426 12.192 20.8426 11.648 20.8137C12 21.4499 12.512 22.3753 12.704 23.156C13.024 23.156 13.344 23.156 13.664 23.156V24.3127H1.44001V27.5804H9.53601C7.04001 28.419 4.00001 28.9973 0.896006 29.3154C1.72801 30.0673 2.81601 31.4264 3.32801 32.2939C4.96001 32.0626 6.56001 31.7445 8.06401 31.3396V32.2361C6.91201 32.3517 5.85601 32.4385 4.92801 32.5252L5.56801 35.9086C9.15201 35.4748 13.984 34.9254 18.528 34.3759L18.4 31.5999C20.768 34 24.032 35.5037 28.736 36.2845C29.248 35.2724 30.336 33.7398 31.232 32.959C28.832 32.6698 26.784 32.1782 25.056 31.4842C26.592 30.8191 28.288 29.9805 29.76 29.0841L27.52 27.5804Z" fill="#ECEFFF"/>
<path d="M53.152 16.852H42.752V13.8736H53.152V16.852ZM57.92 9.85405H38.272V20.8426H57.92V9.85405ZM42.08 26.9153V30.8191H38.4V26.9153H42.08ZM34.016 36.2267H38.4V34.8386H42.08V36.111H46.72V22.8958H34.016V36.2267ZM53.44 30.8191V26.9153H57.344V30.8191H53.44ZM48.992 22.8958V36.2267H53.44V34.8386H57.344V36.111H62.016V22.8958H48.992Z" fill="#ECEFFF"/>
<path d="M84.48 29.1708C84.448 27.8985 84.384 25.961 84.352 24.3995C86.016 23.7344 87.552 23.1849 88.768 22.7801C89.984 22.3463 91.968 21.6812 93.088 21.3921L91.2 17.4015C89.856 17.9798 88.544 18.5292 87.168 19.0787C86.048 19.5414 85.024 19.9173 83.744 20.4667C82.912 19.1365 81.376 18.4425 79.52 18.4425C78.624 18.4425 77.024 18.5582 76.384 18.7317C76.8 18.1533 77.216 17.4593 77.6 16.7075C80.992 16.5918 84.864 16.3315 87.84 15.9845L87.872 11.965C85.216 12.3988 82.176 12.6301 79.328 12.7747C79.68 11.7048 79.904 10.8083 80.032 10.1721L74.976 9.79621C74.944 10.5191 74.784 11.618 74.432 12.9193H73.184C71.488 12.9193 69.056 12.8036 67.488 12.5723V16.5918C69.152 16.7364 71.456 16.7942 72.768 16.7942C71.232 19.4257 68.992 21.768 65.984 24.1681L70.08 26.9442C71.168 25.6429 72.064 24.6019 73.024 23.7054C74.112 22.7512 76.064 21.7969 77.696 21.7969C78.304 21.7969 78.944 21.9415 79.424 22.3753C75.904 24.0525 72.128 26.4526 72.128 30.1829C72.128 34 75.872 35.2145 81.088 35.2145C84.224 35.2145 88.288 34.9543 90.24 34.723L90.4 30.2408C87.616 30.7902 84 31.1372 81.184 31.1372C78.208 31.1372 77.216 30.6456 77.216 29.4311C77.216 28.2744 78.08 27.349 80.064 26.308C80.032 27.378 79.968 28.4479 79.904 29.1708H84.48Z" fill="#ECEFFF"/>
<path d="M109.376 15.8689H100.832V19.5124H123.328V15.8689H114.24V14.5676H126.272V10.7505H114.24V8.81302H109.376V10.7505H97.728V14.5676H109.376V15.8689ZM126.144 27.0309V20.4667H97.92V27.0309H102.4V24.197H121.44V27.0309H126.144ZM105.376 24.7754C105.024 28.9684 104.544 31.3975 96.704 32.7277C97.664 33.5952 98.816 35.2724 99.232 36.3712C108.512 34.4049 109.76 30.5878 110.208 24.7754H105.376ZM119.2 32.2361C118.144 32.2361 117.952 32.1204 117.952 31.1372V24.8043H113.28V31.195C113.28 34.7808 114.272 35.9953 118.496 35.9953H122.304C125.632 35.9953 126.848 34.8386 127.328 30.5299C126.08 30.2697 124.096 29.6335 123.168 28.9684C123.04 31.7734 122.848 32.2361 121.856 32.2361H119.2Z" fill="#ECEFFF"/>
<path d="M135.168 11.3288L135.36 15.811C136.064 15.6953 137.184 15.5797 138.048 15.5218C139.52 15.4351 142.144 15.2327 143.712 15.2038C141.344 17.1701 133.952 22.7801 130.432 25.6718L133.984 29.113C136.768 26.1634 140.128 22.8668 145.472 22.8668C148.8 22.8668 150.944 24.3127 150.944 26.2791C150.944 29.8938 146.592 31.6577 137.856 30.5878L139.264 35.0989C151.712 35.9953 156.256 31.8023 156.256 26.2791C156.256 22.2307 152.32 19.1943 146.56 19.1943C146.016 19.1943 144.864 19.2522 144.224 19.3678C146.688 17.4882 149.28 15.9267 150.816 15.0013C151.328 14.7122 152.064 14.2784 152.768 13.9603L150.304 10.9529C149.632 11.1264 148.576 11.2421 147.744 11.2999C145.6 11.4156 139.488 11.4734 137.792 11.4734C136.608 11.4734 135.68 11.3867 135.168 11.3288Z" fill="#ECEFFF"/>
<path d="M181.216 24.0525C181.216 28.1876 176.384 30.2697 168.416 31.0505L171.168 35.3881C180.32 34.3181 186.688 30.3275 186.688 24.226C186.688 19.5414 183.072 16.7942 177.76 16.7942C174.016 16.7942 170.496 17.575 168.096 18.0377C167.04 18.2401 165.504 18.4714 164.352 18.5582L165.76 23.4741C166.752 23.156 168.16 22.6355 169.056 22.4042C170.528 21.9993 173.696 21.0161 177.088 21.0161C179.904 21.0161 181.216 22.462 181.216 24.0525ZM169.248 9.82513L168.512 13.9892C172.192 14.5676 179.36 15.117 183.168 15.3483L183.936 11.0975C180.448 11.0975 173.056 10.5481 169.248 9.82513Z" fill="#ECEFFF"/>
<path d="M215.616 12.8325C214.688 13.5265 213.664 14.076 212.32 14.77C210.944 15.4929 208.544 16.6207 206.208 17.8352C204.96 15.6953 203.552 13.0928 202.4 10.2011L197.568 11.965C198.976 14.9724 200.448 17.8931 201.92 20.351C199.008 22.3463 196.768 24.6886 196.768 27.9563C196.768 33.2482 201.792 34.8386 208.32 34.8386C212.544 34.8386 215.712 34.5494 218.592 34.1157L218.656 29.113C215.648 29.7203 211.328 30.2118 208.192 30.2118C204.128 30.2118 202.112 29.3154 202.112 27.4358C202.112 25.5562 203.872 24.0235 206.336 22.5777C209.12 20.9583 212.832 19.4257 214.72 18.5871C216 18.0087 217.152 17.4593 218.272 16.852L215.616 12.8325Z" fill="#ECEFFF"/>
<path d="M236.343 24.0235C236.343 22.7223 237.399 22.1728 238.359 22.1728C239.063 22.1728 239.703 22.4331 240.087 22.9247C240.439 25.1224 239.383 25.7875 238.359 25.7875C237.367 25.7875 236.343 25.0646 236.343 24.0235ZM252.951 13.1506C251.287 13.1217 247.031 13.1795 244.087 13.1795V12.8614C244.119 12.3409 244.247 10.577 244.343 10.0275H238.807C238.935 10.577 239.063 11.7915 239.159 12.8904L239.191 13.2085C235.095 13.2663 229.495 13.382 225.815 13.353L225.943 17.5171C229.815 17.3436 234.487 17.1701 239.255 17.1123L239.287 18.5582C239.031 18.5292 238.775 18.5292 238.487 18.5292C234.807 18.5292 231.735 20.6402 231.735 24.1103C231.735 27.8117 235.031 29.6046 237.367 29.6046C237.559 29.6046 237.751 29.6046 237.943 29.5757C236.087 30.9059 233.431 31.5999 230.679 32.0915L234.743 35.7929C242.679 33.8554 245.303 28.8817 245.303 25.2092C245.303 23.6476 244.887 22.2307 244.055 21.074C244.055 19.8884 244.055 18.4425 244.023 17.0834C248.023 17.1123 250.999 17.1701 252.887 17.2569L252.951 13.1506Z" fill="#ECEFFF"/>
<path d="M270.615 31.2818C269.015 31.2818 267.959 30.6456 267.959 29.7492C267.959 29.1708 268.567 28.6214 269.591 28.6214C270.935 28.6214 271.895 29.6335 272.055 31.224C271.607 31.2529 271.127 31.2818 270.615 31.2818ZM277.815 10.7216C277.399 10.8372 276.503 10.9529 274.999 11.0686C273.111 11.2132 266.775 11.2999 265.079 11.2999C264.023 11.2999 262.839 11.2421 261.847 11.1264L262.007 15.6086C262.775 15.4929 263.895 15.4062 264.855 15.3483C266.551 15.2327 269.815 15.117 271.415 15.0881C269.879 16.3315 266.935 18.3847 265.175 19.7149C263.287 21.1029 259.607 23.9368 257.559 25.3827L261.047 28.6503C264.087 25.2959 267.415 22.7801 272.055 22.7801C275.543 22.7801 278.327 24.3127 278.327 26.7707C278.327 28.1587 277.719 29.2865 276.471 30.0673C275.927 27.349 273.431 25.3248 269.559 25.3248C265.975 25.3248 263.415 27.6671 263.415 30.1829C263.415 33.3349 267.127 35.2145 271.607 35.2145C279.799 35.2145 283.383 31.3107 283.383 26.8285C283.383 22.5198 279.095 19.3678 273.655 19.3678C272.887 19.3678 272.279 19.3968 271.447 19.5414C273.175 18.3268 275.959 16.2737 277.751 15.1748C278.551 14.6832 279.351 14.2495 280.183 13.7868L277.815 10.7216Z" fill="#ECEFFF"/>
<path d="M299.159 22.5488C298.039 25.8742 297.079 27.6093 295.799 27.6093C294.711 27.6093 293.751 26.308 293.751 23.8211C293.751 21.074 296.087 17.228 300.791 16.0713C300.407 18.3268 299.863 20.6113 299.159 22.5488ZM304.727 34.9254C312.983 33.6819 316.919 29.2576 316.919 23.2428C316.919 16.7364 311.799 11.7048 303.735 11.7048C295.255 11.7048 288.759 17.4882 288.759 24.2838C288.759 29.1708 291.767 33.0168 295.671 33.0168C299.415 33.0168 302.263 29.1708 304.151 23.4452C305.015 20.8137 305.591 18.2979 306.007 15.9845C309.655 16.7653 311.639 19.3968 311.639 23.0982C311.639 26.8574 308.951 29.4022 304.919 30.2986C304.023 30.501 303.159 30.6745 301.815 30.8191L304.727 34.9254Z" fill="#ECEFFF"/>
<path d="M342.871 18.4425L340.087 19.4835C341.111 20.8137 341.655 21.768 342.519 23.4452L345.367 22.3174C344.791 21.2475 343.671 19.5124 342.871 18.4425ZM346.487 17.0545L343.735 18.1822C344.791 19.4835 345.399 20.38 346.327 22.0282L349.143 20.8137C348.503 19.7727 347.319 18.0955 346.487 17.0545ZM321.207 13.2663L321.687 17.9798C325.495 17.228 331.063 16.6496 333.783 16.3894C332.087 17.7774 329.783 20.8137 329.783 24.7465C329.783 30.848 335.831 34.3181 342.903 34.8097L344.695 29.9805C339.223 29.6913 334.839 28.0431 334.839 23.8211C334.839 20.4378 337.783 17.0834 341.207 16.3894C342.967 16.0713 345.655 16.0713 347.287 16.0424L347.255 11.5891C344.951 11.6758 341.207 11.8493 338.039 12.0807C332.247 12.5434 327.447 12.8904 324.471 13.1217C323.863 13.1795 322.487 13.2374 321.207 13.2663Z" fill="#ECEFFF"/>
<path d="M355.383 10.6926C355.351 11.7626 355.159 13.0639 355.031 13.9314C354.679 16.0424 353.783 21.421 353.783 25.8164C353.783 29.6913 354.423 33.0458 355.095 34.9832L359.415 34.723C359.383 34.2603 359.383 33.7398 359.383 33.4217C359.383 33.1325 359.479 32.4674 359.575 32.0626C359.959 30.4143 360.919 27.5225 361.879 24.9489L359.543 23.2717C359.127 24.1103 358.743 24.6597 358.359 25.4983C358.327 25.3827 358.327 24.92 358.327 24.8332C358.327 22.1728 359.415 15.4929 359.799 14.0181C359.927 13.4976 360.375 11.7337 360.663 11.0975L355.383 10.6926ZM371.287 28.4768C371.287 30.0383 370.679 30.7902 369.143 30.7902C367.799 30.7902 366.679 30.4432 366.679 29.4311C366.679 28.5346 367.671 28.0141 369.143 28.0141C369.879 28.0141 370.583 28.1009 371.287 28.2744V28.4768ZM382.103 29.4889C380.695 28.3033 378.743 26.7996 376.023 25.7875C375.927 24.1103 375.767 22.0572 375.703 19.4546C377.367 19.3389 378.935 19.1654 380.343 18.9919V14.6832C378.903 14.9435 377.335 15.1748 375.735 15.3194C375.767 14.1338 375.799 13.1795 375.831 12.6301C375.863 11.9939 375.927 11.271 376.023 10.7216H370.551C370.679 11.3288 370.807 12.2542 370.807 12.6879C370.839 13.2085 370.839 14.2784 370.871 15.6086C370.263 15.6375 369.687 15.6375 369.079 15.6375C367.159 15.6375 365.271 15.5508 363.415 15.3773L363.447 19.5124C365.335 19.6281 367.223 19.6859 369.111 19.6859C369.687 19.6859 370.295 19.6859 370.903 19.657C370.935 21.4499 371.031 23.2139 371.127 24.7176C370.615 24.6886 370.071 24.6597 369.527 24.6597C365.111 24.6597 362.199 26.7129 362.199 29.9227C362.199 33.1614 365.143 34.8965 369.591 34.8965C373.751 34.8965 375.703 33.2193 376.119 30.5299C377.207 31.2529 378.327 32.1204 379.511 33.1325L382.103 29.4889Z" fill="#ECEFFF"/>
<path d="M413.559 17.3436C411.863 16.2737 407.767 14.3073 405.495 13.4109L403.031 16.852C405.239 17.7196 408.951 19.657 410.839 20.9872L413.559 17.3436ZM401.335 12.8904C400.279 13.1795 398.935 13.4687 397.463 13.729C397.911 12.2831 398.263 10.9818 398.487 10.0854L393.239 9.62271C393.175 11.0975 392.887 12.7458 392.439 14.3073C391.607 14.3652 390.807 14.3941 389.975 14.3941C388.919 14.3941 387.031 14.3362 385.559 14.1916L385.911 18.1822C387.383 18.269 388.663 18.2979 390.007 18.2979C390.327 18.2979 390.679 18.2979 391.031 18.269C389.655 21.2475 387.223 25.267 384.727 28.072L389.367 30.1829C391.927 26.8574 394.615 21.8837 396.087 17.8641C398.231 17.575 400.151 17.199 401.463 16.881L401.335 12.8904ZM401.591 28.8238C401.591 30.4143 401.015 31.4264 399.127 31.4264C397.783 31.4264 396.919 30.7902 396.919 29.8648C396.919 29.0552 397.879 28.4768 399.447 28.4768C400.183 28.4768 400.919 28.5636 401.591 28.6792V28.8238ZM401.079 19.0498C401.175 20.6691 401.303 23.0114 401.431 25.0646C400.887 25.0067 400.343 24.9778 399.767 24.9778C394.871 24.9778 392.375 27.4358 392.375 30.2986C392.375 33.6241 395.639 35.3881 399.831 35.3881C404.503 35.3881 406.167 33.3349 406.263 30.5878C407.831 31.571 409.111 32.6698 410.103 33.5084L412.631 29.7781C411.063 28.4479 408.823 27.002 406.071 26.0478C406.007 24.8621 405.943 23.7344 405.911 23.0693C405.879 21.6523 405.815 20.2932 405.911 19.0498H401.079Z" fill="#ECEFFF"/>
<path d="M434.519 9.39137C433.943 10.1721 432.791 11.1842 431.735 12.1096C429.591 13.9603 425.527 16.9966 422.999 18.8473C419.639 21.3342 419.447 23.0693 422.679 25.5851C425.559 27.8117 430.103 31.3396 431.863 32.9879C432.887 33.9422 433.943 34.9254 434.967 35.9664L439.447 32.2071C436.279 29.4889 430.039 25.1224 427.959 23.4741C426.423 22.2596 426.359 21.9993 427.927 20.7848C429.911 19.2233 433.879 16.4761 435.863 15.117C436.727 14.5097 437.815 13.7579 438.999 12.9771L434.519 9.39137Z" fill="#ECEFFF"/>
<path d="M458.999 32.4674C457.591 30.848 454.391 27.8695 452.151 26.1923L448.087 29.3443C450.295 31.1083 452.983 33.5952 454.871 35.6772L458.999 32.4674Z" fill="#ECEFFF"/>
<path d="M6.75201 43.1234C5.56801 44.9741 3.07201 47.3164 0.800006 48.6466C1.50401 49.5142 2.59201 51.2781 3.10401 52.2324C5.98401 50.4106 9.12001 47.49 11.2 44.685L6.75201 43.1234ZM14.112 66.8935C15.104 64.6669 15.68 62.18 15.968 59.8087C16.8 61.5727 17.76 63.1342 18.912 64.5512C17.504 65.5344 15.872 66.3151 14.112 66.8935ZM18.784 50.6709V54.1409H16.256V50.6709H18.784ZM24.416 57.7845C23.808 59.2593 22.976 60.5895 21.952 61.7751C20.864 60.5895 20 59.2593 19.328 57.7845H24.416ZM26.976 53.9964L26.208 54.1409H23.296V50.6709H25.312C25.088 51.5673 24.864 52.4059 24.64 53.0421L28.704 53.8229C29.44 52.1456 30.24 49.6009 30.816 47.2586L27.392 46.6803L26.688 46.7959H23.296V43.0945H18.784V46.7959H11.84V54.7193C11.84 58.3918 11.616 63.3077 9.02401 66.9224V54.835C10.08 53.5626 11.04 52.2613 11.808 50.989L7.71201 49.4563C5.98401 52.1746 3.10401 54.9506 0.544006 56.6857C1.21601 57.7267 2.36801 60.1557 2.68801 61.11C3.29601 60.6473 3.90401 60.1557 4.51201 59.6063V70.566H9.02401V68.3683C9.98401 69.0045 11.2 69.9587 11.744 70.5371C12.544 69.6696 13.248 68.6574 13.792 67.5586C14.592 68.4261 15.456 69.6695 15.872 70.5082C18.144 69.6985 20.16 68.7153 21.952 67.4429C23.712 68.7731 25.792 69.8141 28.256 70.566C28.864 69.4671 30.176 67.8188 31.168 66.9802C28.864 66.4308 26.912 65.5922 25.216 64.5223C27.424 62.0354 28.992 58.9123 29.888 54.9217L26.976 53.9964Z" fill="#ECEFFF"/>
<path d="M41.504 48.4442C44 49.0226 51.168 50.3817 54.496 50.7865L55.648 46.5068C52.864 46.2176 45.888 45.1766 42.72 44.2801L41.504 48.4442ZM43.424 50.3239L38.272 49.6877C38.048 53.5626 37.312 58.9412 36.704 61.8619L41.088 62.8451C41.408 62.2089 41.76 61.7462 42.4 61.0522C44.256 59.028 47.36 57.9291 50.592 57.9291C53.12 57.9291 54.848 59.1436 54.848 60.763C54.848 64.262 49.728 66.0838 40.48 64.8404L41.984 69.3804C55.936 70.4792 60.256 66.1706 60.256 60.8498C60.256 57.3508 57.024 53.9964 51.072 53.9964C48.032 53.9964 45.056 54.7193 42.304 56.3097C42.464 54.7771 43.008 51.7408 43.424 50.3239Z" fill="#ECEFFF"/>
<path d="M76.128 56.8881C75.008 60.2136 74.048 61.9486 72.768 61.9486C71.68 61.9486 70.72 60.6473 70.72 58.1605C70.72 55.4133 73.056 51.5673 77.76 50.4106C77.376 52.6662 76.832 54.9506 76.128 56.8881ZM81.696 69.2647C89.952 68.0213 93.888 63.5969 93.888 57.5821C93.888 51.0757 88.768 46.0441 80.704 46.0441C72.224 46.0441 65.728 51.8276 65.728 58.6231C65.728 63.5102 68.736 67.3562 72.64 67.3562C76.384 67.3562 79.232 63.5102 81.12 57.7845C81.984 55.153 82.56 52.6372 82.976 50.3239C86.624 51.1046 88.608 53.7361 88.608 57.4375C88.608 61.1968 85.92 63.7415 81.888 64.6379C80.992 64.8404 80.128 65.0139 78.784 65.1584L81.696 69.2647Z" fill="#ECEFFF"/>
<path d="M108.736 43.6729C108.512 47.461 109.216 60.2714 96.48 66.9513C98.112 67.9345 99.616 69.2358 100.448 70.3346C106.624 66.6911 109.952 61.6016 111.776 56.7435C113.696 61.804 117.28 67.1827 124.096 70.3057C124.8 69.149 126.176 67.7321 127.68 66.72C115.808 61.6305 114.272 49.7455 114.016 45.5814C114.048 44.8585 114.08 44.2223 114.112 43.6729H108.736Z" fill="#ECEFFF"/>
<path d="M146.496 65.679V60.7052H155.68V56.6568H146.496V52.2324H156.96V48.1261H146.496V43.0945H141.632V48.1261H137.536C138.08 46.8827 138.56 45.6392 138.944 44.3669L134.112 43.3837C133.024 47.2875 130.976 51.2492 128.512 53.6204C129.696 54.1988 131.776 55.4422 132.704 56.1652C133.664 55.0952 134.592 53.7361 135.488 52.2324H141.632V56.6568H133.344V60.7052H141.632V65.679H129.536V69.7852H158.656V65.679H146.496Z" fill="#ECEFFF"/>
<path d="M180.48 63.5102C180.448 62.2378 180.384 60.3003 180.352 58.7388C182.016 58.0737 183.552 57.5243 184.768 57.1194C185.984 56.6857 187.968 56.0206 189.088 55.7314L187.2 51.7408C185.856 52.3192 184.544 52.8686 183.168 53.418C182.048 53.8807 181.024 54.2566 179.744 54.806C178.912 53.4758 177.376 52.7818 175.52 52.7818C174.624 52.7818 173.024 52.8975 172.384 53.071C172.8 52.4927 173.216 51.7986 173.6 51.0468C176.992 50.9311 180.864 50.6709 183.84 50.3239L183.872 46.3043C181.216 46.7381 178.176 46.9694 175.328 47.114C175.68 46.0441 175.904 45.1477 176.032 44.5115L170.976 44.1355C170.944 44.8585 170.784 45.9573 170.432 47.2586H169.184C167.488 47.2586 165.056 47.1429 163.488 46.9116V50.9311C165.152 51.0757 167.456 51.1335 168.768 51.1335C167.232 53.765 164.992 56.1073 161.984 58.5075L166.08 61.2835C167.168 59.9822 168.064 58.9412 169.024 58.0448C170.112 57.0905 172.064 56.1362 173.696 56.1362C174.304 56.1362 174.944 56.2808 175.424 56.7146C171.904 58.3918 168.128 60.7919 168.128 64.5223C168.128 68.3394 171.872 69.5539 177.088 69.5539C180.224 69.5539 184.288 69.2936 186.24 69.0623L186.4 64.5801C183.616 65.1295 180 65.4765 177.184 65.4765C174.208 65.4765 173.216 64.9849 173.216 63.7704C173.216 62.6137 174.08 61.6884 176.064 60.6473C176.032 61.7173 175.968 62.7872 175.904 63.5102H180.48Z" fill="#ECEFFF"/>
<path d="M215.2 48.4731H212.864V47.6924H215.2V48.4731ZM215.2 51.7986H212.864V50.989H215.2V51.7986ZM200.224 50.989H202.592V51.7986H200.224V50.989ZM200.224 47.6924H202.592V48.4731H200.224V47.6924ZM208.928 50.989V51.7986H206.496V50.989H208.928ZM208.928 47.6924V48.4731H206.496V47.6924H208.928ZM219.68 45.0031H212.864V43.0945H208.928V45.0031H206.496V43.0945H202.592V45.0031H195.968V54.488H219.68V45.0031ZM222.08 55.182H193.984V58.0737H222.08V55.182ZM211.36 65.0428C210.976 65.7657 210.496 66.5176 210.112 67.067L210.4 67.1537H205.024L205.6 66.9802C205.408 66.4308 204.992 65.7079 204.576 65.0428H211.36ZM201.92 61.3703H213.76V62.4402H201.92V61.3703ZM214.592 67.1537C215.008 66.5754 215.456 65.9103 215.936 65.1874L215.456 65.0428H218.56V58.7677H197.408V65.0428H200.608L199.936 65.2163C200.32 65.7946 200.736 66.4886 201.024 67.1537H193.728V70.2479H222.272V67.1537H214.592Z" fill="#ECEFFF"/>
<path d="M233.504 44.3669C233.568 46.1308 233.344 48.1261 232.896 50.3528C231.488 50.4395 230.176 50.5263 229.248 50.5552C228 50.5841 226.784 50.6419 225.568 50.5552L225.984 55.2109C227.04 55.0374 228.864 54.806 229.888 54.6904C230.336 54.6325 231.04 54.5458 231.872 54.4301C230.688 58.334 228.64 63.6837 225.632 67.3562L230.656 69.178C233.344 65.2452 235.712 58.3629 236.992 53.9096C237.568 53.8807 238.112 53.8518 238.464 53.8518C240.448 53.8518 241.408 54.112 241.408 56.1941C241.408 58.8545 241.024 62.1221 240.224 63.5391C239.808 64.3198 239.072 64.6379 238.08 64.6379C237.28 64.6379 235.36 64.3198 234.208 64.0307L235.04 68.5996C236.16 68.8309 237.664 69.0044 238.88 69.0044C241.472 69.0044 243.328 68.2815 244.416 66.2284C245.76 63.6837 246.176 59.0858 246.176 55.7314C246.176 51.4516 243.776 49.8901 240.128 49.8901C239.552 49.8901 238.816 49.919 237.984 49.9768C238.176 49.225 238.368 48.4442 238.528 47.6635C238.72 46.8538 238.976 45.7838 239.2 44.9163L233.504 44.3669ZM245.504 49.1093C247.808 51.7697 249.92 57.0038 250.688 60.3293L255.584 58.2761C254.656 55.5001 252.064 49.9479 250.144 47.3743L245.504 49.1093Z" fill="#ECEFFF"/>
<path d="M270.208 47.2586L270.24 51.7119C274.464 52.03 280 52.0011 284.16 51.7119V47.2297C280.608 47.5767 274.336 47.7213 270.208 47.2586ZM269.088 59.4617C268.736 60.8498 268.512 62.0932 268.512 63.3945C268.512 66.4308 271.264 68.3104 276.8 68.3104C280.544 68.3104 283.072 68.108 285.152 67.761L285.056 63.0764C282.176 63.5969 279.904 63.8283 277.056 63.8283C274.464 63.8283 273.152 63.3656 273.152 62.0932C273.152 61.3414 273.248 60.7052 273.472 59.8087L269.088 59.4617ZM260.64 45.1187C260.608 46.1887 260.384 47.49 260.256 48.3575C259.936 50.4684 259.008 55.2398 259.008 59.6352C259.008 63.5102 259.648 67.1248 260.288 69.0623L264.704 68.802C264.672 68.3394 264.672 67.8188 264.672 67.5008C264.672 67.2405 264.768 66.5465 264.864 66.1416C265.216 64.5223 266.208 61.3703 267.168 58.7677L264.832 57.1194C264.416 57.9291 264.032 58.5075 263.616 59.3171C263.584 59.2015 263.584 58.7388 263.584 58.652C263.584 55.9917 264.736 49.919 265.088 48.4442C265.216 47.9237 265.696 46.1598 265.984 45.5236L260.64 45.1187Z" fill="#ECEFFF"/>
<path d="M301.625 58.3629C301.625 57.0616 302.681 56.5122 303.641 56.5122C304.345 56.5122 304.984 56.7724 305.368 57.264C305.72 59.4617 304.665 60.1268 303.641 60.1268C302.649 60.1268 301.625 59.4039 301.625 58.3629ZM318.233 47.49C316.569 47.461 312.312 47.5189 309.368 47.5189V47.2008C309.4 46.6803 309.529 44.9163 309.625 44.3669H304.089C304.217 44.9163 304.344 46.1308 304.44 47.2297L304.473 47.5478C300.377 47.6056 294.776 47.7213 291.096 47.6924L291.224 51.8565C295.096 51.683 299.768 51.5095 304.536 51.4516L304.569 52.8975C304.313 52.8686 304.056 52.8686 303.768 52.8686C300.088 52.8686 297.017 54.9795 297.017 58.4496C297.017 62.151 300.312 63.9439 302.648 63.9439C302.84 63.9439 303.032 63.9439 303.224 63.915C301.368 65.2452 298.713 65.9392 295.961 66.4308L300.025 70.1322C307.961 68.1948 310.585 63.221 310.585 59.5485C310.585 57.9869 310.168 56.57 309.336 55.4133C309.336 54.2277 309.337 52.7818 309.305 51.4227C313.305 51.4516 316.28 51.5095 318.168 51.5962L318.233 47.49Z" fill="#ECEFFF"/>
<path d="M335.897 65.6211C334.297 65.6211 333.241 64.9849 333.241 64.0885C333.241 63.5102 333.848 62.9607 334.872 62.9607C336.216 62.9607 337.176 63.9728 337.336 65.5633C336.888 65.5922 336.409 65.6211 335.897 65.6211ZM343.096 45.0609C342.68 45.1766 341.784 45.2922 340.28 45.4079C338.392 45.5525 332.057 45.6392 330.361 45.6392C329.305 45.6392 328.121 45.5814 327.129 45.4657L327.289 49.9479C328.057 49.8323 329.177 49.7455 330.137 49.6877C331.833 49.572 335.097 49.4563 336.697 49.4274C335.161 50.6709 332.217 52.724 330.457 54.0542C328.569 55.4422 324.889 58.2761 322.841 59.722L326.328 62.9896C329.368 59.6352 332.696 57.1194 337.336 57.1194C340.824 57.1194 343.608 58.652 343.608 61.11C343.608 62.4981 343.001 63.6258 341.753 64.4066C341.209 61.6884 338.713 59.6642 334.841 59.6642C331.257 59.6642 328.697 62.0065 328.697 64.5223C328.697 67.6743 332.408 69.5539 336.888 69.5539C345.08 69.5539 348.664 65.65 348.664 61.1679C348.664 56.8592 344.376 53.7072 338.936 53.7072C338.168 53.7072 337.561 53.7361 336.729 53.8807C338.457 52.6662 341.241 50.613 343.033 49.5142C343.833 49.0226 344.633 48.5888 345.465 48.1261L343.096 45.0609Z" fill="#ECEFFF"/>
<path d="M364.44 56.8881C363.32 60.2136 362.361 61.9486 361.081 61.9486C359.993 61.9486 359.033 60.6473 359.033 58.1605C359.033 55.4133 361.369 51.5673 366.073 50.4106C365.689 52.6662 365.144 54.9506 364.44 56.8881ZM370.009 69.2647C378.265 68.0213 382.201 63.5969 382.201 57.5821C382.201 51.0757 377.081 46.0441 369.017 46.0441C360.537 46.0441 354.04 51.8276 354.04 58.6231C354.04 63.5102 357.049 67.3562 360.953 67.3562C364.697 67.3562 367.544 63.5102 369.432 57.7845C370.296 55.153 370.873 52.6372 371.289 50.3239C374.937 51.1046 376.921 53.7361 376.921 57.4375C376.921 61.1968 374.233 63.7415 370.201 64.6379C369.305 64.8404 368.44 65.0139 367.096 65.1584L370.009 69.2647Z" fill="#ECEFFF"/>
<path d="M415.384 48.184C414.84 47.2008 413.689 45.3501 412.857 44.2512L409.849 45.3501C410.713 46.4489 411.736 48.1551 412.376 49.3407L415.384 48.184ZM411.417 49.6009C410.841 48.5888 409.721 46.7092 408.921 45.6392L405.913 46.7381C406.777 47.8659 407.704 49.572 408.376 50.7576L411.417 49.6009ZM400.312 57.611C402.329 57.3797 404.281 57.2929 406.585 57.2929C408.537 57.2929 410.521 57.4954 412.089 57.6689L412.185 53.5048C410.265 53.3313 408.345 53.2445 406.585 53.2445C404.505 53.2445 402.137 53.3891 400.312 53.5626V57.611ZM403.065 47.49C401.465 47.837 399.833 48.1261 398.201 48.3575L398.328 47.8659C398.488 47.2008 398.809 45.8128 399.065 44.9163L393.208 44.5115C393.304 45.2344 393.272 46.5068 393.112 47.7213C393.08 48.0683 393.017 48.4442 392.921 48.878C392.089 48.9069 391.224 48.9358 390.392 48.9358C389.016 48.9358 388.025 48.878 386.297 48.7045L386.424 53.0132C387.512 53.071 388.729 53.1288 390.361 53.1288C390.873 53.1288 391.417 53.1288 391.961 53.0999C391.801 53.765 391.576 54.459 391.384 55.1241C390.2 59.1147 387.704 65.2163 385.816 68.0502L391.16 69.6695C392.952 66.1416 395.064 60.3293 396.216 56.3387C396.536 55.2109 396.857 53.9385 397.177 52.724C399.225 52.5216 401.273 52.2035 403.065 51.8276V47.49ZM398.201 60.5028C397.945 61.5727 397.625 63.1342 397.625 64.5801C397.625 67.5008 400.408 69.3225 405.944 69.3225C408.6 69.3225 410.745 69.1201 412.569 68.9177L412.76 64.4933C410.328 64.8693 408.121 65.1006 405.977 65.1006C403.193 65.1006 402.361 64.3488 402.361 63.1632C402.361 62.5848 402.552 61.6305 402.776 60.8787L398.201 60.5028Z" fill="#ECEFFF"/>
<path d="M421.52 60.5895C418.576 60.5895 416.176 62.7583 416.176 65.4187C416.176 68.0791 418.576 70.2479 421.52 70.2479C424.496 70.2479 426.864 68.0791 426.864 65.4187C426.864 62.7583 424.496 60.5895 421.52 60.5895ZM421.52 67.8188C420.08 67.8188 418.864 66.7489 418.864 65.4187C418.864 64.0885 420.08 63.0186 421.52 63.0186C422.992 63.0186 424.176 64.0885 424.176 65.4187C424.176 66.7489 422.992 67.8188 421.52 67.8188Z" fill="#ECEFFF"/>
<path d="M530.144 31.1734C535.904 31.1734 539.232 28.0214 539.232 24.4356C539.232 21.3993 537.472 19.6064 534.528 18.5365L531.552 17.4665C529.44 16.7147 527.936 16.252 527.936 15.0664C527.936 13.9097 529.024 13.2735 530.784 13.2735C532.64 13.2735 534.112 13.8519 535.68 14.9218L538.528 11.6831C536.448 9.80346 533.536 8.84919 530.784 8.84919C525.728 8.84919 522.144 11.7409 522.144 15.3556C522.144 18.4787 524.48 20.3583 526.976 21.2547L530.016 22.4114C532.064 23.1922 533.376 23.597 533.376 24.8405C533.376 25.9972 532.384 26.7201 530.272 26.7201C528.384 26.7201 526.176 25.8237 524.48 24.5224L521.248 28.0792C523.712 30.1323 527.04 31.1734 530.144 31.1734Z" fill="#ECEFFF"/>
<path d="M548.847 31.1734C550.703 31.1734 552.015 30.8264 552.975 30.5661L552.079 26.8647C551.631 26.9804 550.991 27.1539 550.415 27.1539C549.071 27.1539 548.111 26.4309 548.111 24.6091V18.3341H552.399V14.3146H548.111V9.97696H543.375L542.735 14.3146L539.951 14.517V18.3341H542.415V24.667C542.415 28.5708 544.271 31.1734 548.847 31.1734Z" fill="#ECEFFF"/>
<path d="M559.787 31.1734C561.803 31.1734 563.499 30.3348 565.003 29.1202H565.131L565.547 30.7685H570.187V21.4282C570.187 16.2809 567.531 13.9097 562.827 13.9097C559.979 13.9097 557.387 14.7772 554.987 16.0785L556.971 19.4618C558.795 18.5365 560.299 18.016 561.739 18.016C563.595 18.016 564.363 18.7967 564.491 20.1269C557.387 20.821 554.379 22.7006 554.379 26.1707C554.379 28.9178 556.427 31.1734 559.787 31.1734ZM561.739 27.1828C560.555 27.1828 559.787 26.7201 559.787 25.7658C559.787 24.6091 560.939 23.6838 564.491 23.25V25.8815C563.659 26.6912 562.891 27.1828 561.739 27.1828Z" fill="#ECEFFF"/>
<path d="M576.857 37.1014C581.177 37.1014 583.129 35.0194 584.921 30.7974L591.161 14.3146H585.753L583.641 21.1391C583.225 22.7006 582.809 24.2332 582.457 25.7947H582.297C581.817 24.1754 581.433 22.6428 580.889 21.1391L578.457 14.3146H572.729L579.705 30.2769L579.449 31.1155C579.033 32.2722 578.137 33.0819 576.409 33.0819C575.993 33.0819 575.513 32.9373 575.193 32.8795L574.169 36.7833C574.937 36.9857 575.673 37.1014 576.857 37.1014Z" fill="#ECEFFF"/>
<path d="M601.21 30.7685H606.874V19.7799C607.994 18.8257 608.762 18.3052 610.042 18.3052C611.482 18.3052 612.154 18.9703 612.154 21.2258V30.7685H617.85V20.5896C617.85 16.4834 616.154 13.9097 612.186 13.9097C609.722 13.9097 607.93 15.0375 606.618 16.1364L606.874 13.2157V7.66357H601.21V30.7685Z" fill="#ECEFFF"/>
<path d="M627.745 31.1734C630.241 31.1734 631.937 30.1323 633.441 28.513H633.569L633.985 30.7685H638.625V14.3146H632.929V25.1007C631.969 26.3153 631.169 26.7779 629.889 26.7779C628.449 26.7779 627.777 26.1418 627.777 23.8573V14.3146H622.081V24.4935C622.081 28.5997 623.777 31.1734 627.745 31.1734Z" fill="#ECEFFF"/>
<path d="M643.21 30.7685H648.874V19.7799C649.994 18.8257 650.762 18.3052 652.042 18.3052C653.482 18.3052 654.154 18.9703 654.154 21.2258V30.7685H659.85V20.5896C659.85 16.4834 658.154 13.9097 654.186 13.9097C651.722 13.9097 649.866 15.0375 648.362 16.3677H648.234L647.85 14.3146H643.21V30.7685Z" fill="#ECEFFF"/>
<path d="M670.801 37.6798C677.137 37.6798 681.105 35.2218 681.105 31.7517C681.105 28.7732 678.577 27.5298 674.097 27.5298H671.217C669.265 27.5298 668.529 27.1828 668.529 26.4309C668.529 25.8815 668.689 25.6212 669.105 25.2742C669.905 25.4767 670.641 25.5634 671.249 25.5634C675.281 25.5634 678.513 23.8862 678.513 20.0402C678.513 19.2594 678.289 18.5076 678.001 18.0449H680.817V14.3146H674.129C673.297 14.0543 672.305 13.9097 671.249 13.9097C667.313 13.9097 663.633 15.8761 663.633 19.8956C663.633 21.8042 664.817 23.3368 666.097 24.1465V24.2621C664.913 25.014 664.081 26.1707 664.081 27.3274C664.081 28.7154 664.785 29.5829 665.745 30.1613V30.3058C664.049 31.0866 663.153 32.1855 663.153 33.5446C663.153 36.4942 666.609 37.6798 670.801 37.6798ZM671.249 22.4692C669.937 22.4692 668.945 21.6017 668.945 19.8956C668.945 18.2184 669.937 17.3509 671.249 17.3509C672.593 17.3509 673.553 18.2184 673.553 19.8956C673.553 21.6017 672.593 22.4692 671.249 22.4692ZM671.697 34.4699C669.361 34.4699 667.825 33.8916 667.825 32.7349C667.825 32.1855 668.113 31.7228 668.689 31.2601C669.265 31.4047 669.969 31.4625 671.281 31.4625H673.009C674.705 31.4625 675.665 31.665 675.665 32.6482C675.665 33.6892 674.033 34.4699 671.697 34.4699Z" fill="#ECEFFF"/>
<path d="M683.991 30.7685H689.655V21.3704C690.615 19.2016 692.247 18.4208 693.591 18.4208C694.391 18.4208 694.935 18.5365 695.575 18.6811L696.535 14.2567C696.023 14.0543 695.415 13.9097 694.327 13.9097C692.503 13.9097 690.487 14.9797 689.143 17.1774H689.015L688.631 14.3146H683.991V30.7685Z" fill="#ECEFFF"/>
<path d="M701.263 37.1014C705.583 37.1014 707.535 35.0194 709.327 30.7974L715.567 14.3146H710.159L708.047 21.1391C707.631 22.7006 707.215 24.2332 706.863 25.7947H706.703C706.223 24.1754 705.839 22.6428 705.295 21.1391L702.863 14.3146H697.135L704.111 30.2769L703.855 31.1155C703.439 32.2722 702.543 33.0819 700.815 33.0819C700.399 33.0819 699.919 32.9373 699.599 32.8795L698.575 36.7833C699.343 36.9857 700.079 37.1014 701.263 37.1014Z" fill="#ECEFFF"/>
<path d="M719.288 31.1734C721.24 31.1734 722.68 29.7564 722.68 27.9635C722.68 26.1996 721.24 24.7826 719.288 24.7826C717.304 24.7826 715.896 26.1996 715.896 27.9635C715.896 29.7564 717.304 31.1734 719.288 31.1734Z" fill="#ECEFFF"/>
<path d="M530.144 65.5127C535.904 65.5127 539.232 62.3607 539.232 58.775C539.232 55.7386 537.472 53.9458 534.528 52.8758L531.552 51.8059C529.44 51.054 527.936 50.5914 527.936 49.4057C527.936 48.2491 529.024 47.6129 530.784 47.6129C532.64 47.6129 534.112 48.1912 535.68 49.2612L538.528 46.0224C536.448 44.1428 533.536 43.1885 530.784 43.1885C525.728 43.1885 522.144 46.0803 522.144 49.6949C522.144 52.818 524.48 54.6976 526.976 55.5941L530.016 56.7507C532.064 57.5315 533.376 57.9364 533.376 59.1798C533.376 60.3365 532.384 61.0594 530.272 61.0594C528.384 61.0594 526.176 60.163 524.48 58.8617L521.248 62.4185C523.712 64.4717 527.04 65.5127 530.144 65.5127Z" fill="#ECEFFF"/>
<path d="M548.847 65.5127C550.703 65.5127 552.015 65.1657 552.975 64.9054L552.079 61.204C551.631 61.3197 550.991 61.4932 550.415 61.4932C549.071 61.4932 548.111 60.7703 548.111 58.9485V52.6734H552.399V48.6539H548.111V44.3163H543.375L542.735 48.6539L539.951 48.8563V52.6734H542.415V59.0063C542.415 62.9101 544.271 65.5127 548.847 65.5127Z" fill="#ECEFFF"/>
<path d="M559.787 65.5127C561.803 65.5127 563.499 64.6741 565.003 63.4596H565.131L565.547 65.1079H570.187V55.7676C570.187 50.6203 567.531 48.2491 562.827 48.2491C559.979 48.2491 557.387 49.1166 554.987 50.4179L556.971 53.8012C558.795 52.8758 560.299 52.3553 561.739 52.3553C563.595 52.3553 564.363 53.1361 564.491 54.4663C557.387 55.1603 554.379 57.0399 554.379 60.51C554.379 63.2572 556.427 65.5127 559.787 65.5127ZM561.739 61.5221C560.555 61.5221 559.787 61.0594 559.787 60.1052C559.787 58.9485 560.939 58.0231 564.491 57.5894V60.2208C563.659 61.0305 562.891 61.5221 561.739 61.5221Z" fill="#ECEFFF"/>
<path d="M576.857 71.4408C581.177 71.4408 583.129 69.3587 584.921 65.1368L591.161 48.6539H585.753L583.641 55.4784C583.225 57.0399 582.809 58.5725 582.457 60.1341H582.297C581.817 58.5147 581.433 56.9821 580.889 55.4784L578.457 48.6539H572.729L579.705 64.6163L579.449 65.4549C579.033 66.6116 578.137 67.4212 576.409 67.4212C575.993 67.4212 575.513 67.2767 575.193 67.2188L574.169 71.1227C574.937 71.3251 575.673 71.4408 576.857 71.4408Z" fill="#ECEFFF"/>
<path d="M612.762 42.1764C611.93 41.8872 610.65 41.5981 609.05 41.5981C603.994 41.5981 602.17 44.5476 602.17 48.0177V48.6828L599.738 48.8563V52.6734H602.17V65.1079H607.866V52.6734H611.098V48.6539H607.866V47.8731C607.866 46.2248 608.634 45.6176 609.882 45.6176C610.49 45.6176 611.162 45.7622 611.738 45.9646L612.762 42.1764Z" fill="#ECEFFF"/>
<path d="M621.489 65.5127C626.097 65.5127 630.385 62.3318 630.385 56.8953C630.385 51.43 626.097 48.2491 621.489 48.2491C616.849 48.2491 612.561 51.43 612.561 56.8953C612.561 62.3318 616.849 65.5127 621.489 65.5127ZM621.489 61.3486C619.345 61.3486 618.385 59.6136 618.385 56.8953C618.385 54.1482 619.345 52.4131 621.489 52.4131C623.601 52.4131 624.561 54.1482 624.561 56.8953C624.561 59.6136 623.601 61.3486 621.489 61.3486Z" fill="#ECEFFF"/>
<path d="M641.864 65.5127C646.472 65.5127 650.76 62.3318 650.76 56.8953C650.76 51.43 646.472 48.2491 641.864 48.2491C637.224 48.2491 632.936 51.43 632.936 56.8953C632.936 62.3318 637.224 65.5127 641.864 65.5127ZM641.864 61.3486C639.72 61.3486 638.76 59.6136 638.76 56.8953C638.76 54.1482 639.72 52.4131 641.864 52.4131C643.976 52.4131 644.936 54.1482 644.936 56.8953C644.936 59.6136 643.976 61.3486 641.864 61.3486Z" fill="#ECEFFF"/>
<path d="M659.519 65.5127C660.767 65.5127 661.727 65.3103 662.335 65.0789L661.663 61.2908C661.343 61.3486 661.215 61.3486 661.023 61.3486C660.575 61.3486 659.999 61.0305 659.999 59.9606V42.0029H654.335V59.7582C654.335 63.1993 655.615 65.5127 659.519 65.5127Z" fill="#ECEFFF"/>
<path d="M664.96 65.1079H670.624V48.6539H664.96V65.1079ZM667.808 46.3694C669.696 46.3694 671.04 45.2706 671.04 43.7379C671.04 42.1764 669.696 41.0776 667.808 41.0776C665.888 41.0776 664.544 42.1764 664.544 43.7379C664.544 45.2706 665.888 46.3694 667.808 46.3694Z" fill="#ECEFFF"/>
<path d="M680.681 65.5127C685.641 65.5127 688.265 63.1704 688.265 60.1341C688.265 57.1556 685.737 55.97 683.465 55.1892C681.577 54.5819 679.913 54.206 679.913 53.2228C679.913 52.4421 680.553 52.0372 681.833 52.0372C683.049 52.0372 684.329 52.6156 685.609 53.4253L688.169 50.36C686.569 49.2901 684.521 48.2491 681.641 48.2491C677.417 48.2491 674.601 50.36 674.601 53.4831C674.601 56.2013 677.161 57.5315 679.337 58.3123C681.193 58.9774 682.953 59.4401 682.953 60.4233C682.953 61.2329 682.313 61.7245 680.809 61.7245C679.369 61.7245 677.865 61.1462 676.201 59.9895L673.673 63.1993C675.497 64.5873 678.313 65.5127 680.681 65.5127Z" fill="#ECEFFF"/>
<path d="M691.554 65.1079H697.218V54.1193C698.338 53.165 699.106 52.6445 700.386 52.6445C701.826 52.6445 702.498 53.3096 702.498 55.5651V65.1079H708.194V54.929C708.194 50.8227 706.498 48.2491 702.53 48.2491C700.066 48.2491 698.274 49.3768 696.962 50.4757L697.218 47.555V42.0029H691.554V65.1079Z" fill="#ECEFFF"/>
<path d="M715.944 65.5127C717.896 65.5127 719.336 64.0957 719.336 62.3029C719.336 60.5389 717.896 59.122 715.944 59.122C713.96 59.122 712.552 60.5389 712.552 62.3029C712.552 64.0957 713.96 65.5127 715.944 65.5127Z" fill="#ECEFFF"/>
<path d="M822.8 11.5159H791.35V9.82604H822.8V11.5159ZM822.8 18.2753H791.35V16.5855H822.8V18.2753ZM835.295 4.44922H779.45V23.6521H835.295V4.44922ZM789.48 49.3072V47.5406H801.465V49.3072H789.48ZM789.48 40.5507H801.465V42.3174H789.48V40.5507ZM825.01 42.3174H813.45V40.5507H825.01V42.3174ZM825.01 49.3072H813.45V47.5406H825.01V49.3072ZM813.45 63.4406H838.61V56.5275H813.45V54.9145H837.165V34.9435H777.92V54.9145H801.465V56.5275H776.56V63.4406H801.465V65.2841H768.57V73.2725H846.685V65.2841H813.45V63.4406ZM768.57 25.4956V33.2536H846.685V25.4956H768.57Z" fill="#ECEFFF"/>
<path d="M886.635 54.6072C886.635 59.5232 885.19 61.4435 880.175 61.4435C875.585 61.4435 871.59 60.5986 871.59 57.142C871.59 54.3768 874.99 52.7638 880.345 52.7638C882.47 52.7638 884.595 52.9174 886.635 53.2246V54.6072ZM925.14 57.987C919.53 53.1478 910.52 47.9246 899.81 45.0058C899.47 40.0898 899.13 34.8666 898.96 30.642C905.675 30.4884 915.28 30.1811 922.08 29.6435L921.57 18.6594C914.855 19.2739 905.505 19.5811 898.79 19.7347C898.79 18.2753 898.79 16.8159 898.875 15.4333C899.045 12.0536 899.3 8.28981 899.725 5.75502H884.425C885.02 7.90575 885.275 11.055 885.445 15.4333C885.53 18.6594 885.615 22.1927 885.615 26.8782C885.615 30.642 885.87 36.8637 886.21 42.7014C884.935 42.6246 883.575 42.5478 882.3 42.5478C866.405 42.5478 858.33 49.1536 858.33 57.7565C858.33 68.971 868.955 72.658 881.195 72.658C896.92 72.658 900.575 65.6681 900.575 58.6015V57.5261C907.205 60.7522 912.9 64.9768 917.32 68.971L925.14 57.987Z" fill="#ECEFFF"/>
<path d="M951.36 5.21734C951.36 7.52169 951.105 10.9782 950.68 13.9739C949.32 22.8072 948.47 31.1797 948.47 38.2464C948.47 43.3927 949.065 48.3087 949.575 51.2275L962.155 50.4594C961.73 47.1565 961.645 44.7754 961.645 43.1623C961.645 33.1768 969.805 19.8116 979.41 19.8116C985.36 19.8116 989.61 25.1884 989.61 36.7101C989.61 54.7609 977.115 59.6768 958.16 62.3652L965.895 73.042C989.015 69.2015 1003.55 58.4478 1003.55 36.7101C1003.55 19.5043 993.86 9.05792 981.79 9.05792C973.035 9.05792 966.49 13.7434 962.155 18.5058C962.665 14.8956 964.365 8.44343 965.215 5.75502L951.36 5.21734Z" fill="#ECEFFF"/>
<path d="M1044.35 53.1478H1078.01V55.3754H1044.35V53.1478ZM1044.35 44.929H1078.01V47.0797H1044.35V44.929ZM1044.35 36.7101H1078.01V38.8609H1044.35V36.7101ZM1090.5 61.7507V30.2579H1064.07C1067.72 27.8 1070.1 24.8043 1071.55 21.8087H1078.52V28.8753H1089.48V21.8087H1099.26V13.8202H1073.84C1073.84 13.2058 1073.93 12.6681 1073.93 12.0536C1081.49 11.4391 1089.74 10.3637 1096.28 8.59705L1088.97 2.14488C1084.55 3.45067 1077.84 4.52603 1071.12 5.29415L1063.3 3.68111V10.8246C1063.3 13.6666 1062.88 16.5855 1060.58 19.4275V13.8202H1038.4C1038.4 13.2058 1038.48 12.5913 1038.48 11.9768C1045.54 11.3623 1053.19 10.2869 1059.22 8.59705L1051.91 2.14488C1047.75 3.37386 1041.46 4.52603 1035.25 5.29415L1027.86 3.68111V10.3637C1027.86 15.5101 1026.92 21.8855 1020.55 27.1087C1023.01 28.4145 1026.92 31.871 1028.54 34.0217C1032.79 30.4884 1035.34 26.1101 1036.78 21.8087H1042.82V28.8753H1053.7V21.8087H1058.12C1057.27 22.5 1056.16 23.1913 1054.97 23.8826C1057.1 25.1116 1060.16 28.0304 1061.77 30.2579H1032.45V61.7507H1042.9C1037.12 64.0551 1028.88 66.129 1021.31 67.2812C1024.03 69.2015 1028.28 73.1957 1030.49 75.4232C1039.25 73.1957 1050.38 69.2015 1057.44 64.9L1049.7 61.7507H1072.4L1064.32 65.8218C1072.57 68.8174 1081.07 72.7348 1085.49 75.3464L1100.11 70.5073C1094.84 68.0493 1085.91 64.6696 1077.92 61.7507H1090.5Z" fill="#ECEFFF"/>
<path d="M1186.98 10.9014C1185.53 8.28981 1182.47 3.37386 1180.26 0.455017L1172.27 3.37386C1174.57 6.2927 1177.29 10.8246 1178.99 13.9739L1186.98 10.9014ZM1128.33 6.21589C1128.5 10.9014 1127.9 16.2014 1126.71 22.1159C1122.97 22.3463 1119.49 22.5768 1117.02 22.6536C1113.71 22.7304 1110.48 22.884 1107.25 22.6536L1108.35 35.0203C1111.16 34.5594 1116 33.9449 1118.72 33.6377C1119.91 33.484 1121.78 33.2536 1123.99 32.9464C1120.85 43.3159 1115.41 57.5261 1107.42 67.2812L1120.76 72.1203C1127.9 61.6739 1134.19 43.3927 1137.59 31.5637C1139.12 31.4869 1140.57 31.4101 1141.5 31.4101C1146.77 31.4101 1149.32 32.1014 1149.32 37.6319C1149.32 44.6985 1148.3 53.3783 1146.18 57.142C1145.07 59.2159 1143.12 60.0609 1140.48 60.0609C1138.36 60.0609 1133.26 59.2159 1130.2 58.4478L1132.41 70.5841C1135.38 71.1986 1139.38 71.6594 1142.61 71.6594C1149.49 71.6594 1154.42 69.7391 1157.31 64.2855C1160.88 57.5261 1161.99 45.313 1161.99 36.4029C1161.99 25.0348 1155.61 20.8869 1145.92 20.8869C1144.39 20.8869 1142.44 20.9637 1140.23 21.1174C1140.74 19.1203 1141.25 17.0463 1141.67 14.9724C1142.18 12.8217 1142.86 9.97967 1143.46 7.67531L1128.33 6.21589ZM1176.44 14.6652C1174.91 11.9768 1171.93 6.98401 1169.81 4.14198L1161.82 7.06082C1163.77 9.67242 1165.9 13.4362 1167.6 16.4318L1160.2 19.1971C1166.32 26.2637 1171.93 39.7826 1173.97 48.6159L1186.98 43.1623C1184.68 36.1724 1178.39 23.0377 1173.38 15.8174L1176.44 14.6652Z" fill="#ECEFFF"/>
<path d="M1213.07 44.084V42.0101H1224.21V44.084H1213.07ZM1213.07 33.484H1224.21V35.558H1213.07V33.484ZM1248.6 33.484V35.558H1236.62V33.484H1248.6ZM1248.6 44.084H1236.62V42.0101H1248.6V44.084ZM1236.62 64.3623V61.8275H1264.41V53.5319H1236.62V51.2275H1261.27V26.3405H1236.62V24.4203H1269.34V15.8174H1236.62V12.9753C1245.63 12.4376 1254.3 11.5927 1261.78 10.5942L1256.34 1.99125C1241.29 4.06517 1218.77 5.29415 1198.79 5.6014C1199.81 7.82894 1201.09 11.5927 1201.26 14.1275C1208.57 14.1275 1216.39 13.8971 1224.21 13.5898V15.8174H1192.42V24.4203H1224.21V26.3405H1201V51.2275H1224.21V53.5319H1198.2V61.8275H1224.21V64.3623H1191.91V73.042H1270.02V64.3623H1236.62Z" fill="#ECEFFF"/>
<path d="M1307.34 52.5333H1325.1C1323.49 54.5304 1321.62 56.2203 1319.49 57.6797C1314.99 56.6043 1310.31 55.529 1305.81 54.6072L1307.34 52.5333ZM1293.31 25.8797H1299.94V31.2565H1293.31V25.8797ZM1311.59 14.1275H1318.9V17.2H1311.59V14.1275ZM1338.53 25.8797V31.2565H1330.54V25.8797H1338.53ZM1311.59 31.2565V25.8797H1318.9V31.2565H1311.59ZM1355.11 52.5333V43.6232H1313.63L1316.18 39.8594H1350.86V17.2H1330.54V14.1275H1353.07V4.52603H1278.01V14.1275H1299.94V17.2H1281.75V39.8594H1302.24C1301.39 41.0884 1300.54 42.3174 1299.6 43.6232H1276.65V52.5333H1293.14C1291.02 55.2985 1288.98 57.8333 1287.19 59.9073L1299.18 63.1333L1299.6 62.5957L1303.68 63.5174C1296.71 64.9 1288.38 65.5145 1278.44 65.8218C1280.31 68.2029 1282.18 72.1203 1283.03 75.3464C1299.43 74.1174 1311.93 72.2739 1321.36 68.1261C1330.46 70.6609 1338.53 73.2725 1344.65 75.5L1352.05 66.4362C1346.78 64.7464 1339.98 62.8261 1332.5 60.9058C1334.96 58.5246 1337.09 55.7594 1338.96 52.5333H1355.11Z" fill="#ECEFFF"/>
<path d="M1440.87 15.6637C1439.43 13.0521 1436.37 8.13619 1434.16 5.21734L1426.17 8.13619C1428.46 11.055 1431.18 15.5869 1432.88 18.7362L1440.87 15.6637ZM1430.33 19.4275C1428.8 16.7391 1425.83 11.7463 1423.7 8.9043L1415.71 11.8231C1418.01 14.8188 1420.47 19.3507 1422.26 22.5L1430.33 19.4275ZM1400.84 40.7043C1406.19 40.0898 1411.38 39.8594 1417.5 39.8594C1422.68 39.8594 1427.95 40.3971 1432.12 40.858L1432.37 29.7971C1427.27 29.3362 1422.17 29.1058 1417.5 29.1058C1411.97 29.1058 1405.68 29.4898 1400.84 29.9507V40.7043ZM1408.15 13.8202C1403.9 14.742 1399.56 15.5101 1395.23 16.1246L1395.57 14.8188C1395.99 13.0521 1396.84 9.36517 1397.52 6.98401L1381.97 5.90864C1382.22 7.82894 1382.14 11.2086 1381.71 14.4347C1381.63 15.3565 1381.46 16.355 1381.2 17.5072C1378.99 17.584 1376.7 17.6608 1374.49 17.6608C1370.83 17.6608 1368.2 17.5072 1363.61 17.0463L1363.95 28.4913C1366.84 28.6449 1370.07 28.7985 1374.4 28.7985C1375.76 28.7985 1377.21 28.7985 1378.65 28.7217C1378.23 30.4884 1377.63 32.3319 1377.12 34.0985C1373.98 44.6985 1367.35 60.9058 1362.33 68.4333L1376.53 72.7348C1381.29 63.3638 1386.9 47.9246 1389.96 37.3246C1390.81 34.329 1391.66 30.9492 1392.51 27.7232C1397.95 27.1855 1403.39 26.3406 1408.15 25.342V13.8202ZM1395.23 48.3855C1394.55 51.2275 1393.7 55.3754 1393.7 59.216C1393.7 66.9739 1401.09 71.8131 1415.8 71.8131C1422.85 71.8131 1428.55 71.2754 1433.39 70.7377L1433.9 58.9855C1427.44 59.9841 1421.58 60.5986 1415.88 60.5986C1408.49 60.5986 1406.28 58.6015 1406.28 55.4522C1406.28 53.9159 1406.79 51.3812 1407.38 49.384L1395.23 48.3855Z" fill="#ECEFFF"/>
<path d="M1457.17 48.6159C1449.35 48.6159 1442.98 54.3768 1442.98 61.4435C1442.98 68.5102 1449.35 74.271 1457.17 74.271C1465.08 74.271 1471.37 68.5102 1471.37 61.4435C1471.37 54.3768 1465.08 48.6159 1457.17 48.6159ZM1457.17 67.8189C1453.35 67.8189 1450.12 64.9768 1450.12 61.4435C1450.12 57.9101 1453.35 55.0681 1457.17 55.0681C1461.08 55.0681 1464.23 57.9101 1464.23 61.4435C1464.23 64.9768 1461.08 67.8189 1457.17 67.8189Z" fill="#ECEFFF"/>
</svg>
