<svg width="1631" height="74" viewBox="0 0 1631 74" fill="none" xmlns="http://www.w3.org/2000/svg">
<path d="M15.872 21.9279V17.9764H11.008V17.4861V14.0826H15.168V10.2176H7.104C7.392 9.3235 7.616 8.40053 7.808 7.50639L3.36 6.69879C2.784 9.87152 1.632 13.1308 0 15.1209C1.024 15.669 2.88 16.8515 3.712 17.5438C4.416 16.5919 5.088 15.4094 5.696 14.0826H6.304V17.4284V17.9764H0.736V21.9279H5.952C5.408 25.0718 3.936 28.3599 0.192 30.8116C1.12 31.4173 2.912 33.119 3.52 33.9843C6.336 32.1095 8.128 29.629 9.248 26.9754C10.688 28.6772 12.224 30.6385 13.248 32.1383L16.384 28.5906C15.552 27.6677 12.224 24.2353 10.528 22.6778C10.592 22.4471 10.624 22.1875 10.656 21.9279H15.872ZM21.12 27.3215V13.0731H24.576V27.3215H21.12ZM16.608 9.15044V33.2344H21.12V31.2442H24.576V32.7729H29.312V9.15044H16.608Z" fill="#ECEFFF"/>
<path d="M36.032 33.4363C38.272 31.7345 39.456 29.1963 40.224 26.6293L36.096 25.3025C35.456 27.4946 34.144 29.4848 32.32 30.7539L36.032 33.4363ZM40.512 19.9954H45.216V20.9472H40.512V19.9954ZM40.512 16.217H45.216V17.1688H40.512V16.217ZM54.464 16.217V17.1688H49.792V16.217H54.464ZM54.464 20.9472H49.792V19.9954H54.464V20.9472ZM46.976 29.8597C45.664 29.8597 45.44 29.7732 45.44 28.9368V26.1967C46.784 27.0331 48.032 28.0138 48.736 28.7637L51.936 26.139C51.232 25.4467 50.144 24.668 48.96 23.9758H59.04V13.1885H49.792V12.179H61.056V8.54474H49.792V6.66995H45.216V8.54474H34.112V12.179H45.216V13.1885H36.16V23.9758H44.8L43.488 25.0429C43.904 25.2737 44.352 25.5333 44.8 25.7929H40.832V29.0233C40.832 32.3979 41.824 33.5516 46.336 33.5516H50.688C53.952 33.5516 55.2 32.6575 55.712 29.0521C54.496 28.8214 52.512 28.1868 51.616 27.5811C51.488 29.5713 51.264 29.8597 50.24 29.8597H46.976ZM53.6 26.6582C55.776 28.5618 57.984 31.2442 58.784 33.0901L62.944 31.0423C61.984 29.081 59.616 26.5716 57.408 24.7834L53.6 26.6582Z" fill="#ECEFFF"/>
<path d="M87.296 10.7368C86.368 11.429 85.344 11.9771 84 12.6693C82.624 13.3904 80.224 14.5152 77.888 15.7267C76.64 13.5923 75.232 10.9964 74.08 8.1121L69.248 9.87152C70.656 12.8712 72.128 15.7843 73.6 18.236C70.688 20.2262 68.448 22.5624 68.448 25.8217C68.448 31.1 73.472 32.6863 80 32.6863C84.224 32.6863 87.392 32.3979 90.272 31.9653L90.336 26.9754C87.328 27.5811 83.008 28.0715 79.872 28.0715C75.808 28.0715 73.792 27.1773 73.792 25.3025C73.792 23.4277 75.552 21.8991 78.016 20.4569C80.8 18.8417 84.512 17.313 86.4 16.4766C87.68 15.8997 88.832 15.3517 89.952 14.746L87.296 10.7368Z" fill="#ECEFFF"/>
<path d="M104.672 20.0531H109.312V20.9761H104.672V20.0531ZM104.672 16.5343H109.312V17.4284H104.672V16.5343ZM118.944 17.4284H113.76V16.5343H118.944V17.4284ZM118.944 20.9761H113.76V20.0531H118.944V20.9761ZM113.6 24.8699C113.664 24.5238 113.728 24.1488 113.76 23.7739H123.648V13.7365H117.504C117.152 13.5923 116.768 13.4481 116.352 13.3038C119.104 12.2655 121.76 10.9964 124.064 9.81383L121.088 7.33334L120.064 7.53524H99.488V10.5638H114.752C113.728 11.0252 112.64 11.4867 111.616 11.8328C110.016 11.3714 108.416 10.9676 107.072 10.6503L103.712 12.727C104.832 13.0154 106.048 13.3615 107.296 13.7365H100.192V23.7739H109.088C109.024 24.1488 108.96 24.5238 108.896 24.8699H98.784V28.2445H106.72C105.056 29.3982 102.208 30.177 97.088 30.6962C97.888 31.5615 98.88 33.1478 99.2 34.1573C107.264 33.0902 110.784 31.1577 112.416 28.2445H119.68C119.392 29.4271 119.04 30.0905 118.688 30.3501C118.336 30.6097 117.984 30.6385 117.408 30.6385C116.64 30.6385 114.944 30.6097 113.376 30.4654C114.08 31.4461 114.624 32.9459 114.688 34.042C116.544 34.0997 118.336 34.0708 119.392 33.9843C120.672 33.8978 121.696 33.667 122.592 32.8882C123.584 32.0518 124.256 30.1482 124.768 26.4274C124.864 25.9082 124.96 24.8699 124.96 24.8699H113.6Z" fill="#ECEFFF"/>
<path d="M133.6 17.8899C134.496 17.0246 135.36 16.0151 136.128 14.919V16.9381H154.72V13.5923H136.992C137.184 13.3038 137.344 13.0154 137.504 12.727H157.536V9.29466H139.168C139.424 8.68896 139.648 8.08325 139.84 7.44871L134.944 6.49689C133.792 10.5061 131.36 14.2268 128.128 16.3324C129.248 16.9092 131.264 18.1206 132.256 18.8705V21.3799H142.464C141.824 22.5048 141.056 23.572 140.16 24.5815C138.464 23.6585 136.736 22.7932 135.232 22.101L131.904 24.8699C133.472 25.6487 135.168 26.5716 136.864 27.5523C134.688 29.1387 132.128 30.4654 129.408 31.3884C130.432 32.1383 132.128 33.7824 132.832 34.6477C135.616 33.4651 138.272 31.8787 140.672 29.9463C142.432 31.1288 143.968 32.2825 144.992 33.292L148.704 30.0905C147.552 29.0521 145.888 27.9272 144 26.7735C145.152 25.5044 146.176 24.12 147.04 22.649L142.688 21.3799H148.864C149.088 28.5618 150.144 34.1285 155.072 34.1285C157.792 34.1285 158.624 32.4556 158.944 28.8502C157.984 28.2157 156.864 27.1485 155.968 26.1678C155.936 28.4464 155.808 29.9174 155.392 29.9463C153.856 29.9463 153.472 24.5526 153.6 17.8899H133.6Z" fill="#ECEFFF"/>
<path d="M180.16 27.0331C180.128 25.764 180.064 23.8315 180.032 22.274C181.696 21.6106 183.232 21.0626 184.448 20.6588C185.664 20.2262 187.648 19.5628 188.768 19.2743L186.88 15.294C185.536 15.8709 184.224 16.4189 182.848 16.9669C181.728 17.4284 180.704 17.8033 179.424 18.3514C178.592 17.0246 177.056 16.3324 175.2 16.3324C174.304 16.3324 172.704 16.4477 172.064 16.6208C172.48 16.0439 172.896 15.3517 173.28 14.6018C176.672 14.4864 180.544 14.2268 183.52 13.8807L183.552 9.87152C180.896 10.3042 177.856 10.5349 175.008 10.6791C175.36 9.61193 175.584 8.7178 175.712 8.08325L170.656 7.70829C170.624 8.42937 170.464 9.5254 170.112 10.8233H168.864C167.168 10.8233 164.736 10.708 163.168 10.4772V14.4864C164.832 14.6306 167.136 14.6883 168.448 14.6883C166.912 17.313 164.672 19.6493 161.664 22.0433L165.76 24.8122C166.848 23.5143 167.744 22.4759 168.704 21.5818C169.792 20.63 171.744 19.6781 173.376 19.6781C173.984 19.6781 174.624 19.8224 175.104 20.255C171.584 21.9279 167.808 24.3219 167.808 28.0426C167.808 31.8499 171.552 33.0613 176.768 33.0613C179.904 33.0613 183.968 32.8017 185.92 32.571L186.08 28.1003C183.296 28.6483 179.68 28.9944 176.864 28.9944C173.888 28.9944 172.896 28.5041 172.896 27.2927C172.896 26.139 173.76 25.216 175.744 24.1777C175.712 25.2448 175.648 26.312 175.584 27.0331H180.16Z" fill="#ECEFFF"/>
<path d="M202.528 18.7552L200.352 19.2455V15.7843H202.72V11.9482H200.352V6.69879H196.096V11.9482H192.768V15.7843H196.096V20.1685C194.656 20.4569 193.344 20.7165 192.224 20.9184L193.184 24.9276L196.096 24.2353V29.5136C196.096 29.8886 195.968 30.0039 195.584 30.0039C195.2 30.0039 194.144 30.0039 193.12 29.9463C193.664 31.0711 194.176 32.8017 194.272 33.8401C196.352 33.8689 197.856 33.6959 198.944 33.0613C200.032 32.3979 200.352 31.3596 200.352 29.5425V23.197C201.28 22.9663 202.208 22.7355 203.104 22.5048L202.528 18.7552ZM222.912 19.159V15.3517H215.264V13.4769H221.536V9.69846H215.264V6.78532H210.848V9.69846H204.416V13.4769H210.848V15.3517H203.2V19.159H214.944V20.9184H203.456V24.6968H208.032L204.832 26.2832C206.112 27.8407 207.584 29.9751 208.096 31.3596L212.096 29.3117C211.456 27.9849 210.048 26.1101 208.768 24.6968H214.944V29.7732C214.944 30.1482 214.784 30.2347 214.336 30.2347C213.856 30.2635 212.16 30.2635 210.912 30.177C211.456 31.273 212.032 32.9459 212.192 34.0997C214.496 34.0997 216.256 34.042 217.6 33.4363C218.976 32.8306 219.36 31.8211 219.36 29.8597V24.6968H222.656V20.9184H219.36V19.159H222.912Z" fill="#ECEFFF"/>
<path d="M228.064 18.6975L230.016 23.197C233.12 21.9856 239.072 19.7647 242.624 19.7647C245.12 19.7647 246.72 21.0915 246.72 23.0528C246.72 26.5139 241.728 28.2157 234.304 28.3887L236.352 32.6575C247.264 32.0518 251.84 28.1003 251.84 23.1393C251.84 18.5533 248.416 15.7267 243.104 15.7267C239.2 15.7267 233.76 17.3419 231.648 17.9187C230.72 18.1783 228.992 18.5533 228.064 18.6975Z" fill="#ECEFFF"/>
<path d="M256.262 11.1695L256.742 15.8709C260.55 15.1209 266.118 14.5441 268.838 14.2845C267.142 15.669 264.838 18.6975 264.838 22.6201C264.838 28.706 270.886 32.1672 277.958 32.6575L279.75 27.8407C274.278 27.5523 269.894 25.9082 269.894 21.6972C269.894 18.3225 272.838 14.9767 276.262 14.2845C278.022 13.9672 280.71 13.9672 282.342 13.9384L282.31 9.49656C280.006 9.58309 276.262 9.75615 273.094 9.98689C267.302 10.4484 262.502 10.7945 259.526 11.0252C258.918 11.0829 257.542 11.1406 256.262 11.1695Z" fill="#ECEFFF"/>
<path d="M306.406 24.9853H310.982V10.4195H317.286V6.66995H306.406V24.9853Z" fill="#ECEFFF"/>
<path d="M333.03 24.1488C332.87 22.9663 332.774 21.6972 332.742 20.255C333.766 19.9954 334.918 19.7935 336.23 19.7358C335.334 21.5818 334.214 22.9663 333.03 24.1488ZM326.566 27.6677C325.638 27.6677 325.318 27.235 325.318 26.4563C325.318 25.216 326.534 23.3989 328.486 22.0721C328.582 23.8027 328.774 25.4756 329.062 27.0043C328.134 27.4369 327.27 27.6677 326.566 27.6677ZM337.734 14.6018C337.702 15.0056 337.606 15.6113 337.478 16.217H337.286C335.782 16.217 334.278 16.3612 332.87 16.6496C332.934 15.9574 332.998 15.2652 333.062 14.5729C336.998 14.4287 341.254 14.0538 344.23 13.5634L344.198 9.61193C340.582 10.3907 337.414 10.7368 333.67 10.8522C333.734 10.4484 333.83 10.0446 333.926 9.66962C334.054 9.17929 334.182 8.66011 334.406 7.99673L329.446 7.88135C329.478 8.45821 329.414 9.23697 329.35 9.78499L329.222 10.9387H328.454C326.182 10.9387 323.398 10.6791 322.278 10.5349L322.406 14.4864C323.974 14.5441 326.438 14.6883 328.294 14.6883H328.806C328.678 15.7267 328.582 16.8227 328.518 17.8899C324.07 19.8224 320.806 23.7162 320.806 27.3792C320.806 30.552 322.918 31.8787 325.382 31.8787C327.014 31.8787 328.582 31.4749 330.022 30.8981C330.15 31.2442 330.246 31.5903 330.374 31.8787L334.79 30.6962C334.534 30.0328 334.31 29.3694 334.086 28.6772C336.358 26.9754 338.822 24.12 340.518 20.3704C342.246 21.0915 343.11 22.3605 343.11 23.8315C343.11 26.139 341.222 28.9944 334.886 29.629L337.414 33.2344C345.414 32.1672 347.878 28.0426 347.878 24.0334C347.878 20.63 345.414 18.0629 341.83 16.9092C342.054 16.39 342.246 15.8709 342.374 15.5824L337.734 14.6018Z" fill="#ECEFFF"/>
<path d="M356.87 7.82367C356.87 8.68896 356.774 9.98689 356.614 11.1118C356.102 14.4287 355.782 17.5726 355.782 20.2262C355.782 22.1586 356.006 24.0046 356.198 25.1006L360.934 24.8122C360.774 23.572 360.742 22.6778 360.742 22.0721C360.742 18.3225 363.814 13.3038 367.43 13.3038C369.67 13.3038 371.27 15.3229 371.27 19.6493C371.27 26.4274 366.566 28.2734 359.43 29.2829L362.342 33.292C371.046 31.8499 376.518 27.8119 376.518 19.6493C376.518 13.1885 372.87 9.26582 368.326 9.26582C365.03 9.26582 362.566 11.0252 360.934 12.8135C361.126 11.4579 361.766 9.03507 362.086 8.02557L356.87 7.82367Z" fill="#ECEFFF"/>
<path d="M394.214 20.4281C393.094 23.745 392.134 25.4756 390.854 25.4756C389.766 25.4756 388.806 24.1777 388.806 21.6972C388.806 18.9571 391.142 15.1209 395.846 13.9672C395.462 16.217 394.918 18.4956 394.214 20.4281ZM399.782 32.7729C408.038 31.5326 411.974 27.1196 411.974 21.1203C411.974 14.6306 406.854 9.61193 398.79 9.61193C390.31 9.61193 383.814 15.3805 383.814 22.1586C383.814 27.0331 386.822 30.8692 390.726 30.8692C394.47 30.8692 397.318 27.0331 399.206 21.3222C400.07 18.6975 400.646 16.1881 401.062 13.8807C404.71 14.6595 406.694 17.2842 406.694 20.9761C406.694 24.7257 404.006 27.2639 399.974 28.158C399.078 28.3599 398.214 28.533 396.87 28.6772L399.782 32.7729Z" fill="#ECEFFF"/>
<path d="M428.934 27.3215C428.934 28.7925 428.07 29.1963 426.438 29.1963C424.806 29.1963 423.75 28.706 423.75 27.7542C423.75 26.9466 424.774 26.3409 426.534 26.3409C427.334 26.3409 428.134 26.3986 428.902 26.5139C428.934 26.8601 428.934 27.1196 428.934 27.3215ZM442.214 27.8696C440.358 26.4851 437.414 24.668 433.542 23.6296C433.478 22.7067 433.414 21.7548 433.35 20.8607C436.39 20.7742 438.726 20.6011 441.51 20.3415L441.478 16.2747C439.046 16.5343 436.518 16.7938 433.254 16.9381L433.286 14.5729C436.326 14.4576 438.79 14.2268 440.678 14.0538L440.582 10.1023C437.862 10.4772 435.686 10.6791 433.35 10.7945L433.382 9.92921C433.414 9.26582 433.51 8.45821 433.606 7.85251H428.422C428.55 8.48706 428.614 9.41003 428.614 9.92921V10.9099H427.046C425.19 10.9099 422.534 10.708 420.486 10.3619L420.518 14.2845C422.342 14.5441 425.158 14.7171 427.078 14.7171H428.582L428.55 17.0534H427.142C425.67 17.0534 421.35 16.8515 419.686 16.5054L419.654 20.5723C421.67 20.803 425.382 20.9472 427.078 20.9472H428.614L428.71 22.8509C428.198 22.822 427.686 22.7932 427.174 22.7932C422.118 22.7932 419.078 24.9564 419.078 28.0138C419.078 31.1865 421.862 33.0901 427.206 33.0901C431.398 33.0901 433.798 31.273 433.798 28.5906V28.0138C435.974 29.0233 437.894 30.3789 439.462 31.7345L442.214 27.8696Z" fill="#ECEFFF"/>
<path d="M460.934 27.3215C460.934 28.7925 460.07 29.1963 458.438 29.1963C456.806 29.1963 455.75 28.706 455.75 27.7542C455.75 26.9466 456.774 26.3409 458.534 26.3409C459.334 26.3409 460.134 26.3986 460.902 26.5139C460.934 26.8601 460.934 27.1196 460.934 27.3215ZM474.214 27.8696C472.358 26.4851 469.414 24.668 465.542 23.6296C465.478 22.7067 465.414 21.7548 465.35 20.8607C468.39 20.7742 470.726 20.6011 473.51 20.3415L473.478 16.2747C471.046 16.5343 468.518 16.7938 465.254 16.9381L465.286 14.5729C468.326 14.4576 470.79 14.2268 472.678 14.0538L472.582 10.1023C469.862 10.4772 467.686 10.6791 465.35 10.7945L465.382 9.92921C465.414 9.26582 465.51 8.45821 465.606 7.85251H460.422C460.55 8.48706 460.614 9.41003 460.614 9.92921V10.9099H459.046C457.19 10.9099 454.534 10.708 452.486 10.3619L452.518 14.2845C454.342 14.5441 457.158 14.7171 459.078 14.7171H460.582L460.55 17.0534H459.142C457.67 17.0534 453.35 16.8515 451.686 16.5054L451.654 20.5723C453.67 20.803 457.382 20.9472 459.078 20.9472H460.614L460.71 22.8509C460.198 22.822 459.686 22.7932 459.174 22.7932C454.118 22.7932 451.078 24.9564 451.078 28.0138C451.078 31.1865 453.862 33.0901 459.206 33.0901C463.398 33.0901 465.798 31.273 465.798 28.5906V28.0138C467.974 29.0233 469.894 30.3789 471.462 31.7345L474.214 27.8696Z" fill="#ECEFFF"/>
<path d="M490.214 20.4281C489.094 23.745 488.134 25.4756 486.854 25.4756C485.766 25.4756 484.806 24.1777 484.806 21.6972C484.806 18.9571 487.142 15.1209 491.846 13.9672C491.462 16.217 490.918 18.4956 490.214 20.4281ZM495.782 32.7729C504.038 31.5326 507.974 27.1196 507.974 21.1203C507.974 14.6306 502.854 9.61193 494.79 9.61193C486.31 9.61193 479.814 15.3805 479.814 22.1586C479.814 27.0331 482.822 30.8692 486.726 30.8692C490.47 30.8692 493.318 27.0331 495.206 21.3222C496.07 18.6975 496.646 16.1881 497.062 13.8807C500.71 14.6595 502.694 17.2842 502.694 20.9761C502.694 24.7257 500.006 27.2639 495.974 28.158C495.078 28.3599 494.214 28.533 492.87 28.6772L495.782 32.7729Z" fill="#ECEFFF"/>
<path d="M520.326 9.78499C518.95 8.94854 516.198 7.9102 514.278 7.30449L512.134 10.1023C514.118 10.8233 516.774 12.0059 518.054 12.8712L520.326 9.78499ZM519.654 13.5057C516.454 14.8614 513.126 16.217 510.886 16.9957L512.358 20.5723C514.886 19.4762 517.926 18.1206 520.71 16.7938L519.654 13.5057ZM523.078 25.1872H529.734C529.094 26.0525 528.294 26.8024 527.366 27.4081C525.702 27.0043 523.974 26.6293 522.246 26.2832L523.078 25.1872ZM525.478 21.7837L526.246 20.6588L525.254 20.4281C527.75 19.2167 529.51 17.6014 530.086 16.39C530.886 18.236 533.766 20.7742 538.662 21.7837H525.478ZM532.486 12.4097H534.886C534.534 13.1885 534.182 13.9095 533.894 14.4864L537.862 15.8709C538.854 14.3133 540.038 12.0347 540.902 9.98689L537.382 8.9197L536.646 9.1216H527.942C528.166 8.63127 528.39 8.1121 528.582 7.62177L524.358 6.66995C523.462 9.20813 521.734 11.7463 519.718 13.3038C520.71 13.8519 522.438 15.0344 523.238 15.6978C524.23 14.8037 525.19 13.6788 526.054 12.4097H527.654V12.8424C527.654 14.3133 525.478 17.3995 518.918 18.611C519.494 19.1878 520.23 20.1396 520.774 20.9472L520.198 21.7837H511.398V25.1872H517.734C516.838 26.3697 515.974 27.4658 515.206 28.3599L519.718 29.5713L519.878 29.3694L521.126 29.6578C518.502 30.1482 515.366 30.3501 511.654 30.4654C512.358 31.3884 513.062 32.8882 513.414 34.0997C519.686 33.667 524.486 33.0036 528.134 31.4173C531.558 32.3402 534.598 33.292 536.934 34.0997L539.75 30.6385C537.766 30.0328 535.206 29.3117 532.422 28.6195C533.414 27.6677 534.246 26.5139 534.982 25.1872H540.806V21.7837H538.822C539.462 20.8607 540.486 19.3032 541.286 18.4091C534.086 17.0534 532.486 14.2845 532.486 12.8424V12.4097Z" fill="#ECEFFF"/>
<path d="M553.766 15.7555H549.19V30.3212H542.886V34.0708H553.766V15.7555Z" fill="#ECEFFF"/>
<path d="M20.16 61.2842C20.128 60.0151 20.064 58.0826 20.032 56.5251C21.696 55.8617 23.232 55.3137 24.448 54.9099C25.664 54.4772 27.648 53.8139 28.768 53.5254L26.88 49.5451C25.536 50.122 24.224 50.67 22.848 51.218C21.728 51.6795 20.704 52.0544 19.424 52.6024C18.592 51.2757 17.056 50.5834 15.2 50.5834C14.304 50.5834 12.704 50.6988 12.064 50.8719C12.48 50.295 12.896 49.6028 13.28 48.8529C16.672 48.7375 20.544 48.4779 23.52 48.1318L23.552 44.1226C20.896 44.5552 17.856 44.786 15.008 44.9302C15.36 43.863 15.584 42.9689 15.712 42.3343L10.656 41.9594C10.624 42.6805 10.464 43.7765 10.112 45.0744H8.864C7.168 45.0744 4.736 44.959 3.168 44.7283V48.7375C4.832 48.8817 7.136 48.9394 8.448 48.9394C6.912 51.5641 4.672 53.9004 1.664 56.2944L5.76 59.0633C6.848 57.7653 7.744 56.727 8.704 55.8329C9.792 54.881 11.744 53.9292 13.376 53.9292C13.984 53.9292 14.624 54.0734 15.104 54.5061C11.584 56.179 7.808 58.573 7.808 62.2937C7.808 66.101 11.552 67.3124 16.768 67.3124C19.904 67.3124 23.968 67.0528 25.92 66.8221L26.08 62.3514C23.296 62.8994 19.68 63.2455 16.864 63.2455C13.888 63.2455 12.896 62.7552 12.896 61.5438C12.896 60.3901 13.76 59.4671 15.744 58.4287C15.712 59.4959 15.648 60.5631 15.584 61.2842H20.16Z" fill="#ECEFFF"/>
<path d="M43.392 59.2075C44.8 58.746 46.112 58.2557 47.392 57.6788C48.736 58.2557 50.176 58.7749 51.712 59.2075H43.392ZM43.04 64.082V62.611H52.48V64.082H43.04ZM44.448 51.4199H50.144C49.344 52.0833 48.416 52.7178 47.36 53.2947C46.24 52.7467 45.216 52.1698 44.32 51.5064L44.448 51.4199ZM56.864 46.9204V49.6605L54.048 48.1606L53.28 48.3337H47.712C47.968 48.0453 48.224 47.728 48.48 47.4107L45.792 46.9204H56.864ZM61.632 50.0643V43.1419H49.984V40.9499H45.184V43.1419H33.76V50.0643H38.304V46.9204H43.232C41.568 48.9105 38.784 50.7565 34.528 52.0833C35.52 52.7467 36.96 54.2465 37.568 55.2272C38.752 54.7657 39.84 54.2465 40.832 53.7273C41.504 54.2753 42.176 54.7657 42.88 55.256C39.744 56.352 36.128 57.1308 32.416 57.5923C33.216 58.5153 34.176 60.217 34.592 61.313C35.904 61.0823 37.216 60.8516 38.496 60.5631V68.3507H43.04V67.4854H52.48V68.2642H57.28V60.4189C58.144 60.5631 59.04 60.6785 59.936 60.7939C60.576 59.6113 61.888 57.7077 62.912 56.727C58.976 56.4386 55.296 55.8617 52.128 54.9964C54.112 53.612 55.776 51.9679 57.024 50.0643H61.632Z" fill="#ECEFFF"/>
<path d="M84.48 54.6503H89.216V55.9771H84.48V54.6503ZM84.48 50.0931H89.216V51.4199H84.48V50.0931ZM84.48 45.5648H89.216V46.8627H84.48V45.5648ZM71.232 62.5821H72.64V63.6205H71.232V62.5821ZM73.856 51.0161C73.728 51.5641 73.472 52.2563 73.216 52.8909H71.584C72 52.2852 72.384 51.6506 72.736 51.0161H73.856ZM68.416 47.7857C68.8 47.3242 69.152 46.8338 69.504 46.3147H70.656C70.464 46.805 70.24 47.2953 69.984 47.7857H68.416ZM72.64 56.5828H71.232V55.5444H72.64V56.5828ZM72.64 60.0439H71.232V59.121H72.64V60.0439ZM90.912 64.3704C90.624 64.3704 90.624 64.2839 90.624 63.4474V59.6113H93.472V41.9305H80.448V59.6113H81.952C81.664 61.3996 81.088 62.9571 79.456 64.1397V63.6205H76.512V62.5821H79.136V60.0439H76.512V59.121H79.136V56.5828H76.512V55.5444H79.616V52.8909H77.056C77.376 52.4294 77.728 51.9102 78.08 51.3622L75.456 51.0161H79.68V47.7857H74.368C74.592 47.2953 74.784 46.805 74.976 46.3147H79.552V43.0843H71.232C71.424 42.6228 71.616 42.1324 71.776 41.6709L67.712 40.7768C67.072 42.7958 65.888 44.8725 64.448 46.2281C65.12 46.5743 66.112 47.2088 66.912 47.7857H64.96V51.0161H68.064C66.912 52.6024 65.568 53.9581 64.128 55.0253C64.896 55.804 66.208 57.5058 66.688 58.3134C66.848 58.1692 67.04 58.0249 67.2 57.8807V67.745H71.232V66.5913H78.56C79.04 67.1682 79.488 67.8027 79.712 68.2642C84.064 66.3317 85.344 63.3032 85.792 59.6113H86.592V63.5051C86.592 66.649 87.2 67.745 90.144 67.745H91.808C94.048 67.745 95.04 66.6778 95.392 62.6398C94.336 62.3802 92.608 61.8034 91.872 61.2265C91.776 63.9954 91.68 64.3704 91.328 64.3704H90.912Z" fill="#ECEFFF"/>
<path d="M114.688 54.2753H120.64V55.5733H114.688V54.2753ZM114.688 49.92H120.64V51.218H114.688V49.92ZM114.688 45.5936H120.64V46.8627H114.688V45.5936ZM122.272 64.5435C121.952 64.5435 121.92 64.4569 121.92 63.6205V58.8614H125.088V42.3055H110.464V56.8135C109.76 56.179 107.712 54.4196 106.368 53.3812C107.616 51.5641 108.704 49.6028 109.472 47.5838L106.912 46.0839L106.144 46.2281H105.568V40.9499H101.024V46.2281H97.152V49.9777H103.776C101.92 53.0063 99.04 55.7463 95.968 57.3039C96.608 58.1115 97.696 60.217 98.048 61.3419C99.04 60.7362 100.064 60.0439 101.024 59.2363V68.3507H105.568V57.7077C106.4 58.6595 107.168 59.6113 107.712 60.3901L110.464 57.0154V58.8614H112.256C111.872 61.5438 111.04 63.707 106.88 65.0626C107.808 65.8126 109.024 67.3412 109.472 68.3219C114.88 66.274 116.192 62.9859 116.672 58.8614H117.728V63.6782C117.728 66.9086 118.368 68.0623 121.504 68.0623H123.36C125.728 68.0623 126.784 66.9951 127.168 62.9282C126.048 62.6687 124.256 62.063 123.488 61.4573C123.392 64.1973 123.296 64.5435 122.88 64.5435H122.272Z" fill="#ECEFFF"/>
<path d="M140.992 56.1501C140.992 54.8522 142.048 54.3042 143.008 54.3042C143.712 54.3042 144.352 54.5638 144.736 55.0541C145.088 57.2462 144.032 57.9096 143.008 57.9096C142.016 57.9096 140.992 57.1885 140.992 56.1501ZM157.6 45.3052C155.936 45.2763 151.68 45.334 148.736 45.334V45.0167C148.768 44.4976 148.896 42.7381 148.992 42.1901H143.456C143.584 42.7381 143.712 43.9495 143.808 45.0456L143.84 45.3629C139.744 45.4205 134.144 45.5359 130.464 45.5071L130.592 49.6605C134.464 49.4874 139.136 49.3143 143.904 49.2567L143.936 50.6988C143.68 50.67 143.424 50.67 143.136 50.67C139.456 50.67 136.384 52.7755 136.384 56.2367C136.384 59.9286 139.68 61.7168 142.016 61.7168C142.208 61.7168 142.4 61.7168 142.592 61.688C140.736 63.0148 138.08 63.707 135.328 64.1973L139.392 67.8892C147.328 65.9568 149.952 60.9958 149.952 57.3327C149.952 55.7752 149.536 54.3619 148.704 53.2082C148.704 52.0256 148.704 50.5834 148.672 49.2278C152.672 49.2567 155.648 49.3143 157.536 49.4009L157.6 45.3052Z" fill="#ECEFFF"/>
<path d="M175.264 63.3897C173.664 63.3897 172.608 62.7552 172.608 61.8611C172.608 61.2842 173.216 60.7362 174.24 60.7362C175.584 60.7362 176.544 61.7457 176.704 63.332C176.256 63.3609 175.776 63.3897 175.264 63.3897ZM182.464 42.8824C182.048 42.9977 181.152 43.1131 179.648 43.2285C177.76 43.3727 171.424 43.4592 169.728 43.4592C168.672 43.4592 167.488 43.4015 166.496 43.2862L166.656 47.7568C167.424 47.6414 168.544 47.5549 169.504 47.4972C171.2 47.3819 174.464 47.2665 176.064 47.2376C174.528 48.4779 171.584 50.5258 169.824 51.8525C167.936 53.237 164.256 56.0636 162.208 57.5058L165.696 60.765C168.736 57.4192 172.064 54.9099 176.704 54.9099C180.192 54.9099 182.976 56.4386 182.976 58.8902C182.976 60.2747 182.368 61.3996 181.12 62.1783C180.576 59.4671 178.08 57.4481 174.208 57.4481C170.624 57.4481 168.064 59.7844 168.064 62.2937C168.064 65.4376 171.776 67.3124 176.256 67.3124C184.448 67.3124 188.032 63.4186 188.032 58.9479C188.032 54.6503 183.744 51.5064 178.304 51.5064C177.536 51.5064 176.928 51.5353 176.096 51.6795C177.824 50.4681 180.608 48.4202 182.4 47.3242C183.2 46.8338 184 46.4012 184.832 45.9397L182.464 42.8824Z" fill="#ECEFFF"/>
<path d="M198.432 48.8817C201.056 49.0548 203.84 49.199 207.232 49.199C210.304 49.199 214.496 49.0259 216.736 48.8529V44.2091C214.24 44.4399 210.368 44.6129 207.2 44.6129C203.776 44.6129 200.8 44.4976 198.432 44.2668V48.8817ZM196.832 56.2944C196.608 57.3327 196.224 58.746 196.224 60.5054C196.224 64.6011 199.808 66.9663 207.52 66.9663C211.936 66.9663 215.616 66.6202 218.656 66.0145L218.624 61.1111C215.584 61.8034 211.552 62.236 207.328 62.236C203.04 62.236 201.408 61.0246 201.408 59.4094C201.408 58.4864 201.632 57.6788 201.888 56.6982L196.832 56.2944Z" fill="#ECEFFF"/>
<path d="M247.296 44.9879C246.368 45.6801 245.344 46.2281 244 46.9204C242.624 47.6414 240.224 48.7663 237.888 49.9777C236.64 47.8434 235.232 45.2475 234.08 42.3632L229.248 44.1226C230.656 47.1223 232.128 50.0354 233.6 52.4871C230.688 54.4772 228.448 56.8135 228.448 60.0728C228.448 65.3511 233.472 66.9374 240 66.9374C244.224 66.9374 247.392 66.649 250.272 66.2164L250.336 61.2265C247.328 61.8322 243.008 62.3225 239.872 62.3225C235.808 62.3225 233.792 61.4284 233.792 59.5536C233.792 57.6788 235.552 56.1501 238.016 54.708C240.8 53.0928 244.512 51.5641 246.4 50.7277C247.68 50.1508 248.832 49.6028 249.952 48.9971L247.296 44.9879Z" fill="#ECEFFF"/>
<path d="M265.184 42.1901C265.248 43.9495 265.024 45.9397 264.576 48.1606C263.168 48.2472 261.856 48.3337 260.928 48.3625C259.68 48.3914 258.464 48.4491 257.248 48.3625L257.664 53.0063C258.72 52.8332 260.544 52.6024 261.568 52.4871C262.016 52.4294 262.72 52.3429 263.552 52.2275C262.368 56.1213 260.32 61.4573 257.312 65.1203L262.336 66.9374C265.024 63.0148 267.392 56.1501 268.672 51.7083C269.248 51.6795 269.792 51.6506 270.144 51.6506C272.128 51.6506 273.088 51.9102 273.088 53.9869C273.088 56.6405 272.704 59.8997 271.904 61.313C271.488 62.0918 270.752 62.4091 269.76 62.4091C268.96 62.4091 267.04 62.0918 265.888 61.8034L266.72 66.3606C267.84 66.5913 269.344 66.7644 270.56 66.7644C273.152 66.7644 275.008 66.0433 276.096 63.9954C277.44 61.4573 277.856 56.8712 277.856 53.5254C277.856 49.2567 275.456 47.6991 271.808 47.6991C271.232 47.6991 270.496 47.728 269.664 47.7857C269.856 47.0357 270.048 46.257 270.208 45.4782C270.4 44.6706 270.656 43.6034 270.88 42.7381L265.184 42.1901ZM277.184 46.9204C279.488 49.5739 281.6 54.7945 282.368 58.1115L287.264 56.0636C286.336 53.2947 283.744 47.7568 281.824 45.1898L277.184 46.9204Z" fill="#ECEFFF"/>
<path d="M297.184 46.257C299.68 46.8338 306.848 48.1895 310.176 48.5933L311.328 44.3245C308.544 44.0361 301.568 42.9977 298.4 42.1036L297.184 46.257ZM299.104 48.1318L293.952 47.4972C293.728 51.3622 292.992 56.727 292.384 59.6401L296.768 60.6208C297.088 59.9863 297.44 59.5248 298.08 58.8325C299.936 56.8135 303.04 55.7175 306.272 55.7175C308.8 55.7175 310.528 56.9289 310.528 58.5441C310.528 62.0341 305.408 63.8512 296.16 62.611L297.664 67.1393C311.616 68.2354 315.936 63.9378 315.936 58.6306C315.936 55.1406 312.704 51.7948 306.752 51.7948C303.712 51.7948 300.736 52.5159 297.984 54.1023C298.144 52.5736 298.688 49.5451 299.104 48.1318Z" fill="#ECEFFF"/>
<path d="M331.648 64.5723C330.24 62.9571 327.04 59.9863 324.8 58.3134L320.736 61.4573C322.944 63.2167 325.632 65.6972 327.52 67.7739L331.648 64.5723Z" fill="#ECEFFF"/>
<path d="M352.8 52.0544V56.6405H382.624V52.0544H352.8Z" fill="#ECEFFF"/>
<path d="M390.656 53.0639C389.408 55.1695 387.168 57.3904 384.864 58.7172C386.048 59.3229 388.096 60.6208 389.088 61.3996C391.296 59.7555 393.92 57.0443 395.52 54.4196L390.656 53.0639ZM414.656 59.121C413.44 57.3039 410.784 54.8522 408.608 53.0639H414.272V49.1124H402.24V47.0646H411.104V43.2862H402.24V40.921H397.44V49.1124H394.016V42.7093H389.28V49.1124H385.152V53.0639H397.472V57.5634C397.472 57.8807 397.312 57.9673 396.864 57.9673C396.416 57.9673 394.656 57.9672 393.472 57.9096C394.016 58.9479 394.656 60.5343 394.848 61.688C397.056 61.688 398.848 61.6592 400.288 61.1111C401.76 60.5343 402.144 59.5248 402.144 57.7077V53.0639H408.064L404.576 55.0253C405.536 55.8617 406.56 56.8424 407.52 57.8519L404.8 57.1596C402.08 62.5533 396.352 63.9666 387.52 64.4858C388.416 65.5241 389.376 67.2547 389.728 68.5815C399.328 67.4854 405.536 65.553 409.024 59.4959C409.664 60.2458 410.176 60.9092 410.528 61.5149L414.656 59.121Z" fill="#ECEFFF"/>
<path d="M424.576 62.1206V59.5248H438.336V62.1206H424.576ZM438.336 52.9197V55.5733H424.576V52.9197H438.336ZM438.336 46.4589V48.9682H424.576V46.4589H438.336ZM419.872 42.3632V67.9181H424.576V66.2164H438.336V67.9181H443.296V42.3632H419.872Z" fill="#ECEFFF"/>
<path d="M468.16 61.2842C468.128 60.0151 468.064 58.0826 468.032 56.5251C469.696 55.8617 471.232 55.3137 472.448 54.9099C473.664 54.4772 475.648 53.8139 476.768 53.5254L474.88 49.5451C473.536 50.122 472.224 50.67 470.848 51.218C469.728 51.6795 468.704 52.0544 467.424 52.6024C466.592 51.2757 465.056 50.5834 463.2 50.5834C462.304 50.5834 460.704 50.6988 460.064 50.8719C460.48 50.295 460.896 49.6028 461.28 48.8529C464.672 48.7375 468.544 48.4779 471.52 48.1318L471.552 44.1226C468.896 44.5552 465.856 44.786 463.008 44.9302C463.36 43.863 463.584 42.9689 463.712 42.3343L458.656 41.9594C458.624 42.6805 458.464 43.7765 458.112 45.0744H456.864C455.168 45.0744 452.736 44.959 451.168 44.7283V48.7375C452.832 48.8817 455.136 48.9394 456.448 48.9394C454.912 51.5641 452.672 53.9004 449.664 56.2944L453.76 59.0633C454.848 57.7653 455.744 56.727 456.704 55.8329C457.792 54.881 459.744 53.9292 461.376 53.9292C461.984 53.9292 462.624 54.0734 463.104 54.5061C459.584 56.179 455.808 58.573 455.808 62.2937C455.808 66.101 459.552 67.3124 464.768 67.3124C467.904 67.3124 471.968 67.0528 473.92 66.8221L474.08 62.3514C471.296 62.8994 467.68 63.2455 464.864 63.2455C461.888 63.2455 460.896 62.7552 460.896 61.5438C460.896 60.3901 461.76 59.4671 463.744 58.4287C463.712 59.4959 463.648 60.5631 463.584 61.2842H468.16Z" fill="#ECEFFF"/>
<path d="M485.376 45.5071H488.384V48.3048H485.376V45.5071ZM489.504 61.0535V58.0826H492.544V54.4484H489.504V51.8525H492.416V41.9594H481.6V51.8525H485.792V62.0053L484.8 62.2649V53.5831H481.44V63.0725L480.352 63.3032L481.344 67.2259C484.768 66.2452 489.216 64.9761 493.344 63.7359L492.8 60.1882L489.504 61.0535ZM505.056 59.121V60.1593H498.432V59.121H505.056ZM498.432 64.1108V63.0436H505.056V64.1108H498.432ZM494.176 68.3507H498.432V67.4566H505.056V68.2065H509.568V55.7752H494.176V68.3507ZM499.776 51.7083C499.776 51.9967 499.68 52.0833 499.36 52.0833C499.072 52.0833 498.304 52.0833 497.568 52.0544C498.56 50.6411 499.296 48.9394 499.776 46.9492V51.7083ZM507.424 43.0554C506.848 43.8342 505.952 44.7571 505.088 45.5936C504.64 44.6995 504.288 43.7476 503.968 42.7958V40.8922H499.776V44.6418L497.632 44.1226L496.896 44.2091H492.992V47.6991H495.424C494.688 49.7181 493.504 51.4199 491.84 52.3717C492.64 53.0063 493.728 54.2753 494.272 55.0829C495.488 54.3619 496.512 53.4677 497.344 52.3429C497.792 53.3235 498.176 54.5638 498.304 55.4868C500.096 55.4868 501.504 55.4291 502.592 54.881C503.712 54.333 503.968 53.4101 503.968 51.7948V50.3527C505.12 52.2563 506.624 53.8139 508.576 54.9099C509.184 53.8427 510.496 52.314 511.392 51.5641C509.664 50.8719 508.224 49.8335 507.104 48.5356C508.288 47.728 509.632 46.7185 511.072 45.7378L507.424 43.0554Z" fill="#ECEFFF"/>
<path d="M518.432 60.5054C517.952 60.5054 517.568 60.0439 517.568 59.4382C517.568 57.9961 519.168 56.4097 522.048 55.8617C521.312 57.3039 520.576 58.6306 519.936 59.5248C519.424 60.217 519.008 60.5054 518.432 60.5054ZM542.432 57.3904C541.6 56.9001 540.512 56.2655 539.296 55.631C539.584 54.0446 539.776 52.314 539.872 50.4681L534.848 49.9489C534.976 50.9007 534.976 52.0833 534.88 53.3524L534.848 53.6696C533.056 53.0063 531.104 52.4582 529.056 52.1121C530.08 49.8335 531.136 47.5838 531.936 46.3724C532.192 45.9686 532.608 45.5359 533.12 45.0456L530.08 42.9112C529.44 43.1419 528.48 43.3438 527.584 43.4015C526.048 43.5169 523.104 43.6034 521.216 43.6034C520.512 43.6034 519.328 43.5457 518.432 43.4592L518.624 47.8722C519.488 47.7568 520.704 47.6414 521.344 47.6126C522.784 47.5261 524.896 47.4684 526.144 47.4396C525.536 48.5644 524.8 50.2085 524.032 51.8237C517.6 52.1698 513.056 55.6598 513.056 60.1593C513.056 63.3609 515.328 65.178 518.336 65.178C520.8 65.178 522.464 64.255 523.808 62.3802C524.896 60.8227 526.112 58.2557 527.264 55.8906C529.6 56.2655 531.776 57.0154 533.792 57.9961C532.704 60.3612 530.496 62.8706 525.888 64.6588L529.984 67.6585C533.984 65.7549 536.384 63.3609 537.792 60.3901C538.656 60.9669 539.456 61.6015 540.224 62.2072L542.432 57.3904Z" fill="#ECEFFF"/>
<path d="M567.968 55.8617V62.611H561.888V54.4772H571.552V43.6034H566.624V50.4104H561.888V41.296H557.056V50.4104H552.64V43.6323H547.968V54.4772H557.056V62.611H551.424V55.8617H546.688V68.3219H551.424V66.7067H567.968V68.3219H572.832V55.8617H567.968Z" fill="#ECEFFF"/>
<path d="M581.984 42.5074C582.304 43.8053 582.464 45.3629 582.464 46.8915C582.464 49.0548 582.176 56.6982 582.176 60.3035C582.176 65.2934 585.632 67.5431 591.168 67.5431C598.56 67.5431 603.264 63.6205 605.248 60.8804L601.76 57.0154C599.456 60.217 596.128 62.8129 591.2 62.8129C589.056 62.8129 587.296 61.9476 587.296 59.2075C587.296 56.0636 587.52 49.8912 587.68 46.8915C587.744 45.6513 587.936 43.9207 588.16 42.5651L581.984 42.5074Z" fill="#ECEFFF"/>
<path d="M624.64 55.1118C626.656 54.881 628.608 54.7945 630.912 54.7945C632.864 54.7945 634.848 54.9964 636.416 55.1695L636.512 51.0161C634.592 50.843 632.672 50.7565 630.912 50.7565C628.832 50.7565 626.464 50.9007 624.64 51.0738V55.1118ZM627.392 45.0167C625.792 45.3629 624.16 45.6513 622.528 45.882L622.656 45.3917C622.816 44.7283 623.136 43.3438 623.392 42.4497L617.536 42.0459C617.632 42.767 617.6 44.0361 617.44 45.2475C617.408 45.5936 617.344 45.9686 617.248 46.4012C616.416 46.43 615.552 46.4589 614.72 46.4589C613.344 46.4589 612.352 46.4012 610.624 46.2281L610.752 50.5258C611.84 50.5834 613.056 50.6411 614.688 50.6411C615.2 50.6411 615.744 50.6411 616.288 50.6123C616.128 51.2757 615.904 51.9679 615.712 52.6313C614.528 56.6116 612.032 62.6975 610.144 65.5241L615.488 67.1393C617.28 63.6205 619.392 57.823 620.544 53.8427C620.864 52.7178 621.184 51.4487 621.504 50.2373C623.552 50.0354 625.6 49.7181 627.392 49.3432V45.0167ZM622.528 57.9961C622.272 59.0633 621.952 60.6208 621.952 62.063C621.952 64.9761 624.736 66.7932 630.272 66.7932C632.928 66.7932 635.072 66.5913 636.896 66.3894L637.088 61.9764C634.656 62.3514 632.448 62.5821 630.304 62.5821C627.52 62.5821 626.688 61.8322 626.688 60.6497C626.688 60.0728 626.88 59.121 627.104 58.3711L622.528 57.9961Z" fill="#ECEFFF"/>
<path d="M648.704 44.7571L642.816 44.6995C643.04 45.709 643.104 46.9204 643.104 47.7857C643.104 49.6028 643.136 52.862 643.456 55.5733C644.352 63.3897 647.456 66.274 651.2 66.274C653.984 66.274 656 64.4858 658.208 59.4382L654.336 55.1695C653.888 57.102 652.768 60.6785 651.296 60.6785C649.472 60.6785 648.832 58.0538 648.448 54.3042C648.256 52.4005 648.256 50.5258 648.256 48.651C648.256 47.8145 648.448 45.9686 648.704 44.7571ZM664.192 45.3052L659.296 46.7473C663.008 50.3815 664.544 57.6788 664.992 61.9764L670.08 60.217C669.824 56.0925 667.296 48.5933 664.192 45.3052Z" fill="#ECEFFF"/>
<path d="M677.856 58.3711C674.912 58.3711 672.512 60.5343 672.512 63.1878C672.512 65.8414 674.912 68.0046 677.856 68.0046C680.832 68.0046 683.2 65.8414 683.2 63.1878C683.2 60.5343 680.832 58.3711 677.856 58.3711ZM677.856 65.5818C676.416 65.5818 675.2 64.5146 675.2 63.1878C675.2 61.8611 676.416 60.7939 677.856 60.7939C679.328 60.7939 680.512 61.8611 680.512 63.1878C680.512 64.5146 679.328 65.5818 677.856 65.5818Z" fill="#ECEFFF"/>
<path d="M1185.43 31.3307H1191.16V9.87152H1185.43V31.3307Z" fill="#ECEFFF"/>
<path d="M1201.23 31.3307H1206.96V14.1403H1213.42V9.87152H1194.8V14.1403H1201.23V31.3307Z" fill="#ECEFFF"/>
<path d="M1232.96 26.2832V15.3517H1239.23C1240.16 15.3517 1241.34 15.4094 1242.37 15.4959V10.708C1241.38 10.8233 1240.19 10.9099 1239.23 10.9099H1221.89C1220.9 10.9099 1219.49 10.8233 1218.66 10.708V15.4959C1219.49 15.4094 1220.9 15.3517 1221.89 15.3517H1227.52V26.2832H1219.87C1218.85 26.2832 1217.6 26.1967 1216.54 26.0236V31.0711C1217.66 30.9558 1218.88 30.9269 1219.87 30.9269H1240.96C1241.76 30.9269 1243.2 30.9558 1244.13 31.0711V26.0236C1243.3 26.139 1242.18 26.2832 1240.96 26.2832H1232.96Z" fill="#ECEFFF"/>
<path d="M1254.3 8.94854L1250.62 12.4962C1252.93 13.9672 1256.96 17.14 1258.66 18.8129L1262.62 15.1498C1260.7 13.3038 1256.51 10.3042 1254.3 8.94854ZM1249.57 28.1003L1252.86 32.7152C1256.9 32.1383 1261.06 30.6385 1264.32 28.9079C1269.66 26.0813 1274.21 22.0721 1276.77 17.9764L1273.76 13.0443C1271.62 17.1111 1267.3 21.5818 1261.54 24.5815C1258.4 26.2255 1254.27 27.5234 1249.57 28.1003Z" fill="#ECEFFF"/>
<path d="M1301.92 8.83317L1298.72 10.0157C1299.97 11.6021 1300.48 12.5539 1301.5 14.5441L1304.8 13.275C1304.1 11.9771 1302.88 10.1311 1301.92 8.83317ZM1306.46 7.41986L1303.2 8.63127C1304.45 10.16 1305.06 10.9964 1306.18 12.9866L1309.44 11.6886C1308.67 10.4484 1307.52 8.66011 1306.46 7.41986ZM1287.9 8.19863L1285.09 12.0636C1287.33 13.1885 1290.59 15.0633 1292.51 16.217L1295.39 12.352C1293.57 11.2271 1290.14 9.29466 1287.9 8.19863ZM1281.34 28.5906L1284.26 33.2055C1287.01 32.8017 1291.71 31.3019 1294.98 29.6578C1300.29 26.9177 1304.86 23.3124 1307.94 19.2455L1304.96 14.4576C1302.43 18.611 1297.82 22.6778 1292.32 25.4179C1288.7 27.1773 1284.96 28.0426 1281.34 28.5906ZM1282.91 14.8325L1280.1 18.6975C1282.37 19.7935 1285.6 21.6972 1287.55 22.9086L1290.4 18.9859C1288.61 17.861 1285.22 15.9286 1282.91 14.8325Z" fill="#ECEFFF"/>
<path d="M1312.96 30.6385C1314.24 30.5231 1316.03 30.4366 1317.34 30.4366H1335.26C1336.26 30.4366 1337.89 30.5231 1339.14 30.6385V25.3025C1337.95 25.4179 1336.42 25.5044 1335.26 25.5044H1317.34C1316.03 25.5044 1314.3 25.3891 1312.96 25.3025V30.6385ZM1315.62 16.3612C1316.77 16.3035 1318.46 16.2458 1319.74 16.2458H1332.7C1333.86 16.2458 1335.52 16.3324 1336.48 16.3612V11.2848C1335.55 11.4002 1334.05 11.4867 1332.7 11.4867H1319.71C1318.59 11.4867 1316.86 11.429 1315.62 11.2848V16.3612Z" fill="#ECEFFF"/>
<path d="M1354.5 15.7267C1354.69 16.765 1354.75 17.6014 1354.75 18.611C1354.75 23.3124 1353.95 25.764 1350.4 28.1868C1349.06 29.1098 1347.87 29.6001 1346.75 29.9463L1351.26 33.2632C1360.29 28.7349 1360.13 22.5048 1360.13 15.7267H1354.5ZM1370.24 9.23697C1369.57 9.41003 1367.46 9.5254 1366.4 9.5254H1349.79C1348.38 9.5254 1347.04 9.38119 1345.73 9.20813V14.0249C1347.39 13.8807 1348.38 13.7942 1349.79 13.7942H1365.6C1364.9 15.0056 1362.69 17.1976 1360.32 18.5533L1364.32 21.4376C1367.2 19.5628 1370.24 15.9574 1371.87 13.5346C1372.19 13.0731 1372.93 12.2366 1373.31 11.804L1370.24 9.23697Z" fill="#ECEFFF"/>
<path d="M1386.46 20.4281C1385.34 23.745 1384.38 25.4756 1383.1 25.4756C1382.02 25.4756 1381.06 24.1777 1381.06 21.6972C1381.06 18.9571 1383.39 15.1209 1388.1 13.9672C1387.71 16.217 1387.17 18.4956 1386.46 20.4281ZM1392.03 32.7729C1400.29 31.5326 1404.22 27.1196 1404.22 21.1203C1404.22 14.6306 1399.1 9.61193 1391.04 9.61193C1382.56 9.61193 1376.06 15.3805 1376.06 22.1586C1376.06 27.0331 1379.07 30.8692 1382.98 30.8692C1386.72 30.8692 1389.57 27.0331 1391.46 21.3222C1392.32 18.6975 1392.9 16.1881 1393.31 13.8807C1396.96 14.6595 1398.94 17.2842 1398.94 20.9761C1398.94 24.7257 1396.26 27.2639 1392.22 28.158C1391.33 28.3599 1390.46 28.533 1389.12 28.6772L1392.03 32.7729Z" fill="#ECEFFF"/>
<path d="M1432.45 16.765H1433.38C1433.22 25.9371 1433.02 29.1387 1432.54 29.8886C1432.29 30.3212 1432.03 30.4366 1431.65 30.4366C1431.23 30.4366 1430.75 30.4077 1430.14 30.3789C1432.1 26.2544 1432.45 21.2357 1432.45 17.1688V16.765ZM1427.1 25.5333H1423.1V24.4661H1427.07V15.7555H1423.14V14.8325H1427.3V16.765H1428.54V17.1688C1428.54 20.1973 1428.35 24.0623 1427.1 27.4369V25.5333ZM1423.1 28.5041H1426.66C1426.53 28.7925 1426.4 29.081 1426.24 29.3694L1423.1 29.6001V28.5041ZM1418.34 21.2068H1419.65V22.0433H1418.34V21.2068ZM1418.34 18.1783H1419.65V19.0148H1418.34V18.1783ZM1422.69 19.0148V18.1783H1424.06V19.0148H1422.69ZM1422.69 22.0433V21.2068H1424.06V22.0433H1422.69ZM1432.45 13.1885V6.75647H1428.54V13.1885H1427.42V11.8617H1423.14V10.881C1424.7 10.708 1426.21 10.5061 1427.58 10.2465L1425.38 7.30449C1422.85 7.82367 1419.14 8.25631 1415.78 8.5159L1416 7.79482L1411.87 6.72763C1410.75 10.708 1408.83 14.6883 1406.66 17.313C1407.33 18.4379 1408.38 20.8896 1408.67 21.9279C1409.06 21.4664 1409.44 20.9761 1409.82 20.4857V34.1573H1413.92V13.2173C1414.46 11.9771 1414.98 10.708 1415.42 9.46772C1415.68 10.1023 1415.9 10.8233 1416 11.3714C1417.02 11.3425 1418.14 11.2848 1419.26 11.1983V11.8617H1415.17V14.8325H1419.26V15.7555H1415.46V24.4661H1419.23V25.5333H1415.42V28.5041H1419.23V29.8597C1417.57 29.9463 1416.06 30.0616 1414.78 30.1193L1415.33 33.494C1418.14 33.2344 1421.73 32.8882 1425.31 32.5133C1426.14 33.0325 1427.04 33.7247 1427.55 34.1862C1428.51 33.2055 1429.28 32.0806 1429.92 30.8692C1430.37 31.8211 1430.62 33.0613 1430.69 33.9266C1431.9 33.9554 1432.99 33.9266 1433.82 33.7535C1434.75 33.5516 1435.36 33.2344 1436 32.2825C1436.9 31.0423 1437.02 26.687 1437.25 14.8037C1437.25 14.3422 1437.28 13.1885 1437.28 13.1885H1432.45Z" fill="#ECEFFF"/>
<path d="M1444.1 23.0239C1443.71 24.12 1443.3 25.7352 1443.3 27.062C1443.3 31.273 1447.1 33.119 1453.22 33.119C1456.67 33.119 1460 32.8017 1461.63 32.5421L1461.79 28.1291C1459.58 28.5041 1456.35 28.7637 1453.09 28.7637C1449.22 28.7637 1448.1 27.6388 1448.1 26.1101C1448.1 25.4179 1448.45 24.2642 1448.83 23.3989L1444.1 23.0239ZM1465.44 14.4864C1464.03 14.9479 1462.27 15.4382 1459.84 15.8709L1459.46 15.0633C1459.26 14.6595 1459.04 14.2268 1458.85 13.7942C1460.8 13.4769 1462.37 13.1019 1463.97 12.6693L1463.17 8.83317C1461.28 9.41003 1459.33 9.81383 1457.25 10.1311C1456.86 9.17929 1456.58 8.25631 1456.38 7.44871L1450.91 8.37168C1451.46 9.1216 1451.87 9.72731 1452.35 10.6214C1449.7 10.708 1446.72 10.5926 1443.23 10.2465L1443.49 14.1691C1447.26 14.5152 1451.17 14.5152 1454.24 14.3133L1455.07 16.0439L1455.26 16.4766C1451.81 16.765 1447.68 16.765 1443.01 16.3612L1443.2 20.3127C1447.94 20.6011 1453.06 20.5434 1456.99 20.1685C1457.31 20.8607 1457.66 21.6395 1458.08 22.4759C1457.28 22.4182 1456.16 22.3317 1455.07 22.2452L1454.66 25.5333C1456.83 25.764 1460.13 26.2255 1461.98 26.5716L1464.22 23.9758C1463.3 22.3894 1462.46 20.8319 1461.73 19.4474C1463.46 19.1301 1465.09 18.784 1466.34 18.3802L1465.44 14.4864Z" fill="#ECEFFF"/>
<path d="M1500.96 15.0921V11.0829H1488.54V6.49689H1483.71V11.0829H1471.71V15.0921H1480.54C1480.22 21.0049 1479.52 27.1485 1471.01 30.7539C1472.26 31.648 1473.63 33.1767 1474.3 34.3304C1480.67 31.3596 1483.42 27.0043 1484.67 22.2452H1492.51C1492.13 26.7447 1491.58 29.0521 1490.82 29.629C1490.37 29.9463 1489.92 30.0039 1489.22 30.0039C1488.22 30.0039 1485.98 30.0039 1483.81 29.8309C1484.7 30.9846 1485.41 32.744 1485.47 33.9554C1487.62 34.0131 1489.76 34.0131 1491.07 33.8978C1492.67 33.7247 1493.82 33.4074 1494.91 32.3402C1496.22 31.0134 1496.9 27.7253 1497.44 20.0531C1497.54 19.5051 1497.57 18.2937 1497.57 18.2937H1485.41C1485.57 17.2265 1485.66 16.1593 1485.73 15.0921H1500.96Z" fill="#ECEFFF"/>
<path d="M1521.95 10.3042C1520.9 9.3235 1518.91 7.79482 1517.73 6.95838L1514.18 9.17929C1515.39 9.98689 1517.25 11.6598 1518.3 12.6405L1521.95 10.3042ZM1505.89 11.3425C1506.59 12.1501 1507.42 13.3038 1507.94 14.0826C1508.35 14.746 1508.74 15.4382 1509.12 16.1305C1508.35 16.4189 1507.58 16.7073 1506.78 16.9957C1506.27 17.1976 1504.74 17.688 1503.33 18.0053L1505.54 22.3605C1506.82 21.8414 1508.74 20.9184 1510.91 19.9089L1511.55 21.3222C1513.09 24.5815 1514.78 29.5713 1515.78 33.2632L1521.06 32.0806C1520 28.8214 1517.31 22.274 1515.97 19.4186L1515.26 17.9764C1518.46 16.6496 1521.7 15.5536 1524 15.5536C1525.98 15.5536 1527.33 16.5343 1527.33 17.861C1527.33 19.9089 1525.44 20.7742 1523.65 20.7742C1522.46 20.7742 1520.86 20.3704 1519.36 19.7935L1519.23 24.12C1520.42 24.5238 1522.5 24.9276 1524.19 24.9276C1528.99 24.9276 1532.45 22.3894 1532.45 18.0053C1532.45 14.5729 1529.31 11.6309 1524.13 11.6309C1520.93 11.6309 1517.34 12.8712 1513.5 14.3999C1513.06 13.5923 1512.64 12.7847 1512.19 12.0347C1511.84 11.4867 1511.14 10.16 1510.85 9.61193L1505.89 11.3425Z" fill="#ECEFFF"/>
<path d="M1211.06 52.9774C1210.14 53.2081 1208.79 53.4966 1207.54 53.7273C1206.2 53.9581 1203.8 54.333 1201.14 54.7368L1200.31 50.7853L1206.1 49.9489C1207.13 49.8335 1208.6 49.6316 1209.43 49.5739L1208.5 45.0167C1207.61 45.2475 1206.17 45.5359 1205.11 45.709C1204.09 45.882 1201.91 46.2281 1199.45 46.5743C1199.22 45.4494 1199.03 44.5841 1198.97 44.1514C1198.81 43.4304 1198.71 42.3632 1198.62 41.7863L1193.14 42.5651C1193.4 43.2861 1193.62 44.0072 1193.85 44.8725L1194.36 47.2665C1191.74 47.6414 1189.43 47.9299 1188.41 48.0452C1187.42 48.1606 1186.39 48.2183 1185.27 48.276L1186.3 53.0351C1187.38 52.7755 1188.28 52.5736 1189.43 52.3717C1190.3 52.2275 1192.6 51.8814 1195.26 51.5064L1196.09 55.4579C1193.08 55.8905 1190.36 56.2655 1188.95 56.4674C1187.86 56.6116 1186.26 56.7847 1185.37 56.8135L1186.46 61.4284C1187.19 61.2553 1188.41 61.0535 1189.85 60.8227C1191.16 60.592 1193.91 60.1593 1196.95 59.6978C1197.4 61.8899 1197.78 63.707 1197.94 64.6011C1198.14 65.4664 1198.2 66.5048 1198.36 67.6297L1203.93 66.7644C1203.64 65.7549 1203.32 64.6877 1203.1 63.8224C1202.87 62.8417 1202.49 61.0534 1202.04 58.9479C1204.66 58.5729 1207.03 58.2268 1208.44 58.0249C1209.66 57.8519 1211.13 57.6211 1212.09 57.5634L1211.06 52.9774Z" fill="#ECEFFF"/>
<path d="M1236.31 60.9669C1238.58 58.6883 1241.75 54.1888 1243.13 51.6218L1239.99 49.6316C1239.51 49.8335 1238.81 50.0354 1238.17 50.1508C1236.82 50.4104 1232.86 51.1026 1229.08 51.766L1228.31 49.2567C1228.12 48.5067 1227.9 47.6703 1227.77 46.8915L1222.58 47.9876C1222.97 48.6798 1223.35 49.4586 1223.58 50.2085C1223.8 50.8142 1224.06 51.6506 1224.31 52.5736C1223.06 52.7755 1222.1 52.9197 1221.69 52.9774C1220.57 53.1505 1219.64 53.237 1218.58 53.3235L1219.77 57.4769C1220.79 57.275 1222.97 56.8424 1225.43 56.352C1226.55 60.1593 1227.74 64.3416 1228.25 66.0145C1228.54 66.8797 1228.76 67.9469 1228.89 68.7834L1234.14 67.6297C1233.88 67.024 1233.37 65.5241 1233.21 65.0338C1232.66 63.4186 1231.42 59.294 1230.23 55.4291C1233.11 54.881 1235.61 54.4196 1236.34 54.3042C1235.61 55.5444 1233.5 57.8519 1232.06 59.0633L1236.31 60.9669Z" fill="#ECEFFF"/>
<path d="M1252.44 43.1708C1252.54 43.8919 1252.57 44.9014 1252.57 45.4494V55.2272C1252.57 56.1213 1252.44 57.3615 1252.41 57.9384H1258.17C1258.1 57.1885 1258.04 55.9771 1258.04 55.256V45.4494C1258.04 44.411 1258.1 43.8919 1258.17 43.1708H1252.44ZM1267.13 42.9112C1267.26 43.7765 1267.35 44.7571 1267.35 46.0262V51.9967C1267.35 55.9771 1266.9 58.0249 1264.76 60.0728C1262.84 61.8611 1260.22 62.9282 1256.89 63.5916L1260.95 67.4566C1263.29 66.7932 1266.65 65.3222 1268.79 63.3032C1271.22 60.9958 1272.73 58.1115 1272.73 52.314V46.0262C1272.73 44.7571 1272.79 43.7765 1272.86 42.9112H1267.13Z" fill="#ECEFFF"/>
<path d="M1290.84 49.9777C1291.03 51.0161 1291.1 51.8525 1291.1 52.862C1291.1 57.5634 1290.3 60.0151 1286.74 62.4379C1285.4 63.3609 1284.22 63.8512 1283.1 64.1973L1287.61 67.5143C1296.63 62.9859 1296.47 56.7558 1296.47 49.9777H1290.84ZM1306.58 43.4881C1305.91 43.6611 1303.8 43.7765 1302.74 43.7765H1286.14C1284.73 43.7765 1283.38 43.6323 1282.07 43.4592V48.276C1283.74 48.1318 1284.73 48.0452 1286.14 48.0452H1301.94C1301.24 49.2567 1299.03 51.4487 1296.66 52.8043L1300.66 55.6886C1303.54 53.8139 1306.58 50.2085 1308.22 47.7857C1308.54 47.3242 1309.27 46.4877 1309.66 46.0551L1306.58 43.4881Z" fill="#ECEFFF"/>
<path d="M1342.49 44.1803C1341.94 43.1996 1340.79 41.3537 1339.96 40.2576L1336.95 41.3537C1337.82 42.4497 1338.84 44.1514 1339.48 45.334L1342.49 44.1803ZM1330.26 47.7857C1331.48 47.7857 1332.79 47.8433 1333.98 47.901V44.1514C1334.52 45.0456 1335.06 45.9974 1335.48 46.7473L1338.52 45.5936C1337.94 44.5841 1336.82 42.7093 1336.02 41.6421L1333.02 42.7381C1333.18 42.9689 1333.37 43.2285 1333.53 43.4881C1332.47 43.6034 1331.32 43.6611 1330.26 43.6611H1320.12C1319.03 43.6611 1317.5 43.5746 1316.41 43.4304V47.901C1317.46 47.8433 1319 47.7857 1320.12 47.7857H1330.26ZM1315.99 51.0738C1315 51.0738 1313.75 50.9872 1312.76 50.8719V55.4291C1313.66 55.3714 1315.06 55.3137 1315.99 55.3137H1324.34C1324.15 57.5634 1323.54 59.5536 1322.3 61.2265C1321.02 62.8417 1318.78 64.4858 1316.63 65.2068L1321.18 68.1488C1324.09 66.8221 1326.58 64.4858 1327.67 62.4379C1328.76 60.4766 1329.56 58.198 1329.78 55.3137H1336.95C1337.91 55.3137 1339.26 55.3425 1340.12 55.4002V50.8719C1339.22 51.0161 1337.62 51.0738 1336.95 51.0738H1315.99Z" fill="#ECEFFF"/>
<path d="M1374.2 45.8532C1373.85 44.786 1373.18 43.1419 1372.57 41.9594L1370.04 42.6804C1370.68 43.863 1371.22 45.334 1371.67 46.5743L1374.2 45.8532ZM1366.62 48.3048V45.5936C1366.62 44.8725 1366.65 44.2668 1366.71 43.7188C1367.35 44.9014 1367.77 46.3435 1368.22 47.5549L1370.78 46.805C1370.46 45.709 1369.82 44.0938 1369.21 42.9112L1366.74 43.6034L1366.84 42.7381H1361.34C1361.46 43.4592 1361.53 44.411 1361.53 45.5936V48.3048H1354.81V45.9397C1354.81 44.6995 1354.94 43.7188 1355.03 43.0266H1349.53C1349.62 43.7188 1349.75 44.7283 1349.75 45.9109V48.3048H1347.45C1345.72 48.3048 1344.57 48.1029 1343.83 47.9876V52.7178C1344.76 52.6601 1345.72 52.6024 1347.45 52.6024H1349.75V56.0925C1349.75 57.5058 1349.66 58.6306 1349.56 59.3517H1354.97C1354.9 58.6306 1354.81 57.5058 1354.81 56.0925V52.6024H1361.53V53.6408C1361.53 60.1593 1358.94 62.6687 1352.54 64.5723L1356.7 68.0911C1364.66 64.9473 1366.62 60.3612 1366.62 53.5254V52.6024H1368.34C1370.17 52.6024 1371.29 52.6024 1372.18 52.689V48.0741C1371.06 48.2471 1370.17 48.3048 1368.31 48.3048H1366.62Z" fill="#ECEFFF"/>
<path d="M1395.03 51.391C1398.1 49.6028 1400.89 47.4684 1403.45 45.2186L1399.29 41.844C1397.46 44.0361 1394.17 46.6031 1390.94 48.4202C1387.35 50.4392 1381.98 52.5448 1376.25 53.612L1379 57.8519C1382.49 57.0154 1386.23 55.6598 1389.46 54.2177V62.8994C1389.46 64.2839 1389.34 66.3029 1389.21 67.0816H1395.35C1395.1 66.274 1395.03 64.2839 1395.03 62.8994V51.391Z" fill="#ECEFFF"/>
<path d="M1414.65 43.1996L1410.97 46.7473C1413.27 48.2183 1417.3 51.391 1419 53.0639L1422.97 49.4009C1421.05 47.5549 1416.86 44.5552 1414.65 43.1996ZM1409.91 62.3514L1413.21 66.9663C1417.24 66.3894 1421.4 64.8896 1424.66 63.159C1430.01 60.3324 1434.55 56.3232 1437.11 52.2275L1434.1 47.2953C1431.96 51.3622 1427.64 55.8329 1421.88 58.8325C1418.74 60.4766 1414.62 61.7745 1409.91 62.3514Z" fill="#ECEFFF"/>
<path d="M1459.13 53.7562C1461.05 55.4867 1462.26 57.1885 1462.26 59.121C1462.26 61.14 1460.18 62.9282 1455.99 62.9282C1453.14 62.9282 1451.64 61.8899 1451.64 59.7555C1451.64 59.3517 1451.67 58.7748 1451.74 58.1115C1452.15 58.1115 1452.6 58.1115 1453.05 58.1115C1454.94 58.1115 1456.73 57.9961 1458.3 57.8519L1458.42 53.7562C1456.44 53.9581 1454.01 54.1023 1452.22 54.1023H1452.18C1452.31 53.0639 1452.47 51.9679 1452.63 50.9296C1455.16 50.9296 1456.76 50.8142 1458.52 50.6411L1458.68 46.5454C1457.37 46.7473 1455.42 46.8915 1453.24 46.9204C1453.37 46.1416 1453.46 45.5359 1453.53 45.161C1453.69 44.3533 1453.85 43.5169 1454.17 42.3055L1448.79 42.0459C1448.89 43.1131 1448.79 44.0361 1448.73 44.8725C1448.7 45.4205 1448.63 46.0551 1448.54 46.7762C1446.26 46.6031 1443.99 46.257 1442.23 45.709L1442.01 49.6893C1443.8 50.1219 1445.88 50.4969 1448.02 50.6988L1447.58 53.9004C1445.59 53.7273 1443.61 53.3812 1441.59 52.7755L1441.34 56.9577C1442.9 57.3327 1444.86 57.65 1447.06 57.8519C1446.94 58.9479 1446.87 59.8709 1446.87 60.5054C1446.87 65.3511 1450.42 67.4278 1455.83 67.4278C1463.13 67.4278 1467.48 64.0531 1467.48 59.6978C1467.48 57.275 1466.55 55.256 1464.5 52.7178L1459.13 53.7562Z" fill="#ECEFFF"/>
<path d="M1475.22 67.5431C1477.59 66.0721 1478.94 63.8224 1479.86 61.4572L1475.7 60.0728C1474.94 62.0918 1473.4 63.9378 1471.38 65.0915L1475.22 67.5431ZM1487.48 46.1705C1487.1 46.6896 1486.65 47.2088 1486.23 47.6703H1479.9C1480.44 47.18 1480.95 46.6896 1481.43 46.1705H1487.48ZM1485.98 64.4858C1484.79 64.4858 1484.6 64.3992 1484.6 63.5916V61.0823C1485.91 61.8322 1487.13 62.6687 1487.8 63.332L1490.87 60.5054C1490.36 60.0439 1489.59 59.5536 1488.76 59.0921H1498.23V47.6703H1491.67C1492.6 46.6031 1493.46 45.5071 1494.07 44.5552L1490.87 42.7381L1490.17 42.9112H1484.12C1484.41 42.4785 1484.7 42.0459 1484.98 41.6133L1480.02 40.748C1478.46 43.4304 1475.64 46.2858 1471.38 48.3914C1472.41 49.0548 1473.91 50.4969 1474.62 51.4776C1475.1 51.1891 1475.58 50.9007 1476.02 50.6123V50.9872H1493.62V51.8237H1476.7V54.881H1493.62V55.7752H1475.51V59.0921H1483.26L1482.33 59.9286C1482.81 60.1305 1483.29 60.3901 1483.8 60.6496H1480.06V63.6493C1480.06 66.9086 1481.02 68.0335 1485.34 68.0335H1489.37C1492.54 68.0335 1493.72 67.1105 1494.2 63.4763C1492.98 63.2455 1491.1 62.6687 1490.23 62.063C1490.07 64.1685 1489.88 64.4858 1488.92 64.4858H1485.98ZM1492.63 61.6015C1494.58 63.4186 1496.86 65.9568 1497.75 67.6008L1501.94 65.4376C1500.86 63.707 1498.46 61.3419 1496.5 59.669L1492.63 61.6015Z" fill="#ECEFFF"/>
<path d="M1527.64 50.8719V52.7178H1525.05V50.8719H1527.64ZM1518.1 50.8719H1520.54V52.7178H1518.1V50.8719ZM1520.54 47.728H1513.85V55.8329H1518.49C1516.89 57.4481 1514.42 58.8902 1511.96 59.7267C1512.92 60.4766 1514.26 61.9476 1514.9 62.8994C1516.98 61.9476 1518.94 60.5054 1520.54 58.8037V63.159H1525.05V59.0344C1526.71 60.5631 1528.66 61.9476 1530.55 62.8417C1531.26 61.8322 1532.66 60.3324 1533.69 59.5536C1531.19 58.7172 1528.47 57.3327 1526.58 55.8329H1532.15V47.728H1525.05V46.6031H1533.05V43.1419H1525.05V40.9499H1520.54V43.1419H1513.02V46.6031H1520.54V47.728ZM1512.57 45.882C1511.48 44.5552 1509.14 42.767 1507.32 41.5844L1503.86 44.0938C1505.69 45.3917 1507.93 47.3242 1508.86 48.651L1512.57 45.882ZM1511.83 52.0833H1503.99V55.9482H1507.29V61.313C1505.94 62.1783 1504.47 62.9859 1503.16 63.6493L1505.4 68.0335C1507.13 66.7932 1508.47 65.7549 1509.78 64.7165C1511.9 66.9374 1514.42 67.6585 1518.23 67.8027C1522.23 67.9758 1528.6 67.9181 1532.66 67.7162C1532.89 66.4759 1533.62 64.4569 1534.14 63.4474C1529.53 63.8224 1522.23 63.9089 1518.33 63.7647C1515.19 63.6493 1513.02 62.9282 1511.83 61.14V52.0833Z" fill="#ECEFFF"/>
<path d="M1548.89 45.0744L1548.92 49.5162C1553.14 49.8335 1558.68 49.8047 1562.84 49.5162V45.0456C1559.29 45.3917 1553.02 45.5359 1548.89 45.0744ZM1547.77 57.2462C1547.42 58.6306 1547.19 59.8709 1547.19 61.1688C1547.19 64.1973 1549.94 66.0721 1555.48 66.0721C1559.22 66.0721 1561.75 65.8702 1563.83 65.5241L1563.74 60.8515C1560.86 61.3707 1558.58 61.6015 1555.74 61.6015C1553.14 61.6015 1551.83 61.14 1551.83 59.8709C1551.83 59.121 1551.93 58.4864 1552.15 57.5923L1547.77 57.2462ZM1539.32 42.94C1539.29 44.0072 1539.06 45.3052 1538.94 46.1705C1538.62 48.276 1537.69 53.0351 1537.69 57.4192C1537.69 61.2842 1538.33 64.8896 1538.97 66.8221L1543.38 66.5625C1543.35 66.101 1543.35 65.5818 1543.35 65.2645C1543.35 65.0049 1543.45 64.3127 1543.54 63.9089C1543.9 62.2937 1544.89 59.1498 1545.85 56.5539L1543.51 54.9099C1543.1 55.7175 1542.71 56.2944 1542.3 57.102C1542.26 56.9866 1542.26 56.5251 1542.26 56.4386C1542.26 53.785 1543.42 47.728 1543.77 46.257C1543.9 45.7378 1544.38 43.9784 1544.66 43.3438L1539.32 42.94Z" fill="#ECEFFF"/>
<path d="M1586.36 59.5248C1585.37 60.3612 1584.18 61.0535 1582.84 61.6592C1581.53 61.0535 1580.41 60.3612 1579.48 59.5248H1586.36ZM1584.54 47.0357V51.4776C1584.54 51.766 1584.44 51.8237 1584.09 51.8237C1583.74 51.8237 1582.58 51.8237 1581.72 51.7948C1582.2 52.689 1582.68 53.9292 1582.9 54.9676L1579.99 54.4484C1582.1 52.1121 1582.46 49.3432 1582.49 47.0357H1584.54ZM1590.33 56.1213L1589.56 56.2655H1582.26C1582.52 55.9771 1582.74 55.6886 1583 55.4002V55.4579C1584.82 55.4579 1586.3 55.4291 1587.51 54.8522C1588.79 54.2753 1589.05 53.2947 1589.05 51.5929V47.0357H1597.08V43.1996H1585.08V40.921H1580.28V43.1996H1568.41V47.0357H1578.17C1578.14 49.1701 1577.53 51.766 1573.98 53.6696C1574.81 54.1888 1576.02 55.1406 1576.86 55.9482C1574.97 57.5923 1572.22 59.0633 1568.31 60.1305C1569.27 60.765 1570.62 62.2649 1571.19 63.2455C1572.89 62.6398 1574.39 62.0053 1575.74 61.313C1576.41 62.0053 1577.14 62.6687 1577.94 63.2455C1574.78 63.9666 1571.16 64.3992 1567.26 64.6011C1568.06 65.4953 1569.08 67.3412 1569.43 68.3796C1574.17 67.9469 1578.68 67.1682 1582.55 65.8125C1586.01 67.197 1590.23 67.9469 1595.48 68.2642C1596.06 67.1105 1597.24 65.2934 1598.2 64.3127C1594.26 64.1973 1590.84 63.8801 1587.93 63.2744C1590.17 61.8611 1592.02 60.1016 1593.37 57.9096L1590.33 56.1213ZM1572.09 47.6991C1571.32 49.372 1569.62 51.3334 1567.7 52.4582C1568.6 53.0062 1570.07 54.1023 1570.9 54.8522C1573.08 53.4389 1575.1 51.0738 1576.41 48.7375L1572.09 47.6991ZM1589.53 49.4586C1591.19 51.1603 1593.21 53.4966 1594.01 55.0253L1597.88 52.9486C1596.92 51.391 1594.81 49.199 1593.11 47.6126L1589.53 49.4586Z" fill="#ECEFFF"/>
<path d="M1607.26 41.2671C1605.37 45.5071 1602.1 49.7181 1598.78 52.314C1599.61 53.3812 1600.95 55.7463 1601.43 56.8135C1602.3 56.0925 1603.16 55.256 1604.02 54.333V68.2642H1608.7V48.3337C1609.91 46.4589 1611 44.5264 1611.86 42.6516L1607.26 41.2671ZM1620.12 64.1397C1618.68 64.1397 1618.52 63.9089 1618.52 62.1206V55.4579C1622.14 53.9869 1625.94 52.1698 1629.21 50.2373L1625.78 46.5454C1623.77 48.0164 1621.21 49.7181 1618.52 51.1315V41.6998H1613.82V62.0918C1613.82 66.6778 1615.06 68.0335 1619.48 68.0335H1624.38C1628.41 68.0335 1629.62 66.0721 1630.14 60.9381C1628.86 60.6785 1626.94 59.8997 1625.85 59.1787C1625.59 63.1878 1625.34 64.1397 1623.9 64.1397H1620.12Z" fill="#ECEFFF"/>
<path d="M932.808 17.724C931.688 21.041 930.728 22.7716 929.448 22.7716C928.36 22.7716 927.4 21.4736 927.4 18.9931C927.4 16.253 929.736 12.4169 934.44 11.2632C934.056 13.513 933.512 15.7915 932.808 17.724ZM938.376 30.0688C946.632 28.8286 950.568 24.4156 950.568 18.4163C950.568 11.9266 945.448 6.9079 937.384 6.9079C928.904 6.9079 922.408 12.6765 922.408 19.4546C922.408 24.3291 925.416 28.1652 929.32 28.1652C933.064 28.1652 935.912 24.3291 937.8 18.6182C938.664 15.9935 939.24 13.4841 939.656 11.1767C943.304 11.9554 945.288 14.5801 945.288 18.272C945.288 22.0216 942.6 24.5598 938.568 25.454C937.672 25.6559 936.808 25.8289 935.464 25.9731L938.376 30.0688Z" fill="#ECEFFF"/>
<path d="M961.736 21.6467C961.288 21.6467 961.256 21.5025 961.256 20.2334V15.2435L967.656 14.1763L966.92 10.3691L961.256 11.292V4.86005H956.648V12.042L953.192 12.59L953.928 16.4838L956.648 16.0223V20.2334C956.648 24.3579 957.48 25.627 960.84 25.627H963.112C965.832 25.627 966.952 24.1272 967.4 19.7719C966.152 19.5123 964.264 18.7912 963.304 18.0701C963.208 21.0121 963.112 21.6467 962.632 21.6467H961.736ZM965.448 5.8984V9.87873H969.8C969.672 17.9548 969.32 24.3002 962.472 28.1652C963.656 28.944 965.064 30.4438 965.736 31.5687C973.448 26.8961 974.248 19.1662 974.472 9.87873H978.44C978.216 20.8391 977.896 25.3674 977.064 26.3193C976.712 26.7807 976.392 26.925 975.816 26.925C975.048 26.925 973.672 26.925 972.104 26.8096C972.904 28.021 973.512 29.9535 973.576 31.136C975.304 31.1649 977.064 31.1937 978.28 30.963C979.592 30.6745 980.488 30.2707 981.448 28.944C982.664 27.2999 982.952 22.1947 983.272 7.97509C983.304 7.42708 983.336 5.8984 983.336 5.8984H965.448Z" fill="#ECEFFF"/>
<path d="M991.464 5.11963C991.464 5.98492 991.368 7.28286 991.208 8.40774C990.696 11.7247 990.376 14.8686 990.376 17.5221C990.376 19.4546 990.6 21.3006 990.792 22.3966L995.528 22.1082C995.368 20.8679 995.336 19.9738 995.336 19.3681C995.336 15.6185 998.408 10.5998 1002.02 10.5998C1004.26 10.5998 1005.86 12.6188 1005.86 16.9453C1005.86 23.7234 1001.16 25.5693 994.024 26.5788L996.936 30.588C1005.64 29.1459 1011.11 25.1078 1011.11 16.9453C1011.11 10.4844 1007.46 6.56178 1002.92 6.56178C999.624 6.56178 997.16 8.32121 995.528 10.1095C995.72 8.75385 996.36 6.33104 996.68 5.32154L991.464 5.11963Z" fill="#ECEFFF"/>
<path d="M1024.55 24.2714V10.9459H1040.58V24.2714H1024.55ZM1019.69 6.67716V30.8764H1024.55V28.5978H1040.58V30.8764H1045.7V6.67716H1019.69Z" fill="#ECEFFF"/>
<path d="M1053.03 5.8984C1053 6.96559 1052.81 8.26352 1052.68 9.12881C1052.33 11.2344 1051.43 16.5992 1051.43 20.9833C1051.43 24.8483 1052.07 28.194 1052.74 30.1265L1057.06 29.8669C1057.03 29.4055 1057.03 28.8863 1057.03 28.569C1057.03 28.2806 1057.13 27.6172 1057.22 27.2134C1057.61 25.5693 1058.57 22.685 1059.53 20.118L1057.19 18.4451C1056.78 19.2816 1056.39 19.8296 1056.01 20.666C1055.98 20.5506 1055.98 20.0892 1055.98 20.0026C1055.98 17.3491 1057.06 10.6863 1057.45 9.21534C1057.58 8.69617 1058.02 6.93674 1058.31 6.3022L1053.03 5.8984ZM1068.94 23.6369C1068.94 25.1944 1068.33 25.9443 1066.79 25.9443C1065.45 25.9443 1064.33 25.5982 1064.33 24.5887C1064.33 23.6945 1065.32 23.1754 1066.79 23.1754C1067.53 23.1754 1068.23 23.2619 1068.94 23.4349V23.6369ZM1079.75 24.6464C1078.34 23.4638 1076.39 21.964 1073.67 20.9544C1073.58 19.2816 1073.42 17.2337 1073.35 14.6378C1075.02 14.5225 1076.58 14.3494 1077.99 14.1763V9.87873C1076.55 10.1383 1074.98 10.3691 1073.38 10.5133C1073.42 9.33071 1073.45 8.3789 1073.48 7.83088C1073.51 7.19633 1073.58 6.47526 1073.67 5.92724H1068.2C1068.33 6.53294 1068.46 7.45592 1068.46 7.88856C1068.49 8.40774 1068.49 9.47493 1068.52 10.8017C1067.91 10.8306 1067.34 10.8306 1066.73 10.8306C1064.81 10.8306 1062.92 10.744 1061.06 10.571L1061.1 14.6955C1062.98 14.8109 1064.87 14.8686 1066.76 14.8686C1067.34 14.8686 1067.94 14.8686 1068.55 14.8397C1068.58 16.628 1068.68 18.3874 1068.78 19.8873C1068.26 19.8584 1067.72 19.8296 1067.18 19.8296C1062.76 19.8296 1059.85 21.8774 1059.85 25.079C1059.85 28.3094 1062.79 30.04 1067.24 30.04C1071.4 30.04 1073.35 28.3671 1073.77 25.6847C1074.86 26.4058 1075.98 27.2711 1077.16 28.2806L1079.75 24.6464Z" fill="#ECEFFF"/>
<path d="M951.56 52.3501C947.336 48.4851 945.64 44.1298 944.712 40.4956L940.072 41.7935C940.296 42.3127 940.488 42.803 940.712 43.2934C943.464 53.6768 940.136 60.0512 934.216 60.0512C931.688 60.0512 929.672 58.6667 929.672 55.9554C929.672 51.4271 933.8 46.5815 936.072 44.9374C936.552 44.649 937.128 44.4182 937.608 44.2452L936.168 40.4379C933.96 41.1013 928.808 41.8512 925.128 42.1108C924.52 42.1685 923.88 42.1973 923.272 42.1973L923.944 46.6392C924.712 46.4661 925.192 46.3507 925.864 46.2353C926.92 46.0334 928.328 45.8315 929.32 45.745C926.792 48.4274 924.744 52.6097 924.744 56.5611C924.744 61.6375 928.584 64.7526 933.992 64.7526C942.248 64.7526 945.8 58.9551 945.704 52.7539C946.472 53.8499 947.24 54.8594 948.008 55.7824L951.56 52.3501Z" fill="#ECEFFF"/>
<path d="M975.327 42.2839C974.399 42.9761 973.375 43.5241 972.031 44.2163C970.655 44.9374 968.255 46.0623 965.919 47.2737C964.671 45.1393 963.263 42.5434 962.111 39.6591L957.279 41.4186C958.687 44.4182 960.159 47.3314 961.631 49.783C958.719 51.7732 956.479 54.1095 956.479 57.3688C956.479 62.647 961.503 64.2334 968.031 64.2334C972.255 64.2334 975.423 63.945 978.303 63.5123L978.367 58.5225C975.359 59.1282 971.039 59.6185 967.903 59.6185C963.839 59.6185 961.823 58.7244 961.823 56.8496C961.823 54.9748 963.583 53.4461 966.047 52.004C968.831 50.3887 972.543 48.8601 974.431 48.0236C975.711 47.4468 976.863 46.8987 977.983 46.293L975.327 42.2839Z" fill="#ECEFFF"/>
<path d="M983.966 46.668L986.11 51.5136C989.886 49.9849 997.022 47.3025 1001.41 47.3025C1004.96 47.3025 1006.78 49.1773 1006.78 51.6867C1006.78 56.1862 1000.41 58.4071 991.678 58.5513L993.918 63.1662C1005.89 62.647 1012.32 58.0321 1012.32 51.7732C1012.32 46.2065 1007.61 43.1203 1001.63 43.1203C996.958 43.1203 990.398 45.1393 988.094 45.7739C986.974 46.0623 985.118 46.4949 983.966 46.668Z" fill="#ECEFFF"/>
<path d="M1034.24 42.2262L1030.91 43.4664C1032.16 45.0528 1032.8 46.2065 1033.82 48.1967L1037.25 46.8699C1036.54 45.572 1035.2 43.5241 1034.24 42.2262ZM1038.62 40.5821L1035.33 41.9377C1036.57 43.4664 1037.28 44.5336 1038.4 46.5238L1041.73 45.0816C1041.02 43.8125 1039.61 41.8224 1038.62 40.5821ZM1020.19 39.9476C1020.51 41.2455 1020.67 42.803 1020.67 44.3317C1020.67 46.4949 1020.38 54.1383 1020.38 57.7437C1020.38 62.7336 1023.84 64.9833 1029.37 64.9833C1036.77 64.9833 1041.47 61.0607 1043.45 58.3206L1039.97 54.4556C1037.66 57.6572 1034.33 60.2531 1029.41 60.2531C1027.26 60.2531 1025.5 59.3878 1025.5 56.6477C1025.5 53.5038 1025.73 47.3314 1025.89 44.3317C1025.95 43.0915 1026.14 41.3609 1026.37 40.0053L1020.19 39.9476Z" fill="#ECEFFF"/>
<path d="M1065.57 46.1488C1064.86 45.4277 1063.01 43.9568 1062.05 43.4087L1058.65 45.6296C1059.74 46.3219 1060.99 47.3602 1061.95 48.2255C1060.8 48.5716 1059.61 49.0043 1058.37 49.4369C1057.98 48.7158 1057.63 48.0525 1057.34 47.5621C1057.12 47.1295 1056.64 46.293 1056.29 45.7162L1051.52 47.3314C1052.19 48.0525 1052.8 48.9466 1053.18 49.5523C1053.47 49.9849 1053.76 50.5041 1054.08 51.0521C1053.5 51.2829 1052.93 51.4848 1052.35 51.6867C1051.93 51.8309 1050.56 52.2347 1049.21 52.552L1051.33 56.6765C1052.09 56.3592 1053.82 55.5516 1055.9 54.6287C1056.13 55.0902 1056.32 55.5516 1056.51 55.9554C1057.6 58.4359 1059.2 62.5028 1059.97 65.4736L1064.77 64.4353C1063.9 61.8683 1061.89 56.59 1060.8 54.2826C1060.61 53.8499 1060.38 53.3884 1060.13 52.8692C1062.75 51.8597 1065.31 51.0521 1066.97 51.0521C1068.45 51.0521 1069.41 51.7444 1069.41 52.5808C1069.41 54.023 1068.29 54.7729 1066.59 54.7729C1065.69 54.7729 1064.29 54.5133 1063.07 54.023L1062.97 58.0033C1063.9 58.3206 1065.63 58.6955 1066.97 58.6955C1071.9 58.6955 1074.17 56.3881 1074.17 52.552C1074.17 49.9849 1072 47.1872 1067.17 47.1872C1065.89 47.1872 1064.38 47.5044 1062.72 47.9659L1065.57 46.1488Z" fill="#ECEFFF"/>
<path d="M1108.96 46.7834C1107.26 45.7162 1103.17 43.7549 1100.89 42.8607L1098.43 46.293C1100.64 47.1583 1104.35 49.0908 1106.24 50.4176L1108.96 46.7834ZM1096.73 42.3415C1095.68 42.63 1094.33 42.9184 1092.86 43.178C1093.31 41.7358 1093.66 40.4379 1093.89 39.5438L1088.64 39.0823C1088.57 40.5533 1088.29 42.1973 1087.84 43.7549C1087.01 43.8125 1086.21 43.8414 1085.37 43.8414C1084.32 43.8414 1082.43 43.7837 1080.96 43.6395L1081.31 47.6198C1082.78 47.7063 1084.06 47.7352 1085.41 47.7352C1085.73 47.7352 1086.08 47.7352 1086.43 47.7063C1085.05 50.6772 1082.62 54.6864 1080.13 57.4841L1084.77 59.5897C1087.33 56.2727 1090.01 51.3117 1091.49 47.3025C1093.63 47.0141 1095.55 46.6392 1096.86 46.3219L1096.73 42.3415ZM1096.99 58.234C1096.99 59.8204 1096.41 60.8299 1094.53 60.8299C1093.18 60.8299 1092.32 60.1954 1092.32 59.2724C1092.32 58.4648 1093.28 57.8879 1094.85 57.8879C1095.58 57.8879 1096.32 57.9745 1096.99 58.0898V58.234ZM1096.48 48.4851C1096.57 50.1003 1096.7 52.4366 1096.83 54.4845C1096.29 54.4268 1095.74 54.3979 1095.17 54.3979C1090.27 54.3979 1087.77 56.8496 1087.77 59.705C1087.77 63.022 1091.04 64.7814 1095.23 64.7814C1099.9 64.7814 1101.57 62.7336 1101.66 59.9935C1103.23 60.9741 1104.51 62.0702 1105.5 62.9066L1108.03 59.1859C1106.46 57.8591 1104.22 56.4169 1101.47 55.4651C1101.41 54.2826 1101.34 53.1577 1101.31 52.4943C1101.28 51.081 1101.21 49.7254 1101.31 48.4851H1096.48Z" fill="#ECEFFF"/>
<path d="M1119.45 42.0531L1113.57 41.9954C1113.79 43.0049 1113.85 44.2163 1113.85 45.0816C1113.85 46.8987 1113.89 50.158 1114.21 52.8692C1115.1 60.6857 1118.21 63.57 1121.95 63.57C1124.73 63.57 1126.75 61.7817 1128.96 56.7342L1125.09 52.4654C1124.64 54.3979 1123.52 57.9745 1122.05 57.9745C1120.22 57.9745 1119.58 55.3497 1119.2 51.6002C1119.01 49.6965 1119.01 47.8217 1119.01 45.9469C1119.01 45.1105 1119.2 43.2645 1119.45 42.0531ZM1134.94 42.6011L1130.05 44.0433C1133.76 47.6775 1135.29 54.9748 1135.74 59.2724L1140.83 57.513C1140.57 53.3884 1138.05 45.8892 1134.94 42.6011Z" fill="#ECEFFF"/>
<path d="M800.8 25.0529H772.325V22.7544H800.8V25.0529ZM800.8 33.3272H772.325V31.0288H800.8V33.3272ZM800.8 41.6015H772.325V39.2265H800.8V41.6015ZM779.465 16.4721H760.425V47.8839H813.38V16.4721H792.555V14.2503H822.73V5.05654H792.555V0H779.465V5.05654H750.735V14.2503H779.465V16.4721ZM824.345 58.993V49.9525H748.185V58.993H768.84C763.23 61.5213 754.73 64.1261 747.42 65.4286C750.14 67.4972 753.795 70.8682 755.835 73.0134C764.25 71.3279 774.875 67.727 781.505 64.2028L773.515 58.993H796.89L791.025 64.1261C800.035 66.8842 809.555 70.5617 815.08 72.9368L825.705 65.5818C820.775 63.8197 813.04 61.2914 805.475 58.993H824.345Z" fill="#ECEFFF"/>
<path d="M846.7 20.5326V16.0124H895.065V20.5326H876.875V17.3148H864.38V20.5326H846.7ZM908.75 54.626V45.0492H876.45C876.62 43.9 876.79 42.7508 876.79 41.6015H898.805V32.7143H876.875V29.4199H900.845V23.7504H907.9V6.35898H877.47V0.229845H864.72V6.35898H834.46V23.7504H842.28V29.4199H864.38V32.7143H843.64V41.6015H864.295C864.21 42.7508 864.125 43.9 863.785 45.0492H834.12V54.626H857.58C852.82 58.3801 844.915 61.5979 832.08 63.8963C834.8 66.1947 838.37 70.4851 839.73 72.8602C855.88 69.1827 865.4 63.8197 870.755 57.4607C877.47 66.1181 887.075 70.9448 902.8 73.09C904.33 70.1021 907.475 65.6584 910.025 63.36C897.53 62.364 888.69 59.5293 882.74 54.626H908.75Z" fill="#ECEFFF"/>
</svg>
