<svg width="1788" height="74" viewBox="0 0 1788 74" fill="none" xmlns="http://www.w3.org/2000/svg">
<path d="M31.365 65.7531C40.205 65.7531 48.025 62.6119 52.445 58.7812V32.1194H28.9V43.3051H38.93V52.4988C37.57 53.4182 35.19 53.9545 32.895 53.9545C21.165 53.9545 15.555 47.3657 15.555 36.0267C15.555 24.9177 22.27 18.3289 31.62 18.3289C36.89 18.3289 40.205 20.2442 43.265 22.7725L51.34 14.0385C47.005 10.1311 40.375 6.60687 31.11 6.60687C14.195 6.60687 0 17.4861 0 36.4864C0 55.7932 13.77 65.7531 31.365 65.7531Z" fill="#ECEFFF"/>
<path d="M91.3239 65.7531C108.579 65.7531 120.309 54.5674 120.309 35.8735C120.309 17.2563 108.579 6.60687 91.3239 6.60687C74.0689 6.60687 62.3389 17.1796 62.3389 35.8735C62.3389 54.5674 74.0689 65.7531 91.3239 65.7531ZM91.3239 53.9545C82.9939 53.9545 77.8939 46.9826 77.8939 35.8735C77.8939 24.8411 82.9939 18.3289 91.3239 18.3289C99.6539 18.3289 104.839 24.8411 104.839 35.8735C104.839 46.9826 99.6539 53.9545 91.3239 53.9545Z" fill="#ECEFFF"/>
<path d="M131.605 51.6515C131.605 54.9324 128.615 58.0376 123.025 59.7952L125.365 65.361C134.335 62.9003 139.21 57.2173 139.21 49.6596C139.21 43.5665 136.415 39.9341 131.345 39.9341C127.315 39.9341 124.13 42.2775 124.13 45.7928C124.13 49.5424 127.445 51.6515 131.02 51.6515H131.605Z" fill="#ECEFFF"/>
<path d="M156.02 32.2321H162.82V23.3268C162.82 20.0819 162.22 16.4044 161.9 13.412H162.1L165.02 19.2888L172.38 32.2321H179.66V5.40805H172.86V14.2773C172.86 17.4861 173.42 21.3438 173.82 24.1921H173.62L170.7 18.2432L163.3 5.40805H156.02V32.2321Z" fill="#ECEFFF"/>
<path d="M186.567 32.2321H205.887V26.824H193.727V21.1275H203.687V15.7194H193.727V10.744H205.447V5.40805H186.567V32.2321Z" fill="#ECEFFF"/>
<path d="M208.802 32.2321H216.442L219.002 27.0043C219.682 25.5982 220.322 24.1921 221.042 22.5336H221.202C222.002 24.1921 222.682 25.5982 223.402 27.0043L226.162 32.2321H234.122L225.922 18.7119L233.602 5.40805H226.042L223.882 10.2032C223.282 11.4651 222.642 12.8712 221.962 14.6018H221.802C220.962 12.8712 220.282 11.4651 219.642 10.2032L217.242 5.40805H209.282L217.002 18.4235L208.802 32.2321Z" fill="#ECEFFF"/>
<path d="M242.874 32.2321H250.034V10.744H258.114V5.40805H234.834V10.744H242.874V32.2321Z" fill="#ECEFFF"/>
<path d="M165.26 66.0865C172.46 66.0865 176.62 62.1567 176.62 57.686C176.62 53.9004 174.42 51.665 170.74 50.331L167.02 48.9971C164.38 48.0597 162.5 47.4828 162.5 46.0046C162.5 44.5624 163.86 43.7693 166.06 43.7693C168.38 43.7693 170.22 44.4903 172.18 45.8243L175.74 41.7863C173.14 39.4428 169.5 38.253 166.06 38.253C159.74 38.253 155.26 41.8584 155.26 46.3651C155.26 50.2589 158.18 52.6024 161.3 53.7201L165.1 55.1622C167.66 56.1357 169.3 56.6405 169.3 58.1908C169.3 59.6329 168.06 60.5343 165.42 60.5343C163.06 60.5343 160.3 59.4166 158.18 57.7942L154.14 62.2288C157.22 64.7886 161.38 66.0865 165.26 66.0865Z" fill="#ECEFFF"/>
<path d="M186.389 65.5818H193.549V44.0937H201.629V38.7578H178.349V44.0937H186.389V65.5818Z" fill="#ECEFFF"/>
<path d="M210.979 54.4412L211.619 52.1698C212.379 49.5018 213.179 46.3651 213.899 43.5529H214.059C214.859 46.293 215.619 49.5018 216.419 52.1698L217.059 54.4412H210.979ZM220.139 65.5818H227.659L218.419 38.7578H209.859L200.619 65.5818H207.899L209.619 59.4166H218.419L220.139 65.5818Z" fill="#ECEFFF"/>
<path d="M243.717 66.0865C247.877 66.0865 251.557 64.6083 253.637 62.8056V50.2589H242.557V55.5228H247.277V59.8492C246.637 60.2819 245.517 60.5343 244.437 60.5343C238.917 60.5343 236.277 57.4336 236.277 52.0977C236.277 46.8699 239.437 43.7693 243.837 43.7693C246.317 43.7693 247.877 44.6706 249.317 45.8604L253.117 41.7502C251.077 39.9115 247.957 38.253 243.597 38.253C235.637 38.253 228.957 43.3727 228.957 52.314C228.957 61.3996 235.437 66.0865 243.717 66.0865Z" fill="#ECEFFF"/>
<path d="M259.653 65.5818H278.973V60.1737H266.813V54.4772H276.773V49.0692H266.813V44.0937H278.533V38.7578H259.653V65.5818Z" fill="#ECEFFF"/>
<path d="M337.068 19.4186C336.428 18.8417 334.124 16.9958 332.588 15.8709C334.028 13.9961 335.244 11.9194 336.14 9.75616L333.548 8.22748L332.748 8.3717H332.044V3.09342H327.436V8.3717H323.116V12.1501H330.252C328.268 15.2075 325.164 17.9187 321.868 19.4474C322.54 20.255 323.628 22.3606 324.012 23.4854C325.164 22.8509 326.316 22.0721 327.436 21.178V30.4943H332.044V20.255C332.876 21.178 333.676 22.101 334.252 22.822L337.068 19.4186ZM346.572 25.5333V15.7555H352.268V11.7175H346.572V3.38185H341.772V11.7175H336.108V15.7555H341.772V25.5333H334.764V29.6578H353.068V25.5333H346.572Z" fill="#ECEFFF"/>
<path d="M364.716 11.631C366.7 10.16 368.396 8.60244 369.612 7.13144C370.828 8.63128 372.652 10.1888 374.732 11.631H364.716ZM362.188 15.4671H377.036V13.1019C378.732 14.1115 380.492 15.0344 382.188 15.7267C383.02 14.4576 384.044 12.9577 385.196 11.8905C380.108 10.3907 375.308 7.36219 371.884 3.12227H366.956C364.652 6.38153 359.66 10.4484 354.188 12.5251C355.148 13.4192 356.396 15.0344 356.94 16.0439C358.764 15.294 360.556 14.3422 362.188 13.3327V15.4671ZM375.212 21.0915L371.82 22.6778C372.652 23.3989 373.516 24.2065 374.348 25.043C371.724 25.1295 369.068 25.216 366.54 25.3025C367.34 23.9758 368.172 22.5048 368.972 21.0915H375.212ZM383.02 21.0915V17.1977H356.364V21.0915H363.244C362.732 22.5336 362.06 24.0911 361.356 25.4468C359.564 25.5044 357.932 25.5621 356.46 25.591L357.068 29.6867C362.54 29.4559 370.284 29.1387 377.644 28.7637C378.092 29.3694 378.508 29.9463 378.796 30.4654L383.148 28.1003C381.74 26.0236 379.052 23.2547 376.396 21.0915H383.02Z" fill="#ECEFFF"/>
<path d="M399.788 7.21797L399.82 11.6598C404.044 11.9771 409.58 11.9482 413.74 11.6598V7.18913C410.188 7.53525 403.916 7.67946 399.788 7.21797ZM398.668 19.3897C398.316 20.7742 398.092 22.0144 398.092 23.3124C398.092 26.3409 400.844 28.2157 406.38 28.2157C410.124 28.2157 412.652 28.0138 414.732 27.6677L414.636 22.9951C411.756 23.5143 409.484 23.745 406.636 23.745C404.044 23.745 402.732 23.2835 402.732 22.0144C402.732 21.2645 402.828 20.63 403.052 19.7358L398.668 19.3897ZM390.22 5.08359C390.188 6.15078 389.964 7.44872 389.836 8.31401C389.516 10.4195 388.588 15.1786 388.588 19.5628C388.588 23.4278 389.228 27.0331 389.868 28.9656L394.284 28.706C394.252 28.2445 394.252 27.7254 394.252 27.4081C394.252 27.1485 394.348 26.4563 394.444 26.0525C394.796 24.4373 395.788 21.2934 396.748 18.6975L394.412 17.0534C393.996 17.861 393.612 18.4379 393.196 19.2455C393.164 19.1301 393.164 18.6687 393.164 18.5821C393.164 15.9286 394.316 9.87153 394.668 8.40054C394.796 7.88136 395.276 6.12194 395.564 5.48739L390.22 5.08359Z" fill="#ECEFFF"/>
<path d="M437.26 21.6683C436.268 22.5048 435.084 23.197 433.74 23.8027C432.428 23.197 431.308 22.5048 430.38 21.6683H437.26ZM435.436 9.1793V13.6211C435.436 13.9096 435.34 13.9672 434.988 13.9672C434.636 13.9672 433.484 13.9672 432.62 13.9384C433.1 14.8325 433.58 16.0728 433.804 17.1111L430.892 16.592C433.004 14.2557 433.356 11.4867 433.388 9.1793H435.436ZM441.228 18.2648L440.46 18.4091H433.164C433.42 18.1206 433.644 17.8322 433.9 17.5438V17.6015C435.724 17.6015 437.196 17.5726 438.412 16.9958C439.692 16.4189 439.948 15.4382 439.948 13.7365V9.1793H447.98V5.34318H435.98V3.06458H431.18V5.34318H419.308V9.1793H429.068C429.036 11.3137 428.428 13.9096 424.876 15.8132C425.708 16.3324 426.924 17.2842 427.756 18.0918C425.868 19.7358 423.116 21.2068 419.212 22.274C420.172 22.9086 421.516 24.4084 422.092 25.3891C423.788 24.7834 425.292 24.1488 426.636 23.4566C427.308 24.1488 428.044 24.8122 428.844 25.3891C425.676 26.1102 422.06 26.5428 418.156 26.7447C418.956 27.6388 419.98 29.4848 420.332 30.5231C425.068 30.0905 429.58 29.3117 433.452 27.9561C436.908 29.3406 441.132 30.0905 446.38 30.4078C446.956 29.254 448.14 27.4369 449.1 26.4563C445.164 26.3409 441.74 26.0236 438.828 25.4179C441.068 24.0046 442.924 22.2452 444.268 20.0531L441.228 18.2648ZM422.988 9.84269C422.22 11.5156 420.524 13.4769 418.604 14.6018C419.5 15.1498 420.972 16.2458 421.804 16.9958C423.98 15.5824 425.996 13.2173 427.308 10.881L422.988 9.84269ZM440.428 11.6021C442.092 13.3039 444.108 15.6401 444.908 17.1688L448.78 15.0921C447.82 13.5346 445.708 11.3425 444.012 9.75616L440.428 11.6021Z" fill="#ECEFFF"/>
<path d="M459.052 18.4091V16.9092H463.052V18.4091H459.052ZM472.044 16.9092V18.4091H467.916V16.9092H472.044ZM461.836 8.48707H469.1V9.61194H461.836V8.48707ZM480.332 22.7932H467.916V21.5818H477.068V13.7077H467.916V12.6405H473.932V8.48707H479.788V4.96822H473.932V3.03574H469.1V4.96822H461.836V3.03574H457.26V4.96822H451.404V8.48707H457.26V12.6405H463.052V13.7077H454.348V21.5818H463.052V22.7932H450.924V26.5716H463.052V30.4654H467.916V26.5716H480.332V22.7932Z" fill="#ECEFFF"/>
<path d="M502.06 23.4278C502.028 22.1587 501.964 20.2262 501.932 18.6687C503.596 18.0053 505.132 17.4572 506.348 17.0534C507.564 16.6208 509.548 15.9574 510.668 15.669L508.78 11.6886C507.436 12.2655 506.124 12.8135 504.748 13.3615C503.628 13.823 502.604 14.198 501.324 14.746C500.492 13.4192 498.956 12.727 497.1 12.727C496.204 12.727 494.604 12.8424 493.964 13.0154C494.38 12.4386 494.796 11.7463 495.18 10.9964C498.572 10.881 502.444 10.6214 505.42 10.2753L505.452 6.26616C502.796 6.6988 499.756 6.92954 496.908 7.07376C497.26 6.00657 497.484 5.11243 497.612 4.47789L492.556 4.10293C492.524 4.824 492.364 5.92004 492.012 7.21797H490.764C489.068 7.21797 486.636 7.1026 485.068 6.87186V10.881C486.732 11.0253 489.036 11.0829 490.348 11.0829C488.812 13.7077 486.572 16.0439 483.564 18.4379L487.66 21.2068C488.748 19.9089 489.644 18.8706 490.604 17.9764C491.692 17.0246 493.644 16.0728 495.276 16.0728C495.884 16.0728 496.524 16.217 497.004 16.6496C493.484 18.3225 489.708 20.7165 489.708 24.4373C489.708 28.2445 493.452 29.4559 498.668 29.4559C501.804 29.4559 505.868 29.1964 507.82 28.9656L507.98 24.4949C505.196 25.043 501.58 25.3891 498.764 25.3891C495.788 25.3891 494.796 24.8987 494.796 23.6873C494.796 22.5336 495.66 21.6106 497.644 20.5723C497.612 21.6395 497.548 22.7067 497.484 23.4278H502.06Z" fill="#ECEFFF"/>
<path d="M534.028 15.8997C535.948 17.6303 537.164 19.332 537.164 21.2645C537.164 23.2835 535.084 25.0718 530.892 25.0718C528.044 25.0718 526.54 24.0335 526.54 21.8991C526.54 21.4953 526.572 20.9184 526.636 20.255C527.052 20.255 527.5 20.255 527.948 20.255C529.836 20.255 531.628 20.1396 533.196 19.9954L533.324 15.8997C531.34 16.1016 528.908 16.2458 527.116 16.2458H527.084C527.212 15.2075 527.372 14.1115 527.532 13.0731C530.06 13.0731 531.66 12.9577 533.42 12.7847L533.58 8.68897C532.268 8.89087 530.316 9.03509 528.14 9.06393C528.268 8.28517 528.364 7.67946 528.428 7.3045C528.588 6.4969 528.748 5.66045 529.068 4.44904L523.692 4.18946C523.788 5.25665 523.692 6.17963 523.628 7.01607C523.596 7.56409 523.532 8.19864 523.436 8.91971C521.164 8.74665 518.892 8.40054 517.132 7.85252L516.908 11.8329C518.7 12.2655 520.78 12.6405 522.924 12.8424L522.476 16.0439C520.492 15.8709 518.508 15.5248 516.492 14.9191L516.236 19.1013C517.804 19.4763 519.756 19.7935 521.964 19.9954C521.836 21.0915 521.772 22.0144 521.772 22.649C521.772 27.4946 525.324 29.5713 530.732 29.5713C538.028 29.5713 542.38 26.1967 542.38 21.8414C542.38 19.4186 541.452 17.3996 539.404 14.8614L534.028 15.8997Z" fill="#ECEFFF"/>
<path d="M562.54 17.2553C564.556 17.0246 566.508 16.9381 568.812 16.9381C570.764 16.9381 572.748 17.14 574.316 17.313L574.412 13.1596C572.492 12.9866 570.572 12.9 568.812 12.9C566.732 12.9 564.364 13.0443 562.54 13.2173V17.2553ZM565.292 7.16029C563.692 7.5064 562.06 7.79483 560.428 8.02558L560.556 7.53525C560.716 6.87186 561.036 5.48739 561.292 4.59326L555.436 4.18946C555.532 4.91053 555.5 6.17963 555.34 7.39103C555.308 7.73715 555.244 8.11211 555.148 8.54475C554.316 8.5736 553.452 8.60244 552.62 8.60244C551.244 8.60244 550.252 8.54475 548.524 8.3717L548.652 12.6693C549.74 12.727 550.956 12.7847 552.588 12.7847C553.1 12.7847 553.644 12.7847 554.188 12.7558C554.028 13.4192 553.804 14.1115 553.612 14.7748C552.428 18.7552 549.932 24.8411 548.044 27.6677L553.388 29.2829C555.18 25.764 557.292 19.9666 558.444 15.9863C558.764 14.8614 559.084 13.5923 559.404 12.3809C561.452 12.179 563.5 11.8617 565.292 11.4867V7.16029ZM560.428 20.1396C560.172 21.2068 559.852 22.7644 559.852 24.2065C559.852 27.1197 562.636 28.9368 568.172 28.9368C570.828 28.9368 572.972 28.7349 574.796 28.533L574.988 24.12C572.556 24.4949 570.348 24.7257 568.204 24.7257C565.42 24.7257 564.588 23.9758 564.588 22.7932C564.588 22.2163 564.78 21.2645 565.004 20.5146L560.428 20.1396Z" fill="#ECEFFF"/>
<path d="M587.084 8.40054C589.58 8.9774 596.748 10.333 600.076 10.7368L601.228 6.46806C598.444 6.17963 591.468 5.14128 588.3 4.24714L587.084 8.40054ZM589.004 10.2753L583.852 9.64079C583.628 13.5058 582.892 18.8706 582.284 21.7837L586.668 22.7644C586.988 22.1298 587.34 21.6683 587.98 20.9761C589.836 18.9571 592.94 17.861 596.172 17.861C598.7 17.861 600.428 19.0725 600.428 20.6877C600.428 24.1777 595.308 25.9948 586.06 24.7545L587.564 29.2829C601.516 30.3789 605.836 26.0813 605.836 20.7742C605.836 17.2842 602.604 13.9384 596.652 13.9384C593.612 13.9384 590.636 14.6595 587.884 16.2458C588.044 14.7172 588.588 11.6886 589.004 10.2753Z" fill="#ECEFFF"/>
<path d="M622.267 18.2937C622.267 16.9958 623.323 16.4477 624.283 16.4477C624.987 16.4477 625.627 16.7073 626.011 17.1977C626.363 19.3897 625.307 20.0531 624.283 20.0531C623.291 20.0531 622.267 19.332 622.267 18.2937ZM638.875 7.44872C637.211 7.41987 632.955 7.47756 630.011 7.47756V7.16029C630.043 6.64111 630.171 4.88169 630.267 4.33367H624.731C624.859 4.88169 624.987 6.0931 625.083 7.18913L625.115 7.5064C621.019 7.56409 615.419 7.67946 611.739 7.65062L611.867 11.804C615.739 11.631 620.411 11.4579 625.179 11.4002L625.211 12.8424C624.955 12.8135 624.699 12.8135 624.411 12.8135C620.731 12.8135 617.659 14.9191 617.659 18.3802C617.659 22.0721 620.955 23.8604 623.291 23.8604C623.483 23.8604 623.675 23.8604 623.867 23.8316C622.011 25.1583 619.355 25.8506 616.603 26.3409L620.667 30.0328C628.603 28.1003 631.227 23.1393 631.227 19.4763C631.227 17.9187 630.811 16.5054 629.979 15.3517C629.979 14.1691 629.979 12.727 629.947 11.3714C633.947 11.4002 636.923 11.4579 638.811 11.5444L638.875 7.44872Z" fill="#ECEFFF"/>
<path d="M652.251 17.4861C656.475 16.5343 661.403 15.1498 664.475 14.1115C665.595 13.7365 667.195 13.1308 668.603 12.6116L666.555 8.19864C665.083 8.9774 663.931 9.46773 662.683 9.90037C660.091 10.8522 655.995 12.0636 652.251 12.9289V8.08326C652.251 7.24682 652.347 5.68929 652.507 4.70863H646.811C646.971 5.68929 647.067 7.44872 647.067 8.08326V23.6873C647.067 26.2832 648.827 27.8407 651.771 28.3311C653.179 28.533 655.131 28.6772 657.307 28.6772C660.859 28.6772 665.723 28.5041 668.891 28.1003V22.9951C666.267 23.6297 660.955 24.0335 657.627 24.0335C656.283 24.0335 655.163 24.0046 654.235 23.8892C652.859 23.6585 652.251 23.3701 652.251 22.2452V17.4861Z" fill="#ECEFFF"/>
<path d="M701.147 16.6785C698.459 15.4959 692.251 13.4481 687.931 12.3232V8.3717C687.931 6.98723 688.123 5.71814 688.251 4.6221H682.203C682.459 5.71814 682.587 7.21797 682.587 8.3717V24.8411C682.587 26.0236 682.427 27.9561 682.203 29.1964H688.283C688.123 27.8984 687.931 25.6198 687.931 24.8411V17.4284C691.323 18.5244 695.707 20.0531 698.939 21.553L701.147 16.6785Z" fill="#ECEFFF"/>
<path d="M728.571 7.13144C727.643 7.82368 726.619 8.3717 725.275 9.06393C723.899 9.785 721.499 10.9099 719.163 12.1213C717.915 9.9869 716.507 7.39103 715.355 4.50673L710.523 6.26616C711.931 9.26583 713.403 12.179 714.875 14.6306C711.963 16.6208 709.723 18.9571 709.723 22.2163C709.723 27.4946 714.747 29.081 721.275 29.081C725.499 29.081 728.667 28.7925 731.547 28.3599L731.611 23.3701C728.603 23.9758 724.283 24.4661 721.147 24.4661C717.083 24.4661 715.067 23.572 715.067 21.6972C715.067 19.8224 716.827 18.2937 719.291 16.8515C722.075 15.2363 725.787 13.7077 727.675 12.8712C728.955 12.2943 730.107 11.7463 731.227 11.1406L728.571 7.13144Z" fill="#ECEFFF"/>
<path d="M334.796 37.1426C332.46 40.6903 327.372 45.1898 321.804 47.6415C322.828 48.5068 324.172 50.0643 324.78 51.0449C329.996 48.4491 334.764 44.6995 337.42 41.296C340.076 44.6706 345.324 48.651 350.284 51.0738C351.18 49.7758 352.236 48.3914 353.42 47.2953C348.204 45.4494 343.18 41.7863 339.66 37.1426H334.796ZM340.236 55.1983H348.428V51.4776H340.236V45.6224H335.276V60.1882H331.628V50.4681H327.052V60.1882H323.884V63.9666H351.276V60.1882H340.236V55.1983Z" fill="#ECEFFF"/>
<path d="M373.036 45.1898C372.812 45.8244 372.524 46.4877 372.236 47.0646H366.796L367.18 47.0069C367.02 46.5166 366.7 45.8244 366.348 45.1898H373.036ZM384.076 58.2845V54.8811H371.852V54.0735H381.26V51.1026H371.852V50.295H382.7V47.0646H376.94C377.324 46.4877 377.74 45.8532 378.188 45.1898H383.98V41.7863H380.3C381.004 40.8634 381.804 39.7096 382.636 38.4694L377.74 37.4599C377.356 38.7001 376.62 40.373 375.948 41.5267L376.908 41.7863H374.796V37.2868H370.412V41.7863H368.876V37.2868H364.556V41.7863H362.252L363.692 41.3248C363.276 40.2288 362.284 38.5559 361.42 37.3445L357.42 38.5559C358.028 39.5366 358.7 40.7768 359.148 41.7863H355.308V45.1898H361.452C361.708 45.7378 362.028 46.4589 362.22 47.0646H356.62V50.295H367.244V51.1026H358.188V54.0735H367.244V54.8811H355.244V58.2845H363.436C360.844 59.4959 357.484 60.4478 354.188 60.9669C355.18 61.8322 356.524 63.4474 357.164 64.4569C360.78 63.6205 364.364 62.1495 367.244 60.2747V64.7165H371.852V60.1305C374.636 62.1495 378.092 63.6493 381.868 64.4569C382.572 63.3032 383.948 61.5438 385.004 60.6497C381.644 60.217 378.412 59.4094 375.884 58.2845H384.076Z" fill="#ECEFFF"/>
<path d="M406.06 57.6788C406.028 56.4097 405.964 54.4773 405.932 52.9197C407.596 52.2563 409.132 51.7083 410.348 51.3045C411.564 50.8719 413.548 50.2085 414.668 49.9201L412.78 45.9397C411.436 46.5166 410.124 47.0646 408.748 47.6126C407.628 48.0741 406.604 48.4491 405.324 48.9971C404.492 47.6703 402.956 46.9781 401.1 46.9781C400.204 46.9781 398.604 47.0934 397.964 47.2665C398.38 46.6896 398.796 45.9974 399.18 45.2475C402.572 45.1321 406.444 44.8725 409.42 44.5264L409.452 40.5172C406.796 40.9499 403.756 41.1806 400.908 41.3248C401.26 40.2576 401.484 39.3635 401.612 38.729L396.556 38.354C396.524 39.0751 396.364 40.1711 396.012 41.4691H394.764C393.068 41.4691 390.636 41.3537 389.068 41.1229V45.1321C390.732 45.2763 393.036 45.334 394.348 45.334C392.812 47.9587 390.572 50.295 387.564 52.689L391.66 55.4579C392.748 54.16 393.644 53.1216 394.604 52.2275C395.692 51.2757 397.644 50.3239 399.276 50.3239C399.884 50.3239 400.524 50.4681 401.004 50.9007C397.484 52.5736 393.708 54.9676 393.708 58.6883C393.708 62.4956 397.452 63.707 402.668 63.707C405.804 63.707 409.868 63.4474 411.82 63.2167L411.98 58.746C409.196 59.294 405.58 59.6402 402.764 59.6402C399.788 59.6402 398.796 59.1498 398.796 57.9384C398.796 56.7847 399.66 55.8617 401.644 54.8234C401.612 55.8906 401.548 56.9578 401.484 57.6788H406.06Z" fill="#ECEFFF"/>
<path d="M429.324 46.4301C429.1 55.3137 428.876 58.6883 428.268 59.4383C427.948 59.8709 427.66 60.0151 427.18 60.0151C426.604 60.0151 425.644 59.9863 424.524 59.8997C426.156 56.179 426.732 51.6506 426.956 46.4301H429.324ZM427.052 42.3343C427.084 40.8634 427.084 39.3347 427.084 37.7483H422.508V42.3343H419.116V46.4301H422.444C422.252 52.9197 421.452 57.9673 418.06 61.5726C419.212 62.236 420.748 63.6782 421.452 64.7165C422.732 63.3321 423.724 61.7745 424.492 60.044C425.196 61.2265 425.676 62.9571 425.74 64.1108C427.244 64.1397 428.652 64.1397 429.644 63.9089C430.764 63.6782 431.5 63.3032 432.332 62.2072C433.356 60.8227 433.58 56.2367 433.868 44.1803C433.9 43.6611 433.9 42.3343 433.9 42.3343H427.052ZM439.692 58.0538V44.4976H442.636V58.0538H439.692ZM435.244 40.4595V64.0531H439.692V62.0918H442.636V63.8224H447.308V40.4595H435.244Z" fill="#ECEFFF"/>
<path d="M474.54 47.2665V49.1125H471.948V47.2665H474.54ZM465.004 47.2665H467.436V49.1125H465.004V47.2665ZM467.436 44.1226H460.748V52.2275H465.388C463.788 53.8427 461.324 55.2849 458.86 56.1213C459.82 56.8712 461.164 58.3422 461.804 59.294C463.884 58.3422 465.836 56.9001 467.436 55.1983V59.5536H471.948V55.4291C473.612 56.9578 475.564 58.3422 477.452 59.2364C478.156 58.2268 479.564 56.727 480.588 55.9483C478.092 55.1118 475.372 53.7273 473.484 52.2275H479.052V44.1226H471.948V42.9977H479.948V39.5366H471.948V37.3445H467.436V39.5366H459.916V42.9977H467.436V44.1226ZM459.468 42.2767C458.38 40.9499 456.044 39.1616 454.22 37.9791L450.764 40.4884C452.588 41.7863 454.828 43.7188 455.756 45.0456L459.468 42.2767ZM458.732 48.4779H450.892V52.3429H454.188V57.7077C452.844 58.573 451.372 59.3806 450.06 60.044L452.3 64.4281C454.028 63.1878 455.372 62.1495 456.684 61.1112C458.796 63.3321 461.324 64.0531 465.132 64.1974C469.132 64.3704 475.5 64.3127 479.564 64.1108C479.788 62.8706 480.524 60.8516 481.036 59.8421C476.428 60.217 469.132 60.3035 465.228 60.1593C462.092 60.044 459.916 59.3229 458.732 57.5346V48.4779Z" fill="#ECEFFF"/>
<path d="M494.892 52.5448C494.892 51.2468 495.948 50.6988 496.908 50.6988C497.612 50.6988 498.252 50.9584 498.636 51.4487C498.988 53.6408 497.932 54.3042 496.908 54.3042C495.916 54.3042 494.892 53.5831 494.892 52.5448ZM511.5 41.6998C509.836 41.671 505.58 41.7286 502.636 41.7286V41.4114C502.668 40.8922 502.796 39.1328 502.892 38.5848H497.356C497.484 39.1328 497.612 40.3442 497.708 41.4402L497.74 41.7575C493.644 41.8152 488.044 41.9305 484.364 41.9017L484.492 46.0551C488.364 45.882 493.036 45.709 497.804 45.6513L497.836 47.0934C497.58 47.0646 497.324 47.0646 497.036 47.0646C493.356 47.0646 490.284 49.1701 490.284 52.6313C490.284 56.3232 493.58 58.1115 495.916 58.1115C496.108 58.1115 496.3 58.1115 496.492 58.0826C494.636 59.4094 491.98 60.1016 489.228 60.592L493.292 64.2839C501.228 62.3514 503.852 57.3904 503.852 53.7273C503.852 52.1698 503.436 50.7565 502.604 49.6028C502.604 48.4202 502.604 46.9781 502.572 45.6224C506.572 45.6513 509.548 45.709 511.436 45.7955L511.5 41.6998Z" fill="#ECEFFF"/>
<path d="M529.164 59.7844C527.564 59.7844 526.508 59.1498 526.508 58.2557C526.508 57.6788 527.116 57.1308 528.14 57.1308C529.484 57.1308 530.444 58.1403 530.604 59.7267C530.156 59.7555 529.676 59.7844 529.164 59.7844ZM536.364 39.277C535.948 39.3924 535.052 39.5077 533.548 39.6231C531.66 39.7673 525.324 39.8538 523.628 39.8538C522.572 39.8538 521.388 39.7962 520.396 39.6808L520.556 44.1515C521.324 44.0361 522.444 43.9496 523.404 43.8919C525.1 43.7765 528.364 43.6611 529.964 43.6323C528.428 44.8725 525.484 46.9204 523.724 48.2472C521.836 49.6316 518.156 52.4582 516.108 53.9004L519.596 57.1597C522.636 53.8139 525.964 51.3045 530.604 51.3045C534.092 51.3045 536.876 52.8332 536.876 55.2849C536.876 56.6693 536.268 57.7942 535.02 58.573C534.476 55.8617 531.98 53.8427 528.108 53.8427C524.524 53.8427 521.964 56.179 521.964 58.6883C521.964 61.8322 525.676 63.707 530.156 63.707C538.348 63.707 541.932 59.8132 541.932 55.3425C541.932 51.0449 537.644 47.901 532.204 47.901C531.436 47.901 530.828 47.9299 529.996 48.0741C531.724 46.8627 534.508 44.8148 536.3 43.7188C537.1 43.2285 537.9 42.7958 538.732 42.3343L536.364 39.277Z" fill="#ECEFFF"/>
<path d="M808.86 29.6497H830.365V32.9441H808.86V29.6497ZM852.89 44.2064H827.39V40.6056H843.03V21.9883H797.045V40.6056H814.555V44.2064H788.545V69.4891H801.125V54.0897H814.555V72.8602H827.39V54.0897H840.14V59.6059C840.14 60.4487 839.715 60.6785 838.44 60.6785C837.335 60.6785 832.745 60.6785 829.685 60.5253C831.3 63.2834 833 67.5738 833.595 70.6384C839.375 70.6384 844.135 70.5617 847.96 69.0295C851.785 67.4206 852.89 64.6624 852.89 59.8357V44.2064ZM846.09 9.80663C847.96 8.19773 850 6.20576 852.21 4.06056L838.78 0.612916C837.505 2.98796 835.21 6.20576 833.255 8.50418L837.505 9.80663H826.03V0H813.195V9.80663H802.23L806.395 8.19773C805.375 5.8993 803.08 2.6815 800.785 0.383076L789.48 4.36702C790.84 5.97591 792.2 7.96789 793.22 9.80663H782.85V29.4965H794.665V19.3068H845.24V29.4965H857.565V9.80663H846.09Z" fill="#ECEFFF"/>
<path d="M900.32 11.1091L900.405 22.9077C911.625 23.7504 926.33 23.6738 937.38 22.9077V11.0325C927.945 11.9518 911.285 12.3349 900.32 11.1091ZM897.345 43.4403C896.41 47.1178 895.815 50.4122 895.815 53.8598C895.815 61.9043 903.125 66.8842 917.83 66.8842C927.775 66.8842 934.49 66.348 940.015 65.4286L939.76 53.0171C932.11 54.3961 926.075 55.009 918.51 55.009C911.625 55.009 908.14 53.7832 908.14 50.4122C908.14 48.4202 908.395 46.7347 908.99 44.3597L897.345 43.4403ZM874.905 5.43962C874.82 8.27434 874.225 11.722 873.885 14.0204C873.035 19.6133 870.57 32.2546 870.57 43.9C870.57 54.1663 872.27 63.7431 873.97 68.8762L885.7 68.1867C885.615 66.9609 885.615 65.5818 885.615 64.7391C885.615 64.0495 885.87 62.2108 886.125 61.1382C887.06 56.8478 889.695 48.4968 892.245 41.6015L886.04 37.2345C884.935 39.3797 883.915 40.912 882.81 43.0572C882.725 42.7508 882.725 41.5249 882.725 41.2951C882.725 34.2466 885.785 18.1576 886.72 14.2503C887.06 12.8712 888.335 8.19773 889.1 6.51222L874.905 5.43962Z" fill="#ECEFFF"/>
<path d="M987.53 15.8592C986.255 13.7906 984.895 11.722 983.62 9.88324L975.12 14.097H969.765V0.153231H958.46V14.097H950.13V24.2867H958.46V35.2426C954.975 36.3152 951.745 37.2345 949.025 37.9241L951.915 48.4968L958.46 46.275V61.4446C958.46 62.4406 958.12 62.6705 957.1 62.6705C956.08 62.7471 953.275 62.7471 950.555 62.5939C952 65.5818 953.36 70.1787 953.615 72.9368C959.225 72.9368 963.135 72.5537 966.025 70.7916C968.915 69.1061 969.765 66.2713 969.765 61.4446V42.4443C972.485 41.4483 975.205 40.4523 977.84 39.533L975.545 29.803L969.765 31.7183V24.2867H976.055V16.9318C978.69 21.2988 981.41 26.3553 982.77 29.803L987.53 27.1981V34.3998C987.53 35.3958 987.53 36.3918 987.53 37.3878L987.02 36.3918C981.495 39.7628 975.885 43.0572 972.145 44.9726L978.35 54.3195C980.73 52.5574 983.365 50.7186 985.915 48.8033C983.96 55.1623 979.88 60.6785 971.465 64.7391C974.1 66.4246 978.35 70.1787 980.22 72.5537C996.71 64.0495 998.835 49.8759 998.835 34.4764V1.0726H987.53V15.8592ZM1015.66 62.364C1014.22 62.364 1014.05 61.8277 1014.05 57.997V43.2871C1017.87 46.8879 1021.61 50.8719 1023.65 53.7066L1031.47 46.0452C1028.41 42.2145 1022.29 36.6982 1016.94 32.6377L1014.05 35.2426V27.1981L1019.57 29.9562C1022.55 25.8956 1026.03 19.5366 1029.69 13.8672L1018.72 8.81064C1017.7 12.3349 1015.92 16.5487 1014.05 20.3028V1.0726H1002.4V57.9204C1002.4 69.0295 1004.78 72.2472 1013.37 72.2472H1020C1027.22 72.2472 1030.11 67.9569 1031.22 57.2309C1027.99 56.6179 1023.57 54.7026 1020.93 52.9405C1020.68 60.2188 1020.34 62.364 1018.89 62.364H1015.66Z" fill="#ECEFFF"/>
<path d="M1115.11 13.9438C1113.92 10.3429 1110.52 4.97993 1107.55 0.919373L1098.2 5.20977C1101.09 9.42356 1104.06 15.1696 1105.17 18.7705L1115.11 13.9438ZM1064.03 12.718C1063.35 9.34694 1061.48 3.98394 1059.69 0L1049.58 2.1452C1051.19 6.35898 1052.81 11.8752 1053.32 15.2462L1064.03 12.718ZM1050.09 14.4035C1049.32 10.8792 1046.94 5.66946 1044.56 1.76213L1034.62 4.59686C1036.83 8.73403 1038.95 14.1736 1039.46 17.6213L1050.09 14.4035ZM1047.62 36.545H1052.98V39.4563H1047.62V36.545ZM1047.62 26.1255H1052.98V29.0368H1047.62V26.1255ZM1068.28 29.0368H1063.26V26.1255H1068.28V29.0368ZM1068.28 39.4563H1063.26V36.545H1068.28V39.4563ZM1080.94 60.6019V50.8719H1064.03V47.5008H1078.73V18.081H1073.97C1076.78 14.2503 1080.27 8.65741 1083.41 3.2178L1070.66 0.306458C1069.21 5.20977 1066.33 11.6454 1063.69 16.0124L1071 18.081H1037.68V47.5008H1052.21V50.8719H1034.62V60.6019H1052.21V72.7835H1064.03V60.6019H1080.94ZM1105 29.803C1103.55 33.6337 1101.77 37.4644 1099.56 41.0652C1099.13 37.8474 1098.71 34.3232 1098.37 30.5691L1105 29.803ZM1105.08 29.803L1115.88 28.5771L1114.6 18.3108L1097.6 20.1495C1097.26 13.9438 1097.01 7.27836 1097.01 0.383076H1085.36C1085.53 7.89127 1085.79 14.8632 1086.21 21.3754L1079.5 22.0649L1080.86 32.4844L1086.98 31.7949C1087.74 40.0693 1088.76 47.1944 1090.29 53.0937C1085.11 58.3035 1078.9 62.5939 1072.02 65.352C1075.16 67.2673 1078.82 70.5617 1080.94 73.09C1085.7 70.715 1090.12 67.6504 1094.2 63.9729C1097.01 69.3359 1100.75 72.2473 1105.6 72.4005C1109.25 72.5537 1114.18 69.7956 1116.64 56.3115C1114.77 55.3155 1109.84 52.1743 1107.89 49.7993C1107.55 56.005 1106.87 59.1462 1105.68 59.1462C1104.66 59.0696 1103.64 57.5373 1102.62 54.9324C1107.63 48.7267 1111.63 41.6782 1114.26 34.4764L1105.08 29.803Z" fill="#ECEFFF"/>
<path d="M1134.32 4.2904C1135.17 7.73804 1135.6 11.8752 1135.6 15.9358C1135.6 21.6818 1134.83 41.9846 1134.83 51.5614C1134.83 64.8157 1144.02 70.7916 1158.72 70.7916C1178.36 70.7916 1190.85 60.372 1196.12 53.0937L1186.85 42.8274C1180.73 51.3316 1171.89 58.2268 1158.8 58.2268C1153.11 58.2268 1148.43 55.9284 1148.43 48.6501C1148.43 40.2991 1149.03 23.9037 1149.45 15.9358C1149.62 12.6414 1150.13 8.0445 1150.73 4.44363L1134.32 4.2904Z" fill="#ECEFFF"/>
<path d="M1234.37 62.9003C1230.63 58.6099 1222.13 50.7186 1216.18 46.275L1205.38 54.626C1211.25 59.2994 1218.39 65.8883 1223.4 71.4045L1234.37 62.9003Z" fill="#ECEFFF"/>
<path d="M1339.85 49.4928C1337.22 51.7146 1334.07 53.5534 1330.5 55.1623C1327.02 53.5534 1324.04 51.7146 1321.58 49.4928H1339.85ZM1335.01 16.3188V28.1174C1335.01 28.8836 1334.75 29.0368 1333.82 29.0368C1332.88 29.0368 1329.82 29.0368 1327.53 28.9602C1328.8 31.3352 1330.08 34.6296 1330.67 37.3878L1322.94 36.0087C1328.55 29.8029 1329.48 22.448 1329.57 16.3188H1335.01ZM1350.39 40.4523L1348.35 40.8354H1328.97C1329.65 40.0693 1330.25 39.3031 1330.93 38.537V38.6902C1335.77 38.6902 1339.68 38.6136 1342.91 37.0813C1346.31 35.549 1346.99 32.9441 1346.99 28.4239V16.3188H1368.33V6.12914H1336.45V0.0766186H1323.7V6.12914H1292.17V16.3188H1318.09C1318.01 21.9883 1316.39 28.8836 1306.96 33.9401C1309.17 35.3192 1312.4 37.8474 1314.61 39.9926C1309.59 44.3597 1302.29 48.267 1291.92 51.1017C1294.47 52.7872 1298.03 56.7712 1299.56 59.376C1304.07 57.7671 1308.06 56.0816 1311.63 54.2429C1313.42 56.0816 1315.37 57.8438 1317.5 59.376C1309.08 61.2914 1299.48 62.4406 1289.11 62.9769C1291.23 65.352 1293.95 70.2553 1294.89 73.0134C1307.47 71.8642 1319.45 69.7956 1329.74 66.1947C1338.92 69.8722 1350.14 71.8642 1364.08 72.7069C1365.61 69.6424 1368.75 64.8157 1371.3 62.2108C1360.85 61.9043 1351.75 61.0616 1344.02 59.4527C1349.97 55.6986 1354.9 51.0251 1358.47 45.2024L1350.39 40.4523ZM1301.94 18.081C1299.9 22.5246 1295.4 27.7344 1290.3 30.7223C1292.68 32.178 1296.59 35.0893 1298.8 37.0813C1304.58 33.3272 1309.93 27.0448 1313.42 20.8391L1301.94 18.081ZM1348.27 22.7544C1352.69 27.2747 1358.04 33.4804 1360.17 37.541L1370.45 32.0248C1367.9 27.8876 1362.29 22.0649 1357.79 17.8511L1348.27 22.7544Z" fill="#ECEFFF"/>
<path d="M1395.36 0.995987C1390.34 12.2583 1381.67 23.444 1372.83 30.3392C1375.04 33.174 1378.61 39.4563 1379.89 42.2911C1382.18 40.3757 1384.48 38.1539 1386.77 35.7022V72.7069H1399.18V19.7665C1402.41 14.7866 1405.3 9.6534 1407.6 4.67347L1395.36 0.995987ZM1429.53 61.7511C1425.7 61.7511 1425.28 61.1382 1425.28 56.3881V38.6902C1434.88 34.7829 1445 29.9562 1453.67 24.823L1444.57 15.0164C1439.22 18.9237 1432.42 23.444 1425.28 27.1981V2.1452H1412.78V56.3115C1412.78 68.4931 1416.1 72.094 1427.83 72.094H1440.83C1451.54 72.094 1454.77 66.8843 1456.13 53.2469C1452.73 52.5574 1447.63 50.4888 1444.74 48.5734C1444.06 59.2228 1443.38 61.7511 1439.56 61.7511H1429.53Z" fill="#ECEFFF"/>
<path d="M1474.32 4.2904C1475.17 7.73804 1475.6 11.8752 1475.6 15.9358C1475.6 21.6818 1474.83 41.9846 1474.83 51.5614C1474.83 64.8157 1484.01 70.7916 1498.72 70.7916C1518.35 70.7916 1530.85 60.372 1536.12 53.0937L1526.85 42.8274C1520.73 51.3316 1511.89 58.2268 1498.8 58.2268C1493.11 58.2268 1488.43 55.9284 1488.43 48.6501C1488.43 40.2991 1489.03 23.9037 1489.45 15.9358C1489.62 12.6414 1490.13 8.0445 1490.73 4.44363L1474.32 4.2904Z" fill="#ECEFFF"/>
<path d="M1594.6 17.4681H1581V26.3553H1621.63V17.4681H1606.84V14.3269H1623.92V5.363H1606.84V0H1594.6V5.363H1577.94V14.3269H1594.6V17.4681ZM1561.36 32.6377C1562.38 31.4885 1563.4 30.2626 1564.42 29.0368C1565.02 30.1094 1565.53 31.182 1566.12 32.3312L1561.36 32.6377ZM1587.46 37.3111H1614.4V44.896H1625.11V28.807H1577.26V34.17C1575.9 31.1054 1574.2 27.8876 1572.5 25.0529L1565.61 27.6577C1569.44 22.9843 1573.26 18.0044 1576.58 13.4841L1566.63 9.42356C1564.76 12.9478 1562.3 17.0084 1559.66 20.9923C1559.15 20.3794 1558.64 19.7665 1558.05 19.1536C1561.02 14.8632 1564.51 8.88726 1567.65 3.44764L1557.03 0.153231C1555.75 3.98394 1553.71 8.73403 1551.59 12.8712L1550.06 11.5688L1544.11 19.1536C1547.34 22.2181 1551.08 26.2021 1553.37 29.6497C1552.35 30.8755 1551.42 32.1014 1550.48 33.2506L1544.11 33.557L1545.38 43.0572L1556.43 42.2145V47.271L1546.91 45.8153C1546.4 52.1743 1545.3 59.0696 1543.09 63.5132C1545.47 64.356 1549.89 66.1181 1551.93 67.3439C1553.97 62.9003 1555.58 56.2349 1556.43 49.5694V72.8602H1566.97V49.4162C1568.5 53.4001 1569.69 58.2268 1570.03 61.5213L1579.04 58.8397C1578.53 55.2389 1576.83 49.7227 1574.88 45.5089L1566.97 47.7307V41.4483L1569.61 41.2185C1570.03 42.7508 1570.46 44.1298 1570.63 45.3556L1577.26 42.6741V44.896H1587.12V46.8113C1587.12 52.2509 1585.08 59.9124 1571.65 65.5818C1574.37 67.4972 1578.11 70.715 1579.98 72.9368C1595.7 66.1947 1598.17 55.1623 1598.17 47.1178V40.1459H1587.46V37.3111ZM1614.23 62.7471C1613.38 62.7471 1613.3 62.4406 1613.3 60.0656V40.1459H1602.25V60.1422C1602.25 68.9528 1603.95 72.0174 1612.19 72.0174H1616.87C1623.33 72.0174 1626.05 68.7996 1626.98 57.0776C1624.01 56.3881 1619.33 54.7792 1617.21 53.0937C1617.04 61.5212 1616.7 62.7471 1615.68 62.7471H1614.23Z" fill="#ECEFFF"/>
<path d="M1637.78 4.2904C1637.69 6.51221 1637.61 9.34694 1637.18 11.6454C1636.08 17.7745 1634.63 29.4965 1634.63 41.9846C1634.63 51.3316 1637.78 62.2874 1639.73 66.8842L1651.12 65.8883C1651.04 64.6624 1650.95 63.2068 1650.95 62.364C1650.95 61.5979 1651.21 59.7591 1651.55 58.5333C1652.65 53.9364 1654.69 46.3516 1657.41 39.0733L1651.21 35.4724C1649.93 37.6942 1648.57 40.8354 1647.47 42.6741C1645.77 35.0127 1648.83 19.46 1650.53 12.4881C1650.95 10.8026 1651.97 7.73804 1652.82 5.59284L1637.78 4.2904ZM1705.69 17.3914C1702.46 17.8511 1698.3 18.2342 1693.71 18.5407C1693.71 14.7866 1693.71 11.3389 1693.79 9.80663C1693.88 8.12111 1693.96 6.12914 1694.3 4.21379H1679.6C1680.02 5.66946 1680.45 8.27434 1680.62 9.80663C1680.79 11.8752 1680.96 15.3995 1680.96 19.1536C1677.9 19.2302 1674.84 19.3068 1672.03 19.3068C1667.53 19.3068 1664.13 19.077 1659.71 18.5407V30.186C1664.21 30.3393 1668.89 30.5691 1672.37 30.5691C1675.18 30.5691 1678.15 30.5691 1681.13 30.4925V33.4038C1681.13 45.2024 1679.17 50.9485 1674.24 56.3881C1671.69 59.0696 1667.02 61.7511 1663.45 63.2068L1675.18 71.5577C1691.33 61.8277 1693.71 51.638 1693.71 33.4804V30.0328C1698.3 29.8029 1702.46 29.5731 1705.61 29.3433L1705.69 17.3914Z" fill="#ECEFFF"/>
<path d="M1753.97 59.7591C1749.72 59.7591 1746.92 58.0736 1746.92 55.6986C1746.92 54.1663 1748.53 52.7106 1751.25 52.7106C1754.82 52.7106 1757.37 55.3921 1757.8 59.6059C1756.61 59.6825 1755.33 59.7591 1753.97 59.7591ZM1773.1 5.28639C1771.99 5.59284 1769.61 5.8993 1765.62 6.20576C1760.6 6.58883 1743.77 6.81867 1739.27 6.81867C1736.46 6.81867 1733.32 6.66544 1730.68 6.35898L1731.11 18.2342C1733.15 17.9277 1736.12 17.6979 1738.67 17.5447C1743.18 17.2382 1751.85 16.9318 1756.1 16.8551C1752.02 20.1496 1744.2 25.5892 1739.52 29.1134C1734.51 32.7909 1724.73 40.2991 1719.29 44.1298L1728.56 52.7872C1736.63 43.9 1745.47 37.2345 1757.8 37.2345C1767.06 37.2345 1774.46 41.2951 1774.46 47.8073C1774.46 51.4848 1772.84 54.4727 1769.53 56.5413C1768.08 49.3396 1761.45 43.9766 1751.17 43.9766C1741.65 43.9766 1734.85 50.1823 1734.85 56.8478C1734.85 65.1987 1744.71 70.1787 1756.61 70.1787C1778.37 70.1787 1787.89 59.8357 1787.89 47.9605C1787.89 36.545 1776.5 28.194 1762.05 28.194C1760.01 28.194 1758.39 28.2707 1756.18 28.6537C1760.77 25.4359 1768.17 19.9963 1772.93 17.085C1775.05 15.7825 1777.18 14.6333 1779.39 13.4075L1773.1 5.28639Z" fill="#ECEFFF"/>
</svg>
