<svg width="2192" height="128" viewBox="0 0 2192 128" fill="none" xmlns="http://www.w3.org/2000/svg">
<path d="M72.7201 36.8076C73.9361 36.8076 75.2481 36.8716 76.4321 36.9356V31.9756C75.2481 32.1356 73.9041 32.2316 72.7201 32.2316H59.9201C58.8321 32.2316 57.2961 32.1356 56.2081 31.9756V36.9356C57.2641 36.8716 58.8001 36.8076 59.9201 36.8076H72.7201ZM55.7601 40.4556C54.7681 40.4556 53.5201 40.3596 52.5281 40.2316V45.2876C53.4241 45.2236 54.8321 45.1596 55.7601 45.1596H64.1121C63.9201 47.6556 63.3121 49.8636 62.0641 51.7196C60.7841 53.5116 58.5441 55.3356 56.4001 56.1356L60.9441 59.3996C63.8561 57.9276 66.3521 55.3356 67.4401 53.0636C68.5281 50.8876 69.3281 48.3596 69.5521 45.1596H76.7201C77.6801 45.1596 79.0241 45.1916 79.8881 45.2556V40.2316C78.9921 40.3916 77.3921 40.4556 76.7201 40.4556H55.7601Z" fill="#ECEFFF"/>
<path d="M107.344 34.7276C106.512 34.9836 105.232 35.1436 104.176 35.1436H99.0241C99.5041 34.3116 100.272 32.9996 101.008 31.9756L95.3441 30.1196C94.9921 31.3676 94.2241 33.0316 93.6481 33.9276C91.9521 36.6156 89.3601 40.4556 83.6961 43.9436L88.0481 47.1756C90.9921 45.1276 93.8401 42.3756 96.1121 39.5276H104.08C103.664 41.6076 101.872 45.2876 99.8561 47.5276C97.1361 50.5676 93.8081 53.2876 86.8961 55.3996L91.5041 59.4956C97.5201 57.0316 101.392 54.0876 104.496 50.2796C107.44 46.6636 109.168 42.4396 110.032 39.7836C110.352 38.8236 110.864 37.8636 111.28 37.1596L107.344 34.7276Z" fill="#ECEFFF"/>
<path d="M139.358 33.3516L133.278 31.7836C132.414 36.3916 130.366 42.0556 127.23 45.7676C124.382 49.1276 120.158 52.2636 115.038 54.0236L119.454 58.5676C124.606 56.5196 128.99 52.4236 131.646 49.1596C134.174 46.0556 136.35 41.1596 137.758 37.3516C138.174 36.1996 138.686 34.6636 139.358 33.3516Z" fill="#ECEFFF"/>
<path d="M167.39 38.8876V51.0796H153.054V38.8876H167.39ZM172.606 37.3516C172.606 36.2636 172.606 34.9516 172.67 33.8956C171.39 33.9276 170.174 33.9276 169.31 33.9276H151.454C150.526 33.9276 149.086 33.8956 147.774 33.8636C147.838 34.8556 147.838 36.3276 147.838 37.3516V52.9036C147.838 54.6636 147.742 57.7356 147.742 57.7356H153.086V56.0396H167.358L167.294 57.7356H172.67C172.67 57.7356 172.606 54.3436 172.606 52.9676V37.3516Z" fill="#ECEFFF"/>
<path d="M199.678 32.0396L196.478 33.3516C197.726 35.1116 198.238 36.1676 199.262 38.3756L202.558 36.9676C201.854 35.5276 200.638 33.4796 199.678 32.0396ZM204.222 30.4716L200.958 31.8156C202.206 33.5116 202.814 34.4396 203.934 36.6476L207.198 35.2076C206.43 33.8316 205.278 31.8476 204.222 30.4716ZM185.662 31.3356L182.846 35.6236C185.086 36.8716 188.35 38.9516 190.27 40.2316L193.15 35.9436C191.326 34.6956 187.902 32.5516 185.662 31.3356ZM179.102 53.9596L182.014 59.0796C184.766 58.6316 189.47 56.9676 192.734 55.1436C198.046 52.1036 202.622 48.1036 205.694 43.5916L202.718 38.2796C200.19 42.8876 195.582 47.3996 190.078 50.4396C186.462 52.3916 182.718 53.3516 179.102 53.9596ZM180.67 38.6956L177.854 42.9836C180.126 44.1996 183.358 46.3116 185.31 47.6556L188.158 43.3036C186.366 42.0556 182.974 39.9116 180.67 38.6956Z" fill="#ECEFFF"/>
<path d="M210.846 47.7516C212.158 47.6556 214.558 47.5596 216.382 47.5596H233.374C234.686 47.5596 236.478 47.7196 237.31 47.7516V41.6396C236.382 41.7036 234.814 41.8636 233.374 41.8636H216.382C214.814 41.8636 212.126 41.7356 210.846 41.6396V47.7516Z" fill="#ECEFFF"/>
<path d="M252.222 44.9036C251.102 48.5836 250.142 50.5036 248.862 50.5036C247.774 50.5036 246.814 49.0636 246.814 46.3116C246.814 43.2716 249.15 39.0156 253.854 37.7356C253.47 40.2316 252.926 42.7596 252.222 44.9036ZM257.79 58.5996C266.046 57.2236 269.982 52.3276 269.982 45.6716C269.982 38.4716 264.862 32.9036 256.798 32.9036C248.318 32.9036 241.822 39.3036 241.822 46.8236C241.822 52.2316 244.83 56.4876 248.734 56.4876C252.478 56.4876 255.326 52.2316 257.214 45.8956C258.078 42.9836 258.654 40.1996 259.07 37.6396C262.718 38.5036 264.702 41.4156 264.702 45.5116C264.702 49.6716 262.014 52.4876 257.982 53.4796C257.086 53.7036 256.222 53.8956 254.878 54.0556L257.79 58.5996Z" fill="#ECEFFF"/>
<path d="M291.614 39.1756H288.254V37.8636H291.614V39.1756ZM291.614 44.2316H288.254V42.8876H291.614V44.2316ZM291.614 49.3836H288.254V47.9436H291.614V49.3836ZM283.774 53.2556H302.526V49.3836H296.03V47.9436H300.926V44.2316H296.03V42.8876H301.086V39.1756H296.03V37.8636H301.95V33.9916H296.99C297.502 33.0316 298.014 31.9756 298.526 30.9516L293.374 30.0556C293.118 31.2396 292.702 32.6796 292.222 33.9916H289.47C289.95 33.0316 290.398 32.0716 290.814 31.1116L286.174 29.7676C284.766 33.4796 282.142 37.0636 279.262 39.2396C280.254 40.1036 281.95 41.9916 282.654 42.9516C283.038 42.6316 283.39 42.2796 283.774 41.8956V53.2556ZM281.726 35.4636C280.702 33.9596 278.494 31.8796 276.734 30.4716L273.182 33.0956C274.91 34.6636 277.022 36.8716 277.886 38.4076L281.726 35.4636ZM280.958 42.0236H273.182V46.3116H276.51V52.5836C275.262 53.5116 273.95 54.4076 272.766 55.1116L274.91 59.7516C276.542 58.3756 277.79 57.2556 279.006 56.0716C280.894 58.5036 283.294 59.3356 286.91 59.4956C291.006 59.6876 297.822 59.6236 302.014 59.3996C302.238 58.0876 302.942 55.9436 303.454 54.8876C298.686 55.3036 290.974 55.3996 286.974 55.2076C283.966 55.0796 282.014 54.2476 280.958 52.2636V42.0236Z" fill="#ECEFFF"/>
<path d="M312.67 30.0236C310.782 34.7276 307.518 39.3996 304.19 42.2796C305.022 43.4636 306.366 46.0876 306.846 47.2716C307.71 46.4716 308.574 45.5436 309.438 44.5196V59.9756H314.11V37.8636C315.326 35.7836 316.414 33.6396 317.278 31.5596L312.67 30.0236ZM325.534 55.3996C324.094 55.3996 323.934 55.1436 323.934 53.1596V45.7676C327.55 44.1356 331.358 42.1196 334.622 39.9756L331.198 35.8796C329.182 37.5116 326.622 39.3996 323.934 40.9676V30.5036H319.23V53.1276C319.23 58.2156 320.478 59.7196 324.894 59.7196H329.79C333.822 59.7196 335.038 57.5436 335.55 51.8476C334.27 51.5596 332.35 50.6956 331.262 49.8956C331.006 54.3436 330.75 55.3996 329.31 55.3996H325.534Z" fill="#ECEFFF"/>
<path d="M54.3521 69.7836C54.3201 70.9676 54.1281 72.4076 54.0001 73.3676C53.6481 75.7036 52.7521 81.6556 52.7521 86.5196C52.7521 90.8076 53.3921 94.5196 54.0641 96.6636L58.3841 96.3756C58.3521 95.8636 58.3521 95.2876 58.3521 94.9356C58.3521 94.6156 58.4481 93.8796 58.5441 93.4316C58.9281 91.6076 59.8881 88.4076 60.8481 85.5596L58.5121 83.7036C58.0961 84.6316 57.7121 85.2396 57.3281 86.1676C57.2961 86.0396 57.2961 85.5276 57.2961 85.4316C57.2961 82.4876 58.3841 75.0956 58.7681 73.4636C58.8961 72.8876 59.3441 70.9356 59.6321 70.2316L54.3521 69.7836ZM70.2561 89.4636C70.2561 91.1916 69.6481 92.0236 68.1121 92.0236C66.7681 92.0236 65.6481 91.6396 65.6481 90.5196C65.6481 89.5276 66.6401 88.9516 68.1121 88.9516C68.8481 88.9516 69.5521 89.0476 70.2561 89.2396V89.4636ZM81.0721 90.5836C79.6641 89.2716 77.7121 87.6076 74.9921 86.4876C74.8961 84.6316 74.7361 82.3596 74.6721 79.4796C76.3361 79.3516 77.9041 79.1596 79.3121 78.9676V74.1996C77.8721 74.4876 76.3041 74.7436 74.7041 74.9036C74.7361 73.5916 74.7681 72.5356 74.8001 71.9276C74.8321 71.2236 74.8961 70.4236 74.9921 69.8156H69.5201C69.6481 70.4876 69.7761 71.5116 69.7761 71.9916C69.8081 72.5676 69.8081 73.7516 69.8401 75.2236C69.2321 75.2556 68.6561 75.2556 68.0481 75.2556C66.1281 75.2556 64.2401 75.1596 62.3841 74.9676L62.4161 79.5436C64.3041 79.6716 66.1921 79.7356 68.0801 79.7356C68.6561 79.7356 69.2641 79.7356 69.8721 79.7036C69.9041 81.6876 70.0001 83.6396 70.0961 85.3036C69.5841 85.2716 69.0401 85.2396 68.4961 85.2396C64.0801 85.2396 61.1681 87.5116 61.1681 91.0636C61.1681 94.6476 64.1121 96.5676 68.5601 96.5676C72.7201 96.5676 74.6721 94.7116 75.0881 91.7356C76.1761 92.5356 77.2961 93.4956 78.4801 94.6156L81.0721 90.5836Z" fill="#ECEFFF"/>
<path d="M91.3121 90.8396V84.5996H104.592V90.8396H91.3121ZM104.592 74.1356V79.9916H91.3121V74.1356H104.592ZM86.5121 69.4316V97.6556H91.3121V95.5436H104.592V97.6556H109.616V69.4316H86.5121Z" fill="#ECEFFF"/>
<path d="M138.832 74.9996L137.968 75.1916H129.424C130.096 73.5916 130.704 71.9916 131.216 70.4236L126.064 69.2716C124.528 74.9676 121.072 82.3276 116.272 86.5196C117.584 87.0956 119.664 88.2796 120.752 89.0796C123.28 86.6796 125.456 83.3836 127.28 79.8316H135.536C134.576 82.0076 133.264 84.3756 131.824 86.4876C130.256 85.7196 128.688 85.0156 127.28 84.4396L124.432 88.3436C128.72 90.2636 134.064 93.4956 136.432 96.0236L139.632 91.5436C138.768 90.7116 137.552 89.8156 136.176 88.9516C138.736 85.2076 141.104 80.6956 142.384 76.9196L138.832 74.9996Z" fill="#ECEFFF"/>
<path d="M150.544 97.1756C152.912 95.5436 154.256 93.0476 155.184 90.4236L151.024 88.8876C150.256 91.1276 148.72 93.1756 146.704 94.4556L150.544 97.1756ZM162.8 73.4636C162.416 74.0396 161.968 74.6156 161.552 75.1276H155.216C155.76 74.5836 156.272 74.0396 156.752 73.4636H162.8ZM161.296 93.7836C160.112 93.7836 159.92 93.6876 159.92 92.7916V90.0076C161.232 90.8396 162.448 91.7676 163.12 92.5036L166.192 89.3676C165.68 88.8556 164.912 88.3116 164.08 87.7996H173.552V75.1276H166.992C167.92 73.9436 168.784 72.7276 169.392 71.6716L166.192 69.6556L165.488 69.8476H159.44C159.728 69.3676 160.016 68.8876 160.304 68.4076L155.344 67.4476C153.776 70.4236 150.96 73.5916 146.704 75.9276C147.728 76.6636 149.232 78.2636 149.936 79.3516C150.416 79.0316 150.896 78.7116 151.344 78.3916V78.8076H168.944V79.7356H152.016V83.1276H168.944V84.1196H150.832V87.7996H158.576L157.648 88.7276C158.128 88.9516 158.608 89.2396 159.12 89.5276H155.376V92.8556C155.376 96.4716 156.336 97.7196 160.656 97.7196H164.688C167.856 97.7196 169.04 96.6956 169.52 92.6636C168.304 92.4076 166.416 91.7676 165.552 91.0956C165.392 93.4316 165.2 93.7836 164.24 93.7836H161.296ZM167.952 90.5836C169.904 92.5996 172.176 95.4156 173.072 97.2396L177.264 94.8396C176.176 92.9196 173.776 90.2956 171.824 88.4396L167.952 90.5836Z" fill="#ECEFFF"/>
<path d="M202.96 78.6796V80.7276H200.368V78.6796H202.96ZM193.424 78.6796H195.856V80.7276H193.424V78.6796ZM195.856 75.1916H189.168V84.1836H193.808C192.208 85.9756 189.744 87.5756 187.28 88.5036C188.24 89.3356 189.584 90.9676 190.224 92.0236C192.304 90.9676 194.256 89.3676 195.856 87.4796V92.3116H200.368V87.7356C202.032 89.4316 203.984 90.9676 205.872 91.9596C206.576 90.8396 207.984 89.1756 209.008 88.3116C206.512 87.3836 203.792 85.8476 201.904 84.1836H207.472V75.1916H200.368V73.9436H208.368V70.1036H200.368V67.6716H195.856V70.1036H188.336V73.9436H195.856V75.1916ZM187.888 73.1436C186.8 71.6716 184.464 69.6876 182.64 68.3756L179.184 71.1596C181.008 72.5996 183.248 74.7436 184.176 76.2156L187.888 73.1436ZM187.152 80.0236H179.312V84.3116H182.608V90.2636C181.264 91.2236 179.792 92.1196 178.48 92.8556L180.72 97.7196C182.448 96.3436 183.792 95.1916 185.104 94.0396C187.216 96.5036 189.744 97.3036 193.552 97.4636C197.552 97.6556 203.92 97.5916 207.984 97.3676C208.208 95.9916 208.944 93.7516 209.456 92.6316C204.848 93.0476 197.552 93.1436 193.648 92.9836C190.512 92.8556 188.336 92.0556 187.152 90.0716V80.0236Z" fill="#ECEFFF"/>
<path d="M224.208 72.2476L224.24 77.1756C228.464 77.5276 234 77.4956 238.16 77.1756V72.2156C234.608 72.5996 228.336 72.7596 224.208 72.2476ZM223.088 85.7516C222.736 87.2876 222.512 88.6636 222.512 90.1036C222.512 93.4636 225.264 95.5436 230.8 95.5436C234.544 95.5436 237.072 95.3196 239.152 94.9356L239.056 89.7516C236.176 90.3276 233.904 90.5836 231.056 90.5836C228.464 90.5836 227.152 90.0716 227.152 88.6636C227.152 87.8316 227.248 87.1276 227.472 86.1356L223.088 85.7516ZM214.64 69.8796C214.608 71.0636 214.384 72.5036 214.256 73.4636C213.936 75.7996 213.008 81.0796 213.008 85.9436C213.008 90.2316 213.648 94.2316 214.288 96.3756L218.704 96.0876C218.672 95.5756 218.672 94.9996 218.672 94.6476C218.672 94.3596 218.768 93.5916 218.864 93.1436C219.216 91.3516 220.208 87.8636 221.168 84.9836L218.832 83.1596C218.416 84.0556 218.032 84.6956 217.616 85.5916C217.584 85.4636 217.584 84.9516 217.584 84.8556C217.584 81.9116 218.736 75.1916 219.088 73.5596C219.216 72.9836 219.696 71.0316 219.984 70.3276L214.64 69.8796Z" fill="#ECEFFF"/>
<path d="M1340.38 41.0156C1339.46 41.2716 1338.11 41.5916 1336.86 41.8476C1335.52 42.1036 1333.12 42.5196 1330.46 42.9676L1329.63 38.5836L1335.42 37.6556C1336.45 37.5276 1337.92 37.3036 1338.75 37.2396L1337.82 32.1836C1336.93 32.4396 1335.49 32.7596 1334.43 32.9516C1333.41 33.1436 1331.23 33.5276 1328.77 33.9116C1328.54 32.6636 1328.35 31.7036 1328.29 31.2236C1328.13 30.4236 1328.03 29.2396 1327.94 28.5996L1322.46 29.4636C1322.72 30.2636 1322.94 31.0636 1323.17 32.0236L1323.68 34.6796C1321.06 35.0956 1318.75 35.4156 1317.73 35.5436C1316.74 35.6716 1315.71 35.7356 1314.59 35.7996L1315.62 41.0796C1316.7 40.7916 1317.6 40.5676 1318.75 40.3436C1319.62 40.1836 1321.92 39.7996 1324.58 39.3836L1325.41 43.7676C1322.4 44.2476 1319.68 44.6636 1318.27 44.8876C1317.18 45.0476 1315.58 45.2396 1314.69 45.2716L1315.78 50.3916C1316.51 50.1996 1317.73 49.9756 1319.17 49.7196C1320.48 49.4636 1323.23 48.9836 1326.27 48.4716C1326.72 50.9036 1327.1 52.9196 1327.26 53.9116C1327.46 54.8716 1327.52 56.0236 1327.68 57.2716L1333.25 56.3116C1332.96 55.1916 1332.64 54.0076 1332.42 53.0476C1332.19 51.9596 1331.81 49.9756 1331.36 47.6396C1333.98 47.2236 1336.35 46.8396 1337.76 46.6156C1338.98 46.4236 1340.45 46.1676 1341.41 46.1036L1340.38 41.0156Z" fill="#ECEFFF"/>
<path d="M1365.63 49.8796C1367.9 47.3516 1371.07 42.3596 1372.45 39.5116L1369.31 37.3036C1368.83 37.5276 1368.13 37.7516 1367.49 37.8796C1366.14 38.1676 1362.18 38.9356 1358.4 39.6716L1357.63 36.8876C1357.44 36.0556 1357.22 35.1276 1357.09 34.2636L1351.9 35.4796C1352.29 36.2476 1352.67 37.1116 1352.9 37.9436C1353.12 38.6156 1353.38 39.5436 1353.63 40.5676C1352.38 40.7916 1351.42 40.9516 1351.01 41.0156C1349.89 41.2076 1348.96 41.3036 1347.9 41.3996L1349.09 46.0076C1350.11 45.7836 1352.29 45.3036 1354.75 44.7596C1355.87 48.9836 1357.06 53.6236 1357.57 55.4796C1357.86 56.4396 1358.08 57.6236 1358.21 58.5516L1363.46 57.2716C1363.2 56.5996 1362.69 54.9356 1362.53 54.3916C1361.98 52.5996 1360.74 48.0236 1359.55 43.7356C1362.43 43.1276 1364.93 42.6156 1365.66 42.4876C1364.93 43.8636 1362.82 46.4236 1361.38 47.7676L1365.63 49.8796Z" fill="#ECEFFF"/>
<path d="M1381.76 30.1356C1381.86 30.9356 1381.89 32.0556 1381.89 32.6636V43.5116C1381.89 44.5036 1381.76 45.8796 1381.73 46.5196H1387.49C1387.42 45.6876 1387.36 44.3436 1387.36 43.5436V32.6636C1387.36 31.5116 1387.42 30.9356 1387.49 30.1356H1381.76ZM1396.45 29.8476C1396.58 30.8076 1396.67 31.8956 1396.67 33.3036V39.9276C1396.67 44.3436 1396.22 46.6156 1394.08 48.8876C1392.16 50.8716 1389.54 52.0556 1386.21 52.7916L1390.27 57.0796C1392.61 56.3436 1395.97 54.7116 1398.11 52.4716C1400.54 49.9116 1402.05 46.7116 1402.05 40.2796V33.3036C1402.05 31.8956 1402.11 30.8076 1402.18 29.8476H1396.45Z" fill="#ECEFFF"/>
<path d="M1420.16 37.6876C1420.35 38.8396 1420.42 39.7676 1420.42 40.8876C1420.42 46.1036 1419.62 48.8236 1416.06 51.5116C1414.72 52.5356 1413.54 53.0796 1412.42 53.4636L1416.93 57.1436C1425.95 52.1196 1425.79 45.2076 1425.79 37.6876H1420.16ZM1435.9 30.4876C1435.23 30.6796 1433.12 30.8076 1432.06 30.8076H1415.46C1414.05 30.8076 1412.7 30.6476 1411.39 30.4556V35.7996C1413.06 35.6396 1414.05 35.5436 1415.46 35.5436H1431.26C1430.56 36.8876 1428.35 39.3196 1425.98 40.8236L1429.98 44.0236C1432.86 41.9436 1435.9 37.9436 1437.54 35.2556C1437.86 34.7436 1438.59 33.8156 1438.98 33.3356L1435.9 30.4876Z" fill="#ECEFFF"/>
<path d="M1444.35 29.7836C1444.32 30.9676 1444.13 32.4076 1444 33.3676C1443.65 35.7036 1442.75 41.6556 1442.75 46.5196C1442.75 50.8076 1443.39 54.5196 1444.06 56.6636L1448.38 56.3756C1448.35 55.8636 1448.35 55.2876 1448.35 54.9356C1448.35 54.6156 1448.45 53.8796 1448.54 53.4316C1448.93 51.6076 1449.89 48.4076 1450.85 45.5596L1448.51 43.7036C1448.1 44.6316 1447.71 45.2396 1447.33 46.1676C1447.3 46.0396 1447.3 45.5276 1447.3 45.4316C1447.3 42.4876 1448.38 35.0956 1448.77 33.4636C1448.9 32.8876 1449.34 30.9356 1449.63 30.2316L1444.35 29.7836ZM1460.26 49.4636C1460.26 51.1916 1459.65 52.0236 1458.11 52.0236C1456.77 52.0236 1455.65 51.6396 1455.65 50.5196C1455.65 49.5276 1456.64 48.9516 1458.11 48.9516C1458.85 48.9516 1459.55 49.0476 1460.26 49.2396V49.4636ZM1471.07 50.5836C1469.66 49.2716 1467.71 47.6076 1464.99 46.4876C1464.9 44.6316 1464.74 42.3596 1464.67 39.4796C1466.34 39.3516 1467.9 39.1596 1469.31 38.9676V34.1996C1467.87 34.4876 1466.3 34.7436 1464.7 34.9036C1464.74 33.5916 1464.77 32.5356 1464.8 31.9276C1464.83 31.2236 1464.9 30.4236 1464.99 29.8156H1459.52C1459.65 30.4876 1459.78 31.5116 1459.78 31.9916C1459.81 32.5676 1459.81 33.7516 1459.84 35.2236C1459.23 35.2556 1458.66 35.2556 1458.05 35.2556C1456.13 35.2556 1454.24 35.1596 1452.38 34.9676L1452.42 39.5436C1454.3 39.6716 1456.19 39.7356 1458.08 39.7356C1458.66 39.7356 1459.26 39.7356 1459.87 39.7036C1459.9 41.6876 1460 43.6396 1460.1 45.3036C1459.58 45.2716 1459.04 45.2396 1458.5 45.2396C1454.08 45.2396 1451.17 47.5116 1451.17 51.0636C1451.17 54.6476 1454.11 56.5676 1458.56 56.5676C1462.72 56.5676 1464.67 54.7116 1465.09 51.7356C1466.18 52.5356 1467.3 53.4956 1468.48 54.6156L1471.07 50.5836Z" fill="#ECEFFF"/>
<path d="M1332.45 79.8796C1334.37 81.7996 1335.58 83.6876 1335.58 85.8316C1335.58 88.0716 1333.5 90.0556 1329.31 90.0556C1326.46 90.0556 1324.96 88.9036 1324.96 86.5356C1324.96 86.0876 1324.99 85.4476 1325.06 84.7116C1325.47 84.7116 1325.92 84.7116 1326.37 84.7116C1328.26 84.7116 1330.05 84.5836 1331.62 84.4236L1331.74 79.8796C1329.76 80.1036 1327.33 80.2636 1325.54 80.2636H1325.5C1325.63 79.1116 1325.79 77.8956 1325.95 76.7436C1328.48 76.7436 1330.08 76.6156 1331.84 76.4236L1332 71.8796C1330.69 72.1036 1328.74 72.2636 1326.56 72.2956C1326.69 71.4316 1326.78 70.7596 1326.85 70.3436C1327.01 69.4476 1327.17 68.5196 1327.49 67.1756L1322.11 66.8876C1322.21 68.0716 1322.11 69.0956 1322.05 70.0236C1322.02 70.6316 1321.95 71.3356 1321.86 72.1356C1319.58 71.9436 1317.31 71.5596 1315.55 70.9516L1315.33 75.3676C1317.12 75.8476 1319.2 76.2636 1321.34 76.4876L1320.9 80.0396C1318.91 79.8476 1316.93 79.4636 1314.91 78.7916L1314.66 83.4316C1316.22 83.8476 1318.18 84.1996 1320.38 84.4236C1320.26 85.6396 1320.19 86.6636 1320.19 87.3676C1320.19 92.7436 1323.74 95.0476 1329.15 95.0476C1336.45 95.0476 1340.8 91.3036 1340.8 86.4716C1340.8 83.7836 1339.87 81.5436 1337.82 78.7276L1332.45 79.8796Z" fill="#ECEFFF"/>
<path d="M1348.38 78.9836L1350.34 83.9756C1353.44 82.6316 1359.39 80.1676 1362.94 80.1676C1365.44 80.1676 1367.04 81.6396 1367.04 83.8156C1367.04 87.6556 1362.05 89.5436 1354.62 89.7356L1356.67 94.4716C1367.58 93.7996 1372.16 89.4156 1372.16 83.9116C1372.16 78.8236 1368.74 75.6876 1363.42 75.6876C1359.52 75.6876 1354.08 77.4796 1351.97 78.1196C1351.04 78.4076 1349.31 78.8236 1348.38 78.9836Z" fill="#ECEFFF"/>
<path d="M1399.62 70.1516C1398.69 70.9196 1397.66 71.5276 1396.32 72.2956C1394.94 73.0956 1392.54 74.3436 1390.21 75.6876C1388.96 73.3196 1387.55 70.4396 1386.4 67.2396L1381.57 69.1916C1382.98 72.5196 1384.45 75.7516 1385.92 78.4716C1383.01 80.6796 1380.77 83.2716 1380.77 86.8876C1380.77 92.7436 1385.79 94.5036 1392.32 94.5036C1396.54 94.5036 1399.71 94.1836 1402.59 93.7036L1402.66 88.1676C1399.65 88.8396 1395.33 89.3836 1392.19 89.3836C1388.13 89.3836 1386.11 88.3916 1386.11 86.3116C1386.11 84.2316 1387.87 82.5356 1390.34 80.9356C1393.12 79.1436 1396.83 77.4476 1398.72 76.5196C1400 75.8796 1401.15 75.2716 1402.27 74.5996L1399.62 70.1516Z" fill="#ECEFFF"/>
<path d="M1416.96 90.1836V87.6556H1431.2V90.1836H1416.96ZM1431.2 80.8716V83.3676H1416.96V80.8716H1431.2ZM1431.2 74.1196V76.5836H1416.96V74.1196H1431.2ZM1425.47 69.6716C1425.92 68.6156 1426.43 67.3996 1426.88 66.1836L1421.18 65.6076C1421.06 66.8236 1420.8 68.3276 1420.51 69.6716H1412.26V95.9756H1416.96V94.4716H1431.2V95.9756H1436.16V69.6716H1425.47Z" fill="#ECEFFF"/>
<path d="M1458.21 89.8956V85.3836H1464.29V89.8956H1458.21ZM1447.65 85.3836H1453.41V89.8956H1447.65V85.3836ZM1453.41 76.3596V80.8396H1447.65V76.3596H1453.41ZM1464.29 76.3596V80.8396H1458.21V76.3596H1464.29ZM1458.21 71.6556V65.6716H1453.41V71.6556H1442.98V96.0716H1447.65V94.5036H1464.29V96.0716H1469.18V71.6556H1458.21Z" fill="#ECEFFF"/>
<path d="M1486.21 70.2476L1486.24 75.1756C1490.46 75.5276 1496 75.4956 1500.16 75.1756V70.2156C1496.61 70.5996 1490.34 70.7596 1486.21 70.2476ZM1485.09 83.7516C1484.74 85.2876 1484.51 86.6636 1484.51 88.1036C1484.51 91.4636 1487.26 93.5436 1492.8 93.5436C1496.54 93.5436 1499.07 93.3196 1501.15 92.9356L1501.06 87.7516C1498.18 88.3276 1495.9 88.5836 1493.06 88.5836C1490.46 88.5836 1489.15 88.0716 1489.15 86.6636C1489.15 85.8316 1489.25 85.1276 1489.47 84.1356L1485.09 83.7516ZM1476.64 67.8796C1476.61 69.0636 1476.38 70.5036 1476.26 71.4636C1475.94 73.7996 1475.01 79.0796 1475.01 83.9436C1475.01 88.2316 1475.65 92.2316 1476.29 94.3756L1480.7 94.0876C1480.67 93.5756 1480.67 92.9996 1480.67 92.6476C1480.67 92.3596 1480.77 91.5916 1480.86 91.1436C1481.22 89.3516 1482.21 85.8636 1483.17 82.9836L1480.83 81.1596C1480.42 82.0556 1480.03 82.6956 1479.62 83.5916C1479.58 83.4636 1479.58 82.9516 1479.58 82.8556C1479.58 79.9116 1480.74 73.1916 1481.09 71.5596C1481.22 70.9836 1481.7 69.0316 1481.98 68.3276L1476.64 67.8796Z" fill="#ECEFFF"/>
<path d="M704.83 26.0254C704.235 37.1604 706.105 74.8154 672.275 94.4504C676.61 97.3404 680.605 101.165 682.815 104.395C699.22 93.6854 708.06 78.7254 712.905 64.4454C718.005 79.3204 727.525 95.1304 745.63 104.31C747.5 100.91 751.155 96.7454 755.15 93.7704C723.615 78.8104 719.535 43.8754 718.855 31.6354C718.94 29.5104 719.025 27.6404 719.11 26.0254H704.83Z" fill="#ECEFFF"/>
<path d="M818.73 36.3104C816.265 38.3504 813.545 39.9654 809.975 42.0054C806.32 44.1304 799.945 47.4454 793.74 51.0154C790.425 44.7254 786.685 37.0754 783.625 28.5754L770.79 33.7604C774.53 42.6004 778.44 51.1854 782.35 58.4104C774.615 64.2754 768.665 71.1604 768.665 80.7654C768.665 96.3204 782.01 100.995 799.35 100.995C810.57 100.995 818.985 100.145 826.635 98.8704L826.805 84.1654C818.815 85.9504 807.34 87.3954 799.01 87.3954C788.215 87.3954 782.86 84.7604 782.86 79.2354C782.86 73.7104 787.535 69.2054 794.08 64.9554C801.475 60.1954 811.335 55.6904 816.35 53.2254C819.75 51.5254 822.81 49.9104 825.785 48.1254L818.73 36.3104Z" fill="#ECEFFF"/>
<path d="M876.105 23.8154C869.9 34.2704 856.385 47.5304 841.595 54.7554C844.315 57.3054 847.885 61.8954 849.5 64.7854C863.355 57.1354 876.02 46.0854 883.075 36.0554C890.13 46.0004 904.07 57.7304 917.245 64.8704C919.625 61.0454 922.43 56.9654 925.575 53.7354C911.72 48.2954 898.375 37.5004 889.025 23.8154H876.105ZM890.555 77.0254H912.315V66.0604H890.555V48.8054H877.38V91.7304H867.69V63.0854H855.535V91.7304H847.12V102.865H919.88V91.7304H890.555V77.0254Z" fill="#ECEFFF"/>
<path d="M977.68 47.5304C977.085 49.4004 976.32 51.3554 975.555 53.0554H961.105L962.125 52.8854C961.7 51.4404 960.85 49.4004 959.915 47.5304H977.68ZM1007 86.1204V76.0904H974.535V73.7104H999.525V64.9554H974.535V62.5754H1003.35V53.0554H988.05C989.07 51.3554 990.175 49.4854 991.365 47.5304H1006.75V37.5004H996.975C998.845 34.7804 1000.97 31.3804 1003.18 27.7254L990.175 24.7504C989.155 28.4054 987.2 33.3354 985.415 36.7354L987.965 37.5004H982.355V24.2404H970.71V37.5004H966.63V24.2404H955.155V37.5004H949.035L952.86 36.1404C951.755 32.9104 949.12 27.9804 946.825 24.4104L936.2 27.9804C937.815 30.8704 939.6 34.5254 940.79 37.5004H930.59V47.5304H946.91C947.59 49.1454 948.44 51.2704 948.95 53.0554H934.075V62.5754H962.295V64.9554H938.24V73.7104H962.295V76.0904H930.42V86.1204H952.18C945.295 89.6904 936.37 92.4954 927.615 94.0254C930.25 96.5754 933.82 101.335 935.52 104.31C945.125 101.845 954.645 97.5104 962.295 91.9854V105.075H974.535V91.5604C981.93 97.5104 991.11 101.93 1001.14 104.31C1003.01 100.91 1006.66 95.7254 1009.47 93.0904C1000.54 91.8154 991.96 89.4354 985.245 86.1204H1007Z" fill="#ECEFFF"/>
<path d="M1065.4 84.3354C1065.31 80.5954 1065.14 74.9004 1065.06 70.3104C1069.48 68.3554 1073.56 66.7404 1076.79 65.5504C1080.02 64.2754 1085.29 62.3204 1088.26 61.4704L1083.25 49.7404C1079.68 51.4404 1076.19 53.0554 1072.54 54.6704C1069.56 56.0304 1066.84 57.1354 1063.44 58.7504C1061.23 54.8404 1057.15 52.8004 1052.22 52.8004C1049.84 52.8004 1045.59 53.1404 1043.89 53.6504C1045 51.9504 1046.1 49.9104 1047.12 47.7004C1056.13 47.3604 1066.42 46.5954 1074.32 45.5754L1074.41 33.7604C1067.35 35.0354 1059.28 35.7154 1051.71 36.1404C1052.65 32.9954 1053.24 30.3604 1053.58 28.4904L1040.15 27.3854C1040.07 29.5104 1039.64 32.7404 1038.71 36.5654H1035.39C1030.89 36.5654 1024.43 36.2254 1020.26 35.5454V47.3604C1024.68 47.7854 1030.8 47.9554 1034.29 47.9554C1030.21 55.6904 1024.26 62.5754 1016.27 69.6304L1027.15 77.7904C1030.04 73.9654 1032.42 70.9054 1034.97 68.2704C1037.86 65.4654 1043.04 62.6604 1047.38 62.6604C1048.99 62.6604 1050.69 63.0854 1051.97 64.3604C1042.62 69.2904 1032.59 76.3454 1032.59 87.3104C1032.59 98.5304 1042.53 102.1 1056.39 102.1C1064.72 102.1 1075.51 101.335 1080.7 100.655L1081.12 87.4804C1073.73 89.0954 1064.12 90.1154 1056.64 90.1154C1048.74 90.1154 1046.1 88.6704 1046.1 85.1004C1046.1 81.7004 1048.4 78.9804 1053.67 75.9204C1053.58 79.0654 1053.41 82.2104 1053.24 84.3354H1065.4Z" fill="#ECEFFF"/>
<path d="M1151.42 66.9104C1148.19 72.2654 1143.85 76.6854 1138.67 80.1704C1133.48 76.5154 1129.4 72.0954 1126.34 66.9104H1151.42ZM1160.51 54.4154L1158.39 54.8404H1144.62V46.7654H1175.05V34.5254H1144.62V24.3254H1131.7V34.5254H1101.52V46.7654H1131.7V54.8404H1105.86V66.9104H1123.11L1114.1 69.9704C1117.67 76.3454 1121.84 81.8704 1126.68 86.4604C1118.27 89.7754 1108.58 91.8154 1097.87 93.0904C1100.25 95.8954 1103.48 101.76 1104.58 105.075C1116.82 103.12 1128.13 99.8904 1137.9 94.7904C1146.83 99.9754 1157.79 103.375 1171.22 105.245C1172.92 101.675 1176.41 95.9804 1179.13 93.0904C1167.99 91.9854 1158.47 89.8604 1150.48 86.6304C1158.73 79.7454 1165.19 70.8204 1169.27 59.3454L1160.51 54.4154Z" fill="#ECEFFF"/>
<path d="M1209.3 62.6604L1203.18 64.1904V51.1854H1209.98V39.8804H1203.18V24.4104H1191.88V39.8804H1183.89V51.1854H1191.88V66.9104C1188.48 67.7604 1185.25 68.4404 1182.61 68.9504L1184.31 80.9354L1191.88 78.8954V92.4104C1191.88 93.5154 1191.54 93.7704 1190.52 93.7704C1189.5 93.8554 1186.69 93.8554 1183.97 93.6854C1185.42 97.0004 1186.78 102.1 1187.03 105.16C1192.64 105.16 1196.55 104.735 1199.44 102.78C1202.33 100.91 1203.18 97.7654 1203.18 92.4104V75.8354C1205.73 75.1554 1208.28 74.3904 1210.83 73.7104L1209.3 62.6604ZM1221.88 95.6404C1223.92 93.1754 1225.54 90.5404 1226.9 87.8204C1228.34 89.5204 1229.79 91.1354 1231.4 92.5804C1228.51 93.8554 1225.37 94.8754 1221.88 95.6404ZM1245.17 80.3404C1243.9 82.7204 1242.28 84.8454 1240.41 86.6304C1237.69 84.7604 1235.48 82.7204 1233.61 80.3404H1245.17ZM1229.28 38.1804C1229.87 41.1554 1230.55 45.1504 1230.72 47.7854H1223.5L1227.58 46.5104C1226.81 44.1304 1225.37 40.3054 1224.18 37.4154C1228.77 37.2454 1233.36 36.9904 1237.95 36.6504L1229.28 38.1804ZM1234.46 47.7854L1240.92 46.4254C1240.58 43.8754 1239.65 39.7104 1238.8 36.5654C1241.94 36.3104 1245 35.9704 1248.06 35.6304C1246.7 39.5404 1244.49 44.3004 1242.54 47.7854H1234.46ZM1252.14 71.3304L1250.19 71.5854H1232.17L1232.59 69.5454H1262.6V59.6854H1233.78L1233.95 57.3054H1259.96V47.7854H1253.16C1255.2 44.7254 1257.5 41.1554 1259.71 37.6704L1251.12 35.2904C1254.61 34.7804 1257.92 34.2704 1260.98 33.6754L1254.18 24.6654C1243.22 26.8754 1226.13 28.1504 1211 28.5754C1212.11 31.0404 1213.38 35.0354 1213.64 37.6704C1216.44 37.6704 1219.33 37.5854 1222.22 37.5004L1214.74 39.5404C1215.59 42.0054 1216.7 45.3204 1217.38 47.7854H1212.87V57.3054H1222.14L1221.97 59.6854H1211.26V69.5454H1220.78C1218.91 79.6604 1214.74 89.3504 1203.86 95.8954C1206.75 98.0204 1210.07 101.93 1211.68 104.82C1215.17 102.525 1218.06 99.9754 1220.52 97.2554C1222.56 99.4654 1225.03 103.12 1226.05 105.245C1231.49 103.885 1236.5 101.93 1240.84 99.2954C1245.77 101.93 1251.38 103.885 1257.75 105.16C1259.28 102.1 1262.43 97.5104 1264.89 95.1304C1259.45 94.3654 1254.44 93.1754 1250.02 91.4754C1253.93 86.9704 1256.9 81.1904 1258.77 73.8804L1252.14 71.3304Z" fill="#ECEFFF"/>
<path d="M1604.06 54.1799C1612.22 48.9099 1619.62 42.6199 1626.42 35.9899L1615.37 26.0449C1610.52 32.5049 1601.77 40.0699 1593.18 45.4249C1583.66 51.3749 1569.38 57.5799 1554.17 60.7249L1561.48 73.2199C1570.74 70.7549 1580.69 66.7599 1589.27 62.5099V88.0949C1589.27 92.1749 1588.93 98.1249 1588.59 100.42H1604.91C1604.23 98.0399 1604.06 92.1749 1604.06 88.0949V54.1799Z" fill="#ECEFFF"/>
<path d="M1707.42 33.1849L1691.27 29.0199C1688.98 41.2599 1683.54 56.3049 1675.21 66.1649C1667.64 75.0899 1656.42 83.4199 1642.82 88.0949L1654.55 100.165C1668.24 94.7249 1679.88 83.8449 1686.94 75.1749C1693.65 66.9299 1699.43 53.9249 1703.17 43.8099C1704.28 40.7499 1705.64 36.6699 1707.42 33.1849Z" fill="#ECEFFF"/>
<path d="M1781.12 36.3299L1772.28 39.9849C1775.59 44.6599 1777.29 48.0599 1780.01 53.9249L1789.11 50.0149C1787.24 46.1899 1783.67 40.1549 1781.12 36.3299ZM1792.76 31.4849L1784.01 35.4799C1787.32 39.9849 1789.19 43.1299 1792.17 48.9949L1801.01 44.7449C1799.14 41.0049 1795.4 35.1399 1792.76 31.4849ZM1722.21 70.8399L1734.37 83.3349C1735.98 80.8699 1738.11 77.6399 1740.15 74.6649C1743.38 70.0749 1748.9 62.1699 1751.88 58.2599C1754 55.4549 1755.7 55.5399 1758.34 57.8349C1761.14 60.2999 1768.45 68.3749 1773.47 74.4099C1778.23 80.1049 1785.88 89.9649 1791.06 96.5949L1802.2 84.5249C1796.16 77.5549 1786.81 67.6099 1781.12 61.4899C1775.93 55.8799 1769.9 49.5049 1763.86 44.4049C1756.47 38.1149 1751.2 38.7099 1745.84 45.0849C1739.72 52.3949 1733.52 60.1299 1729.78 63.8699C1726.97 66.6749 1724.93 68.6299 1722.21 70.8399Z" fill="#ECEFFF"/>
<path d="M1812.31 71.4349C1815.8 71.1799 1822.17 70.9249 1827.02 70.9249H1872.15C1875.64 70.9249 1880.4 71.3499 1882.61 71.4349V55.1999C1880.14 55.3699 1875.98 55.7949 1872.15 55.7949H1827.02C1822.85 55.7949 1815.71 55.4549 1812.31 55.1999V71.4349Z" fill="#ECEFFF"/>
<path d="M1914.94 27.5749L1907.46 38.9649C1913.41 42.2799 1922.08 47.8049 1927.18 51.2049L1934.83 39.8149C1929.99 36.4999 1920.89 30.8049 1914.94 27.5749ZM1897.52 87.6699L1905.25 101.27C1912.56 100.08 1925.06 95.6599 1933.73 90.8149C1947.84 82.7399 1959.99 72.1149 1968.15 60.1299L1960.25 46.0199C1953.53 58.2599 1941.29 70.2449 1926.67 78.3199C1917.07 83.5049 1907.12 86.0549 1897.52 87.6699ZM1901.68 47.1249L1894.2 58.5149C1900.24 61.7449 1908.82 67.3549 1914.01 70.9249L1921.57 59.3649C1916.81 56.0499 1907.8 50.3549 1901.68 47.1249Z" fill="#ECEFFF"/>
<path d="M2041.42 54.0099C2041.42 52.1399 2041.42 48.7399 2041.51 47.4649C2040.06 47.5499 2036.32 47.6349 2034.28 47.6349H2002.49C1998.84 47.6349 1993.48 47.4649 1990.93 47.2099V59.5349C1993.31 59.3649 1998.84 59.1949 2002.49 59.1949H2028.67V67.2699H2003.6C2000.2 67.2699 1995.86 67.1849 1993.31 67.0149V79.0849C1995.52 78.9149 2000.2 78.9149 2003.6 78.9149H2028.67V88.0099H1997.65C1994.5 88.0099 1991.53 87.8399 1990.08 87.6699V100.165C1991.53 100.08 1995.27 99.9099 1997.56 99.9099H2028.67C2028.67 101.185 2028.59 102.46 2028.59 103.225H2041.51C2041.51 101.61 2041.42 98.1249 2041.42 96.7649V54.0099Z" fill="#ECEFFF"/>
<path d="M2079.5 30.0399L2069.73 40.4949C2075.85 44.8299 2086.56 54.1799 2091.06 59.1099L2101.6 48.3149C2096.5 42.8749 2085.37 34.0349 2079.5 30.0399ZM2066.92 86.4799L2075.68 100.08C2086.39 98.3799 2097.44 93.9599 2106.11 88.8599C2120.3 80.5299 2132.37 68.7149 2139.17 56.6449L2131.18 42.1099C2125.49 54.0949 2114.01 67.2699 2098.71 76.1099C2090.38 80.9549 2079.42 84.7799 2066.92 86.4799Z" fill="#ECEFFF"/>
<path d="M418.785 93.1903C427.625 93.1903 435.445 89.7053 439.865 85.4553V55.8753H416.32V68.2853H426.35V78.4853C424.99 79.5053 422.61 80.1003 420.315 80.1003C408.585 80.1003 402.975 72.7903 402.975 60.2103C402.975 47.8853 409.69 40.5753 419.04 40.5753C424.31 40.5753 427.625 42.7003 430.685 45.5053L438.76 35.8153C434.425 31.4803 427.795 27.5703 418.53 27.5703C401.615 27.5703 387.42 39.6403 387.42 60.7203C387.42 82.1403 401.19 93.1903 418.785 93.1903Z" fill="#ECEFFF"/>
<path d="M478.744 93.1903C495.999 93.1903 507.729 80.7803 507.729 60.0403C507.729 39.3853 495.999 27.5703 478.744 27.5703C461.489 27.5703 449.759 39.3003 449.759 60.0403C449.759 80.7803 461.489 93.1903 478.744 93.1903ZM478.744 80.1003C470.414 80.1003 465.314 72.3653 465.314 60.0403C465.314 47.8003 470.414 40.5753 478.744 40.5753C487.074 40.5753 492.259 47.8003 492.259 60.0403C492.259 72.3653 487.074 80.1003 478.744 80.1003Z" fill="#ECEFFF"/>
<path d="M523.752 58.0004H529.192V50.0964C529.192 47.2164 528.712 43.9524 528.456 41.2964H528.616L530.952 46.5124L536.84 58.0004H542.664V34.1924H537.224V42.0644C537.224 44.9124 537.672 48.3364 537.992 50.8644H537.832L535.496 45.5844L529.576 34.1924H523.752V58.0004Z" fill="#ECEFFF"/>
<path d="M548.19 58.0004H563.646V53.2004H553.918V48.1444H561.886V43.3444H553.918V38.9284H563.294V34.1924H548.19V58.0004Z" fill="#ECEFFF"/>
<path d="M565.978 58.0004H572.09L574.138 53.3604C574.682 52.1124 575.194 50.8644 575.77 49.3924H575.898C576.538 50.8644 577.082 52.1124 577.658 53.3604L579.866 58.0004H586.234L579.674 46.0004L585.818 34.1924H579.77L578.042 38.4484C577.562 39.5684 577.05 40.8164 576.506 42.3524H576.378C575.706 40.8164 575.162 39.5684 574.65 38.4484L572.73 34.1924H566.362L572.538 45.7444L565.978 58.0004Z" fill="#ECEFFF"/>
<path d="M593.235 58.0004H598.963V38.9284H605.427V34.1924H586.803V38.9284H593.235V58.0004Z" fill="#ECEFFF"/>
<path d="M531.144 96.4484C536.904 96.4484 540.232 92.9604 540.232 88.9924C540.232 85.6324 538.472 83.6484 535.528 82.4644L532.552 81.2804C530.44 80.4484 528.936 79.9364 528.936 78.6244C528.936 77.3444 530.024 76.6404 531.784 76.6404C533.64 76.6404 535.112 77.2804 536.68 78.4644L539.528 74.8804C537.448 72.8004 534.536 71.7444 531.784 71.7444C526.728 71.7444 523.144 74.9444 523.144 78.9444C523.144 82.4004 525.48 84.4804 527.976 85.4724L531.016 86.7524C533.064 87.6164 534.376 88.0644 534.376 89.4404C534.376 90.7204 533.384 91.5204 531.272 91.5204C529.384 91.5204 527.176 90.5284 525.48 89.0884L522.248 93.0244C524.712 95.2964 528.04 96.4484 531.144 96.4484Z" fill="#ECEFFF"/>
<path d="M548.048 96.0004H553.776V76.9284H560.24V72.1924H541.616V76.9284H548.048V96.0004Z" fill="#ECEFFF"/>
<path d="M567.72 86.1124L568.232 84.0964C568.84 81.7284 569.48 78.9444 570.056 76.4484H570.184C570.824 78.8804 571.432 81.7284 572.072 84.0964L572.584 86.1124H567.72ZM575.048 96.0004H581.064L573.672 72.1924H566.824L559.432 96.0004H565.256L566.632 90.5284H573.672L575.048 96.0004Z" fill="#ECEFFF"/>
<path d="M593.91 96.4484C597.238 96.4484 600.182 95.1364 601.846 93.5364V82.4004H592.982V87.0724H596.758V90.9124C596.246 91.2964 595.35 91.5204 594.486 91.5204C590.07 91.5204 587.958 88.7684 587.958 84.0324C587.958 79.3924 590.486 76.6404 594.006 76.6404C595.99 76.6404 597.238 77.4404 598.39 78.4964L601.43 74.8484C599.798 73.2164 597.302 71.7444 593.814 71.7444C587.446 71.7444 582.102 76.2884 582.102 84.2244C582.102 92.2884 587.286 96.4484 593.91 96.4484Z" fill="#ECEFFF"/>
<path d="M606.658 96.0004H622.114V91.2004H612.386V86.1444H620.354V81.3444H612.386V76.9284H621.762V72.1924H606.658V96.0004Z" fill="#ECEFFF"/>
</svg>
