<svg width="2202" height="128" viewBox="0 0 2202 128" fill="none" xmlns="http://www.w3.org/2000/svg">
<path d="M691.432 46.8002V42.6722H694.728V46.8002H691.432ZM699.432 52.3042V42.6722H704.104V38.1922H699.432V31.2802H694.728V38.1922H691.432V30.9922H686.728V38.1922H683.272V31.6642H678.472V38.1922H673.992V42.6722H678.472V61.0402H683.272V59.1842H702.952V54.7042H683.272V42.6722H686.728V52.3042H691.432V51.1202H694.728V52.3042H699.432Z" fill="#ECEFFF"/>
<path d="M719.208 35.2482L719.24 40.1762C723.464 40.5282 729 40.4962 733.16 40.1762V35.2162C729.608 35.6002 723.336 35.7602 719.208 35.2482ZM718.088 48.7522C717.736 50.2882 717.512 51.6642 717.512 53.1042C717.512 56.4642 720.264 58.5442 725.8 58.5442C729.544 58.5442 732.072 58.3202 734.152 57.9362L734.056 52.7522C731.176 53.3282 728.904 53.5842 726.056 53.5842C723.464 53.5842 722.152 53.0722 722.152 51.6642C722.152 50.8322 722.248 50.1282 722.472 49.1362L718.088 48.7522ZM709.64 32.8802C709.608 34.0642 709.384 35.5042 709.256 36.4642C708.936 38.8002 708.008 44.0802 708.008 48.9442C708.008 53.2322 708.648 57.2322 709.288 59.3762L713.704 59.0882C713.672 58.5762 713.672 58.0002 713.672 57.6482C713.672 57.3602 713.768 56.5922 713.864 56.1442C714.216 54.3522 715.208 50.8642 716.168 47.9842L713.832 46.1602C713.416 47.0562 713.032 47.6962 712.616 48.5922C712.584 48.4642 712.584 47.9522 712.584 47.8562C712.584 44.9122 713.736 38.1922 714.088 36.5602C714.216 35.9842 714.696 34.0322 714.984 33.3282L709.64 32.8802Z" fill="#ECEFFF"/>
<path d="M757.352 42.2562C760.424 40.2722 763.208 37.9042 765.768 35.4082L761.608 31.6642C759.784 34.0962 756.488 36.9442 753.256 38.9602C749.672 41.2002 744.296 43.5362 738.568 44.7202L741.32 49.4242C744.808 48.4962 748.552 46.9922 751.784 45.3922V55.0242C751.784 56.5602 751.656 58.8002 751.528 59.6642H757.672C757.416 58.7682 757.352 56.5602 757.352 55.0242V42.2562Z" fill="#ECEFFF"/>
<path d="M796.264 34.3522L790.184 32.7842C789.32 37.3922 787.272 43.0562 784.136 46.7682C781.288 50.1282 777.064 53.2642 771.944 55.0242L776.36 59.5682C781.512 57.5202 785.896 53.4242 788.552 50.1602C791.08 47.0562 793.256 42.1602 794.664 38.3522C795.08 37.2002 795.592 35.6642 796.264 34.3522Z" fill="#ECEFFF"/>
<path d="M824.008 35.5362L820.68 36.9122C821.928 38.6722 822.568 39.9522 823.592 42.1602L827.016 40.6882C826.312 39.2482 824.968 36.9762 824.008 35.5362ZM828.392 33.7122L825.096 35.2162C826.344 36.9122 827.048 38.0962 828.168 40.3042L831.496 38.7042C830.792 37.2962 829.384 35.0882 828.392 33.7122ZM801.832 48.5282L806.408 53.2322C807.016 52.3042 807.816 51.0882 808.584 49.9682C809.8 48.2402 811.88 45.2642 813 43.7922C813.8 42.7362 814.44 42.7682 815.432 43.6322C816.488 44.5602 819.24 47.6002 821.128 49.8722C822.92 52.0162 825.8 55.7282 827.752 58.2242L831.944 53.6802C829.672 51.0562 826.152 47.3122 824.008 45.0082C822.056 42.8962 819.784 40.4962 817.512 38.5762C814.728 36.2082 812.744 36.4322 810.728 38.8322C808.424 41.5842 806.088 44.4962 804.68 45.9042C803.624 46.9602 802.856 47.6962 801.832 48.5282Z" fill="#ECEFFF"/>
<path d="M835.752 48.7522C837.064 48.6562 839.464 48.5602 841.288 48.5602H858.28C859.592 48.5602 861.384 48.7202 862.216 48.7522V42.6402C861.288 42.7042 859.72 42.8642 858.28 42.8642H841.288C839.72 42.8642 837.032 42.7362 835.752 42.6402V48.7522Z" fill="#ECEFFF"/>
<path d="M874.391 32.2402L871.575 36.5282C873.815 37.7762 877.079 39.8562 878.999 41.1362L881.879 36.8482C880.055 35.6002 876.631 33.4562 874.391 32.2402ZM867.831 54.8642L870.743 59.9842C873.495 59.5362 878.199 57.8722 881.463 56.0482C886.775 53.0082 891.351 49.0082 894.423 44.4962L891.447 39.1842C888.919 43.7922 884.311 48.3042 878.807 51.3442C875.191 53.2962 871.447 54.2562 867.831 54.8642ZM869.399 39.6002L866.583 43.8882C868.855 45.1042 872.087 47.2162 874.039 48.5602L876.887 44.2082C875.095 42.9602 871.703 40.8162 869.399 39.6002Z" fill="#ECEFFF"/>
<path d="M922.007 42.1922C922.007 41.4882 922.007 40.2082 922.039 39.7282C921.495 39.7602 920.087 39.7922 919.319 39.7922H907.351C905.975 39.7922 903.959 39.7282 902.999 39.6322V44.2722C903.895 44.2082 905.975 44.1442 907.351 44.1442H917.207V47.1842H907.767C906.487 47.1842 904.855 47.1522 903.895 47.0882V51.6322C904.727 51.5682 906.487 51.5682 907.767 51.5682H917.207V54.9922H905.527C904.343 54.9922 903.223 54.9282 902.679 54.8642V59.5682C903.223 59.5362 904.631 59.4722 905.495 59.4722H917.207C917.207 59.9522 917.175 60.4322 917.175 60.7202H922.039C922.039 60.1122 922.007 58.8002 922.007 58.2882V42.1922Z" fill="#ECEFFF"/>
<path d="M936.343 33.1682L932.663 37.1042C934.967 38.7362 938.999 42.2562 940.695 44.1122L944.663 40.0482C942.743 38.0002 938.551 34.6722 936.343 33.1682ZM931.607 54.4162L934.903 59.5362C938.935 58.8962 943.095 57.2322 946.359 55.3122C951.703 52.1762 956.247 47.7282 958.807 43.1842L955.799 37.7122C953.655 42.2242 949.335 47.1842 943.575 50.5122C940.439 52.3362 936.311 53.7762 931.607 54.4162Z" fill="#ECEFFF"/>
<path d="M693.48 91.2322C693.448 89.8242 693.384 87.6802 693.352 85.9522C695.016 85.2162 696.552 84.6082 697.768 84.1602C698.984 83.6802 700.968 82.9442 702.088 82.6242L700.2 78.2082C698.856 78.8482 697.544 79.4562 696.168 80.0642C695.048 80.5762 694.024 80.9922 692.744 81.6002C691.912 80.1282 690.376 79.3602 688.52 79.3602C687.624 79.3602 686.024 79.4882 685.384 79.6802C685.8 79.0402 686.216 78.2722 686.6 77.4402C689.992 77.3122 693.864 77.0242 696.84 76.6402L696.872 72.1922C694.216 72.6722 691.176 72.9282 688.328 73.0882C688.68 71.9042 688.904 70.9122 689.032 70.2082L683.976 69.7922C683.944 70.5922 683.784 71.8082 683.432 73.2482H682.184C680.488 73.2482 678.056 73.1202 676.488 72.8642V77.3122C678.152 77.4722 680.456 77.5362 681.768 77.5362C680.232 80.4482 677.992 83.0402 674.984 85.6962L679.08 88.7682C680.168 87.3282 681.064 86.1762 682.024 85.1842C683.112 84.1282 685.064 83.0722 686.696 83.0722C687.304 83.0722 687.944 83.2322 688.424 83.7122C684.904 85.5682 681.128 88.2242 681.128 92.3522C681.128 96.5762 684.872 97.9202 690.088 97.9202C693.224 97.9202 697.288 97.6322 699.24 97.3762L699.4 92.4162C696.616 93.0242 693 93.4082 690.184 93.4082C687.208 93.4082 686.216 92.8642 686.216 91.5202C686.216 90.2402 687.08 89.2162 689.064 88.0642C689.032 89.2482 688.968 90.4322 688.904 91.2322H693.48Z" fill="#ECEFFF"/>
<path d="M729.896 77.6642H722.248V87.2642C722.248 91.4882 723.432 92.7042 727.304 92.7042H731.24C734.568 92.7042 735.72 91.2962 736.2 86.3362C735.016 86.0482 733.096 85.3122 732.168 84.6082C732.04 88.0322 731.848 88.5762 730.824 88.5762H728.008C726.888 88.5762 726.728 88.4482 726.728 87.2322V81.6642H729.896V82.4642H734.376V69.6962H721.992V73.7602H729.896V77.6642ZM716.776 88.7362H720.936V84.7362H716.776V82.0162H721.224V77.9522H715.944V75.5842H720.424V71.5842H715.944V68.7682H711.592V71.5842H707.144V75.5842H711.592V77.9522H706.216V82.0162H712.52V90.5922C711.976 89.8562 711.528 88.9282 711.112 87.8082C711.208 86.4962 711.24 85.1522 711.272 83.8082L707.048 83.4882C707.016 88.9282 706.696 94.3682 705.256 97.6322C706.28 98.0482 708.328 99.0082 709.16 99.5522C709.736 98.1122 710.152 96.3202 710.472 94.3682C713.032 97.5682 716.808 98.2402 722.344 98.2402H734.824C735.112 96.8322 735.88 94.6882 736.584 93.6322C733.16 93.8242 725.32 93.8242 722.376 93.7922C720.2 93.7922 718.344 93.6962 716.776 93.3122V88.7362Z" fill="#ECEFFF"/>
<path d="M743.752 77.4722C746.376 77.6642 749.16 77.8242 752.552 77.8242C755.624 77.8242 759.816 77.6322 762.056 77.4402V72.2882C759.56 72.5442 755.688 72.7362 752.52 72.7362C749.096 72.7362 746.12 72.6082 743.752 72.3522V77.4722ZM742.152 85.6962C741.928 86.8482 741.544 88.4162 741.544 90.3682C741.544 94.9122 745.128 97.5362 752.84 97.5362C757.256 97.5362 760.936 97.1522 763.976 96.4802L763.944 91.0402C760.904 91.8082 756.872 92.2882 752.648 92.2882C748.36 92.2882 746.728 90.9442 746.728 89.1522C746.728 88.1282 746.952 87.2322 747.208 86.1442L742.152 85.6962Z" fill="#ECEFFF"/>
<path d="M775.304 70.4002C775.624 71.8402 775.784 73.5682 775.784 75.2642C775.784 77.6642 775.496 86.1442 775.496 90.1442C775.496 95.6802 778.952 98.1762 784.488 98.1762C791.88 98.1762 796.584 93.8242 798.568 90.7842L795.08 86.4962C792.776 90.0482 789.448 92.9282 784.52 92.9282C782.376 92.9282 780.616 91.9682 780.616 88.9282C780.616 85.4402 780.84 78.5922 781 75.2642C781.064 73.8882 781.256 71.9682 781.48 70.4642L775.304 70.4002Z" fill="#ECEFFF"/>
<path d="M820.584 75.9042H815.464V79.6162H830.76V75.9042H825.192V74.5922H831.624V70.8482H825.192V68.6082H820.584V70.8482H814.312V74.5922H820.584V75.9042ZM808.072 82.2402C808.456 81.7602 808.84 81.2482 809.224 80.7362C809.448 81.1842 809.64 81.6322 809.864 82.1122L808.072 82.2402ZM817.896 84.1922H828.04V87.3602H832.072V80.6402H814.056V82.8802C813.544 81.6002 812.904 80.2562 812.264 79.0722L809.672 80.1602C811.112 78.2082 812.552 76.1282 813.8 74.2402L810.056 72.5442C809.352 74.0162 808.424 75.7122 807.432 77.3762C807.24 77.1202 807.048 76.8642 806.824 76.6082C807.944 74.8162 809.256 72.3202 810.44 70.0482L806.44 68.6722C805.96 70.2722 805.192 72.2562 804.392 73.9842L803.816 73.4402L801.576 76.6082C802.792 77.8882 804.2 79.5522 805.064 80.9922C804.68 81.5042 804.328 82.0162 803.976 82.4962L801.576 82.6242L802.056 86.5922L806.216 86.2402V88.3522L802.632 87.7442C802.44 90.4002 802.024 93.2802 801.192 95.1362C802.088 95.4882 803.752 96.2242 804.52 96.7362C805.288 94.8802 805.896 92.0962 806.216 89.3122V99.0402H810.184V89.2482C810.76 90.9122 811.208 92.9282 811.336 94.3042L814.728 93.1842C814.536 91.6802 813.896 89.3762 813.16 87.6162L810.184 88.5442V85.9202L811.176 85.8242C811.336 86.4642 811.496 87.0402 811.56 87.5522L814.056 86.4322V87.3602H817.768V88.1602C817.768 90.4322 817 93.6322 811.944 96.0002C812.968 96.8002 814.376 98.1442 815.08 99.0722C821 96.2562 821.928 91.6482 821.928 88.2882V85.3762H817.896V84.1922ZM827.976 94.8162C827.656 94.8162 827.624 94.6882 827.624 93.6962V85.3762H823.464V93.7282C823.464 97.4082 824.104 98.6882 827.208 98.6882H828.968C831.4 98.6882 832.424 97.3442 832.776 92.4482C831.656 92.1602 829.896 91.4882 829.096 90.7842C829.032 94.3042 828.904 94.8162 828.52 94.8162H827.976Z" fill="#ECEFFF"/>
<path d="M836.84 70.4002C836.808 71.3282 836.776 72.5122 836.616 73.4722C836.2 76.0322 835.656 80.9282 835.656 86.1442C835.656 90.0482 836.84 94.6242 837.576 96.5442L841.864 96.1282C841.832 95.6162 841.8 95.0082 841.8 94.6562C841.8 94.3362 841.896 93.5682 842.024 93.0562C842.44 91.1362 843.208 87.9682 844.232 84.9282L841.896 83.4242C841.416 84.3522 840.904 85.6642 840.488 86.4322C839.848 83.2322 841 76.7362 841.64 73.8242C841.8 73.1202 842.184 71.8402 842.504 70.9442L836.84 70.4002ZM862.408 75.8722C861.192 76.0642 859.624 76.2242 857.896 76.3522C857.896 74.7842 857.896 73.3442 857.928 72.7042C857.96 72.0002 857.992 71.1682 858.12 70.3682H852.584C852.744 70.9762 852.904 72.0642 852.968 72.7042C853.032 73.5682 853.096 75.0402 853.096 76.6082C851.944 76.6402 850.792 76.6722 849.736 76.6722C848.04 76.6722 846.76 76.5762 845.096 76.3522V81.2162C846.792 81.2802 848.552 81.3762 849.864 81.3762C850.92 81.3762 852.04 81.3762 853.16 81.3442V82.5602C853.16 87.4882 852.424 89.8882 850.568 92.1602C849.608 93.2802 847.848 94.4002 846.504 95.0082L850.92 98.4962C857 94.4322 857.896 90.1762 857.896 82.5922V81.1522C859.624 81.0562 861.192 80.9602 862.376 80.8642L862.408 75.8722Z" fill="#ECEFFF"/>
<path d="M880.584 93.5682C878.984 93.5682 877.928 92.8642 877.928 91.8722C877.928 91.2322 878.536 90.6242 879.56 90.6242C880.904 90.6242 881.864 91.7442 882.024 93.5042C881.576 93.5362 881.096 93.5682 880.584 93.5682ZM887.784 70.8162C887.368 70.9442 886.472 71.0722 884.968 71.2002C883.08 71.3602 876.744 71.4562 875.048 71.4562C873.992 71.4562 872.808 71.3922 871.816 71.2642L871.976 76.2242C872.744 76.0962 873.864 76.0002 874.824 75.9362C876.52 75.8082 879.784 75.6802 881.384 75.6482C879.848 77.0242 876.904 79.2962 875.144 80.7682C873.256 82.3042 869.576 85.4402 867.528 87.0402L871.016 90.6562C874.056 86.9442 877.384 84.1602 882.024 84.1602C885.512 84.1602 888.296 85.8562 888.296 88.5762C888.296 90.1122 887.688 91.3602 886.44 92.2242C885.896 89.2162 883.4 86.9762 879.528 86.9762C875.944 86.9762 873.384 89.5682 873.384 92.3522C873.384 95.8402 877.096 97.9202 881.576 97.9202C889.768 97.9202 893.352 93.6002 893.352 88.6402C893.352 83.8722 889.064 80.3842 883.624 80.3842C882.856 80.3842 882.248 80.4162 881.416 80.5762C883.144 79.2322 885.928 76.9602 887.72 75.7442C888.52 75.2002 889.32 74.7202 890.152 74.2082L887.784 70.8162Z" fill="#ECEFFF"/>
<path d="M415.704 47.9522C415.192 47.1522 412.92 43.6322 412.056 42.4482V41.3922H415V37.1042H412.056V30.6402H407.864V37.1042H404.312V41.3922H407.544C406.776 44.9122 405.272 48.9442 403.512 51.3762C404.152 52.4642 405.112 54.2562 405.496 55.5042C406.392 54.1922 407.16 52.4962 407.864 50.5762V61.0402H412.056V48.1762C412.568 49.3282 413.048 50.4162 413.368 51.2482L415.704 47.9522ZM421.816 50.3522C421.176 49.2642 419.8 47.6962 418.68 46.5762L415.544 48.6562C416.632 49.8722 417.944 51.5682 418.488 52.6562L421.816 50.3522ZM430.52 46.4802C429.848 47.3762 428.824 48.5282 427.864 49.4562C427.48 48.7842 427.16 48.0482 426.872 47.3122V46.1922H434.04V42.4482H426.872V41.6802H432.728V38.2562H426.872V37.5522H433.368V33.9362H430.936C431.384 33.2322 431.864 32.4642 432.408 31.6322L427.768 30.5762C427.512 31.5362 427.032 32.8802 426.552 33.9362H422.936C422.616 32.9762 421.912 31.6642 421.24 30.6722L417.592 31.8882C417.944 32.4962 418.296 33.2322 418.584 33.9362H415.768V37.5522H422.392V38.2562H416.568V41.6802H422.392V42.4482H415.16V46.1922H422.392V56.5922C422.392 56.9442 422.264 57.1042 421.88 57.1042C421.528 57.1042 420.408 57.1042 419.512 57.0402C420.472 56.4962 421.432 55.9522 422.328 55.4402L421.144 51.6962C418.488 53.0082 415.768 54.3522 413.912 55.1202L415.896 59.0242C417.016 58.4482 418.232 57.7762 419.48 57.0722C419.992 58.1602 420.504 59.9202 420.632 61.1042C422.68 61.1042 424.216 61.0082 425.4 60.3362C426.552 59.6642 426.872 58.5762 426.872 56.6242V54.8002C428.152 56.7522 429.752 58.3842 431.736 59.5042C432.376 58.3202 433.72 56.5922 434.648 55.7282C432.824 54.9922 431.288 53.8722 430.04 52.4962C431.224 51.5362 432.696 50.2242 434.008 48.9442L430.52 46.4802Z" fill="#ECEFFF"/>
<path d="M459.832 38.0002L458.968 38.1922H450.424C451.096 36.5922 451.704 34.9922 452.216 33.4242L447.064 32.2722C445.528 37.9682 442.072 45.3282 437.272 49.5202C438.584 50.0962 440.664 51.2802 441.752 52.0802C444.28 49.6802 446.456 46.3842 448.28 42.8322H456.536C455.576 45.0082 454.264 47.3762 452.824 49.4882C451.256 48.7202 449.688 48.0162 448.28 47.4402L445.432 51.3442C449.72 53.2642 455.064 56.4962 457.432 59.0242L460.632 54.5442C459.768 53.7122 458.552 52.8162 457.176 51.9522C459.736 48.2082 462.104 43.6962 463.384 39.9202L459.832 38.0002Z" fill="#ECEFFF"/>
<path d="M497.528 40.1442C495.832 38.9602 491.736 36.7842 489.464 35.7922L487 39.6002C489.208 40.5602 492.92 42.7042 494.808 44.1762L497.528 40.1442ZM485.304 35.2162C484.248 35.5362 482.904 35.8562 481.432 36.1442C481.88 34.5442 482.232 33.1042 482.456 32.1122L477.208 31.6002C477.144 33.2322 476.856 35.0562 476.408 36.7842C475.576 36.8482 474.776 36.8802 473.944 36.8802C472.888 36.8802 471 36.8162 469.528 36.6562L469.88 41.0722C471.352 41.1682 472.632 41.2002 473.976 41.2002C474.296 41.2002 474.648 41.2002 475 41.1682C473.624 44.4642 471.192 48.9122 468.696 52.0162L473.336 54.3522C475.896 50.6722 478.584 45.1682 480.056 40.7202C482.2 40.4002 484.12 39.9842 485.432 39.6322L485.304 35.2162ZM485.56 52.8482C485.56 54.6082 484.984 55.7282 483.096 55.7282C481.752 55.7282 480.888 55.0242 480.888 54.0002C480.888 53.1042 481.848 52.4642 483.416 52.4642C484.152 52.4642 484.888 52.5602 485.56 52.6882V52.8482ZM485.048 42.0322C485.144 43.8242 485.272 46.4162 485.4 48.6882C484.856 48.6242 484.312 48.5922 483.736 48.5922C478.84 48.5922 476.344 51.3122 476.344 54.4802C476.344 58.1602 479.608 60.1122 483.8 60.1122C488.472 60.1122 490.136 57.8402 490.232 54.8002C491.8 55.8882 493.08 57.1042 494.072 58.0322L496.6 53.9042C495.032 52.4322 492.792 50.8322 490.04 49.7762C489.976 48.4642 489.912 47.2162 489.88 46.4802C489.848 44.9122 489.784 43.4082 489.88 42.0322H485.048Z" fill="#ECEFFF"/>
<path d="M527.384 44.0162C526.456 44.2722 525.112 44.5922 523.864 44.8482C522.52 45.1042 520.12 45.5202 517.464 45.9682L516.632 41.5842L522.424 40.6562C523.448 40.5282 524.92 40.3042 525.752 40.2402L524.824 35.1842C523.928 35.4402 522.488 35.7602 521.432 35.9522C520.408 36.1442 518.232 36.5282 515.768 36.9122C515.544 35.6642 515.352 34.7042 515.288 34.2242C515.128 33.4242 515.032 32.2402 514.936 31.6002L509.464 32.4642C509.72 33.2642 509.944 34.0642 510.168 35.0242L510.68 37.6802C508.056 38.0962 505.752 38.4162 504.728 38.5442C503.736 38.6722 502.712 38.7362 501.592 38.8002L502.616 44.0802C503.704 43.7922 504.6 43.5682 505.752 43.3442C506.616 43.1842 508.92 42.8002 511.576 42.3842L512.408 46.7682C509.4 47.2482 506.68 47.6642 505.272 47.8882C504.184 48.0482 502.584 48.2402 501.688 48.2722L502.776 53.3922C503.512 53.2002 504.728 52.9762 506.168 52.7202C507.48 52.4642 510.232 51.9842 513.272 51.4722C513.72 53.9042 514.104 55.9202 514.264 56.9122C514.456 57.8722 514.52 59.0242 514.68 60.2722L520.248 59.3122C519.96 58.1922 519.64 57.0082 519.416 56.0482C519.192 54.9602 518.808 52.9762 518.36 50.6402C520.984 50.2242 523.352 49.8402 524.76 49.6162C525.976 49.4242 527.448 49.1682 528.408 49.1042L527.384 44.0162Z" fill="#ECEFFF"/>
<path d="M552.632 52.8802C554.904 50.3522 558.072 45.3602 559.448 42.5122L556.312 40.3042C555.832 40.5282 555.128 40.7522 554.488 40.8802C553.144 41.1682 549.176 41.9362 545.4 42.6722L544.632 39.8882C544.44 39.0562 544.216 38.1282 544.088 37.2642L538.904 38.4802C539.288 39.2482 539.672 40.1122 539.896 40.9442C540.12 41.6162 540.376 42.5442 540.632 43.5682C539.384 43.7922 538.424 43.9522 538.008 44.0162C536.888 44.2082 535.96 44.3042 534.904 44.4002L536.088 49.0082C537.112 48.7842 539.288 48.3042 541.752 47.7602C542.872 51.9842 544.056 56.6242 544.568 58.4802C544.856 59.4402 545.08 60.6242 545.208 61.5522L550.456 60.2722C550.2 59.6002 549.688 57.9362 549.528 57.3922C548.984 55.6002 547.736 51.0242 546.552 46.7362C549.432 46.1282 551.928 45.6162 552.664 45.4882C551.928 46.8642 549.816 49.4242 548.376 50.7682L552.632 52.8802Z" fill="#ECEFFF"/>
<path d="M568.76 33.1362C568.856 33.9362 568.888 35.0562 568.888 35.6642V46.5122C568.888 47.5042 568.76 48.8802 568.728 49.5202H574.488C574.424 48.6882 574.36 47.3442 574.36 46.5442V35.6642C574.36 34.5122 574.424 33.9362 574.488 33.1362H568.76ZM583.448 32.8482C583.576 33.8082 583.672 34.8962 583.672 36.3042V42.9282C583.672 47.3442 583.224 49.6162 581.08 51.8882C579.16 53.8722 576.536 55.0562 573.208 55.7922L577.272 60.0802C579.608 59.3442 582.968 57.7122 585.112 55.4722C587.544 52.9122 589.048 49.7122 589.048 43.2802V36.3042C589.048 34.8962 589.112 33.8082 589.176 32.8482H583.448Z" fill="#ECEFFF"/>
<path d="M607.16 40.6882C607.352 41.8402 607.416 42.7682 607.416 43.8882C607.416 49.1042 606.616 51.8242 603.064 54.5122C601.72 55.5362 600.536 56.0802 599.416 56.4642L603.928 60.1442C612.952 55.1202 612.792 48.2082 612.792 40.6882H607.16ZM622.904 33.4882C622.232 33.6802 620.12 33.8082 619.064 33.8082H602.456C601.048 33.8082 599.704 33.6482 598.392 33.4562V38.8002C600.056 38.6402 601.048 38.5442 602.456 38.5442H618.264C617.56 39.8882 615.352 42.3202 612.984 43.8242L616.984 47.0242C619.864 44.9442 622.904 40.9442 624.536 38.2562C624.856 37.7442 625.592 36.8162 625.976 36.3362L622.904 33.4882Z" fill="#ECEFFF"/>
<path d="M423.48 91.2322C423.448 89.8242 423.384 87.6802 423.352 85.9522C425.016 85.2162 426.552 84.6082 427.768 84.1602C428.984 83.6802 430.968 82.9442 432.088 82.6242L430.2 78.2082C428.856 78.8482 427.544 79.4562 426.168 80.0642C425.048 80.5762 424.024 80.9922 422.744 81.6002C421.912 80.1282 420.376 79.3602 418.52 79.3602C417.624 79.3602 416.024 79.4882 415.384 79.6802C415.8 79.0402 416.216 78.2722 416.6 77.4402C419.992 77.3122 423.864 77.0242 426.84 76.6402L426.872 72.1922C424.216 72.6722 421.176 72.9282 418.328 73.0882C418.68 71.9042 418.904 70.9122 419.032 70.2082L413.976 69.7922C413.944 70.5922 413.784 71.8082 413.432 73.2482H412.184C410.488 73.2482 408.056 73.1202 406.488 72.8642V77.3122C408.152 77.4722 410.456 77.5362 411.768 77.5362C410.232 80.4482 407.992 83.0402 404.984 85.6962L409.08 88.7682C410.168 87.3282 411.064 86.1762 412.024 85.1842C413.112 84.1282 415.064 83.0722 416.696 83.0722C417.304 83.0722 417.944 83.2322 418.424 83.7122C414.904 85.5682 411.128 88.2242 411.128 92.3522C411.128 96.5762 414.872 97.9202 420.088 97.9202C423.224 97.9202 427.288 97.6322 429.24 97.3762L429.4 92.4162C426.616 93.0242 423 93.4082 420.184 93.4082C417.208 93.4082 416.216 92.8642 416.216 91.5202C416.216 90.2402 417.08 89.2162 419.064 88.0642C419.032 89.2482 418.968 90.4322 418.904 91.2322H423.48Z" fill="#ECEFFF"/>
<path d="M454.264 87.8722C453.336 88.9282 452.216 89.8242 450.936 90.5922C449.4 89.8242 448.088 88.8962 447 87.8722H454.264ZM448.408 74.3682C448.824 75.4242 449.24 76.7682 449.432 77.7922H444.312L445.656 77.4082C445.432 76.5122 444.856 75.2962 444.248 74.2402C446.36 74.1442 448.504 74.0162 450.648 73.8562L448.408 74.3682ZM460.92 85.0562H465.24V77.7922H461.208C461.816 76.7682 462.488 75.6482 463.128 74.4642L458.136 73.3762C457.784 74.7202 457.176 76.3842 456.568 77.7922H451.864L453.848 77.3122C453.688 76.2882 453.208 74.8482 452.632 73.6962C456.824 73.3442 460.888 72.8322 464.44 72.1922L461.336 68.4162C455.224 69.5682 445.688 70.3042 437.112 70.5282C437.528 71.5202 438.072 73.3122 438.136 74.4642C439.576 74.4322 441.08 74.4002 442.584 74.3362L439.992 75.0402C440.408 75.8722 440.856 76.9282 441.144 77.7922H436.824V85.0562H441.176V81.7922H460.696V84.9282L458.2 83.4562L457.4 83.6162H441.88V87.8722H443.48L441.976 88.4802C443.224 90.0802 444.632 91.4562 446.232 92.6402C443.256 93.6002 439.8 94.1442 436.024 94.4642C436.984 95.4242 438.296 97.4722 438.744 98.6242C443.224 98.0482 447.384 97.0562 450.968 95.4242C454.36 96.9922 458.36 97.9842 462.968 98.5282C463.576 97.2482 464.824 95.2002 465.816 94.1442C462.136 93.8562 458.776 93.3122 455.832 92.4802C458.168 90.6242 460.056 88.2562 461.368 85.3122L460.92 85.0562Z" fill="#ECEFFF"/>
<path d="M473.624 75.1682H492.184V78.0802C490.712 77.0562 489.112 76.0322 487.8 75.2642L484.504 77.9522C487.16 79.6482 490.584 82.2082 492.12 83.9362L495.672 80.8962C494.936 80.1602 493.944 79.3602 492.792 78.5282H496.952V70.9762H485.304V68.6402H480.504V70.9762H469.08V78.5282H473.624V75.1682ZM476.92 75.3282C475.48 77.4402 472.824 79.3922 470.104 80.5442C471.032 81.4082 472.632 83.2962 473.272 84.2562C476.28 82.5922 479.48 79.8082 481.4 76.8322L476.92 75.3282ZM479.032 87.8082C480.696 86.4962 482.136 85.1202 483.192 83.8082C484.28 85.1522 485.784 86.5282 487.544 87.8082H479.032ZM478.424 94.1762V91.8722H487.64V94.1762H478.424ZM480.6 79.5842C478.296 82.8802 473.4 86.7522 468.248 88.6082C469.144 89.6002 470.296 91.4242 470.84 92.5442C471.864 92.1282 472.92 91.6162 473.912 91.1042V99.0402H478.424V98.2402H487.64V99.0402H492.376V90.8482C493.4 91.3922 494.456 91.8722 495.448 92.2882C496.216 90.9122 497.24 89.2162 498.328 88.0322C493.432 86.6562 488.792 83.7762 485.4 79.5842H480.6Z" fill="#ECEFFF"/>
<path d="M1421.38 44.0156C1420.46 44.2716 1419.11 44.5916 1417.86 44.8476C1416.52 45.1036 1414.12 45.5196 1411.46 45.9676L1410.63 41.5836L1416.42 40.6556C1417.45 40.5276 1418.92 40.3036 1419.75 40.2396L1418.82 35.1836C1417.93 35.4396 1416.49 35.7596 1415.43 35.9516C1414.41 36.1436 1412.23 36.5276 1409.77 36.9116C1409.54 35.6636 1409.35 34.7036 1409.29 34.2236C1409.13 33.4236 1409.03 32.2396 1408.94 31.5996L1403.46 32.4636C1403.72 33.2636 1403.94 34.0636 1404.17 35.0236L1404.68 37.6796C1402.06 38.0956 1399.75 38.4156 1398.73 38.5436C1397.74 38.6716 1396.71 38.7356 1395.59 38.7996L1396.62 44.0796C1397.7 43.7916 1398.6 43.5676 1399.75 43.3436C1400.62 43.1836 1402.92 42.7996 1405.58 42.3836L1406.41 46.7676C1403.4 47.2476 1400.68 47.6636 1399.27 47.8876C1398.18 48.0476 1396.58 48.2396 1395.69 48.2716L1396.78 53.3916C1397.51 53.1996 1398.73 52.9756 1400.17 52.7196C1401.48 52.4636 1404.23 51.9836 1407.27 51.4716C1407.72 53.9036 1408.1 55.9196 1408.26 56.9116C1408.46 57.8716 1408.52 59.0236 1408.68 60.2716L1414.25 59.3116C1413.96 58.1916 1413.64 57.0076 1413.42 56.0476C1413.19 54.9596 1412.81 52.9756 1412.36 50.6396C1414.98 50.2236 1417.35 49.8396 1418.76 49.6156C1419.98 49.4236 1421.45 49.1676 1422.41 49.1036L1421.38 44.0156Z" fill="#ECEFFF"/>
<path d="M1446.63 52.8796C1448.9 50.3516 1452.07 45.3596 1453.45 42.5116L1450.31 40.3036C1449.83 40.5276 1449.13 40.7516 1448.49 40.8796C1447.14 41.1676 1443.18 41.9356 1439.4 42.6716L1438.63 39.8876C1438.44 39.0556 1438.22 38.1276 1438.09 37.2636L1432.9 38.4796C1433.29 39.2476 1433.67 40.1116 1433.9 40.9436C1434.12 41.6156 1434.38 42.5436 1434.63 43.5676C1433.38 43.7916 1432.42 43.9516 1432.01 44.0156C1430.89 44.2076 1429.96 44.3036 1428.9 44.3996L1430.09 49.0076C1431.11 48.7836 1433.29 48.3036 1435.75 47.7596C1436.87 51.9836 1438.06 56.6236 1438.57 58.4796C1438.86 59.4396 1439.08 60.6236 1439.21 61.5516L1444.46 60.2716C1444.2 59.5996 1443.69 57.9356 1443.53 57.3916C1442.98 55.5996 1441.74 51.0236 1440.55 46.7356C1443.43 46.1276 1445.93 45.6156 1446.66 45.4876C1445.93 46.8636 1443.82 49.4236 1442.38 50.7676L1446.63 52.8796Z" fill="#ECEFFF"/>
<path d="M1462.76 33.1356C1462.86 33.9356 1462.89 35.0556 1462.89 35.6636V46.5116C1462.89 47.5036 1462.76 48.8796 1462.73 49.5196H1468.49C1468.42 48.6876 1468.36 47.3436 1468.36 46.5436V35.6636C1468.36 34.5116 1468.42 33.9356 1468.49 33.1356H1462.76ZM1477.45 32.8476C1477.58 33.8076 1477.67 34.8956 1477.67 36.3036V42.9276C1477.67 47.3436 1477.22 49.6156 1475.08 51.8876C1473.16 53.8716 1470.54 55.0556 1467.21 55.7916L1471.27 60.0796C1473.61 59.3436 1476.97 57.7116 1479.11 55.4716C1481.54 52.9116 1483.05 49.7116 1483.05 43.2796V36.3036C1483.05 34.8956 1483.11 33.8076 1483.18 32.8476H1477.45Z" fill="#ECEFFF"/>
<path d="M1501.16 40.6876C1501.35 41.8396 1501.42 42.7676 1501.42 43.8876C1501.42 49.1036 1500.62 51.8236 1497.06 54.5116C1495.72 55.5356 1494.54 56.0796 1493.42 56.4636L1497.93 60.1436C1506.95 55.1196 1506.79 48.2076 1506.79 40.6876H1501.16ZM1516.9 33.4876C1516.23 33.6796 1514.12 33.8076 1513.06 33.8076H1496.46C1495.05 33.8076 1493.7 33.6476 1492.39 33.4556V38.7996C1494.06 38.6396 1495.05 38.5436 1496.46 38.5436H1512.26C1511.56 39.8876 1509.35 42.3196 1506.98 43.8236L1510.98 47.0236C1513.86 44.9436 1516.9 40.9436 1518.54 38.2556C1518.86 37.7436 1519.59 36.8156 1519.98 36.3356L1516.9 33.4876Z" fill="#ECEFFF"/>
<path d="M1525.35 32.7836C1525.32 33.9676 1525.13 35.4076 1525 36.3676C1524.65 38.7036 1523.75 44.6556 1523.75 49.5196C1523.75 53.8076 1524.39 57.5196 1525.06 59.6636L1529.38 59.3756C1529.35 58.8636 1529.35 58.2876 1529.35 57.9356C1529.35 57.6156 1529.45 56.8796 1529.54 56.4316C1529.93 54.6076 1530.89 51.4076 1531.85 48.5596L1529.51 46.7036C1529.1 47.6316 1528.71 48.2396 1528.33 49.1676C1528.3 49.0396 1528.3 48.5276 1528.3 48.4316C1528.3 45.4876 1529.38 38.0956 1529.77 36.4636C1529.9 35.8876 1530.34 33.9356 1530.63 33.2316L1525.35 32.7836ZM1541.26 52.4636C1541.26 54.1916 1540.65 55.0236 1539.11 55.0236C1537.77 55.0236 1536.65 54.6396 1536.65 53.5196C1536.65 52.5276 1537.64 51.9516 1539.11 51.9516C1539.85 51.9516 1540.55 52.0476 1541.26 52.2396V52.4636ZM1552.07 53.5836C1550.66 52.2716 1548.71 50.6076 1545.99 49.4876C1545.9 47.6316 1545.74 45.3596 1545.67 42.4796C1547.34 42.3516 1548.9 42.1596 1550.31 41.9676V37.1996C1548.87 37.4876 1547.3 37.7436 1545.7 37.9036C1545.74 36.5916 1545.77 35.5356 1545.8 34.9276C1545.83 34.2236 1545.9 33.4236 1545.99 32.8156H1540.52C1540.65 33.4876 1540.78 34.5116 1540.78 34.9916C1540.81 35.5676 1540.81 36.7516 1540.84 38.2236C1540.23 38.2556 1539.66 38.2556 1539.05 38.2556C1537.13 38.2556 1535.24 38.1596 1533.38 37.9676L1533.42 42.5436C1535.3 42.6716 1537.19 42.7356 1539.08 42.7356C1539.66 42.7356 1540.26 42.7356 1540.87 42.7036C1540.9 44.6876 1541 46.6396 1541.1 48.3036C1540.58 48.2716 1540.04 48.2396 1539.5 48.2396C1535.08 48.2396 1532.17 50.5116 1532.17 54.0636C1532.17 57.6476 1535.11 59.5676 1539.56 59.5676C1543.72 59.5676 1545.67 57.7116 1546.09 54.7356C1547.18 55.5356 1548.3 56.4956 1549.48 57.6156L1552.07 53.5836Z" fill="#ECEFFF"/>
<path d="M1413.45 82.8796C1415.37 84.7996 1416.58 86.6876 1416.58 88.8316C1416.58 91.0716 1414.5 93.0556 1410.31 93.0556C1407.46 93.0556 1405.96 91.9036 1405.96 89.5356C1405.96 89.0876 1405.99 88.4476 1406.06 87.7116C1406.47 87.7116 1406.92 87.7116 1407.37 87.7116C1409.26 87.7116 1411.05 87.5836 1412.62 87.4236L1412.74 82.8796C1410.76 83.1036 1408.33 83.2636 1406.54 83.2636H1406.5C1406.63 82.1116 1406.79 80.8956 1406.95 79.7436C1409.48 79.7436 1411.08 79.6156 1412.84 79.4236L1413 74.8796C1411.69 75.1036 1409.74 75.2636 1407.56 75.2956C1407.69 74.4316 1407.78 73.7596 1407.85 73.3436C1408.01 72.4476 1408.17 71.5196 1408.49 70.1756L1403.11 69.8876C1403.21 71.0716 1403.11 72.0956 1403.05 73.0236C1403.02 73.6316 1402.95 74.3356 1402.86 75.1356C1400.58 74.9436 1398.31 74.5596 1396.55 73.9516L1396.33 78.3676C1398.12 78.8476 1400.2 79.2636 1402.34 79.4876L1401.9 83.0396C1399.91 82.8476 1397.93 82.4636 1395.91 81.7916L1395.66 86.4316C1397.22 86.8476 1399.18 87.1996 1401.38 87.4236C1401.26 88.6396 1401.19 89.6636 1401.19 90.3676C1401.19 95.7436 1404.74 98.0476 1410.15 98.0476C1417.45 98.0476 1421.8 94.3036 1421.8 89.4716C1421.8 86.7836 1420.87 84.5436 1418.82 81.7276L1413.45 82.8796Z" fill="#ECEFFF"/>
<path d="M1429.38 81.9836L1431.34 86.9756C1434.44 85.6316 1440.39 83.1676 1443.94 83.1676C1446.44 83.1676 1448.04 84.6396 1448.04 86.8156C1448.04 90.6556 1443.05 92.5436 1435.62 92.7356L1437.67 97.4716C1448.58 96.7996 1453.16 92.4156 1453.16 86.9116C1453.16 81.8236 1449.74 78.6876 1444.42 78.6876C1440.52 78.6876 1435.08 80.4796 1432.97 81.1196C1432.04 81.4076 1430.31 81.8236 1429.38 81.9836Z" fill="#ECEFFF"/>
<path d="M1480.62 73.1516C1479.69 73.9196 1478.66 74.5276 1477.32 75.2956C1475.94 76.0956 1473.54 77.3436 1471.21 78.6876C1469.96 76.3196 1468.55 73.4396 1467.4 70.2396L1462.57 72.1916C1463.98 75.5196 1465.45 78.7516 1466.92 81.4716C1464.01 83.6796 1461.77 86.2716 1461.77 89.8876C1461.77 95.7436 1466.79 97.5036 1473.32 97.5036C1477.54 97.5036 1480.71 97.1836 1483.59 96.7036L1483.66 91.1676C1480.65 91.8396 1476.33 92.3836 1473.19 92.3836C1469.13 92.3836 1467.11 91.3916 1467.11 89.3116C1467.11 87.2316 1468.87 85.5356 1471.34 83.9356C1474.12 82.1436 1477.83 80.4476 1479.72 79.5196C1481 78.8796 1482.15 78.2716 1483.27 77.5996L1480.62 73.1516Z" fill="#ECEFFF"/>
<path d="M1497.96 93.1836V90.6556H1512.2V93.1836H1497.96ZM1512.2 83.8716V86.3676H1497.96V83.8716H1512.2ZM1512.2 77.1196V79.5836H1497.96V77.1196H1512.2ZM1506.47 72.6716C1506.92 71.6156 1507.43 70.3996 1507.88 69.1836L1502.18 68.6076C1502.06 69.8236 1501.8 71.3276 1501.51 72.6716H1493.26V98.9756H1497.96V97.4716H1512.2V98.9756H1517.16V72.6716H1506.47Z" fill="#ECEFFF"/>
<path d="M1539.21 92.8956V88.3836H1545.29V92.8956H1539.21ZM1528.65 88.3836H1534.41V92.8956H1528.65V88.3836ZM1534.41 79.3596V83.8396H1528.65V79.3596H1534.41ZM1545.29 79.3596V83.8396H1539.21V79.3596H1545.29ZM1539.21 74.6556V68.6716H1534.41V74.6556H1523.98V99.0716H1528.65V97.5036H1545.29V99.0716H1550.18V74.6556H1539.21Z" fill="#ECEFFF"/>
<path d="M1567.21 73.2476L1567.24 78.1756C1571.46 78.5276 1577 78.4956 1581.16 78.1756V73.2156C1577.61 73.5996 1571.34 73.7596 1567.21 73.2476ZM1566.09 86.7516C1565.74 88.2876 1565.51 89.6636 1565.51 91.1036C1565.51 94.4636 1568.26 96.5436 1573.8 96.5436C1577.54 96.5436 1580.07 96.3196 1582.15 95.9356L1582.06 90.7516C1579.18 91.3276 1576.9 91.5836 1574.06 91.5836C1571.46 91.5836 1570.15 91.0716 1570.15 89.6636C1570.15 88.8316 1570.25 88.1276 1570.47 87.1356L1566.09 86.7516ZM1557.64 70.8796C1557.61 72.0636 1557.38 73.5036 1557.26 74.4636C1556.94 76.7996 1556.01 82.0796 1556.01 86.9436C1556.01 91.2316 1556.65 95.2316 1557.29 97.3756L1561.7 97.0876C1561.67 96.5756 1561.67 95.9996 1561.67 95.6476C1561.67 95.3596 1561.77 94.5916 1561.86 94.1436C1562.22 92.3516 1563.21 88.8636 1564.17 85.9836L1561.83 84.1596C1561.42 85.0556 1561.03 85.6956 1560.62 86.5916C1560.58 86.4636 1560.58 85.9516 1560.58 85.8556C1560.58 82.9116 1561.74 76.1916 1562.09 74.5596C1562.22 73.9836 1562.7 72.0316 1562.98 71.3276L1557.64 70.8796Z" fill="#ECEFFF"/>
<path d="M1934.75 57.9997H1940.48V34.1917H1934.75V57.9997Z" fill="#ECEFFF"/>
<path d="M1950.55 57.9997H1956.28V38.9277H1962.74V34.1917H1944.12V38.9277H1950.55V57.9997Z" fill="#ECEFFF"/>
<path d="M1982.28 52.3997V40.2717H1988.55C1989.48 40.2717 1990.66 40.3357 1991.69 40.4317V35.1197C1990.7 35.2477 1989.51 35.3437 1988.55 35.3437H1971.21C1970.22 35.3437 1968.81 35.2477 1967.98 35.1197V40.4317C1968.81 40.3357 1970.22 40.2717 1971.21 40.2717H1976.84V52.3997H1969.19C1968.17 52.3997 1966.92 52.3037 1965.86 52.1117V57.7117C1966.98 57.5837 1968.2 57.5517 1969.19 57.5517H1990.28C1991.08 57.5517 1992.52 57.5837 1993.45 57.7117V52.1117C1992.62 52.2397 1991.5 52.3997 1990.28 52.3997H1982.28Z" fill="#ECEFFF"/>
<path d="M2003.62 33.1677L1999.94 37.1037C2002.25 38.7357 2006.28 42.2557 2007.98 44.1117L2011.94 40.0477C2010.02 37.9997 2005.83 34.6717 2003.62 33.1677ZM1998.89 54.4157L2002.18 59.5357C2006.22 58.8957 2010.38 57.2317 2013.64 55.3117C2018.98 52.1757 2023.53 47.7277 2026.09 43.1837L2023.08 37.7117C2020.94 42.2237 2016.62 47.1837 2010.86 50.5117C2007.72 52.3357 2003.59 53.7757 1998.89 54.4157Z" fill="#ECEFFF"/>
<path d="M2051.24 33.0397L2048.04 34.3517C2049.29 36.1117 2049.8 37.1677 2050.82 39.3757L2054.12 37.9677C2053.42 36.5277 2052.2 34.4797 2051.24 33.0397ZM2055.78 31.4717L2052.52 32.8157C2053.77 34.5117 2054.38 35.4397 2055.5 37.6477L2058.76 36.2077C2057.99 34.8317 2056.84 32.8477 2055.78 31.4717ZM2037.22 32.3357L2034.41 36.6237C2036.65 37.8717 2039.91 39.9517 2041.83 41.2317L2044.71 36.9437C2042.89 35.6957 2039.46 33.5517 2037.22 32.3357ZM2030.66 54.9597L2033.58 60.0797C2036.33 59.6317 2041.03 57.9677 2044.3 56.1437C2049.61 53.1037 2054.18 49.1037 2057.26 44.5917L2054.28 39.2797C2051.75 43.8877 2047.14 48.3997 2041.64 51.4397C2038.02 53.3917 2034.28 54.3517 2030.66 54.9597ZM2032.23 39.6957L2029.42 43.9837C2031.69 45.1997 2034.92 47.3117 2036.87 48.6557L2039.72 44.3037C2037.93 43.0557 2034.54 40.9117 2032.23 39.6957Z" fill="#ECEFFF"/>
<path d="M2062.28 57.2317C2063.56 57.1037 2065.35 57.0077 2066.66 57.0077H2084.58C2085.58 57.0077 2087.21 57.1037 2088.46 57.2317V51.3117C2087.27 51.4397 2085.74 51.5357 2084.58 51.5357H2066.66C2065.35 51.5357 2063.62 51.4077 2062.28 51.3117V57.2317ZM2064.94 41.3917C2066.09 41.3277 2067.78 41.2637 2069.06 41.2637H2082.02C2083.18 41.2637 2084.84 41.3597 2085.8 41.3917V35.7597C2084.87 35.8877 2083.37 35.9837 2082.02 35.9837H2069.03C2067.91 35.9837 2066.18 35.9197 2064.94 35.7597V41.3917Z" fill="#ECEFFF"/>
<path d="M2103.82 40.6877C2104.01 41.8397 2104.07 42.7677 2104.07 43.8877C2104.07 49.1037 2103.27 51.8237 2099.72 54.5117C2098.38 55.5357 2097.19 56.0797 2096.07 56.4637L2100.58 60.1437C2109.61 55.1197 2109.45 48.2077 2109.45 40.6877H2103.82ZM2119.56 33.4877C2118.89 33.6797 2116.78 33.8077 2115.72 33.8077H2099.11C2097.7 33.8077 2096.36 33.6477 2095.05 33.4557V38.7997C2096.71 38.6397 2097.7 38.5437 2099.11 38.5437H2114.92C2114.22 39.8877 2112.01 42.3197 2109.64 43.8237L2113.64 47.0237C2116.52 44.9437 2119.56 40.9437 2121.19 38.2557C2121.51 37.7437 2122.25 36.8157 2122.63 36.3357L2119.56 33.4877Z" fill="#ECEFFF"/>
<path d="M2146.65 35.1517C2145.72 35.9197 2144.7 36.5277 2143.35 37.2957C2141.98 38.0957 2139.58 39.3437 2137.24 40.6877C2135.99 38.3197 2134.58 35.4397 2133.43 32.2397L2128.6 34.1917C2130.01 37.5197 2131.48 40.7517 2132.95 43.4717C2130.04 45.6797 2127.8 48.2717 2127.8 51.8877C2127.8 57.7437 2132.82 59.5037 2139.35 59.5037C2143.58 59.5037 2146.74 59.1837 2149.62 58.7037L2149.69 53.1677C2146.68 53.8397 2142.36 54.3837 2139.22 54.3837C2135.16 54.3837 2133.14 53.3917 2133.14 51.3117C2133.14 49.2317 2134.9 47.5357 2137.37 45.9357C2140.15 44.1437 2143.86 42.4477 2145.75 41.5197C2147.03 40.8797 2148.18 40.2717 2149.3 39.5997L2146.65 35.1517Z" fill="#ECEFFF"/>
<path d="M1945.22 68.4477C1942.88 72.3837 1937.79 77.3757 1932.22 80.0957C1933.25 81.0557 1934.59 82.7837 1935.2 83.8717C1940.42 80.9917 1945.18 76.8317 1947.84 73.0557C1950.5 76.7997 1955.74 81.2157 1960.7 83.9037C1961.6 82.4637 1962.66 80.9277 1963.84 79.7117C1958.62 77.6637 1953.6 73.5997 1950.08 68.4477H1945.22ZM1950.66 88.4797H1958.85V84.3517H1950.66V77.8557H1945.7V94.0157H1942.05V83.2317H1937.47V94.0157H1934.3V98.2077H1961.7V94.0157H1950.66V88.4797Z" fill="#ECEFFF"/>
<path d="M1983.46 77.3757C1983.23 78.0797 1982.94 78.8157 1982.66 79.4557H1977.22L1977.6 79.3917C1977.44 78.8477 1977.12 78.0797 1976.77 77.3757H1983.46ZM1994.5 91.9037V88.1277H1982.27V87.2317H1991.68V83.9357H1982.27V83.0397H1993.12V79.4557H1987.36C1987.74 78.8157 1988.16 78.1117 1988.61 77.3757H1994.4V73.5997H1990.72C1991.42 72.5757 1992.22 71.2957 1993.06 69.9197L1988.16 68.7997C1987.78 70.1757 1987.04 72.0317 1986.37 73.3117L1987.33 73.5997H1985.22V68.6077H1980.83V73.5997H1979.3V68.6077H1974.98V73.5997H1972.67L1974.11 73.0877C1973.7 71.8717 1972.7 70.0157 1971.84 68.6717L1967.84 70.0157C1968.45 71.1037 1969.12 72.4797 1969.57 73.5997H1965.73V77.3757H1971.87C1972.13 77.9837 1972.45 78.7837 1972.64 79.4557H1967.04V83.0397H1977.66V83.9357H1968.61V87.2317H1977.66V88.1277H1965.66V91.9037H1973.86C1971.26 93.2477 1967.9 94.3037 1964.61 94.8797C1965.6 95.8397 1966.94 97.6317 1967.58 98.7517C1971.2 97.8237 1974.78 96.1917 1977.66 94.1117V99.0397H1982.27V93.9517C1985.06 96.1917 1988.51 97.8557 1992.29 98.7517C1992.99 97.4717 1994.37 95.5197 1995.42 94.5277C1992.06 94.0477 1988.83 93.1517 1986.3 91.9037H1994.5Z" fill="#ECEFFF"/>
<path d="M2016.48 91.2317C2016.45 89.8237 2016.38 87.6797 2016.35 85.9517C2018.02 85.2157 2019.55 84.6077 2020.77 84.1597C2021.98 83.6797 2023.97 82.9437 2025.09 82.6237L2023.2 78.2077C2021.86 78.8477 2020.54 79.4557 2019.17 80.0637C2018.05 80.5757 2017.02 80.9917 2015.74 81.5997C2014.91 80.1277 2013.38 79.3597 2011.52 79.3597C2010.62 79.3597 2009.02 79.4877 2008.38 79.6797C2008.8 79.0397 2009.22 78.2717 2009.6 77.4397C2012.99 77.3117 2016.86 77.0237 2019.84 76.6397L2019.87 72.1917C2017.22 72.6717 2014.18 72.9277 2011.33 73.0877C2011.68 71.9037 2011.9 70.9117 2012.03 70.2077L2006.98 69.7917C2006.94 70.5917 2006.78 71.8077 2006.43 73.2477H2005.18C2003.49 73.2477 2001.06 73.1197 1999.49 72.8637V77.3117C2001.15 77.4717 2003.46 77.5357 2004.77 77.5357C2003.23 80.4477 2000.99 83.0397 1997.98 85.6957L2002.08 88.7677C2003.17 87.3277 2004.06 86.1757 2005.02 85.1837C2006.11 84.1277 2008.06 83.0717 2009.7 83.0717C2010.3 83.0717 2010.94 83.2317 2011.42 83.7117C2007.9 85.5677 2004.13 88.2237 2004.13 92.3517C2004.13 96.5757 2007.87 97.9197 2013.09 97.9197C2016.22 97.9197 2020.29 97.6317 2022.24 97.3757L2022.4 92.4157C2019.62 93.0237 2016 93.4077 2013.18 93.4077C2010.21 93.4077 2009.22 92.8637 2009.22 91.5197C2009.22 90.2397 2010.08 89.2157 2012.06 88.0637C2012.03 89.2477 2011.97 90.4317 2011.9 91.2317H2016.48Z" fill="#ECEFFF"/>
<path d="M2048.86 84.6717C2047.65 86.6877 2046.02 88.3517 2044.06 89.6637C2042.11 88.2877 2040.58 86.6237 2039.42 84.6717H2048.86ZM2052.29 79.9677L2051.49 80.1277H2046.3V77.0877H2057.76V72.4797H2046.3V68.6397H2041.44V72.4797H2030.08V77.0877H2041.44V80.1277H2031.71V84.6717H2038.21L2034.82 85.8237C2036.16 88.2237 2037.73 90.3037 2039.55 92.0317C2036.38 93.2797 2032.74 94.0477 2028.7 94.5277C2029.6 95.5837 2030.82 97.7917 2031.23 99.0397C2035.84 98.3037 2040.1 97.0877 2043.78 95.1677C2047.14 97.1197 2051.26 98.3997 2056.32 99.1037C2056.96 97.7597 2058.27 95.6157 2059.3 94.5277C2055.1 94.1117 2051.52 93.3117 2048.51 92.0957C2051.62 89.5037 2054.05 86.1437 2055.58 81.8237L2052.29 79.9677Z" fill="#ECEFFF"/>
<path d="M2070.66 83.0717L2068.35 83.6477V78.7517H2070.91V74.4957H2068.35V68.6717H2064.1V74.4957H2061.09V78.7517H2064.1V84.6717C2062.82 84.9917 2061.6 85.2477 2060.61 85.4397L2061.25 89.9517L2064.1 89.1837V94.2717C2064.1 94.6877 2063.97 94.7837 2063.58 94.7837C2063.2 94.8157 2062.14 94.8157 2061.12 94.7517C2061.66 95.9997 2062.18 97.9197 2062.27 99.0717C2064.38 99.0717 2065.86 98.9117 2066.94 98.1757C2068.03 97.4717 2068.35 96.2877 2068.35 94.2717V88.0317C2069.31 87.7757 2070.27 87.4877 2071.23 87.2317L2070.66 83.0717ZM2075.39 95.4877C2076.16 94.5597 2076.77 93.5677 2077.28 92.5437C2077.82 93.1837 2078.37 93.7917 2078.98 94.3357C2077.89 94.8157 2076.7 95.1997 2075.39 95.4877ZM2084.16 89.7277C2083.68 90.6237 2083.07 91.4237 2082.37 92.0957C2081.34 91.3917 2080.51 90.6237 2079.81 89.7277H2084.16ZM2078.18 73.8557C2078.4 74.9757 2078.66 76.4797 2078.72 77.4717H2076L2077.54 76.9917C2077.25 76.0957 2076.7 74.6557 2076.26 73.5677C2077.98 73.5037 2079.71 73.4077 2081.44 73.2797L2078.18 73.8557ZM2080.13 77.4717L2082.56 76.9597C2082.43 75.9997 2082.08 74.4317 2081.76 73.2477C2082.94 73.1517 2084.1 73.0237 2085.25 72.8957C2084.74 74.3677 2083.9 76.1597 2083.17 77.4717H2080.13ZM2086.78 86.3357L2086.05 86.4317H2079.26L2079.42 85.6637H2090.72V81.9517H2079.87L2079.94 81.0557H2089.73V77.4717H2087.17C2087.94 76.3197 2088.8 74.9757 2089.63 73.6637L2086.4 72.7677C2087.71 72.5757 2088.96 72.3837 2090.11 72.1597L2087.55 68.7677C2083.42 69.5997 2076.99 70.0797 2071.3 70.2397C2071.71 71.1677 2072.19 72.6717 2072.29 73.6637C2073.34 73.6637 2074.43 73.6317 2075.52 73.5997L2072.7 74.3677C2073.02 75.2957 2073.44 76.5437 2073.7 77.4717H2072V81.0557H2075.49L2075.42 81.9517H2071.39V85.6637H2074.98C2074.27 89.4717 2072.7 93.1197 2068.61 95.5837C2069.7 96.3837 2070.94 97.8557 2071.55 98.9437C2072.86 98.0797 2073.95 97.1197 2074.88 96.0957C2075.65 96.9277 2076.58 98.3037 2076.96 99.1037C2079.01 98.5917 2080.9 97.8557 2082.53 96.8637C2084.38 97.8557 2086.5 98.5917 2088.9 99.0717C2089.47 97.9197 2090.66 96.1917 2091.58 95.2957C2089.54 95.0077 2087.65 94.5597 2085.98 93.9197C2087.46 92.2237 2088.58 90.0477 2089.28 87.2957L2086.78 86.3357Z" fill="#ECEFFF"/>
<path d="M252.616 40.1521C251.688 40.9201 250.664 41.5281 249.32 42.2961C247.944 43.0961 245.544 44.3441 243.208 45.6881C241.96 43.3201 240.552 40.4401 239.4 37.2401L234.568 39.1921C235.976 42.5201 237.448 45.7521 238.92 48.4721C236.008 50.6801 233.768 53.2721 233.768 56.8881C233.768 62.7441 238.792 64.5041 245.32 64.5041C249.544 64.5041 252.712 64.1841 255.592 63.7041L255.656 58.1681C252.648 58.8401 248.328 59.3841 245.192 59.3841C241.128 59.3841 239.112 58.3921 239.112 56.3121C239.112 54.2321 240.872 52.5361 243.336 50.9361C246.12 49.1441 249.832 47.4481 251.72 46.5201C253 45.8801 254.152 45.2721 255.272 44.6001L252.616 40.1521Z" fill="#ECEFFF"/>
<path d="M266.76 52.3761C266.28 54.2321 265.864 56.3761 265.864 57.7841C265.864 62.4561 269.384 64.8881 276.008 64.8881C280.136 64.8881 283.048 64.4081 284.712 64.0881L284.808 59.0321C282.472 59.4801 280.552 59.9601 276.008 59.9601C271.656 59.9601 270.888 58.4881 270.888 56.4401C270.888 55.5121 271.4 53.7201 271.752 52.7601L266.76 52.3761ZM287.848 39.5761C285.896 40.2161 283.976 40.7601 281.768 41.1761C281.096 39.5121 280.488 38.0081 280.072 36.5361L274.632 37.5921C275.432 38.8401 275.752 39.5121 276.328 40.8241L276.808 41.8801C273.576 42.1361 269.864 42.0721 265.352 41.4961L265.512 46.3921C270.6 46.8081 275.016 46.8081 278.824 46.4241C279.656 48.2161 280.52 49.8801 281.192 51.2561C280.296 51.2241 278.856 51.0961 277.864 51.0001L277.448 54.9361C279.976 55.2561 283.112 55.8001 285.032 56.1841L287.688 53.3041C286.28 50.8721 284.872 48.1841 283.688 45.6241C285.544 45.2401 287.272 44.7921 288.744 44.3761L287.848 39.5761Z" fill="#ECEFFF"/>
<path d="M323.464 56.1841C322.088 57.5601 320.68 58.2321 319.784 58.2321C319.176 58.2321 318.792 57.8481 318.792 57.1441C318.792 53.8161 319.784 49.5921 319.784 46.2641C319.784 43.5441 318.152 41.3361 314.472 41.3361C311.496 41.3361 308.072 43.6401 305.576 45.7201V45.6241C306.152 44.7921 306.888 43.6721 307.304 43.1281L306.088 41.5281C306.344 39.6081 306.6 38.0081 306.824 37.0161L301.256 36.8561C301.448 37.9441 301.416 38.9681 301.416 39.9601C301.416 40.2801 301.384 41.0801 301.32 42.0721C300.136 42.2641 298.984 42.3601 298.12 42.4241C296.808 42.4881 296.008 42.4881 294.984 42.4561L295.464 47.3521C297.16 47.1281 299.368 46.8401 301 46.6481L300.904 48.3441C299.016 51.0641 296.04 54.9041 294.248 57.1121L297.224 61.3361C298.088 60.1521 299.368 58.2001 300.584 56.4401C300.52 58.4561 300.488 60.1201 300.456 62.0401C300.456 62.5521 300.424 63.8641 300.36 64.6641H305.608C305.512 63.8961 305.384 62.5201 305.352 61.9441C305.128 58.9041 305.128 55.8001 305.128 53.4001C305.128 52.7601 305.128 52.0881 305.16 51.4161C307.592 48.7281 310.824 45.9121 313 45.9121C314.184 45.9121 314.92 46.6801 314.92 48.0881C314.92 50.8721 313.8 55.1921 313.8 58.5841C313.8 61.9121 315.496 63.8321 318.024 63.8321C320.84 63.8321 322.728 62.7761 324.072 61.5921L323.464 56.1841Z" fill="#ECEFFF"/>
<path d="M340.584 60.5681C338.984 60.5681 337.928 59.8641 337.928 58.8721C337.928 58.2321 338.536 57.6241 339.56 57.6241C340.904 57.6241 341.864 58.7441 342.024 60.5041C341.576 60.5361 341.096 60.5681 340.584 60.5681ZM347.784 37.8161C347.368 37.9441 346.472 38.0721 344.968 38.2001C343.08 38.3601 336.744 38.4561 335.048 38.4561C333.992 38.4561 332.808 38.3921 331.816 38.2641L331.976 43.2241C332.744 43.0961 333.864 43.0001 334.824 42.9361C336.52 42.8081 339.784 42.6801 341.384 42.6481C339.848 44.0241 336.904 46.2961 335.144 47.7681C333.256 49.3041 329.576 52.4401 327.528 54.0401L331.016 57.6561C334.056 53.9441 337.384 51.1601 342.024 51.1601C345.512 51.1601 348.296 52.8561 348.296 55.5761C348.296 57.1121 347.688 58.3601 346.44 59.2241C345.896 56.2161 343.4 53.9761 339.528 53.9761C335.944 53.9761 333.384 56.5681 333.384 59.3521C333.384 62.8401 337.096 64.9201 341.576 64.9201C349.768 64.9201 353.352 60.6001 353.352 55.6401C353.352 50.8721 349.064 47.3841 343.624 47.3841C342.856 47.3841 342.248 47.4161 341.416 47.5761C343.144 46.2321 345.928 43.9601 347.72 42.7441C348.52 42.2001 349.32 41.7201 350.152 41.2081L347.784 37.8161Z" fill="#ECEFFF"/>
<path d="M253.448 81.3841V78.3761C253.448 77.0641 253.576 76.0401 253.672 75.2081H248.168C248.296 76.0081 248.36 77.0641 248.36 78.3761V81.3841H241.64V78.7601C241.64 77.3841 241.768 76.2961 241.864 75.5281H236.36C236.456 76.2961 236.584 77.4161 236.584 78.7281V81.3841H234.28C232.552 81.3841 231.4 81.1601 230.664 81.0321V86.2801C231.592 86.2161 232.552 86.1521 234.28 86.1521H236.584V90.0241C236.584 91.5921 236.488 92.8401 236.392 93.6401H241.8C241.736 92.8401 241.64 91.5921 241.64 90.0241V86.1521H248.36V87.3041C248.36 94.5361 245.768 97.3201 239.368 99.4321L243.528 103.336C251.496 99.8481 253.448 94.7601 253.448 87.1761V86.1521H255.176C257 86.1521 258.12 86.1521 259.016 86.2481V81.1281C257.896 81.3201 257 81.3841 255.144 81.3841H253.448Z" fill="#ECEFFF"/>
<path d="M263.752 91.7521C265.064 91.6561 267.464 91.5601 269.288 91.5601H286.28C287.592 91.5601 289.384 91.7201 290.216 91.7521V85.6401C289.288 85.7041 287.72 85.8641 286.28 85.8641H269.288C267.72 85.8641 265.032 85.7361 263.752 85.6401V91.7521Z" fill="#ECEFFF"/>
<path d="M319.304 78.9841C318.728 77.8641 317.608 75.7841 316.808 74.6001L313.8 75.8161C314.664 77.0641 315.592 78.9521 316.264 80.2641L319.304 78.9841ZM303.048 90.3441C307.272 89.2881 312.2 87.7521 315.272 86.6001C316.392 86.1841 317.992 85.5121 319.4 84.9361L317.352 80.0401C315.88 80.9041 314.728 81.4481 313.48 81.9281C310.888 82.9841 306.792 84.3281 303.048 85.2881V79.9121C303.048 78.9841 303.144 77.2561 303.304 76.1681H297.608C297.768 77.2561 297.864 79.2081 297.864 79.9121V97.2241C297.864 100.104 299.624 101.832 302.568 102.376C303.976 102.6 305.928 102.76 308.104 102.76C311.656 102.76 316.52 102.568 319.688 102.12V96.4561C317.064 97.1601 311.752 97.6081 308.424 97.6081C307.08 97.6081 305.96 97.5761 305.032 97.4481C303.656 97.1921 303.048 96.8721 303.048 95.6241V90.3441ZM317.736 74.2801C318.6 75.4961 319.624 77.3841 320.264 78.6961L323.272 77.4161C322.728 76.3281 321.576 74.2801 320.744 73.0641L317.736 74.2801Z" fill="#ECEFFF"/>
<path d="M349.128 76.8081C348.392 77.0641 346.888 77.2881 345.288 77.2881H334.6C333.672 77.2881 331.624 77.1921 330.504 77.0321V82.5361C331.4 82.4721 333.16 82.2801 334.6 82.2801H344.552C343.88 84.3281 342.152 87.1441 340.072 89.5121C337.224 92.6801 332.168 96.6161 326.984 98.5041L331.016 102.696C335.208 100.68 339.4 97.4481 342.76 93.9601C345.64 96.7441 348.36 99.8161 350.408 102.728L354.856 98.8561C353.096 96.6801 349.256 92.6161 346.152 89.9281C348.232 87.0481 349.928 83.8481 350.984 81.4801C351.336 80.6801 352.008 79.5601 352.296 79.1441L349.128 76.8081Z" fill="#ECEFFF"/>
<path d="M103.785 40.8403C98.9401 37.1853 90.6101 31.1503 83.9801 27.0703L75.9901 36.0803C82.4501 40.5003 90.8651 46.9603 95.6251 51.0403L103.785 40.8403ZM60.8601 48.8303C59.4151 59.2853 56.3551 69.6553 52.3601 77.0503L64.5151 81.3853C68.4251 74.1603 70.9751 62.2603 72.7601 51.8053L60.8601 48.8303ZM134.385 80.7053C132.175 73.8203 127.16 63.8753 122.06 56.1403L112.285 60.8153C118.065 53.1653 123.08 45.1753 127.245 37.1853L114.75 32.2553C108.885 44.8353 99.5351 58.1803 87.7201 69.9103V45.6003H74.5451V81.3853C67.7451 86.5703 60.4351 91.0753 52.7001 94.6453C55.2501 97.1103 58.9051 101.615 60.7751 104.505C65.7051 102.04 70.4651 99.3203 74.9701 96.2603C76.2451 104.335 80.4951 106.885 90.7801 106.885H104.55C115.77 106.885 119.34 101.7 120.87 86.2303C117.3 85.4653 111.69 83.1703 108.8 81.0453C108.12 92.3503 107.44 94.5603 103.36 94.5603H92.4801C88.2301 94.5603 87.7201 94.0503 87.7201 89.4603V86.7403C96.6451 79.3453 104.465 70.9303 111.265 62.1753C115.855 69.9103 120.7 80.1103 122.4 86.8253L134.385 80.7053Z" fill="#ECEFFF"/>
<path d="M170 83.0853H187.765C186.15 85.2953 184.28 87.1653 182.155 88.7803C177.65 87.5903 172.975 86.4003 168.47 85.3803L170 83.0853ZM155.975 53.5903H162.605V59.5403H155.975V53.5903ZM174.25 40.5853H181.56V43.9853H174.25V40.5853ZM201.195 53.5903V59.5403H193.205V53.5903H201.195ZM174.25 59.5403V53.5903H181.56V59.5403H174.25ZM217.77 83.0853V73.2253H176.29L178.84 69.0603H213.52V43.9853H193.205V40.5853H215.73V29.9603H140.675V40.5853H162.605V43.9853H144.415V69.0603H164.9C164.05 70.4203 163.2 71.7803 162.265 73.2253H139.315V83.0853H155.805C153.68 86.1453 151.64 88.9503 149.855 91.2453L161.84 94.8153L162.265 94.2203L166.345 95.2403C159.375 96.7703 151.045 97.4503 141.1 97.7903C142.97 100.425 144.84 104.76 145.69 108.33C162.095 106.97 174.59 104.93 184.025 100.34C193.12 103.145 201.195 106.035 207.315 108.5L214.71 98.4703C209.44 96.6003 202.64 94.4753 195.16 92.3503C197.625 89.7153 199.75 86.6553 201.62 83.0853H217.77Z" fill="#ECEFFF"/>
<path d="M1041.93 26.9854C1036.24 37.8654 1023.4 51.3804 1008.27 58.2654C1010.91 60.8154 1014.39 65.4904 1015.92 68.5504C1020.26 66.3404 1024.51 63.7054 1028.42 60.9004V69.0604C1028.42 78.4954 1026.89 90.3954 1012.52 99.2354C1015.84 101.19 1020.77 105.355 1022.98 108.075C1039.47 97.3653 1041.17 81.4704 1041.17 69.4004V59.6254H1030.12C1038.19 53.5053 1044.99 46.4504 1049.16 39.6504C1053.24 46.1954 1060.12 53.1654 1067.94 59.1154H1057.15V108.075H1070.07V60.6454C1074.23 63.6204 1078.57 66.2554 1082.9 68.3804C1085.2 64.5554 1087.92 60.3054 1091.06 56.9904C1076.95 52.0604 1064.2 41.6054 1055.36 26.9854H1041.93Z" fill="#ECEFFF"/>
<path d="M1153.62 77.6454H1169.26V66.2554H1153.62V53.4204H1141.13V66.2554H1124.81V77.6454H1141.13V94.4753H1121.58V105.865H1172.49V94.4753H1153.62V77.6454ZM1132.71 38.3754C1133.65 35.6554 1134.58 33.0203 1135.43 30.3003L1122.51 27.2403C1121.58 30.8954 1120.47 34.6353 1119.03 38.3754H1096.33V50.1904H1113.59C1108.57 59.3704 1101.77 67.6154 1093.27 72.9704C1095.14 76.0304 1097.86 81.5554 1099.14 85.0404C1101.35 83.5954 1103.47 81.9804 1105.43 80.2804V107.99H1117.92V66.7654C1121.75 61.5804 1124.98 55.9704 1127.7 50.1904H1172.92V38.3754H1132.71Z" fill="#ECEFFF"/>
<path d="M1232.67 55.2904H1229.44V46.5354H1232.67V55.2904ZM1246.19 90.9903H1242.96V66.0004H1246.19V90.9903ZM1216.01 66.0004H1219.07V90.9903H1216.01V66.0004ZM1232.67 66.0004V90.9903H1229.36V66.0004H1232.67ZM1258.43 46.5354V35.4853H1204.79C1205.39 34.0404 1205.98 32.5104 1206.49 31.0654L1195.36 27.4953C1191.45 38.8004 1184.73 50.1054 1177.68 57.2454C1179.63 60.2204 1182.86 66.8504 1183.88 69.7404C1185.07 68.4654 1186.26 67.1054 1187.45 65.6604V108.075H1199.01V47.7254C1200.8 44.2404 1202.5 40.7554 1204.03 37.1854V46.5354H1217.88V55.2904H1204.71V106.035H1216.01V101.53H1246.19V105.525H1258.09V55.2904H1244.32V46.5354H1258.43Z" fill="#ECEFFF"/>
<path d="M1328.89 59.9654H1317.42V57.0754H1328.89V59.9654ZM1328.89 71.0154H1317.42V68.0404H1328.89V71.0154ZM1328.89 81.9804H1317.42V79.0904H1328.89V81.9804ZM1313.42 48.4053H1306.03V90.6504H1340.79V48.4053H1324.9L1325.41 45.0054H1343.68V34.5504H1326.6C1326.85 32.3403 1327.02 30.1304 1327.19 28.0053L1314.87 27.4104C1314.78 29.7054 1314.7 32.0854 1314.53 34.5504H1293.53V45.0054H1313.76L1313.42 48.4053ZM1280.87 27.6654C1276.79 39.3953 1269.73 51.1254 1262.42 58.5204C1264.46 61.5804 1267.78 68.4654 1268.88 71.5254C1270.24 69.9954 1271.69 68.3804 1273.05 66.6804V107.99H1284.78V48.4053C1287.75 42.7954 1290.39 36.9304 1292.51 31.3204L1280.87 27.6654ZM1344.11 93.7953H1302.2V53.7604H1290.81V108.075H1302.2V104.335H1344.11V93.7953Z" fill="#ECEFFF"/>
<path d="M1652.85 42.8802H1710.9V30.9802H1640.35V55.4602C1640.35 69.0602 1639.76 88.7802 1632.02 101.955C1635.25 103.06 1640.86 106.205 1643.24 108.16C1651.49 93.7952 1652.85 70.5052 1652.85 55.3752V42.8802ZM1686.59 94.2202V73.3102H1707.33V61.6652H1686.59V45.7702H1674.1V61.6652H1654.89V73.3102H1674.1V94.2202H1649.11V105.865H1712.69V94.2202H1686.59Z" fill="#ECEFFF"/>
<path d="M1742.18 41.3502H1747.2C1746.43 45.5152 1745.41 50.0202 1744.31 53.7602L1739.63 54.0152L1740.74 64.6402C1747.2 64.0452 1755.02 63.2802 1762.92 62.5152C1763.18 63.9602 1763.43 65.4052 1763.52 66.5952L1772.1 63.6202V87.7602H1782.56V38.0352H1772.1V58.6052C1770.91 53.9302 1768.96 48.3202 1766.92 43.8152L1758.08 46.6202C1758.84 48.4902 1759.61 50.6152 1760.29 52.7402L1754.85 53.0802C1756.29 49.5102 1757.82 45.4302 1759.27 41.3502H1770.91V31.4052H1743.88L1744.14 30.7252L1732.75 27.3252C1729.26 39.3952 1723.23 51.4652 1716.68 59.2002C1718.55 62.5152 1721.53 69.7402 1722.46 72.8002C1723.65 71.3552 1724.84 69.8252 1726.03 68.2102V107.99H1737.34V48.2352C1739.12 44.3252 1740.74 40.3302 1742.18 36.4202V41.3502ZM1761.73 91.7552V83.0852H1770.49V72.5452H1761.73V64.8952H1750.34V72.5452H1741.33V83.0852H1750.34V93.2852C1746.09 93.8802 1742.27 94.3902 1738.95 94.7302L1740.74 105.78C1749.83 104.335 1761.65 102.55 1772.7 100.595L1772.02 90.3102L1761.73 91.7552ZM1785.62 28.6852V95.0702C1785.62 96.2602 1785.19 96.6002 1784.09 96.6002C1782.9 96.6002 1779.41 96.6002 1776.1 96.4302C1777.54 99.7452 1778.99 104.93 1779.33 108.075C1785.28 108.075 1789.7 107.65 1792.67 105.695C1795.73 103.825 1796.58 100.68 1796.58 95.0702V28.6852H1785.62Z" fill="#ECEFFF"/>
<path d="M1817.75 88.6102V73.9902H1828.88V88.6102H1817.75ZM1828.88 63.3652H1817.75V51.8902H1828.88V63.3652ZM1858.8 40.3302C1859.99 37.0152 1861.1 33.7002 1862.03 30.3852L1850.13 27.5802C1847.92 36.4202 1844.27 45.6002 1840.02 52.4852V41.1802H1827.44C1828.8 37.6102 1830.24 33.3602 1831.69 29.1952L1818.17 27.3252C1817.92 31.4902 1817.15 36.8452 1816.3 41.1802H1806.61V105.44H1817.75V99.4052H1840.02V58.9452C1842.57 60.6452 1845.46 62.8552 1846.99 64.2152C1849.45 60.7302 1851.92 56.3952 1854.21 51.5502H1870.36C1869.68 79.6002 1868.66 92.0952 1866.2 94.7302C1865.09 95.9202 1864.16 96.2602 1862.46 96.2602C1860.16 96.2602 1855.06 96.2602 1849.62 95.7502C1851.83 99.1502 1853.53 104.42 1853.7 107.735C1858.8 107.905 1864.07 107.99 1867.47 107.395C1871.21 106.715 1873.85 105.695 1876.48 101.955C1880.05 97.2802 1880.9 83.5102 1881.92 45.6852C1882.01 44.2402 1882.01 40.3302 1882.01 40.3302H1858.8ZM1867.39 79.6852C1864.84 74.6702 1859.31 66.5952 1855.49 60.8152L1845.8 66.2552C1849.62 72.5452 1854.72 80.8752 1856.93 86.0602L1867.39 79.6852Z" fill="#ECEFFF"/>
</svg>
