<svg width="2199" height="128" viewBox="0 0 2199 128" fill="none" xmlns="http://www.w3.org/2000/svg">
<path d="M499.052 39.604C497.076 40.212 494.036 40.592 491.528 40.592H479.292C480.432 38.616 482.256 35.5 484.004 33.068L470.552 28.66C469.716 31.624 467.892 35.576 466.524 37.704C462.496 44.088 456.34 53.208 442.888 61.492L453.224 69.168C460.216 64.304 466.98 57.768 472.376 51.004H491.3C490.312 55.944 486.056 64.684 481.268 70.004C474.808 77.224 466.904 83.684 450.488 88.7L461.432 98.428C475.72 92.576 484.916 85.584 492.288 76.54C499.28 67.952 503.384 57.92 505.436 51.612C506.196 49.332 507.412 47.052 508.4 45.38L499.052 39.604Z" fill="#ECEFFF"/>
<path d="M528.54 33.448C528.768 35.348 528.844 38.008 528.844 39.452V65.216C528.844 67.572 528.54 70.84 528.464 72.36H542.144C541.992 70.384 541.84 67.192 541.84 65.292V39.452C541.84 36.716 541.992 35.348 542.144 33.448H528.54ZM563.424 32.764C563.728 35.044 563.956 37.628 563.956 40.972V56.704C563.956 67.192 562.892 72.588 557.8 77.984C553.24 82.696 547.008 85.508 539.104 87.256L548.756 97.44C554.304 95.692 562.284 91.816 567.376 86.496C573.152 80.416 576.724 72.816 576.724 57.54V40.972C576.724 37.628 576.876 35.044 577.028 32.764H563.424Z" fill="#ECEFFF"/>
<path d="M635.092 79.2V50.396H649.988C652.192 50.396 655.004 50.548 657.436 50.776V38.16C655.08 38.464 652.268 38.692 649.988 38.692H608.796C606.44 38.692 603.096 38.464 601.12 38.16V50.776C603.096 50.548 606.44 50.396 608.796 50.396H622.172V79.2H604.008C601.576 79.2 598.612 78.972 596.104 78.516V91.816C598.764 91.512 601.652 91.436 604.008 91.436H654.092C655.992 91.436 659.412 91.512 661.616 91.816V78.516C659.64 78.82 656.98 79.2 654.092 79.2H635.092Z" fill="#ECEFFF"/>
<path d="M715.196 55.108C722.492 50.396 729.104 44.772 735.184 38.844L725.304 29.952C720.972 35.728 713.144 42.492 705.468 47.28C696.956 52.6 684.188 58.148 670.584 60.96L677.12 72.132C685.404 69.928 694.296 66.356 701.972 62.556V85.432C701.972 89.08 701.668 94.4 701.364 96.452H715.956C715.348 94.324 715.196 89.08 715.196 85.432V55.108Z" fill="#ECEFFF"/>
<path d="M795.336 44.544C798.224 44.544 801.34 44.696 804.152 44.848V33.068C801.34 33.448 798.148 33.676 795.336 33.676H764.936C762.352 33.676 758.704 33.448 756.12 33.068V44.848C758.628 44.696 762.276 44.544 764.936 44.544H795.336ZM755.056 53.208C752.7 53.208 749.736 52.98 747.38 52.676V64.684C749.508 64.532 752.852 64.38 755.056 64.38H774.892C774.436 70.308 772.992 75.552 770.028 79.96C766.988 84.216 761.668 88.548 756.576 90.448L767.368 98.2C774.284 94.704 780.212 88.548 782.796 83.152C785.38 77.984 787.28 71.98 787.812 64.38H804.836C807.116 64.38 810.308 64.456 812.36 64.608V52.676C810.232 53.056 806.432 53.208 804.836 53.208H755.056Z" fill="#ECEFFF"/>
<path d="M866.884 43.784C863.084 48.8 855.18 55.108 847.352 59.668C841.424 63.164 830.1 67.876 820.22 69.928L826.376 80.492C831.924 79.124 839.828 76.084 846.44 72.892V90.524C846.44 93.412 846.212 97.972 845.984 99.644H859.664C859.132 97.972 859.056 93.412 859.056 90.524V65.976C865.972 61.492 872.508 56.324 876.08 52.372L866.884 43.784Z" fill="#ECEFFF"/>
<path d="M952.384 38.008C951.092 35.272 948.736 31.016 946.684 27.976L939.236 31.016C940.528 33.068 941.744 35.196 942.884 37.324C941.44 37.476 939.996 37.476 939.008 37.476H905.492C902.984 37.476 897.968 37.096 895.612 36.792V49.788C897.588 49.636 901.768 49.408 905.492 49.408H938.932C937.944 55.488 935.436 63.012 930.572 69.016C924.568 76.464 915.98 83.152 900.704 86.572L910.736 97.592C924.112 93.26 934.828 85.432 941.668 76.236C948.204 67.42 951.32 55.868 953.144 48.724C953.6 47.052 954.284 44.316 955.12 42.644L949.648 39.148L952.384 38.008ZM950.256 29.04C952.384 31.928 954.664 36.184 956.26 39.3L963.784 36.108C962.416 33.524 959.756 28.888 957.78 26L950.256 29.04Z" fill="#ECEFFF"/>
<path d="M1037.35 50.092C1033.32 47.28 1023.6 42.112 1018.2 39.756L1012.35 48.8C1017.59 51.08 1026.41 56.172 1030.89 59.668L1037.35 50.092ZM1008.32 38.388C1005.81 39.148 1002.62 39.908 999.124 40.592C1000.19 36.792 1001.02 33.372 1001.56 31.016L989.092 29.8C988.94 33.676 988.256 38.008 987.192 42.112C985.216 42.264 983.316 42.34 981.34 42.34C978.832 42.34 974.348 42.188 970.852 41.808L971.688 52.296C975.184 52.524 978.224 52.6 981.416 52.6C982.176 52.6 983.012 52.6 983.848 52.524C980.58 60.352 974.804 70.916 968.876 78.288L979.896 83.836C985.976 75.096 992.36 62.024 995.856 51.46C1000.95 50.7 1005.51 49.712 1008.62 48.876L1008.32 38.388ZM1008.93 80.264C1008.93 84.444 1007.56 87.104 1003.08 87.104C999.884 87.104 997.832 85.432 997.832 83C997.832 80.872 1000.11 79.352 1003.84 79.352C1005.58 79.352 1007.33 79.58 1008.93 79.884V80.264ZM1007.71 54.576C1007.94 58.832 1008.24 64.988 1008.55 70.384C1007.26 70.232 1005.96 70.156 1004.6 70.156C992.968 70.156 987.04 76.616 987.04 84.14C987.04 92.88 994.792 97.516 1004.75 97.516C1015.84 97.516 1019.8 92.12 1020.02 84.9C1023.75 87.484 1026.79 90.372 1029.14 92.576L1035.15 82.772C1031.42 79.276 1026.1 75.476 1019.57 72.968C1019.42 69.852 1019.26 66.888 1019.19 65.14C1019.11 61.416 1018.96 57.844 1019.19 54.576H1007.71Z" fill="#ECEFFF"/>
<path d="M1053.01 95.084C1056.5 89.992 1059.09 82.392 1060.91 75.78L1050.88 72.132C1049.28 78.516 1046.4 85.052 1043.05 89.536L1053.01 95.084ZM1061.22 53.588H1073.15V58.376H1061.22V53.588ZM1061.22 40.136H1073.15V44.772H1061.22V40.136ZM1095.42 44.772H1083.86V40.136H1095.42V44.772ZM1095.42 58.376H1083.86V53.588H1095.42V58.376ZM1077.25 88.396C1073.83 88.396 1073.22 88.168 1073.22 85.812V74.944C1077.56 77.68 1081.96 81.1 1084.17 83.76L1092.07 76.236C1089.56 73.5 1084.93 70.308 1080.52 67.876H1106.36V30.636H1050.8V67.876H1075.28L1069.88 72.968C1070.94 73.576 1072.08 74.26 1073.22 74.944H1062.05V85.964C1062.05 95.236 1064.71 98.352 1075.81 98.352H1086.98C1095.64 98.352 1098.68 95.54 1099.9 84.368C1096.94 83.684 1092.15 82.012 1089.94 80.34C1089.49 87.408 1088.96 88.396 1086.07 88.396H1077.25ZM1095.72 75.932C1099.6 81.86 1103.32 89.612 1104.38 94.704L1115.18 90.144C1113.81 84.748 1109.63 77.452 1105.6 71.828L1095.72 75.932Z" fill="#ECEFFF"/>
<path d="M1154.62 43.708H1164.2C1162.52 45.228 1160.78 46.748 1158.95 48.192H1154.62V43.708ZM1188.29 57.388V48.192H1173.54C1177.8 44.088 1181.75 39.68 1185.25 35.12L1176.28 30.332C1174.23 33.144 1171.95 35.88 1169.44 38.54V34.816H1154.62V27.52H1143.68V34.816H1126.96V43.708H1143.68V48.192H1121.18V57.388H1146.03C1144.21 58.528 1142.38 59.668 1140.48 60.732L1138.05 60.428L1137.67 62.176C1131.29 65.596 1124.52 68.56 1117.68 70.916C1119.66 72.892 1122.93 77.148 1124.37 79.352C1127.87 77.984 1131.36 76.388 1134.78 74.716C1133.8 78.592 1132.81 82.24 1131.82 85.128L1142.84 86.648C1143.14 85.66 1143.45 84.52 1143.75 83.38H1167.84C1166.93 86.648 1165.94 88.548 1164.88 89.308C1163.97 89.916 1162.9 90.068 1161.54 90.068C1159.48 90.068 1154.7 89.916 1150.59 89.536C1152.49 92.424 1153.86 96.604 1154.01 99.72C1158.57 99.872 1162.83 99.796 1165.41 99.568C1168.98 99.34 1171.34 98.732 1173.62 96.528C1176.28 94.096 1178.26 88.852 1180 78.972C1180.38 77.452 1180.61 74.564 1180.61 74.564H1146.03L1146.72 71.6C1158.04 70.916 1170.73 69.472 1180.31 66.888L1173.7 59.744C1168.83 61.112 1162.14 62.252 1155 63.088C1157.74 61.264 1160.32 59.364 1162.9 57.388H1188.29Z" fill="#ECEFFF"/>
<path d="M1745.08 34.9675C1741.96 32.4595 1735.73 29.4195 1731.1 27.7475L1725.17 35.8795C1729.88 37.9315 1735.96 41.3515 1738.7 44.0115L1745.08 34.9675ZM1740.67 55.3355C1737.48 52.8275 1731.1 49.8635 1726.46 48.2675L1720.53 56.6275C1725.32 58.6035 1731.48 61.9475 1734.29 64.5315L1740.67 55.3355ZM1736.34 67.6475C1732.01 76.6915 1726.54 86.0395 1722.74 91.8155L1732.39 98.7315C1736.72 91.0555 1740.98 82.6955 1744.78 74.5635L1736.34 67.6475ZM1769.17 49.2555H1776.7V61.1875H1769.02C1769.17 58.9075 1769.17 56.6275 1769.17 54.4235V49.2555ZM1792.88 71.5235V61.1875H1787.49V38.9195H1769.17V27.5195H1758.15V38.9195H1746.75V49.2555H1758.15V54.3475C1758.15 56.6275 1758.08 58.9075 1757.92 61.1875H1743.26V71.5235H1756.25C1754.05 79.3515 1749.18 86.6475 1739 92.1955C1741.89 93.8675 1746.22 97.6675 1748.27 100.024C1758.61 93.9435 1763.85 85.8875 1766.51 77.0715C1770.77 87.1795 1776.85 95.1595 1786.04 99.8715C1787.72 96.8315 1791.21 92.3475 1793.8 90.1435C1785.36 86.4955 1779.36 79.6555 1775.78 71.5235H1792.88Z" fill="#ECEFFF"/>
<path d="M1847.6 43.0995C1854.82 41.4275 1862.58 39.2235 1869.04 36.2595L1860.22 28.2795C1855.96 30.6355 1849.5 33.1435 1843.04 34.8915L1837.12 33.2195V59.7435C1837.12 67.1915 1836.74 76.0835 1833.32 83.9115V83.5315H1808.31V72.3595C1809.53 74.7915 1810.97 77.8315 1811.58 80.1115C1813.78 78.1355 1815.84 75.3235 1817.66 72.2075V82.2395H1826.63V68.6355C1828 70.6115 1829.21 72.5875 1830.05 74.0315L1835.82 66.7355C1834.38 65.2915 1828.6 59.8955 1826.63 58.3755V58.1475H1834.84V49.0275H1826.63V46.7475L1831.8 48.2675C1833.32 44.9995 1835.22 39.7555 1837.12 35.1195L1828.6 33.2195C1828.22 36.1075 1827.46 39.7555 1826.63 43.0235V28.5075H1817.66V40.8955C1817.2 38.3115 1816.52 35.5755 1815.68 33.2195L1809.15 35.3475C1810.36 39.4515 1811.28 44.8475 1811.28 48.3435L1817.66 46.2915V49.0275H1809.45V58.1475H1816.98C1814.77 62.6315 1811.66 67.1915 1808.31 70.2315V30.0275H1798.81V98.1235H1808.31V92.9555H1829.44C1831.87 94.6275 1834.84 97.5915 1835.98 99.6435C1845.4 89.6115 1847.3 73.8035 1847.6 62.5555H1852.85V99.5675H1863.26V62.5555H1869.04V52.3715H1847.6V43.0995Z" fill="#ECEFFF"/>
<path d="M1885.83 31.6995C1886.59 35.1195 1886.97 39.2235 1886.97 43.2515C1886.97 48.9515 1886.29 69.0915 1886.29 78.5915C1886.29 91.7395 1894.5 97.6675 1907.64 97.6675C1925.2 97.6675 1936.37 87.3315 1941.08 80.1115L1932.8 69.9275C1927.33 78.3635 1919.42 85.2035 1907.72 85.2035C1902.63 85.2035 1898.45 82.9235 1898.45 75.7035C1898.45 67.4195 1898.98 51.1555 1899.36 43.2515C1899.51 39.9835 1899.97 35.4235 1900.5 31.8515L1885.83 31.6995Z" fill="#ECEFFF"/>
<path d="M1949.73 39.3755L1950.87 51.7635C1959.91 49.7875 1973.14 48.2675 1979.6 47.5835C1975.57 51.2315 1970.1 59.2115 1970.1 69.5475C1970.1 85.5835 1984.46 94.7035 2001.26 95.9955L2005.51 83.3035C1992.52 82.5435 1982.1 78.2115 1982.1 67.1155C1982.1 58.2235 1989.1 49.4075 1997.23 47.5835C2001.41 46.7475 2007.79 46.7475 2011.67 46.6715L2011.59 34.9675C2006.12 35.1955 1997.23 35.6515 1989.7 36.2595C1975.95 37.4755 1964.55 38.3875 1957.48 38.9955C1956.04 39.1475 1952.77 39.2995 1949.73 39.3755Z" fill="#ECEFFF"/>
<path d="M2092 31.6995H2054.99V42.1875H2092V31.6995ZM2039.33 27.5195C2035.76 32.7635 2028.46 39.6795 2022.16 43.6315C2024.06 45.8355 2026.87 50.2435 2028.24 52.7515C2035.76 47.5835 2044.2 39.4515 2049.97 31.9275L2039.33 27.5195ZM2042.14 44.2395C2037.28 52.8275 2029 61.6435 2021.32 66.9635C2023.52 69.2435 2027.25 74.2595 2028.77 76.6155C2030.36 75.3235 2031.96 73.8035 2033.63 72.2835V99.7195H2044.73V59.8195C2047.69 56.0195 2050.43 52.0675 2052.63 48.2675L2042.14 44.2395ZM2093.9 52.8275H2051.8V63.3155H2072.62V87.0275C2072.62 88.0915 2072.16 88.3955 2070.8 88.3955C2069.43 88.3955 2064.41 88.3955 2060.69 88.1675C2062.13 91.3595 2063.58 96.2235 2063.96 99.4915C2070.42 99.4915 2075.51 99.3395 2079.16 97.6675C2082.96 95.9955 2083.94 92.9555 2083.94 87.3315V63.3155H2093.9V52.8275Z" fill="#ECEFFF"/>
<path d="M2123.24 84.0635H2136.46C2136.08 84.6715 2135.7 85.2035 2135.32 85.7355C2131.29 86.0395 2127.26 86.3435 2123.24 86.6475V84.0635ZM2109.48 67.7235V65.4435H2113.28V67.7235H2109.48ZM2109.48 56.9315H2113.28V59.2115H2109.48V56.9315ZM2126.96 56.9315V59.2115H2123.24V56.9315H2126.96ZM2126.96 67.7235H2123.24V65.4435H2126.96V67.7235ZM2154.02 44.3915C2154.09 39.5275 2154.09 34.3595 2154.09 28.9635H2143.53C2143.53 34.4355 2143.53 39.6035 2143.53 44.3915H2137.3V54.4995H2143.3C2142.77 66.7355 2141.25 76.4635 2136.46 84.0635V76.3875H2123.24V74.4115H2136V50.2435H2123.24V48.3435H2136.99V40.5155H2123.24V37.8555C2127.95 37.3235 2132.43 36.7155 2136.38 35.8795L2131.75 27.7475C2123.08 29.5715 2110.24 30.8635 2098.84 31.3955C2099.83 33.5235 2100.89 36.9435 2101.2 39.1475C2105.07 39.0715 2109.18 38.9195 2113.28 38.6915V40.5155H2098.99V48.3435H2113.28V50.2435H2100.82V74.4115H2113.28V76.3875H2100.51V84.0635H2113.28V87.3315C2107.66 87.7115 2102.56 88.0155 2098.38 88.2435L2099.6 97.3635C2108.49 96.6035 2120.35 95.5395 2131.9 94.3995C2133.8 96.2995 2135.78 98.6555 2136.76 100.404C2149.23 90.2955 2152.65 75.0195 2153.71 54.4995H2158.35C2157.97 77.2995 2157.36 86.1915 2155.92 88.1675C2155.16 89.2315 2154.47 89.5355 2153.33 89.5355C2151.81 89.5355 2149.23 89.5355 2146.19 89.2315C2147.94 92.1955 2149.15 96.6795 2149.38 99.7195C2153.03 99.7955 2156.52 99.7955 2158.96 99.2635C2161.62 98.6555 2163.52 97.7435 2165.42 94.8555C2167.85 91.2835 2168.38 79.8835 2168.99 49.1035C2168.99 47.8115 2169.06 44.3915 2169.06 44.3915H2154.02Z" fill="#ECEFFF"/>
<path d="M1275.26 52.8603V50.4903H1288.61V52.8603H1275.26ZM1288.61 44.1303V46.4703H1275.26V44.1303H1288.61ZM1288.61 37.8003V40.1103H1275.26V37.8003H1288.61ZM1283.24 33.6303C1283.66 32.6403 1284.14 31.5003 1284.56 30.3603L1279.22 29.8203C1279.1 30.9603 1278.86 32.3703 1278.59 33.6303H1270.85V58.2903H1275.26V56.8803H1288.61V58.2903H1293.26V33.6303H1283.24Z" fill="#ECEFFF"/>
<path d="M1313.45 31.7703C1315.04 34.8303 1317.17 37.9503 1319.36 40.6803H1304.93C1307.15 38.0103 1309.13 34.8003 1310.54 31.5003L1305.8 30.1203C1304.03 34.6503 1300.7 38.8803 1296.98 41.3403C1298.03 42.1503 1299.92 43.9203 1300.73 44.8803C1301.45 44.3103 1302.14 43.6803 1302.83 42.9903V44.9103H1307.33C1306.76 48.8703 1305.2 52.3803 1298.63 54.5403C1299.68 55.5003 1300.94 57.3603 1301.48 58.5903C1309.4 55.5903 1311.38 50.5803 1312.1 44.9103H1317.02C1316.81 50.4603 1316.54 52.9503 1316 53.5503C1315.64 53.9103 1315.31 54.0003 1314.8 54.0003C1314.05 54.0003 1312.64 53.9703 1311.14 53.8503C1311.92 55.0803 1312.52 56.9703 1312.58 58.2603C1314.29 58.2903 1315.97 58.2903 1317.02 58.1103C1318.25 57.9003 1319.15 57.5703 1320.02 56.4303C1321.01 55.1703 1321.34 51.7203 1321.61 43.2903C1322.06 43.7703 1322.51 44.2203 1322.93 44.6403C1323.77 43.4103 1325.48 41.6103 1326.65 40.6803C1323.35 38.0103 1319.63 33.7503 1317.77 30.0603L1313.45 31.7703Z" fill="#ECEFFF"/>
<path d="M1349.21 39.9003L1346.6 40.9803C1347.56 42.3603 1348.07 43.3503 1348.88 45.0903L1351.55 43.9203C1351.01 42.8103 1349.96 41.0103 1349.21 39.9003ZM1352.6 38.4603L1350.02 39.6303C1351.01 40.9803 1351.58 41.9103 1352.45 43.6203L1355.09 42.3603C1354.49 41.2803 1353.38 39.5403 1352.6 38.4603ZM1328.9 34.5303L1329.35 39.4203C1332.92 38.6403 1338.14 38.0403 1340.69 37.7703C1339.1 39.2103 1336.94 42.3603 1336.94 46.4403C1336.94 52.7703 1342.61 56.3703 1349.24 56.8803L1350.92 51.8703C1345.79 51.5703 1341.68 49.8603 1341.68 45.4803C1341.68 41.9703 1344.44 38.4903 1347.65 37.7703C1349.3 37.4403 1351.82 37.4403 1353.35 37.4103L1353.32 32.7903C1351.16 32.8803 1347.65 33.0603 1344.68 33.3003C1339.25 33.7803 1334.75 34.1403 1331.96 34.3803C1331.39 34.4403 1330.1 34.5003 1328.9 34.5303Z" fill="#ECEFFF"/>
<path d="M1381.34 40.3503H1382.21C1382.06 49.8903 1381.88 53.2203 1381.43 54.0003C1381.19 54.4503 1380.95 54.5703 1380.59 54.5703C1380.2 54.5703 1379.75 54.5403 1379.18 54.5103C1381.01 50.2203 1381.34 45.0003 1381.34 40.7703V40.3503ZM1376.33 49.4703H1372.58V48.3603H1376.3V39.3003H1372.61V38.3403H1376.51V40.3503H1377.68V40.7703C1377.68 43.9203 1377.5 47.9403 1376.33 51.4503V49.4703ZM1372.58 52.5603H1375.91C1375.79 52.8603 1375.67 53.1603 1375.52 53.4603L1372.58 53.7003V52.5603ZM1368.11 44.9703H1369.34V45.8403H1368.11V44.9703ZM1368.11 41.8203H1369.34V42.6903H1368.11V41.8203ZM1372.19 42.6903V41.8203H1373.48V42.6903H1372.19ZM1372.19 45.8403V44.9703H1373.48V45.8403H1372.19ZM1381.34 36.6303V29.9403H1377.68V36.6303H1376.63V35.2503H1372.61V34.2303C1374.08 34.0503 1375.49 33.8403 1376.78 33.5703L1374.71 30.5103C1372.34 31.0503 1368.86 31.5003 1365.71 31.7703L1365.92 31.0203L1362.05 29.9103C1361 34.0503 1359.2 38.1903 1357.16 40.9203C1357.79 42.0903 1358.78 44.6403 1359.05 45.7203C1359.41 45.2403 1359.77 44.7303 1360.13 44.2203V58.4403H1363.97V36.6603C1364.48 35.3703 1364.96 34.0503 1365.38 32.7603C1365.62 33.4203 1365.83 34.1703 1365.92 34.7403C1366.88 34.7103 1367.93 34.6503 1368.98 34.5603V35.2503H1365.14V38.3403H1368.98V39.3003H1365.41V48.3603H1368.95V49.4703H1365.38V52.5603H1368.95V53.9703C1367.39 54.0603 1365.98 54.1803 1364.78 54.2403L1365.29 57.7503C1367.93 57.4803 1371.29 57.1203 1374.65 56.7303C1375.43 57.2703 1376.27 57.9903 1376.75 58.4703C1377.65 57.4503 1378.37 56.2803 1378.97 55.0203C1379.39 56.0103 1379.63 57.3003 1379.69 58.2003C1380.83 58.2303 1381.85 58.2003 1382.63 58.0203C1383.5 57.8103 1384.07 57.4803 1384.67 56.4903C1385.51 55.2003 1385.63 50.6703 1385.84 38.3103C1385.84 37.8303 1385.87 36.6303 1385.87 36.6303H1381.34Z" fill="#ECEFFF"/>
<path d="M1405.13 30.5103C1404.59 31.3203 1403.51 32.3703 1402.52 33.3303C1400.51 35.2503 1396.7 38.4003 1394.33 40.3203C1391.18 42.9003 1391 44.7003 1394.03 47.3103C1396.73 49.6203 1400.99 53.2803 1402.64 54.9903C1403.6 55.9803 1404.59 57.0003 1405.55 58.0803L1409.75 54.1803C1406.78 51.3603 1400.93 46.8303 1398.98 45.1203C1397.54 43.8603 1397.48 43.5903 1398.95 42.3303C1400.81 40.7103 1404.53 37.8603 1406.39 36.4503C1407.2 35.8203 1408.22 35.0403 1409.33 34.2303L1405.13 30.5103Z" fill="#ECEFFF"/>
<path d="M1441.4 35.0103H1440.05V33.6303H1441.4V35.0103ZM1437.35 35.0103H1436.03V33.6303H1437.35V35.0103ZM1433.33 35.0103H1432.04V33.6303H1433.33V35.0103ZM1445 30.7803H1428.62V37.8603H1445V30.7803ZM1427.3 41.8803H1445.96V38.4603H1427.3V41.8803ZM1427.81 48.0603L1424.81 48.7803V44.4303H1427.27V40.6203H1424.81V35.7903H1427.69V31.9803H1417.82V35.7903H1420.94V40.6203H1418.06V44.4303H1420.94V49.7103C1419.62 50.0103 1418.39 50.2503 1417.34 50.4603L1418.21 54.5403C1421.18 53.7903 1424.9 52.8603 1428.32 51.9303L1427.81 48.0603ZM1432.88 45.6903H1440.56V46.9803H1432.88V45.6903ZM1442.54 50.0103C1442.03 50.5803 1441.31 51.2703 1440.68 51.8103C1440.08 51.2403 1439.54 50.6403 1439.06 50.0103H1442.54ZM1443.14 50.0103H1444.58V42.6603H1429.1V50.0103H1433.57C1431.23 51.6903 1428.2 53.1603 1425.35 54.0303C1426.16 54.7803 1427.3 56.1903 1427.84 57.0903C1429.49 56.4603 1431.2 55.5903 1432.79 54.6003V58.3503H1436.9V52.8603C1438.58 55.2603 1440.77 57.2103 1443.44 58.3803C1444.04 57.3303 1445.24 55.7703 1446.14 54.9903C1445.12 54.6603 1444.19 54.2403 1443.29 53.7303C1444.04 53.2203 1444.91 52.5903 1445.75 51.9003L1443.14 50.0103Z" fill="#ECEFFF"/>
<path d="M1468.46 34.8303C1468.31 35.3703 1468.07 35.9703 1467.89 36.4503H1465.1C1464.98 35.9703 1464.77 35.3703 1464.53 34.8303H1468.46ZM1475.93 36.4503H1472.06C1472.3 36.0003 1472.57 35.4603 1472.9 34.8303H1475.45V31.5003H1468.55V29.9703H1464.26V31.5003H1458.02V34.8303H1461.02L1460.42 34.9503C1460.63 35.4003 1460.81 35.9403 1460.96 36.4503H1457.54V39.9603H1475.93V36.4503ZM1457.21 45.8103L1454.81 46.8003V40.9803H1457.27V36.9003H1454.81V30.3303H1450.76V36.9003H1448.06V40.9803H1450.76V48.3903C1449.47 48.8703 1448.3 49.2903 1447.34 49.6203L1448.81 53.9703C1451.6 52.7103 1455.05 51.1803 1458.17 49.6803L1457.21 45.8103ZM1463.03 47.0103H1470.44V48.1203H1463.03V47.0103ZM1463.03 43.5003H1470.44V44.5803H1463.03V43.5003ZM1471.73 54.5703C1471.34 54.5703 1471.28 54.4803 1471.28 53.6703V50.7303H1474.7V40.8903H1458.95V50.7303H1461.29C1460.78 52.6203 1459.58 53.9403 1455.02 54.8103C1455.86 55.6503 1456.97 57.4203 1457.36 58.5003C1463.3 56.9103 1464.95 54.2703 1465.58 50.7303H1467.14V53.7303C1467.14 57.0303 1467.77 58.2303 1470.98 58.2303H1472.99C1475.27 58.2303 1476.29 57.3003 1476.68 53.7303C1475.6 53.4903 1473.86 52.8303 1473.11 52.2303C1473.02 54.2703 1472.9 54.5703 1472.51 54.5703H1471.73Z" fill="#ECEFFF"/>
<path d="M1496.06 51.0303C1496.03 49.7103 1495.97 47.7003 1495.94 46.0803C1497.5 45.3903 1498.94 44.8203 1500.08 44.4003C1501.22 43.9503 1503.08 43.2603 1504.13 42.9603L1502.36 38.8203C1501.1 39.4203 1499.87 39.9903 1498.58 40.5603C1497.53 41.0403 1496.57 41.4303 1495.37 42.0003C1494.59 40.6203 1493.15 39.9003 1491.41 39.9003C1490.57 39.9003 1489.07 40.0203 1488.47 40.2003C1488.86 39.6003 1489.25 38.8803 1489.61 38.1003C1492.79 37.9803 1496.42 37.7103 1499.21 37.3503L1499.24 33.1803C1496.75 33.6303 1493.9 33.8703 1491.23 34.0203C1491.56 32.9103 1491.77 31.9803 1491.89 31.3203L1487.15 30.9303C1487.12 31.6803 1486.97 32.8203 1486.64 34.1703H1485.47C1483.88 34.1703 1481.6 34.0503 1480.13 33.8103V37.9803C1481.69 38.1303 1483.85 38.1903 1485.08 38.1903C1483.64 40.9203 1481.54 43.3503 1478.72 45.8403L1482.56 48.7203C1483.58 47.3703 1484.42 46.2903 1485.32 45.3603C1486.34 44.3703 1488.17 43.3803 1489.7 43.3803C1490.27 43.3803 1490.87 43.5303 1491.32 43.9803C1488.02 45.7203 1484.48 48.2103 1484.48 52.0803C1484.48 56.0403 1487.99 57.3003 1492.88 57.3003C1495.82 57.3003 1499.63 57.0303 1501.46 56.7903L1501.61 52.1403C1499 52.7103 1495.61 53.0703 1492.97 53.0703C1490.18 53.0703 1489.25 52.5603 1489.25 51.3003C1489.25 50.1003 1490.06 49.1403 1491.92 48.0603C1491.89 49.1703 1491.83 50.2803 1491.77 51.0303H1496.06Z" fill="#ECEFFF"/>
<path d="M1513.82 29.9703C1512.38 34.1103 1509.89 38.2503 1507.28 40.8603C1508.03 41.9703 1509.23 44.4903 1509.62 45.5703C1510.04 45.1203 1510.46 44.6703 1510.88 44.1603V58.3203H1515.29V37.4103C1516.37 35.4003 1517.3 33.3303 1518.05 31.3203L1513.82 29.9703ZM1536.2 38.8203V34.6803H1525.01C1525.52 33.5403 1525.97 32.3703 1526.36 31.2003L1522.16 30.0903C1520.84 34.3803 1518.5 38.7003 1515.89 41.3403C1516.82 42.0303 1518.5 43.5903 1519.19 44.4003C1520.51 42.9003 1521.8 40.9803 1523 38.8203H1523.57V58.3503H1528.07V52.0203H1535.78V47.9703H1528.07V45.2703H1535.39V41.3103H1528.07V38.8203H1536.2Z" fill="#ECEFFF"/>
<path d="M1540.97 42.3603L1542.8 47.0403C1545.71 45.7803 1551.29 43.4703 1554.62 43.4703C1556.96 43.4703 1558.46 44.8503 1558.46 46.8903C1558.46 50.4903 1553.78 52.2603 1546.82 52.4403L1548.74 56.8803C1558.97 56.2503 1563.26 52.1403 1563.26 46.9803C1563.26 42.2103 1560.05 39.2703 1555.07 39.2703C1551.41 39.2703 1546.31 40.9503 1544.33 41.5503C1543.46 41.8203 1541.84 42.2103 1540.97 42.3603Z" fill="#ECEFFF"/>
<path d="M1567.41 34.5303L1567.86 39.4203C1571.43 38.6403 1576.65 38.0403 1579.2 37.7703C1577.61 39.2103 1575.45 42.3603 1575.45 46.4403C1575.45 52.7703 1581.12 56.3703 1587.75 56.8803L1589.43 51.8703C1584.3 51.5703 1580.19 49.8603 1580.19 45.4803C1580.19 41.9703 1582.95 38.4903 1586.16 37.7703C1587.81 37.4403 1590.33 37.4403 1591.86 37.4103L1591.83 32.7903C1589.67 32.8803 1586.16 33.0603 1583.19 33.3003C1577.76 33.7803 1573.26 34.1403 1570.47 34.3803C1569.9 34.4403 1568.61 34.5003 1567.41 34.5303Z" fill="#ECEFFF"/>
<path d="M1603.83 33.8403L1598.31 33.7803C1598.52 34.8303 1598.58 36.0903 1598.58 36.9903C1598.58 38.8803 1598.61 42.2703 1598.91 45.0903C1599.75 53.2203 1602.66 56.2203 1606.17 56.2203C1608.78 56.2203 1610.67 54.3603 1612.74 49.1103L1609.11 44.6703C1608.69 46.6803 1607.64 50.4003 1606.26 50.4003C1604.55 50.4003 1603.95 47.6703 1603.59 43.7703C1603.41 41.7903 1603.41 39.8403 1603.41 37.8903C1603.41 37.0203 1603.59 35.1003 1603.83 33.8403ZM1618.35 34.4103L1613.76 35.9103C1617.24 39.6903 1618.68 47.2803 1619.1 51.7503L1623.87 49.9203C1623.63 45.6303 1621.26 37.8303 1618.35 34.4103Z" fill="#ECEFFF"/>
<path d="M1643.64 30.5103C1643.1 31.3203 1642.02 32.3703 1641.03 33.3303C1639.02 35.2503 1635.21 38.4003 1632.84 40.3203C1629.69 42.9003 1629.51 44.7003 1632.54 47.3103C1635.24 49.6203 1639.5 53.2803 1641.15 54.9903C1642.11 55.9803 1643.1 57.0003 1644.06 58.0803L1648.26 54.1803C1645.29 51.3603 1639.44 46.8303 1637.49 45.1203C1636.05 43.8603 1635.99 43.5903 1637.46 42.3303C1639.32 40.7103 1643.04 37.8603 1644.9 36.4503C1645.71 35.8203 1646.73 35.0403 1647.84 34.2303L1643.64 30.5103Z" fill="#ECEFFF"/>
<path d="M1277.21 76.7903C1275.98 75.8003 1273.52 74.6003 1271.69 73.9403L1269.35 77.1503C1271.21 77.9603 1273.61 79.3103 1274.69 80.3603L1277.21 76.7903ZM1275.47 84.8303C1274.21 83.8403 1271.69 82.6703 1269.86 82.0403L1267.52 85.3403C1269.41 86.1203 1271.84 87.4403 1272.95 88.4603L1275.47 84.8303ZM1273.76 89.6903C1272.05 93.2603 1269.89 96.9503 1268.39 99.2303L1272.2 101.96C1273.91 98.9303 1275.59 95.6303 1277.09 92.4203L1273.76 89.6903ZM1286.72 82.4303H1289.69V87.1403H1286.66C1286.72 86.2403 1286.72 85.3403 1286.72 84.4703V82.4303ZM1296.08 91.2203V87.1403H1293.95V78.3503H1286.72V73.8503H1282.37V78.3503H1277.87V82.4303H1282.37V84.4403C1282.37 85.3403 1282.34 86.2403 1282.28 87.1403H1276.49V91.2203H1281.62C1280.75 94.3103 1278.83 97.1903 1274.81 99.3803C1275.95 100.04 1277.66 101.54 1278.47 102.47C1282.55 100.07 1284.62 96.8903 1285.67 93.4103C1287.35 97.4003 1289.75 100.55 1293.38 102.41C1294.04 101.21 1295.42 99.4403 1296.44 98.5703C1293.11 97.1303 1290.74 94.4303 1289.33 91.2203H1296.08Z" fill="#ECEFFF"/>
<path d="M1317.68 80.0003C1320.53 79.3403 1323.59 78.4703 1326.14 77.3003L1322.66 74.1503C1320.98 75.0803 1318.43 76.0703 1315.88 76.7603L1313.54 76.1003V86.5703C1313.54 89.5103 1313.39 93.0203 1312.04 96.1103V95.9603H1302.17V91.5503C1302.65 92.5103 1303.22 93.7103 1303.46 94.6103C1304.33 93.8303 1305.14 92.7203 1305.86 91.4903V95.4503H1309.4V90.0803C1309.94 90.8603 1310.42 91.6403 1310.75 92.2103L1313.03 89.3303C1312.46 88.7603 1310.18 86.6303 1309.4 86.0303V85.9403H1312.64V82.3403H1309.4V81.4403L1311.44 82.0403C1312.04 80.7503 1312.79 78.6803 1313.54 76.8503L1310.18 76.1003C1310.03 77.2403 1309.73 78.6803 1309.4 79.9703V74.2403H1305.86V79.1303C1305.68 78.1103 1305.41 77.0303 1305.08 76.1003L1302.5 76.9403C1302.98 78.5603 1303.34 80.6903 1303.34 82.0703L1305.86 81.2603V82.3403H1302.62V85.9403H1305.59C1304.72 87.7103 1303.49 89.5103 1302.17 90.7103V74.8403H1298.42V101.72H1302.17V99.6803H1310.51C1311.47 100.34 1312.64 101.51 1313.09 102.32C1316.81 98.3603 1317.56 92.1203 1317.68 87.6803H1319.75V102.29H1323.86V87.6803H1326.14V83.6603H1317.68V80.0003Z" fill="#ECEFFF"/>
<path d="M1332.77 75.5003C1333.07 76.8503 1333.22 78.4703 1333.22 80.0603C1333.22 82.3103 1332.95 90.2603 1332.95 94.0103C1332.95 99.2003 1336.19 101.54 1341.38 101.54C1348.31 101.54 1352.72 97.4603 1354.58 94.6103L1351.31 90.5903C1349.15 93.9203 1346.03 96.6203 1341.41 96.6203C1339.4 96.6203 1337.75 95.7203 1337.75 92.8703C1337.75 89.6003 1337.96 83.1803 1338.11 80.0603C1338.17 78.7703 1338.35 76.9703 1338.56 75.5603L1332.77 75.5003Z" fill="#ECEFFF"/>
<path d="M1357.99 78.5303L1358.44 83.4203C1362.01 82.6403 1367.23 82.0403 1369.78 81.7703C1368.19 83.2103 1366.03 86.3603 1366.03 90.4403C1366.03 96.7703 1371.7 100.37 1378.33 100.88L1380.01 95.8703C1374.88 95.5703 1370.77 93.8603 1370.77 89.4803C1370.77 85.9703 1373.53 82.4903 1376.74 81.7703C1378.39 81.4403 1380.91 81.4403 1382.44 81.4103L1382.41 76.7903C1380.25 76.8803 1376.74 77.0603 1373.77 77.3003C1368.34 77.7803 1363.84 78.1403 1361.05 78.3803C1360.48 78.4403 1359.19 78.5003 1357.99 78.5303Z" fill="#ECEFFF"/>
<path d="M1414.15 75.5003H1399.54V79.6403H1414.15V75.5003ZM1393.36 73.8503C1391.95 75.9203 1389.07 78.6503 1386.58 80.2103C1387.33 81.0803 1388.44 82.8203 1388.98 83.8103C1391.95 81.7703 1395.28 78.5603 1397.56 75.5903L1393.36 73.8503ZM1394.47 80.4503C1392.55 83.8403 1389.28 87.3203 1386.25 89.4203C1387.12 90.3203 1388.59 92.3003 1389.19 93.2303C1389.82 92.7203 1390.45 92.1203 1391.11 91.5203V102.35H1395.49V86.6003C1396.66 85.1003 1397.74 83.5403 1398.61 82.0403L1394.47 80.4503ZM1414.9 83.8403H1398.28V87.9803H1406.5V97.3403C1406.5 97.7603 1406.32 97.8803 1405.78 97.8803C1405.24 97.8803 1403.26 97.8803 1401.79 97.7903C1402.36 99.0503 1402.93 100.97 1403.08 102.26C1405.63 102.26 1407.64 102.2 1409.08 101.54C1410.58 100.88 1410.97 99.6803 1410.97 97.4603V87.9803H1414.9V83.8403Z" fill="#ECEFFF"/>
<path d="M1426.48 96.1703H1431.7C1431.55 96.4103 1431.4 96.6203 1431.25 96.8303C1429.66 96.9503 1428.07 97.0703 1426.48 97.1903V96.1703ZM1421.05 89.7203V88.8203H1422.55V89.7203H1421.05ZM1421.05 85.4603H1422.55V86.3603H1421.05V85.4603ZM1427.95 85.4603V86.3603H1426.48V85.4603H1427.95ZM1427.95 89.7203H1426.48V88.8203H1427.95V89.7203ZM1438.63 80.5103C1438.66 78.5903 1438.66 76.5503 1438.66 74.4203H1434.49C1434.49 76.5803 1434.49 78.6203 1434.49 80.5103H1432.03V84.5003H1434.4C1434.19 89.3303 1433.59 93.1703 1431.7 96.1703V93.1403H1426.48V92.3603H1431.52V82.8203H1426.48V82.0703H1431.91V78.9803H1426.48V77.9303C1428.34 77.7203 1430.11 77.4803 1431.67 77.1503L1429.84 73.9403C1426.42 74.6603 1421.35 75.1703 1416.85 75.3803C1417.24 76.2203 1417.66 77.5703 1417.78 78.4403C1419.31 78.4103 1420.93 78.3503 1422.55 78.2603V78.9803H1416.91V82.0703H1422.55V82.8203H1417.63V92.3603H1422.55V93.1403H1417.51V96.1703H1422.55V97.4603C1420.33 97.6103 1418.32 97.7303 1416.67 97.8203L1417.15 101.42C1420.66 101.12 1425.34 100.7 1429.9 100.25C1430.65 101 1431.43 101.93 1431.82 102.62C1436.74 98.6303 1438.09 92.6003 1438.51 84.5003H1440.34C1440.19 93.5003 1439.95 97.0103 1439.38 97.7903C1439.08 98.2103 1438.81 98.3303 1438.36 98.3303C1437.76 98.3303 1436.74 98.3303 1435.54 98.2103C1436.23 99.3803 1436.71 101.15 1436.8 102.35C1438.24 102.38 1439.62 102.38 1440.58 102.17C1441.63 101.93 1442.38 101.57 1443.13 100.43C1444.09 99.0203 1444.3 94.5203 1444.54 82.3703C1444.54 81.8603 1444.57 80.5103 1444.57 80.5103H1438.63Z" fill="#ECEFFF"/>
<path d="M59.108 29.04C58.576 38.996 60.248 72.664 30 90.22C33.876 92.804 37.448 96.224 39.424 99.112C54.092 89.536 61.996 76.16 66.328 63.392C70.888 76.692 79.4 90.828 95.588 99.036C97.26 95.996 100.528 92.272 104.1 89.612C75.904 76.236 72.256 45 71.648 34.056C71.724 32.156 71.8 30.484 71.876 29.04H59.108Z" fill="#ECEFFF"/>
<path d="M142.38 33.2704C141.87 32.2504 140.79 30.3304 140.01 29.1904L137.19 30.3304C138 31.4704 138.96 33.2404 139.56 34.4704L142.38 33.2704ZM121.68 31.4404C121.74 33.2704 121.53 35.3404 121.11 37.6504C119.79 37.7404 118.56 37.8304 117.69 37.8604C116.52 37.8904 115.38 37.9504 114.24 37.8604L114.63 42.6904C115.62 42.5104 117.33 42.2704 118.29 42.1504C118.71 42.0904 119.37 42.0004 120.15 41.8804C119.04 45.9304 117.12 51.4804 114.3 55.2904L119.01 57.1804C121.53 53.1004 123.75 45.9604 124.95 41.3404C125.49 41.3104 126 41.2804 126.33 41.2804C128.19 41.2804 129.09 41.5504 129.09 43.7104C129.09 46.4704 128.73 49.8604 127.98 51.3304C127.59 52.1404 126.9 52.4704 125.97 52.4704C125.22 52.4704 123.42 52.1404 122.34 51.8404L123.12 56.5804C124.17 56.8204 125.58 57.0004 126.72 57.0004C129.15 57.0004 130.89 56.2504 131.91 54.1204C133.17 51.4804 133.56 46.7104 133.56 43.2304C133.56 38.7904 131.31 37.1704 127.89 37.1704C127.35 37.1704 126.66 37.2004 125.88 37.2604C126.06 36.4804 126.24 35.6704 126.39 34.8604C126.57 34.0204 126.81 32.9104 127.02 32.0104L121.68 31.4404ZM138.66 34.7404C138.12 33.6904 137.07 31.7404 136.32 30.6304L133.5 31.7704C134.19 32.7904 134.94 34.2604 135.54 35.4304L132.93 36.5104C135.09 39.2704 137.07 44.5504 137.79 48.0004L142.38 45.8704C141.57 43.1404 139.35 38.0104 137.58 35.1904L138.66 34.7404Z" fill="#ECEFFF"/>
<path d="M156.96 36.0304C156.51 35.2204 156.03 34.4104 155.58 33.6904L152.58 35.3404H150.69V29.8804H146.7V35.3404H143.76V39.3304H146.7V43.6204C145.47 44.0404 144.33 44.4004 143.37 44.6704L144.39 48.8104L146.7 47.9404V53.8804C146.7 54.2704 146.58 54.3604 146.22 54.3604C145.86 54.3904 144.87 54.3904 143.91 54.3304C144.42 55.5004 144.9 57.3004 144.99 58.3804C146.97 58.3804 148.35 58.2304 149.37 57.5404C150.39 56.8804 150.69 55.7704 150.69 53.8804V46.4404C151.65 46.0504 152.61 45.6604 153.54 45.3004L152.73 41.4904L150.69 42.2404V39.3304H152.91V36.4504C153.84 38.1604 154.8 40.1404 155.28 41.4904L156.96 40.4704V43.2904C156.96 43.6804 156.96 44.0704 156.96 44.4604L156.78 44.0704C154.83 45.3904 152.85 46.6804 151.53 47.4304L153.72 51.0904C154.56 50.4004 155.49 49.6804 156.39 48.9304C155.7 51.4204 154.26 53.5804 151.29 55.1704C152.22 55.8304 153.72 57.3004 154.38 58.2304C160.2 54.9004 160.95 49.3504 160.95 43.3204V30.2404H156.96V36.0304ZM166.89 54.2404C166.38 54.2404 166.32 54.0304 166.32 52.5304V46.7704C167.67 48.1804 168.99 49.7404 169.71 50.8504L172.47 47.8504C171.39 46.3504 169.23 44.1904 167.34 42.6004L166.32 43.6204V40.4704L168.27 41.5504C169.32 39.9604 170.55 37.4704 171.84 35.2504L167.97 33.2704C167.61 34.6504 166.98 36.3004 166.32 37.7704V30.2404H162.21V52.5004C162.21 56.8504 163.05 58.1104 166.08 58.1104H168.42C170.97 58.1104 171.99 56.4304 172.38 52.2304C171.24 51.9904 169.68 51.2404 168.75 50.5504C168.66 53.4004 168.54 54.2404 168.03 54.2404H166.89Z" fill="#ECEFFF"/>
<path d="M201.99 35.2804C201.57 33.8704 200.37 31.7704 199.32 30.1804L196.02 31.8604C197.04 33.5104 198.09 35.7604 198.48 37.1704L201.99 35.2804ZM183.96 34.8004C183.72 33.4804 183.06 31.3804 182.43 29.8204L178.86 30.6604C179.43 32.3104 180 34.4704 180.18 35.7904L183.96 34.8004ZM179.04 35.4604C178.77 34.0804 177.93 32.0404 177.09 30.5104L173.58 31.6204C174.36 33.2404 175.11 35.3704 175.29 36.7204L179.04 35.4604ZM178.17 44.1304H180.06V45.2704H178.17V44.1304ZM178.17 40.0504H180.06V41.1904H178.17V40.0504ZM185.46 41.1904H183.69V40.0504H185.46V41.1904ZM185.46 45.2704H183.69V44.1304H185.46V45.2704ZM189.93 53.5504V49.7404H183.96V48.4204H189.15V36.9004H187.47C188.46 35.4004 189.69 33.2104 190.8 31.0804L186.3 29.9404C185.79 31.8604 184.77 34.3804 183.84 36.0904L186.42 36.9004H174.66V48.4204H179.79V49.7404H173.58V53.5504H179.79V58.3204H183.96V53.5504H189.93ZM198.42 41.4904C197.91 42.9904 197.28 44.4904 196.5 45.9004C196.35 44.6404 196.2 43.2604 196.08 41.7904L198.42 41.4904ZM198.45 41.4904L202.26 41.0104L201.81 36.9904L195.81 37.7104C195.69 35.2804 195.6 32.6704 195.6 29.9704H191.49C191.55 32.9104 191.64 35.6404 191.79 38.1904L189.42 38.4604L189.9 42.5404L192.06 42.2704C192.33 45.5104 192.69 48.3004 193.23 50.6104C191.4 52.6504 189.21 54.3304 186.78 55.4104C187.89 56.1604 189.18 57.4504 189.93 58.4404C191.61 57.5104 193.17 56.3104 194.61 54.8704C195.6 56.9704 196.92 58.1104 198.63 58.1704C199.92 58.2304 201.66 57.1504 202.53 51.8704C201.87 51.4804 200.13 50.2504 199.44 49.3204C199.32 51.7504 199.08 52.9804 198.66 52.9804C198.3 52.9504 197.94 52.3504 197.58 51.3304C199.35 48.9004 200.76 46.1404 201.69 43.3204L198.45 41.4904Z" fill="#ECEFFF"/>
<path d="M225.21 39.9004L222.6 40.9804C223.56 42.3604 224.07 43.3504 224.88 45.0904L227.55 43.9204C227.01 42.8104 225.96 41.0104 225.21 39.9004ZM228.6 38.4604L226.02 39.6304C227.01 40.9804 227.58 41.9104 228.45 43.6204L231.09 42.3604C230.49 41.2804 229.38 39.5404 228.6 38.4604ZM204.9 34.5304L205.35 39.4204C208.92 38.6404 214.14 38.0404 216.69 37.7704C215.1 39.2104 212.94 42.3604 212.94 46.4404C212.94 52.7704 218.61 56.3704 225.24 56.8804L226.92 51.8704C221.79 51.5704 217.68 49.8604 217.68 45.4804C217.68 41.9704 220.44 38.4904 223.65 37.7704C225.3 37.4404 227.82 37.4404 229.35 37.4104L229.32 32.7904C227.16 32.8804 223.65 33.0604 220.68 33.3004C215.25 33.7804 210.75 34.1404 207.96 34.3804C207.39 34.4404 206.1 34.5004 204.9 34.5304Z" fill="#ECEFFF"/>
<path d="M238.26 46.8604C237.9 48.0004 237.51 49.6804 237.51 51.0604C237.51 55.4404 241.08 57.3604 246.81 57.3604C250.05 57.3604 253.17 57.0304 254.7 56.7604L254.85 52.1704C252.78 52.5604 249.75 52.8304 246.69 52.8304C243.06 52.8304 242.01 51.6604 242.01 50.0704C242.01 49.3504 242.34 48.1504 242.7 47.2504L238.26 46.8604ZM258.27 37.9804C256.95 38.4604 255.3 38.9704 253.02 39.4204L252.66 38.5804C252.48 38.1604 252.27 37.7104 252.09 37.2604C253.92 36.9304 255.39 36.5404 256.89 36.0904L256.14 32.1004C254.37 32.7004 252.54 33.1204 250.59 33.4504C250.23 32.4604 249.96 31.5004 249.78 30.6604L244.65 31.6204C245.16 32.4004 245.55 33.0304 246 33.9604C243.51 34.0504 240.72 33.9304 237.45 33.5704L237.69 37.6504C241.23 38.0104 244.89 38.0104 247.77 37.8004L248.55 39.6004L248.73 40.0504C245.49 40.3504 241.62 40.3504 237.24 39.9304L237.42 44.0404C241.86 44.3404 246.66 44.2804 250.35 43.8904C250.65 44.6104 250.98 45.4204 251.37 46.2904C250.62 46.2304 249.57 46.1404 248.55 46.0504L248.16 49.4704C250.2 49.7104 253.29 50.1904 255.03 50.5504L257.13 47.8504C256.26 46.2004 255.48 44.5804 254.79 43.1404C256.41 42.8104 257.94 42.4504 259.11 42.0304L258.27 37.9804Z" fill="#ECEFFF"/>
<path d="M276.884 53.2204C275.384 53.2204 274.394 52.5604 274.394 51.6304C274.394 51.0304 274.964 50.4604 275.924 50.4604C277.184 50.4604 278.084 51.5104 278.234 53.1604C277.814 53.1904 277.364 53.2204 276.884 53.2204ZM283.634 31.8904C283.244 32.0104 282.404 32.1304 280.994 32.2504C279.224 32.4004 273.284 32.4904 271.694 32.4904C270.704 32.4904 269.594 32.4304 268.664 32.3104L268.814 36.9604C269.534 36.8404 270.584 36.7504 271.484 36.6904C273.074 36.5704 276.134 36.4504 277.634 36.4204C276.194 37.7104 273.434 39.8404 271.784 41.2204C270.014 42.6604 266.564 45.6004 264.644 47.1004L267.914 50.4904C270.764 47.0104 273.884 44.4004 278.234 44.4004C281.504 44.4004 284.114 45.9904 284.114 48.5404C284.114 49.9804 283.544 51.1504 282.374 51.9604C281.864 49.1404 279.524 47.0404 275.894 47.0404C272.534 47.0404 270.134 49.4704 270.134 52.0804C270.134 55.3504 273.614 57.3004 277.814 57.3004C285.494 57.3004 288.854 53.2504 288.854 48.6004C288.854 44.1304 284.834 40.8604 279.734 40.8604C279.014 40.8604 278.444 40.8904 277.664 41.0404C279.284 39.7804 281.894 37.6504 283.574 36.5104C284.324 36.0004 285.074 35.5504 285.854 35.0704L283.634 31.8904Z" fill="#ECEFFF"/>
<path d="M305.204 50.3404C305.204 52.2604 304.694 53.0104 302.924 53.0104C301.304 53.0104 299.894 52.6804 299.894 51.3304C299.894 50.2504 301.094 49.6204 302.984 49.6204C303.734 49.6204 304.484 49.6804 305.204 49.8004V50.3404ZM318.794 51.6604C316.814 49.7704 313.634 47.7304 309.854 46.5904C309.734 44.6704 309.614 42.6304 309.554 40.9804C311.924 40.9204 315.314 40.8004 317.714 40.5904L317.534 36.3004C315.164 36.5404 311.864 36.6604 309.494 36.7204C309.494 36.1504 309.494 35.5804 309.524 35.0404C309.584 33.7204 309.674 32.2504 309.824 31.2604H304.424C304.634 32.1004 304.724 33.3304 304.784 35.0404C304.814 36.3004 304.844 37.6804 304.844 39.5104C304.844 40.9804 304.934 43.4104 305.054 45.6904C304.604 45.6604 304.124 45.6304 303.674 45.6304C298.064 45.6304 295.214 48.2104 295.214 51.5704C295.214 55.9504 298.964 57.3904 303.284 57.3904C308.834 57.3904 310.124 54.6604 310.124 51.9004V51.4804C312.464 52.7404 314.474 54.3904 316.034 55.9504L318.794 51.6604Z" fill="#ECEFFF"/>
<path d="M342.164 45.7204C342.164 50.0104 337.634 52.1704 330.164 52.9804L332.744 57.4804C341.324 56.3704 347.294 52.2304 347.294 45.9004C347.294 41.0404 343.904 38.1904 338.924 38.1904C335.414 38.1904 332.114 39.0004 329.864 39.4804C328.874 39.6904 327.434 39.9304 326.354 40.0204L327.674 45.1204C328.604 44.7904 329.924 44.2504 330.764 44.0104C332.144 43.5904 335.114 42.5704 338.294 42.5704C340.934 42.5704 342.164 44.0704 342.164 45.7204ZM330.944 30.9604L330.254 35.2804C333.704 35.8804 340.424 36.4504 343.994 36.6904L344.714 32.2804C341.444 32.2804 334.514 31.7104 330.944 30.9604Z" fill="#ECEFFF"/>
<path d="M380.894 38.7604C379.304 37.6504 375.464 35.6104 373.334 34.6804L371.024 38.2504C373.094 39.1504 376.574 41.1604 378.344 42.5404L380.894 38.7604ZM369.434 34.1404C368.444 34.4404 367.184 34.7404 365.804 35.0104C366.224 33.5104 366.554 32.1604 366.764 31.2304L361.844 30.7504C361.784 32.2804 361.514 33.9904 361.094 35.6104C360.314 35.6704 359.564 35.7004 358.784 35.7004C357.794 35.7004 356.024 35.6404 354.644 35.4904L354.974 39.6304C356.354 39.7204 357.554 39.7504 358.814 39.7504C359.114 39.7504 359.444 39.7504 359.774 39.7204C358.484 42.8104 356.204 46.9804 353.864 49.8904L358.214 52.0804C360.614 48.6304 363.134 43.4704 364.514 39.3004C366.524 39.0004 368.324 38.6104 369.554 38.2804L369.434 34.1404ZM369.674 50.6704C369.674 52.3204 369.134 53.3704 367.364 53.3704C366.104 53.3704 365.294 52.7104 365.294 51.7504C365.294 50.9104 366.194 50.3104 367.664 50.3104C368.354 50.3104 369.044 50.4004 369.674 50.5204V50.6704ZM369.194 40.5304C369.284 42.2104 369.404 44.6404 369.524 46.7704C369.014 46.7104 368.504 46.6804 367.964 46.6804C363.374 46.6804 361.034 49.2304 361.034 52.2004C361.034 55.6504 364.094 57.4804 368.024 57.4804C372.404 57.4804 373.964 55.3504 374.054 52.5004C375.524 53.5204 376.724 54.6604 377.654 55.5304L380.024 51.6604C378.554 50.2804 376.454 48.7804 373.874 47.7904C373.814 46.5604 373.754 45.3904 373.724 44.7004C373.694 43.2304 373.634 41.8204 373.724 40.5304H369.194Z" fill="#ECEFFF"/>
<path d="M137.4 79.0104H136.05V77.6304H137.4V79.0104ZM133.35 79.0104H132.03V77.6304H133.35V79.0104ZM129.33 79.0104H128.04V77.6304H129.33V79.0104ZM141 74.7804H124.62V81.8604H141V74.7804ZM123.3 85.8804H141.96V82.4604H123.3V85.8804ZM123.81 92.0604L120.81 92.7804V88.4304H123.27V84.6204H120.81V79.7904H123.69V75.9804H113.82V79.7904H116.94V84.6204H114.06V88.4304H116.94V93.7104C115.62 94.0104 114.39 94.2504 113.34 94.4604L114.21 98.5404C117.18 97.7904 120.9 96.8604 124.32 95.9304L123.81 92.0604ZM128.88 89.6904H136.56V90.9804H128.88V89.6904ZM138.54 94.0104C138.03 94.5804 137.31 95.2704 136.68 95.8104C136.08 95.2404 135.54 94.6404 135.06 94.0104H138.54ZM139.14 94.0104H140.58V86.6604H125.1V94.0104H129.57C127.23 95.6904 124.2 97.1604 121.35 98.0304C122.16 98.7804 123.3 100.19 123.84 101.09C125.49 100.46 127.2 99.5904 128.79 98.6004V102.35H132.9V96.8604C134.58 99.2604 136.77 101.21 139.44 102.38C140.04 101.33 141.24 99.7704 142.14 98.9904C141.12 98.6604 140.19 98.2404 139.29 97.7304C140.04 97.2204 140.91 96.5904 141.75 95.9004L139.14 94.0104Z" fill="#ECEFFF"/>
<path d="M164.46 78.8304C164.31 79.3704 164.07 79.9704 163.89 80.4504H161.1C160.98 79.9704 160.77 79.3704 160.53 78.8304H164.46ZM171.93 80.4504H168.06C168.3 80.0004 168.57 79.4604 168.9 78.8304H171.45V75.5004H164.55V73.9704H160.26V75.5004H154.02V78.8304H157.02L156.42 78.9504C156.63 79.4004 156.81 79.9404 156.96 80.4504H153.54V83.9604H171.93V80.4504ZM153.21 89.8104L150.81 90.8004V84.9804H153.27V80.9004H150.81V74.3304H146.76V80.9004H144.06V84.9804H146.76V92.3904C145.47 92.8704 144.3 93.2904 143.34 93.6204L144.81 97.9704C147.6 96.7104 151.05 95.1804 154.17 93.6804L153.21 89.8104ZM159.03 91.0104H166.44V92.1204H159.03V91.0104ZM159.03 87.5004H166.44V88.5804H159.03V87.5004ZM167.73 98.5704C167.34 98.5704 167.28 98.4804 167.28 97.6704V94.7304H170.7V84.8904H154.95V94.7304H157.29C156.78 96.6204 155.58 97.9404 151.02 98.8104C151.86 99.6504 152.97 101.42 153.36 102.5C159.3 100.91 160.95 98.2704 161.58 94.7304H163.14V97.7304C163.14 101.03 163.77 102.23 166.98 102.23H168.99C171.27 102.23 172.29 101.3 172.68 97.7304C171.6 97.4904 169.86 96.8304 169.11 96.2304C169.02 98.2704 168.9 98.5704 168.51 98.5704H167.73Z" fill="#ECEFFF"/>
<path d="M192.06 95.0304C192.03 93.7104 191.97 91.7004 191.94 90.0804C193.5 89.3904 194.94 88.8204 196.08 88.4004C197.22 87.9504 199.08 87.2604 200.13 86.9604L198.36 82.8204C197.1 83.4204 195.87 83.9904 194.58 84.5604C193.53 85.0404 192.57 85.4304 191.37 86.0004C190.59 84.6204 189.15 83.9004 187.41 83.9004C186.57 83.9004 185.07 84.0204 184.47 84.2004C184.86 83.6004 185.25 82.8804 185.61 82.1004C188.79 81.9804 192.42 81.7104 195.21 81.3504L195.24 77.1804C192.75 77.6304 189.9 77.8704 187.23 78.0204C187.56 76.9104 187.77 75.9804 187.89 75.3204L183.15 74.9304C183.12 75.6804 182.97 76.8204 182.64 78.1704H181.47C179.88 78.1704 177.6 78.0504 176.13 77.8104V81.9804C177.69 82.1304 179.85 82.1904 181.08 82.1904C179.64 84.9204 177.54 87.3504 174.72 89.8404L178.56 92.7204C179.58 91.3704 180.42 90.2904 181.32 89.3604C182.34 88.3704 184.17 87.3804 185.7 87.3804C186.27 87.3804 186.87 87.5304 187.32 87.9804C184.02 89.7204 180.48 92.2104 180.48 96.0804C180.48 100.04 183.99 101.3 188.88 101.3C191.82 101.3 195.63 101.03 197.46 100.79L197.61 96.1404C195 96.7104 191.61 97.0704 188.97 97.0704C186.18 97.0704 185.25 96.5604 185.25 95.3004C185.25 94.1004 186.06 93.1404 187.92 92.0604C187.89 93.1704 187.83 94.2804 187.77 95.0304H192.06Z" fill="#ECEFFF"/>
<path d="M209.82 73.9704C208.38 78.1104 205.89 82.2504 203.28 84.8604C204.03 85.9704 205.23 88.4904 205.62 89.5704C206.04 89.1204 206.46 88.6704 206.88 88.1604V102.32H211.29V81.4104C212.37 79.4004 213.3 77.3304 214.05 75.3204L209.82 73.9704ZM232.2 82.8204V78.6804H221.01C221.52 77.5404 221.97 76.3704 222.36 75.2004L218.16 74.0904C216.84 78.3804 214.5 82.7004 211.89 85.3404C212.82 86.0304 214.5 87.5904 215.19 88.4004C216.51 86.9004 217.8 84.9804 219 82.8204H219.57V102.35H224.07V96.0204H231.78V91.9704H224.07V89.2704H231.39V85.3104H224.07V82.8204H232.2Z" fill="#ECEFFF"/>
<path d="M247.47 97.2204C245.97 97.2204 244.98 96.5604 244.98 95.6304C244.98 95.0304 245.55 94.4604 246.51 94.4604C247.77 94.4604 248.67 95.5104 248.82 97.1604C248.4 97.1904 247.95 97.2204 247.47 97.2204ZM254.22 75.8904C253.83 76.0104 252.99 76.1304 251.58 76.2504C249.81 76.4004 243.87 76.4904 242.28 76.4904C241.29 76.4904 240.18 76.4304 239.25 76.3104L239.4 80.9604C240.12 80.8404 241.17 80.7504 242.07 80.6904C243.66 80.5704 246.72 80.4504 248.22 80.4204C246.78 81.7104 244.02 83.8404 242.37 85.2204C240.6 86.6604 237.15 89.6004 235.23 91.1004L238.5 94.4904C241.35 91.0104 244.47 88.4004 248.82 88.4004C252.09 88.4004 254.7 89.9904 254.7 92.5404C254.7 93.9804 254.13 95.1504 252.96 95.9604C252.45 93.1404 250.11 91.0404 246.48 91.0404C243.12 91.0404 240.72 93.4704 240.72 96.0804C240.72 99.3504 244.2 101.3 248.4 101.3C256.08 101.3 259.44 97.2504 259.44 92.6004C259.44 88.1304 255.42 84.8604 250.32 84.8604C249.6 84.8604 249.03 84.8904 248.25 85.0404C249.87 83.7804 252.48 81.6504 254.16 80.5104C254.91 80.0004 255.66 79.5504 256.44 79.0704L254.22 75.8904Z" fill="#ECEFFF"/>
</svg>
