<svg width="2089" height="128" viewBox="0 0 2089 128" fill="none" xmlns="http://www.w3.org/2000/svg">
<path d="M76.448 38.3845V35.3765C76.448 34.0645 76.576 33.0405 76.672 32.2085H71.168C71.296 33.0085 71.36 34.0645 71.36 35.3765V38.3845H64.64V35.7605C64.64 34.3845 64.768 33.2965 64.864 32.5285H59.36C59.456 33.2965 59.584 34.4165 59.584 35.7285V38.3845H57.28C55.552 38.3845 54.4 38.1605 53.664 38.0325V43.2805C54.592 43.2165 55.552 43.1525 57.28 43.1525H59.584V47.0245C59.584 48.5925 59.488 49.8405 59.392 50.6405H64.8C64.736 49.8405 64.64 48.5925 64.64 47.0245V43.1525H71.36V44.3045C71.36 51.5365 68.768 54.3205 62.368 56.4325L66.528 60.3365C74.496 56.8485 76.448 51.7605 76.448 44.1765V43.1525H78.176C80 43.1525 81.12 43.1525 82.016 43.2485V38.1285C80.896 38.3205 80 38.3845 78.144 38.3845H76.448Z" fill="#ECEFFF"/>
<path d="M86.752 48.7525C88.064 48.6565 90.464 48.5605 92.288 48.5605H109.28C110.592 48.5605 112.384 48.7205 113.216 48.7525V42.6405C112.288 42.7045 110.72 42.8645 109.28 42.8645H92.288C90.72 42.8645 88.032 42.7365 86.752 42.6405V48.7525Z" fill="#ECEFFF"/>
<path d="M142.304 35.9845C141.728 34.8645 140.608 32.7845 139.808 31.6005L136.8 32.8165C137.664 34.0645 138.592 35.9525 139.264 37.2645L142.304 35.9845ZM126.048 47.3445C130.272 46.2885 135.2 44.7525 138.272 43.6005C139.392 43.1845 140.992 42.5125 142.4 41.9365L140.352 37.0405C138.88 37.9045 137.728 38.4485 136.48 38.9285C133.888 39.9845 129.792 41.3285 126.048 42.2885V36.9125C126.048 35.9845 126.144 34.2565 126.304 33.1685H120.608C120.768 34.2565 120.864 36.2085 120.864 36.9125V54.2245C120.864 57.1045 122.624 58.8325 125.568 59.3765C126.976 59.6005 128.928 59.7605 131.104 59.7605C134.656 59.7605 139.52 59.5685 142.688 59.1205V53.4565C140.064 54.1605 134.752 54.6085 131.424 54.6085C130.08 54.6085 128.96 54.5765 128.032 54.4485C126.656 54.1925 126.048 53.8725 126.048 52.6245V47.3445ZM140.736 31.2805C141.6 32.4965 142.624 34.3845 143.264 35.6965L146.272 34.4165C145.728 33.3285 144.576 31.2805 143.744 30.0645L140.736 31.2805Z" fill="#ECEFFF"/>
<path d="M172.128 33.8085C171.392 34.0645 169.888 34.2885 168.288 34.2885H157.6C156.672 34.2885 154.624 34.1925 153.504 34.0325V39.5365C154.4 39.4725 156.16 39.2805 157.6 39.2805H167.552C166.88 41.3285 165.152 44.1445 163.072 46.5125C160.224 49.6805 155.168 53.6165 149.984 55.5045L154.016 59.6965C158.208 57.6805 162.4 54.4485 165.76 50.9605C168.64 53.7445 171.36 56.8165 173.408 59.7285L177.856 55.8565C176.096 53.6805 172.256 49.6165 169.152 46.9285C171.232 44.0485 172.928 40.8485 173.984 38.4805C174.336 37.6805 175.008 36.5605 175.296 36.1445L172.128 33.8085Z" fill="#ECEFFF"/>
<path d="M200.48 53.2325C200.448 51.8245 200.384 49.6805 200.352 47.9525C202.016 47.2165 203.552 46.6085 204.768 46.1605C205.984 45.6805 207.968 44.9445 209.088 44.6245L207.2 40.2085C205.856 40.8485 204.544 41.4565 203.168 42.0645C202.048 42.5765 201.024 42.9925 199.744 43.6005C198.912 42.1285 197.376 41.3605 195.52 41.3605C194.624 41.3605 193.024 41.4885 192.384 41.6805C192.8 41.0405 193.216 40.2725 193.6 39.4405C196.992 39.3125 200.864 39.0245 203.84 38.6405L203.872 34.1925C201.216 34.6725 198.176 34.9285 195.328 35.0885C195.68 33.9045 195.904 32.9125 196.032 32.2085L190.976 31.7925C190.944 32.5925 190.784 33.8085 190.432 35.2485H189.184C187.488 35.2485 185.056 35.1205 183.488 34.8645V39.3125C185.152 39.4725 187.456 39.5365 188.768 39.5365C187.232 42.4485 184.992 45.0405 181.984 47.6965L186.08 50.7685C187.168 49.3285 188.064 48.1765 189.024 47.1845C190.112 46.1285 192.064 45.0725 193.696 45.0725C194.304 45.0725 194.944 45.2325 195.424 45.7125C191.904 47.5685 188.128 50.2245 188.128 54.3525C188.128 58.5765 191.872 59.9205 197.088 59.9205C200.224 59.9205 204.288 59.6325 206.24 59.3765L206.4 54.4165C203.616 55.0245 200 55.4085 197.184 55.4085C194.208 55.4085 193.216 54.8645 193.216 53.5205C193.216 52.2405 194.08 51.2165 196.064 50.0645C196.032 51.2485 195.968 52.4325 195.904 53.2325H200.48Z" fill="#ECEFFF"/>
<path d="M223.776 42.9925H231.872V44.3685H223.776V42.9925ZM240.352 49.0725H230.752V47.5685H236.64V39.7925H219.328V47.5685H225.92V49.0725H216.128V59.6325H220.864V53.2005H225.92V61.0405H230.752V53.2005H235.552V55.5045C235.552 55.8565 235.392 55.9525 234.912 55.9525C234.496 55.9525 232.768 55.9525 231.616 55.8885C232.224 57.0405 232.864 58.8325 233.088 60.1125C235.264 60.1125 237.056 60.0805 238.496 59.4405C239.936 58.7685 240.352 57.6165 240.352 55.6005V49.0725ZM237.792 34.7045C238.496 34.0325 239.264 33.2005 240.096 32.3045L235.04 30.8645C234.56 31.8565 233.696 33.2005 232.96 34.1605L234.56 34.7045H230.24V30.6085H225.408V34.7045H221.28L222.848 34.0325C222.464 33.0725 221.6 31.7285 220.736 30.7685L216.48 32.4325C216.992 33.1045 217.504 33.9365 217.888 34.7045H213.984V42.9285H218.432V38.6725H237.472V42.9285H242.112V34.7045H237.792Z" fill="#ECEFFF"/>
<path d="M258.208 35.2485L258.24 40.1765C262.464 40.5285 268 40.4965 272.16 40.1765V35.2165C268.608 35.6005 262.336 35.7605 258.208 35.2485ZM257.088 48.7525C256.736 50.2885 256.512 51.6645 256.512 53.1045C256.512 56.4645 259.264 58.5445 264.8 58.5445C268.544 58.5445 271.072 58.3205 273.152 57.9365L273.056 52.7525C270.176 53.3285 267.904 53.5845 265.056 53.5845C262.464 53.5845 261.152 53.0725 261.152 51.6645C261.152 50.8325 261.248 50.1285 261.472 49.1365L257.088 48.7525ZM248.64 32.8805C248.608 34.0645 248.384 35.5045 248.256 36.4645C247.936 38.8005 247.008 44.0805 247.008 48.9445C247.008 53.2325 247.648 57.2325 248.288 59.3765L252.704 59.0885C252.672 58.5765 252.672 58.0005 252.672 57.6485C252.672 57.3605 252.768 56.5925 252.864 56.1445C253.216 54.3525 254.208 50.8645 255.168 47.9845L252.832 46.1605C252.416 47.0565 252.032 47.6965 251.616 48.5925C251.584 48.4645 251.584 47.9525 251.584 47.8565C251.584 44.9125 252.736 38.1925 253.088 36.5605C253.216 35.9845 253.696 34.0325 253.984 33.3285L248.64 32.8805Z" fill="#ECEFFF"/>
<path d="M70.496 93.6325V88.1285H79.68V83.6485H70.496V78.7525H80.96V74.2085H70.496V68.6405H65.632V74.2085H61.536C62.08 72.8325 62.56 71.4565 62.944 70.0485L58.112 68.9605C57.024 73.2805 54.976 77.6645 52.512 80.2885C53.696 80.9285 55.776 82.3045 56.704 83.1045C57.664 81.9205 58.592 80.4165 59.488 78.7525H65.632V83.6485H57.344V88.1285H65.632V93.6325H53.536V98.1765H82.656V93.6325H70.496Z" fill="#ECEFFF"/>
<path d="M90.752 90.3685C90.272 90.3685 89.888 89.8565 89.888 89.1845C89.888 87.5845 91.488 85.8245 94.368 85.2165C93.632 86.8165 92.896 88.2885 92.256 89.2805C91.744 90.0485 91.328 90.3685 90.752 90.3685ZM114.752 86.9125C113.92 86.3685 112.832 85.6645 111.616 84.9605C111.904 83.2005 112.096 81.2805 112.192 79.2325L107.168 78.6565C107.296 79.7125 107.296 81.0245 107.2 82.4325L107.168 82.7845C105.376 82.0485 103.424 81.4405 101.376 81.0565C102.4 78.5285 103.456 76.0325 104.256 74.6885C104.512 74.2405 104.928 73.7605 105.44 73.2165L102.4 70.8485C101.76 71.1045 100.8 71.3285 99.904 71.3925C98.368 71.5205 95.424 71.6165 93.536 71.6165C92.832 71.6165 91.648 71.5525 90.752 71.4565L90.944 76.3525C91.808 76.2245 93.024 76.0965 93.664 76.0645C95.104 75.9685 97.216 75.9045 98.464 75.8725C97.856 77.1205 97.12 78.9445 96.352 80.7365C89.92 81.1205 85.376 84.9925 85.376 89.9845C85.376 93.5365 87.648 95.5525 90.656 95.5525C93.12 95.5525 94.784 94.5285 96.128 92.4485C97.216 90.7205 98.432 87.8725 99.584 85.2485C101.92 85.6645 104.096 86.4965 106.112 87.5845C105.024 90.2085 102.816 92.9925 98.208 94.9765L102.304 98.3045C106.304 96.1925 108.704 93.5365 110.112 90.2405C110.976 90.8805 111.776 91.5845 112.544 92.2565L114.752 86.9125Z" fill="#ECEFFF"/>
<path d="M140.288 85.2165V92.7045H134.208V83.6805H143.872V71.6165H138.944V79.1685H134.208V69.0565H129.376V79.1685H124.96V71.6485H120.288V83.6805H129.376V92.7045H123.744V85.2165H119.008V99.0405H123.744V97.2485H140.288V99.0405H145.152V85.2165H140.288Z" fill="#ECEFFF"/>
<path d="M154.304 70.4005C154.624 71.8405 154.784 73.5685 154.784 75.2645C154.784 77.6645 154.496 86.1445 154.496 90.1445C154.496 95.6805 157.952 98.1765 163.488 98.1765C170.88 98.1765 175.584 93.8245 177.568 90.7845L174.08 86.4965C171.776 90.0485 168.448 92.9285 163.52 92.9285C161.376 92.9285 159.616 91.9685 159.616 88.9285C159.616 85.4405 159.84 78.5925 160 75.2645C160.064 73.8885 160.256 71.9685 160.48 70.4645L154.304 70.4005Z" fill="#ECEFFF"/>
<path d="M181.207 73.6325L181.687 78.8485C185.495 78.0165 191.063 77.3765 193.783 77.0885C192.087 78.6245 189.783 81.9845 189.783 86.3365C189.783 93.0885 195.831 96.9285 202.903 97.4725L204.695 92.1285C199.223 91.8085 194.839 89.9845 194.839 85.3125C194.839 81.5685 197.783 77.8565 201.207 77.0885C202.967 76.7365 205.655 76.7365 207.287 76.7045L207.255 71.7765C204.951 71.8725 201.207 72.0645 198.039 72.3205C192.247 72.8325 187.447 73.2165 184.471 73.4725C183.863 73.5365 182.487 73.6005 181.207 73.6325Z" fill="#ECEFFF"/>
<path d="M220.055 72.8965L214.167 72.8325C214.391 73.9525 214.455 75.2965 214.455 76.2565C214.455 78.2725 214.487 81.8885 214.807 84.8965C215.703 93.5685 218.807 96.7684 222.551 96.7684C225.335 96.7684 227.351 94.7845 229.559 89.1845L225.687 84.4485C225.239 86.5925 224.119 90.5605 222.647 90.5605C220.823 90.5605 220.183 87.6485 219.799 83.4885C219.607 81.3765 219.607 79.2965 219.607 77.2165C219.607 76.2885 219.799 74.2405 220.055 72.8965ZM235.543 73.5045L230.647 75.1045C234.359 79.1365 235.895 87.2325 236.343 92.0005L241.431 90.0485C241.175 85.4724 238.647 77.1525 235.543 73.5045Z" fill="#ECEFFF"/>
<path d="M248.791 86.7845C248.407 88.0005 247.991 89.7925 247.991 91.2645C247.991 95.9365 251.799 97.9845 257.911 97.9845C261.367 97.9845 264.695 97.6325 266.327 97.3445L266.487 92.4485C264.279 92.8645 261.047 93.1525 257.783 93.1525C253.911 93.1525 252.791 91.9045 252.791 90.2085C252.791 89.4405 253.143 88.1605 253.527 87.2005L248.791 86.7845ZM270.135 77.3125C268.727 77.8245 266.967 78.3685 264.535 78.8485L264.151 77.9525C263.959 77.5045 263.735 77.0245 263.543 76.5445C265.495 76.1925 267.063 75.7765 268.663 75.2965L267.863 71.0405C265.975 71.6805 264.023 72.1285 261.943 72.4805C261.559 71.4245 261.271 70.4005 261.079 69.5045L255.607 70.5285C256.151 71.3605 256.567 72.0325 257.047 73.0245C254.391 73.1205 251.415 72.9925 247.927 72.6085L248.183 76.9605C251.959 77.3445 255.863 77.3445 258.935 77.1205L259.767 79.0405L259.959 79.5205C256.503 79.8405 252.375 79.8405 247.703 79.3925L247.895 83.7765C252.631 84.0965 257.751 84.0325 261.687 83.6165C262.007 84.3845 262.359 85.2485 262.775 86.1765C261.975 86.1125 260.855 86.0165 259.767 85.9205L259.351 89.5685C261.527 89.8245 264.823 90.3365 266.679 90.7205L268.919 87.8405C267.991 86.0805 267.159 84.3525 266.423 82.8165C268.151 82.4645 269.783 82.0805 271.031 81.6325L270.135 77.3125Z" fill="#ECEFFF"/>
<path d="M291.991 84.3845C294.007 84.1285 295.959 84.0325 298.263 84.0325C300.215 84.0325 302.199 84.2565 303.767 84.4485L303.863 79.8405C301.943 79.6485 300.023 79.5525 298.263 79.5525C296.183 79.5525 293.815 79.7125 291.991 79.9045V84.3845ZM294.743 73.1845C293.143 73.5685 291.511 73.8885 289.879 74.1445L290.007 73.6005C290.167 72.8645 290.487 71.3285 290.743 70.3365L284.887 69.8885C284.983 70.6885 284.951 72.0965 284.791 73.4405C284.759 73.8245 284.695 74.2405 284.599 74.7205C283.767 74.7525 282.903 74.7845 282.071 74.7845C280.695 74.7845 279.703 74.7205 277.975 74.5285L278.103 79.2965C279.191 79.3605 280.407 79.4245 282.039 79.4245C282.551 79.4245 283.095 79.4245 283.639 79.3925C283.479 80.1285 283.255 80.8965 283.063 81.6325C281.879 86.0485 279.383 92.8004 277.495 95.9364L282.839 97.7285C284.631 93.8245 286.743 87.3925 287.895 82.9765C288.215 81.7285 288.535 80.3205 288.855 78.9765C290.903 78.7525 292.951 78.4005 294.743 77.9845V73.1845ZM289.879 87.5845C289.623 88.7685 289.303 90.4965 289.303 92.0965C289.303 95.3285 292.087 97.3445 297.623 97.3445C300.279 97.3445 302.423 97.1205 304.247 96.8965L304.439 92.0005C302.007 92.4165 299.799 92.6725 297.655 92.6725C294.871 92.6725 294.039 91.8405 294.039 90.5285C294.039 89.8885 294.231 88.8325 294.455 88.0005L289.879 87.5845Z" fill="#ECEFFF"/>
<path d="M316.055 72.8965L310.167 72.8325C310.391 73.9525 310.455 75.2965 310.455 76.2565C310.455 78.2725 310.487 81.8885 310.807 84.8965C311.703 93.5685 314.807 96.7684 318.551 96.7684C321.335 96.7684 323.351 94.7845 325.559 89.1845L321.687 84.4485C321.239 86.5925 320.119 90.5605 318.647 90.5605C316.823 90.5605 316.183 87.6485 315.799 83.4885C315.607 81.3765 315.607 79.2965 315.607 77.2165C315.607 76.2885 315.799 74.2405 316.055 72.8965ZM331.543 73.5045L326.647 75.1045C330.359 79.1365 331.895 87.2325 332.343 92.0005L337.431 90.0485C337.175 85.4724 334.647 77.1525 331.543 73.5045Z" fill="#ECEFFF"/>
<path d="M1934.62 35.1521C1933.69 35.9201 1932.66 36.5281 1931.32 37.2961C1929.94 38.0961 1927.54 39.3441 1925.21 40.6881C1923.96 38.3201 1922.55 35.4401 1921.4 32.2401L1916.57 34.1921C1917.98 37.5201 1919.45 40.7521 1920.92 43.4721C1918.01 45.6801 1915.77 48.2721 1915.77 51.8881C1915.77 57.7441 1920.79 59.5041 1927.32 59.5041C1931.54 59.5041 1934.71 59.1841 1937.59 58.7041L1937.66 53.1681C1934.65 53.8401 1930.33 54.3841 1927.19 54.3841C1923.13 54.3841 1921.11 53.3921 1921.11 51.3121C1921.11 49.2321 1922.87 47.5361 1925.34 45.9361C1928.12 44.1441 1931.83 42.4481 1933.72 41.5201C1935 40.8801 1936.15 40.2721 1937.27 39.6001L1934.62 35.1521Z" fill="#ECEFFF"/>
<path d="M1948.76 47.3761C1948.28 49.2321 1947.86 51.3761 1947.86 52.7841C1947.86 57.4561 1951.38 59.8881 1958.01 59.8881C1962.14 59.8881 1965.05 59.4081 1966.71 59.0881L1966.81 54.0321C1964.47 54.4801 1962.55 54.9601 1958.01 54.9601C1953.66 54.9601 1952.89 53.4881 1952.89 51.4401C1952.89 50.5121 1953.4 48.7201 1953.75 47.7601L1948.76 47.3761ZM1969.85 34.5761C1967.9 35.2161 1965.98 35.7601 1963.77 36.1761C1963.1 34.5121 1962.49 33.0081 1962.07 31.5361L1956.63 32.5921C1957.43 33.8401 1957.75 34.5121 1958.33 35.8241L1958.81 36.8801C1955.58 37.1361 1951.86 37.0721 1947.35 36.4961L1947.51 41.3921C1952.6 41.8081 1957.02 41.8081 1960.82 41.4241C1961.66 43.2161 1962.52 44.8801 1963.19 46.2561C1962.3 46.2241 1960.86 46.0961 1959.86 46.0001L1959.45 49.9361C1961.98 50.2561 1965.11 50.8001 1967.03 51.1841L1969.69 48.3041C1968.28 45.8721 1966.87 43.1841 1965.69 40.6241C1967.54 40.2401 1969.27 39.7921 1970.74 39.3761L1969.85 34.5761Z" fill="#ECEFFF"/>
<path d="M2005.46 51.1841C2004.09 52.5601 2002.68 53.2321 2001.78 53.2321C2001.18 53.2321 2000.79 52.8481 2000.79 52.1441C2000.79 48.8161 2001.78 44.5921 2001.78 41.2641C2001.78 38.5441 2000.15 36.3361 1996.47 36.3361C1993.5 36.3361 1990.07 38.6401 1987.58 40.7201V40.6241C1988.15 39.7921 1988.89 38.6721 1989.3 38.1281L1988.09 36.5281C1988.34 34.6081 1988.6 33.0081 1988.82 32.0161L1983.26 31.8561C1983.45 32.9441 1983.42 33.9681 1983.42 34.9601C1983.42 35.2801 1983.38 36.0801 1983.32 37.0721C1982.14 37.2641 1980.98 37.3601 1980.12 37.4241C1978.81 37.4881 1978.01 37.4881 1976.98 37.4561L1977.46 42.3521C1979.16 42.1281 1981.37 41.8401 1983 41.6481L1982.9 43.3441C1981.02 46.0641 1978.04 49.9041 1976.25 52.1121L1979.22 56.3361C1980.09 55.1521 1981.37 53.2001 1982.58 51.4401C1982.52 53.4561 1982.49 55.1201 1982.46 57.0401C1982.46 57.5521 1982.42 58.8641 1982.36 59.6641H1987.61C1987.51 58.8961 1987.38 57.5201 1987.35 56.9441C1987.13 53.9041 1987.13 50.8001 1987.13 48.4001C1987.13 47.7601 1987.13 47.0881 1987.16 46.4161C1989.59 43.7281 1992.82 40.9121 1995 40.9121C1996.18 40.9121 1996.92 41.6801 1996.92 43.0881C1996.92 45.8721 1995.8 50.1921 1995.8 53.5841C1995.8 56.9121 1997.5 58.8321 2000.02 58.8321C2002.84 58.8321 2004.73 57.7761 2006.07 56.5921L2005.46 51.1841Z" fill="#ECEFFF"/>
<path d="M2022.58 55.5681C2020.98 55.5681 2019.93 54.8641 2019.93 53.8721C2019.93 53.2321 2020.54 52.6241 2021.56 52.6241C2022.9 52.6241 2023.86 53.7441 2024.02 55.5041C2023.58 55.5361 2023.1 55.5681 2022.58 55.5681ZM2029.78 32.8161C2029.37 32.9441 2028.47 33.0721 2026.97 33.2001C2025.08 33.3601 2018.74 33.4561 2017.05 33.4561C2015.99 33.4561 2014.81 33.3921 2013.82 33.2641L2013.98 38.2241C2014.74 38.0961 2015.86 38.0001 2016.82 37.9361C2018.52 37.8081 2021.78 37.6801 2023.38 37.6481C2021.85 39.0241 2018.9 41.2961 2017.14 42.7681C2015.26 44.3041 2011.58 47.4401 2009.53 49.0401L2013.02 52.6561C2016.06 48.9441 2019.38 46.1601 2024.02 46.1601C2027.51 46.1601 2030.3 47.8561 2030.3 50.5761C2030.3 52.1121 2029.69 53.3601 2028.44 54.2241C2027.9 51.2161 2025.4 48.9761 2021.53 48.9761C2017.94 48.9761 2015.38 51.5681 2015.38 54.3521C2015.38 57.8401 2019.1 59.9201 2023.58 59.9201C2031.77 59.9201 2035.35 55.6001 2035.35 50.6401C2035.35 45.8721 2031.06 42.3841 2025.62 42.3841C2024.86 42.3841 2024.25 42.4161 2023.42 42.5761C2025.14 41.2321 2027.93 38.9601 2029.72 37.7441C2030.52 37.2001 2031.32 36.7201 2032.15 36.2081L2029.78 32.8161Z" fill="#ECEFFF"/>
<path d="M1935.45 76.3841V73.3761C1935.45 72.0641 1935.58 71.0401 1935.67 70.2081H1930.17C1930.3 71.0081 1930.36 72.0641 1930.36 73.3761V76.3841H1923.64V73.7601C1923.64 72.3841 1923.77 71.2961 1923.86 70.5281H1918.36C1918.46 71.2961 1918.58 72.4161 1918.58 73.7281V76.3841H1916.28C1914.55 76.3841 1913.4 76.1601 1912.66 76.0321V81.2801C1913.59 81.2161 1914.55 81.1521 1916.28 81.1521H1918.58V85.0241C1918.58 86.5921 1918.49 87.8401 1918.39 88.6401H1923.8C1923.74 87.8401 1923.64 86.5921 1923.64 85.0241V81.1521H1930.36V82.3041C1930.36 89.5361 1927.77 92.3201 1921.37 94.4321L1925.53 98.3361C1933.5 94.8481 1935.45 89.7601 1935.45 82.1761V81.1521H1937.18C1939 81.1521 1940.12 81.1521 1941.02 81.2481V76.1281C1939.9 76.3201 1939 76.3841 1937.14 76.3841H1935.45Z" fill="#ECEFFF"/>
<path d="M1945.75 86.7521C1947.06 86.6561 1949.46 86.5601 1951.29 86.5601H1968.28C1969.59 86.5601 1971.38 86.7201 1972.22 86.7521V80.6401C1971.29 80.7041 1969.72 80.8641 1968.28 80.8641H1951.29C1949.72 80.8641 1947.03 80.7361 1945.75 80.6401V86.7521Z" fill="#ECEFFF"/>
<path d="M2001.3 73.9841C2000.73 72.8641 1999.61 70.7841 1998.81 69.6001L1995.8 70.8161C1996.66 72.0641 1997.59 73.9521 1998.26 75.2641L2001.3 73.9841ZM1985.05 85.3441C1989.27 84.2881 1994.2 82.7521 1997.27 81.6001C1998.39 81.1841 1999.99 80.5121 2001.4 79.9361L1999.35 75.0401C1997.88 75.9041 1996.73 76.4481 1995.48 76.9281C1992.89 77.9841 1988.79 79.3281 1985.05 80.2881V74.9121C1985.05 73.9841 1985.14 72.2561 1985.3 71.1681H1979.61C1979.77 72.2561 1979.86 74.2081 1979.86 74.9121V92.2241C1979.86 95.1041 1981.62 96.8321 1984.57 97.3761C1985.98 97.6001 1987.93 97.7601 1990.1 97.7601C1993.66 97.7601 1998.52 97.5681 2001.69 97.1201V91.4561C1999.06 92.1601 1993.75 92.6081 1990.42 92.6081C1989.08 92.6081 1987.96 92.5761 1987.03 92.4481C1985.66 92.1921 1985.05 91.8721 1985.05 90.6241V85.3441ZM1999.74 69.2801C2000.6 70.4961 2001.62 72.3841 2002.26 73.6961L2005.27 72.4161C2004.73 71.3281 2003.58 69.2801 2002.74 68.0641L1999.74 69.2801Z" fill="#ECEFFF"/>
<path d="M2031.13 71.8081C2030.39 72.0641 2028.89 72.2881 2027.29 72.2881H2016.6C2015.67 72.2881 2013.62 72.1921 2012.5 72.0321V77.5361C2013.4 77.4721 2015.16 77.2801 2016.6 77.2801H2026.55C2025.88 79.3281 2024.15 82.1441 2022.07 84.5121C2019.22 87.6801 2014.17 91.6161 2008.98 93.5041L2013.02 97.6961C2017.21 95.6801 2021.4 92.4481 2024.76 88.9601C2027.64 91.7441 2030.36 94.8161 2032.41 97.7281L2036.86 93.8561C2035.1 91.6801 2031.26 87.6161 2028.15 84.9281C2030.23 82.0481 2031.93 78.8481 2032.98 76.4801C2033.34 75.6801 2034.01 74.5601 2034.3 74.1441L2031.13 71.8081Z" fill="#ECEFFF"/>
<path d="M461.395 62.8552C458.93 63.5352 455.36 64.3852 452.045 65.0652C448.475 65.7452 442.1 66.8502 435.045 68.0402L432.835 56.3952L448.22 53.9302C450.94 53.5902 454.85 52.9952 457.06 52.8252L454.595 39.3952C452.215 40.0752 448.39 40.9252 445.585 41.4352C442.865 41.9452 437.085 42.9652 430.54 43.9852C429.945 40.6702 429.435 38.1202 429.265 36.8452C428.84 34.7202 428.585 31.5752 428.33 29.8752L413.795 32.1702C414.475 34.2952 415.07 36.4202 415.665 38.9702L417.025 46.0252C410.055 47.1302 403.935 47.9802 401.215 48.3202C398.58 48.6602 395.86 48.8302 392.885 49.0002L395.605 63.0252C398.495 62.2602 400.875 61.6652 403.935 61.0702C406.23 60.6452 412.35 59.6252 419.405 58.5202L421.615 70.1652C413.625 71.4402 406.4 72.5452 402.66 73.1402C399.77 73.5652 395.52 74.0752 393.14 74.1602L396.03 87.7602C397.985 87.2502 401.215 86.6552 405.04 85.9752C408.525 85.2952 415.835 84.0202 423.91 82.6602C425.1 89.1202 426.12 94.4752 426.545 97.1102C427.055 99.6602 427.225 102.72 427.65 106.035L442.44 103.485C441.675 100.51 440.825 97.3652 440.23 94.8152C439.635 91.9252 438.615 86.6552 437.425 80.4502C444.395 79.3452 450.685 78.3252 454.425 77.7302C457.655 77.2202 461.565 76.5402 464.115 76.3702L461.395 62.8552Z" fill="#ECEFFF"/>
<path d="M528.46 86.4002C534.495 79.6852 542.91 66.4252 546.565 58.8602L538.235 52.9952C536.96 53.5902 535.09 54.1852 533.39 54.5252C529.82 55.2902 519.28 57.3302 509.25 59.2852L507.21 51.8902C506.7 49.6802 506.105 47.2152 505.765 44.9202L491.995 48.1502C493.015 50.1902 494.035 52.4852 494.63 54.6952C495.225 56.4802 495.905 58.9452 496.585 61.6652C493.27 62.2602 490.72 62.6852 489.615 62.8552C486.64 63.3652 484.175 63.6202 481.37 63.8752L484.515 76.1152C487.235 75.5202 493.015 74.2452 499.56 72.8002C502.535 84.0202 505.68 96.3452 507.04 101.275C507.805 103.825 508.4 106.97 508.74 109.435L522.68 106.035C522 104.25 520.64 99.8302 520.215 98.3852C518.77 93.6252 515.455 81.4702 512.31 70.0802C519.96 68.4652 526.59 67.1052 528.545 66.7652C526.59 70.4202 520.98 77.2202 517.155 80.7902L528.46 86.4002Z" fill="#ECEFFF"/>
<path d="M571.3 33.9552C571.555 36.0802 571.64 39.0552 571.64 40.6702V69.4852C571.64 72.1202 571.3 75.7752 571.215 77.4752H586.515C586.345 75.2652 586.175 71.6952 586.175 69.5702V40.6702C586.175 37.6102 586.345 36.0802 586.515 33.9552H571.3ZM610.315 33.1902C610.655 35.7402 610.91 38.6302 610.91 42.3702V59.9652C610.91 71.6952 609.72 77.7302 604.025 83.7652C598.925 89.0352 591.955 92.1802 583.115 94.1352L593.91 105.525C600.115 103.57 609.04 99.2352 614.735 93.2852C621.195 86.4852 625.19 77.9852 625.19 60.9002V42.3702C625.19 38.6302 625.36 35.7402 625.53 33.1902H610.315Z" fill="#ECEFFF"/>
<path d="M673.3 54.0152C673.81 57.0752 673.98 59.5402 673.98 62.5152C673.98 76.3702 671.855 83.5952 662.42 90.7352C658.85 93.4552 655.705 94.9002 652.73 95.9202L664.715 105.695C688.685 92.3502 688.26 73.9902 688.26 54.0152H673.3ZM715.12 34.8902C713.335 35.4002 707.725 35.7402 704.92 35.7402H660.805C657.065 35.7402 653.495 35.3152 650.01 34.8052V49.0002C654.43 48.5752 657.065 48.3202 660.805 48.3202H702.795C700.925 51.8902 695.06 58.3502 688.77 62.3452L699.395 70.8452C707.045 65.3202 715.12 54.6952 719.455 47.5552C720.305 46.1952 722.26 43.7302 723.28 42.4552L715.12 34.8902Z" fill="#ECEFFF"/>
<path d="M780.4 87.3352C780.315 83.5952 780.145 77.9002 780.06 73.3102C784.48 71.3552 788.56 69.7402 791.79 68.5502C795.02 67.2752 800.29 65.3202 803.265 64.4702L798.25 52.7402C794.68 54.4402 791.195 56.0552 787.54 57.6702C784.565 59.0302 781.845 60.1352 778.445 61.7502C776.235 57.8402 772.155 55.8002 767.225 55.8002C764.845 55.8002 760.595 56.1402 758.895 56.6502C760 54.9502 761.105 52.9102 762.125 50.7002C771.135 50.3602 781.42 49.5952 789.325 48.5752L789.41 36.7602C782.355 38.0352 774.28 38.7152 766.715 39.1402C767.65 35.9952 768.245 33.3602 768.585 31.4902L755.155 30.3852C755.07 32.5102 754.645 35.7402 753.71 39.5652H750.395C745.89 39.5652 739.43 39.2252 735.265 38.5452V50.3602C739.685 50.7852 745.805 50.9552 749.29 50.9552C745.21 58.6902 739.26 65.5752 731.27 72.6302L742.15 80.7902C745.04 76.9652 747.42 73.9052 749.97 71.2702C752.86 68.4652 758.045 65.6602 762.38 65.6602C763.995 65.6602 765.695 66.0852 766.97 67.3602C757.62 72.2902 747.59 79.3452 747.59 90.3102C747.59 101.53 757.535 105.1 771.39 105.1C779.72 105.1 790.515 104.335 795.7 103.655L796.125 90.4802C788.73 92.0952 779.125 93.1152 771.645 93.1152C763.74 93.1152 761.105 91.6702 761.105 88.1002C761.105 84.7002 763.4 81.9802 768.67 78.9202C768.585 82.0652 768.415 85.2102 768.245 87.3352H780.4Z" fill="#ECEFFF"/>
<path d="M865.315 65.1502C870.415 70.2502 873.645 75.2652 873.645 80.9602C873.645 86.9102 868.12 92.1802 856.985 92.1802C849.42 92.1802 845.425 89.1202 845.425 82.8302C845.425 81.6402 845.51 79.9402 845.68 77.9852C846.785 77.9852 847.975 77.9852 849.165 77.9852C854.18 77.9852 858.94 77.6452 863.105 77.2202L863.445 65.1502C858.175 65.7452 851.715 66.1702 846.955 66.1702H846.87C847.21 63.1102 847.635 59.8802 848.06 56.8202C854.775 56.8202 859.025 56.4802 863.7 55.9702L864.125 43.9002C860.64 44.4952 855.455 44.9202 849.675 45.0052C850.015 42.7102 850.27 40.9252 850.44 39.8202C850.865 37.4402 851.29 34.9752 852.14 31.4052L837.86 30.6402C838.115 33.7852 837.86 36.5052 837.69 38.9702C837.605 40.5852 837.435 42.4552 837.18 44.5802C831.145 44.0702 825.11 43.0502 820.435 41.4352L819.84 53.1652C824.6 54.4402 830.125 55.5452 835.82 56.1402L834.63 65.5752C829.36 65.0652 824.09 64.0452 818.735 62.2602L818.055 74.5852C822.22 75.6902 827.405 76.6252 833.27 77.2202C832.93 80.4502 832.76 83.1702 832.76 85.0402C832.76 99.3202 842.195 105.44 856.56 105.44C875.94 105.44 887.5 95.4952 887.5 82.6602C887.5 75.5202 885.035 69.5702 879.595 62.0902L865.315 65.1502Z" fill="#ECEFFF"/>
<path d="M907.645 62.7702L912.83 76.0302C921.075 72.4602 936.885 65.9152 946.32 65.9152C952.95 65.9152 957.2 69.8252 957.2 75.6052C957.2 85.8052 943.94 90.8202 924.22 91.3302L929.66 103.91C958.645 102.125 970.8 90.4802 970.8 75.8602C970.8 62.3452 961.705 54.0152 947.595 54.0152C937.225 54.0152 922.775 58.7752 917.165 60.4752C914.7 61.2402 910.11 62.3452 907.645 62.7702Z" fill="#ECEFFF"/>
<path d="M1043.73 39.3102C1041.26 41.3502 1038.54 42.9652 1034.97 45.0052C1031.32 47.1302 1024.94 50.4452 1018.74 54.0152C1015.42 47.7252 1011.69 40.0752 1008.62 31.5752L995.79 36.7602C999.53 45.6002 1003.44 54.1852 1007.35 61.4102C999.615 67.2752 993.665 74.1602 993.665 83.7652C993.665 99.3202 1007.01 103.995 1024.35 103.995C1035.57 103.995 1043.99 103.145 1051.64 101.87L1051.8 87.1652C1043.81 88.9502 1032.34 90.3952 1024.01 90.3952C1013.22 90.3952 1007.86 87.7602 1007.86 82.2352C1007.86 76.7102 1012.54 72.2052 1019.08 67.9552C1026.48 63.1952 1036.33 58.6902 1041.35 56.2252C1044.75 54.5252 1047.81 52.9102 1050.78 51.1252L1043.73 39.3102Z" fill="#ECEFFF"/>
<path d="M1089.8 92.5202V85.8052H1127.62V92.5202H1089.8ZM1127.62 67.7852V74.4152H1089.8V67.7852H1127.62ZM1127.62 49.8502V56.3952H1089.8V49.8502H1127.62ZM1112.41 38.0352C1113.6 35.2302 1114.96 32.0002 1116.15 28.7702L1101.02 27.2402C1100.68 30.4702 1100 34.4652 1099.23 38.0352H1077.3V107.905H1089.8V103.91H1127.62V107.905H1140.8V38.0352H1112.41Z" fill="#ECEFFF"/>
<path d="M1199.36 91.7552V79.7702H1215.52V91.7552H1199.36ZM1171.32 79.7702H1186.61V91.7552H1171.32V79.7702ZM1186.61 55.8002V67.7002H1171.32V55.8002H1186.61ZM1215.52 55.8002V67.7002H1199.36V55.8002H1215.52ZM1199.36 43.3052V27.4102H1186.61V43.3052H1158.91V108.16H1171.32V103.995H1215.52V108.16H1228.52V43.3052H1199.36Z" fill="#ECEFFF"/>
<path d="M1273.74 39.5652L1273.83 52.6552C1285.05 53.5902 1299.75 53.5052 1310.8 52.6552V39.4802C1301.36 40.5002 1284.7 40.9252 1273.74 39.5652ZM1270.77 75.4352C1269.83 79.5152 1269.23 83.1702 1269.23 86.9952C1269.23 95.9202 1276.54 101.445 1291.25 101.445C1301.19 101.445 1307.91 100.85 1313.43 99.8302L1313.18 86.0602C1305.53 87.5902 1299.49 88.2702 1291.93 88.2702C1285.04 88.2702 1281.56 86.9102 1281.56 83.1702C1281.56 80.9602 1281.81 79.0902 1282.41 76.4552L1270.77 75.4352ZM1248.33 33.2752C1248.24 36.4202 1247.64 40.2452 1247.3 42.7952C1246.45 49.0002 1243.99 63.0252 1243.99 75.9452C1243.99 87.3352 1245.69 97.9602 1247.39 103.655L1259.12 102.89C1259.03 101.53 1259.03 100 1259.03 99.0652C1259.03 98.3002 1259.29 96.2602 1259.54 95.0702C1260.48 90.3102 1263.11 81.0452 1265.66 73.3952L1259.46 68.5502C1258.36 70.9302 1257.33 72.6302 1256.23 75.0102C1256.14 74.6702 1256.15 73.3102 1256.15 73.0552C1256.15 65.2352 1259.21 47.3852 1260.14 43.0502C1260.48 41.5202 1261.76 36.3352 1262.52 34.4652L1248.33 33.2752Z" fill="#ECEFFF"/>
<path d="M1785.78 40.8403C1780.94 37.1853 1772.61 31.1503 1765.98 27.0703L1757.99 36.0803C1764.45 40.5003 1772.86 46.9603 1777.62 51.0403L1785.78 40.8403ZM1742.86 48.8303C1741.41 59.2853 1738.35 69.6553 1734.36 77.0503L1746.51 81.3853C1750.42 74.1603 1752.97 62.2603 1754.76 51.8053L1742.86 48.8303ZM1816.38 80.7053C1814.17 73.8203 1809.16 63.8753 1804.06 56.1403L1794.28 60.8153C1800.06 53.1653 1805.08 45.1753 1809.24 37.1853L1796.75 32.2553C1790.88 44.8353 1781.53 58.1803 1769.72 69.9103V45.6003H1756.54V81.3853C1749.74 86.5703 1742.43 91.0753 1734.7 94.6453C1737.25 97.1103 1740.9 101.615 1742.77 104.505C1747.7 102.04 1752.46 99.3203 1756.97 96.2603C1758.24 104.335 1762.49 106.885 1772.78 106.885H1786.55C1797.77 106.885 1801.34 101.7 1802.87 86.2303C1799.3 85.4653 1793.69 83.1703 1790.8 81.0453C1790.12 92.3503 1789.44 94.5603 1785.36 94.5603H1774.48C1770.23 94.5603 1769.72 94.0503 1769.72 89.4603V86.7403C1778.64 79.3453 1786.46 70.9303 1793.26 62.1753C1797.85 69.9103 1802.7 80.1103 1804.4 86.8253L1816.38 80.7053Z" fill="#ECEFFF"/>
<path d="M1852 83.0853H1869.76C1868.15 85.2953 1866.28 87.1653 1864.15 88.7803C1859.65 87.5903 1854.97 86.4003 1850.47 85.3803L1852 83.0853ZM1837.97 53.5903H1844.6V59.5403H1837.97V53.5903ZM1856.25 40.5853H1863.56V43.9853H1856.25V40.5853ZM1883.19 53.5903V59.5403H1875.2V53.5903H1883.19ZM1856.25 59.5403V53.5903H1863.56V59.5403H1856.25ZM1899.77 83.0853V73.2253H1858.29L1860.84 69.0603H1895.52V43.9853H1875.2V40.5853H1897.73V29.9603H1822.67V40.5853H1844.6V43.9853H1826.41V69.0603H1846.9C1846.05 70.4203 1845.2 71.7803 1844.26 73.2253H1821.31V83.0853H1837.8C1835.68 86.1453 1833.64 88.9503 1831.85 91.2453L1843.84 94.8153L1844.26 94.2203L1848.34 95.2403C1841.37 96.7703 1833.04 97.4503 1823.1 97.7903C1824.97 100.425 1826.84 104.76 1827.69 108.33C1844.09 106.97 1856.59 104.93 1866.02 100.34C1875.12 103.145 1883.19 106.035 1889.31 108.5L1896.71 98.4703C1891.44 96.6003 1884.64 94.4753 1877.16 92.3503C1879.62 89.7153 1881.75 86.6553 1883.62 83.0853H1899.77Z" fill="#ECEFFF"/>
<path d="M1382.49 48.7844C1381.85 48.1444 1379.54 46.0964 1378.01 44.8484C1379.45 42.7684 1380.66 40.4644 1381.56 38.0644L1378.97 36.3684L1378.17 36.5284H1377.46V30.6724H1372.86V36.5284H1368.54V40.7204H1375.67C1373.69 44.1124 1370.58 47.1204 1367.29 48.8164C1367.96 49.7124 1369.05 52.0484 1369.43 53.2964C1370.58 52.5924 1371.74 51.7284 1372.86 50.7364V61.0724H1377.46V49.7124C1378.3 50.7364 1379.1 51.7604 1379.67 52.5604L1382.49 48.7844ZM1391.99 55.5684V44.7204H1397.69V40.2404H1391.99V30.9924H1387.19V40.2404H1381.53V44.7204H1387.19V55.5684H1380.18V60.1444H1398.49V55.5684H1391.99Z" fill="#ECEFFF"/>
<path d="M1410.14 40.1444C1412.12 38.5124 1413.82 36.7844 1415.03 35.1524C1416.25 36.8164 1418.07 38.5444 1420.15 40.1444H1410.14ZM1407.61 44.4004H1422.46V41.7764C1424.15 42.8964 1425.91 43.9204 1427.61 44.6884C1428.44 43.2804 1429.46 41.6164 1430.62 40.4324C1425.53 38.7684 1420.73 35.4084 1417.3 30.7044H1412.38C1410.07 34.3204 1405.08 38.8324 1399.61 41.1364C1400.57 42.1284 1401.82 43.9204 1402.36 45.0404C1404.18 44.2084 1405.98 43.1524 1407.61 42.0324V44.4004ZM1420.63 50.6404L1417.24 52.4004C1418.07 53.2004 1418.94 54.0964 1419.77 55.0244C1417.14 55.1204 1414.49 55.2164 1411.96 55.3124C1412.76 53.8404 1413.59 52.2084 1414.39 50.6404H1420.63ZM1428.44 50.6404V46.3204H1401.78V50.6404H1408.66C1408.15 52.2404 1407.48 53.9684 1406.78 55.4724C1404.98 55.5364 1403.35 55.6004 1401.88 55.6324L1402.49 60.1764C1407.96 59.9204 1415.7 59.5684 1423.06 59.1524C1423.51 59.8244 1423.93 60.4644 1424.22 61.0404L1428.57 58.4164C1427.16 56.1124 1424.47 53.0404 1421.82 50.6404H1428.44Z" fill="#ECEFFF"/>
<path d="M1445.21 35.2484L1445.24 40.1764C1449.46 40.5284 1455 40.4964 1459.16 40.1764V35.2164C1455.61 35.6004 1449.34 35.7604 1445.21 35.2484ZM1444.09 48.7524C1443.74 50.2884 1443.51 51.6644 1443.51 53.1044C1443.51 56.4644 1446.26 58.5444 1451.8 58.5444C1455.54 58.5444 1458.07 58.3204 1460.15 57.9364L1460.06 52.7524C1457.18 53.3284 1454.9 53.5844 1452.06 53.5844C1449.46 53.5844 1448.15 53.0724 1448.15 51.6644C1448.15 50.8324 1448.25 50.1284 1448.47 49.1364L1444.09 48.7524ZM1435.64 32.8804C1435.61 34.0644 1435.38 35.5044 1435.26 36.4644C1434.94 38.8004 1434.01 44.0804 1434.01 48.9444C1434.01 53.2324 1434.65 57.2324 1435.29 59.3764L1439.7 59.0884C1439.67 58.5764 1439.67 58.0004 1439.67 57.6484C1439.67 57.3604 1439.77 56.5924 1439.86 56.1444C1440.22 54.3524 1441.21 50.8644 1442.17 47.9844L1439.83 46.1604C1439.42 47.0564 1439.03 47.6964 1438.62 48.5924C1438.58 48.4644 1438.58 47.9524 1438.58 47.8564C1438.58 44.9124 1439.74 38.1924 1440.09 36.5604C1440.22 35.9844 1440.7 34.0324 1440.98 33.3284L1435.64 32.8804Z" fill="#ECEFFF"/>
<path d="M1482.68 51.2804C1481.69 52.2084 1480.5 52.9764 1479.16 53.6484C1477.85 52.9764 1476.73 52.2084 1475.8 51.2804H1482.68ZM1480.86 37.4244V42.3524C1480.86 42.6724 1480.76 42.7364 1480.41 42.7364C1480.06 42.7364 1478.9 42.7364 1478.04 42.7044C1478.52 43.6964 1479 45.0724 1479.22 46.2244L1476.31 45.6484C1478.42 43.0564 1478.78 39.9844 1478.81 37.4244H1480.86ZM1486.65 47.5044L1485.88 47.6644H1478.58C1478.84 47.3444 1479.06 47.0244 1479.32 46.7044V46.7684C1481.14 46.7684 1482.62 46.7364 1483.83 46.0964C1485.11 45.4564 1485.37 44.3684 1485.37 42.4804V37.4244H1493.4V33.1684H1481.4V30.6404H1476.6V33.1684H1464.73V37.4244H1474.49C1474.46 39.7924 1473.85 42.6724 1470.3 44.7844C1471.13 45.3604 1472.34 46.4164 1473.18 47.3124C1471.29 49.1364 1468.54 50.7684 1464.63 51.9524C1465.59 52.6564 1466.94 54.3204 1467.51 55.4084C1469.21 54.7364 1470.71 54.0324 1472.06 53.2644C1472.73 54.0324 1473.46 54.7684 1474.26 55.4084C1471.1 56.2084 1467.48 56.6884 1463.58 56.9124C1464.38 57.9044 1465.4 59.9524 1465.75 61.1044C1470.49 60.6244 1475 59.7604 1478.87 58.2564C1482.33 59.7924 1486.55 60.6244 1491.8 60.9764C1492.38 59.6964 1493.56 57.6804 1494.52 56.5924C1490.58 56.4644 1487.16 56.1124 1484.25 55.4404C1486.49 53.8724 1488.34 51.9204 1489.69 49.4884L1486.65 47.5044ZM1468.41 38.1604C1467.64 40.0164 1465.94 42.1924 1464.02 43.4404C1464.92 44.0484 1466.39 45.2644 1467.22 46.0964C1469.4 44.5284 1471.42 41.9044 1472.73 39.3124L1468.41 38.1604ZM1485.85 40.1124C1487.51 42.0004 1489.53 44.5924 1490.33 46.2884L1494.2 43.9844C1493.24 42.2564 1491.13 39.8244 1489.43 38.0644L1485.85 40.1124Z" fill="#ECEFFF"/>
<path d="M1504.47 47.6644V46.0004H1508.47V47.6644H1504.47ZM1517.46 46.0004V47.6644H1513.34V46.0004H1517.46ZM1507.26 36.6564H1514.52V37.9044H1507.26V36.6564ZM1525.75 52.5284H1513.34V51.1844H1522.49V42.4484H1513.34V41.2644H1519.35V36.6564H1525.21V32.7524H1519.35V30.6084H1514.52V32.7524H1507.26V30.6084H1502.68V32.7524H1496.82V36.6564H1502.68V41.2644H1508.47V42.4484H1499.77V51.1844H1508.47V52.5284H1496.34V56.7204H1508.47V61.0404H1513.34V56.7204H1525.75V52.5284Z" fill="#ECEFFF"/>
<path d="M1547.48 53.2324C1547.45 51.8244 1547.38 49.6804 1547.35 47.9524C1549.02 47.2164 1550.55 46.6084 1551.77 46.1604C1552.98 45.6804 1554.97 44.9444 1556.09 44.6244L1554.2 40.2084C1552.86 40.8484 1551.54 41.4564 1550.17 42.0644C1549.05 42.5764 1548.02 42.9924 1546.74 43.6004C1545.91 42.1284 1544.38 41.3604 1542.52 41.3604C1541.62 41.3604 1540.02 41.4884 1539.38 41.6804C1539.8 41.0404 1540.22 40.2724 1540.6 39.4404C1543.99 39.3124 1547.86 39.0244 1550.84 38.6404L1550.87 34.1924C1548.22 34.6724 1545.18 34.9284 1542.33 35.0884C1542.68 33.9044 1542.9 32.9124 1543.03 32.2084L1537.98 31.7924C1537.94 32.5924 1537.78 33.8084 1537.43 35.2484H1536.18C1534.49 35.2484 1532.06 35.1204 1530.49 34.8644V39.3124C1532.15 39.4724 1534.46 39.5364 1535.77 39.5364C1534.23 42.4484 1531.99 45.0404 1528.98 47.6964L1533.08 50.7684C1534.17 49.3284 1535.06 48.1764 1536.02 47.1844C1537.11 46.1284 1539.06 45.0724 1540.7 45.0724C1541.3 45.0724 1541.94 45.2324 1542.42 45.7124C1538.9 47.5684 1535.13 50.2244 1535.13 54.3524C1535.13 58.5764 1538.87 59.9204 1544.09 59.9204C1547.22 59.9204 1551.29 59.6324 1553.24 59.3764L1553.4 54.4164C1550.62 55.0244 1547 55.4084 1544.18 55.4084C1541.21 55.4084 1540.22 54.8644 1540.22 53.5204C1540.22 52.2404 1541.08 51.2164 1543.06 50.0644C1543.03 51.2484 1542.97 52.4324 1542.9 53.2324H1547.48Z" fill="#ECEFFF"/>
<path d="M1579.45 44.8804C1581.37 46.8004 1582.58 48.6884 1582.58 50.8324C1582.58 53.0724 1580.5 55.0564 1576.31 55.0564C1573.46 55.0564 1571.96 53.9044 1571.96 51.5364C1571.96 51.0884 1571.99 50.4484 1572.06 49.7124C1572.47 49.7124 1572.92 49.7124 1573.37 49.7124C1575.26 49.7124 1577.05 49.5844 1578.62 49.4244L1578.74 44.8804C1576.76 45.1044 1574.33 45.2644 1572.54 45.2644H1572.5C1572.63 44.1124 1572.79 42.8964 1572.95 41.7444C1575.48 41.7444 1577.08 41.6164 1578.84 41.4244L1579 36.8804C1577.69 37.1044 1575.74 37.2644 1573.56 37.2964C1573.69 36.4324 1573.78 35.7604 1573.85 35.3444C1574.01 34.4484 1574.17 33.5204 1574.49 32.1764L1569.11 31.8884C1569.21 33.0724 1569.11 34.0964 1569.05 35.0244C1569.02 35.6324 1568.95 36.3364 1568.86 37.1364C1566.58 36.9444 1564.31 36.5604 1562.55 35.9524L1562.33 40.3684C1564.12 40.8484 1566.2 41.2644 1568.34 41.4884L1567.9 45.0404C1565.91 44.8484 1563.93 44.4644 1561.91 43.7924L1561.66 48.4324C1563.22 48.8484 1565.18 49.2004 1567.38 49.4244C1567.26 50.6404 1567.19 51.6644 1567.19 52.3684C1567.19 57.7444 1570.74 60.0484 1576.15 60.0484C1583.45 60.0484 1587.8 56.3044 1587.8 51.4724C1587.8 48.7844 1586.87 46.5444 1584.82 43.7284L1579.45 44.8804Z" fill="#ECEFFF"/>
<path d="M1607.96 46.3844C1609.98 46.1284 1611.93 46.0324 1614.23 46.0324C1616.18 46.0324 1618.17 46.2564 1619.74 46.4484L1619.83 41.8404C1617.91 41.6484 1615.99 41.5524 1614.23 41.5524C1612.15 41.5524 1609.78 41.7124 1607.96 41.9044V46.3844ZM1610.71 35.1844C1609.11 35.5684 1607.48 35.8884 1605.85 36.1444L1605.98 35.6004C1606.14 34.8644 1606.46 33.3284 1606.71 32.3364L1600.86 31.8884C1600.95 32.6884 1600.92 34.0964 1600.76 35.4404C1600.73 35.8244 1600.66 36.2404 1600.57 36.7204C1599.74 36.7524 1598.87 36.7844 1598.04 36.7844C1596.66 36.7844 1595.67 36.7204 1593.94 36.5284L1594.07 41.2964C1595.16 41.3604 1596.38 41.4244 1598.01 41.4244C1598.52 41.4244 1599.06 41.4244 1599.61 41.3924C1599.45 42.1284 1599.22 42.8964 1599.03 43.6324C1597.85 48.0484 1595.35 54.8004 1593.46 57.9364L1598.81 59.7284C1600.6 55.8244 1602.71 49.3924 1603.86 44.9764C1604.18 43.7284 1604.5 42.3204 1604.82 40.9764C1606.87 40.7524 1608.92 40.4004 1610.71 39.9844V35.1844ZM1605.85 49.5844C1605.59 50.7684 1605.27 52.4964 1605.27 54.0964C1605.27 57.3284 1608.06 59.3444 1613.59 59.3444C1616.25 59.3444 1618.39 59.1204 1620.22 58.8964L1620.41 54.0004C1617.98 54.4164 1615.77 54.6724 1613.62 54.6724C1610.84 54.6724 1610.01 53.8404 1610.01 52.5284C1610.01 51.8884 1610.2 50.8324 1610.42 50.0004L1605.85 49.5844Z" fill="#ECEFFF"/>
<path d="M1632.5 36.5604C1635 37.2004 1642.17 38.7044 1645.5 39.1524L1646.65 34.4164C1643.86 34.0964 1636.89 32.9444 1633.72 31.9524L1632.5 36.5604ZM1634.42 38.6404L1629.27 37.9364C1629.05 42.2244 1628.31 48.1764 1627.7 51.4084L1632.09 52.4964C1632.41 51.7924 1632.76 51.2804 1633.4 50.5124C1635.26 48.2724 1638.36 47.0564 1641.59 47.0564C1644.12 47.0564 1645.85 48.4004 1645.85 50.1924C1645.85 54.0644 1640.73 56.0804 1631.48 54.7044L1632.98 59.7284C1646.94 60.9444 1651.26 56.1764 1651.26 50.2884C1651.26 46.4164 1648.02 42.7044 1642.07 42.7044C1639.03 42.7044 1636.06 43.5044 1633.3 45.2644C1633.46 43.5684 1634.01 40.2084 1634.42 38.6404Z" fill="#ECEFFF"/>
<path d="M1667.69 47.5364C1667.69 46.0964 1668.74 45.4884 1669.7 45.4884C1670.41 45.4884 1671.05 45.7764 1671.43 46.3204C1671.78 48.7524 1670.73 49.4884 1669.7 49.4884C1668.71 49.4884 1667.69 48.6884 1667.69 47.5364ZM1684.3 35.5044C1682.63 35.4724 1678.38 35.5364 1675.43 35.5364V35.1844C1675.46 34.6084 1675.59 32.6564 1675.69 32.0484H1670.15C1670.28 32.6564 1670.41 34.0004 1670.5 35.2164L1670.54 35.5684C1666.44 35.6324 1660.84 35.7604 1657.16 35.7284L1657.29 40.3364C1661.16 40.1444 1665.83 39.9524 1670.6 39.8884L1670.63 41.4884C1670.38 41.4564 1670.12 41.4564 1669.83 41.4564C1666.15 41.4564 1663.08 43.7924 1663.08 47.6324C1663.08 51.7284 1666.38 53.7124 1668.71 53.7124C1668.9 53.7124 1669.1 53.7124 1669.29 53.6804C1667.43 55.1524 1664.78 55.9204 1662.02 56.4644L1666.09 60.5604C1674.02 58.4164 1676.65 52.9124 1676.65 48.8484C1676.65 47.1204 1676.23 45.5524 1675.4 44.2724C1675.4 42.9604 1675.4 41.3604 1675.37 39.8564C1679.37 39.8884 1682.34 39.9524 1684.23 40.0484L1684.3 35.5044Z" fill="#ECEFFF"/>
<path d="M1378.3 84.6404C1382.52 83.5844 1387.45 82.0484 1390.52 80.8964C1391.64 80.4804 1393.24 79.8084 1394.65 79.2324L1392.6 74.3364C1391.13 75.2004 1389.98 75.7444 1388.73 76.2244C1386.14 77.2804 1382.04 78.6244 1378.3 79.5844V74.2084C1378.3 73.2804 1378.39 71.5524 1378.55 70.4644H1372.86C1373.02 71.5524 1373.11 73.5044 1373.11 74.2084V91.5204C1373.11 94.4004 1374.87 96.1284 1377.82 96.6724C1379.22 96.8964 1381.18 97.0564 1383.35 97.0564C1386.9 97.0564 1391.77 96.8644 1394.94 96.4164V90.7524C1392.31 91.4564 1387 91.9044 1383.67 91.9044C1382.33 91.9044 1381.21 91.8724 1380.28 91.7444C1378.9 91.4884 1378.3 91.1684 1378.3 89.9204V84.6404Z" fill="#ECEFFF"/>
<path d="M1427.19 83.7444C1424.5 82.4324 1418.3 80.1604 1413.98 78.9124V74.5284C1413.98 72.9924 1414.17 71.5844 1414.3 70.3684H1408.25C1408.5 71.5844 1408.63 73.2484 1408.63 74.5284V92.8004C1408.63 94.1124 1408.47 96.2564 1408.25 97.6324H1414.33C1414.17 96.1924 1413.98 93.6644 1413.98 92.8004V84.5764C1417.37 85.7924 1421.75 87.4884 1424.98 89.1524L1427.19 83.7444Z" fill="#ECEFFF"/>
<path d="M1454.62 73.1524C1453.69 73.9204 1452.66 74.5284 1451.32 75.2964C1449.94 76.0964 1447.54 77.3444 1445.21 78.6884C1443.96 76.3204 1442.55 73.4404 1441.4 70.2404L1436.57 72.1924C1437.98 75.5204 1439.45 78.7524 1440.92 81.4724C1438.01 83.6804 1435.77 86.2724 1435.77 89.8884C1435.77 95.7444 1440.79 97.5044 1447.32 97.5044C1451.54 97.5044 1454.71 97.1844 1457.59 96.7044L1457.66 91.1684C1454.65 91.8404 1450.33 92.3844 1447.19 92.3844C1443.13 92.3844 1441.11 91.3924 1441.11 89.3124C1441.11 87.2324 1442.87 85.5364 1445.34 83.9364C1448.12 82.1444 1451.83 80.4484 1453.72 79.5204C1455 78.8804 1456.15 78.2724 1457.27 77.6004L1454.62 73.1524Z" fill="#ECEFFF"/>
<path d="M1476.22 68.4484C1473.88 72.3844 1468.79 77.3764 1463.22 80.0964C1464.25 81.0564 1465.59 82.7844 1466.2 83.8724C1471.42 80.9924 1476.18 76.8324 1478.84 73.0564C1481.5 76.8004 1486.74 81.2164 1491.7 83.9044C1492.6 82.4644 1493.66 80.9284 1494.84 79.7124C1489.62 77.6644 1484.6 73.6004 1481.08 68.4484H1476.22ZM1481.66 88.4804H1489.85V84.3524H1481.66V77.8564H1476.7V94.0164H1473.05V83.2324H1468.47V94.0164H1465.3V98.2084H1492.7V94.0164H1481.66V88.4804Z" fill="#ECEFFF"/>
<path d="M1514.46 77.3764C1514.23 78.0804 1513.94 78.8164 1513.66 79.4564H1508.22L1508.6 79.3924C1508.44 78.8484 1508.12 78.0804 1507.77 77.3764H1514.46ZM1525.5 91.9044V88.1284H1513.27V87.2324H1522.68V83.9364H1513.27V83.0404H1524.12V79.4564H1518.36C1518.74 78.8164 1519.16 78.1124 1519.61 77.3764H1525.4V73.6004H1521.72C1522.42 72.5764 1523.22 71.2964 1524.06 69.9204L1519.16 68.8004C1518.78 70.1764 1518.04 72.0324 1517.37 73.3124L1518.33 73.6004H1516.22V68.6084H1511.83V73.6004H1510.3V68.6084H1505.98V73.6004H1503.67L1505.11 73.0884C1504.7 71.8724 1503.7 70.0164 1502.84 68.6724L1498.84 70.0164C1499.45 71.1044 1500.12 72.4804 1500.57 73.6004H1496.73V77.3764H1502.87C1503.13 77.9844 1503.45 78.7844 1503.64 79.4564H1498.04V83.0404H1508.66V83.9364H1499.61V87.2324H1508.66V88.1284H1496.66V91.9044H1504.86C1502.26 93.2484 1498.9 94.3044 1495.61 94.8804C1496.6 95.8404 1497.94 97.6324 1498.58 98.7524C1502.2 97.8244 1505.78 96.1924 1508.66 94.1124V99.0404H1513.27V93.9524C1516.06 96.1924 1519.51 97.8564 1523.29 98.7524C1523.99 97.4724 1525.37 95.5204 1526.42 94.5284C1523.06 94.0484 1519.83 93.1524 1517.3 91.9044H1525.5Z" fill="#ECEFFF"/>
<path d="M1547.48 91.2324C1547.45 89.8244 1547.38 87.6804 1547.35 85.9524C1549.02 85.2164 1550.55 84.6084 1551.77 84.1604C1552.98 83.6804 1554.97 82.9444 1556.09 82.6244L1554.2 78.2084C1552.86 78.8484 1551.54 79.4564 1550.17 80.0644C1549.05 80.5764 1548.02 80.9924 1546.74 81.6004C1545.91 80.1284 1544.38 79.3604 1542.52 79.3604C1541.62 79.3604 1540.02 79.4884 1539.38 79.6804C1539.8 79.0404 1540.22 78.2724 1540.6 77.4404C1543.99 77.3124 1547.86 77.0244 1550.84 76.6404L1550.87 72.1924C1548.22 72.6724 1545.18 72.9284 1542.33 73.0884C1542.68 71.9044 1542.9 70.9124 1543.03 70.2084L1537.98 69.7924C1537.94 70.5924 1537.78 71.8084 1537.43 73.2484H1536.18C1534.49 73.2484 1532.06 73.1204 1530.49 72.8644V77.3124C1532.15 77.4724 1534.46 77.5364 1535.77 77.5364C1534.23 80.4484 1531.99 83.0404 1528.98 85.6964L1533.08 88.7684C1534.17 87.3284 1535.06 86.1764 1536.02 85.1844C1537.11 84.1284 1539.06 83.0724 1540.7 83.0724C1541.3 83.0724 1541.94 83.2324 1542.42 83.7124C1538.9 85.5684 1535.13 88.2244 1535.13 92.3524C1535.13 96.5764 1538.87 97.9204 1544.09 97.9204C1547.22 97.9204 1551.29 97.6324 1553.24 97.3764L1553.4 92.4164C1550.62 93.0244 1547 93.4084 1544.18 93.4084C1541.21 93.4084 1540.22 92.8644 1540.22 91.5204C1540.22 90.2404 1541.08 89.2164 1543.06 88.0644C1543.03 89.2484 1542.97 90.4324 1542.9 91.2324H1547.48Z" fill="#ECEFFF"/>
<path d="M1570.74 78.7524C1570.52 88.6084 1570.3 92.3524 1569.69 93.1844C1569.37 93.6644 1569.08 93.8244 1568.6 93.8244C1568.02 93.8244 1567.06 93.7924 1565.94 93.6964C1567.58 89.5684 1568.15 84.5444 1568.38 78.7524H1570.74ZM1568.47 74.2084C1568.5 72.5764 1568.5 70.8804 1568.5 69.1204H1563.93V74.2084H1560.54V78.7524H1563.86C1563.67 85.9524 1562.87 91.5524 1559.48 95.5524C1560.63 96.2884 1562.17 97.8884 1562.87 99.0404C1564.15 97.5044 1565.14 95.7764 1565.91 93.8564C1566.62 95.1684 1567.1 97.0884 1567.16 98.3684C1568.66 98.4004 1570.07 98.4004 1571.06 98.1444C1572.18 97.8884 1572.92 97.4724 1573.75 96.2564C1574.78 94.7204 1575 89.6324 1575.29 76.2564C1575.32 75.6804 1575.32 74.2084 1575.32 74.2084H1568.47ZM1581.11 91.6484V76.6084H1584.06V91.6484H1581.11ZM1576.66 72.1284V98.3044H1581.11V96.1284H1584.06V98.0484H1588.73V72.1284H1576.66Z" fill="#ECEFFF"/>
<path d="M1615.96 79.6804V81.7284H1613.37V79.6804H1615.96ZM1606.42 79.6804H1608.86V81.7284H1606.42V79.6804ZM1608.86 76.1924H1602.17V85.1844H1606.81C1605.21 86.9764 1602.74 88.5764 1600.28 89.5044C1601.24 90.3364 1602.58 91.9684 1603.22 93.0244C1605.3 91.9684 1607.26 90.3684 1608.86 88.4804V93.3124H1613.37V88.7364C1615.03 90.4324 1616.98 91.9684 1618.87 92.9604C1619.58 91.8404 1620.98 90.1764 1622.01 89.3124C1619.51 88.3844 1616.79 86.8484 1614.9 85.1844H1620.47V76.1924H1613.37V74.9444H1621.37V71.1044H1613.37V68.6724H1608.86V71.1044H1601.34V74.9444H1608.86V76.1924ZM1600.89 74.1444C1599.8 72.6724 1597.46 70.6884 1595.64 69.3764L1592.18 72.1604C1594.01 73.6004 1596.25 75.7444 1597.18 77.2164L1600.89 74.1444ZM1600.15 81.0244H1592.31V85.3124H1595.61V91.2644C1594.26 92.2244 1592.79 93.1204 1591.48 93.8564L1593.72 98.7204C1595.45 97.3444 1596.79 96.1924 1598.1 95.0404C1600.22 97.5044 1602.74 98.3044 1606.55 98.4644C1610.55 98.6564 1616.92 98.5924 1620.98 98.3684C1621.21 96.9924 1621.94 94.7524 1622.46 93.6324C1617.85 94.0484 1610.55 94.1444 1606.65 93.9844C1603.51 93.8564 1601.34 93.0564 1600.15 91.0724V81.0244Z" fill="#ECEFFF"/>
<path d="M1636.31 85.5364C1636.31 84.0964 1637.37 83.4884 1638.33 83.4884C1639.03 83.4884 1639.67 83.7764 1640.06 84.3204C1640.41 86.7524 1639.35 87.4884 1638.33 87.4884C1637.34 87.4884 1636.31 86.6884 1636.31 85.5364ZM1652.92 73.5044C1651.26 73.4724 1647 73.5364 1644.06 73.5364V73.1844C1644.09 72.6084 1644.22 70.6564 1644.31 70.0484H1638.78C1638.9 70.6564 1639.03 72.0004 1639.13 73.2164L1639.16 73.5684C1635.06 73.6324 1629.46 73.7604 1625.78 73.7284L1625.91 78.3364C1629.78 78.1444 1634.46 77.9524 1639.22 77.8884L1639.26 79.4884C1639 79.4564 1638.74 79.4564 1638.46 79.4564C1634.78 79.4564 1631.7 81.7924 1631.7 85.6324C1631.7 89.7284 1635 91.7124 1637.34 91.7124C1637.53 91.7124 1637.72 91.7124 1637.91 91.6804C1636.06 93.1524 1633.4 93.9204 1630.65 94.4644L1634.71 98.5604C1642.65 96.4164 1645.27 90.9124 1645.27 86.8484C1645.27 85.1204 1644.86 83.5524 1644.02 82.2724C1644.02 80.9604 1644.02 79.3604 1643.99 77.8564C1647.99 77.8884 1650.97 77.9524 1652.86 78.0484L1652.92 73.5044Z" fill="#ECEFFF"/>
<path d="M1670.58 93.5684C1668.98 93.5684 1667.93 92.8644 1667.93 91.8724C1667.93 91.2324 1668.54 90.6244 1669.56 90.6244C1670.9 90.6244 1671.86 91.7444 1672.02 93.5044C1671.58 93.5364 1671.1 93.5684 1670.58 93.5684ZM1677.78 70.8164C1677.37 70.9444 1676.47 71.0724 1674.97 71.2004C1673.08 71.3604 1666.74 71.4564 1665.05 71.4564C1663.99 71.4564 1662.81 71.3924 1661.82 71.2644L1661.98 76.2244C1662.74 76.0964 1663.86 76.0004 1664.82 75.9364C1666.52 75.8084 1669.78 75.6804 1671.38 75.6484C1669.85 77.0244 1666.9 79.2964 1665.14 80.7684C1663.26 82.3044 1659.58 85.4404 1657.53 87.0404L1661.02 90.6564C1664.06 86.9444 1667.38 84.1604 1672.02 84.1604C1675.51 84.1604 1678.3 85.8564 1678.3 88.5764C1678.3 90.1124 1677.69 91.3604 1676.44 92.2244C1675.9 89.2164 1673.4 86.9764 1669.53 86.9764C1665.94 86.9764 1663.38 89.5684 1663.38 92.3524C1663.38 95.8404 1667.1 97.9204 1671.58 97.9204C1679.77 97.9204 1683.35 93.6004 1683.35 88.6404C1683.35 83.8724 1679.06 80.3844 1673.62 80.3844C1672.86 80.3844 1672.25 80.4164 1671.42 80.5764C1673.14 79.2324 1675.93 76.9604 1677.72 75.7444C1678.52 75.2004 1679.32 74.7204 1680.15 74.2084L1677.78 70.8164Z" fill="#ECEFFF"/>
</svg>
