<svg width="2219" height="128" viewBox="0 0 2219 128" fill="none" xmlns="http://www.w3.org/2000/svg">
<path d="M534.264 46.9277C534.2 50.1277 534.072 51.4397 533.816 51.8237C533.56 52.1437 533.272 52.2397 532.856 52.2397C532.344 52.2397 531.512 52.2077 530.552 52.1117C530.776 50.3197 530.904 48.5597 530.968 46.9277H534.264ZM547.608 40.8797C546.968 43.0877 546.136 45.1357 545.144 47.0237C544.696 44.8157 544.344 42.2877 544.12 39.6637H553.88V35.0877H550.488L552.088 33.4237C550.968 32.3677 548.728 30.9597 547.096 30.0957L544.28 32.8797C545.272 33.4877 546.488 34.3197 547.48 35.0877H543.864C543.8 33.6157 543.8 32.1437 543.832 30.6717H538.936C538.936 32.1437 538.968 33.6157 539.032 35.0877H526.104V44.6877C526.104 48.8797 525.944 54.5437 523.576 58.3197C524.632 58.8637 526.744 60.5917 527.544 61.5197C529.176 59.0557 530.072 55.6317 530.52 52.2397C531.16 53.3917 531.64 55.1517 531.704 56.4637C533.176 56.4637 534.52 56.4317 535.384 56.2717C536.344 56.0797 537.08 55.7597 537.784 54.8317C538.552 53.8077 538.712 50.8637 538.808 44.3357C538.808 43.8237 538.84 42.7037 538.84 42.7037H531V39.6637H539.32C539.704 44.2717 540.376 48.6877 541.464 52.2717C539.736 54.2237 537.688 55.8557 535.384 57.1037C536.376 57.9997 538.072 59.9517 538.744 60.9437C540.44 59.8557 542.04 58.5757 543.48 57.1357C544.856 59.4397 546.584 60.8157 548.696 60.8157C551.992 60.8157 553.496 59.4717 554.2 53.2317C552.952 52.7517 551.32 51.6637 550.264 50.5757C550.104 54.4797 549.72 56.0797 549.08 56.0797C548.312 56.0797 547.512 55.0237 546.808 53.1997C549.112 49.9677 550.968 46.1917 552.312 41.9997L547.608 40.8797Z" fill="#ECEFFF"/>
<path d="M580.216 49.7117C579.128 50.5757 577.784 51.5357 576.504 52.3037C575.736 51.5357 575.032 50.6717 574.456 49.7117H580.216ZM582.296 49.7117H585.624V45.6477H566.36V44.6237H581.304V41.0717H566.36V40.0477H581.304V36.4957H566.36V35.4077H582.104V31.6317H561.592V45.6477H556.376V49.7117H561.56V56.2077C560.152 56.3677 558.872 56.4957 557.72 56.6237L558.744 60.8797C562.648 60.3357 567.864 59.5997 572.696 58.8637L572.472 54.7677C570.456 55.0237 568.376 55.3117 566.36 55.5997V49.7117H569.528C572.184 55.6957 576.152 59.3757 583.352 61.0717C583.96 59.8237 585.272 57.8717 586.296 56.8797C583.768 56.4317 581.624 55.6957 579.8 54.7357C581.464 53.8077 583.288 52.6877 584.888 51.5357L582.296 49.7117Z" fill="#ECEFFF"/>
<path d="M610.616 35.1517C609.688 35.9197 608.664 36.5277 607.32 37.2957C605.944 38.0957 603.544 39.3437 601.208 40.6877C599.96 38.3197 598.552 35.4397 597.4 32.2397L592.568 34.1917C593.976 37.5197 595.448 40.7517 596.92 43.4717C594.008 45.6797 591.768 48.2717 591.768 51.8877C591.768 57.7437 596.792 59.5037 603.32 59.5037C607.544 59.5037 610.712 59.1837 613.592 58.7037L613.656 53.1677C610.648 53.8397 606.328 54.3837 603.192 54.3837C599.128 54.3837 597.112 53.3917 597.112 51.3117C597.112 49.2317 598.872 47.5357 601.336 45.9357C604.12 44.1437 607.832 42.4477 609.72 41.5197C611 40.8797 612.152 40.2717 613.272 39.5997L610.616 35.1517Z" fill="#ECEFFF"/>
<path d="M631.8 40.9437H638.168V46.2877H631.8V40.9437ZM649.752 46.2877H643.064V40.9437H648.856V36.4637H643.064V30.8317H638.168V36.4637H631.8V30.8317H626.936V36.4637H621.336V40.9437H626.936V46.2877H620.344V50.8317H649.752V46.2877ZM628.248 51.6957C626.648 53.7117 623.352 56.2717 620.408 57.7757C621.496 58.5757 623.256 60.0477 624.248 61.0397C627.288 59.2477 630.744 56.3677 633.208 53.6157L628.248 51.6957ZM636.92 53.8397C639.64 56.0157 643.416 59.1197 645.112 61.0397L649.784 58.3837C647.768 56.3997 643.8 53.4557 641.208 51.5357L636.92 53.8397Z" fill="#ECEFFF"/>
<path d="M665.208 35.2477L665.24 40.1757C669.464 40.5277 675 40.4957 679.16 40.1757V35.2157C675.608 35.5997 669.336 35.7597 665.208 35.2477ZM664.088 48.7517C663.736 50.2877 663.512 51.6637 663.512 53.1037C663.512 56.4637 666.264 58.5437 671.8 58.5437C675.544 58.5437 678.072 58.3197 680.152 57.9357L680.056 52.7517C677.176 53.3277 674.904 53.5837 672.056 53.5837C669.464 53.5837 668.152 53.0717 668.152 51.6637C668.152 50.8317 668.248 50.1277 668.472 49.1357L664.088 48.7517ZM655.64 32.8797C655.608 34.0637 655.384 35.5037 655.256 36.4637C654.936 38.7997 654.008 44.0797 654.008 48.9437C654.008 53.2317 654.648 57.2317 655.288 59.3757L659.704 59.0877C659.672 58.5757 659.672 57.9997 659.672 57.6477C659.672 57.3597 659.768 56.5917 659.864 56.1437C660.216 54.3517 661.208 50.8637 662.168 47.9837L659.832 46.1597C659.416 47.0557 659.032 47.6957 658.616 48.5917C658.584 48.4637 658.584 47.9517 658.584 47.8557C658.584 44.9117 659.736 38.1917 660.088 36.5597C660.216 35.9837 660.696 34.0317 660.984 33.3277L655.64 32.8797Z" fill="#ECEFFF"/>
<path d="M702.68 51.2797C701.688 52.2077 700.504 52.9757 699.16 53.6477C697.848 52.9757 696.728 52.2077 695.8 51.2797H702.68ZM700.856 37.4237V42.3517C700.856 42.6717 700.76 42.7357 700.408 42.7357C700.056 42.7357 698.904 42.7357 698.04 42.7037C698.52 43.6957 699 45.0717 699.224 46.2237L696.312 45.6477C698.424 43.0557 698.776 39.9837 698.808 37.4237H700.856ZM706.648 47.5037L705.88 47.6637H698.584C698.84 47.3437 699.064 47.0237 699.32 46.7037V46.7677C701.144 46.7677 702.616 46.7357 703.832 46.0957C705.112 45.4557 705.368 44.3677 705.368 42.4797V37.4237H713.4V33.1677H701.4V30.6397H696.6V33.1677H684.728V37.4237H694.488C694.456 39.7917 693.848 42.6717 690.296 44.7837C691.128 45.3597 692.344 46.4157 693.176 47.3117C691.288 49.1357 688.536 50.7677 684.632 51.9517C685.592 52.6557 686.936 54.3197 687.512 55.4077C689.208 54.7357 690.712 54.0317 692.056 53.2637C692.728 54.0317 693.464 54.7677 694.264 55.4077C691.096 56.2077 687.48 56.6877 683.576 56.9117C684.376 57.9037 685.4 59.9517 685.752 61.1037C690.488 60.6237 695 59.7597 698.872 58.2557C702.328 59.7917 706.552 60.6237 711.8 60.9757C712.376 59.6957 713.56 57.6797 714.52 56.5917C710.584 56.4637 707.16 56.1117 704.248 55.4397C706.488 53.8717 708.344 51.9197 709.688 49.4877L706.648 47.5037ZM688.408 38.1597C687.64 40.0157 685.944 42.1917 684.024 43.4397C684.92 44.0477 686.392 45.2637 687.224 46.0957C689.4 44.5277 691.416 41.9037 692.728 39.3117L688.408 38.1597ZM705.848 40.1117C707.512 41.9997 709.528 44.5917 710.328 46.2877L714.2 43.9837C713.24 42.2557 711.128 39.8237 709.432 38.0637L705.848 40.1117Z" fill="#ECEFFF"/>
<path d="M723.576 31.0237C721.688 35.7277 718.424 40.3997 715.096 43.2797C715.928 44.4637 717.272 47.0877 717.752 48.2717C718.616 47.4717 719.48 46.5437 720.344 45.5197V60.9757H725.016V38.8637C726.232 36.7837 727.32 34.6397 728.184 32.5597L723.576 31.0237ZM736.44 56.3997C735 56.3997 734.84 56.1437 734.84 54.1597V46.7677C738.456 45.1357 742.264 43.1197 745.528 40.9757L742.104 36.8797C740.088 38.5117 737.528 40.3997 734.84 41.9677V31.5037H730.136V54.1277C730.136 59.2157 731.384 60.7197 735.8 60.7197H740.696C744.728 60.7197 745.944 58.5437 746.456 52.8477C745.176 52.5597 743.256 51.6957 742.168 50.8957C741.912 55.3437 741.656 56.3997 740.216 56.3997H736.44Z" fill="#ECEFFF"/>
<path d="M529.304 70.3997C529.624 71.8397 529.784 73.5677 529.784 75.2637C529.784 77.6637 529.496 86.1437 529.496 90.1437C529.496 95.6797 532.952 98.1757 538.488 98.1757C545.88 98.1757 550.584 93.8237 552.568 90.7837L549.08 86.4957C546.776 90.0477 543.448 92.9277 538.52 92.9277C536.376 92.9277 534.616 91.9677 534.616 88.9277C534.616 85.4397 534.84 78.5917 535 75.2637C535.064 73.8877 535.256 71.9677 535.48 70.4637L529.304 70.3997Z" fill="#ECEFFF"/>
<path d="M556.207 73.6317L556.687 78.8477C560.495 78.0157 566.063 77.3757 568.783 77.0877C567.087 78.6237 564.783 81.9837 564.783 86.3357C564.783 93.0877 570.831 96.9277 577.903 97.4717L579.695 92.1277C574.223 91.8077 569.839 89.9837 569.839 85.3117C569.839 81.5677 572.783 77.8557 576.207 77.0877C577.967 76.7357 580.655 76.7357 582.287 76.7037L582.255 71.7757C579.951 71.8717 576.207 72.0637 573.039 72.3197C567.247 72.8317 562.447 73.2157 559.471 73.4717C558.863 73.5357 557.487 73.5997 556.207 73.6317Z" fill="#ECEFFF"/>
<path d="M595.055 72.8957L589.167 72.8317C589.391 73.9517 589.455 75.2957 589.455 76.2557C589.455 78.2717 589.487 81.8877 589.807 84.8957C590.703 93.5677 593.807 96.7677 597.551 96.7677C600.335 96.7677 602.351 94.7837 604.559 89.1837L600.687 84.4477C600.239 86.5917 599.119 90.5597 597.647 90.5597C595.823 90.5597 595.183 87.6477 594.799 83.4877C594.607 81.3757 594.607 79.2957 594.607 77.2157C594.607 76.2877 594.799 74.2397 595.055 72.8957ZM610.543 73.5037L605.647 75.1037C609.359 79.1357 610.895 87.2317 611.343 91.9997L616.431 90.0477C616.175 85.4717 613.647 77.1517 610.543 73.5037Z" fill="#ECEFFF"/>
<path d="M637.519 69.3437C636.943 70.2077 635.791 71.3277 634.735 72.3517C632.591 74.3997 628.527 77.7597 625.999 79.8077C622.639 82.5597 622.447 84.4797 625.679 87.2637C628.559 89.7277 633.103 93.6317 634.863 95.4557C635.887 96.5117 636.943 97.5997 637.967 98.7517L642.447 94.5917C639.279 91.5837 633.039 86.7517 630.959 84.9277C629.423 83.5837 629.359 83.2957 630.927 81.9517C632.911 80.2237 636.879 77.1837 638.863 75.6797C639.727 75.0077 640.815 74.1757 641.999 73.3117L637.519 69.3437Z" fill="#ECEFFF"/>
<path d="M657.327 68.7677C655.791 73.1837 653.135 77.5997 650.383 80.3837C651.151 81.5357 652.399 84.1277 652.815 85.2797C653.263 84.7997 653.743 84.2557 654.191 83.6797V99.0077H658.607V76.9277C659.823 74.7197 660.879 72.3837 661.711 70.1437L657.327 68.7677ZM672.591 84.6397V79.2637H675.695V84.6397H672.591ZM664.911 84.6397V79.2637H667.951V84.6397H664.911ZM672.591 74.9757V69.0557H667.951V74.9757H660.527V90.8157H664.911V88.9277H667.951V99.0077H672.591V88.9277H675.695V90.5277H680.303V74.9757H672.591Z" fill="#ECEFFF"/>
<path d="M692.751 73.0877V74.1757H688.975V73.0877H692.751ZM688.975 78.4957V77.2477H692.751V78.4957H688.975ZM697.103 81.7597V69.7917H684.367V99.0397H688.975V81.7597H697.103ZM703.279 78.5917V77.2477H707.215V78.5917H703.279ZM707.215 73.0877V74.1757H703.279V73.0877H707.215ZM695.919 92.7037V91.3597H699.983V92.7037H695.919ZM699.983 86.7837V88.1277H695.919V86.7837H699.983ZM711.919 69.7917H698.863V81.8557H707.215V93.6637C707.215 94.2077 707.023 94.3997 706.447 94.3997C706.095 94.3997 705.263 94.3997 704.335 94.3997V83.4237H691.727V97.6957H695.919V96.0637H703.151C703.503 97.1197 703.791 98.2397 703.887 99.0397C706.703 99.0397 708.623 98.9437 710.063 98.1757C711.471 97.4077 711.919 96.0957 711.919 93.7277V69.7917Z" fill="#ECEFFF"/>
<path d="M1616.72 37.8076C1617.94 37.8076 1619.25 37.8716 1620.43 37.9356V32.9756C1619.25 33.1356 1617.9 33.2316 1616.72 33.2316H1603.92C1602.83 33.2316 1601.3 33.1356 1600.21 32.9756V37.9356C1601.26 37.8716 1602.8 37.8076 1603.92 37.8076H1616.72ZM1599.76 41.4556C1598.77 41.4556 1597.52 41.3596 1596.53 41.2316V46.2876C1597.42 46.2236 1598.83 46.1596 1599.76 46.1596H1608.11C1607.92 48.6556 1607.31 50.8636 1606.06 52.7196C1604.78 54.5116 1602.54 56.3356 1600.4 57.1356L1604.94 60.3996C1607.86 58.9276 1610.35 56.3356 1611.44 54.0636C1612.53 51.8876 1613.33 49.3596 1613.55 46.1596H1620.72C1621.68 46.1596 1623.02 46.1916 1623.89 46.2556V41.2316C1622.99 41.3916 1621.39 41.4556 1620.72 41.4556H1599.76Z" fill="#ECEFFF"/>
<path d="M1651.34 35.7276C1650.51 35.9836 1649.23 36.1436 1648.18 36.1436H1643.02C1643.5 35.3116 1644.27 33.9996 1645.01 32.9756L1639.34 31.1196C1638.99 32.3676 1638.22 34.0316 1637.65 34.9276C1635.95 37.6156 1633.36 41.4556 1627.7 44.9436L1632.05 48.1756C1634.99 46.1276 1637.84 43.3756 1640.11 40.5276H1648.08C1647.66 42.6076 1645.87 46.2876 1643.86 48.5276C1641.14 51.5676 1637.81 54.2876 1630.9 56.3996L1635.5 60.4956C1641.52 58.0316 1645.39 55.0876 1648.5 51.2796C1651.44 47.6636 1653.17 43.4396 1654.03 40.7836C1654.35 39.8236 1654.86 38.8636 1655.28 38.1596L1651.34 35.7276Z" fill="#ECEFFF"/>
<path d="M1683.36 34.3516L1677.28 32.7836C1676.41 37.3916 1674.37 43.0556 1671.23 46.7676C1668.38 50.1276 1664.16 53.2636 1659.04 55.0236L1663.45 59.5676C1668.61 57.5196 1672.99 53.4236 1675.65 50.1596C1678.17 47.0556 1680.35 42.1596 1681.76 38.3516C1682.17 37.1996 1682.69 35.6636 1683.36 34.3516Z" fill="#ECEFFF"/>
<path d="M1711.39 39.8876V52.0796H1697.05V39.8876H1711.39ZM1716.61 38.3516C1716.61 37.2636 1716.61 35.9516 1716.67 34.8956C1715.39 34.9276 1714.17 34.9276 1713.31 34.9276H1695.45C1694.53 34.9276 1693.09 34.8956 1691.77 34.8636C1691.84 35.8556 1691.84 37.3276 1691.84 38.3516V53.9036C1691.84 55.6636 1691.74 58.7356 1691.74 58.7356H1697.09V57.0396H1711.36L1711.29 58.7356H1716.67C1716.67 58.7356 1716.61 55.3436 1716.61 53.9676V38.3516Z" fill="#ECEFFF"/>
<path d="M1743.68 33.0396L1740.48 34.3516C1741.73 36.1116 1742.24 37.1676 1743.26 39.3756L1746.56 37.9676C1745.85 36.5276 1744.64 34.4796 1743.68 33.0396ZM1748.22 31.4716L1744.96 32.8156C1746.21 34.5116 1746.81 35.4396 1747.93 37.6476L1751.2 36.2076C1750.43 34.8316 1749.28 32.8476 1748.22 31.4716ZM1729.66 32.3356L1726.85 36.6236C1729.09 37.8716 1732.35 39.9516 1734.27 41.2316L1737.15 36.9436C1735.33 35.6956 1731.9 33.5516 1729.66 32.3356ZM1723.1 54.9596L1726.01 60.0796C1728.77 59.6316 1733.47 57.9676 1736.73 56.1436C1742.05 53.1036 1746.62 49.1036 1749.69 44.5916L1746.72 39.2796C1744.19 43.8876 1739.58 48.3996 1734.08 51.4396C1730.46 53.3916 1726.72 54.3516 1723.1 54.9596ZM1724.67 39.6956L1721.85 43.9836C1724.13 45.1996 1727.36 47.3116 1729.31 48.6556L1732.16 44.3036C1730.37 43.0556 1726.97 40.9116 1724.67 39.6956Z" fill="#ECEFFF"/>
<path d="M1754.85 48.7516C1756.16 48.6556 1758.56 48.5596 1760.38 48.5596H1777.37C1778.69 48.5596 1780.48 48.7196 1781.31 48.7516V42.6396C1780.38 42.7036 1778.81 42.8636 1777.37 42.8636H1760.38C1758.81 42.8636 1756.13 42.7356 1754.85 42.6396V48.7516Z" fill="#ECEFFF"/>
<path d="M1796.22 45.9036C1795.1 49.5836 1794.14 51.5036 1792.86 51.5036C1791.77 51.5036 1790.81 50.0636 1790.81 47.3116C1790.81 44.2716 1793.15 40.0156 1797.85 38.7356C1797.47 41.2316 1796.93 43.7596 1796.22 45.9036ZM1801.79 59.5996C1810.05 58.2236 1813.98 53.3276 1813.98 46.6716C1813.98 39.4716 1808.86 33.9036 1800.8 33.9036C1792.32 33.9036 1785.82 40.3036 1785.82 47.8236C1785.82 53.2316 1788.83 57.4876 1792.73 57.4876C1796.48 57.4876 1799.33 53.2316 1801.21 46.8956C1802.08 43.9836 1802.65 41.1996 1803.07 38.6396C1806.72 39.5036 1808.7 42.4156 1808.7 46.5116C1808.7 50.6716 1806.01 53.4876 1801.98 54.4796C1801.09 54.7036 1800.22 54.8956 1798.88 55.0556L1801.79 59.5996Z" fill="#ECEFFF"/>
<path d="M1835.61 40.1756H1832.25V38.8636H1835.61V40.1756ZM1835.61 45.2316H1832.25V43.8876H1835.61V45.2316ZM1835.61 50.3836H1832.25V48.9436H1835.61V50.3836ZM1827.77 54.2556H1846.53V50.3836H1840.03V48.9436H1844.93V45.2316H1840.03V43.8876H1845.09V40.1756H1840.03V38.8636H1845.95V34.9916H1840.99C1841.5 34.0316 1842.01 32.9756 1842.53 31.9516L1837.37 31.0556C1837.12 32.2396 1836.7 33.6796 1836.22 34.9916H1833.47C1833.95 34.0316 1834.4 33.0716 1834.81 32.1116L1830.17 30.7676C1828.77 34.4796 1826.14 38.0636 1823.26 40.2396C1824.25 41.1036 1825.95 42.9916 1826.65 43.9516C1827.04 43.6316 1827.39 43.2796 1827.77 42.8956V54.2556ZM1825.73 36.4636C1824.7 34.9596 1822.49 32.8796 1820.73 31.4716L1817.18 34.0956C1818.91 35.6636 1821.02 37.8716 1821.89 39.4076L1825.73 36.4636ZM1824.96 43.0236H1817.18V47.3116H1820.51V53.5836C1819.26 54.5116 1817.95 55.4076 1816.77 56.1116L1818.91 60.7516C1820.54 59.3756 1821.79 58.2556 1823.01 57.0716C1824.89 59.5036 1827.29 60.3356 1830.91 60.4956C1835.01 60.6876 1841.82 60.6236 1846.01 60.3996C1846.24 59.0876 1846.94 56.9436 1847.45 55.8876C1842.69 56.3036 1834.97 56.3996 1830.97 56.2076C1827.97 56.0796 1826.01 55.2476 1824.96 53.2636V43.0236Z" fill="#ECEFFF"/>
<path d="M1856.67 31.0236C1854.78 35.7276 1851.52 40.3996 1848.19 43.2796C1849.02 44.4636 1850.37 47.0876 1850.85 48.2716C1851.71 47.4716 1852.57 46.5436 1853.44 45.5196V60.9756H1858.11V38.8636C1859.33 36.7836 1860.41 34.6396 1861.28 32.5596L1856.67 31.0236ZM1869.53 56.3996C1868.09 56.3996 1867.93 56.1436 1867.93 54.1596V46.7676C1871.55 45.1356 1875.36 43.1196 1878.62 40.9756L1875.2 36.8796C1873.18 38.5116 1870.62 40.3996 1867.93 41.9676V31.5036H1863.23V54.1276C1863.23 59.2156 1864.48 60.7196 1868.89 60.7196H1873.79C1877.82 60.7196 1879.04 58.5436 1879.55 52.8476C1878.27 52.5596 1876.35 51.6956 1875.26 50.8956C1875.01 55.3436 1874.75 56.3996 1873.31 56.3996H1869.53Z" fill="#ECEFFF"/>
<path d="M1598.35 70.7836C1598.32 71.9676 1598.13 73.4076 1598 74.3676C1597.65 76.7036 1596.75 82.6556 1596.75 87.5196C1596.75 91.8076 1597.39 95.5196 1598.06 97.6636L1602.38 97.3756C1602.35 96.8636 1602.35 96.2876 1602.35 95.9356C1602.35 95.6156 1602.45 94.8796 1602.54 94.4316C1602.93 92.6076 1603.89 89.4076 1604.85 86.5596L1602.51 84.7036C1602.1 85.6316 1601.71 86.2396 1601.33 87.1676C1601.3 87.0396 1601.3 86.5276 1601.3 86.4316C1601.3 83.4876 1602.38 76.0956 1602.77 74.4636C1602.9 73.8876 1603.34 71.9356 1603.63 71.2316L1598.35 70.7836ZM1614.26 90.4636C1614.26 92.1916 1613.65 93.0236 1612.11 93.0236C1610.77 93.0236 1609.65 92.6396 1609.65 91.5196C1609.65 90.5276 1610.64 89.9516 1612.11 89.9516C1612.85 89.9516 1613.55 90.0476 1614.26 90.2396V90.4636ZM1625.07 91.5836C1623.66 90.2716 1621.71 88.6076 1618.99 87.4876C1618.9 85.6316 1618.74 83.3596 1618.67 80.4796C1620.34 80.3516 1621.9 80.1596 1623.31 79.9676V75.1996C1621.87 75.4876 1620.3 75.7436 1618.7 75.9036C1618.74 74.5916 1618.77 73.5356 1618.8 72.9276C1618.83 72.2236 1618.9 71.4236 1618.99 70.8156H1613.52C1613.65 71.4876 1613.78 72.5116 1613.78 72.9916C1613.81 73.5676 1613.81 74.7516 1613.84 76.2236C1613.23 76.2556 1612.66 76.2556 1612.05 76.2556C1610.13 76.2556 1608.24 76.1596 1606.38 75.9676L1606.42 80.5436C1608.3 80.6716 1610.19 80.7356 1612.08 80.7356C1612.66 80.7356 1613.26 80.7356 1613.87 80.7036C1613.9 82.6876 1614 84.6396 1614.1 86.3036C1613.58 86.2716 1613.04 86.2396 1612.5 86.2396C1608.08 86.2396 1605.17 88.5116 1605.17 92.0636C1605.17 95.6476 1608.11 97.5676 1612.56 97.5676C1616.72 97.5676 1618.67 95.7116 1619.09 92.7356C1620.18 93.5356 1621.3 94.4956 1622.48 95.6156L1625.07 91.5836Z" fill="#ECEFFF"/>
<path d="M1635.31 91.8396V85.5996H1648.59V91.8396H1635.31ZM1648.59 75.1356V80.9916H1635.31V75.1356H1648.59ZM1630.51 70.4316V98.6556H1635.31V96.5436H1648.59V98.6556H1653.62V70.4316H1630.51Z" fill="#ECEFFF"/>
<path d="M1682.83 75.9996L1681.97 76.1916H1673.42C1674.1 74.5916 1674.7 72.9916 1675.22 71.4236L1670.06 70.2716C1668.53 75.9676 1665.07 83.3276 1660.27 87.5196C1661.58 88.0956 1663.66 89.2796 1664.75 90.0796C1667.28 87.6796 1669.46 84.3836 1671.28 80.8316H1679.54C1678.58 83.0076 1677.26 85.3756 1675.82 87.4876C1674.26 86.7196 1672.69 86.0156 1671.28 85.4396L1668.43 89.3436C1672.72 91.2636 1678.06 94.4956 1680.43 97.0236L1683.63 92.5436C1682.77 91.7116 1681.55 90.8156 1680.18 89.9516C1682.74 86.2076 1685.1 81.6956 1686.38 77.9196L1682.83 75.9996Z" fill="#ECEFFF"/>
<path d="M1694.54 98.1756C1696.91 96.5436 1698.26 94.0476 1699.18 91.4236L1695.02 89.8876C1694.26 92.1276 1692.72 94.1756 1690.7 95.4556L1694.54 98.1756ZM1706.8 74.4636C1706.42 75.0396 1705.97 75.6156 1705.55 76.1276H1699.22C1699.76 75.5836 1700.27 75.0396 1700.75 74.4636H1706.8ZM1705.3 94.7836C1704.11 94.7836 1703.92 94.6876 1703.92 93.7916V91.0076C1705.23 91.8396 1706.45 92.7676 1707.12 93.5036L1710.19 90.3676C1709.68 89.8556 1708.91 89.3116 1708.08 88.7996H1717.55V76.1276H1710.99C1711.92 74.9436 1712.78 73.7276 1713.39 72.6716L1710.19 70.6556L1709.49 70.8476H1703.44C1703.73 70.3676 1704.02 69.8876 1704.3 69.4076L1699.34 68.4476C1697.78 71.4236 1694.96 74.5916 1690.7 76.9276C1691.73 77.6636 1693.23 79.2636 1693.94 80.3516C1694.42 80.0316 1694.9 79.7116 1695.34 79.3916V79.8076H1712.94V80.7356H1696.02V84.1276H1712.94V85.1196H1694.83V88.7996H1702.58L1701.65 89.7276C1702.13 89.9516 1702.61 90.2396 1703.12 90.5276H1699.38V93.8556C1699.38 97.4716 1700.34 98.7196 1704.66 98.7196H1708.69C1711.86 98.7196 1713.04 97.6956 1713.52 93.6636C1712.3 93.4076 1710.42 92.7676 1709.55 92.0956C1709.39 94.4316 1709.2 94.7836 1708.24 94.7836H1705.3ZM1711.95 91.5836C1713.9 93.5996 1716.18 96.4156 1717.07 98.2396L1721.26 95.8396C1720.18 93.9196 1717.78 91.2956 1715.82 89.4396L1711.95 91.5836Z" fill="#ECEFFF"/>
<path d="M1746.96 79.6796V81.7276H1744.37V79.6796H1746.96ZM1737.42 79.6796H1739.86V81.7276H1737.42V79.6796ZM1739.86 76.1916H1733.17V85.1836H1737.81C1736.21 86.9756 1733.74 88.5756 1731.28 89.5036C1732.24 90.3356 1733.58 91.9676 1734.22 93.0236C1736.3 91.9676 1738.26 90.3676 1739.86 88.4796V93.3116H1744.37V88.7356C1746.03 90.4316 1747.98 91.9676 1749.87 92.9596C1750.58 91.8396 1751.98 90.1756 1753.01 89.3116C1750.51 88.3836 1747.79 86.8476 1745.9 85.1836H1751.47V76.1916H1744.37V74.9436H1752.37V71.1036H1744.37V68.6716H1739.86V71.1036H1732.34V74.9436H1739.86V76.1916ZM1731.89 74.1436C1730.8 72.6716 1728.46 70.6876 1726.64 69.3756L1723.18 72.1596C1725.01 73.5996 1727.25 75.7436 1728.18 77.2156L1731.89 74.1436ZM1731.15 81.0236H1723.31V85.3116H1726.61V91.2636C1725.26 92.2236 1723.79 93.1196 1722.48 93.8556L1724.72 98.7196C1726.45 97.3436 1727.79 96.1916 1729.1 95.0396C1731.22 97.5036 1733.74 98.3036 1737.55 98.4636C1741.55 98.6556 1747.92 98.5916 1751.98 98.3676C1752.21 96.9916 1752.94 94.7516 1753.46 93.6316C1748.85 94.0476 1741.55 94.1436 1737.65 93.9836C1734.51 93.8556 1732.34 93.0556 1731.15 91.0716V81.0236Z" fill="#ECEFFF"/>
<path d="M1768.21 73.2476L1768.24 78.1756C1772.46 78.5276 1778 78.4956 1782.16 78.1756V73.2156C1778.61 73.5996 1772.34 73.7596 1768.21 73.2476ZM1767.09 86.7516C1766.74 88.2876 1766.51 89.6636 1766.51 91.1036C1766.51 94.4636 1769.26 96.5436 1774.8 96.5436C1778.54 96.5436 1781.07 96.3196 1783.15 95.9356L1783.06 90.7516C1780.18 91.3276 1777.9 91.5836 1775.06 91.5836C1772.46 91.5836 1771.15 91.0716 1771.15 89.6636C1771.15 88.8316 1771.25 88.1276 1771.47 87.1356L1767.09 86.7516ZM1758.64 70.8796C1758.61 72.0636 1758.38 73.5036 1758.26 74.4636C1757.94 76.7996 1757.01 82.0796 1757.01 86.9436C1757.01 91.2316 1757.65 95.2316 1758.29 97.3756L1762.7 97.0876C1762.67 96.5756 1762.67 95.9996 1762.67 95.6476C1762.67 95.3596 1762.77 94.5916 1762.86 94.1436C1763.22 92.3516 1764.21 88.8636 1765.17 85.9836L1762.83 84.1596C1762.42 85.0556 1762.03 85.6956 1761.62 86.5916C1761.58 86.4636 1761.58 85.9516 1761.58 85.8556C1761.58 82.9116 1762.74 76.1916 1763.09 74.5596C1763.22 73.9836 1763.7 72.0316 1763.98 71.3276L1758.64 70.8796Z" fill="#ECEFFF"/>
<path d="M825.3 54.0146C825.81 57.0746 825.98 59.5396 825.98 62.5146C825.98 76.3696 823.855 83.5946 814.42 90.7346C810.85 93.4546 807.705 94.8996 804.73 95.9196L816.715 105.695C840.685 92.3496 840.26 73.9896 840.26 54.0146H825.3ZM867.12 34.8896C865.335 35.3996 859.725 35.7396 856.92 35.7396H812.805C809.065 35.7396 805.495 35.3146 802.01 34.8046V48.9996C806.43 48.5746 809.065 48.3196 812.805 48.3196H854.795C852.925 51.8896 847.06 58.3496 840.77 62.3446L851.395 70.8446C859.045 65.3196 867.12 54.6946 871.455 47.5546C872.305 46.1946 874.26 43.7296 875.28 42.4546L867.12 34.8896Z" fill="#ECEFFF"/>
<path d="M927.827 58.1796C935.987 52.9096 943.382 46.6196 950.182 39.9896L939.132 30.0446C934.287 36.5046 925.532 44.0696 916.947 49.4246C907.427 55.3746 893.147 61.5796 877.932 64.7246L885.242 77.2196C894.507 74.7546 904.452 70.7596 913.037 66.5096V92.0946C913.037 96.1746 912.697 102.125 912.357 104.42H928.677C927.997 102.04 927.827 96.1746 927.827 92.0946V58.1796Z" fill="#ECEFFF"/>
<path d="M1039.05 98.1296C1034.97 88.2696 1026.64 71.7796 1020.52 62.3446L1007.6 67.6146C1010.15 71.0996 1012.95 76.2846 1015.67 81.9796C1007.85 82.9146 997.736 84.1046 988.641 84.9546C992.721 73.6496 998.926 54.2696 1001.82 45.8546C1003.18 41.9446 1004.54 38.2896 1005.81 35.4846L989.491 32.1696C989.066 35.3146 988.556 38.3746 987.281 42.8796C984.731 51.9746 978.101 73.3096 973.171 86.0596L971.896 86.1446C969.006 86.2296 964.841 86.2296 961.781 86.2296L964.161 101.275C966.966 100.935 970.536 100.425 972.661 100.17C982.946 99.0646 1007.34 96.5996 1021.37 94.8996C1022.81 98.2996 1024.09 101.53 1025.11 104.335L1039.05 98.1296Z" fill="#ECEFFF"/>
<path d="M1103.77 36.8446C1101.13 37.5246 1097.82 37.6096 1095.95 37.6096H1058.46C1055.66 37.6096 1050.05 37.1846 1047.41 36.8446V51.3796C1049.62 51.2096 1054.3 50.9546 1058.46 50.9546H1095.86C1094.76 57.7546 1091.95 66.1696 1086.51 72.8846C1079.8 81.2146 1070.19 88.6946 1053.11 92.5196L1064.33 104.845C1079.29 99.9996 1091.27 91.2446 1098.92 80.9596C1106.23 71.0996 1109.72 58.1796 1111.76 50.1896C1112.27 48.3196 1113.03 45.2596 1113.97 43.3896L1103.77 36.8446Z" fill="#ECEFFF"/>
<path d="M1191.15 51.0396C1189.62 51.4646 1185.11 51.7196 1182.9 51.7196H1144.99C1141.93 51.7196 1138.45 51.3796 1135.56 50.9546V64.0446C1139.04 63.7046 1141.93 63.5346 1144.99 63.5346H1179.67C1177.89 66.6796 1173.13 71.7796 1168.88 75.0096C1169.05 72.2896 1169.13 69.5696 1169.22 66.8496H1155.02C1155.45 68.8046 1155.79 71.1846 1155.79 73.4796C1155.79 84.0196 1153.92 90.4796 1145.33 96.4296C1142.44 98.4696 1140.23 99.4896 1137.77 100.51L1148.56 109.095C1165.65 99.7446 1168.2 87.3346 1168.88 75.1796L1178.99 82.1496C1184.18 77.8996 1192.51 67.0196 1195.74 61.8346C1196.33 60.8996 1197.78 58.9446 1198.71 57.9246L1191.15 51.0396Z" fill="#ECEFFF"/>
<path d="M1274.36 40.8396C1272.15 41.5196 1268.75 41.9446 1265.95 41.9446H1252.26C1253.54 39.7346 1255.58 36.2496 1257.53 33.5296L1242.49 28.5996C1241.55 31.9146 1239.51 36.3346 1237.98 38.7146C1233.48 45.8546 1226.59 56.0546 1211.55 65.3196L1223.11 73.9046C1230.93 68.4646 1238.49 61.1546 1244.53 53.5896H1265.69C1264.59 59.1146 1259.83 68.8896 1254.47 74.8396C1247.25 82.9146 1238.41 90.1396 1220.05 95.7496L1232.29 106.63C1248.27 100.085 1258.55 92.2646 1266.8 82.1496C1274.62 72.5446 1279.21 61.3246 1281.5 54.2696C1282.35 51.7196 1283.71 49.1696 1284.82 47.2996L1274.36 40.8396Z" fill="#ECEFFF"/>
<path d="M1366.93 67.4446C1359.79 63.9596 1343.3 57.9246 1331.82 54.6096V42.9646C1331.82 38.8846 1332.33 35.1446 1332.67 31.9146H1316.61C1317.29 35.1446 1317.63 39.5646 1317.63 42.9646V91.4996C1317.63 94.9846 1317.2 100.68 1316.61 104.335H1332.76C1332.33 100.51 1331.82 93.7946 1331.82 91.4996V69.6546C1340.83 72.8846 1352.48 77.3896 1361.06 81.8096L1366.93 67.4446Z" fill="#ECEFFF"/>
<path d="M1392.34 33.9546C1392.6 36.0796 1392.68 39.0546 1392.68 40.6696V69.4846C1392.68 72.1196 1392.34 75.7746 1392.26 77.4746H1407.56C1407.39 75.2646 1407.22 71.6946 1407.22 69.5696V40.6696C1407.22 37.6096 1407.39 36.0796 1407.56 33.9546H1392.34ZM1431.36 33.1896C1431.7 35.7396 1431.95 38.6296 1431.95 42.3696V59.9646C1431.95 71.6946 1430.76 77.7296 1425.07 83.7646C1419.97 89.0346 1413 92.1796 1404.16 94.1346L1414.95 105.525C1421.16 103.57 1430.08 99.2346 1435.78 93.2846C1442.24 86.4846 1446.23 77.9846 1446.23 60.8996V42.3696C1446.23 38.6296 1446.4 35.7396 1446.57 33.1896H1431.36Z" fill="#ECEFFF"/>
<path d="M1469.35 75.4346C1472.84 75.1796 1479.21 74.9246 1484.06 74.9246H1529.19C1532.68 74.9246 1537.44 75.3496 1539.65 75.4346V59.1996C1537.18 59.3696 1533.02 59.7946 1529.19 59.7946H1484.06C1479.89 59.7946 1472.75 59.4546 1469.35 59.1996V75.4346Z" fill="#ECEFFF"/>
<path d="M95.0101 72.2904V60.6454H82.0901V59.2004V49.1704H93.1401V37.7804H71.7201C72.4851 35.1454 73.0801 32.4254 73.5901 29.7904L61.7751 27.4104C60.2451 36.7604 57.1851 46.3654 52.8501 52.2304C55.5701 53.8454 60.5001 57.3304 62.7101 59.3704C64.5801 56.5654 66.3651 53.0804 67.9801 49.1704H69.5951V59.0304V60.6454H54.8051V72.2904H68.6601C67.2151 81.5554 63.3051 91.2454 53.3601 98.4704C55.8251 100.255 60.5851 105.27 62.2001 107.82C69.6801 102.295 74.4401 94.9854 77.4151 87.1654C81.2401 92.1804 85.3201 97.9604 88.0401 102.38L96.3701 91.9254C94.1601 89.2054 85.3201 79.0904 80.8151 74.5004C80.9851 73.8204 81.0701 73.0554 81.1551 72.2904H95.0101ZM108.95 88.1854V46.1954H118.13V88.1854H108.95ZM96.9651 34.6354V105.61H108.95V99.7454H118.13V104.25H130.71V34.6354H96.9651Z" fill="#ECEFFF"/>
<path d="M148.56 106.205C154.51 101.19 157.655 93.7104 159.695 86.1454L148.73 82.2354C147.03 88.6954 143.545 94.5604 138.7 98.3004L148.56 106.205ZM160.46 66.5954H172.955V69.4004H160.46V66.5954ZM160.46 55.4604H172.955V58.2654H160.46V55.4604ZM197.52 55.4604V58.2654H185.11V55.4604H197.52ZM197.52 69.4004H185.11V66.5954H197.52V69.4004ZM177.63 95.6654C174.145 95.6654 173.55 95.4104 173.55 92.9454V84.8704C177.12 87.3354 180.435 90.2254 182.305 92.4354L190.805 84.7004C188.935 82.6604 186.045 80.3654 182.9 78.3254H209.675V46.5354H185.11V43.5604H215.03V32.8504H185.11V27.3254H172.955V32.8504H143.46V43.5604H172.955V46.5354H148.9V78.3254H171.85L168.365 81.4704C169.47 82.1504 170.66 82.9154 171.85 83.6804H161.31V93.2004C161.31 103.145 163.945 106.545 175.93 106.545H187.49C196.16 106.545 199.475 103.91 200.835 93.2854C197.605 92.6054 192.335 90.7354 189.955 88.9504C189.615 94.8154 189.02 95.6654 186.3 95.6654H177.63ZM195.225 86.2304C201.005 91.8404 206.87 99.7454 208.995 105.185L220.045 99.1504C217.495 93.3704 211.205 85.9754 205.34 80.7054L195.225 86.2304Z" fill="#ECEFFF"/>
<path d="M284.73 39.3104C282.265 41.3504 279.545 42.9654 275.975 45.0054C272.32 47.1304 265.945 50.4454 259.74 54.0154C256.425 47.7254 252.685 40.0754 249.625 31.5754L236.79 36.7604C240.53 45.6004 244.44 54.1854 248.35 61.4104C240.615 67.2754 234.665 74.1604 234.665 83.7654C234.665 99.3204 248.01 103.995 265.35 103.995C276.57 103.995 284.985 103.145 292.635 101.87L292.805 87.1654C284.815 88.9504 273.34 90.3954 265.01 90.3954C254.215 90.3954 248.86 87.7604 248.86 82.2354C248.86 76.7104 253.535 72.2054 260.08 67.9554C267.475 63.1954 277.335 58.6904 282.35 56.2254C285.75 54.5254 288.81 52.9104 291.785 51.1254L284.73 39.3104Z" fill="#ECEFFF"/>
<path d="M330.885 66.7654H343.21V69.4854H330.885V66.7654ZM330.885 56.3954H343.21V59.0304H330.885V56.3954ZM368.795 59.0304H355.025V56.3954H368.795V59.0304ZM368.795 69.4854H355.025V66.7654H368.795V69.4854ZM354.6 80.9604C354.77 79.9404 354.94 78.8354 355.025 77.7304H381.29V48.1504H364.97C364.035 47.7254 363.015 47.3004 361.91 46.8754C369.22 43.8154 376.275 40.0754 382.395 36.5904L374.49 29.2804L371.77 29.8754H317.115V38.8004H357.66C354.94 40.1604 352.05 41.5204 349.33 42.5404C345.08 41.1804 340.83 39.9904 337.26 39.0554L328.335 45.1754C331.31 46.0254 334.54 47.0454 337.855 48.1504H318.985V77.7304H342.615C342.445 78.8354 342.275 79.9404 342.105 80.9604H315.245V90.9054H336.325C331.905 94.3054 324.34 96.6004 310.74 98.1304C312.865 100.68 315.5 105.355 316.35 108.33C337.77 105.185 347.12 99.4904 351.455 90.9054H370.75C369.985 94.3904 369.05 96.3454 368.115 97.1104C367.18 97.8754 366.245 97.9604 364.715 97.9604C362.675 97.9604 358.17 97.8754 354.005 97.4504C355.875 100.34 357.32 104.76 357.49 107.99C362.42 108.16 367.18 108.075 369.985 107.82C373.385 107.565 376.105 106.885 378.485 104.59C381.12 102.125 382.905 96.5154 384.265 85.5504C384.52 84.0204 384.775 80.9604 384.775 80.9604H354.6Z" fill="#ECEFFF"/>
<path d="M407.725 60.3904C410.105 57.8404 412.4 54.8654 414.44 51.6354V57.5854H463.825V47.7254H416.735C417.245 46.8754 417.67 46.0254 418.095 45.1754H471.305V35.0604H422.515C423.195 33.2754 423.79 31.4904 424.3 29.6204L411.295 26.8154C408.235 38.6304 401.775 49.5954 393.19 55.8004C396.165 57.5004 401.52 61.0704 404.155 63.2804V70.6754H431.27C429.57 73.9904 427.53 77.1354 425.15 80.1104C420.645 77.3904 416.055 74.8404 412.06 72.8004L403.22 80.9604C407.385 83.2554 411.89 85.9754 416.395 88.8654C410.615 93.5404 403.815 97.4504 396.59 100.17C399.31 102.38 403.815 107.225 405.685 109.775C413.08 106.29 420.135 101.615 426.51 95.9204C431.185 99.4054 435.265 102.805 437.985 105.78L447.845 96.3454C444.785 93.2854 440.365 89.9704 435.35 86.5704C438.41 82.8304 441.13 78.7504 443.425 74.4154L431.865 70.6754H448.27C448.865 91.8404 451.67 108.245 464.76 108.245C471.985 108.245 474.195 103.315 475.045 92.6904C472.495 90.8204 469.52 87.6754 467.14 84.7854C467.055 91.5004 466.715 95.8354 465.61 95.9204C461.53 95.9204 460.51 80.0254 460.85 60.3904H407.725Z" fill="#ECEFFF"/>
<path d="M1962.78 100.19C1971.62 100.19 1979.44 96.7053 1983.86 92.4553V62.8753H1960.32V75.2853H1970.35V85.4853C1968.99 86.5053 1966.61 87.1003 1964.31 87.1003C1952.58 87.1003 1946.97 79.7903 1946.97 67.2103C1946.97 54.8853 1953.69 47.5753 1963.04 47.5753C1968.31 47.5753 1971.62 49.7003 1974.68 52.5053L1982.76 42.8153C1978.42 38.4803 1971.79 34.5703 1962.53 34.5703C1945.61 34.5703 1931.42 46.6403 1931.42 67.7203C1931.42 89.1403 1945.19 100.19 1962.78 100.19Z" fill="#ECEFFF"/>
<path d="M2022.74 100.19C2040 100.19 2051.73 87.7803 2051.73 67.0403C2051.73 46.3853 2040 34.5703 2022.74 34.5703C2005.49 34.5703 1993.76 46.3003 1993.76 67.0403C1993.76 87.7803 2005.49 100.19 2022.74 100.19ZM2022.74 87.1003C2014.41 87.1003 2009.31 79.3653 2009.31 67.0403C2009.31 54.8003 2014.41 47.5753 2022.74 47.5753C2031.07 47.5753 2036.26 54.8003 2036.26 67.0403C2036.26 79.3653 2031.07 87.1003 2022.74 87.1003Z" fill="#ECEFFF"/>
<path d="M2067.75 58.0004H2073.19V50.0964C2073.19 47.2164 2072.71 43.9524 2072.46 41.2964H2072.62L2074.95 46.5124L2080.84 58.0004H2086.66V34.1924H2081.22V42.0644C2081.22 44.9124 2081.67 48.3364 2081.99 50.8644H2081.83L2079.5 45.5844L2073.58 34.1924H2067.75V58.0004Z" fill="#ECEFFF"/>
<path d="M2092.19 58.0004H2107.65V53.2004H2097.92V48.1444H2105.89V43.3444H2097.92V38.9284H2107.29V34.1924H2092.19V58.0004Z" fill="#ECEFFF"/>
<path d="M2109.98 58.0004H2116.09L2118.14 53.3604C2118.68 52.1124 2119.19 50.8644 2119.77 49.3924H2119.9C2120.54 50.8644 2121.08 52.1124 2121.66 53.3604L2123.87 58.0004H2130.23L2123.67 46.0004L2129.82 34.1924H2123.77L2122.04 38.4484C2121.56 39.5684 2121.05 40.8164 2120.51 42.3524H2120.38C2119.71 40.8164 2119.16 39.5684 2118.65 38.4484L2116.73 34.1924H2110.36L2116.54 45.7444L2109.98 58.0004Z" fill="#ECEFFF"/>
<path d="M2137.24 58.0004H2142.96V38.9284H2149.43V34.1924H2130.8V38.9284H2137.24V58.0004Z" fill="#ECEFFF"/>
<path d="M2075.14 96.4484C2080.9 96.4484 2084.23 92.9604 2084.23 88.9924C2084.23 85.6324 2082.47 83.6484 2079.53 82.4644L2076.55 81.2804C2074.44 80.4484 2072.94 79.9364 2072.94 78.6244C2072.94 77.3444 2074.02 76.6404 2075.78 76.6404C2077.64 76.6404 2079.11 77.2804 2080.68 78.4644L2083.53 74.8804C2081.45 72.8004 2078.54 71.7444 2075.78 71.7444C2070.73 71.7444 2067.14 74.9444 2067.14 78.9444C2067.14 82.4004 2069.48 84.4804 2071.98 85.4724L2075.02 86.7524C2077.06 87.6164 2078.38 88.0644 2078.38 89.4404C2078.38 90.7204 2077.38 91.5204 2075.27 91.5204C2073.38 91.5204 2071.18 90.5284 2069.48 89.0884L2066.25 93.0244C2068.71 95.2964 2072.04 96.4484 2075.14 96.4484Z" fill="#ECEFFF"/>
<path d="M2092.05 96.0004H2097.78V76.9284H2104.24V72.1924H2085.62V76.9284H2092.05V96.0004Z" fill="#ECEFFF"/>
<path d="M2111.72 86.1124L2112.23 84.0964C2112.84 81.7284 2113.48 78.9444 2114.06 76.4484H2114.18C2114.82 78.8804 2115.43 81.7284 2116.07 84.0964L2116.58 86.1124H2111.72ZM2119.05 96.0004H2125.06L2117.67 72.1924H2110.82L2103.43 96.0004H2109.26L2110.63 90.5284H2117.67L2119.05 96.0004Z" fill="#ECEFFF"/>
<path d="M2137.91 96.4484C2141.24 96.4484 2144.18 95.1364 2145.85 93.5364V82.4004H2136.98V87.0724H2140.76V90.9124C2140.25 91.2964 2139.35 91.5204 2138.49 91.5204C2134.07 91.5204 2131.96 88.7684 2131.96 84.0324C2131.96 79.3924 2134.49 76.6404 2138.01 76.6404C2139.99 76.6404 2141.24 77.4404 2142.39 78.4964L2145.43 74.8484C2143.8 73.2164 2141.3 71.7444 2137.81 71.7444C2131.45 71.7444 2126.1 76.2884 2126.1 84.2244C2126.1 92.2884 2131.29 96.4484 2137.91 96.4484Z" fill="#ECEFFF"/>
<path d="M2150.66 96.0004H2166.11V91.2004H2156.39V86.1444H2164.35V81.3444H2156.39V76.9284H2165.76V72.1924H2150.66V96.0004Z" fill="#ECEFFF"/>
</svg>
