<svg width="95" height="25" viewBox="0 0 95 25" fill="none" xmlns="http://www.w3.org/2000/svg">
<path d="M20.2472 4.29324L12.2585 1.03027L4.29324 4.3745L1.03027 12.3687L4.37588 20.3271L12.3646 23.59L20.3285 20.2472C20.3794 20.1205 23.5391 12.3811 23.5914 12.2585L20.2472 4.29324ZM11.209 21.2348L10.5657 21.2499L11.0781 20.8601L10.8646 20.2472L11.3921 20.6136L11.9045 20.2252L11.7186 20.8408L12.2475 21.2113L11.6043 21.2251L11.4183 21.8408L11.209 21.2348ZM12.534 22.3546L12.3494 22.9689L12.1373 22.3628L11.4941 22.3766L12.0064 21.9868L11.7957 21.3808L12.3232 21.7471L12.8356 21.3573L12.6497 21.9744L13.1772 22.3408L12.534 22.3546ZM13.4141 21.1866L13.2227 21.8022L13.0105 21.1962L12.3673 21.2086L12.8797 20.8202L12.6717 20.2128L13.1992 20.5805L13.7116 20.1907L13.5257 20.8064L14.0546 21.1728L13.4141 21.1866ZM19.834 19.7527L4.86897 19.834L1.73273 12.3646L4.79184 4.86897L12.2585 1.73273L19.7541 4.79184L22.889 12.2585L19.834 19.7527Z" fill="white"/>
<path d="M20.9703 3.56047L12.2475 0L3.56047 3.65L0 12.3742L3.65 21.0598L12.3728 24.6203L21.0598 20.9703L24.6217 12.2475L20.9703 3.56047ZM20.5901 20.502L12.3701 23.966L4.11555 20.5888L0.66251 12.3701L4.03153 4.11555L12.2585 0.66251L20.513 4.03153L23.9661 12.2502L20.5901 20.502Z" fill="white"/>
<path fill-rule="evenodd" clip-rule="evenodd" d="M8.42666 6.9719C8.62224 7.06556 7.99141 7.18815 7.90051 7.34104C8.85864 6.87525 9.88797 6.57311 10.9458 6.44713C12.1221 6.32317 13.4251 6.37413 14.4085 6.03392C14.6041 5.96643 14.7474 5.8039 14.9347 5.77085C15.3768 5.69371 15.6413 5.89619 15.9842 5.87553C16.3671 5.85211 16.6839 5.57526 17.0861 5.56149C18.8271 5.50088 18.7596 6.88926 19.3959 7.97462C19.5337 8.21428 19.7334 8.27489 19.8684 8.50077C20.2196 9.08615 20.0901 9.7404 20.1315 10.5475C20.1728 11.3547 20.4593 12.3161 20.4978 13.1645C20.5226 13.681 20.4538 14.1287 20.7086 14.4248C20.6108 14.4758 20.5323 14.2678 20.4978 14.4248C20.3381 15.4027 19.8739 16.5445 18.9827 16.787C17.9993 17.0514 17.1274 16.4027 17.0407 15.579C16.9139 14.3849 18.2803 14.2898 19.1935 14.0047V12.6948C18.918 12.5144 18.9332 13.0116 18.6687 13.0089C18.6852 12.7238 18.6935 12.1494 18.2996 12.1163C17.8147 12.2541 17.1798 12.3629 16.6729 12.1163C16.5352 12.8395 16.0559 13.4124 16.0435 14.1108C16.0324 14.7512 16.6853 15.7415 17.1453 16.3682C17.6963 17.1148 18.0627 17.6671 18.2472 18.572C18.3436 19.0486 19.1315 19.4604 19.1384 19.9893H5.22705C5.52318 19.1629 5.54109 18.061 5.80416 17.2084C5.26975 16.7608 5.89369 16.2705 5.80416 15.5804C5.66643 14.5005 5.22705 13.3146 5.22705 12.1163C5.22705 10.3712 5.77799 8.77073 6.80137 8.07517C6.72837 8.17709 6.61267 8.23632 6.59064 8.39058C6.9639 8.16745 7.14158 7.7446 7.5355 7.55039C7.27381 7.47326 7.04241 8.12613 6.74903 8.02283C7.14571 7.5256 7.98866 7.10137 8.42666 6.9719ZM5.85375 10.0696C5.96256 10.0159 5.8813 10.5999 5.90609 10.8051C5.92399 11.0613 5.99011 10.7541 5.95843 10.6467V10.2335C5.96532 9.9167 6.30415 9.40707 6.11682 9.23628C6.12647 9.50349 5.84411 9.88226 5.85375 10.0696ZM12.6717 18.6244C12.8328 17.2911 13.4155 15.9702 13.6689 14.7416C13.5188 14.6286 13.5311 14.3518 13.3548 14.2678C13.2323 14.4826 12.9706 14.3959 12.7254 14.4785C12.1868 14.6589 11.6084 15.0942 11.1497 15.1672C10.8246 15.214 10.4762 15.0198 10.2048 15.3242C10.4293 17.0252 10.6594 18.7194 11.4128 19.8902C11.826 19.8902 11.9802 19.9411 12.3576 19.8902C12.5918 19.5017 12.6152 19.145 12.6717 18.6244ZM18.8698 15.214C18.7748 14.5019 17.3946 14.7636 17.8202 15.7374C18.3657 16.0515 18.9318 15.6741 18.8698 15.214ZM15.9305 19.937C15.9815 19.7276 15.7735 19.7786 15.8258 19.5692C17.115 18.6974 15.611 17.393 14.9333 16.893C14.3025 17.8172 13.8369 20.2979 15.9319 19.937H15.9305ZM8.5823 19.937C8.625 19.3309 9.05473 18.9425 8.95005 18.3627C8.85502 17.8448 8.29994 17.455 8.1622 16.9977C7.65671 17.8186 6.74903 19.8998 8.58368 19.937H8.5823Z" fill="white"/>
<path d="M33.3403 15.5343L31.6241 15.829C31.4247 15.54 31.2907 15.211 31.2316 14.8649C30.8032 15.515 30.0429 15.829 29.2468 15.829C28.2165 15.829 26.9053 15.3139 26.9053 13.4875C26.9053 11.6611 27.9355 11.1832 30.9905 11.062V10.7865C30.9905 10.2232 30.9037 9.91601 29.9479 9.91601C29.2406 9.93775 28.5448 10.1002 27.9011 10.394L27.4879 8.71495C28.3511 8.39446 29.264 8.22847 30.1848 8.22461C32.1337 8.22461 32.9174 8.93533 32.9174 10.7741V13.4462C32.9106 14.4076 33.0469 15.1513 33.3403 15.5343ZM28.817 13.4393C28.817 14.0274 29.2592 14.1748 29.6875 14.1748C30.3005 14.1748 30.901 13.7093 30.9878 13.1445V12.5578C29.3377 12.6432 28.817 12.741 28.817 13.4393Z" fill="white"/>
<path d="M36.7838 7.76374H34.7246V6.03516H36.7838V7.76374ZM36.7838 15.6698H34.7246V8.46206H36.7838V15.6698Z" fill="white"/>
<path d="M42.508 8.3149C43.7091 8.3149 44.1499 8.79285 44.395 9.1C44.9225 8.65787 45.8288 8.3149 46.6993 8.3149C48.7819 8.3149 49.1263 9.65094 49.1263 10.6316V15.67H47.1057V11.1702C47.1057 10.4112 46.7503 9.98151 46.0272 9.98151C45.5767 10.0002 45.1433 10.1591 44.7876 10.436C44.8586 10.8197 44.8872 11.21 44.873 11.5999V15.67H42.8882V11.1564C42.8882 10.3465 42.5452 9.97875 41.7973 9.97875C41.442 9.97875 40.9144 10.1757 40.6817 10.4815V15.6672H38.6225V10.1578C38.6362 9.62209 38.583 9.08675 38.4641 8.56421L40.3387 8.30664C40.4457 8.56402 40.5278 8.83107 40.5839 9.10413C40.9392 8.71985 41.7229 8.3149 42.508 8.3149Z" fill="white"/>
<path d="M50.6345 10.1789V8.58534H51.7488V8.36496C51.7488 7.35949 52.3259 5.69288 54.5035 5.69288C54.9761 5.68732 55.4481 5.72838 55.9126 5.81547L55.6371 7.4683C55.3561 7.40087 55.0679 7.36802 54.779 7.3705C53.9705 7.3705 53.7253 7.86084 53.7253 8.43658V8.58396H55.0738V10.1789H53.7253V15.6705H51.7488V10.1789H50.6345Z" fill="white"/>
<path d="M62.1907 15.5336L60.4759 15.8284C60.2754 15.54 60.1413 15.2107 60.0834 14.8642C59.655 15.5143 58.8947 15.8284 58.0986 15.8284C57.0683 15.8284 55.7571 15.3133 55.7571 13.4869C55.7571 11.6605 56.7873 11.1826 59.8382 11.0613V10.7859C59.8382 10.2225 59.7528 9.91538 58.7969 9.91538C58.0884 9.9385 57.3916 10.1029 56.7474 10.3988L56.3342 8.71983C57.1974 8.39934 58.1103 8.23336 59.0311 8.22949C60.98 8.22949 61.7637 8.94021 61.7637 10.779V13.4511C61.7624 14.4069 61.8973 15.1507 62.1907 15.5336ZM57.6689 13.4387C57.6689 14.0268 58.111 14.1742 58.5393 14.1742C59.1523 14.1742 59.7528 13.7086 59.8382 13.1439V12.5572C58.184 12.6426 57.6689 12.7403 57.6689 13.4387Z" fill="white"/>
<path d="M63.2455 12.1033C63.2455 10.215 63.9686 8.25499 66.9713 8.25499C67.545 8.25148 68.1157 8.33793 68.6627 8.51117L68.2949 10.215C67.8874 10.0623 67.456 9.98345 67.0208 9.98219C65.857 9.98219 65.317 10.7301 65.317 12.1033C65.317 13.4766 65.9534 14.1377 67.069 14.1377C67.5291 14.1318 67.9848 14.0489 68.4175 13.8925L68.693 15.6211C68.1266 15.8024 67.5356 15.8953 66.941 15.8966C64.0375 15.8966 63.24 14.033 63.24 12.1212L63.2455 12.1033Z" fill="white"/>
<path d="M73.3196 14.1501V15.7023L72.4739 15.7395C71.1626 15.8001 70.2549 15.2988 70.2549 13.9875V10.1791H69.2026V8.58552H70.2549V7.0539L72.2659 6.52637V8.58552H73.5895V10.1791H72.2659V13.1446C72.2659 13.8925 72.3761 14.1501 72.8788 14.1501H73.3196Z" fill="white"/>
<path d="M81.7159 12.0177C81.7159 13.7697 80.9432 15.9638 78.099 15.9638C75.2547 15.9638 74.4834 13.7738 74.4834 12.0053C74.4834 10.3125 75.2561 8.16797 78.099 8.16797C80.9418 8.16797 81.7159 10.3125 81.7159 12.0053V12.0177ZM78.1127 14.2352C78.9942 14.2352 79.6196 13.6223 79.6196 11.9805C79.6196 10.3883 78.9942 9.84697 78.1045 9.84697C77.2147 9.84697 76.5811 10.3883 76.5811 11.9833C76.5811 13.6251 77.194 14.238 78.0962 14.238L78.1127 14.2352Z" fill="white"/>
<path d="M87.3246 8.36426L87.231 10.192C86.4707 10.192 85.5644 10.3628 85.2944 10.9523V15.6712H83.2284V10.1617C83.2423 9.62591 83.1887 9.09048 83.0686 8.56811L84.9432 8.31055C85.057 8.60883 85.1437 8.91677 85.2021 9.23062C85.5148 8.80502 86.3605 8.36426 87.3246 8.36426Z" fill="white"/>
<path d="M92.3286 8.46289H94.5833C94.0448 10.1791 92.8547 13.807 92.2198 15.4489C91.6798 16.8469 91.1523 17.8882 90.6014 18.6168L88.5904 17.7353C89.1551 17.1582 89.7433 16.2505 90.2584 15.0742L87.5615 8.46289H89.8411L91.2749 12.8704C91.5944 11.7479 92.071 9.74934 92.3286 8.46289Z" fill="white"/>
</svg>
