<svg width="2259" height="128" viewBox="0 0 2259 128" fill="none" xmlns="http://www.w3.org/2000/svg">
<path d="M82.6241 40.5604C81.7281 39.0244 79.7121 36.9764 78.048 35.5364L74.5601 37.9044C76.2241 39.4404 78.1441 41.6484 78.8801 43.1524L82.6241 40.5604ZM77.7601 48.7524C77.0881 50.0004 76.2561 51.1844 75.3601 52.2724C75.0721 50.9284 74.8481 49.4564 74.6241 47.9204H82.5921V43.5364H74.1761C73.9521 40.6884 73.8561 37.7444 73.9201 34.8964H69.0561C69.0561 37.7124 69.184 40.6564 69.4081 43.5364H63.808V39.9204C65.632 39.5684 67.4241 39.1844 69.0561 38.7044L65.92 34.7364C62.528 35.8244 57.632 36.7844 53.12 37.3284C53.632 38.3524 54.24 40.1124 54.432 41.2324C55.936 41.1044 57.504 40.9124 59.104 40.6884V43.5364H53.472V47.9204H59.104V51.4724C56.736 51.8564 54.528 52.1444 52.8 52.3684L53.888 57.0724L59.104 56.1124V59.6964C59.104 60.2084 58.912 60.3684 58.336 60.3684C57.76 60.4004 55.904 60.4004 54.24 60.3044C54.912 61.5844 55.68 63.6964 55.872 65.0084C58.464 65.0084 60.48 64.8484 61.92 64.1124C63.36 63.3764 63.808 62.1284 63.808 59.7604V55.2164C65.44 54.8964 67.104 54.5764 68.736 54.2564L68.416 50.0324L63.808 50.7684V47.9204H69.8241C70.1761 50.8964 70.6881 53.6804 71.3601 56.1444C69.184 57.8404 66.816 59.2484 64.384 60.3364C65.536 61.3924 66.816 62.9604 67.488 64.1124C69.376 63.0884 71.2001 61.9364 72.9281 60.6244C74.2721 63.4404 76.0321 65.1684 78.2401 65.1684C81.4401 65.1684 82.8481 63.8564 83.5521 58.0004C82.3361 57.4884 80.7681 56.4004 79.7761 55.3124C79.6161 58.9284 79.2641 60.4324 78.7201 60.4324C78.048 60.4324 77.312 59.2804 76.6401 57.3604C78.6241 55.3444 80.4161 53.0724 81.8561 50.5124L77.7601 48.7524Z" fill="#ECEFFF"/>
<path d="M108.832 42.0004L107.968 42.1924H99.424C100.096 40.5924 100.704 38.9924 101.216 37.4244L96.064 36.2724C94.528 41.9684 91.072 49.3284 86.272 53.5204C87.584 54.0964 89.664 55.2804 90.752 56.0804C93.28 53.6804 95.456 50.3844 97.28 46.8324H105.536C104.576 49.0084 103.264 51.3764 101.824 53.4884C100.256 52.7204 98.688 52.0164 97.28 51.4404L94.432 55.3444C98.72 57.2644 104.064 60.4964 106.432 63.0244L109.632 58.5444C108.768 57.7124 107.552 56.8164 106.176 55.9524C108.736 52.2084 111.104 47.6964 112.384 43.9204L108.832 42.0004Z" fill="#ECEFFF"/>
<path d="M120.352 36.7844C120.32 37.9684 120.128 39.4084 120 40.3684C119.648 42.7044 118.752 48.6564 118.752 53.5204C118.752 57.8084 119.392 61.5204 120.064 63.6644L124.384 63.3764C124.352 62.8644 124.352 62.2884 124.352 61.9364C124.352 61.6164 124.448 60.8804 124.544 60.4324C124.928 58.6084 125.888 55.4084 126.848 52.5604L124.512 50.7044C124.096 51.6324 123.712 52.2404 123.328 53.1684C123.296 53.0404 123.296 52.5284 123.296 52.4324C123.296 49.4884 124.384 42.0964 124.768 40.4644C124.896 39.8884 125.344 37.9364 125.632 37.2324L120.352 36.7844ZM136.256 56.4644C136.256 58.1924 135.648 59.0244 134.112 59.0244C132.768 59.0244 131.648 58.6404 131.648 57.5204C131.648 56.5284 132.64 55.9524 134.112 55.9524C134.848 55.9524 135.552 56.0484 136.256 56.2404V56.4644ZM147.072 57.5844C145.664 56.2724 143.712 54.6084 140.992 53.4884C140.896 51.6324 140.736 49.3604 140.672 46.4804C142.336 46.3524 143.904 46.1604 145.312 45.9684V41.2004C143.872 41.4884 142.304 41.7444 140.704 41.9044C140.736 40.5924 140.768 39.5364 140.8 38.9284C140.832 38.2244 140.896 37.4244 140.992 36.8164H135.52C135.648 37.4884 135.776 38.5124 135.776 38.9924C135.808 39.5684 135.808 40.7524 135.84 42.2244C135.232 42.2564 134.656 42.2564 134.048 42.2564C132.128 42.2564 130.24 42.1604 128.384 41.9684L128.416 46.5444C130.304 46.6724 132.192 46.7364 134.08 46.7364C134.656 46.7364 135.264 46.7364 135.872 46.7044C135.904 48.6884 136 50.6404 136.096 52.3044C135.584 52.2724 135.04 52.2404 134.496 52.2404C130.08 52.2404 127.168 54.5124 127.168 58.0644C127.168 61.6484 130.112 63.5684 134.56 63.5684C138.72 63.5684 140.672 61.7124 141.088 58.7364C142.176 59.5364 143.296 60.4964 144.48 61.6164L147.072 57.5844Z" fill="#ECEFFF"/>
<path d="M178.528 44.1444C176.832 42.9604 172.736 40.7844 170.464 39.7924L168 43.6004C170.208 44.5604 173.92 46.7044 175.808 48.1764L178.528 44.1444ZM166.304 39.2164C165.248 39.5364 163.904 39.8564 162.432 40.1444C162.88 38.5444 163.232 37.1044 163.456 36.1124L158.208 35.6004C158.144 37.2324 157.856 39.0564 157.408 40.7844C156.576 40.8484 155.776 40.8804 154.944 40.8804C153.888 40.8804 152 40.8164 150.528 40.6564L150.88 45.0724C152.352 45.1684 153.632 45.2004 154.976 45.2004C155.296 45.2004 155.648 45.2004 156 45.1684C154.624 48.4644 152.192 52.9124 149.696 56.0164L154.336 58.3524C156.896 54.6724 159.584 49.1684 161.056 44.7204C163.2 44.4004 165.12 43.9844 166.432 43.6324L166.304 39.2164ZM166.56 56.8484C166.56 58.6084 165.984 59.7284 164.096 59.7284C162.752 59.7284 161.888 59.0244 161.888 58.0004C161.888 57.1044 162.848 56.4644 164.416 56.4644C165.152 56.4644 165.888 56.5604 166.56 56.6884V56.8484ZM166.048 46.0324C166.144 47.8244 166.272 50.4164 166.4 52.6884C165.856 52.6244 165.312 52.5924 164.736 52.5924C159.84 52.5924 157.344 55.3124 157.344 58.4804C157.344 62.1604 160.608 64.1124 164.8 64.1124C169.472 64.1124 171.136 61.8404 171.232 58.8004C172.8 59.8884 174.08 61.1044 175.072 62.0324L177.6 57.9044C176.032 56.4324 173.792 54.8324 171.04 53.7764C170.976 52.4644 170.912 51.2164 170.88 50.4804C170.848 48.9124 170.784 47.4084 170.88 46.0324H166.048Z" fill="#ECEFFF"/>
<path d="M203.968 43.1524L204.032 40.2724C204.064 39.6964 204.096 38.8964 204.16 38.2564C204.768 39.6004 205.216 41.2004 205.664 42.5764L208.224 41.7444C207.904 40.5284 207.264 38.7364 206.656 37.4244L204.16 38.2244C204.192 37.8084 204.224 37.4884 204.256 37.2964H199.104C199.2 37.9364 199.36 39.6324 199.36 40.4964V43.5364C196.768 43.7604 194.016 44.0164 191.552 44.2404C191.584 43.2804 191.584 42.4484 191.584 41.9044C191.584 40.3684 191.648 39.4404 191.808 38.2244H186.4C186.56 39.4084 186.688 40.6884 186.688 42.1924V44.7204L184.928 44.8804C183.072 45.0404 181.44 45.1044 180.608 45.1044L181.088 49.9684C181.92 49.8404 184.224 49.4884 185.248 49.3604L186.688 49.2004C186.688 52.0484 186.688 54.9604 186.72 56.3044C186.848 62.0324 188 63.7924 196.704 63.7924C199.616 63.7924 203.488 63.5364 205.632 63.2804L205.824 58.0004C203.296 58.4804 199.232 58.8644 196.32 58.8644C191.968 58.8644 191.584 58.4484 191.52 55.5044C191.488 54.0964 191.488 51.3764 191.52 48.6884C193.984 48.4324 196.736 48.1764 199.296 47.9524C199.264 49.1684 199.2 50.2564 199.104 51.0244C199.04 51.5684 198.784 51.6644 198.24 51.6644C197.664 51.6644 196.384 51.4724 195.456 51.3124L195.36 55.5044C196.608 55.6964 199.36 56.0164 200.448 56.0164C202.176 56.0164 203.04 55.6004 203.392 53.7764C203.648 52.4964 203.776 50.0644 203.84 47.6004C204.544 47.5684 205.152 47.5364 205.696 47.5044C206.56 47.4724 208.48 47.4084 209.088 47.4404V42.7684C208.032 42.8644 206.592 42.9604 205.728 43.0244L203.968 43.1524ZM207.488 37.0724C208.128 38.3844 208.672 40.0164 209.12 41.3924L211.648 40.5924C211.296 39.4084 210.624 37.5844 210.016 36.2724L207.488 37.0724Z" fill="#ECEFFF"/>
<path d="M242.464 43.2484V38.8004H227.424C227.808 37.8084 228.128 36.7844 228.448 35.7924L223.488 34.6084C223.136 35.9844 222.72 37.3924 222.176 38.8004H213.632V43.2484H220.16C218.272 46.7684 215.68 49.9044 212.448 51.9524C213.184 53.1364 214.24 55.2804 214.72 56.5924C215.552 56.0484 216.32 55.4724 217.056 54.8324V65.0084H221.76V49.7764C223.232 47.7284 224.512 45.5524 225.6 43.2484H242.464ZM242.848 53.0404H235.808V52.6244C237.792 50.9924 239.744 48.9444 241.312 47.1844L238.432 44.8484L237.472 45.1044H225.76V49.2644H233.792C233.344 49.7444 232.896 50.1924 232.448 50.5764H231.104V53.0404H223.392V57.3604H231.104V60.1444C231.104 60.5284 230.944 60.6244 230.432 60.6564C229.952 60.6564 228.064 60.6564 226.752 60.5604C227.296 61.8404 227.84 63.6964 228 65.0404C230.464 65.0404 232.416 65.0084 233.92 64.3364C235.456 63.6644 235.808 62.4804 235.808 60.2724V57.3604H242.848V53.0404Z" fill="#ECEFFF"/>
<path d="M267.2 53.5844H273.088V49.2964H267.2V44.4644H262.496V49.2964H256.352V53.5844H262.496V59.9204H255.136V64.2084H274.304V59.9204H267.2V53.5844ZM259.328 38.8004C259.68 37.7764 260.032 36.7844 260.352 35.7604L255.488 34.6084C255.136 35.9844 254.72 37.3924 254.176 38.8004H245.632V43.2484H252.128C250.24 46.7044 247.68 49.8084 244.48 51.8244C245.184 52.9764 246.208 55.0564 246.688 56.3684C247.52 55.8244 248.32 55.2164 249.056 54.5764V65.0084H253.76V49.4884C255.2 47.5364 256.416 45.4244 257.44 43.2484H274.464V38.8004H259.328Z" fill="#ECEFFF"/>
<path d="M58.304 74.4004C58.624 75.8404 58.784 77.5684 58.784 79.2644C58.784 81.6644 58.496 90.1444 58.496 94.1444C58.496 99.6804 61.952 102.176 67.488 102.176C74.88 102.176 79.5841 97.8244 81.5681 94.7844L78.0801 90.4964C75.7761 94.0484 72.4481 96.9284 67.52 96.9284C65.376 96.9284 63.616 95.9684 63.616 92.9284C63.616 89.4404 63.84 82.5924 64 79.2644C64.064 77.8884 64.256 75.9684 64.48 74.4644L58.304 74.4004Z" fill="#ECEFFF"/>
<path d="M85.2073 77.6324L85.6873 82.8484C89.4953 82.0164 95.0633 81.3764 97.7833 81.0884C96.0873 82.6244 93.7833 85.9844 93.7833 90.3364C93.7833 97.0884 99.8313 100.928 106.903 101.472L108.695 96.1284C103.223 95.8084 98.8393 93.9844 98.8393 89.3124C98.8393 85.5684 101.783 81.8564 105.207 81.0884C106.967 80.7364 109.655 80.7364 111.287 80.7044L111.255 75.7764C108.951 75.8724 105.207 76.0644 102.039 76.3204C96.2473 76.8324 91.4473 77.2164 88.4713 77.4724C87.8633 77.5364 86.4873 77.6004 85.2073 77.6324Z" fill="#ECEFFF"/>
<path d="M124.055 76.8964L118.167 76.8324C118.391 77.9524 118.455 79.2964 118.455 80.2564C118.455 82.2724 118.487 85.8884 118.807 88.8964C119.703 97.5684 122.807 100.768 126.551 100.768C129.335 100.768 131.351 98.7844 133.559 93.1844L129.687 88.4484C129.239 90.5924 128.119 94.5604 126.647 94.5604C124.823 94.5604 124.183 91.6484 123.799 87.4884C123.607 85.3764 123.607 83.2964 123.607 81.2164C123.607 80.2884 123.799 78.2404 124.055 76.8964ZM139.543 77.5044L134.647 79.1044C138.359 83.1364 139.895 91.2324 140.343 96.0004L145.431 94.0484C145.175 89.4724 142.647 81.1524 139.543 77.5044Z" fill="#ECEFFF"/>
<path d="M162.615 97.5684C161.015 97.5684 159.959 96.8644 159.959 95.8724C159.959 95.2324 160.567 94.6244 161.591 94.6244C162.935 94.6244 163.895 95.7444 164.055 97.5044C163.607 97.5364 163.127 97.5684 162.615 97.5684ZM169.815 74.8164C169.399 74.9444 168.503 75.0724 166.999 75.2004C165.111 75.3604 158.775 75.4564 157.079 75.4564C156.023 75.4564 154.839 75.3924 153.847 75.2644L154.007 80.2244C154.775 80.0964 155.895 80.0004 156.855 79.9364C158.551 79.8084 161.815 79.6804 163.415 79.6484C161.879 81.0244 158.935 83.2964 157.175 84.7684C155.287 86.3044 151.607 89.4404 149.559 91.0404L153.047 94.6564C156.087 90.9444 159.415 88.1604 164.055 88.1604C167.543 88.1604 170.327 89.8564 170.327 92.5764C170.327 94.1124 169.719 95.3604 168.471 96.2244C167.927 93.2164 165.431 90.9764 161.559 90.9764C157.975 90.9764 155.415 93.5684 155.415 96.3524C155.415 99.8404 159.127 101.92 163.607 101.92C171.799 101.92 175.383 97.6004 175.383 92.6404C175.383 87.8724 171.095 84.3844 165.655 84.3844C164.887 84.3844 164.279 84.4164 163.447 84.5764C165.175 83.2324 167.959 80.9604 169.751 79.7444C170.551 79.2004 171.351 78.7204 172.183 78.2084L169.815 74.8164Z" fill="#ECEFFF"/>
<path d="M191.159 87.9044C190.039 91.5844 189.079 93.5044 187.799 93.5044C186.711 93.5044 185.751 92.0644 185.751 89.3124C185.751 86.2724 188.087 82.0164 192.791 80.7364C192.407 83.2324 191.863 85.7604 191.159 87.9044ZM196.727 101.6C204.983 100.224 208.919 95.3284 208.919 88.6724C208.919 81.4724 203.799 75.9044 195.735 75.9044C187.255 75.9044 180.759 82.3044 180.759 89.8244C180.759 95.2324 183.767 99.4884 187.671 99.4884C191.415 99.4884 194.263 95.2324 196.151 88.8964C197.015 85.9844 197.591 83.2004 198.007 80.6404C201.655 81.5044 203.639 84.4164 203.639 88.5124C203.639 92.6724 200.951 95.4884 196.919 96.4804C196.023 96.7044 195.159 96.8964 193.815 97.0564L196.727 101.6Z" fill="#ECEFFF"/>
<path d="M220.535 74.0484C220.599 76.0004 220.375 78.2084 219.927 80.6724C218.519 80.7684 217.207 80.8644 216.279 80.8964C215.031 80.9284 213.815 80.9924 212.599 80.8964L213.015 86.0484C214.071 85.8564 215.895 85.6004 216.919 85.4724C217.367 85.4084 218.071 85.3124 218.903 85.1844C217.719 89.5044 215.671 95.4244 212.663 99.4884L217.687 101.504C220.375 97.1524 222.743 89.5364 224.023 84.6084C224.599 84.5764 225.143 84.5444 225.495 84.5444C227.479 84.5444 228.439 84.8324 228.439 87.1364C228.439 90.0804 228.055 93.6964 227.255 95.2644C226.839 96.1284 226.103 96.4804 225.111 96.4804C224.311 96.4804 222.391 96.1284 221.239 95.8084L222.071 100.864C223.191 101.12 224.695 101.312 225.911 101.312C228.503 101.312 230.359 100.512 231.447 98.2404C232.791 95.4244 233.207 90.3364 233.207 86.6244C233.207 81.8884 230.807 80.1604 227.159 80.1604C226.583 80.1604 225.847 80.1924 225.015 80.2564C225.207 79.4244 225.399 78.5604 225.559 77.6964C225.751 76.8004 226.007 75.6164 226.231 74.6564L220.535 74.0484ZM232.535 79.2964C234.839 82.2404 236.951 88.0324 237.719 91.7124L242.615 89.4404C241.687 86.3684 239.095 80.2244 237.175 77.3764L232.535 79.2964Z" fill="#ECEFFF"/>
<path d="M625.752 58.0002H631.48V34.1922H625.752V58.0002Z" fill="#ECEFFF"/>
<path d="M641.547 58.0002H647.275V38.9282H653.739V34.1922H635.115V38.9282H641.547V58.0002Z" fill="#ECEFFF"/>
<path d="M666.784 45.9042C665.664 49.5842 664.704 51.5042 663.424 51.5042C662.336 51.5042 661.376 50.0642 661.376 47.3122C661.376 44.2722 663.712 40.0162 668.416 38.7362C668.032 41.2322 667.488 43.7602 666.784 45.9042ZM672.352 59.6002C680.608 58.2242 684.544 53.3282 684.544 46.6722C684.544 39.4722 679.424 33.9042 671.36 33.9042C662.88 33.9042 656.384 40.3042 656.384 47.8242C656.384 53.2322 659.392 57.4882 663.296 57.4882C667.04 57.4882 669.888 53.2322 671.776 46.8962C672.64 43.9842 673.216 41.2002 673.632 38.6402C677.28 39.5042 679.264 42.4162 679.264 46.5122C679.264 50.6722 676.576 53.4882 672.544 54.4802C671.648 54.7042 670.784 54.8962 669.44 55.0562L672.352 59.6002Z" fill="#ECEFFF"/>
<path d="M706.048 53.2322H708.896V55.5682H706.048V53.2322ZM708.896 40.9442V43.0562H706.048V40.9442H708.896ZM708.896 49.2322H706.048V47.0562H708.896V49.2322ZM693.728 44.2402C694.112 43.7602 694.496 43.2482 694.88 42.7362C695.104 43.1842 695.296 43.6322 695.52 44.1122L693.728 44.2402ZM717.952 55.5682H713.024V53.2322H716.736V49.2322H713.024V47.0562H716.64V43.0562H713.024V40.9442H717.568V36.8482H713.44C714.208 35.4082 715.04 33.7122 715.808 32.0482L710.976 31.0242C710.56 32.7842 709.728 35.0562 708.928 36.8482H705.856C706.688 35.1522 707.424 33.4242 708.064 31.7922L703.648 30.5762C702.624 33.9682 700.48 38.4162 698.016 41.2322L697.92 41.0722L695.328 42.1602C696.768 40.2082 698.208 38.1282 699.456 36.2402L695.712 34.5442C695.008 36.0162 694.08 37.7122 693.088 39.3762C692.896 39.1202 692.704 38.8642 692.48 38.6082C693.6 36.8162 694.912 34.3202 696.096 32.0482L692.096 30.6722C691.616 32.2722 690.848 34.2562 690.048 35.9842L689.472 35.4402L687.232 38.6082C688.448 39.8882 689.856 41.5522 690.72 42.9922C690.336 43.5042 689.984 44.0162 689.632 44.4962L687.232 44.6242L687.712 48.5922L691.872 48.2402V50.3522L688.288 49.7442C688.096 52.4002 687.68 55.2802 686.848 57.1362C687.744 57.4882 689.408 58.2242 690.176 58.7362C690.944 56.8802 691.552 54.0962 691.872 51.3122V61.0402H695.84V50.9602C696.48 52.8482 697.056 55.1522 697.184 56.7202L700.64 55.5682C700.448 53.9362 699.776 51.4722 698.976 49.6162L695.84 50.5762V47.9202L696.832 47.8242C696.992 48.4642 697.152 49.0402 697.216 49.5522L700.672 48.0162C700.384 46.5442 699.616 44.4962 698.72 42.6082C699.424 43.3442 700.16 44.1762 700.608 44.7842C700.992 44.3682 701.376 43.9202 701.76 43.4402V61.0402H706.048V59.6322H717.952V55.5682Z" fill="#ECEFFF"/>
<path d="M729.504 44.0482L727.328 44.5922V40.7522H729.696V36.4962H727.328V30.6722H723.072V36.4962H719.744V40.7522H723.072V45.6162C721.632 45.9362 720.32 46.2242 719.2 46.4482L720.16 50.8962L723.072 50.1282V55.9842C723.072 56.4002 722.944 56.5282 722.56 56.5282C722.176 56.5282 721.12 56.5282 720.096 56.4642C720.64 57.7122 721.152 59.6322 721.248 60.7842C723.328 60.8162 724.832 60.6242 725.92 59.9202C727.008 59.1842 727.328 58.0322 727.328 56.0162V48.9762C728.256 48.7202 729.184 48.4642 730.08 48.2082L729.504 44.0482ZM749.888 44.4962V40.2722H742.24V38.1922H748.512V34.0002H742.24V30.7682H737.824V34.0002H731.392V38.1922H737.824V40.2722H730.176V44.4962H741.92V46.4482H730.432V50.6402H735.008L731.808 52.4002C733.088 54.1282 734.56 56.4962 735.072 58.0322L739.072 55.7602C738.432 54.2882 737.024 52.2082 735.744 50.6402H741.92V56.2722C741.92 56.6882 741.76 56.7842 741.312 56.7842C740.832 56.8162 739.136 56.8162 737.888 56.7202C738.432 57.9362 739.008 59.7922 739.168 61.0722C741.472 61.0722 743.232 61.0082 744.576 60.3362C745.952 59.6642 746.336 58.5442 746.336 56.3682V50.6402H749.632V46.4482H746.336V44.4962H749.888Z" fill="#ECEFFF"/>
<path d="M762.176 45.8402C762.176 48.3042 764.192 50.3202 766.656 50.3202C769.12 50.3202 771.136 48.3042 771.136 45.8402C771.136 43.3762 769.12 41.3602 766.656 41.3602C764.192 41.3602 762.176 43.3762 762.176 45.8402Z" fill="#ECEFFF"/>
<path d="M640.408 86.5602H637.336V83.5842H640.408V86.5602ZM647.704 83.5842V82.6882C648.792 83.5202 650.008 84.2562 651.288 84.8642C651.992 83.6162 653.432 81.7602 654.52 80.8322C652.92 80.1922 651.448 79.3282 650.104 78.3362C651.352 77.4402 652.696 76.3522 653.912 75.2642L650.52 72.8962C649.72 73.8242 648.568 74.9762 647.48 75.9362C647.096 75.5522 646.744 75.1362 646.424 74.7202C647.608 73.8562 648.92 72.7682 650.168 71.6802L646.68 69.2482C646.104 69.9842 645.272 70.8802 644.44 71.6802C643.896 70.7202 643.448 69.6962 643.064 68.6402L638.872 69.8242C640.184 73.4082 641.88 76.5762 644.088 79.2002H634.136C636.12 76.9282 637.656 74.2082 638.68 71.0402L635.576 69.6322L634.776 69.7922H626.808V73.7602H632.504C632.056 74.4962 631.576 75.2002 631.032 75.8722C630.232 75.2002 629.208 74.4642 628.44 73.9202L625.528 76.3202C626.392 77.0242 627.512 77.9522 628.28 78.6882C626.84 79.8722 625.272 80.8322 623.608 81.5362C624.536 82.3682 625.816 83.9682 626.424 85.0242C627.832 84.3522 629.144 83.5522 630.392 82.6242V83.5842H632.728V86.5602H626.168V90.8162H631.928C631.032 92.6402 629.144 94.3042 625.272 95.4562C626.232 96.2882 627.64 98.1122 628.216 99.1682C633.976 97.2802 636.184 94.1442 636.952 90.8162H640.408V93.3442C640.408 97.4722 641.336 98.8482 645.24 98.8482H648.376C651.448 98.8482 652.632 97.4722 653.08 93.1522C651.8 92.8642 649.912 92.0962 648.92 91.3602C648.792 94.1442 648.632 94.7522 647.896 94.7522H646.136C645.368 94.7522 645.272 94.5922 645.272 93.3122V90.8162H651.672V86.5602H645.272V83.5842H647.704Z" fill="#ECEFFF"/>
<path d="M670.392 90.0802H672.536C673.048 91.1682 673.592 92.1922 674.232 93.0882C672.952 93.2482 671.672 93.4082 670.392 93.5682V90.0802ZM663.64 79.1682H667.672V80.8002H664.056V84.6402H667.672V86.2082H663.352C663.576 83.8082 663.64 81.4722 663.64 79.4882V79.1682ZM679.448 73.8242V75.2642H663.64V73.8242H679.448ZM675.768 80.8002H671.928V79.1682H675.768V80.8002ZM675.768 86.2082H671.928V84.6402H675.768V86.2082ZM680.472 90.0802C679.8 90.5602 679.032 91.1042 678.264 91.5522C677.784 91.1042 677.368 90.5922 677.016 90.0802H680.472ZM682.584 90.0802H685.752V86.2082H680.088V84.6402H684.248V80.8002H680.088V79.1682H684.152V69.9202H658.936V79.4882C658.936 84.6082 658.712 91.9042 655.512 96.7682C656.696 97.2162 658.776 98.4322 659.704 99.1682C661.784 95.9362 662.776 91.4562 663.256 87.1362V90.0802H666.136V94.0802C665.016 94.2082 663.96 94.3042 663.064 94.4002L663.704 98.6242C667.032 98.1442 671.384 97.5682 675.416 96.9282L675.288 94.4002C677.272 96.6402 679.864 98.1762 683.416 99.0722C683.992 97.8882 685.208 96.1282 686.136 95.2322C684.344 94.9122 682.776 94.4322 681.432 93.7602C682.584 93.1522 683.832 92.4482 684.952 91.6802L682.584 90.0802Z" fill="#ECEFFF"/>
<path d="M707.48 91.2322C707.448 89.8242 707.384 87.6802 707.352 85.9522C709.016 85.2162 710.552 84.6082 711.768 84.1602C712.984 83.6802 714.968 82.9442 716.088 82.6242L714.2 78.2082C712.856 78.8482 711.544 79.4562 710.168 80.0642C709.048 80.5762 708.024 80.9922 706.744 81.6002C705.912 80.1282 704.376 79.3602 702.52 79.3602C701.624 79.3602 700.024 79.4882 699.384 79.6802C699.8 79.0402 700.216 78.2722 700.6 77.4402C703.992 77.3122 707.864 77.0242 710.84 76.6402L710.872 72.1922C708.216 72.6722 705.176 72.9282 702.328 73.0882C702.68 71.9042 702.904 70.9122 703.032 70.2082L697.976 69.7922C697.944 70.5922 697.784 71.8082 697.432 73.2482H696.184C694.488 73.2482 692.056 73.1202 690.488 72.8642V77.3122C692.152 77.4722 694.456 77.5362 695.768 77.5362C694.232 80.4482 691.992 83.0402 688.984 85.6962L693.08 88.7682C694.168 87.3282 695.064 86.1762 696.024 85.1842C697.112 84.1282 699.064 83.0722 700.696 83.0722C701.304 83.0722 701.944 83.2322 702.424 83.7122C698.904 85.5682 695.128 88.2242 695.128 92.3522C695.128 96.5762 698.872 97.9202 704.088 97.9202C707.224 97.9202 711.288 97.6322 713.24 97.3762L713.4 92.4162C710.616 93.0242 707 93.4082 704.184 93.4082C701.208 93.4082 700.216 92.8642 700.216 91.5202C700.216 90.2402 701.08 89.2162 703.064 88.0642C703.032 89.2482 702.968 90.4322 702.904 91.2322H707.48Z" fill="#ECEFFF"/>
<path d="M739.864 84.6722C738.648 86.6882 737.016 88.3522 735.064 89.6642C733.112 88.2882 731.576 86.6242 730.424 84.6722H739.864ZM743.288 79.9682L742.488 80.1282H737.304V77.0882H748.76V72.4802H737.304V68.6402H732.44V72.4802H721.08V77.0882H732.44V80.1282H722.712V84.6722H729.208L725.816 85.8242C727.16 88.2242 728.728 90.3042 730.552 92.0322C727.384 93.2802 723.736 94.0482 719.704 94.5282C720.6 95.5842 721.816 97.7922 722.232 99.0402C726.84 98.3042 731.096 97.0882 734.776 95.1682C738.136 97.1202 742.264 98.4002 747.32 99.1042C747.96 97.7602 749.272 95.6162 750.296 94.5282C746.104 94.1122 742.52 93.3122 739.512 92.0962C742.616 89.5042 745.048 86.1442 746.584 81.8242L743.288 79.9682Z" fill="#ECEFFF"/>
<path d="M761.048 69.7602L760.312 74.2082C764.056 74.7842 770.168 75.4562 773.592 75.7122L774.2 71.2322C770.776 71.0082 764.664 70.3682 761.048 69.7602ZM775.576 80.3842L772.792 77.2482C772.44 77.3762 771.48 77.5682 770.872 77.6322C768.088 77.9842 761.016 78.2082 759.672 78.2082C758.456 78.2082 757.176 78.1442 756.44 78.0802L756.888 83.3602C757.56 83.2322 758.616 83.0402 759.736 82.9442C761.496 82.7842 764.408 82.5282 766.456 82.4962C763.704 85.5042 758.456 90.7202 756.6 92.5762C755.64 93.5362 754.744 94.3042 754.072 94.8482L758.584 97.9842C760.984 94.9442 762.744 92.9602 763.8 91.8402C764.568 91.0402 765.208 90.4962 765.688 90.4962C766.232 90.4962 766.904 90.8162 767.256 91.9362C767.448 92.6722 767.768 93.9522 768.12 94.8802C768.92 96.9282 770.616 97.6002 773.848 97.6002C775.448 97.6002 778.904 97.4082 780.216 97.1842L780.536 92.1602C778.872 92.4482 776.824 92.6722 774.2 92.6722C773.176 92.6722 772.504 92.1922 772.248 91.3282C771.992 90.6242 771.736 89.6322 771.448 88.8322C771.032 87.7122 770.552 87.1042 769.816 86.7522C769.432 86.5602 768.856 86.4002 768.6 86.4002C769.112 85.8242 771.768 83.4242 773.336 82.1122C774.008 81.5682 774.616 81.0562 775.576 80.3842Z" fill="#ECEFFF"/>
<path d="M797.615 93.5682C796.015 93.5682 794.959 92.8642 794.959 91.8722C794.959 91.2322 795.567 90.6242 796.591 90.6242C797.935 90.6242 798.895 91.7442 799.055 93.5042C798.607 93.5362 798.127 93.5682 797.615 93.5682ZM804.815 70.8162C804.399 70.9442 803.503 71.0722 801.999 71.2002C800.111 71.3602 793.775 71.4562 792.079 71.4562C791.023 71.4562 789.839 71.3922 788.847 71.2642L789.007 76.2242C789.775 76.0962 790.895 76.0002 791.855 75.9362C793.551 75.8082 796.815 75.6802 798.415 75.6482C796.879 77.0242 793.935 79.2962 792.175 80.7682C790.287 82.3042 786.607 85.4402 784.559 87.0402L788.047 90.6562C791.087 86.9442 794.415 84.1602 799.055 84.1602C802.543 84.1602 805.327 85.8562 805.327 88.5762C805.327 90.1122 804.719 91.3602 803.471 92.2242C802.927 89.2162 800.431 86.9762 796.559 86.9762C792.975 86.9762 790.415 89.5682 790.415 92.3522C790.415 95.8402 794.127 97.9202 798.607 97.9202C806.799 97.9202 810.383 93.6002 810.383 88.6402C810.383 83.8722 806.095 80.3842 800.655 80.3842C799.887 80.3842 799.279 80.4162 798.447 80.5762C800.175 79.2322 802.959 76.9602 804.751 75.7442C805.551 75.2002 806.351 74.7202 807.183 74.2082L804.815 70.8162Z" fill="#ECEFFF"/>
<path d="M1419.75 58.0002H1425.48V34.1922H1419.75V58.0002Z" fill="#ECEFFF"/>
<path d="M1435.55 58.0002H1441.28V38.9282H1447.74V34.1922H1429.12V38.9282H1435.55V58.0002Z" fill="#ECEFFF"/>
<path d="M1467.28 52.4002V40.2722H1473.55C1474.48 40.2722 1475.66 40.3362 1476.69 40.4322V35.1202C1475.7 35.2482 1474.51 35.3442 1473.55 35.3442H1456.21C1455.22 35.3442 1453.81 35.2482 1452.98 35.1202V40.4322C1453.81 40.3362 1455.22 40.2722 1456.21 40.2722H1461.84V52.4002H1454.19C1453.17 52.4002 1451.92 52.3042 1450.86 52.1122V57.7122C1451.98 57.5842 1453.2 57.5522 1454.19 57.5522H1475.28C1476.08 57.5522 1477.52 57.5842 1478.45 57.7122V52.1122C1477.62 52.2402 1476.5 52.4002 1475.28 52.4002H1467.28Z" fill="#ECEFFF"/>
<path d="M1488.62 33.1682L1484.94 37.1042C1487.25 38.7362 1491.28 42.2562 1492.98 44.1122L1496.94 40.0482C1495.02 38.0002 1490.83 34.6722 1488.62 33.1682ZM1483.89 54.4162L1487.18 59.5362C1491.22 58.8962 1495.38 57.2322 1498.64 55.3122C1503.98 52.1762 1508.53 47.7282 1511.09 43.1842L1508.08 37.7122C1505.94 42.2242 1501.62 47.1842 1495.86 50.5122C1492.72 52.3362 1488.59 53.7762 1483.89 54.4162Z" fill="#ECEFFF"/>
<path d="M1536.24 33.0402L1533.04 34.3522C1534.29 36.1122 1534.8 37.1682 1535.82 39.3762L1539.12 37.9682C1538.42 36.5282 1537.2 34.4802 1536.24 33.0402ZM1540.78 31.4722L1537.52 32.8162C1538.77 34.5122 1539.38 35.4402 1540.5 37.6482L1543.76 36.2082C1542.99 34.8322 1541.84 32.8482 1540.78 31.4722ZM1522.22 32.3362L1519.41 36.6242C1521.65 37.8722 1524.91 39.9522 1526.83 41.2322L1529.71 36.9442C1527.89 35.6962 1524.46 33.5522 1522.22 32.3362ZM1515.66 54.9602L1518.58 60.0802C1521.33 59.6322 1526.03 57.9682 1529.3 56.1442C1534.61 53.1042 1539.18 49.1042 1542.26 44.5922L1539.28 39.2802C1536.75 43.8882 1532.14 48.4002 1526.64 51.4402C1523.02 53.3922 1519.28 54.3522 1515.66 54.9602ZM1517.23 39.6962L1514.42 43.9842C1516.69 45.2002 1519.92 47.3122 1521.87 48.6562L1524.72 44.3042C1522.93 43.0562 1519.54 40.9122 1517.23 39.6962Z" fill="#ECEFFF"/>
<path d="M1547.28 57.2322C1548.56 57.1042 1550.35 57.0082 1551.66 57.0082H1569.58C1570.58 57.0082 1572.21 57.1042 1573.46 57.2322V51.3122C1572.27 51.4402 1570.74 51.5362 1569.58 51.5362H1551.66C1550.35 51.5362 1548.62 51.4082 1547.28 51.3122V57.2322ZM1549.94 41.3922C1551.09 41.3282 1552.78 41.2642 1554.06 41.2642H1567.02C1568.18 41.2642 1569.84 41.3602 1570.8 41.3922V35.7602C1569.87 35.8882 1568.37 35.9842 1567.02 35.9842H1554.03C1552.91 35.9842 1551.18 35.9202 1549.94 35.7602V41.3922Z" fill="#ECEFFF"/>
<path d="M1588.82 40.6882C1589.01 41.8402 1589.07 42.7682 1589.07 43.8882C1589.07 49.1042 1588.27 51.8242 1584.72 54.5122C1583.38 55.5362 1582.19 56.0802 1581.07 56.4642L1585.58 60.1442C1594.61 55.1202 1594.45 48.2082 1594.45 40.6882H1588.82ZM1604.56 33.4882C1603.89 33.6802 1601.78 33.8082 1600.72 33.8082H1584.11C1582.7 33.8082 1581.36 33.6482 1580.05 33.4562V38.8002C1581.71 38.6402 1582.7 38.5442 1584.11 38.5442H1599.92C1599.22 39.8882 1597.01 42.3202 1594.64 43.8242L1598.64 47.0242C1601.52 44.9442 1604.56 40.9442 1606.19 38.2562C1606.51 37.7442 1607.25 36.8162 1607.63 36.3362L1604.56 33.4882Z" fill="#ECEFFF"/>
<path d="M1620.78 45.9042C1619.66 49.5842 1618.7 51.5042 1617.42 51.5042C1616.34 51.5042 1615.38 50.0642 1615.38 47.3122C1615.38 44.2722 1617.71 40.0162 1622.42 38.7362C1622.03 41.2322 1621.49 43.7602 1620.78 45.9042ZM1626.35 59.6002C1634.61 58.2242 1638.54 53.3282 1638.54 46.6722C1638.54 39.4722 1633.42 33.9042 1625.36 33.9042C1616.88 33.9042 1610.38 40.3042 1610.38 47.8242C1610.38 53.2322 1613.39 57.4882 1617.3 57.4882C1621.04 57.4882 1623.89 53.2322 1625.78 46.8962C1626.64 43.9842 1627.22 41.2002 1627.63 38.6402C1631.28 39.5042 1633.26 42.4162 1633.26 46.5122C1633.26 50.6722 1630.58 53.4882 1626.54 54.4802C1625.65 54.7042 1624.78 54.8962 1623.44 55.0562L1626.35 59.6002Z" fill="#ECEFFF"/>
<path d="M1666.77 41.8402H1667.7C1667.54 52.0162 1667.34 55.5682 1666.86 56.4002C1666.61 56.8802 1666.35 57.0082 1665.97 57.0082C1665.55 57.0082 1665.07 56.9762 1664.46 56.9442C1666.42 52.3682 1666.77 46.8002 1666.77 42.2882V41.8402ZM1661.42 51.5682H1657.42V50.3842H1661.39V40.7202H1657.46V39.6962H1661.62V41.8402H1662.86V42.2882C1662.86 45.6482 1662.67 49.9362 1661.42 53.6802V51.5682ZM1657.42 54.8642H1660.98C1660.85 55.1842 1660.72 55.5042 1660.56 55.8242L1657.42 56.0802V54.8642ZM1652.66 46.7682H1653.97V47.6962H1652.66V46.7682ZM1652.66 43.4082H1653.97V44.3362H1652.66V43.4082ZM1657.01 44.3362V43.4082H1658.38V44.3362H1657.01ZM1657.01 47.6962V46.7682H1658.38V47.6962H1657.01ZM1666.77 37.8722V30.7362H1662.86V37.8722H1661.74V36.4002H1657.46V35.3122C1659.02 35.1202 1660.53 34.8962 1661.9 34.6082L1659.7 31.3442C1657.17 31.9202 1653.46 32.4002 1650.1 32.6882L1650.32 31.8882L1646.19 30.7042C1645.07 35.1202 1643.15 39.5362 1640.98 42.4482C1641.65 43.6962 1642.7 46.4162 1642.99 47.5682C1643.38 47.0562 1643.76 46.5122 1644.14 45.9682V61.1362H1648.24V37.9042C1648.78 36.5282 1649.3 35.1202 1649.74 33.7442C1650 34.4482 1650.22 35.2482 1650.32 35.8562C1651.34 35.8242 1652.46 35.7602 1653.58 35.6642V36.4002H1649.49V39.6962H1653.58V40.7202H1649.78V50.3842H1653.55V51.5682H1649.74V54.8642H1653.55V56.3682C1651.89 56.4642 1650.38 56.5922 1649.1 56.6562L1649.65 60.4002C1652.46 60.1122 1656.05 59.7282 1659.63 59.3122C1660.46 59.8882 1661.36 60.6562 1661.87 61.1682C1662.83 60.0802 1663.6 58.8322 1664.24 57.4882C1664.69 58.5442 1664.94 59.9202 1665.01 60.8802C1666.22 60.9122 1667.31 60.8802 1668.14 60.6882C1669.07 60.4642 1669.68 60.1122 1670.32 59.0562C1671.22 57.6802 1671.34 52.8482 1671.57 39.6642C1671.57 39.1522 1671.6 37.8722 1671.6 37.8722H1666.77Z" fill="#ECEFFF"/>
<path d="M1678.42 48.7842C1678.03 50.0002 1677.62 51.7922 1677.62 53.2642C1677.62 57.9362 1681.42 59.9842 1687.54 59.9842C1690.99 59.9842 1694.32 59.6322 1695.95 59.3442L1696.11 54.4482C1693.9 54.8642 1690.67 55.1522 1687.41 55.1522C1683.54 55.1522 1682.42 53.9042 1682.42 52.2082C1682.42 51.4402 1682.77 50.1602 1683.15 49.2002L1678.42 48.7842ZM1699.76 39.3122C1698.35 39.8242 1696.59 40.3682 1694.16 40.8482L1693.78 39.9522C1693.58 39.5042 1693.36 39.0242 1693.17 38.5442C1695.12 38.1922 1696.69 37.7762 1698.29 37.2962L1697.49 33.0402C1695.6 33.6802 1693.65 34.1282 1691.57 34.4802C1691.18 33.4242 1690.9 32.4002 1690.7 31.5042L1685.23 32.5282C1685.78 33.3602 1686.19 34.0322 1686.67 35.0242C1684.02 35.1202 1681.04 34.9922 1677.55 34.6082L1677.81 38.9602C1681.58 39.3442 1685.49 39.3442 1688.56 39.1202L1689.39 41.0402L1689.58 41.5202C1686.13 41.8402 1682 41.8402 1677.33 41.3922L1677.52 45.7762C1682.26 46.0962 1687.38 46.0322 1691.31 45.6162C1691.63 46.3842 1691.98 47.2482 1692.4 48.1762C1691.6 48.1122 1690.48 48.0162 1689.39 47.9202L1688.98 51.5682C1691.15 51.8242 1694.45 52.3362 1696.3 52.7202L1698.54 49.8402C1697.62 48.0802 1696.78 46.3522 1696.05 44.8162C1697.78 44.4642 1699.41 44.0802 1700.66 43.6322L1699.76 39.3122Z" fill="#ECEFFF"/>
<path d="M1735.28 39.9842V35.5362H1722.86V30.4482H1718.03V35.5362H1706.03V39.9842H1714.86C1714.54 46.5442 1713.84 53.3602 1705.33 57.3602C1706.58 58.3522 1707.95 60.0482 1708.62 61.3282C1714.99 58.0322 1717.74 53.2002 1718.99 47.9202H1726.83C1726.45 52.9122 1725.9 55.4722 1725.14 56.1122C1724.69 56.4642 1724.24 56.5282 1723.54 56.5282C1722.54 56.5282 1720.3 56.5282 1718.13 56.3362C1719.02 57.6162 1719.73 59.5682 1719.79 60.9122C1721.94 60.9762 1724.08 60.9762 1725.39 60.8482C1726.99 60.6562 1728.14 60.3042 1729.23 59.1202C1730.54 57.6482 1731.22 54.0002 1731.76 45.4882C1731.86 44.8802 1731.89 43.5362 1731.89 43.5362H1719.73C1719.89 42.3522 1719.98 41.1682 1720.05 39.9842H1735.28Z" fill="#ECEFFF"/>
<path d="M1436.62 72.6722C1435.56 71.5842 1433.58 69.8882 1432.39 68.9602L1428.84 71.4242C1430.06 72.3202 1431.91 74.1762 1432.97 75.2642L1436.62 72.6722ZM1420.55 73.8242C1421.26 74.7202 1422.09 76.0002 1422.6 76.8642C1423.02 77.6002 1423.4 78.3682 1423.78 79.1362C1423.02 79.4562 1422.25 79.7762 1421.45 80.0962C1420.94 80.3202 1419.4 80.8642 1417.99 81.2162L1420.2 86.0482C1421.48 85.4722 1423.4 84.4482 1425.58 83.3282L1426.22 84.8962C1427.75 88.5122 1429.45 94.0482 1430.44 98.1442L1435.72 96.8322C1434.66 93.2162 1431.98 85.9522 1430.63 82.7842L1429.93 81.1842C1433.13 79.7122 1436.36 78.4962 1438.66 78.4962C1440.65 78.4962 1441.99 79.5842 1441.99 81.0562C1441.99 83.3282 1440.1 84.2882 1438.31 84.2882C1437.13 84.2882 1435.53 83.8402 1434.02 83.2002L1433.9 88.0002C1435.08 88.4482 1437.16 88.8962 1438.86 88.8962C1443.66 88.8962 1447.11 86.0802 1447.11 81.2162C1447.11 77.4082 1443.98 74.1442 1438.79 74.1442C1435.59 74.1442 1432.01 75.5202 1428.17 77.2162C1427.72 76.3202 1427.3 75.4242 1426.86 74.5922C1426.5 73.9842 1425.8 72.5122 1425.51 71.9042L1420.55 73.8242Z" fill="#ECEFFF"/>
<path d="M1477.38 82.0162C1476.46 82.2722 1475.11 82.5922 1473.86 82.8482C1472.52 83.1042 1470.12 83.5202 1467.46 83.9682L1466.63 79.5842L1472.42 78.6562C1473.45 78.5282 1474.92 78.3042 1475.75 78.2402L1474.82 73.1842C1473.93 73.4402 1472.49 73.7602 1471.43 73.9522C1470.41 74.1442 1468.23 74.5282 1465.77 74.9122C1465.54 73.6642 1465.35 72.7042 1465.29 72.2242C1465.13 71.4242 1465.03 70.2402 1464.94 69.6002L1459.46 70.4642C1459.72 71.2642 1459.94 72.0642 1460.17 73.0242L1460.68 75.6802C1458.06 76.0962 1455.75 76.4162 1454.73 76.5442C1453.74 76.6722 1452.71 76.7362 1451.59 76.8002L1452.62 82.0802C1453.7 81.7922 1454.6 81.5682 1455.75 81.3442C1456.62 81.1842 1458.92 80.8002 1461.58 80.3842L1462.41 84.7682C1459.4 85.2482 1456.68 85.6642 1455.27 85.8882C1454.18 86.0482 1452.58 86.2402 1451.69 86.2722L1452.78 91.3922C1453.51 91.2002 1454.73 90.9762 1456.17 90.7202C1457.48 90.4642 1460.23 89.9842 1463.27 89.4722C1463.72 91.9042 1464.1 93.9202 1464.26 94.9122C1464.46 95.8722 1464.52 97.0242 1464.68 98.2722L1470.25 97.3122C1469.96 96.1922 1469.64 95.0082 1469.42 94.0482C1469.19 92.9602 1468.81 90.9762 1468.36 88.6402C1470.98 88.2242 1473.35 87.8402 1474.76 87.6162C1475.98 87.4242 1477.45 87.1682 1478.41 87.1042L1477.38 82.0162Z" fill="#ECEFFF"/>
<path d="M1502.63 90.8802C1504.9 88.3522 1508.07 83.3602 1509.45 80.5122L1506.31 78.3042C1505.83 78.5282 1505.13 78.7522 1504.49 78.8802C1503.14 79.1682 1499.18 79.9362 1495.4 80.6722L1494.63 77.8882C1494.44 77.0562 1494.22 76.1282 1494.09 75.2642L1488.9 76.4802C1489.29 77.2482 1489.67 78.1122 1489.9 78.9442C1490.12 79.6162 1490.38 80.5442 1490.63 81.5682C1489.38 81.7922 1488.42 81.9522 1488.01 82.0162C1486.89 82.2082 1485.96 82.3042 1484.9 82.4002L1486.09 87.0082C1487.11 86.7842 1489.29 86.3042 1491.75 85.7602C1492.87 89.9842 1494.06 94.6242 1494.57 96.4802C1494.86 97.4402 1495.08 98.6242 1495.21 99.5522L1500.46 98.2722C1500.2 97.6002 1499.69 95.9362 1499.53 95.3922C1498.98 93.6002 1497.74 89.0242 1496.55 84.7362C1499.43 84.1282 1501.93 83.6162 1502.66 83.4882C1501.93 84.8642 1499.82 87.4242 1498.38 88.7682L1502.63 90.8802Z" fill="#ECEFFF"/>
<path d="M1518.76 71.1362C1518.86 71.9362 1518.89 73.0562 1518.89 73.6642V84.5122C1518.89 85.5042 1518.76 86.8802 1518.73 87.5202H1524.49C1524.42 86.6882 1524.36 85.3442 1524.36 84.5442V73.6642C1524.36 72.5122 1524.42 71.9362 1524.49 71.1362H1518.76ZM1533.45 70.8482C1533.58 71.8082 1533.67 72.8962 1533.67 74.3042V80.9282C1533.67 85.3442 1533.22 87.6162 1531.08 89.8882C1529.16 91.8722 1526.54 93.0562 1523.21 93.7922L1527.27 98.0802C1529.61 97.3442 1532.97 95.7122 1535.11 93.4722C1537.54 90.9122 1539.05 87.7122 1539.05 81.2802V74.3042C1539.05 72.8962 1539.11 71.8082 1539.18 70.8482H1533.45Z" fill="#ECEFFF"/>
<path d="M1557.16 78.6882C1557.35 79.8402 1557.42 80.7682 1557.42 81.8882C1557.42 87.1042 1556.62 89.8242 1553.06 92.5122C1551.72 93.5362 1550.54 94.0802 1549.42 94.4642L1553.93 98.1442C1562.95 93.1202 1562.79 86.2082 1562.79 78.6882H1557.16ZM1572.9 71.4882C1572.23 71.6802 1570.12 71.8082 1569.06 71.8082H1552.46C1551.05 71.8082 1549.7 71.6482 1548.39 71.4562V76.8002C1550.06 76.6402 1551.05 76.5442 1552.46 76.5442H1568.26C1567.56 77.8882 1565.35 80.3202 1562.98 81.8242L1566.98 85.0242C1569.86 82.9442 1572.9 78.9442 1574.54 76.2562C1574.86 75.7442 1575.59 74.8162 1575.98 74.3362L1572.9 71.4882Z" fill="#ECEFFF"/>
<path d="M1608.81 72.2562C1608.26 71.1682 1607.11 69.1202 1606.28 67.9042L1603.27 69.1202C1604.14 70.3362 1605.16 72.2242 1605.8 73.5362L1608.81 72.2562ZM1596.58 76.2562C1597.8 76.2562 1599.11 76.3202 1600.3 76.3842V72.2242C1600.84 73.2162 1601.38 74.2722 1601.8 75.1042L1604.84 73.8242C1604.26 72.7042 1603.14 70.6242 1602.34 69.4402L1599.34 70.6562C1599.5 70.9122 1599.69 71.2002 1599.85 71.4882C1598.79 71.6162 1597.64 71.6802 1596.58 71.6802H1586.44C1585.35 71.6802 1583.82 71.5842 1582.73 71.4242V76.3842C1583.78 76.3202 1585.32 76.2562 1586.44 76.2562H1596.58ZM1582.31 79.9042C1581.32 79.9042 1580.07 79.8082 1579.08 79.6802V84.7362C1579.98 84.6722 1581.38 84.6082 1582.31 84.6082H1590.66C1590.47 87.1042 1589.86 89.3122 1588.62 91.1682C1587.34 92.9602 1585.1 94.7842 1582.95 95.5842L1587.5 98.8482C1590.41 97.3762 1592.9 94.7842 1593.99 92.5122C1595.08 90.3362 1595.88 87.8082 1596.1 84.6082H1603.27C1604.23 84.6082 1605.58 84.6402 1606.44 84.7042V79.6802C1605.54 79.8402 1603.94 79.9042 1603.27 79.9042H1582.31Z" fill="#ECEFFF"/>
<path d="M1640.52 74.1122C1640.17 72.9282 1639.5 71.1042 1638.89 69.7922L1636.36 70.5922C1637 71.9042 1637.54 73.5362 1637.99 74.9122L1640.52 74.1122ZM1632.94 76.8322V73.8242C1632.94 73.0242 1632.97 72.3522 1633.03 71.7442C1633.67 73.0562 1634.09 74.6562 1634.54 76.0002L1637.1 75.1682C1636.78 73.9522 1636.14 72.1602 1635.53 70.8482L1633.06 71.6162L1633.16 70.6562H1627.66C1627.78 71.4562 1627.85 72.5122 1627.85 73.8242V76.8322H1621.13V74.2082C1621.13 72.8322 1621.26 71.7442 1621.35 70.9762H1615.85C1615.94 71.7442 1616.07 72.8642 1616.07 74.1762V76.8322H1613.77C1612.04 76.8322 1610.89 76.6082 1610.15 76.4802V81.7282C1611.08 81.6642 1612.04 81.6002 1613.77 81.6002H1616.07V85.4722C1616.07 87.0402 1615.98 88.2882 1615.88 89.0882H1621.29C1621.22 88.2882 1621.13 87.0402 1621.13 85.4722V81.6002H1627.85V82.7522C1627.85 89.9842 1625.26 92.7682 1618.86 94.8802L1623.02 98.7842C1630.98 95.2962 1632.94 90.2082 1632.94 82.6242V81.6002H1634.66C1636.49 81.6002 1637.61 81.6002 1638.5 81.6962V76.5762C1637.38 76.7682 1636.49 76.8322 1634.63 76.8322H1632.94Z" fill="#ECEFFF"/>
<path d="M1661.35 80.2562C1664.42 78.2722 1667.21 75.9042 1669.77 73.4082L1665.61 69.6642C1663.78 72.0962 1660.49 74.9442 1657.26 76.9602C1653.67 79.2002 1648.3 81.5362 1642.57 82.7202L1645.32 87.4242C1648.81 86.4962 1652.55 84.9922 1655.78 83.3922V93.0242C1655.78 94.5602 1655.66 96.8002 1655.53 97.6642H1661.67C1661.42 96.7682 1661.35 94.5602 1661.35 93.0242V80.2562Z" fill="#ECEFFF"/>
<path d="M1680.97 71.1682L1677.29 75.1042C1679.59 76.7362 1683.62 80.2562 1685.32 82.1122L1689.29 78.0482C1687.37 76.0002 1683.18 72.6722 1680.97 71.1682ZM1676.23 92.4162L1679.53 97.5362C1683.56 96.8962 1687.72 95.2322 1690.98 93.3122C1696.33 90.1762 1700.87 85.7282 1703.43 81.1842L1700.42 75.7122C1698.28 80.2242 1693.96 85.1842 1688.2 88.5122C1685.06 90.3362 1680.94 91.7762 1676.23 92.4162Z" fill="#ECEFFF"/>
<path d="M1826.01 72.2904V60.6454H1813.09V59.2004V49.1704H1824.14V37.7804H1802.72C1803.49 35.1454 1804.08 32.4254 1804.59 29.7904L1792.78 27.4104C1791.25 36.7604 1788.19 46.3654 1783.85 52.2304C1786.57 53.8454 1791.5 57.3304 1793.71 59.3704C1795.58 56.5654 1797.37 53.0804 1798.98 49.1704H1800.6V59.0304V60.6454H1785.81V72.2904H1799.66C1798.22 81.5554 1794.31 91.2454 1784.36 98.4704C1786.83 100.255 1791.59 105.27 1793.2 107.82C1800.68 102.295 1805.44 94.9854 1808.42 87.1654C1812.24 92.1804 1816.32 97.9604 1819.04 102.38L1827.37 91.9254C1825.16 89.2054 1816.32 79.0904 1811.82 74.5004C1811.99 73.8204 1812.07 73.0554 1812.16 72.2904H1826.01ZM1839.95 88.1854V46.1954H1849.13V88.1854H1839.95ZM1827.97 34.6354V105.61H1839.95V99.7454H1849.13V104.25H1861.71V34.6354H1827.97Z" fill="#ECEFFF"/>
<path d="M1879.56 106.205C1885.51 101.19 1888.66 93.7104 1890.7 86.1454L1879.73 82.2354C1878.03 88.6954 1874.55 94.5604 1869.7 98.3004L1879.56 106.205ZM1891.46 66.5954H1903.96V69.4004H1891.46V66.5954ZM1891.46 55.4604H1903.96V58.2654H1891.46V55.4604ZM1928.52 55.4604V58.2654H1916.11V55.4604H1928.52ZM1928.52 69.4004H1916.11V66.5954H1928.52V69.4004ZM1908.63 95.6654C1905.15 95.6654 1904.55 95.4104 1904.55 92.9454V84.8704C1908.12 87.3354 1911.44 90.2254 1913.31 92.4354L1921.81 84.7004C1919.94 82.6604 1917.05 80.3654 1913.9 78.3254H1940.68V46.5354H1916.11V43.5604H1946.03V32.8504H1916.11V27.3254H1903.96V32.8504H1874.46V43.5604H1903.96V46.5354H1879.9V78.3254H1902.85L1899.37 81.4704C1900.47 82.1504 1901.66 82.9154 1902.85 83.6804H1892.31V93.2004C1892.31 103.145 1894.95 106.545 1906.93 106.545H1918.49C1927.16 106.545 1930.48 103.91 1931.84 93.2854C1928.61 92.6054 1923.34 90.7354 1920.96 88.9504C1920.62 94.8154 1920.02 95.6654 1917.3 95.6654H1908.63ZM1926.23 86.2304C1932.01 91.8404 1937.87 99.7454 1940 105.185L1951.05 99.1504C1948.5 93.3704 1942.21 85.9754 1936.34 80.7054L1926.23 86.2304Z" fill="#ECEFFF"/>
<path d="M2015.73 39.3104C2013.27 41.3504 2010.55 42.9654 2006.98 45.0054C2003.32 47.1304 1996.95 50.4454 1990.74 54.0154C1987.43 47.7254 1983.69 40.0754 1980.63 31.5754L1967.79 36.7604C1971.53 45.6004 1975.44 54.1854 1979.35 61.4104C1971.62 67.2754 1965.67 74.1604 1965.67 83.7654C1965.67 99.3204 1979.01 103.995 1996.35 103.995C2007.57 103.995 2015.99 103.145 2023.64 101.87L2023.81 87.1654C2015.82 88.9504 2004.34 90.3954 1996.01 90.3954C1985.22 90.3954 1979.86 87.7604 1979.86 82.2354C1979.86 76.7104 1984.54 72.2054 1991.08 67.9554C1998.48 63.1954 2008.34 58.6904 2013.35 56.2254C2016.75 54.5254 2019.81 52.9104 2022.79 51.1254L2015.73 39.3104Z" fill="#ECEFFF"/>
<path d="M2061.89 66.7654H2074.21V69.4854H2061.89V66.7654ZM2061.89 56.3954H2074.21V59.0304H2061.89V56.3954ZM2099.8 59.0304H2086.03V56.3954H2099.8V59.0304ZM2099.8 69.4854H2086.03V66.7654H2099.8V69.4854ZM2085.6 80.9604C2085.77 79.9404 2085.94 78.8354 2086.03 77.7304H2112.29V48.1504H2095.97C2095.04 47.7254 2094.02 47.3004 2092.91 46.8754C2100.22 43.8154 2107.28 40.0754 2113.4 36.5904L2105.49 29.2804L2102.77 29.8754H2048.12V38.8004H2088.66C2085.94 40.1604 2083.05 41.5204 2080.33 42.5404C2076.08 41.1804 2071.83 39.9904 2068.26 39.0554L2059.34 45.1754C2062.31 46.0254 2065.54 47.0454 2068.86 48.1504H2049.99V77.7304H2073.62C2073.45 78.8354 2073.28 79.9404 2073.11 80.9604H2046.25V90.9054H2067.33C2062.91 94.3054 2055.34 96.6004 2041.74 98.1304C2043.87 100.68 2046.5 105.355 2047.35 108.33C2068.77 105.185 2078.12 99.4904 2082.46 90.9054H2101.75C2100.99 94.3904 2100.05 96.3454 2099.12 97.1104C2098.18 97.8754 2097.25 97.9604 2095.72 97.9604C2093.68 97.9604 2089.17 97.8754 2085.01 97.4504C2086.88 100.34 2088.32 104.76 2088.49 107.99C2093.42 108.16 2098.18 108.075 2100.99 107.82C2104.39 107.565 2107.11 106.885 2109.49 104.59C2112.12 102.125 2113.91 96.5154 2115.27 85.5504C2115.52 84.0204 2115.78 80.9604 2115.78 80.9604H2085.6Z" fill="#ECEFFF"/>
<path d="M2138.73 60.3904C2141.11 57.8404 2143.4 54.8654 2145.44 51.6354V57.5854H2194.83V47.7254H2147.74C2148.25 46.8754 2148.67 46.0254 2149.1 45.1754H2202.31V35.0604H2153.52C2154.2 33.2754 2154.79 31.4904 2155.3 29.6204L2142.3 26.8154C2139.24 38.6304 2132.78 49.5954 2124.19 55.8004C2127.17 57.5004 2132.52 61.0704 2135.16 63.2804V70.6754H2162.27C2160.57 73.9904 2158.53 77.1354 2156.15 80.1104C2151.65 77.3904 2147.06 74.8404 2143.06 72.8004L2134.22 80.9604C2138.39 83.2554 2142.89 85.9754 2147.4 88.8654C2141.62 93.5404 2134.82 97.4504 2127.59 100.17C2130.31 102.38 2134.82 107.225 2136.69 109.775C2144.08 106.29 2151.14 101.615 2157.51 95.9204C2162.19 99.4054 2166.27 102.805 2168.99 105.78L2178.85 96.3454C2175.79 93.2854 2171.37 89.9704 2166.35 86.5704C2169.41 82.8304 2172.13 78.7504 2174.43 74.4154L2162.87 70.6754H2179.27C2179.87 91.8404 2182.67 108.245 2195.76 108.245C2202.99 108.245 2205.2 103.315 2206.05 92.6904C2203.5 90.8204 2200.52 87.6754 2198.14 84.7854C2198.06 91.5004 2197.72 95.8354 2196.61 95.9204C2192.53 95.9204 2191.51 80.0254 2191.85 60.3904H2138.73Z" fill="#ECEFFF"/>
<path d="M343.845 42.8802H401.9V30.9802H331.35V55.4602C331.35 69.0602 330.755 88.7802 323.02 101.955C326.25 103.06 331.86 106.205 334.24 108.16C342.485 93.7952 343.845 70.5052 343.845 55.3752V42.8802ZM377.59 94.2202V73.3102H398.33V61.6652H377.59V45.7702H365.095V61.6652H345.885V73.3102H365.095V94.2202H340.105V105.865H403.685V94.2202H377.59Z" fill="#ECEFFF"/>
<path d="M433.18 41.3502H438.195C437.43 45.5152 436.41 50.0202 435.305 53.7602L430.63 54.0152L431.735 64.6402C438.195 64.0452 446.015 63.2802 453.92 62.5152C454.175 63.9602 454.43 65.4052 454.515 66.5952L463.1 63.6202V87.7602H473.555V38.0352H463.1V58.6052C461.91 53.9302 459.955 48.3202 457.915 43.8152L449.075 46.6202C449.84 48.4902 450.605 50.6152 451.285 52.7402L445.845 53.0802C447.29 49.5102 448.82 45.4302 450.265 41.3502H461.91V31.4052H434.88L435.135 30.7252L423.745 27.3252C420.26 39.3952 414.225 51.4652 407.68 59.2002C409.55 62.5152 412.525 69.7402 413.46 72.8002C414.65 71.3552 415.84 69.8252 417.03 68.2102V107.99H428.335V48.2352C430.12 44.3252 431.735 40.3302 433.18 36.4202V41.3502ZM452.73 91.7552V83.0852H461.485V72.5452H452.73V64.8952H441.34V72.5452H432.33V83.0852H441.34V93.2852C437.09 93.8802 433.265 94.3902 429.95 94.7302L431.735 105.78C440.83 104.335 452.645 102.55 463.695 100.595L463.015 90.3102L452.73 91.7552ZM476.615 28.6852V95.0702C476.615 96.2602 476.19 96.6002 475.085 96.6002C473.895 96.6002 470.41 96.6002 467.095 96.4302C468.54 99.7452 469.985 104.93 470.325 108.075C476.275 108.075 480.695 107.65 483.67 105.695C486.73 103.825 487.58 100.68 487.58 95.0702V28.6852H476.615Z" fill="#ECEFFF"/>
<path d="M508.745 88.6102V73.9902H519.88V88.6102H508.745ZM519.88 63.3652H508.745V51.8902H519.88V63.3652ZM549.8 40.3302C550.99 37.0152 552.095 33.7002 553.03 30.3852L541.13 27.5802C538.92 36.4202 535.265 45.6002 531.015 52.4852V41.1802H518.435C519.795 37.6102 521.24 33.3602 522.685 29.1952L509.17 27.3252C508.915 31.4902 508.15 36.8452 507.3 41.1802H497.61V105.44H508.745V99.4052H531.015V58.9452C533.565 60.6452 536.455 62.8552 537.985 64.2152C540.45 60.7302 542.915 56.3952 545.21 51.5502H561.36C560.68 79.6002 559.66 92.0952 557.195 94.7302C556.09 95.9202 555.155 96.2602 553.455 96.2602C551.16 96.2602 546.06 96.2602 540.62 95.7502C542.83 99.1502 544.53 104.42 544.7 107.735C549.8 107.905 555.07 107.99 558.47 107.395C562.21 106.715 564.845 105.695 567.48 101.955C571.05 97.2802 571.9 83.5102 572.92 45.6852C573.005 44.2402 573.005 40.3302 573.005 40.3302H549.8ZM558.385 79.6852C555.835 74.6702 550.31 66.5952 546.485 60.8152L536.795 66.2552C540.62 72.5452 545.72 80.8752 547.93 86.0602L558.385 79.6852Z" fill="#ECEFFF"/>
<path d="M868.31 100H883.525V36.7602H868.31V100Z" fill="#ECEFFF"/>
<path d="M910.267 100H925.482V49.3402H942.652V36.7602H893.182V49.3402H910.267V100Z" fill="#ECEFFF"/>
<path d="M994.557 85.1252V52.9102H1011.22C1013.68 52.9102 1016.83 53.0802 1019.55 53.3352V39.2252C1016.91 39.5652 1013.77 39.8202 1011.22 39.8202H965.147C962.512 39.8202 958.772 39.5652 956.562 39.2252V53.3352C958.772 53.0802 962.512 52.9102 965.147 52.9102H980.107V85.1252H959.792C957.072 85.1252 953.757 84.8702 950.952 84.3602V99.2352C953.927 98.8952 957.157 98.8102 959.792 98.8102H1015.81C1017.93 98.8102 1021.76 98.8952 1024.22 99.2352V84.3602C1022.01 84.7002 1019.04 85.1252 1015.81 85.1252H994.557Z" fill="#ECEFFF"/>
<path d="M1051.25 34.0402L1041.48 44.4952C1047.6 48.8302 1058.31 58.1802 1062.81 63.1102L1073.35 52.3152C1068.25 46.8752 1057.12 38.0352 1051.25 34.0402ZM1038.67 90.4802L1047.43 104.08C1058.14 102.38 1069.19 97.9602 1077.86 92.8602C1092.05 84.5302 1104.12 72.7152 1110.92 60.6452L1102.93 46.1102C1097.24 58.0952 1085.76 71.2702 1070.46 80.1102C1062.13 84.9552 1051.17 88.7802 1038.67 90.4802Z" fill="#ECEFFF"/>
<path d="M1177.73 33.7002L1169.23 37.1852C1172.55 41.8602 1173.91 44.6652 1176.63 50.5302L1185.38 46.7902C1183.51 42.9652 1180.28 37.5252 1177.73 33.7002ZM1189.8 29.5352L1181.13 33.1052C1184.45 37.6102 1186.06 40.0752 1189.04 45.9402L1197.71 42.1152C1195.67 38.4602 1192.61 33.1902 1189.8 29.5352ZM1140.5 31.8302L1133.02 43.2202C1138.97 46.5352 1147.64 52.0602 1152.74 55.4602L1160.39 44.0702C1155.55 40.7552 1146.45 35.0602 1140.5 31.8302ZM1123.08 91.9252L1130.81 105.525C1138.12 104.335 1150.62 99.9152 1159.29 95.0702C1173.4 86.9952 1185.55 76.3702 1193.71 64.3852L1185.81 50.2752C1179.09 62.5152 1166.85 74.5002 1152.23 82.5752C1142.63 87.7602 1132.68 90.3102 1123.08 91.9252ZM1127.24 51.3802L1119.76 62.7702C1125.8 66.0002 1134.38 71.6102 1139.57 75.1802L1147.13 63.6202C1142.37 60.3052 1133.36 54.6102 1127.24 51.3802Z" fill="#ECEFFF"/>
<path d="M1207.06 97.9602C1210.46 97.6202 1215.22 97.3652 1218.7 97.3652H1266.3C1268.94 97.3652 1273.27 97.6202 1276.59 97.9602V82.2352C1273.44 82.5752 1269.36 82.8302 1266.3 82.8302H1218.7C1215.22 82.8302 1210.63 82.4902 1207.06 82.2352V97.9602ZM1214.11 55.8852C1217.17 55.7152 1221.68 55.5452 1225.08 55.5452H1259.5C1262.56 55.5452 1266.98 55.8002 1269.53 55.8852V40.9252C1267.07 41.2652 1263.07 41.5202 1259.5 41.5202H1224.99C1222.02 41.5202 1217.43 41.3502 1214.11 40.9252V55.8852Z" fill="#ECEFFF"/>
<path d="M1317.39 54.0152C1317.9 57.0752 1318.07 59.5402 1318.07 62.5152C1318.07 76.3702 1315.94 83.5952 1306.51 90.7352C1302.94 93.4552 1299.79 94.9002 1296.82 95.9202L1308.8 105.695C1332.77 92.3502 1332.35 73.9902 1332.35 54.0152H1317.39ZM1359.21 34.8902C1357.42 35.4002 1351.81 35.7402 1349.01 35.7402H1304.89C1301.15 35.7402 1297.58 35.3152 1294.1 34.8052V49.0002C1298.52 48.5752 1301.15 48.3202 1304.89 48.3202H1346.88C1345.01 51.8902 1339.15 58.3502 1332.86 62.3452L1343.48 70.8452C1351.13 65.3202 1359.21 54.6952 1363.54 47.5552C1364.39 46.1952 1366.35 43.7302 1367.37 42.4552L1359.21 34.8902Z" fill="#ECEFFF"/>
</svg>
