<svg width="2296" height="128" viewBox="0 0 2296 128" fill="none" xmlns="http://www.w3.org/2000/svg">
<path d="M36.66 50.3603V47.9903H50.01V50.3603H36.66ZM50.01 41.6303V43.9703H36.66V41.6303H50.01ZM50.01 35.3003V37.6103H36.66V35.3003H50.01ZM44.64 31.1303C45.06 30.1403 45.54 29.0003 45.96 27.8603L40.62 27.3203C40.5 28.4603 40.26 29.8703 39.99 31.1303H32.25V55.7903H36.66V54.3803H50.01V55.7903H54.66V31.1303H44.64Z" fill="#ECEFFF"/>
<path d="M74.85 29.2703C76.44 32.3303 78.57 35.4503 80.76 38.1803H66.33C68.55 35.5103 70.53 32.3003 71.94 29.0003L67.2 27.6203C65.43 32.1503 62.1 36.3803 58.38 38.8403C59.43 39.6503 61.32 41.4203 62.13 42.3803C62.85 41.8103 63.54 41.1803 64.23 40.4903V42.4103H68.73C68.16 46.3703 66.6 49.8803 60.03 52.0403C61.08 53.0003 62.34 54.8603 62.88 56.0903C70.8 53.0903 72.78 48.0803 73.5 42.4103H78.42C78.21 47.9603 77.94 50.4503 77.4 51.0503C77.04 51.4103 76.71 51.5003 76.2 51.5003C75.45 51.5003 74.04 51.4703 72.54 51.3503C73.32 52.5803 73.92 54.4703 73.98 55.7603C75.69 55.7903 77.37 55.7903 78.42 55.6103C79.65 55.4003 80.55 55.0703 81.42 53.9303C82.41 52.6703 82.74 49.2203 83.01 40.7903C83.46 41.2703 83.91 41.7203 84.33 42.1403C85.17 40.9103 86.88 39.1103 88.05 38.1803C84.75 35.5103 81.03 31.2503 79.17 27.5603L74.85 29.2703Z" fill="#ECEFFF"/>
<path d="M99.63 41.6603C98.58 45.1103 97.68 46.9103 96.48 46.9103C95.46 46.9103 94.56 45.5603 94.56 42.9803C94.56 40.1303 96.75 36.1403 101.16 34.9403C100.8 37.2803 100.29 39.6503 99.63 41.6603ZM104.85 54.5003C112.59 53.2103 116.28 48.6203 116.28 42.3803C116.28 35.6303 111.48 30.4103 103.92 30.4103C95.97 30.4103 89.88 36.4103 89.88 43.4603C89.88 48.5303 92.7 52.5203 96.36 52.5203C99.87 52.5203 102.54 48.5303 104.31 42.5903C105.12 39.8603 105.66 37.2503 106.05 34.8503C109.47 35.6603 111.33 38.3903 111.33 42.2303C111.33 46.1303 108.81 48.7703 105.03 49.7003C104.19 49.9103 103.38 50.0903 102.12 50.2403L104.85 54.5003Z" fill="#ECEFFF"/>
<path d="M137.91 37.2203H136.77V34.1303H137.91V37.2203ZM142.68 49.8203H141.54V41.0003H142.68V49.8203ZM132.03 41.0003H133.11V49.8203H132.03V41.0003ZM137.91 41.0003V49.8203H136.74V41.0003H137.91ZM147 34.1303V30.2303H128.07C128.28 29.7203 128.49 29.1803 128.67 28.6703L124.74 27.4103C123.36 31.4003 120.99 35.3903 118.5 37.9103C119.19 38.9603 120.33 41.3003 120.69 42.3203C121.11 41.8703 121.53 41.3903 121.95 40.8803V55.8503H126.03V34.5503C126.66 33.3203 127.26 32.0903 127.8 30.8303V34.1303H132.69V37.2203H128.04V55.1303H132.03V53.5403H142.68V54.9503H146.88V37.2203H142.02V34.1303H147Z" fill="#ECEFFF"/>
<path d="M171.87 38.8703H167.82V37.8503H171.87V38.8703ZM171.87 42.7703H167.82V41.7203H171.87V42.7703ZM171.87 46.6403H167.82V45.6203H171.87V46.6403ZM166.41 34.7903H163.8V49.7003H176.07V34.7903H170.46L170.64 33.5903H177.09V29.9003H171.06C171.15 29.1203 171.21 28.3403 171.27 27.5903L166.92 27.3803C166.89 28.1903 166.86 29.0303 166.8 29.9003H159.39V33.5903H166.53L166.41 34.7903ZM154.92 27.4703C153.48 31.6103 150.99 35.7503 148.41 38.3603C149.13 39.4403 150.3 41.8703 150.69 42.9503C151.17 42.4103 151.68 41.8403 152.16 41.2403V55.8203H156.3V34.7903C157.35 32.8103 158.28 30.7403 159.03 28.7603L154.92 27.4703ZM177.24 50.8103H162.45V36.6803H158.43V55.8503H162.45V54.5303H177.24V50.8103Z" fill="#ECEFFF"/>
<path d="M197.46 48.5303C197.43 47.2103 197.37 45.2003 197.34 43.5803C198.9 42.8903 200.34 42.3203 201.48 41.9003C202.62 41.4503 204.48 40.7603 205.53 40.4603L203.76 36.3203C202.5 36.9203 201.27 37.4903 199.98 38.0603C198.93 38.5403 197.97 38.9303 196.77 39.5003C195.99 38.1203 194.55 37.4003 192.81 37.4003C191.97 37.4003 190.47 37.5203 189.87 37.7003C190.26 37.1003 190.65 36.3803 191.01 35.6003C194.19 35.4803 197.82 35.2103 200.61 34.8503L200.64 30.6803C198.15 31.1303 195.3 31.3703 192.63 31.5203C192.96 30.4103 193.17 29.4803 193.29 28.8203L188.55 28.4303C188.52 29.1803 188.37 30.3203 188.04 31.6703H186.87C185.28 31.6703 183 31.5503 181.53 31.3103V35.4803C183.09 35.6303 185.25 35.6903 186.48 35.6903C185.04 38.4203 182.94 40.8503 180.12 43.3403L183.96 46.2203C184.98 44.8703 185.82 43.7903 186.72 42.8603C187.74 41.8703 189.57 40.8803 191.1 40.8803C191.67 40.8803 192.27 41.0303 192.72 41.4803C189.42 43.2203 185.88 45.7103 185.88 49.5803C185.88 53.5403 189.39 54.8003 194.28 54.8003C197.22 54.8003 201.03 54.5303 202.86 54.2903L203.01 49.6403C200.4 50.2103 197.01 50.5703 194.37 50.5703C191.58 50.5703 190.65 50.0603 190.65 48.8003C190.65 47.6003 191.46 46.6403 193.32 45.5603C193.29 46.6703 193.23 47.7803 193.17 48.5303H197.46Z" fill="#ECEFFF"/>
<path d="M45.18 89.6903H41.19V88.4303H45.18V89.6903ZM55.65 80.9603H31.11V94.8803H35.37V84.5303H51.27V90.3503C51.27 90.6803 51.12 90.7703 50.73 90.7703C50.46 90.8003 49.74 90.8003 48.99 90.7703V85.5803H37.44V93.8303H41.19V92.5403H48.66C48.93 93.3203 49.14 94.1603 49.23 94.8203C51.21 94.8203 52.77 94.7603 54.03 94.1003C55.29 93.4703 55.65 92.3303 55.65 90.4403V80.9603ZM47.16 77.2103H39.03V76.0103H47.16V77.2103ZM51.57 73.1903H34.89V80.0603H51.57V73.1903ZM45.3 68.6303V66.2903H40.8V68.6303H30V72.3203H56.49V68.6303H45.3Z" fill="#ECEFFF"/>
<path d="M65.61 87.2303C64.71 87.2303 64.23 86.4503 64.23 85.2803C64.23 83.7203 64.8 81.9503 65.85 80.4803C66.6 82.4003 67.41 84.1103 68.25 85.5203C67.32 86.6003 66.45 87.2303 65.61 87.2303ZM73.2 76.1903C72.63 77.9603 71.88 79.8203 71.01 81.4703C70.44 80.4203 69.87 79.0403 69.33 77.5703C70.44 76.9403 71.7 76.4303 73.2 76.1903ZM78.87 71.7803C79.08 70.9403 79.41 69.2603 79.68 68.3903L74.7 67.9103C74.73 68.6303 74.64 70.0403 74.46 71.0603C74.4 71.3903 74.34 71.7203 74.28 72.0803C72.18 72.2303 70.14 72.7103 68.04 73.7003C67.89 73.1603 67.74 72.6503 67.59 72.1403C67.35 71.2403 67.11 70.2503 66.93 69.1703L62.22 70.6403C62.82 71.9003 63.18 72.8003 63.54 73.9403C63.78 74.6903 64.02 75.4403 64.26 76.1603C61.62 78.6203 60 82.2503 60 85.6703C60 89.7203 62.49 91.9103 65.07 91.9103C67.26 91.9103 68.82 91.1903 70.89 89.0303L71.67 89.9303L75.3 87.0503C74.79 86.5703 74.28 86.0003 73.8 85.4303C75.42 82.8803 76.65 79.6703 77.61 76.4303C80.16 77.2703 81.66 79.4903 81.66 82.4603C81.66 85.6703 79.59 89.0603 72.87 89.6303L75.63 93.8003C81.72 92.8403 86.37 89.2103 86.37 82.7003C86.37 77.4203 83.31 73.6103 78.72 72.4403L78.87 71.7803Z" fill="#ECEFFF"/>
<path d="M102.87 89.7203C101.37 89.7203 100.38 89.0603 100.38 88.1303C100.38 87.5303 100.95 86.9603 101.91 86.9603C103.17 86.9603 104.07 88.0103 104.22 89.6603C103.8 89.6903 103.35 89.7203 102.87 89.7203ZM109.62 68.3903C109.23 68.5103 108.39 68.6303 106.98 68.7503C105.21 68.9003 99.27 68.9903 97.68 68.9903C96.69 68.9903 95.58 68.9303 94.65 68.8103L94.8 73.4603C95.52 73.3403 96.57 73.2503 97.47 73.1903C99.06 73.0703 102.12 72.9503 103.62 72.9203C102.18 74.2103 99.42 76.3403 97.77 77.7203C96 79.1603 92.55 82.1003 90.63 83.6003L93.9 86.9903C96.75 83.5103 99.87 80.9003 104.22 80.9003C107.49 80.9003 110.1 82.4903 110.1 85.0403C110.1 86.4803 109.53 87.6503 108.36 88.4603C107.85 85.6403 105.51 83.5403 101.88 83.5403C98.52 83.5403 96.12 85.9703 96.12 88.5803C96.12 91.8503 99.6 93.8003 103.8 93.8003C111.48 93.8003 114.84 89.7503 114.84 85.1003C114.84 80.6303 110.82 77.3603 105.72 77.3603C105 77.3603 104.43 77.3903 103.65 77.5403C105.27 76.2803 107.88 74.1503 109.56 73.0103C110.31 72.5003 111.06 72.0503 111.84 71.5703L109.62 68.3903Z" fill="#ECEFFF"/>
<path d="M141.66 74.2103C141 74.2103 140.88 74.1203 140.88 73.4303V73.3403H144.21C144.09 74.0603 143.94 74.2103 143.43 74.2103H141.66ZM142.32 70.6403H137.34V73.4603C137.34 76.2203 138.15 77.0303 141.09 77.0303H143.88C145.89 77.0303 146.82 76.4303 147.18 74.3303C146.28 74.1503 145.02 73.7603 144.36 73.3403H146.01V67.1303H136.8V69.8003H142.32V70.6403ZM131.79 74.2103C131.13 74.2103 131.01 74.1203 131.01 73.4303V73.3403H134.34C134.22 74.0603 134.07 74.2103 133.56 74.2103H131.79ZM132.39 70.6403H127.47V73.4603C127.47 76.2203 128.28 77.0303 131.22 77.0303H134.01C136.02 77.0303 136.95 76.4303 137.31 74.3303C136.41 74.1503 135.15 73.7603 134.49 73.3403H136.02V67.1303H127.08V69.8003H132.39V70.6403ZM126.3 71.9603C125.55 70.4903 123.75 68.4803 122.28 67.0403L118.83 69.2003C120.27 70.7603 121.95 72.9503 122.58 74.3903L126.3 71.9603ZM133.92 86.1803H139.89L137.67 87.4103C139.5 88.3103 141.45 89.5703 142.59 90.4403C138.69 90.5603 134.46 90.5603 131.85 90.4403C131.46 90.4103 131.07 90.3803 130.71 90.3503C132.69 89.5403 134.94 88.3103 136.35 87.0203L133.92 86.1803ZM135.48 81.5003H138.15V83.0303H135.48V81.5003ZM147.27 89.0003C146.04 88.1903 143.94 87.1103 142.02 86.1803H147.09V83.0303H142.29V81.5003H146.16V78.4103H142.29V77.1203H138.15V78.4103H135.48V77.1203H131.4V78.4103H127.65V81.5003H131.4V83.0303H126.81V86.1803H131.79C130.5 86.9003 128.7 87.5303 126.96 87.9803C127.71 88.4903 128.88 89.4203 129.69 90.1703C128.01 89.7803 126.81 88.9703 126.06 87.5903V77.9603H119.22V81.9803H122.01V87.9503C120.93 88.8503 119.76 89.6903 118.74 90.3803L120.75 94.5503C122.16 93.2303 123.27 92.1503 124.32 91.0103C126.09 93.3203 128.37 94.1303 131.85 94.2803C135.81 94.4603 142.53 94.4003 146.58 94.1903C146.79 92.9903 147.42 91.1003 147.87 90.1403C146.52 90.2603 144.9 90.3503 143.19 90.4103L147.27 89.0003Z" fill="#ECEFFF"/>
<path d="M160.47 79.2503L157.2 79.8503V75.9503H160.56V71.9303H157.2V66.3503H153.03V71.9303H149.34V75.9503H153.03V80.5403C151.47 80.8103 150.03 81.0203 148.83 81.2003L149.73 85.3703L153.03 84.7703V90.2303C153.03 90.6803 152.88 90.8303 152.43 90.8603C151.98 90.8603 150.57 90.8603 149.37 90.8003C149.88 91.9103 150.45 93.6803 150.57 94.7903C152.88 94.7903 154.5 94.6703 155.67 94.0103C156.84 93.3503 157.2 92.3003 157.2 90.2603V83.9603C158.43 83.7203 159.63 83.4803 160.83 83.2403L160.47 79.2503ZM172.26 72.0803V77.4203H165.96V72.0803H172.26ZM176.64 81.5003V67.9703H161.58V78.2003C161.58 82.5503 161.31 88.1903 157.74 91.8803C158.67 92.4203 160.44 94.0103 161.13 94.8803C164.43 91.5203 165.54 86.1203 165.84 81.5003H167.43C168.6 87.7403 170.55 92.4203 175.05 94.9403C175.68 93.7703 177.03 91.9703 178.05 91.1003C174.54 89.3903 172.71 85.7903 171.78 81.5003H176.64Z" fill="#ECEFFF"/>
<path d="M1181.68 37.5205H1185.13V33.4105H1181.68V27.3505H1177.51V33.4105H1173.49V37.5205H1176.97C1176.1 40.8205 1174.54 44.5105 1172.68 46.7905C1173.34 47.9005 1174.3 49.7005 1174.69 50.9305C1175.74 49.5205 1176.7 47.5705 1177.51 45.4405V55.8505H1181.68V44.1505C1182.34 45.2905 1182.94 46.4605 1183.33 47.3305L1185.76 43.8205C1185.19 43.0705 1182.76 39.9805 1181.68 38.8105V37.5205ZM1190.23 49.9405V46.8805H1196.14V49.9405H1190.23ZM1196.14 39.8905V42.9505H1190.23V39.8905H1196.14ZM1196.14 32.9905V35.9605H1190.23V32.9905H1196.14ZM1186.06 28.8805V55.5805H1190.23V53.8705H1196.14V55.3405H1200.52V28.8805H1186.06Z" fill="#ECEFFF"/>
<path d="M1231.21 42.7405H1219.6V39.9505H1229.38V35.7805H1219.6V32.4205C1222.81 32.0305 1225.87 31.5205 1228.63 30.8605L1225.48 27.2305C1220.35 28.4905 1212.34 29.2705 1205.05 29.5405C1205.47 30.5005 1206.01 32.2705 1206.13 33.3805C1208.98 33.2905 1212.01 33.1405 1215.04 32.8705V35.7805H1205.47V39.9505H1215.04V42.7405H1203.37V47.0005H1215.04V50.8105C1215.04 51.4105 1214.77 51.6205 1214.08 51.6205C1213.36 51.6205 1210.78 51.6205 1208.71 51.5305C1209.37 52.6705 1210.21 54.6205 1210.48 55.8505C1213.48 55.8805 1215.79 55.7605 1217.41 55.1005C1219.03 54.4405 1219.6 53.3305 1219.6 50.9005V47.0005H1231.21V42.7405Z" fill="#ECEFFF"/>
<path d="M1243.63 41.6605C1242.58 45.1105 1241.68 46.9105 1240.48 46.9105C1239.46 46.9105 1238.56 45.5605 1238.56 42.9805C1238.56 40.1305 1240.75 36.1405 1245.16 34.9405C1244.8 37.2805 1244.29 39.6505 1243.63 41.6605ZM1248.85 54.5005C1256.59 53.2105 1260.28 48.6205 1260.28 42.3805C1260.28 35.6305 1255.48 30.4105 1247.92 30.4105C1239.97 30.4105 1233.88 36.4105 1233.88 43.4605C1233.88 48.5305 1236.7 52.5205 1240.36 52.5205C1243.87 52.5205 1246.54 48.5305 1248.31 42.5905C1249.12 39.8605 1249.66 37.2505 1250.05 34.8505C1253.47 35.6605 1255.33 38.3905 1255.33 42.2305C1255.33 46.1305 1252.81 48.7705 1249.03 49.7005C1248.19 49.9105 1247.38 50.0905 1246.12 50.2405L1248.85 54.5005Z" fill="#ECEFFF"/>
<path d="M1290.16 32.2405H1279.51V27.3505H1274.92V32.2405H1264.48V36.5305H1290.16V32.2405ZM1275.22 48.5605C1274.86 45.4705 1273.78 41.0005 1272.43 37.4305L1268.26 38.5405C1269.46 42.0505 1270.51 46.7605 1270.72 49.7905L1275.22 48.5605ZM1283.05 50.3905C1284.25 47.0605 1285.57 42.6205 1286.53 38.2405L1281.52 37.3705C1280.98 41.6005 1279.72 46.8505 1278.43 50.3905H1263.52V54.7705H1291.09V50.3905H1283.05Z" fill="#ECEFFF"/>
<path d="M1315.48 31.8805H1308.79V30.9805H1315.48V31.8805ZM1315.48 35.5405H1308.79V34.6405H1315.48V35.5405ZM1319.5 28.0405H1304.95V38.4805H1319.5V28.0405ZM1316.77 47.3905C1316.5 50.3905 1316.17 51.7105 1315.81 52.1005C1315.57 52.4005 1315.33 52.4605 1314.94 52.4605C1314.64 52.4605 1314.16 52.4605 1313.56 52.4305C1314.67 50.8405 1315.63 49.0705 1316.29 47.3905H1316.77ZM1321.54 42.9505V39.3205H1302.49V42.9505H1305.43C1304.74 43.9705 1303.87 44.9005 1302.94 45.7105L1302.28 43.1005L1300.27 43.9405V37.6705H1302.79V33.5605H1300.27V27.8005H1296.22V33.5605H1293.46V37.6705H1296.22V45.5905C1294.9 46.1005 1293.7 46.5505 1292.74 46.8805L1294.33 51.2905C1296.37 50.3005 1298.74 49.1305 1301.08 47.9305C1301.86 48.5905 1302.82 49.4905 1303.3 50.0305C1304.41 49.3105 1305.49 48.4105 1306.48 47.3905H1307.53C1305.94 49.3105 1303.87 51.0805 1301.83 52.0705C1302.85 52.7005 1303.99 53.7505 1304.68 54.6205C1307.2 53.0305 1309.96 50.1205 1311.58 47.3905H1312.63C1311.34 49.8805 1309.42 52.2505 1307.26 53.5705C1308.34 54.1705 1309.6 55.1605 1310.35 55.9705C1311.37 55.1905 1312.36 54.0805 1313.26 52.8505C1313.68 53.7205 1313.92 54.8905 1313.98 55.7605C1315.24 55.7905 1316.35 55.7605 1317.07 55.6405C1317.88 55.5205 1318.6 55.2505 1319.23 54.5005C1320.04 53.5705 1320.52 51.1105 1320.91 45.4405C1320.97 44.9605 1321 44.0005 1321 44.0005H1309.12C1309.33 43.6705 1309.54 43.3105 1309.72 42.9505H1321.54Z" fill="#ECEFFF"/>
<path d="M1335.58 31.6705L1335.61 36.2905C1339.57 36.6205 1344.76 36.5905 1348.66 36.2905V31.6405C1345.33 32.0005 1339.45 32.1505 1335.58 31.6705ZM1334.53 44.3305C1334.2 45.7705 1333.99 47.0605 1333.99 48.4105C1333.99 51.5605 1336.57 53.5105 1341.76 53.5105C1345.27 53.5105 1347.64 53.3005 1349.59 52.9405L1349.5 48.0805C1346.8 48.6205 1344.67 48.8605 1342 48.8605C1339.57 48.8605 1338.34 48.3805 1338.34 47.0605C1338.34 46.2805 1338.43 45.6205 1338.64 44.6905L1334.53 44.3305ZM1326.61 29.4505C1326.58 30.5605 1326.37 31.9105 1326.25 32.8105C1325.95 35.0005 1325.08 39.9505 1325.08 44.5105C1325.08 48.5305 1325.68 52.2805 1326.28 54.2905L1330.42 54.0205C1330.39 53.5405 1330.39 53.0005 1330.39 52.6705C1330.39 52.4005 1330.48 51.6805 1330.57 51.2605C1330.9 49.5805 1331.83 46.3105 1332.73 43.6105L1330.54 41.9005C1330.15 42.7405 1329.79 43.3405 1329.4 44.1805C1329.37 44.0605 1329.37 43.5805 1329.37 43.4905C1329.37 40.7305 1330.45 34.4305 1330.78 32.9005C1330.9 32.3605 1331.35 30.5305 1331.62 29.8705L1326.61 29.4505Z" fill="#ECEFFF"/>
<path d="M1200.88 75.2605C1199.29 74.1505 1195.45 72.1105 1193.32 71.1805L1191.01 74.7505C1193.08 75.6505 1196.56 77.6605 1198.33 79.0405L1200.88 75.2605ZM1189.42 70.6405C1188.43 70.9405 1187.17 71.2405 1185.79 71.5105C1186.21 70.0105 1186.54 68.6605 1186.75 67.7305L1181.83 67.2505C1181.77 68.7805 1181.5 70.4905 1181.08 72.1105C1180.3 72.1705 1179.55 72.2005 1178.77 72.2005C1177.78 72.2005 1176.01 72.1405 1174.63 71.9905L1174.96 76.1305C1176.34 76.2205 1177.54 76.2505 1178.8 76.2505C1179.1 76.2505 1179.43 76.2505 1179.76 76.2205C1178.47 79.3105 1176.19 83.4805 1173.85 86.3905L1178.2 88.5805C1180.6 85.1305 1183.12 79.9705 1184.5 75.8005C1186.51 75.5005 1188.31 75.1105 1189.54 74.7805L1189.42 70.6405ZM1189.66 87.1705C1189.66 88.8205 1189.12 89.8705 1187.35 89.8705C1186.09 89.8705 1185.28 89.2105 1185.28 88.2505C1185.28 87.4105 1186.18 86.8105 1187.65 86.8105C1188.34 86.8105 1189.03 86.9005 1189.66 87.0205V87.1705ZM1189.18 77.0305C1189.27 78.7105 1189.39 81.1405 1189.51 83.2705C1189 83.2105 1188.49 83.1805 1187.95 83.1805C1183.36 83.1805 1181.02 85.7305 1181.02 88.7005C1181.02 92.1505 1184.08 93.9805 1188.01 93.9805C1192.39 93.9805 1193.95 91.8505 1194.04 89.0005C1195.51 90.0205 1196.71 91.1605 1197.64 92.0305L1200.01 88.1605C1198.54 86.7805 1196.44 85.2805 1193.86 84.2905C1193.8 83.0605 1193.74 81.8905 1193.71 81.2005C1193.68 79.7305 1193.62 78.3205 1193.71 77.0305H1189.18Z" fill="#ECEFFF"/>
<path d="M1206.37 78.8605L1208.2 83.5405C1211.11 82.2805 1216.69 79.9705 1220.02 79.9705C1222.36 79.9705 1223.86 81.3505 1223.86 83.3905C1223.86 86.9905 1219.18 88.7605 1212.22 88.9405L1214.14 93.3805C1224.37 92.7505 1228.66 88.6405 1228.66 83.4805C1228.66 78.7105 1225.45 75.7705 1220.47 75.7705C1216.81 75.7705 1211.71 77.4505 1209.73 78.0505C1208.86 78.3205 1207.24 78.7105 1206.37 78.8605Z" fill="#ECEFFF"/>
<path d="M1232.81 71.0305L1233.26 75.9205C1236.83 75.1405 1242.05 74.5405 1244.6 74.2705C1243.01 75.7105 1240.85 78.8605 1240.85 82.9405C1240.85 89.2705 1246.52 92.8705 1253.15 93.3805L1254.83 88.3705C1249.7 88.0705 1245.59 86.3605 1245.59 81.9805C1245.59 78.4705 1248.35 74.9905 1251.56 74.2705C1253.21 73.9405 1255.73 73.9405 1257.26 73.9105L1257.23 69.2905C1255.07 69.3805 1251.56 69.5605 1248.59 69.8005C1243.16 70.2805 1238.66 70.6405 1235.87 70.8805C1235.3 70.9405 1234.01 71.0005 1232.81 71.0305Z" fill="#ECEFFF"/>
<path d="M1275.68 72.7405H1279.46C1278.8 73.3405 1278.11 73.9405 1277.39 74.5105H1275.68V72.7405ZM1288.97 78.1405V74.5105H1283.15C1284.83 72.8905 1286.39 71.1505 1287.77 69.3505L1284.23 67.4605C1283.42 68.5705 1282.52 69.6505 1281.53 70.7005V69.2305H1275.68V66.3505H1271.36V69.2305H1264.76V72.7405H1271.36V74.5105H1262.48V78.1405H1272.29C1271.57 78.5905 1270.85 79.0405 1270.1 79.4605L1269.14 79.3405L1268.99 80.0305C1266.47 81.3805 1263.8 82.5505 1261.1 83.4805C1261.88 84.2605 1263.17 85.9405 1263.74 86.8105C1265.12 86.2705 1266.5 85.6405 1267.85 84.9805C1267.46 86.5105 1267.07 87.9505 1266.68 89.0905L1271.03 89.6905C1271.15 89.3005 1271.27 88.8505 1271.39 88.4005H1280.9C1280.54 89.6905 1280.15 90.4405 1279.73 90.7405C1279.37 90.9805 1278.95 91.0405 1278.41 91.0405C1277.6 91.0405 1275.71 90.9805 1274.09 90.8305C1274.84 91.9705 1275.38 93.6205 1275.44 94.8505C1277.24 94.9105 1278.92 94.8805 1279.94 94.7905C1281.35 94.7005 1282.28 94.4605 1283.18 93.5905C1284.23 92.6305 1285.01 90.5605 1285.7 86.6605C1285.85 86.0605 1285.94 84.9205 1285.94 84.9205H1272.29L1272.56 83.7505C1277.03 83.4805 1282.04 82.9105 1285.82 81.8905L1283.21 79.0705C1281.29 79.6105 1278.65 80.0605 1275.83 80.3905C1276.91 79.6705 1277.93 78.9205 1278.95 78.1405H1288.97Z" fill="#ECEFFF"/>
<path d="M1300.19 67.4005L1299.5 71.5705C1303.01 72.1105 1308.74 72.7405 1311.95 72.9805L1312.52 68.7805C1309.31 68.5705 1303.58 67.9705 1300.19 67.4005ZM1313.81 77.3605L1311.2 74.4205C1310.87 74.5405 1309.97 74.7205 1309.4 74.7805C1306.79 75.1105 1300.16 75.3205 1298.9 75.3205C1297.76 75.3205 1296.56 75.2605 1295.87 75.2005L1296.29 80.1505C1296.92 80.0305 1297.91 79.8505 1298.96 79.7605C1300.61 79.6105 1303.34 79.3705 1305.26 79.3405C1302.68 82.1605 1297.76 87.0505 1296.02 88.7905C1295.12 89.6905 1294.28 90.4105 1293.65 90.9205L1297.88 93.8605C1300.13 91.0105 1301.78 89.1505 1302.77 88.1005C1303.49 87.3505 1304.09 86.8405 1304.54 86.8405C1305.05 86.8405 1305.68 87.1405 1306.01 88.1905C1306.19 88.8805 1306.49 90.0805 1306.82 90.9505C1307.57 92.8705 1309.16 93.5005 1312.19 93.5005C1313.69 93.5005 1316.93 93.3205 1318.16 93.1105L1318.46 88.4005C1316.9 88.6705 1314.98 88.8805 1312.52 88.8805C1311.56 88.8805 1310.93 88.4305 1310.69 87.6205C1310.45 86.9605 1310.21 86.0305 1309.94 85.2805C1309.55 84.2305 1309.1 83.6605 1308.41 83.3305C1308.05 83.1505 1307.51 83.0005 1307.27 83.0005C1307.75 82.4605 1310.24 80.2105 1311.71 78.9805C1312.34 78.4705 1312.91 77.9905 1313.81 77.3605Z" fill="#ECEFFF"/>
<path d="M1334.47 89.7205C1332.97 89.7205 1331.98 89.0605 1331.98 88.1305C1331.98 87.5305 1332.55 86.9605 1333.51 86.9605C1334.77 86.9605 1335.67 88.0105 1335.82 89.6605C1335.4 89.6905 1334.95 89.7205 1334.47 89.7205ZM1341.22 68.3905C1340.83 68.5105 1339.99 68.6305 1338.58 68.7505C1336.81 68.9005 1330.87 68.9905 1329.28 68.9905C1328.29 68.9905 1327.18 68.9305 1326.25 68.8105L1326.4 73.4605C1327.12 73.3405 1328.17 73.2505 1329.07 73.1905C1330.66 73.0705 1333.72 72.9505 1335.22 72.9205C1333.78 74.2105 1331.02 76.3405 1329.37 77.7205C1327.6 79.1605 1324.15 82.1005 1322.23 83.6005L1325.5 86.9905C1328.35 83.5105 1331.47 80.9005 1335.82 80.9005C1339.09 80.9005 1341.7 82.4905 1341.7 85.0405C1341.7 86.4805 1341.13 87.6505 1339.96 88.4605C1339.45 85.6405 1337.11 83.5405 1333.48 83.5405C1330.12 83.5405 1327.72 85.9705 1327.72 88.5805C1327.72 91.8505 1331.2 93.8005 1335.4 93.8005C1343.08 93.8005 1346.44 89.7505 1346.44 85.1005C1346.44 80.6305 1342.42 77.3605 1337.32 77.3605C1336.6 77.3605 1336.03 77.3905 1335.25 77.5405C1336.87 76.2805 1339.48 74.1505 1341.16 73.0105C1341.91 72.5005 1342.66 72.0505 1343.44 71.5705L1341.22 68.3905Z" fill="#ECEFFF"/>
<path d="M1827.3 43.9956C1833.53 44.4516 1840.14 44.8316 1848.2 44.8316C1855.49 44.8316 1865.45 44.3756 1870.77 43.9196V31.6836C1864.84 32.2916 1855.64 32.7476 1848.12 32.7476C1839.99 32.7476 1832.92 32.4436 1827.3 31.8356V43.9956ZM1823.5 63.5276C1822.96 66.2636 1822.05 69.9876 1822.05 74.6236C1822.05 85.4156 1830.56 91.6476 1848.88 91.6476C1859.37 91.6476 1868.11 90.7356 1875.33 89.1396L1875.25 76.2196C1868.03 78.0436 1858.46 79.1836 1848.42 79.1836C1838.24 79.1836 1834.36 75.9916 1834.36 71.7356C1834.36 69.3036 1834.9 67.1756 1835.5 64.5916L1823.5 63.5276Z" fill="#ECEFFF"/>
<path d="M1903.3 43.9956C1909.53 44.4516 1916.14 44.8316 1924.2 44.8316C1931.49 44.8316 1941.45 44.3756 1946.77 43.9196V31.6836C1940.84 32.2916 1931.64 32.7476 1924.12 32.7476C1915.99 32.7476 1908.92 32.4436 1903.3 31.8356V43.9956ZM1899.5 63.5276C1898.96 66.2636 1898.05 69.9876 1898.05 74.6236C1898.05 85.4156 1906.56 91.6476 1924.88 91.6476C1935.37 91.6476 1944.11 90.7356 1951.33 89.1396L1951.25 76.2196C1944.03 78.0436 1934.46 79.1836 1924.42 79.1836C1914.24 79.1836 1910.36 75.9916 1910.36 71.7356C1910.36 69.3036 1910.9 67.1756 1911.5 64.5916L1899.5 63.5276Z" fill="#ECEFFF"/>
<path d="M1997 33.9636L1997.08 45.6676C2007.11 46.5036 2020.26 46.4276 2030.14 45.6676V33.8876C2021.7 34.7996 2006.81 35.1796 1997 33.9636ZM1994.34 66.0356C1993.51 69.6836 1992.98 72.9516 1992.98 76.3716C1992.98 84.3516 1999.51 89.2916 2012.66 89.2916C2021.55 89.2916 2027.56 88.7596 2032.5 87.8476L2032.27 75.5356C2025.43 76.9036 2020.03 77.5116 2013.27 77.5116C2007.11 77.5116 2004 76.2956 2004 72.9516C2004 70.9756 2004.22 69.3036 2004.76 66.9476L1994.34 66.0356ZM1974.28 28.3396C1974.2 31.1516 1973.67 34.5716 1973.37 36.8516C1972.61 42.3996 1970.4 54.9396 1970.4 66.4916C1970.4 76.6756 1971.92 86.1756 1973.44 91.2676L1983.93 90.5836C1983.86 89.3676 1983.86 87.9996 1983.86 87.1636C1983.86 86.4796 1984.08 84.6556 1984.31 83.5916C1985.15 79.3356 1987.5 71.0516 1989.78 64.2116L1984.24 59.8796C1983.25 62.0076 1982.34 63.5276 1981.35 65.6556C1981.27 65.3516 1981.27 64.1356 1981.27 63.9076C1981.27 56.9156 1984.01 40.9556 1984.84 37.0796C1985.15 35.7116 1986.29 31.0756 1986.97 29.4036L1974.28 28.3396Z" fill="#ECEFFF"/>
<path d="M2060.69 33.1276L2046.71 32.9756C2047.24 35.6356 2047.39 38.8276 2047.39 41.1076C2047.39 45.8956 2047.47 54.4836 2048.23 61.6276C2050.36 82.2236 2057.73 89.8236 2066.62 89.8236C2073.23 89.8236 2078.02 85.1116 2083.26 71.8116L2074.07 60.5636C2073 65.6556 2070.34 75.0796 2066.85 75.0796C2062.52 75.0796 2061 68.1636 2060.08 58.2836C2059.63 53.2676 2059.63 48.3276 2059.63 43.3876C2059.63 41.1836 2060.08 36.3196 2060.69 33.1276ZM2097.48 34.5716L2085.85 38.3716C2094.66 47.9476 2098.31 67.1756 2099.38 78.4996L2111.46 73.8636C2110.85 62.9956 2104.85 43.2356 2097.48 34.5716Z" fill="#ECEFFF"/>
<path d="M2155.54 60.4116C2160.33 59.8036 2164.96 59.5756 2170.44 59.5756C2175.07 59.5756 2179.78 60.1076 2183.51 60.5636L2183.74 49.6196C2179.18 49.1636 2174.62 48.9356 2170.44 48.9356C2165.5 48.9356 2159.87 49.3156 2155.54 49.7716V60.4116ZM2162.08 33.8116C2158.28 34.7236 2154.4 35.4836 2150.52 36.0916L2150.83 34.7996C2151.21 33.0516 2151.97 29.4036 2152.58 27.0476L2138.67 25.9836C2138.9 27.8836 2138.82 31.2276 2138.44 34.4196C2138.36 35.3316 2138.21 36.3196 2137.98 37.4596C2136.01 37.5356 2133.96 37.6116 2131.98 37.6116C2128.71 37.6116 2126.36 37.4596 2122.25 37.0036L2122.56 48.3276C2125.14 48.4796 2128.03 48.6316 2131.9 48.6316C2133.12 48.6316 2134.41 48.6316 2135.7 48.5556C2135.32 50.3036 2134.79 52.1276 2134.34 53.8756C2131.52 64.3636 2125.6 80.3996 2121.11 87.8476L2133.8 92.1036C2138.06 82.8316 2143.08 67.5556 2145.81 57.0676C2146.57 54.1036 2147.33 50.7596 2148.09 47.5676C2152.96 47.0356 2157.82 46.1996 2162.08 45.2116V33.8116ZM2150.52 68.0116C2149.92 70.8236 2149.16 74.9276 2149.16 78.7276C2149.16 86.4036 2155.77 91.1916 2168.92 91.1916C2175.22 91.1916 2180.32 90.6596 2184.65 90.1276L2185.1 78.4996C2179.33 79.4876 2174.08 80.0956 2168.99 80.0956C2162.38 80.0956 2160.4 78.1196 2160.4 75.0036C2160.4 73.4836 2160.86 70.9756 2161.39 68.9996L2150.52 68.0116Z" fill="#ECEFFF"/>
<path d="M2219.3 25.2236H2197.34V33.4316H2219.3V25.2236ZM2210.49 77.4356V83.8956H2205.78V77.4356H2210.49ZM2219.84 68.8476H2196.58V95.2196H2205.78V92.4836H2219.84V68.8476ZM2196.88 66.1116H2219.15V57.9036H2196.88V66.1116ZM2219.15 47.1116H2196.88V55.3196H2219.15V47.1116ZM2193.16 44.5276H2221.96V35.9396H2193.16V44.5276ZM2251.45 82.2236V63.7556H2263.54V53.3436H2251.45V36.9276H2263.99V26.5156H2224.24V36.9276H2240.58V82.2236H2236.71V47.2636H2226.45V82.2236H2222.34V92.6356H2265.51V82.2236H2251.45Z" fill="#ECEFFF"/>
<path d="M277.712 22.9443C275.204 27.5803 269.96 33.5843 265.248 37.1563C266.92 39.2083 269.428 43.3883 270.644 45.6683C276.648 40.9563 283.184 33.5843 287.592 26.6683L277.712 22.9443ZM307.656 79.6403V71.9643H313.964V62.7683H307.656V57.4483H314.192V47.5683H307.656V40.1203H314.116V30.3923H299.22C299.676 28.5683 300.132 26.7443 300.512 24.9203L291.088 23.0203C289.872 29.7843 287.516 36.7763 284.4 41.4883L278.7 39.4363C275.432 46.7323 270.036 54.2563 264.868 59.1203C266.616 61.4763 269.58 66.9483 270.568 69.3043C271.632 68.2403 272.62 67.1003 273.684 65.8843V95.2963H283.64V51.5203C285.008 49.1643 286.3 46.7323 287.44 44.4523C289.188 45.4403 290.936 46.5803 292 47.4163C293.368 45.3643 294.66 42.8563 295.8 40.1203H298.156V47.5683H287.136V57.4483H298.156V80.6283L295.952 80.7803V60.7923H287.668V81.5403L284.476 81.8443L286.604 91.7243C294.584 90.7363 304.844 89.4443 314.496 88.0763L314.192 78.9563L307.656 79.6403ZM337.296 28.6443H315.484V95.2963H325.212V38.2203H327.644V74.7003C327.644 75.3843 327.492 75.5363 327.112 75.5363H325.212C326.504 78.1963 327.796 82.8323 327.948 85.6443C330.836 85.6443 332.812 85.3403 334.864 83.5923C336.992 81.7683 337.296 78.7283 337.296 75.0043V28.6443Z" fill="#ECEFFF"/>
<path d="M384.872 63.1483V55.6243H398.4V63.1483H384.872ZM361.236 63.1483C361.388 60.4883 361.464 57.9803 361.464 55.6243H373.7V63.1483H361.236ZM373.7 38.4483V45.3643H361.464V38.4483H373.7ZM398.4 45.3643H384.872V38.4483H398.4V45.3643ZM409.42 27.9603H350.52V55.0923C350.52 65.8083 349.912 79.4883 341.628 88.5323C344.06 89.9003 348.62 93.6243 350.368 95.6763C355.688 89.9763 358.576 81.8443 360.02 73.5603H373.7V94.1563H384.872V73.5603H398.4V82.6803C398.4 83.9723 397.868 84.4283 396.5 84.4283C395.132 84.4283 390.192 84.5043 386.468 84.2003C387.912 87.0123 389.584 91.8003 389.964 94.7643C396.728 94.8403 401.44 94.6123 404.936 92.8643C408.28 91.1923 409.42 88.3043 409.42 82.8323V27.9603Z" fill="#ECEFFF"/>
<path d="M441.872 33.3563V35.7883H432.6V33.3563H441.872ZM432.6 45.2883V42.6283H441.872V45.2883H432.6ZM452.208 52.8883V25.7563H421.808V95.2203H432.6V52.8883H452.208ZM466.648 45.5163V42.6283H476.224V45.5163H466.648ZM476.224 33.3563V35.7883H466.648V33.3563H476.224ZM449.244 82.1483V79.1083H458.668V81.5403L449.244 82.1483ZM458.668 62.8443V65.0483H449.244V62.8443H458.668ZM449.244 70.9003H458.668V73.2563H449.244V70.9003ZM487.092 25.7563H456.16V53.1163H476.224V82.7563C476.224 83.8203 475.844 84.2003 474.856 84.2003C473.868 84.2003 471.056 84.2003 468.548 84.0483V62.8443H472.5V55.4723H435.868V62.8443H439.668V82.7563L435.032 82.9843L435.488 91.0403C442.024 90.5083 450.308 89.9003 458.668 89.2163V92.9403H468.548V85.5683C469.688 88.4563 470.752 92.4083 470.98 94.9163C476.528 94.9923 480.328 94.6883 483.368 92.8643C486.332 91.0403 487.092 88.0003 487.092 82.9083V25.7563Z" fill="#ECEFFF"/>
<path d="M505.94 66.1123C505.028 69.0003 504.04 73.2563 504.04 76.7523C504.04 87.8483 513.084 92.7123 527.6 92.7123C535.808 92.7123 543.712 91.8763 547.588 91.1923L547.968 79.5643C542.724 80.5523 535.048 81.2363 527.296 81.2363C518.1 81.2363 515.44 78.2723 515.44 74.2443C515.44 72.4203 516.276 69.3803 517.188 67.1003L505.94 66.1123ZM556.632 43.6163C553.288 44.8323 549.108 46.1243 543.332 47.2643L542.42 45.1363C541.964 44.0723 541.432 42.9323 540.976 41.7923C545.612 40.9563 549.336 39.9683 553.136 38.8283L551.236 28.7203C546.752 30.2403 542.116 31.3043 537.176 32.1403C536.264 29.6323 535.58 27.2003 535.124 25.0723L522.128 27.5043C523.42 29.4803 524.408 31.0763 525.548 33.4323C519.24 33.6603 512.172 33.3563 503.888 32.4443L504.496 42.7803C513.464 43.6923 522.736 43.6923 530.032 43.1603L532.008 47.7203L532.464 48.8603C524.256 49.6203 514.452 49.6203 503.356 48.5563L503.812 58.9683C515.06 59.7283 527.22 59.5763 536.568 58.5883C537.328 60.4123 538.164 62.4643 539.152 64.6683C537.252 64.5163 534.592 64.2883 532.008 64.0603L531.02 72.7243C536.188 73.3323 544.016 74.5483 548.424 75.4603L553.744 68.6203C551.54 64.4403 549.564 60.3363 547.816 56.6883C551.92 55.8523 555.796 54.9403 558.76 53.8763L556.632 43.6163Z" fill="#ECEFFF"/>
<path d="M624.88 48.4803L618.268 51.2163C620.7 54.7123 621.992 57.2203 624.044 61.6283L630.808 58.6643C629.44 55.8523 626.78 51.2923 624.88 48.4803ZM633.468 44.8323L626.932 47.7963C629.44 51.2163 630.884 53.5723 633.088 57.9043L639.776 54.7123C638.256 51.9763 635.444 47.5683 633.468 44.8323ZM573.428 34.8763L574.568 47.2643C583.612 45.2883 596.836 43.7683 603.296 43.0843C599.268 46.7323 593.796 54.7123 593.796 65.0483C593.796 81.0843 608.16 90.2043 624.956 91.4963L629.212 78.8043C616.216 78.0443 605.804 73.7123 605.804 62.6163C605.804 53.7243 612.796 44.9083 620.928 43.0843C625.108 42.2483 631.492 42.2483 635.368 42.1723L635.292 30.4683C629.82 30.6963 620.928 31.1523 613.404 31.7603C599.648 32.9763 588.248 33.8883 581.18 34.4963C579.736 34.6483 576.468 34.8003 573.428 34.8763Z" fill="#ECEFFF"/>
<path d="M678.384 83.8963C688.112 86.7843 699.968 91.8003 706.656 96.0563L713.04 87.4683C705.896 83.6683 694.42 78.8043 684.692 76.2203L678.384 83.8963ZM686.592 70.8243C692.064 72.9523 698.752 76.8283 702.4 79.7923L708.632 72.1163C704.832 69.3803 698.22 65.8843 692.672 63.9083L686.592 70.8243ZM701.488 39.2083C699.968 41.5643 698.22 43.8443 696.244 45.8963C694.192 43.7683 692.444 41.5643 690.924 39.2083H701.488ZM661.208 55.7003C662.272 54.3323 663.412 52.8883 664.552 51.3683C665.16 52.6603 665.768 54.1043 666.376 55.4723L661.208 55.7003ZM709.088 29.4803L707.34 29.8603H695.864C696.7 28.1883 697.46 26.5163 698.22 24.8443L687.504 23.0203C684.692 30.3163 679.372 38.6003 671.012 44.8323C673.368 46.2763 676.864 49.7723 678.46 52.0523C680.664 50.2283 682.716 48.2523 684.54 46.2763C685.984 48.3283 687.428 50.3043 689.024 52.1283C685.148 54.9403 680.892 57.2963 676.408 59.1203C675.116 55.3963 673.216 51.2163 671.316 47.7203L665.464 50.1523C668.808 45.5923 672.152 40.7283 675.04 36.3203L666.148 32.2923C664.476 35.8643 662.272 39.8923 659.84 43.9203C659.384 43.3123 658.852 42.6283 658.32 42.0203C660.98 37.7643 664.02 31.9123 666.832 26.5923L657.332 23.0963C656.192 26.9723 654.292 31.7603 652.316 35.9403L650.948 34.6483L645.78 42.2483C648.744 45.1363 652.088 49.0123 654.292 52.3563C653.38 53.6483 652.468 54.8643 651.556 56.0043L645.78 56.2323L646.692 65.7323L657.256 65.0483V69.9123L648.516 68.3923C648.06 74.7003 646.996 81.5403 645.02 85.9483C647.3 86.7843 651.404 88.6843 653.304 89.9003C655.052 85.7203 656.496 79.3363 657.256 73.0283V95.2203H666.832V73.7123C668.048 77.5123 669.264 81.5403 669.872 84.4283L677.928 81.5403C677.016 77.7403 675.04 72.1163 673.292 67.7083L666.832 69.8363V64.3643L669.34 64.2123C669.72 65.4283 669.948 66.5683 670.1 67.6323L676.864 64.5923C678.08 66.1883 679.144 67.8603 679.752 69.0763C685.528 66.7203 691.228 63.5283 696.32 59.4243C701.184 63.5283 706.732 66.8723 712.888 69.3043C714.408 66.5683 717.6 62.4643 719.88 60.3363C714.028 58.5123 708.556 55.7763 703.844 52.4323C708.86 47.0363 712.964 40.5763 715.852 33.2803L709.088 29.4803Z" fill="#ECEFFF"/>
<path d="M750.128 46.7323C751.496 44.7563 753.244 42.0963 754.232 40.8043L751.344 37.0043C751.952 32.4443 752.56 28.6443 753.092 26.2883L739.868 25.9083C740.324 28.4923 740.248 30.9243 740.248 33.2803C740.248 34.0403 740.172 35.9403 740.02 38.2963C737.208 38.7523 734.472 38.9803 732.42 39.1323C729.304 39.2843 727.404 39.2843 724.972 39.2083L726.112 50.8363C730.14 50.3043 735.384 49.6203 739.26 49.1643L739.032 53.1923C734.548 59.6523 727.48 68.7723 723.224 74.0163L730.292 84.0483C732.344 81.2363 735.384 76.6003 738.272 72.4203C738.12 77.2083 738.044 81.1603 737.968 85.7203C737.968 86.9363 737.892 90.0523 737.74 91.9523H750.204C749.976 90.1283 749.672 86.8603 749.596 85.4923C749.064 78.2723 749.064 70.9003 749.064 65.2003C749.064 63.6043 749.064 62.0083 749.14 60.2603C755.22 54.8643 761.68 51.3683 769.28 51.3683C775.436 51.3683 780.224 55.4723 780.224 61.4003C780.224 72.4963 771.864 77.5123 758.412 79.6403L763.808 90.6603C783.796 86.6323 792.46 76.9043 792.46 61.6283C792.46 49.3163 783.416 40.6523 771.18 40.6523C764.644 40.6523 757.348 42.4763 750.052 47.5683L750.128 46.7323Z" fill="#ECEFFF"/>
<path d="M818.832 37.0803C824.76 38.6003 841.784 42.1723 849.688 43.2363L852.424 31.9883C845.812 31.2283 829.244 28.4923 821.72 26.1363L818.832 37.0803ZM823.392 42.0203L811.156 40.3483C810.624 50.5323 808.876 64.6683 807.432 72.3443L817.844 74.9283C818.604 73.2563 819.44 72.0403 820.96 70.2163C825.368 64.8963 832.74 62.0083 840.416 62.0083C846.42 62.0083 850.524 65.2003 850.524 69.4563C850.524 78.6523 838.364 83.4403 816.4 80.1723L819.972 92.1043C853.108 94.9923 863.368 83.6683 863.368 69.6843C863.368 60.4883 855.692 51.6723 841.556 51.6723C834.336 51.6723 827.268 53.5723 820.732 57.7523C821.112 53.7243 822.404 45.7443 823.392 42.0203Z" fill="#ECEFFF"/>
<path d="M929.144 41.9443L929.296 35.1043C929.372 32.9003 929.6 29.1763 929.828 28.0363H917.592C917.82 29.5563 918.2 33.5843 918.2 35.6363V42.8563C912.044 43.3883 905.508 43.9963 899.656 44.5283C899.732 42.2483 899.732 40.2723 899.732 38.9803C899.732 35.3323 899.884 33.1283 900.264 30.2403H887.42C887.8 33.0523 888.104 36.0923 888.104 39.6643V45.6683L883.924 46.0483C879.516 46.4283 875.64 46.5803 873.664 46.5803L874.804 58.1323C876.78 57.8283 882.252 56.9923 884.684 56.6883L888.104 56.3083C888.104 63.0723 888.104 69.9883 888.18 73.1803C888.484 86.7843 891.22 90.9643 911.892 90.9643C918.808 90.9643 928.004 90.3563 933.096 89.7483L933.552 77.2083C927.548 78.3483 917.896 79.2603 910.98 79.2603C900.644 79.2603 899.732 78.2723 899.58 71.2803C899.504 67.9363 899.504 61.4763 899.58 55.0923C905.432 54.4843 911.968 53.8763 918.048 53.3443C917.972 56.2323 917.82 58.8163 917.592 60.6403C917.44 61.9323 916.832 62.1603 915.54 62.1603C914.172 62.1603 911.132 61.7043 908.928 61.3243L908.7 71.2803C911.664 71.7363 918.2 72.4963 920.784 72.4963C924.888 72.4963 926.94 71.5083 927.776 67.1763C928.384 64.1363 928.688 58.3603 928.84 52.5083C930.512 52.4323 931.956 52.3563 933.248 52.2803C935.3 52.2043 939.86 52.0523 941.304 52.1283V41.0323C938.796 41.2603 935.376 41.4883 933.324 41.6403L929.144 41.9443Z" fill="#ECEFFF"/>
<path d="M1019.28 45.5923C1015.25 42.7803 1005.52 37.6123 1000.13 35.2563L994.276 44.3003C999.52 46.5803 1008.34 51.6723 1012.82 55.1683L1019.28 45.5923ZM990.248 33.8883C987.74 34.6483 984.548 35.4083 981.052 36.0923C982.116 32.2923 982.952 28.8723 983.484 26.5163L971.02 25.3003C970.868 29.1763 970.184 33.5083 969.12 37.6123C967.144 37.7643 965.244 37.8403 963.268 37.8403C960.76 37.8403 956.276 37.6883 952.78 37.3083L953.616 47.7963C957.112 48.0243 960.152 48.1003 963.344 48.1003C964.104 48.1003 964.94 48.1003 965.776 48.0243C962.508 55.8523 956.732 66.4163 950.804 73.7883L961.824 79.3363C967.904 70.5963 974.288 57.5243 977.784 46.9603C982.876 46.2003 987.436 45.2123 990.552 44.3763L990.248 33.8883ZM990.856 75.7643C990.856 79.9443 989.488 82.6043 985.004 82.6043C981.812 82.6043 979.76 80.9323 979.76 78.5003C979.76 76.3723 982.04 74.8523 985.764 74.8523C987.512 74.8523 989.26 75.0803 990.856 75.3843V75.7643ZM989.64 50.0763C989.868 54.3323 990.172 60.4883 990.476 65.8843C989.184 65.7323 987.892 65.6563 986.524 65.6563C974.896 65.6563 968.968 72.1163 968.968 79.6403C968.968 88.3803 976.72 93.0163 986.676 93.0163C997.772 93.0163 1001.72 87.6203 1001.95 80.4003C1005.68 82.9843 1008.72 85.8723 1011.07 88.0763L1017.08 78.2723C1013.35 74.7763 1008.03 70.9763 1001.5 68.4683C1001.34 65.3523 1001.19 62.3883 1001.12 60.6403C1001.04 56.9163 1000.89 53.3443 1001.12 50.0763H989.64Z" fill="#ECEFFF"/>
<path d="M1044.21 33.1283L1030.22 32.9763C1030.76 35.6363 1030.91 38.8283 1030.91 41.1083C1030.91 45.8963 1030.98 54.4843 1031.74 61.6283C1033.87 82.2243 1041.24 89.8243 1050.14 89.8243C1056.75 89.8243 1061.54 85.1123 1066.78 71.8123L1057.58 60.5643C1056.52 65.6563 1053.86 75.0803 1050.36 75.0803C1046.03 75.0803 1044.51 68.1643 1043.6 58.2843C1043.14 53.2683 1043.14 48.3283 1043.14 43.3883C1043.14 41.1843 1043.6 36.3203 1044.21 33.1283ZM1080.99 34.5723L1069.36 38.3723C1078.18 47.9483 1081.83 67.1763 1082.89 78.5003L1094.98 73.8643C1094.37 62.9963 1088.36 43.2363 1080.99 34.5723Z" fill="#ECEFFF"/>
<path d="M1425.59 23.3242C1421.94 33.8122 1415.63 44.3002 1409.1 50.9122C1410.92 53.6482 1413.88 59.8042 1414.87 62.5402C1415.94 61.4002 1417.08 60.1082 1418.14 58.7402V95.1442H1428.63V42.7042C1431.52 37.4602 1434.02 31.9122 1436 26.5922L1425.59 23.3242ZM1461.84 61.0202V48.2522H1469.21V61.0202H1461.84ZM1443.6 61.0202V48.2522H1450.82V61.0202H1443.6ZM1461.84 38.0682V24.0082H1450.82V38.0682H1433.19V75.6882H1443.6V71.2042H1450.82V95.1442H1461.84V71.2042H1469.21V75.0042H1480.16V38.0682H1461.84Z" fill="#ECEFFF"/>
<path d="M1509.72 33.5842V36.1682H1500.75V33.5842H1509.72ZM1500.75 46.4282V43.4642H1509.72V46.4282H1500.75ZM1520.06 54.1802V25.7562H1489.81V95.2202H1500.75V54.1802H1520.06ZM1534.72 46.6562V43.4642H1544.07V46.6562H1534.72ZM1544.07 33.5842V36.1682H1534.72V33.5842H1544.07ZM1517.24 80.1722V76.9802H1526.9V80.1722H1517.24ZM1526.9 66.1122V69.3042H1517.24V66.1122H1526.9ZM1555.24 25.7562H1524.24V54.4082H1544.07V82.4522C1544.07 83.7442 1543.62 84.2002 1542.25 84.2002C1541.41 84.2002 1539.44 84.2002 1537.23 84.2002V58.1322H1507.29V92.0282H1517.24V88.1522H1534.42C1535.26 90.6602 1535.94 93.3202 1536.17 95.2202C1542.86 95.2202 1547.42 94.9922 1550.84 93.1682C1554.18 91.3442 1555.24 88.2282 1555.24 82.6042V25.7562Z" fill="#ECEFFF"/>
<path d="M1587.46 48.5302C1587.43 47.2102 1587.37 45.2002 1587.34 43.5802C1588.9 42.8902 1590.34 42.3202 1591.48 41.9002C1592.62 41.4502 1594.48 40.7602 1595.53 40.4602L1593.76 36.3202C1592.5 36.9202 1591.27 37.4902 1589.98 38.0602C1588.93 38.5402 1587.97 38.9302 1586.77 39.5002C1585.99 38.1202 1584.55 37.4002 1582.81 37.4002C1581.97 37.4002 1580.47 37.5202 1579.87 37.7002C1580.26 37.1002 1580.65 36.3802 1581.01 35.6002C1584.19 35.4802 1587.82 35.2102 1590.61 34.8502L1590.64 30.6802C1588.15 31.1302 1585.3 31.3702 1582.63 31.5202C1582.96 30.4102 1583.17 29.4802 1583.29 28.8202L1578.55 28.4302C1578.52 29.1802 1578.37 30.3202 1578.04 31.6702H1576.87C1575.28 31.6702 1573 31.5502 1571.53 31.3102V35.4802C1573.09 35.6302 1575.25 35.6902 1576.48 35.6902C1575.04 38.4202 1572.94 40.8502 1570.12 43.3402L1573.96 46.2202C1574.98 44.8702 1575.82 43.7902 1576.72 42.8602C1577.74 41.8702 1579.57 40.8802 1581.1 40.8802C1581.67 40.8802 1582.27 41.0302 1582.72 41.4802C1579.42 43.2202 1575.88 45.7102 1575.88 49.5802C1575.88 53.5402 1579.39 54.8002 1584.28 54.8002C1587.22 54.8002 1591.03 54.5302 1592.86 54.2902L1593.01 49.6402C1590.4 50.2102 1587.01 50.5702 1584.37 50.5702C1581.58 50.5702 1580.65 50.0602 1580.65 48.8002C1580.65 47.6002 1581.46 46.6402 1583.32 45.5602C1583.29 46.6702 1583.23 47.7802 1583.17 48.5302H1587.46Z" fill="#ECEFFF"/>
<path d="M1602.97 38.7802H1604.32V40.8802H1602.97V38.7802ZM1608.94 40.8802H1607.56V38.7802H1608.94V40.8802ZM1612.51 47.5702C1612.03 47.0302 1610.41 45.3802 1609.12 44.1202H1612.27V35.5702H1607.86V34.1002H1612.27V30.2902H1607.86V27.4102H1604.02V30.2902H1599.43V34.1002H1604.02V35.5702H1599.85V44.1202H1603C1601.83 46.1002 1600.21 48.2002 1598.65 49.5202C1599.25 50.6002 1600.12 52.3702 1600.45 53.5402C1601.71 52.3702 1602.94 50.6602 1604.02 48.8302V55.8202H1607.86V47.6002C1608.7 48.7702 1609.51 50.0002 1610.02 50.9302L1612.51 47.5702ZM1622.38 38.2102H1617.52V36.9502H1622.38V38.2102ZM1622.38 42.4102H1617.52V41.1502H1622.38V42.4102ZM1622.38 46.6402H1617.52V45.3802H1622.38V46.6402ZM1626.49 49.8202V33.7702H1621.54C1621.72 33.2302 1621.93 32.6602 1622.14 32.0902H1627.36V28.4002H1612.63V32.0902H1617.58C1617.52 32.6302 1617.43 33.2302 1617.34 33.7702H1613.62V49.8202H1615.63C1614.25 51.0202 1611.94 52.4602 1609.9 53.2102C1610.8 53.9302 1612.03 55.1602 1612.72 55.9402C1615 55.0402 1617.76 53.3002 1619.41 51.7402L1616.5 49.8202H1623.25L1620.13 51.7402C1621.69 52.9702 1623.76 54.8002 1624.69 55.9102L1628.08 53.7202C1627 52.5802 1624.87 50.9302 1623.34 49.8202H1626.49Z" fill="#ECEFFF"/>
<path d="M1656.82 46.6102C1655.53 47.9002 1654.21 48.5302 1653.37 48.5302C1652.8 48.5302 1652.44 48.1702 1652.44 47.5102C1652.44 44.3902 1653.37 40.4302 1653.37 37.3102C1653.37 34.7602 1651.84 32.6902 1648.39 32.6902C1645.6 32.6902 1642.39 34.8502 1640.05 36.8002V36.7102C1640.59 35.9302 1641.28 34.8802 1641.67 34.3702L1640.53 32.8702C1640.77 31.0702 1641.01 29.5702 1641.22 28.6402L1636 28.4902C1636.18 29.5102 1636.15 30.4702 1636.15 31.4002C1636.15 31.7002 1636.12 32.4502 1636.06 33.3802C1634.95 33.5602 1633.87 33.6502 1633.06 33.7102C1631.83 33.7702 1631.08 33.7702 1630.12 33.7402L1630.57 38.3302C1632.16 38.1202 1634.23 37.8502 1635.76 37.6702L1635.67 39.2602C1633.9 41.8102 1631.11 45.4102 1629.43 47.4802L1632.22 51.4402C1633.03 50.3302 1634.23 48.5002 1635.37 46.8502C1635.31 48.7402 1635.28 50.3002 1635.25 52.1002C1635.25 52.5802 1635.22 53.8102 1635.16 54.5602H1640.08C1639.99 53.8402 1639.87 52.5502 1639.84 52.0102C1639.63 49.1602 1639.63 46.2502 1639.63 44.0002C1639.63 43.4002 1639.63 42.7702 1639.66 42.1402C1641.94 39.6202 1644.97 36.9802 1647.01 36.9802C1648.12 36.9802 1648.81 37.7002 1648.81 39.0202C1648.81 41.6302 1647.76 45.6802 1647.76 48.8602C1647.76 51.9802 1649.35 53.7802 1651.72 53.7802C1654.36 53.7802 1656.13 52.7902 1657.39 51.6802L1656.82 46.6102Z" fill="#ECEFFF"/>
<path d="M1672.87 50.7202C1671.37 50.7202 1670.38 50.0602 1670.38 49.1302C1670.38 48.5302 1670.95 47.9602 1671.91 47.9602C1673.17 47.9602 1674.07 49.0102 1674.22 50.6602C1673.8 50.6902 1673.35 50.7202 1672.87 50.7202ZM1679.62 29.3902C1679.23 29.5102 1678.39 29.6302 1676.98 29.7502C1675.21 29.9002 1669.27 29.9902 1667.68 29.9902C1666.69 29.9902 1665.58 29.9302 1664.65 29.8102L1664.8 34.4602C1665.52 34.3402 1666.57 34.2502 1667.47 34.1902C1669.06 34.0702 1672.12 33.9502 1673.62 33.9202C1672.18 35.2102 1669.42 37.3402 1667.77 38.7202C1666 40.1602 1662.55 43.1002 1660.63 44.6002L1663.9 47.9902C1666.75 44.5102 1669.87 41.9002 1674.22 41.9002C1677.49 41.9002 1680.1 43.4902 1680.1 46.0402C1680.1 47.4802 1679.53 48.6502 1678.36 49.4602C1677.85 46.6402 1675.51 44.5402 1671.88 44.5402C1668.52 44.5402 1666.12 46.9702 1666.12 49.5802C1666.12 52.8502 1669.6 54.8002 1673.8 54.8002C1681.48 54.8002 1684.84 50.7502 1684.84 46.1002C1684.84 41.6302 1680.82 38.3602 1675.72 38.3602C1675 38.3602 1674.43 38.3902 1673.65 38.5402C1675.27 37.2802 1677.88 35.1502 1679.56 34.0102C1680.31 33.5002 1681.06 33.0502 1681.84 32.5702L1679.62 29.3902Z" fill="#ECEFFF"/>
<path d="M1581.19 86.8402C1581.19 88.7602 1580.68 89.5102 1578.91 89.5102C1577.29 89.5102 1575.88 89.1802 1575.88 87.8302C1575.88 86.7502 1577.08 86.1202 1578.97 86.1202C1579.72 86.1202 1580.47 86.1802 1581.19 86.3002V86.8402ZM1594.78 88.1602C1592.8 86.2702 1589.62 84.2302 1585.84 83.0902C1585.72 81.1702 1585.6 79.1302 1585.54 77.4802C1587.91 77.4202 1591.3 77.3002 1593.7 77.0902L1593.52 72.8002C1591.15 73.0402 1587.85 73.1602 1585.48 73.2202C1585.48 72.6502 1585.48 72.0802 1585.51 71.5402C1585.57 70.2202 1585.66 68.7502 1585.81 67.7602H1580.41C1580.62 68.6002 1580.71 69.8302 1580.77 71.5402C1580.8 72.8002 1580.83 74.1802 1580.83 76.0102C1580.83 77.4802 1580.92 79.9102 1581.04 82.1902C1580.59 82.1602 1580.11 82.1302 1579.66 82.1302C1574.05 82.1302 1571.2 84.7102 1571.2 88.0702C1571.2 92.4502 1574.95 93.8902 1579.27 93.8902C1584.82 93.8902 1586.11 91.1602 1586.11 88.4002V87.9802C1588.45 89.2402 1590.46 90.8902 1592.02 92.4502L1594.78 88.1602Z" fill="#ECEFFF"/>
<path d="M1618.15 82.2202C1618.15 86.5102 1613.62 88.6702 1606.15 89.4802L1608.73 93.9802C1617.31 92.8702 1623.28 88.7302 1623.28 82.4002C1623.28 77.5402 1619.89 74.6902 1614.91 74.6902C1611.4 74.6902 1608.1 75.5002 1605.85 75.9802C1604.86 76.1902 1603.42 76.4302 1602.34 76.5202L1603.66 81.6202C1604.59 81.2902 1605.91 80.7502 1606.75 80.5102C1608.13 80.0902 1611.1 79.0702 1614.28 79.0702C1616.92 79.0702 1618.15 80.5702 1618.15 82.2202ZM1606.93 67.4602L1606.24 71.7802C1609.69 72.3802 1616.41 72.9502 1619.98 73.1902L1620.7 68.7802C1617.43 68.7802 1610.5 68.2102 1606.93 67.4602Z" fill="#ECEFFF"/>
<path d="M1641.58 70.6702L1641.61 75.2902C1645.57 75.6202 1650.76 75.5902 1654.66 75.2902V70.6402C1651.33 71.0002 1645.45 71.1502 1641.58 70.6702ZM1640.53 83.3302C1640.2 84.7702 1639.99 86.0602 1639.99 87.4102C1639.99 90.5602 1642.57 92.5102 1647.76 92.5102C1651.27 92.5102 1653.64 92.3002 1655.59 91.9402L1655.5 87.0802C1652.8 87.6202 1650.67 87.8602 1648 87.8602C1645.57 87.8602 1644.34 87.3802 1644.34 86.0602C1644.34 85.2802 1644.43 84.6202 1644.64 83.6902L1640.53 83.3302ZM1632.61 68.4502C1632.58 69.5602 1632.37 70.9102 1632.25 71.8102C1631.95 74.0002 1631.08 78.9502 1631.08 83.5102C1631.08 87.5302 1631.68 91.2802 1632.28 93.2902L1636.42 93.0202C1636.39 92.5402 1636.39 92.0002 1636.39 91.6702C1636.39 91.4002 1636.48 90.6802 1636.57 90.2602C1636.9 88.5802 1637.83 85.3102 1638.73 82.6102L1636.54 80.9002C1636.15 81.7402 1635.79 82.3402 1635.4 83.1802C1635.37 83.0602 1635.37 82.5802 1635.37 82.4902C1635.37 79.7302 1636.45 73.4302 1636.78 71.9002C1636.9 71.3602 1637.35 69.5302 1637.62 68.8702L1632.61 68.4502Z" fill="#ECEFFF"/>
<path d="M1686.88 75.2602C1685.29 74.1502 1681.45 72.1102 1679.32 71.1802L1677.01 74.7502C1679.08 75.6502 1682.56 77.6602 1684.33 79.0402L1686.88 75.2602ZM1675.42 70.6402C1674.43 70.9402 1673.17 71.2402 1671.79 71.5102C1672.21 70.0102 1672.54 68.6602 1672.75 67.7302L1667.83 67.2502C1667.77 68.7802 1667.5 70.4902 1667.08 72.1102C1666.3 72.1702 1665.55 72.2002 1664.77 72.2002C1663.78 72.2002 1662.01 72.1402 1660.63 71.9902L1660.96 76.1302C1662.34 76.2202 1663.54 76.2502 1664.8 76.2502C1665.1 76.2502 1665.43 76.2502 1665.76 76.2202C1664.47 79.3102 1662.19 83.4802 1659.85 86.3902L1664.2 88.5802C1666.6 85.1302 1669.12 79.9702 1670.5 75.8002C1672.51 75.5002 1674.31 75.1102 1675.54 74.7802L1675.42 70.6402ZM1675.66 87.1702C1675.66 88.8202 1675.12 89.8702 1673.35 89.8702C1672.09 89.8702 1671.28 89.2102 1671.28 88.2502C1671.28 87.4102 1672.18 86.8102 1673.65 86.8102C1674.34 86.8102 1675.03 86.9002 1675.66 87.0202V87.1702ZM1675.18 77.0302C1675.27 78.7102 1675.39 81.1402 1675.51 83.2702C1675 83.2102 1674.49 83.1802 1673.95 83.1802C1669.36 83.1802 1667.02 85.7302 1667.02 88.7002C1667.02 92.1502 1670.08 93.9802 1674.01 93.9802C1678.39 93.9802 1679.95 91.8502 1680.04 89.0002C1681.51 90.0202 1682.71 91.1602 1683.64 92.0302L1686.01 88.1602C1684.54 86.7802 1682.44 85.2802 1679.86 84.2902C1679.8 83.0602 1679.74 81.8902 1679.71 81.2002C1679.68 79.7302 1679.62 78.3202 1679.71 77.0302H1675.18Z" fill="#ECEFFF"/>
<path d="M1692.37 78.8602L1694.2 83.5402C1697.11 82.2802 1702.69 79.9702 1706.02 79.9702C1708.36 79.9702 1709.86 81.3502 1709.86 83.3902C1709.86 86.9902 1705.18 88.7602 1698.22 88.9402L1700.14 93.3802C1710.37 92.7502 1714.66 88.6402 1714.66 83.4802C1714.66 78.7102 1711.45 75.7702 1706.47 75.7702C1702.81 75.7702 1697.71 77.4502 1695.73 78.0502C1694.86 78.3202 1693.24 78.7102 1692.37 78.8602Z" fill="#ECEFFF"/>
<path d="M1734.16 81.1102C1736.05 80.8702 1737.88 80.7802 1740.04 80.7802C1741.87 80.7802 1743.73 80.9902 1745.2 81.1702L1745.29 76.8502C1743.49 76.6702 1741.69 76.5802 1740.04 76.5802C1738.09 76.5802 1735.87 76.7302 1734.16 76.9102V81.1102ZM1736.74 70.6102C1735.24 70.9702 1733.71 71.2702 1732.18 71.5102L1732.3 71.0002C1732.45 70.3102 1732.75 68.8702 1732.99 67.9402L1727.5 67.5202C1727.59 68.2702 1727.56 69.5902 1727.41 70.8502C1727.38 71.2102 1727.32 71.6002 1727.23 72.0502C1726.45 72.0802 1725.64 72.1102 1724.86 72.1102C1723.57 72.1102 1722.64 72.0502 1721.02 71.8702L1721.14 76.3402C1722.16 76.4002 1723.3 76.4602 1724.83 76.4602C1725.31 76.4602 1725.82 76.4602 1726.33 76.4302C1726.18 77.1202 1725.97 77.8402 1725.79 78.5302C1724.68 82.6702 1722.34 89.0002 1720.57 91.9402L1725.58 93.6202C1727.26 89.9602 1729.24 83.9302 1730.32 79.7902C1730.62 78.6202 1730.92 77.3002 1731.22 76.0402C1733.14 75.8302 1735.06 75.5002 1736.74 75.1102V70.6102ZM1732.18 84.1102C1731.94 85.2202 1731.64 86.8402 1731.64 88.3402C1731.64 91.3702 1734.25 93.2602 1739.44 93.2602C1741.93 93.2602 1743.94 93.0502 1745.65 92.8402L1745.83 88.2502C1743.55 88.6402 1741.48 88.8802 1739.47 88.8802C1736.86 88.8802 1736.08 88.1002 1736.08 86.8702C1736.08 86.2702 1736.26 85.2802 1736.47 84.5002L1732.18 84.1102Z" fill="#ECEFFF"/>
</svg>
