<svg width="2439" height="128" viewBox="0 0 2439 128" fill="none" xmlns="http://www.w3.org/2000/svg">
<path d="M82.592 35.854C80.844 36.462 77.272 36.994 73.472 36.994H48.088C45.884 36.994 41.02 36.766 38.36 36.386V49.458C40.488 49.306 44.668 48.85 48.088 48.85H71.724C70.128 53.714 66.024 60.402 61.084 66.026C54.32 73.55 42.312 82.898 30 87.382L39.576 97.338C49.532 92.55 59.488 84.874 67.468 76.59C74.308 83.202 80.768 90.498 85.632 97.414L96.196 88.218C92.016 83.05 82.896 73.398 75.524 67.014C80.464 60.174 84.492 52.574 87 46.95C87.836 45.05 89.432 42.39 90.116 41.402L82.592 35.854Z" fill="#ECEFFF"/>
<path d="M164.748 42.846C162.544 42.846 160.72 41.022 160.72 38.818C160.72 36.614 162.544 34.79 164.748 34.79C166.952 34.79 168.776 36.614 168.776 38.818C168.776 41.022 166.952 42.846 164.748 42.846ZM125.152 43.226C125.152 41.022 125.38 36.918 125.76 34.334H112.232C112.612 36.918 112.84 41.554 112.84 43.226V84.342C112.84 91.182 117.02 95.286 124.012 96.578C127.356 97.11 131.992 97.49 137.16 97.49C145.596 97.49 157.148 97.034 164.672 95.97V82.518C158.44 84.19 145.824 85.254 137.92 85.254C134.728 85.254 132.068 85.178 129.864 84.874C126.596 84.266 125.152 83.506 125.152 80.542V68.002C135.184 65.494 146.888 61.846 154.184 59.11C156.844 58.122 160.644 56.526 163.988 55.158L160.72 47.33C161.936 47.938 163.304 48.242 164.748 48.242C169.916 48.242 174.172 43.986 174.172 38.818C174.172 33.65 169.916 29.394 164.748 29.394C159.58 29.394 155.324 33.65 155.324 38.818C155.324 40.946 156.084 42.998 157.3 44.594C154.64 46.038 152.36 47.102 149.928 48.014C143.772 50.522 134.044 53.714 125.152 55.994V43.226Z" fill="#ECEFFF"/>
<path d="M183.824 71.346C186.94 71.118 192.64 70.89 196.972 70.89H237.328C240.444 70.89 244.7 71.27 246.676 71.346V56.83C244.472 56.982 240.748 57.362 237.328 57.362H196.972C193.248 57.362 186.864 57.058 183.824 56.83V71.346Z" fill="#ECEFFF"/>
<path d="M323.74 42.542C322.068 39.198 318.952 34.638 316.596 31.37L309.072 34.866C312.036 38.894 313.48 41.022 316.14 46.266L323.74 42.542ZM313.1 47.254C311.428 43.834 308.464 39.122 306.184 35.702L298.584 38.894C301.548 43.074 302.84 45.43 305.272 50.674L313.1 47.254ZM286.576 43.454C286.576 39.806 287.032 36.462 287.336 33.574H272.972C273.58 36.462 273.884 40.414 273.884 43.454V86.85C273.884 89.966 273.504 95.058 272.972 98.326H287.412C287.032 94.906 286.576 88.902 286.576 86.85V67.318C294.632 70.206 305.044 74.234 312.72 78.186L317.964 65.342C311.58 62.226 296.836 56.83 286.576 53.866V43.454Z" fill="#ECEFFF"/>
<path d="M340.308 99.01C345.4 94.754 348.212 88.37 350.036 81.91L340.156 78.414C338.56 84.114 335.444 89.358 331.112 92.778L340.308 99.01ZM361.436 65.874H356.876V62.758H361.436V65.874ZM365.464 89.814C362.12 89.814 361.588 89.586 361.588 87.382V79.326C364.552 81.682 367.364 84.342 368.808 86.394L376.484 79.934C374.66 77.73 371.24 74.918 367.972 72.714H370.328V70.282C372.228 72.106 374.28 74.386 375.344 75.754C377.472 74.386 379.448 72.866 381.424 71.118C384.388 74.462 387.96 76.438 392.064 76.438C398.904 76.438 402.02 74.006 403.464 62.53C400.88 61.694 397.46 59.718 395.256 57.742C394.876 64.05 394.268 66.558 392.672 66.558C391.228 66.558 389.708 65.494 388.264 63.67C392.064 58.806 395.18 53.182 397.384 47.026L387.2 44.594C386.212 47.558 384.92 50.37 383.4 52.954C382.564 50.142 381.804 47.026 381.196 43.682H400.576V35.018H394.344L396.624 32.434C394.192 30.61 389.632 28.558 386.136 27.418L380.74 33.422C381.88 33.878 383.172 34.41 384.388 35.018H380.056C379.828 32.814 379.752 30.61 379.676 28.33H369.34C369.416 30.61 369.568 32.814 369.72 35.018H337.192V46.646C337.192 54.322 336.66 64.886 330.352 72.334C332.48 73.474 336.812 77.122 338.408 79.022C345.78 70.358 347.3 56.45 347.3 46.798V43.682H370.784C371.924 50.598 373.672 56.982 375.952 62.226C374.204 63.822 372.304 65.266 370.328 66.558V55.918H348.136V72.714H363.488L358.32 76.97C359.156 77.502 359.992 78.11 360.904 78.794H350.644V87.534C350.644 96.502 353.076 99.542 364.02 99.542H374.812C382.792 99.542 385.756 97.11 386.972 87.458C384.084 86.85 379.372 85.254 377.244 83.658C376.864 89.054 376.408 89.814 373.748 89.814H365.464ZM370.404 46.342H348.44V53.182H370.404V46.342ZM382.64 81.606C387.276 86.622 391.836 93.538 393.356 98.25L403.464 93.234C401.564 88.218 396.624 81.758 391.912 77.046L382.64 81.606Z" fill="#ECEFFF"/>
<path d="M469.688 49.67V47.3H483.038V49.67H469.688ZM483.038 40.94V43.28H469.688V40.94H483.038ZM483.038 34.61V36.92H469.688V34.61H483.038ZM477.668 30.44C478.088 29.45 478.568 28.31 478.988 27.17L473.648 26.63C473.528 27.77 473.288 29.18 473.018 30.44H465.278V55.1H469.688V53.69H483.038V55.1H487.688V30.44H477.668Z" fill="#ECEFFF"/>
<path d="M507.878 28.58C509.468 31.64 511.598 34.76 513.788 37.49H499.358C501.578 34.82 503.558 31.61 504.968 28.31L500.228 26.93C498.458 31.46 495.128 35.69 491.408 38.15C492.458 38.96 494.348 40.73 495.158 41.69C495.878 41.12 496.568 40.49 497.258 39.8V41.72H501.758C501.188 45.68 499.628 49.19 493.058 51.35C494.108 52.31 495.368 54.17 495.908 55.4C503.828 52.4 505.808 47.39 506.528 41.72H511.448C511.238 47.27 510.968 49.76 510.428 50.36C510.068 50.72 509.738 50.81 509.228 50.81C508.478 50.81 507.068 50.78 505.568 50.66C506.348 51.89 506.948 53.78 507.008 55.07C508.718 55.1 510.398 55.1 511.448 54.92C512.678 54.71 513.578 54.38 514.448 53.24C515.438 51.98 515.768 48.53 516.038 40.1C516.488 40.58 516.938 41.03 517.358 41.45C518.198 40.22 519.908 38.42 521.078 37.49C517.778 34.82 514.058 30.56 512.198 26.87L507.878 28.58Z" fill="#ECEFFF"/>
<path d="M550.808 30.08C550.298 29.06 549.218 27.14 548.438 26L545.618 27.14C546.428 28.28 547.388 30.05 547.988 31.28L550.808 30.08ZM530.108 28.25C530.168 30.08 529.958 32.15 529.538 34.46C528.218 34.55 526.988 34.64 526.118 34.67C524.948 34.7 523.808 34.76 522.668 34.67L523.058 39.5C524.048 39.32 525.758 39.08 526.718 38.96C527.138 38.9 527.798 38.81 528.578 38.69C527.468 42.74 525.548 48.29 522.728 52.1L527.438 53.99C529.958 49.91 532.178 42.77 533.378 38.15C533.918 38.12 534.428 38.09 534.758 38.09C536.618 38.09 537.518 38.36 537.518 40.52C537.518 43.28 537.158 46.67 536.408 48.14C536.018 48.95 535.328 49.28 534.398 49.28C533.648 49.28 531.848 48.95 530.768 48.65L531.548 53.39C532.598 53.63 534.008 53.81 535.148 53.81C537.578 53.81 539.318 53.06 540.338 50.93C541.598 48.29 541.988 43.52 541.988 40.04C541.988 35.6 539.738 33.98 536.318 33.98C535.778 33.98 535.088 34.01 534.308 34.07C534.488 33.29 534.668 32.48 534.818 31.67C534.998 30.83 535.238 29.72 535.448 28.82L530.108 28.25ZM547.088 31.55C546.548 30.5 545.498 28.55 544.748 27.44L541.928 28.58C542.618 29.6 543.368 31.07 543.968 32.24L541.358 33.32C543.518 36.08 545.498 41.36 546.218 44.81L550.808 42.68C549.998 39.95 547.778 34.82 546.008 32L547.088 31.55Z" fill="#ECEFFF"/>
<path d="M562.928 27.53H553.598V30.77H562.928V27.53ZM564.068 31.64H552.038V35.03H564.068V31.64ZM559.208 47.69V50.24H557.048V47.69H559.208ZM562.928 44.3H553.388V54.71H557.048V53.63H562.928V44.3ZM553.508 43.31H562.988V40.07H553.508V43.31ZM553.508 39.17H562.988V35.93H553.508V39.17ZM580.508 41.09H574.118V32.09H579.998V28.04H564.578V32.09H569.828V41.09H563.618V45.2H569.828V55.13H574.118V45.2H580.508V41.09ZM564.638 33.8C565.148 35.93 565.598 38.75 565.628 40.58L569.288 39.77C569.168 37.94 568.688 35.21 568.088 33.08L564.638 33.8ZM577.868 40.52C578.558 38.78 579.338 36.14 580.088 33.62L575.978 32.81C575.738 34.94 575.138 37.82 574.538 39.71L577.868 40.52Z" fill="#ECEFFF"/>
<path d="M600.938 36.53H599.798V33.44H600.938V36.53ZM605.708 49.13H604.568V40.31H605.708V49.13ZM595.058 40.31H596.138V49.13H595.058V40.31ZM600.938 40.31V49.13H599.768V40.31H600.938ZM610.028 33.44V29.54H591.098C591.308 29.03 591.518 28.49 591.698 27.98L587.768 26.72C586.388 30.71 584.018 34.7 581.528 37.22C582.218 38.27 583.358 40.61 583.718 41.63C584.138 41.18 584.558 40.7 584.978 40.19V55.16H589.058V33.86C589.688 32.63 590.288 31.4 590.828 30.14V33.44H595.718V36.53H591.068V54.44H595.058V52.85H605.708V54.26H609.908V36.53H605.048V33.44H610.028Z" fill="#ECEFFF"/>
<path d="M616.688 42.35C616.238 44.09 615.848 46.1 615.848 47.42C615.848 51.8 619.148 54.08 625.358 54.08C629.228 54.08 631.958 53.63 633.518 53.33L633.608 48.59C631.418 49.01 629.618 49.46 625.358 49.46C621.278 49.46 620.558 48.08 620.558 46.16C620.558 45.29 621.038 43.61 621.368 42.71L616.688 42.35ZM636.458 30.35C634.628 30.95 632.828 31.46 630.758 31.85C630.128 30.29 629.558 28.88 629.168 27.5L624.068 28.49C624.818 29.66 625.118 30.29 625.658 31.52L626.108 32.51C623.078 32.75 619.598 32.69 615.368 32.15L615.518 36.74C620.288 37.13 624.428 37.13 627.998 36.77C628.778 38.45 629.588 40.01 630.218 41.3C629.378 41.27 628.028 41.15 627.098 41.06L626.708 44.75C629.078 45.05 632.018 45.56 633.818 45.92L636.308 43.22C634.988 40.94 633.668 38.42 632.558 36.02C634.298 35.66 635.918 35.24 637.298 34.85L636.458 30.35Z" fill="#ECEFFF"/>
<path d="M669.848 45.92C668.558 47.21 667.238 47.84 666.398 47.84C665.828 47.84 665.468 47.48 665.468 46.82C665.468 43.7 666.398 39.74 666.398 36.62C666.398 34.07 664.868 32 661.418 32C658.628 32 655.418 34.16 653.078 36.11V36.02C653.618 35.24 654.308 34.19 654.698 33.68L653.558 32.18C653.798 30.38 654.038 28.88 654.248 27.95L649.028 27.8C649.208 28.82 649.178 29.78 649.178 30.71C649.178 31.01 649.148 31.76 649.088 32.69C647.978 32.87 646.898 32.96 646.088 33.02C644.858 33.08 644.108 33.08 643.148 33.05L643.598 37.64C645.188 37.43 647.258 37.16 648.788 36.98L648.698 38.57C646.928 41.12 644.138 44.72 642.458 46.79L645.248 50.75C646.058 49.64 647.258 47.81 648.398 46.16C648.338 48.05 648.308 49.61 648.278 51.41C648.278 51.89 648.248 53.12 648.188 53.87H653.108C653.018 53.15 652.898 51.86 652.868 51.32C652.658 48.47 652.658 45.56 652.658 43.31C652.658 42.71 652.658 42.08 652.688 41.45C654.968 38.93 657.998 36.29 660.038 36.29C661.148 36.29 661.838 37.01 661.838 38.33C661.838 40.94 660.788 44.99 660.788 48.17C660.788 51.29 662.378 53.09 664.748 53.09C667.388 53.09 669.158 52.1 670.418 50.99L669.848 45.92Z" fill="#ECEFFF"/>
<path d="M672.42 31.34L672.87 36.23C676.44 35.45 681.66 34.85 684.21 34.58C682.62 36.02 680.46 39.17 680.46 43.25C680.46 49.58 686.13 53.18 692.76 53.69L694.44 48.68C689.31 48.38 685.2 46.67 685.2 42.29C685.2 38.78 687.96 35.3 691.17 34.58C692.82 34.25 695.34 34.25 696.87 34.22L696.84 29.6C694.68 29.69 691.17 29.87 688.2 30.11C682.77 30.59 678.27 30.95 675.48 31.19C674.91 31.25 673.62 31.31 672.42 31.34Z" fill="#ECEFFF"/>
<path d="M471.848 85.93C471.788 88.93 471.668 90.16 471.428 90.52C471.188 90.82 470.918 90.91 470.528 90.91C470.048 90.91 469.268 90.88 468.368 90.79C468.578 89.11 468.698 87.46 468.758 85.93H471.848ZM484.358 80.26C483.758 82.33 482.978 84.25 482.048 86.02C481.628 83.95 481.298 81.58 481.088 79.12H490.238V74.83H487.058L488.558 73.27C487.508 72.28 485.408 70.96 483.878 70.15L481.238 72.76C482.168 73.33 483.308 74.11 484.238 74.83H480.848C480.788 73.45 480.788 72.07 480.818 70.69H476.228C476.228 72.07 476.258 73.45 476.318 74.83H464.198V83.83C464.198 87.76 464.048 93.07 461.828 96.61C462.818 97.12 464.798 98.74 465.548 99.61C467.078 97.3 467.918 94.09 468.338 90.91C468.938 91.99 469.388 93.64 469.448 94.87C470.828 94.87 472.088 94.84 472.898 94.69C473.798 94.51 474.488 94.21 475.148 93.34C475.868 92.38 476.018 89.62 476.108 83.5C476.108 83.02 476.138 81.97 476.138 81.97H468.788V79.12H476.588C476.948 83.44 477.578 87.58 478.598 90.94C476.978 92.77 475.058 94.3 472.898 95.47C473.828 96.31 475.418 98.14 476.048 99.07C477.638 98.05 479.138 96.85 480.488 95.5C481.778 97.66 483.398 98.95 485.378 98.95C488.468 98.95 489.878 97.69 490.538 91.84C489.368 91.39 487.838 90.37 486.848 89.35C486.698 93.01 486.338 94.51 485.738 94.51C485.018 94.51 484.268 93.52 483.608 91.81C485.768 88.78 487.508 85.24 488.768 81.31L484.358 80.26Z" fill="#ECEFFF"/>
<path d="M497.648 71.86C497.648 72.76 497.558 74.11 497.408 75.28C496.928 78.73 496.628 82 496.628 84.76C496.628 86.77 496.838 88.69 497.018 89.83L501.458 89.53C501.308 88.24 501.278 87.31 501.278 86.68C501.278 82.78 504.158 77.56 507.548 77.56C509.648 77.56 511.148 79.66 511.148 84.16C511.148 91.21 506.738 93.13 500.048 94.18L502.778 98.35C510.938 96.85 516.068 92.65 516.068 84.16C516.068 77.44 512.648 73.36 508.388 73.36C505.298 73.36 502.988 75.19 501.458 77.05C501.638 75.64 502.238 73.12 502.538 72.07L497.648 71.86Z" fill="#ECEFFF"/>
<path d="M549.188 75.55H538.538V70.66H533.948V75.55H523.508V79.84H549.188V75.55ZM534.248 91.87C533.888 88.78 532.808 84.31 531.458 80.74L527.288 81.85C528.488 85.36 529.538 90.07 529.748 93.1L534.248 91.87ZM542.078 93.7C543.278 90.37 544.598 85.93 545.558 81.55L540.548 80.68C540.008 84.91 538.748 90.16 537.458 93.7H522.548V98.08H550.118V93.7H542.078Z" fill="#ECEFFF"/>
<path d="M552.728 79.45L554.738 84.49C558.278 82.9 564.968 80.11 569.078 80.11C572.408 80.11 574.118 82.06 574.118 84.67C574.118 89.35 568.148 91.66 559.958 91.81L562.058 96.61C573.278 96.07 579.308 91.27 579.308 84.76C579.308 78.97 574.898 75.76 569.288 75.76C564.908 75.76 558.758 77.86 556.598 78.52C555.548 78.82 553.808 79.27 552.728 79.45Z" fill="#ECEFFF"/>
<path d="M589.028 70.69C587.408 74.98 584.618 79.27 581.708 81.94C582.488 83.02 583.748 85.42 584.168 86.47C584.768 85.87 585.368 85.21 585.968 84.52V99.1H590.288V78.19C591.428 76.18 592.448 74.08 593.258 72.04L589.028 70.69ZM610.508 83.74V79.51H603.458V71.29H598.958V79.51H591.308V83.74H598.958V93.88H592.118V98.08H609.968V93.88H603.458V83.74H610.508Z" fill="#ECEFFF"/>
<path d="M632.768 91.78H628.388V90.88H632.768V91.78ZM628.388 86.8H632.768V87.61H628.388V86.8ZM620.198 80.35V79.33H623.948V80.35H620.198ZM632.198 79.33V80.35H628.388V79.33H632.198ZM640.358 87.61H637.208V83.92H628.388V83.02H636.668V76.66H628.388V75.76H639.608V72.37H628.388V70.66H623.948V72.37H612.998V75.76H623.948V76.66H616.028V83.02H623.948V83.92H615.368V86.8H623.948V87.61H612.248V90.88H623.948V91.78H615.158V94.87H623.948V95.23C623.948 95.74 623.768 95.92 623.198 95.95C622.718 95.95 620.948 95.95 619.718 95.89C620.258 96.76 620.918 98.26 621.128 99.25C623.708 99.25 625.358 99.19 626.648 98.65C627.938 98.05 628.388 97.21 628.388 95.23V94.87H632.768V96.1H637.208V90.88H640.358V87.61Z" fill="#ECEFFF"/>
<path d="M1444 38.09H1445.35V40.19H1444V38.09ZM1449.97 40.19H1448.59V38.09H1449.97V40.19ZM1453.54 46.88C1453.06 46.34 1451.44 44.69 1450.15 43.43H1453.3V34.88H1448.89V33.41H1453.3V29.6H1448.89V26.72H1445.05V29.6H1440.46V33.41H1445.05V34.88H1440.88V43.43H1444.03C1442.86 45.41 1441.24 47.51 1439.68 48.83C1440.28 49.91 1441.15 51.68 1441.48 52.85C1442.74 51.68 1443.97 49.97 1445.05 48.14V55.13H1448.89V46.91C1449.73 48.08 1450.54 49.31 1451.05 50.24L1453.54 46.88ZM1463.41 37.52H1458.55V36.26H1463.41V37.52ZM1463.41 41.72H1458.55V40.46H1463.41V41.72ZM1463.41 45.95H1458.55V44.69H1463.41V45.95ZM1467.52 49.13V33.08H1462.57C1462.75 32.54 1462.96 31.97 1463.17 31.4H1468.39V27.71H1453.66V31.4H1458.61C1458.55 31.94 1458.46 32.54 1458.37 33.08H1454.65V49.13H1456.66C1455.28 50.33 1452.97 51.77 1450.93 52.52C1451.83 53.24 1453.06 54.47 1453.75 55.25C1456.03 54.35 1458.79 52.61 1460.44 51.05L1457.53 49.13H1464.28L1461.16 51.05C1462.72 52.28 1464.79 54.11 1465.72 55.22L1469.11 53.03C1468.03 51.89 1465.9 50.24 1464.37 49.13H1467.52Z" fill="#ECEFFF"/>
<path d="M1487.26 29.75L1482.16 27.68C1481.53 29.15 1480.87 30.26 1480.48 31.1C1478.92 33.92 1472.89 46.37 1470.7 52.28L1475.8 53.99C1476.28 52.37 1477.15 49.16 1477.87 47.45C1478.89 44.99 1480.24 43.13 1482.07 43.13C1482.97 43.13 1483.45 43.67 1483.54 44.57C1483.63 45.53 1483.63 48.02 1483.75 49.55C1483.9 51.92 1485.73 53.87 1489.06 53.87C1493.8 53.87 1496.68 50.48 1498.21 45.17L1494.31 41.99C1493.41 45.98 1492 48.89 1489.84 48.89C1489.03 48.89 1488.34 48.53 1488.22 47.57C1488.04 46.43 1488.13 44 1488.07 42.92C1487.92 40.37 1486.63 38.87 1484.26 38.87C1483.3 38.87 1482.37 38.99 1481.44 39.26C1482.85 36.77 1484.77 33.26 1486.3 31.1C1486.63 30.65 1486.93 30.14 1487.26 29.75Z" fill="#ECEFFF"/>
<path d="M1520.14 36.71L1517.53 37.79C1518.49 39.17 1519 40.16 1519.81 41.9L1522.48 40.73C1521.94 39.62 1520.89 37.82 1520.14 36.71ZM1523.53 35.27L1520.95 36.44C1521.94 37.79 1522.51 38.72 1523.38 40.43L1526.02 39.17C1525.42 38.09 1524.31 36.35 1523.53 35.27ZM1499.83 31.34L1500.28 36.23C1503.85 35.45 1509.07 34.85 1511.62 34.58C1510.03 36.02 1507.87 39.17 1507.87 43.25C1507.87 49.58 1513.54 53.18 1520.17 53.69L1521.85 48.68C1516.72 48.38 1512.61 46.67 1512.61 42.29C1512.61 38.78 1515.37 35.3 1518.58 34.58C1520.23 34.25 1522.75 34.25 1524.28 34.22L1524.25 29.6C1522.09 29.69 1518.58 29.87 1515.61 30.11C1510.18 30.59 1505.68 30.95 1502.89 31.19C1502.32 31.25 1501.03 31.31 1499.83 31.34Z" fill="#ECEFFF"/>
<path d="M1537.21 43.61H1540.3C1541.08 45.56 1542.01 47.27 1543.12 48.74C1541.17 49.04 1539.16 49.34 1537.21 49.61V43.61ZM1548.94 33.17V34.7H1537.21V33.17H1548.94ZM1550.53 43.61C1549.33 44.54 1547.95 45.5 1546.69 46.25C1545.97 45.47 1545.37 44.57 1544.86 43.61H1550.53ZM1537.21 38.12H1548.94V39.83H1537.21V38.12ZM1553.44 42.8V29.39H1544.83V26.54H1540.27V29.39H1532.71V50.24C1531.57 50.36 1530.52 50.51 1529.59 50.6L1530.61 54.83C1534.24 54.26 1539.07 53.54 1543.51 52.79L1543.24 48.89C1545.73 52.1 1549.18 54.17 1554.31 55.25C1554.91 54.05 1556.11 52.19 1557.07 51.26C1554.07 50.78 1551.64 49.94 1549.66 48.74C1551.67 47.6 1553.95 46.13 1555.87 44.66L1553.44 42.8Z" fill="#ECEFFF"/>
<path d="M1566.7 27.98C1566.76 29.81 1566.55 31.88 1566.13 34.19C1564.81 34.28 1563.58 34.37 1562.71 34.4C1561.54 34.43 1560.4 34.49 1559.26 34.4L1559.65 39.23C1560.64 39.05 1562.35 38.81 1563.31 38.69C1563.73 38.63 1564.39 38.54 1565.17 38.42C1564.06 42.47 1562.14 48.02 1559.32 51.83L1564.03 53.72C1566.55 49.64 1568.77 42.5 1569.97 37.88C1570.51 37.85 1571.02 37.82 1571.35 37.82C1573.21 37.82 1574.11 38.09 1574.11 40.25C1574.11 43.01 1573.75 46.4 1573 47.87C1572.61 48.68 1571.92 49.01 1570.99 49.01C1570.24 49.01 1568.44 48.68 1567.36 48.38L1568.14 53.12C1569.19 53.36 1570.6 53.54 1571.74 53.54C1574.17 53.54 1575.91 52.79 1576.93 50.66C1578.19 48.02 1578.58 43.25 1578.58 39.77C1578.58 35.33 1576.33 33.71 1572.91 33.71C1572.37 33.71 1571.68 33.74 1570.9 33.8C1571.08 33.02 1571.26 32.21 1571.41 31.4C1571.59 30.56 1571.83 29.45 1572.04 28.55L1566.7 27.98ZM1577.95 32.9C1580.11 35.66 1582.09 41.09 1582.81 44.54L1587.4 42.41C1586.53 39.53 1584.1 33.77 1582.3 31.1L1577.95 32.9Z" fill="#ECEFFF"/>
<path d="M1591.9 39.17L1593.73 43.85C1596.64 42.59 1602.22 40.28 1605.55 40.28C1607.89 40.28 1609.39 41.66 1609.39 43.7C1609.39 47.3 1604.71 49.07 1597.75 49.25L1599.67 53.69C1609.9 53.06 1614.19 48.95 1614.19 43.79C1614.19 39.02 1610.98 36.08 1606 36.08C1602.34 36.08 1597.24 37.76 1595.26 38.36C1594.39 38.63 1592.77 39.02 1591.9 39.17Z" fill="#ECEFFF"/>
<path d="M1633.69 41.42C1635.58 41.18 1637.41 41.09 1639.57 41.09C1641.4 41.09 1643.26 41.3 1644.73 41.48L1644.82 37.16C1643.02 36.98 1641.22 36.89 1639.57 36.89C1637.62 36.89 1635.4 37.04 1633.69 37.22V41.42ZM1636.27 30.92C1634.77 31.28 1633.24 31.58 1631.71 31.82L1631.83 31.31C1631.98 30.62 1632.28 29.18 1632.52 28.25L1627.03 27.83C1627.12 28.58 1627.09 29.9 1626.94 31.16C1626.91 31.52 1626.85 31.91 1626.76 32.36C1625.98 32.39 1625.17 32.42 1624.39 32.42C1623.1 32.42 1622.17 32.36 1620.55 32.18L1620.67 36.65C1621.69 36.71 1622.83 36.77 1624.36 36.77C1624.84 36.77 1625.35 36.77 1625.86 36.74C1625.71 37.43 1625.5 38.15 1625.32 38.84C1624.21 42.98 1621.87 49.31 1620.1 52.25L1625.11 53.93C1626.79 50.27 1628.77 44.24 1629.85 40.1C1630.15 38.93 1630.45 37.61 1630.75 36.35C1632.67 36.14 1634.59 35.81 1636.27 35.42V30.92ZM1631.71 44.42C1631.47 45.53 1631.17 47.15 1631.17 48.65C1631.17 51.68 1633.78 53.57 1638.97 53.57C1641.46 53.57 1643.47 53.36 1645.18 53.15L1645.36 48.56C1643.08 48.95 1641.01 49.19 1639 49.19C1636.39 49.19 1635.61 48.41 1635.61 47.18C1635.61 46.58 1635.79 45.59 1636 44.81L1631.71 44.42Z" fill="#ECEFFF"/>
<path d="M1669.93 30.89C1669.06 31.61 1668.1 32.18 1666.84 32.9C1665.55 33.65 1663.3 34.82 1661.11 36.08C1659.94 33.86 1658.62 31.16 1657.54 28.16L1653.01 29.99C1654.33 33.11 1655.71 36.14 1657.09 38.69C1654.36 40.76 1652.26 43.19 1652.26 46.58C1652.26 52.07 1656.97 53.72 1663.09 53.72C1667.05 53.72 1670.02 53.42 1672.72 52.97L1672.78 47.78C1669.96 48.41 1665.91 48.92 1662.97 48.92C1659.16 48.92 1657.27 47.99 1657.27 46.04C1657.27 44.09 1658.92 42.5 1661.23 41C1663.84 39.32 1667.32 37.73 1669.09 36.86C1670.29 36.26 1671.37 35.69 1672.42 35.06L1669.93 30.89Z" fill="#ECEFFF"/>
<path d="M1444.09 97.33C1445.47 95.32 1446.49 92.32 1447.21 89.71L1443.25 88.27C1442.62 90.79 1441.48 93.37 1440.16 95.14L1444.09 97.33ZM1447.33 80.95H1452.04V82.84H1447.33V80.95ZM1447.33 75.64H1452.04V77.47H1447.33V75.64ZM1460.83 77.47H1456.27V75.64H1460.83V77.47ZM1460.83 82.84H1456.27V80.95H1460.83V82.84ZM1453.66 94.69C1452.31 94.69 1452.07 94.6 1452.07 93.67V89.38C1453.78 90.46 1455.52 91.81 1456.39 92.86L1459.51 89.89C1458.52 88.81 1456.69 87.55 1454.95 86.59H1465.15V71.89H1443.22V86.59H1452.88L1450.75 88.6C1451.17 88.84 1451.62 89.11 1452.07 89.38H1447.66V93.73C1447.66 97.39 1448.71 98.62 1453.09 98.62H1457.5C1460.92 98.62 1462.12 97.51 1462.6 93.1C1461.43 92.83 1459.54 92.17 1458.67 91.51C1458.49 94.3 1458.28 94.69 1457.14 94.69H1453.66ZM1460.95 89.77C1462.48 92.11 1463.95 95.17 1464.37 97.18L1468.63 95.38C1468.09 93.25 1466.44 90.37 1464.85 88.15L1460.95 89.77Z" fill="#ECEFFF"/>
<path d="M1478.71 71.71L1478.02 75.88C1481.53 76.42 1487.26 77.05 1490.47 77.29L1491.04 73.09C1487.83 72.88 1482.1 72.28 1478.71 71.71ZM1492.33 81.67L1489.72 78.73C1489.39 78.85 1488.49 79.03 1487.92 79.09C1485.31 79.42 1478.68 79.63 1477.42 79.63C1476.28 79.63 1475.08 79.57 1474.39 79.51L1474.81 84.46C1475.44 84.34 1476.43 84.16 1477.48 84.07C1479.13 83.92 1481.86 83.68 1483.78 83.65C1481.2 86.47 1476.28 91.36 1474.54 93.1C1473.64 94 1472.8 94.72 1472.17 95.23L1476.4 98.17C1478.65 95.32 1480.3 93.46 1481.29 92.41C1482.01 91.66 1482.61 91.15 1483.06 91.15C1483.57 91.15 1484.2 91.45 1484.53 92.5C1484.71 93.19 1485.01 94.39 1485.34 95.26C1486.09 97.18 1487.68 97.81 1490.71 97.81C1492.21 97.81 1495.45 97.63 1496.68 97.42L1496.98 92.71C1495.42 92.98 1493.5 93.19 1491.04 93.19C1490.08 93.19 1489.45 92.74 1489.21 91.93C1488.97 91.27 1488.73 90.34 1488.46 89.59C1488.07 88.54 1487.62 87.97 1486.93 87.64C1486.57 87.46 1486.03 87.31 1485.79 87.31C1486.27 86.77 1488.76 84.52 1490.23 83.29C1490.86 82.78 1491.43 82.3 1492.33 81.67Z" fill="#ECEFFF"/>
<path d="M1512.99 94.03C1511.49 94.03 1510.5 93.37 1510.5 92.44C1510.5 91.84 1511.07 91.27 1512.03 91.27C1513.29 91.27 1514.19 92.32 1514.34 93.97C1513.92 94 1513.47 94.03 1512.99 94.03ZM1519.74 72.7C1519.35 72.82 1518.51 72.94 1517.1 73.06C1515.33 73.21 1509.39 73.3 1507.8 73.3C1506.81 73.3 1505.7 73.24 1504.77 73.12L1504.92 77.77C1505.64 77.65 1506.69 77.56 1507.59 77.5C1509.18 77.38 1512.24 77.26 1513.74 77.23C1512.3 78.52 1509.54 80.65 1507.89 82.03C1506.12 83.47 1502.67 86.41 1500.75 87.91L1504.02 91.3C1506.87 87.82 1509.99 85.21 1514.34 85.21C1517.61 85.21 1520.22 86.8 1520.22 89.35C1520.22 90.79 1519.65 91.96 1518.48 92.77C1517.97 89.95 1515.63 87.85 1512 87.85C1508.64 87.85 1506.24 90.28 1506.24 92.89C1506.24 96.16 1509.72 98.11 1513.92 98.11C1521.6 98.11 1524.96 94.06 1524.96 89.41C1524.96 84.94 1520.94 81.67 1515.84 81.67C1515.12 81.67 1514.55 81.7 1513.77 81.85C1515.39 80.59 1518 78.46 1519.68 77.32C1520.43 76.81 1521.18 76.36 1521.96 75.88L1519.74 72.7Z" fill="#ECEFFF"/>
<path d="M1540.32 71.26C1540.11 75.19 1540.77 88.48 1528.83 95.41C1530.36 96.43 1531.77 97.78 1532.55 98.92C1538.34 95.14 1541.46 89.86 1543.17 84.82C1544.97 90.07 1548.33 95.65 1554.72 98.89C1555.38 97.69 1556.67 96.22 1558.08 95.17C1546.95 89.89 1545.51 77.56 1545.27 73.24C1545.3 72.49 1545.33 71.83 1545.36 71.26H1540.32Z" fill="#ECEFFF"/>
<path d="M1568.43 74.83V75.85H1564.89V74.83H1568.43ZM1564.89 79.9V78.73H1568.43V79.9H1564.89ZM1572.51 82.96V71.74H1560.57V99.16H1564.89V82.96H1572.51ZM1578.3 79.99V78.73H1581.99V79.99H1578.3ZM1581.99 74.83V75.85H1578.3V74.83H1581.99ZM1571.4 93.22V91.96H1575.21V93.22H1571.4ZM1575.21 87.67V88.93H1571.4V87.67H1575.21ZM1586.4 71.74H1574.16V83.05H1581.99V94.12C1581.99 94.63 1581.81 94.81 1581.27 94.81C1580.94 94.81 1580.16 94.81 1579.29 94.81V84.52H1567.47V97.9H1571.4V96.37H1578.18C1578.51 97.36 1578.78 98.41 1578.87 99.16C1581.51 99.16 1583.31 99.07 1584.66 98.35C1585.98 97.63 1586.4 96.4 1586.4 94.18V71.74Z" fill="#ECEFFF"/>
<path d="M1601.7 74.98L1601.73 79.6C1605.69 79.93 1610.88 79.9 1614.78 79.6V74.95C1611.45 75.31 1605.57 75.46 1601.7 74.98ZM1600.65 87.64C1600.32 89.08 1600.11 90.37 1600.11 91.72C1600.11 94.87 1602.69 96.82 1607.88 96.82C1611.39 96.82 1613.76 96.61 1615.71 96.25L1615.62 91.39C1612.92 91.93 1610.79 92.17 1608.12 92.17C1605.69 92.17 1604.46 91.69 1604.46 90.37C1604.46 89.59 1604.55 88.93 1604.76 88L1600.65 87.64ZM1592.73 72.76C1592.7 73.87 1592.49 75.22 1592.37 76.12C1592.07 78.31 1591.2 83.26 1591.2 87.82C1591.2 91.84 1591.8 95.59 1592.4 97.6L1596.54 97.33C1596.51 96.85 1596.51 96.31 1596.51 95.98C1596.51 95.71 1596.6 94.99 1596.69 94.57C1597.02 92.89 1597.95 89.62 1598.85 86.92L1596.66 85.21C1596.27 86.05 1595.91 86.65 1595.52 87.49C1595.49 87.37 1595.49 86.89 1595.49 86.8C1595.49 84.04 1596.57 77.74 1596.9 76.21C1597.02 75.67 1597.47 73.84 1597.74 73.18L1592.73 72.76Z" fill="#ECEFFF"/>
<path d="M1647 79.57C1645.41 78.46 1641.57 76.42 1639.44 75.49L1637.13 79.06C1639.2 79.96 1642.68 81.97 1644.45 83.35L1647 79.57ZM1635.54 74.95C1634.55 75.25 1633.29 75.55 1631.91 75.82C1632.33 74.32 1632.66 72.97 1632.87 72.04L1627.95 71.56C1627.89 73.09 1627.62 74.8 1627.2 76.42C1626.42 76.48 1625.67 76.51 1624.89 76.51C1623.9 76.51 1622.13 76.45 1620.75 76.3L1621.08 80.44C1622.46 80.53 1623.66 80.56 1624.92 80.56C1625.22 80.56 1625.55 80.56 1625.88 80.53C1624.59 83.62 1622.31 87.79 1619.97 90.7L1624.32 92.89C1626.72 89.44 1629.24 84.28 1630.62 80.11C1632.63 79.81 1634.43 79.42 1635.66 79.09L1635.54 74.95ZM1635.78 91.48C1635.78 93.13 1635.24 94.18 1633.47 94.18C1632.21 94.18 1631.4 93.52 1631.4 92.56C1631.4 91.72 1632.3 91.12 1633.77 91.12C1634.46 91.12 1635.15 91.21 1635.78 91.33V91.48ZM1635.3 81.34C1635.39 83.02 1635.51 85.45 1635.63 87.58C1635.12 87.52 1634.61 87.49 1634.07 87.49C1629.48 87.49 1627.14 90.04 1627.14 93.01C1627.14 96.46 1630.2 98.29 1634.13 98.29C1638.51 98.29 1640.07 96.16 1640.16 93.31C1641.63 94.33 1642.83 95.47 1643.76 96.34L1646.13 92.47C1644.66 91.09 1642.56 89.59 1639.98 88.6C1639.92 87.37 1639.86 86.2 1639.83 85.51C1639.8 84.04 1639.74 82.63 1639.83 81.34H1635.3Z" fill="#ECEFFF"/>
<path d="M1654.74 71.86C1654.74 72.76 1654.65 74.11 1654.5 75.28C1654.02 78.73 1653.72 82 1653.72 84.76C1653.72 86.77 1653.93 88.69 1654.11 89.83L1658.55 89.53C1658.4 88.24 1658.37 87.31 1658.37 86.68C1658.37 82.78 1661.25 77.56 1664.64 77.56C1666.74 77.56 1668.24 79.66 1668.24 84.16C1668.24 91.21 1663.83 93.13 1657.14 94.18L1659.87 98.35C1668.03 96.85 1673.16 92.65 1673.16 84.16C1673.16 77.44 1669.74 73.36 1665.48 73.36C1662.39 73.36 1660.08 75.19 1658.55 77.05C1658.73 75.64 1659.33 73.12 1659.63 72.07L1654.74 71.86Z" fill="#ECEFFF"/>
<path d="M1694.28 85.42C1696.17 85.18 1698 85.09 1700.16 85.09C1701.99 85.09 1703.85 85.3 1705.32 85.48L1705.41 81.16C1703.61 80.98 1701.81 80.89 1700.16 80.89C1698.21 80.89 1695.99 81.04 1694.28 81.22V85.42ZM1696.86 74.92C1695.36 75.28 1693.83 75.58 1692.3 75.82L1692.42 75.31C1692.57 74.62 1692.87 73.18 1693.11 72.25L1687.62 71.83C1687.71 72.58 1687.68 73.9 1687.53 75.16C1687.5 75.52 1687.44 75.91 1687.35 76.36C1686.57 76.39 1685.76 76.42 1684.98 76.42C1683.69 76.42 1682.76 76.36 1681.14 76.18L1681.26 80.65C1682.28 80.71 1683.42 80.77 1684.95 80.77C1685.43 80.77 1685.94 80.77 1686.45 80.74C1686.3 81.43 1686.09 82.15 1685.91 82.84C1684.8 86.98 1682.46 93.31 1680.69 96.25L1685.7 97.93C1687.38 94.27 1689.36 88.24 1690.44 84.1C1690.74 82.93 1691.04 81.61 1691.34 80.35C1693.26 80.14 1695.18 79.81 1696.86 79.42V74.92ZM1692.3 88.42C1692.06 89.53 1691.76 91.15 1691.76 92.65C1691.76 95.68 1694.37 97.57 1699.56 97.57C1702.05 97.57 1704.06 97.36 1705.77 97.15L1705.95 92.56C1703.67 92.95 1701.6 93.19 1699.59 93.19C1696.98 93.19 1696.2 92.41 1696.2 91.18C1696.2 90.58 1696.38 89.59 1696.59 88.81L1692.3 88.42Z" fill="#ECEFFF"/>
<path d="M1716.84 74.65L1711.32 74.59C1711.53 75.64 1711.59 76.9 1711.59 77.8C1711.59 79.69 1711.62 83.08 1711.92 85.9C1712.76 94.03 1715.67 97.03 1719.18 97.03C1721.79 97.03 1723.68 95.17 1725.75 89.92L1722.12 85.48C1721.7 87.49 1720.65 91.21 1719.27 91.21C1717.56 91.21 1716.96 88.48 1716.6 84.58C1716.42 82.6 1716.42 80.65 1716.42 78.7C1716.42 77.83 1716.6 75.91 1716.84 74.65ZM1731.36 75.22L1726.77 76.72C1730.25 80.5 1731.69 88.09 1732.11 92.56L1736.88 90.73C1736.64 86.44 1734.27 78.64 1731.36 75.22Z" fill="#ECEFFF"/>
<path d="M798.632 70.8899H791.336V63.8219H798.632V70.8899ZM815.96 63.8219V61.6939C818.544 63.6699 821.432 65.4179 824.472 66.8619C826.144 63.8979 829.564 59.4899 832.148 57.2859C828.348 55.7659 824.852 53.7139 821.66 51.3579C824.624 49.2299 827.816 46.6459 830.704 44.0619L822.648 38.4379C820.748 40.6419 818.012 43.3779 815.428 45.6579C814.516 44.7459 813.68 43.7579 812.92 42.7699C815.732 40.7179 818.848 38.1339 821.812 35.5499L813.528 29.7739C812.16 31.5219 810.184 33.6499 808.208 35.5499C806.916 33.2699 805.852 30.8379 804.94 28.3299L794.984 31.1419C798.1 39.6539 802.128 47.1779 807.372 53.4099H783.736C788.448 48.0139 792.096 41.5539 794.528 34.0299L787.156 30.6859L785.256 31.0659H766.332V40.4899H779.86C778.796 42.2379 777.656 43.9099 776.364 45.5059C774.464 43.9099 772.032 42.1619 770.208 40.8699L763.292 46.5699C765.344 48.2419 768.004 50.4459 769.828 52.1939C766.408 55.0059 762.684 57.2859 758.732 58.9579C760.936 60.9339 763.976 64.7339 765.42 67.2419C768.764 65.6459 771.88 63.7459 774.844 61.5419V63.8219H780.392V70.8899H764.812V80.9979H778.492C776.364 85.3299 771.88 89.2819 762.684 92.0179C764.964 93.9939 768.308 98.3259 769.676 100.834C783.356 96.3499 788.6 88.9019 790.424 80.9979H798.632V87.0019C798.632 96.8059 800.836 100.074 810.108 100.074H817.556C824.852 100.074 827.664 96.8059 828.728 86.5459C825.688 85.8619 821.204 84.0379 818.848 82.2899C818.544 88.9019 818.164 90.3459 816.416 90.3459H812.236C810.412 90.3459 810.184 89.9659 810.184 86.9259V80.9979H825.384V70.8899H810.184V63.8219H815.96Z" fill="#ECEFFF"/>
<path d="M856.772 63.7459H885.88V66.7099H856.772V63.7459ZM856.772 51.8899H885.88V54.8539H856.772V51.8899ZM856.772 40.1099H885.88V43.0739H856.772V40.1099ZM888.236 89.5099C885.728 89.5099 885.348 89.2059 885.348 86.5459V76.2859H897.128V30.5339H846.132V76.2859H854.872C853.808 83.8099 850.844 88.2939 835.112 91.1059C837.392 93.4619 840.28 98.0219 841.268 100.986C861.028 96.5779 865.284 88.3699 866.728 76.2859H874.024V86.6219C874.024 96.5779 876.456 99.9219 886.564 99.9219H895.38C903.588 99.9219 906.476 96.5779 907.616 83.9619C904.652 83.2019 899.712 81.3779 897.508 79.5539C897.128 88.2179 896.672 89.5099 894.316 89.5099H888.236Z" fill="#ECEFFF"/>
<path d="M937.712 90.6499C934.368 86.3939 926.768 78.5659 921.448 74.1579L911.796 82.4419C917.04 87.0779 923.424 93.6139 927.908 99.0859L937.712 90.6499Z" fill="#ECEFFF"/>
<path d="M1025.49 71.8019V66.4819H1030.81V70.0539C1030.81 70.6619 1030.81 71.1939 1030.81 71.8019H1025.49ZM1046.54 66.4819V71.8019H1040.69V70.3579V66.4819H1046.54ZM1028.68 45.5819C1031.5 43.0739 1033.93 40.4139 1035.68 37.8299C1037.42 40.3379 1039.93 43.0739 1042.74 45.5819H1028.68ZM1056.42 80.1619V58.1979H1040.69V54.5499H1049.51V50.8259C1051.41 52.1179 1053.38 53.2579 1055.28 54.1699C1056.73 51.0539 1058.86 47.1019 1060.91 44.4419C1053 41.7059 1045.56 35.5499 1040.31 28.4059H1030.36C1026.94 33.8779 1020.48 40.1859 1013.41 43.7579V43.6819H1007.18V28.3299H996.992V43.6819H988.404V53.8659H996.46C994.56 62.2259 990.912 71.7259 986.656 77.5779C988.252 80.2379 990.532 84.5699 991.52 87.5339C993.572 84.5699 995.396 80.6939 996.992 76.3619V100.53H1007.18V70.5099C1008.24 73.0179 1009.23 75.4499 1009.84 77.3499L1015.38 68.8379C1014.32 67.0139 1009.15 58.9579 1007.18 56.2979V53.8659H1013.41V48.3939C1014.55 50.2939 1015.61 52.4219 1016.22 54.0939C1018.35 53.1059 1020.4 51.8139 1022.45 50.4459V54.5499H1030.81V58.1979H1015.99V80.1619H1029.06C1026.86 85.0259 1021.92 89.5099 1011.13 92.7779C1012.88 94.5259 1015.99 98.7819 1016.98 100.986C1027.39 97.7179 1033.32 92.6259 1036.74 87.0019C1041.45 94.6019 1047.15 98.1739 1054.07 100.834C1055.21 97.6419 1057.87 93.9939 1060.38 91.7139C1053.76 89.8139 1048.37 87.3059 1043.96 80.1619H1056.42Z" fill="#ECEFFF"/>
<path d="M1089.33 30.5339H1067.37V38.7419H1089.33V30.5339ZM1080.52 82.7459V89.2059H1075.8V82.7459H1080.52ZM1089.86 74.1579H1066.61V100.53H1075.8V97.7939H1089.86V74.1579ZM1066.91 71.4219H1089.18V63.2139H1066.91V71.4219ZM1089.18 52.4219H1066.91V60.6299H1089.18V52.4219ZM1063.19 49.8379H1091.99V41.2499H1063.19V49.8379ZM1121.48 87.5339V69.0659H1133.56V58.6539H1121.48V42.2379H1134.02V31.8259H1094.27V42.2379H1110.61V87.5339H1106.74V52.5739H1096.48V87.5339H1092.37V97.9459H1135.54V87.5339H1121.48Z" fill="#ECEFFF"/>
<path d="M1165.71 90.6499C1162.37 86.3939 1154.77 78.5659 1149.45 74.1579L1139.8 82.4419C1145.04 87.0779 1151.42 93.6139 1155.91 99.0859L1165.71 90.6499Z" fill="#ECEFFF"/>
<path d="M1262.92 64.5059C1263.22 63.1379 1263.52 61.7699 1263.75 60.4019L1257.22 59.1099C1264.82 54.8539 1267.55 48.8499 1268.69 41.1739H1275.68C1275.46 46.0379 1275.08 48.1659 1274.54 48.8499C1274.01 49.5339 1273.4 49.6859 1272.57 49.6859C1271.58 49.6859 1269.98 49.6099 1267.93 49.3819C1269.3 51.7379 1270.21 55.4619 1270.36 58.1979H1264.97V64.5059H1262.92ZM1250.83 54.4739C1252.43 56.2219 1253.87 58.5779 1254.63 60.2499C1253.87 64.5059 1252.58 68.7619 1250.83 72.1819V54.4739ZM1238.98 72.6379V67.8499H1241.86V72.6379H1238.98ZM1229.02 67.8499H1231.83V72.6379H1228.94C1229.02 71.1179 1229.02 69.5979 1229.02 68.1539V67.8499ZM1235.18 43.7579C1234.72 45.2019 1234.19 46.7219 1233.66 48.0139H1228.34C1229.02 46.6459 1229.63 45.2019 1230.31 43.7579H1235.18ZM1238.98 55.9939H1241.86V60.1739H1238.98V55.9939ZM1229.02 55.9939H1231.83V60.1739H1229.02V55.9939ZM1287.54 79.2499H1275.46V73.7019H1285.94V64.5059H1275.46V58.1979H1274.39C1275.76 58.1219 1277.05 58.0459 1277.96 57.8939C1279.94 57.5139 1281.54 56.8299 1282.9 55.0819C1284.58 52.9539 1285.18 47.4819 1285.49 35.5499C1285.56 34.4099 1285.64 32.2059 1285.64 32.2059H1251.29V41.1739H1258.81C1257.98 45.6579 1256 49.3059 1250.83 51.8899V48.0139H1242.78C1244.22 44.9739 1245.66 41.7819 1246.65 38.9699L1240.42 35.1699L1239.05 35.5499H1233.35C1233.96 33.8779 1234.42 32.1299 1234.87 30.3819L1225.14 28.2539C1223.17 37.1459 1219.29 45.9619 1214.2 51.4339C1215.87 52.4979 1218.38 54.6259 1220.28 56.2979V68.0779C1220.28 76.6659 1219.9 87.9899 1214.73 95.8179C1216.78 96.7299 1220.74 99.2379 1222.33 100.682C1225.9 95.2859 1227.58 87.8379 1228.41 80.6179H1241.86V90.1179C1241.86 91.0299 1241.56 91.3339 1240.72 91.3339C1239.81 91.3339 1237.08 91.3339 1234.57 91.1819C1235.86 93.6139 1237.3 97.8699 1237.61 100.454C1241.94 100.454 1245.06 100.226 1247.64 98.7059C1250.15 97.1099 1250.83 94.3739 1250.83 90.3459V75.2979C1252.96 76.2859 1255.85 77.7299 1257.29 78.7939C1258.2 77.3499 1259.12 75.6019 1259.88 73.7019H1264.97V79.2499H1251.9V88.6739H1264.97V100.302H1275.46V88.6739H1287.54V79.2499Z" fill="#ECEFFF"/>
<path d="M1315.51 35.7779C1312.39 33.2699 1306.16 30.2299 1301.52 28.5579L1295.6 36.6899C1300.31 38.7419 1306.39 42.1619 1309.12 44.8219L1315.51 35.7779ZM1311.1 56.1459C1307.91 53.6379 1301.52 50.6739 1296.89 49.0779L1290.96 57.4379C1295.75 59.4139 1301.9 62.7579 1304.72 65.3419L1311.1 56.1459ZM1306.77 68.4579C1302.44 77.5019 1296.96 86.8499 1293.16 92.6259L1302.82 99.5419C1307.15 91.8659 1311.4 83.5059 1315.2 75.3739L1306.77 68.4579ZM1339.6 50.0659H1347.12V61.9979H1339.45C1339.6 59.7179 1339.6 57.4379 1339.6 55.2339V50.0659ZM1363.31 72.3339V61.9979H1357.92V39.7299H1339.6V28.3299H1328.58V39.7299H1317.18V50.0659H1328.58V55.1579C1328.58 57.4379 1328.5 59.7179 1328.35 61.9979H1313.68V72.3339H1326.68C1324.48 80.1619 1319.61 87.4579 1309.43 93.0059C1312.32 94.6779 1316.65 98.4779 1318.7 100.834C1329.04 94.7539 1334.28 86.6979 1336.94 77.8819C1341.2 87.9899 1347.28 95.9699 1356.47 100.682C1358.14 97.6419 1361.64 93.1579 1364.22 90.9539C1355.79 87.3059 1349.78 80.4659 1346.21 72.3339H1363.31Z" fill="#ECEFFF"/>
<path d="M1822.04 55.5371C1829.03 50.2931 1834.96 44.3651 1838.98 38.7411C1842.94 44.2131 1849.32 50.2931 1856.39 55.5371H1822.04ZM1844.91 81.7571H1865.2V72.2571H1844.91V65.1891H1861.4V59.1091C1864.06 60.8571 1866.72 62.4531 1869.38 63.8971C1871.44 60.4771 1873.87 56.8291 1876.68 53.9411C1864.44 49.2291 1852.59 39.8811 1844.3 27.9491H1832.75C1827.28 37.0691 1815.2 48.5451 1802.12 54.8531C1804.56 57.1331 1807.67 61.2371 1809.12 63.8211C1811.93 62.3011 1814.59 60.7051 1817.25 58.9571V65.1891H1833.21V72.2571H1813.14V81.7571H1833.21V89.0531H1807.06V98.8571H1872.12V89.0531H1844.91V81.7571Z" fill="#ECEFFF"/>
<path d="M1950.02 50.5211V39.9571H1920.53V27.8731H1909.06V39.9571H1880.56V50.5211H1901.53C1900.77 66.1011 1899.1 82.2891 1878.88 91.7891C1881.85 94.1451 1885.12 98.1731 1886.71 101.213C1901.84 93.3851 1908.37 81.9091 1911.34 69.3691H1929.96C1929.04 81.2251 1927.75 87.3051 1925.93 88.8251C1924.86 89.6611 1923.8 89.8131 1922.13 89.8131C1919.77 89.8131 1914.45 89.8131 1909.28 89.3571C1911.41 92.3971 1913.08 97.0331 1913.24 100.225C1918.33 100.377 1923.42 100.377 1926.54 100.073C1930.34 99.6171 1933.07 98.7811 1935.66 95.9691C1938.77 92.4731 1940.37 83.8091 1941.66 63.5931C1941.89 62.1491 1941.96 58.9571 1941.96 58.9571H1913.08C1913.46 56.1451 1913.69 53.3331 1913.84 50.5211H1950.02Z" fill="#ECEFFF"/>
<path d="M1980.12 41.4011V51.8131H2026.32V41.4011H2008.16V29.3931H1996.99V41.4011H1980.12ZM1999.72 83.1251C1999.34 75.6771 1997.22 63.7451 1994.78 54.3971L1984.83 56.1451C1987.03 65.7211 1988.7 78.0331 1988.86 85.4051L1999.72 83.1251ZM1971.68 28.4811C1967.73 38.8931 1960.89 49.2291 1953.9 55.6891C1955.72 58.5011 1958.68 64.6571 1959.6 67.3171C1961.34 65.6451 1963.02 63.7451 1964.69 61.6931V100.301H1975.18V46.1131C1977.84 41.4011 1980.12 36.6131 1982.02 31.9011L1971.68 28.4811ZM2013.86 87.0771C2016.44 78.5651 2019.33 66.9371 2021.31 55.9171L2009.3 54.0171C2008.31 64.5811 2005.8 77.8811 2003.22 87.0771H1978.75V97.4891H2027.69V87.0771H2013.86Z" fill="#ECEFFF"/>
<path d="M2058.09 64.5811C2055.43 73.3211 2053.15 77.8811 2050.11 77.8811C2047.53 77.8811 2045.25 74.4611 2045.25 67.9251C2045.25 60.7051 2050.8 50.5971 2061.97 47.5571C2061.06 53.4851 2059.76 59.4891 2058.09 64.5811ZM2071.32 97.1091C2090.92 93.8411 2100.27 82.2131 2100.27 66.4051C2100.27 49.3051 2088.11 36.0811 2068.96 36.0811C2048.82 36.0811 2033.39 51.2811 2033.39 69.1411C2033.39 81.9851 2040.54 92.0931 2049.81 92.0931C2058.7 92.0931 2065.46 81.9851 2069.95 66.9371C2072 60.0211 2073.37 53.4091 2074.36 47.3291C2083.02 49.3811 2087.73 56.2971 2087.73 66.0251C2087.73 75.9051 2081.35 82.5931 2071.77 84.9491C2069.64 85.4811 2067.59 85.9371 2064.4 86.3171L2071.32 97.1091Z" fill="#ECEFFF"/>
<path d="M2132.04 67.0131C2131.89 74.6131 2131.58 77.7291 2130.98 78.6411C2130.37 79.4011 2129.68 79.6291 2128.7 79.6291C2127.48 79.6291 2125.5 79.5531 2123.22 79.3251C2123.76 75.0691 2124.06 70.8891 2124.21 67.0131H2132.04ZM2163.73 52.6491C2162.21 57.8931 2160.24 62.7571 2157.88 67.2411C2156.82 61.9971 2155.98 55.9931 2155.45 49.7611H2178.63V38.8931H2170.57L2174.37 34.9411C2171.71 32.4331 2166.39 29.0891 2162.52 27.0371L2155.83 33.6491C2158.18 35.0931 2161.07 37.0691 2163.43 38.8931H2154.84C2154.69 35.3971 2154.69 31.9011 2154.76 28.4051H2143.14C2143.14 31.9011 2143.21 35.3971 2143.36 38.8931H2112.66V61.6931C2112.66 71.6491 2112.28 85.1011 2106.66 94.0691C2109.16 95.3611 2114.18 99.4651 2116.08 101.669C2119.96 95.8171 2122.08 87.6851 2123.15 79.6291C2124.67 82.3651 2125.81 86.5451 2125.96 89.6611C2129.46 89.6611 2132.65 89.5851 2134.7 89.2051C2136.98 88.7491 2138.73 87.9891 2140.4 85.7851C2142.22 83.3531 2142.6 76.3611 2142.83 60.8571C2142.83 59.6411 2142.91 56.9811 2142.91 56.9811H2124.29V49.7611H2144.05C2144.96 60.7051 2146.56 71.1931 2149.14 79.7051C2145.04 84.3411 2140.17 88.2171 2134.7 91.1811C2137.06 93.3091 2141.08 97.9451 2142.68 100.301C2146.71 97.7171 2150.51 94.6771 2153.93 91.2571C2157.2 96.7291 2161.3 99.9971 2166.32 99.9971C2174.14 99.9971 2177.72 96.8051 2179.39 81.9851C2176.42 80.8451 2172.55 78.2611 2170.04 75.6771C2169.66 84.9491 2168.75 88.7491 2167.23 88.7491C2165.4 88.7491 2163.5 86.2411 2161.83 81.9091C2167.3 74.2331 2171.71 65.2651 2174.9 55.3091L2163.73 52.6491Z" fill="#ECEFFF"/>
<path d="M2241.18 73.6251C2238.59 75.6771 2235.4 77.9571 2232.36 79.7811C2230.54 77.9571 2228.86 75.9051 2227.5 73.6251H2241.18ZM2246.12 73.6251H2254.02V63.9731H2208.27V61.5411H2243.76V53.1051H2208.27V50.6731H2243.76V42.2371H2208.27V39.6531H2245.66V30.6851H2196.94V63.9731H2184.56V73.6251H2196.87V89.0531C2193.52 89.4331 2190.48 89.7371 2187.75 90.0411L2190.18 100.149C2199.45 98.8571 2211.84 97.1091 2223.32 95.3611L2222.78 85.6331C2218 86.2411 2213.06 86.9251 2208.27 87.6091V73.6251H2215.79C2222.1 87.8371 2231.52 96.5771 2248.62 100.605C2250.07 97.6411 2253.18 93.0051 2255.62 90.6491C2249.61 89.5851 2244.52 87.8371 2240.19 85.5571C2244.14 83.3531 2248.47 80.6931 2252.27 77.9571L2246.12 73.6251Z" fill="#ECEFFF"/>
<path d="M2318.32 75.4491C2317.48 77.1971 2316.42 78.7931 2315.28 80.3131C2314.82 78.7931 2314.36 77.1971 2313.98 75.4491H2318.32ZM2283.74 67.0131C2281.84 63.6691 2278.87 58.8051 2277.5 56.6771V53.7131H2283.66V45.0491C2285.48 46.7971 2287.38 48.6211 2288.75 50.2931C2287.31 52.4971 2285.86 54.6251 2284.5 56.4491L2282.29 56.6011L2283.74 64.5811C2287.84 64.1251 2292.25 63.5931 2296.81 62.9851C2296.88 63.7451 2296.96 64.4291 2296.96 65.0371L2302.66 62.9851C2302.81 64.3531 2302.96 65.7211 2303.12 67.0131H2283.74ZM2293.08 55.7651L2294.68 53.7131C2294.91 54.3211 2295.06 54.9291 2295.29 55.6131L2293.08 55.7651ZM2295.44 52.6491C2297.42 49.9131 2299.47 46.9491 2301.37 44.0611C2301.52 47.9371 2301.67 51.7371 2301.98 55.3851C2301.52 53.9411 2300.99 52.4211 2300.46 51.0531L2295.44 52.6491ZM2311.25 55.1571C2311.02 51.8891 2310.87 48.5451 2310.72 45.1251C2312.54 46.7211 2314.36 48.5451 2315.73 50.2171C2314.59 51.9651 2313.38 53.6371 2312.24 55.0811L2311.25 55.1571ZM2321.05 54.3211C2321.66 53.5611 2322.27 52.7251 2322.88 51.8891C2323.18 52.5731 2323.48 53.3331 2323.71 54.0931L2321.05 54.3211ZM2312.54 67.0131C2312.31 65.6451 2312.16 64.2771 2312.01 62.9091C2314.06 62.6051 2316.19 62.3011 2318.39 61.9971L2314.82 65.1131C2315.5 65.6451 2316.26 66.3291 2317.02 67.0131H2312.54ZM2321.2 75.4491H2330.63V67.0131H2325.16L2326.45 65.8731C2325.46 64.5811 2323.56 62.9091 2321.74 61.5411L2325.54 60.9331C2325.76 61.9971 2325.92 62.9091 2325.99 63.7451L2332.45 61.1611C2332.07 58.1211 2330.55 53.3331 2328.88 49.6091L2322.95 51.8131C2325.61 48.1651 2328.27 44.2131 2330.7 40.6411L2323.26 37.0691C2322.34 39.0451 2321.13 41.2491 2319.84 43.5291C2319.46 43.1491 2319.08 42.6931 2318.62 42.3131C2320.52 39.3491 2322.72 35.3211 2325 31.5971L2316.8 28.6331C2316.04 31.3691 2314.74 34.8651 2313.45 37.9051L2312.62 37.2211L2310.64 40.2611C2310.56 36.3851 2310.64 32.4331 2310.72 28.4051H2301.14C2301.14 32.1291 2301.14 35.8531 2301.22 39.5011L2296.2 37.0691C2295.29 39.0451 2294.15 41.3251 2292.86 43.6051C2292.48 43.2251 2292.1 42.7691 2291.72 42.3891C2293.54 39.3491 2295.67 35.3211 2297.87 31.6731L2289.74 28.6331C2288.98 31.3691 2287.76 34.8651 2286.47 37.9051L2285.56 37.2211L2281.61 43.2251L2282.14 43.6811H2277.5V28.3291H2267.7V43.6811H2260.33V53.7131H2267.02C2265.42 62.1491 2262.23 71.8771 2258.43 77.5771C2259.87 80.0851 2262 84.1891 2262.91 87.0011C2264.66 84.1131 2266.33 80.3891 2267.7 76.2091V100.529H2277.5V69.9011C2278.64 72.7131 2279.71 75.6011 2280.39 77.6531L2283.74 72.7131V75.4491H2288.14C2287.38 82.3651 2285.64 88.8251 2279.02 93.1571C2281.23 94.7531 2283.89 98.1731 2285.1 100.453C2290.35 96.8811 2293.46 92.2451 2295.29 87.0011C2297.11 88.5971 2298.86 90.2691 2299.85 91.5611L2305.62 84.1891C2303.88 82.2891 2300.53 79.6291 2297.49 77.5011L2297.72 75.4491H2304.48C2305.4 79.9331 2306.54 83.9611 2307.9 87.4571C2304.41 89.8891 2300.46 91.9411 2295.97 93.3851C2297.8 95.1331 2300.53 98.4771 2301.67 100.453C2305.4 99.0851 2308.97 97.3371 2312.16 95.2091C2314.9 98.6291 2318.24 100.529 2322.34 100.529C2328.73 100.529 2331.24 98.4011 2332.83 89.5851C2330.7 88.5971 2327.74 86.6971 2325.84 84.6451C2325.46 90.1931 2324.78 91.4091 2323.1 91.4091C2321.81 91.4091 2320.6 90.7251 2319.46 89.3571C2322.8 86.0891 2325.61 82.2891 2327.82 77.9571L2321.2 75.4491Z" fill="#ECEFFF"/>
<path d="M2359.74 50.9011C2364.45 47.0251 2368.48 42.9211 2371.36 39.0451C2374.25 42.9971 2378.58 47.1011 2383.52 50.9011H2359.74ZM2353.73 61.0091H2389V54.7771C2393.02 57.4371 2397.2 59.8691 2401.23 61.6931C2403.21 58.3491 2405.64 54.3971 2408.38 51.5851C2396.29 47.6331 2384.89 39.6531 2376.76 28.4811H2365.06C2359.58 37.0691 2347.73 47.7851 2334.73 53.2571C2337.01 55.6131 2339.98 59.8691 2341.27 62.5291C2345.6 60.5531 2349.86 58.0451 2353.73 55.3851V61.0091ZM2384.66 75.8291L2376.61 80.0091C2378.58 81.9091 2380.64 84.0371 2382.61 86.2411C2376.38 86.4691 2370.07 86.6971 2364.07 86.9251C2365.97 83.4291 2367.94 79.5531 2369.84 75.8291H2384.66ZM2403.21 75.8291V65.5691H2339.9V75.8291H2356.24C2355.02 79.6291 2353.43 83.7331 2351.76 87.3051C2347.5 87.4571 2343.62 87.6091 2340.13 87.6851L2341.57 98.4771C2354.57 97.8691 2372.96 97.0331 2390.44 96.0451C2391.5 97.6411 2392.49 99.1611 2393.18 100.529L2403.51 94.2971C2400.17 88.8251 2393.78 81.5291 2387.48 75.8291H2403.21Z" fill="#ECEFFF"/>
</svg>
