<svg width="2444" height="128" viewBox="0 0 2444 128" fill="none" xmlns="http://www.w3.org/2000/svg">
<path d="M46.53 50.0229V38.6529H52.41C53.28 38.6529 54.39 38.7129 55.35 38.8029V33.8229C54.42 33.9429 53.31 34.0329 52.41 34.0329H36.15C35.22 34.0329 33.9 33.9429 33.12 33.8229V38.8029C33.9 38.7129 35.22 38.6529 36.15 38.6529H41.43V50.0229H34.26C33.3 50.0229 32.13 49.9329 31.14 49.7529V55.0029C32.19 54.8829 33.33 54.8529 34.26 54.8529H54.03C54.78 54.8529 56.13 54.8829 57 55.0029V49.7529C56.22 49.8729 55.17 50.0229 54.03 50.0229H46.53Z" fill="#ECEFFF"/>
<path d="M66.54 31.9929L63.09 35.6829C65.25 37.2129 69.03 40.5129 70.62 42.2529L74.34 38.4429C72.54 36.5229 68.61 33.4029 66.54 31.9929ZM62.1 51.9129L65.19 56.7129C68.97 56.1129 72.87 54.5529 75.93 52.7529C80.94 49.8129 85.2 45.6429 87.6 41.3829L84.78 36.2529C82.77 40.4829 78.72 45.1329 73.32 48.2529C70.38 49.9629 66.51 51.3129 62.1 51.9129Z" fill="#ECEFFF"/>
<path d="M111.18 31.8729L108.18 33.1029C109.35 34.7529 109.83 35.7429 110.79 37.8129L113.88 36.4929C113.22 35.1429 112.08 33.2229 111.18 31.8729ZM115.44 30.4029L112.38 31.6629C113.55 33.2529 114.12 34.1229 115.17 36.1929L118.23 34.8429C117.51 33.5529 116.43 31.6929 115.44 30.4029ZM98.04 31.2129L95.4 35.2329C97.5 36.4029 100.56 38.3529 102.36 39.5529L105.06 35.5329C103.35 34.3629 100.14 32.3529 98.04 31.2129ZM91.89 52.4229L94.62 57.2229C97.2 56.8029 101.61 55.2429 104.67 53.5329C109.65 50.6829 113.94 46.9329 116.82 42.7029L114.03 37.7229C111.66 42.0429 107.34 46.2729 102.18 49.1229C98.79 50.9529 95.28 51.8529 91.89 52.4229ZM93.36 38.1129L90.72 42.1329C92.85 43.2729 95.88 45.2529 97.71 46.5129L100.38 42.4329C98.7 41.2629 95.52 39.2529 93.36 38.1129Z" fill="#ECEFFF"/>
<path d="M121.53 54.5529C122.73 54.4329 124.41 54.3429 125.64 54.3429H142.44C143.37 54.3429 144.9 54.4329 146.07 54.5529V49.0029C144.96 49.1229 143.52 49.2129 142.44 49.2129H125.64C124.41 49.2129 122.79 49.0929 121.53 49.0029V54.5529ZM124.02 39.7029C125.1 39.6429 126.69 39.5829 127.89 39.5829H140.04C141.12 39.5829 142.68 39.6729 143.58 39.7029V34.4229C142.71 34.5429 141.3 34.6329 140.04 34.6329H127.86C126.81 34.6329 125.19 34.5729 124.02 34.4229V39.7029Z" fill="#ECEFFF"/>
<path d="M160.47 39.0429C160.65 40.1229 160.71 40.9929 160.71 42.0429C160.71 46.9329 159.96 49.4829 156.63 52.0029C155.37 52.9629 154.26 53.4729 153.21 53.8329L157.44 57.2829C165.9 52.5729 165.75 46.0929 165.75 39.0429H160.47ZM175.23 32.2929C174.6 32.4729 172.62 32.5929 171.63 32.5929H156.06C154.74 32.5929 153.48 32.4429 152.25 32.2629V37.2729C153.81 37.1229 154.74 37.0329 156.06 37.0329H170.88C170.22 38.2929 168.15 40.5729 165.93 41.9829L169.68 44.9829C172.38 43.0329 175.23 39.2829 176.76 36.7629C177.06 36.2829 177.75 35.4129 178.11 34.9629L175.23 32.2929Z" fill="#ECEFFF"/>
<path d="M208.59 33.0429C208.08 32.0229 207 30.1029 206.22 28.9629L203.4 30.1029C204.21 31.2429 205.17 33.0129 205.77 34.2429L208.59 33.0429ZM187.89 31.2129C187.95 33.0429 187.74 35.1129 187.32 37.4229C186 37.5129 184.77 37.6029 183.9 37.6329C182.73 37.6629 181.59 37.7229 180.45 37.6329L180.84 42.4629C181.83 42.2829 183.54 42.0429 184.5 41.9229C184.92 41.8629 185.58 41.7729 186.36 41.6529C185.25 45.7029 183.33 51.2529 180.51 55.0629L185.22 56.9529C187.74 52.8729 189.96 45.7329 191.16 41.1129C191.7 41.0829 192.21 41.0529 192.54 41.0529C194.4 41.0529 195.3 41.3229 195.3 43.4829C195.3 46.2429 194.94 49.6329 194.19 51.1029C193.8 51.9129 193.11 52.2429 192.18 52.2429C191.43 52.2429 189.63 51.9129 188.55 51.6129L189.33 56.3529C190.38 56.5929 191.79 56.7729 192.93 56.7729C195.36 56.7729 197.1 56.0229 198.12 53.8929C199.38 51.2529 199.77 46.4829 199.77 43.0029C199.77 38.5629 197.52 36.9429 194.1 36.9429C193.56 36.9429 192.87 36.9729 192.09 37.0329C192.27 36.2529 192.45 35.4429 192.6 34.6329C192.78 33.7929 193.02 32.6829 193.23 31.7829L187.89 31.2129ZM204.87 34.5129C204.33 33.4629 203.28 31.5129 202.53 30.4029L199.71 31.5429C200.4 32.5629 201.15 34.0329 201.75 35.2029L199.14 36.2829C201.3 39.0429 203.28 44.3229 204 47.7729L208.59 45.6429C207.78 42.9129 205.56 37.7829 203.79 34.9629L204.87 34.5129Z" fill="#ECEFFF"/>
<path d="M219.42 32.9529C218.13 32.1429 215.49 30.8229 213.9 30.0129L211.44 33.1629C213.09 34.1529 215.67 35.5929 216.84 36.4629L219.42 32.9529ZM218.1 41.1129C216.75 40.3029 213.99 39.0129 212.34 38.2629L210 41.5029C211.77 42.4329 214.44 43.8729 215.67 44.7429L218.1 41.1129ZM213.99 57.7929C215.82 54.7929 217.62 51.5529 219.21 48.4029L216 45.4929C214.17 49.0029 211.89 52.6329 210.3 54.8529L213.99 57.7929ZM232.86 52.9629H224.76V49.6029H232.86V52.9629ZM238.26 42.4929V38.3229H230.94V34.8129C233.19 34.3629 235.32 33.7329 237.24 32.9829L233.91 29.5629C230.58 30.9729 225.21 31.9929 220.17 32.4729C220.62 33.4329 221.19 35.1429 221.34 36.1929C223.11 36.0429 224.97 35.8329 226.8 35.5629V38.3229H219.12V42.4929H226.8V45.6729H220.83V58.0929H224.76V56.8929H232.86V57.9729H237V45.6729H230.94V42.4929H238.26Z" fill="#ECEFFF"/>
<path d="M256.5 53.0829H259.23V53.9529H256.5V53.0829ZM259.23 46.7829H256.5V45.9429H259.23V46.7829ZM259.23 50.3529H256.5V49.5429H259.23V50.3529ZM244.56 34.5129H246.66V37.9629H244.56V34.5129ZM268.17 53.9529H262.95V53.0829H266.79V50.3529H262.95V49.5429H266.79V46.7829H262.95V45.9429H267.93V42.6129H263.91L264.75 41.1729L263.79 40.9629H267.6V30.7929H259.71V33.7329H263.88V34.4529H259.98V37.3029H263.88V38.0529H259.71V40.9629H260.46C260.31 41.5029 260.1 42.0729 259.89 42.6129H257.49C257.7 42.1629 257.91 41.7129 258.12 41.2629L257.01 40.9629H258.99V30.7929H251.31V33.7329H255.3V34.4529H251.58V37.3029H255.3V38.0529H251.16V40.9629H253.74C253.02 42.6429 251.91 44.5029 250.59 46.0029V44.5329H248.04V41.4729H250.35V30.9729H241.11V41.4729H244.59V52.3929L243.93 52.5129V43.0929H240.75V53.0829L239.37 53.2929L240.09 57.3129C243.33 56.6229 247.53 55.7229 251.43 54.8229L251.04 51.1329L248.04 51.7329V48.1929H249.84C250.53 48.8829 251.31 49.7529 251.76 50.3229C252.03 50.0829 252.3 49.8429 252.57 49.6029V58.0629H256.5V57.3729H268.17V53.9529Z" fill="#ECEFFF"/>
<path d="M281.55 45.4629C281.55 44.1129 282.54 43.5429 283.44 43.5429C284.1 43.5429 284.7 43.8129 285.06 44.3229C285.39 46.6029 284.4 47.2929 283.44 47.2929C282.51 47.2929 281.55 46.5429 281.55 45.4629ZM297.12 34.1829C295.56 34.1529 291.57 34.2129 288.81 34.2129V33.8829C288.84 33.3429 288.96 31.5129 289.05 30.9429H283.86C283.98 31.5129 284.1 32.7729 284.19 33.9129L284.22 34.2429C280.38 34.3029 275.13 34.4229 271.68 34.3929L271.8 38.7129C275.43 38.5329 279.81 38.3529 284.28 38.2929L284.31 39.7929C284.07 39.7629 283.83 39.7629 283.56 39.7629C280.11 39.7629 277.23 41.9529 277.23 45.5529C277.23 49.3929 280.32 51.2529 282.51 51.2529C282.69 51.2529 282.87 51.2529 283.05 51.2229C281.31 52.6029 278.82 53.3229 276.24 53.8329L280.05 57.6729C287.49 55.6629 289.95 50.5029 289.95 46.6929C289.95 45.0729 289.56 43.6029 288.78 42.4029C288.78 41.1729 288.78 39.6729 288.75 38.2629C292.5 38.2929 295.29 38.3529 297.06 38.4429L297.12 34.1829Z" fill="#ECEFFF"/>
<path d="M313.68 52.9929C312.18 52.9929 311.19 52.3329 311.19 51.4029C311.19 50.8029 311.76 50.2329 312.72 50.2329C313.98 50.2329 314.88 51.2829 315.03 52.9329C314.61 52.9629 314.16 52.9929 313.68 52.9929ZM320.43 31.6629C320.04 31.7829 319.2 31.9029 317.79 32.0229C316.02 32.1729 310.08 32.2629 308.49 32.2629C307.5 32.2629 306.39 32.2029 305.46 32.0829L305.61 36.7329C306.33 36.6129 307.38 36.5229 308.28 36.4629C309.87 36.3429 312.93 36.2229 314.43 36.1929C312.99 37.4829 310.23 39.6129 308.58 40.9929C306.81 42.4329 303.36 45.3729 301.44 46.8729L304.71 50.2629C307.56 46.7829 310.68 44.1729 315.03 44.1729C318.3 44.1729 320.91 45.7629 320.91 48.3129C320.91 49.7529 320.34 50.9229 319.17 51.7329C318.66 48.9129 316.32 46.8129 312.69 46.8129C309.33 46.8129 306.93 49.2429 306.93 51.8529C306.93 55.1229 310.41 57.0729 314.61 57.0729C322.29 57.0729 325.65 53.0229 325.65 48.3729C325.65 43.9029 321.63 40.6329 316.53 40.6329C315.81 40.6329 315.24 40.6629 314.46 40.8129C316.08 39.5529 318.69 37.4229 320.37 36.2829C321.12 35.7729 321.87 35.3229 322.65 34.8429L320.43 31.6629Z" fill="#ECEFFF"/>
<path d="M343.59 46.6329C342.99 46.0329 340.83 44.1129 339.39 42.9429C340.74 40.9929 341.88 38.8329 342.72 36.5829L340.29 34.9929L339.54 35.1429H338.88V29.6529H334.56V35.1429H330.51V39.0729H337.2C335.34 42.2529 332.43 45.0729 329.34 46.6629C329.97 47.5029 330.99 49.6929 331.35 50.8629C332.43 50.2029 333.51 49.3929 334.56 48.4629V58.1529H338.88V47.5029C339.66 48.4629 340.41 49.4229 340.95 50.1729L343.59 46.6329ZM352.5 52.9929V42.8229H357.84V38.6229H352.5V29.9529H348V38.6229H342.69V42.8229H348V52.9929H341.43V57.2829H358.59V52.9929H352.5Z" fill="#ECEFFF"/>
<path d="M369.51 38.5329C371.37 37.0029 372.96 35.3829 374.1 33.8529C375.24 35.4129 376.95 37.0329 378.9 38.5329H369.51ZM367.14 42.5229H381.06V40.0629C382.65 41.1129 384.3 42.0729 385.89 42.7929C386.67 41.4729 387.63 39.9129 388.71 38.8029C383.94 37.2429 379.44 34.0929 376.23 29.6829H371.61C369.45 33.0729 364.77 37.3029 359.64 39.4629C360.54 40.3929 361.71 42.0729 362.22 43.1229C363.93 42.3429 365.61 41.3529 367.14 40.3029V42.5229ZM379.35 48.3729L376.17 50.0229C376.95 50.7729 377.76 51.6129 378.54 52.4829C376.08 52.5729 373.59 52.6629 371.22 52.7529C371.97 51.3729 372.75 49.8429 373.5 48.3729H379.35ZM386.67 48.3729V44.3229H361.68V48.3729H368.13C367.65 49.8729 367.02 51.4929 366.36 52.9029C364.68 52.9629 363.15 53.0229 361.77 53.0529L362.34 57.3129C367.47 57.0729 374.73 56.7429 381.63 56.3529C382.05 56.9829 382.44 57.5829 382.71 58.1229L386.79 55.6629C385.47 53.5029 382.95 50.6229 380.46 48.3729H386.67Z" fill="#ECEFFF"/>
<path d="M418.59 33.0429C418.08 32.0229 417 30.1029 416.22 28.9629L413.4 30.1029C414.21 31.2429 415.17 33.0129 415.77 34.2429L418.59 33.0429ZM397.89 31.2129C397.95 33.0429 397.74 35.1129 397.32 37.4229C396 37.5129 394.77 37.6029 393.9 37.6329C392.73 37.6629 391.59 37.7229 390.45 37.6329L390.84 42.4629C391.83 42.2829 393.54 42.0429 394.5 41.9229C394.92 41.8629 395.58 41.7729 396.36 41.6529C395.25 45.7029 393.33 51.2529 390.51 55.0629L395.22 56.9529C397.74 52.8729 399.96 45.7329 401.16 41.1129C401.7 41.0829 402.21 41.0529 402.54 41.0529C404.4 41.0529 405.3 41.3229 405.3 43.4829C405.3 46.2429 404.94 49.6329 404.19 51.1029C403.8 51.9129 403.11 52.2429 402.18 52.2429C401.43 52.2429 399.63 51.9129 398.55 51.6129L399.33 56.3529C400.38 56.5929 401.79 56.7729 402.93 56.7729C405.36 56.7729 407.1 56.0229 408.12 53.8929C409.38 51.2529 409.77 46.4829 409.77 43.0029C409.77 38.5629 407.52 36.9429 404.1 36.9429C403.56 36.9429 402.87 36.9729 402.09 37.0329C402.27 36.2529 402.45 35.4429 402.6 34.6329C402.78 33.7929 403.02 32.6829 403.23 31.7829L397.89 31.2129ZM414.87 34.5129C414.33 33.4629 413.28 31.5129 412.53 30.4029L409.71 31.5429C410.4 32.5629 411.15 34.0329 411.75 35.2029L409.14 36.2829C411.3 39.0429 413.28 44.3229 414 47.7729L418.59 45.6429C417.78 42.9129 415.56 37.7829 413.79 34.9629L414.87 34.5129Z" fill="#ECEFFF"/>
<path d="M433.08 47.8029C432.93 46.5729 432.84 45.2529 432.81 43.7529C433.77 43.4829 434.85 43.2729 436.08 43.2129C435.24 45.1329 434.19 46.5729 433.08 47.8029ZM427.02 51.4629C426.15 51.4629 425.85 51.0129 425.85 50.2029C425.85 48.9129 426.99 47.0229 428.82 45.6429C428.91 47.4429 429.09 49.1829 429.36 50.7729C428.49 51.2229 427.68 51.4629 427.02 51.4629ZM437.49 37.8729C437.46 38.2929 437.37 38.9229 437.25 39.5529H437.07C435.66 39.5529 434.25 39.7029 432.93 40.0029C432.99 39.2829 433.05 38.5629 433.11 37.8429C436.8 37.6929 440.79 37.3029 443.58 36.7929L443.55 32.6829C440.16 33.4929 437.19 33.8529 433.68 33.9729C433.74 33.5529 433.83 33.1329 433.92 32.7429C434.04 32.2329 434.16 31.6929 434.37 31.0029L429.72 30.8829C429.75 31.4829 429.69 32.2929 429.63 32.8629L429.51 34.0629H428.79C426.66 34.0629 424.05 33.7929 423 33.6429L423.12 37.7529C424.59 37.8129 426.9 37.9629 428.64 37.9629H429.12C429 39.0429 428.91 40.1829 428.85 41.2929C424.68 43.3029 421.62 47.3529 421.62 51.1629C421.62 54.4629 423.6 55.8429 425.91 55.8429C427.44 55.8429 428.91 55.4229 430.26 54.8229C430.38 55.1829 430.47 55.5429 430.59 55.8429L434.73 54.6129C434.49 53.9229 434.28 53.2329 434.07 52.5129C436.2 50.7429 438.51 47.7729 440.1 43.8729C441.72 44.6229 442.53 45.9429 442.53 47.4729C442.53 49.8729 440.76 52.8429 434.82 53.5029L437.19 57.2529C444.69 56.1429 447 51.8529 447 47.6829C447 44.1429 444.69 41.4729 441.33 40.2729C441.54 39.7329 441.72 39.1929 441.84 38.8929L437.49 37.8729Z" fill="#ECEFFF"/>
<path d="M453.18 42.1329L455.01 46.8129C457.92 45.5529 463.5 43.2429 466.83 43.2429C469.17 43.2429 470.67 44.6229 470.67 46.6629C470.67 50.2629 465.99 52.0329 459.03 52.2129L460.95 56.6529C471.18 56.0229 475.47 51.9129 475.47 46.7529C475.47 41.9829 472.26 39.0429 467.28 39.0429C463.62 39.0429 458.52 40.7229 456.54 41.3229C455.67 41.5929 454.05 41.9829 453.18 42.1329Z" fill="#ECEFFF"/>
<path d="M479.616 34.3029L480.066 39.1929C483.636 38.4129 488.856 37.8129 491.406 37.5429C489.816 38.9829 487.656 42.1329 487.656 46.2129C487.656 52.5429 493.326 56.1429 499.956 56.6529L501.636 51.6429C496.506 51.3429 492.396 49.6329 492.396 45.2529C492.396 41.7429 495.156 38.2629 498.366 37.5429C500.016 37.2129 502.536 37.2129 504.066 37.1829L504.036 32.5629C501.876 32.6529 498.366 32.8329 495.396 33.0729C489.966 33.5529 485.466 33.9129 482.676 34.1529C482.106 34.2129 480.816 34.2729 479.616 34.3029Z" fill="#ECEFFF"/>
<path d="M513.906 37.9029C516.366 38.0829 518.976 38.2329 522.156 38.2329C525.036 38.2329 528.966 38.0529 531.066 37.8729V33.0429C528.726 33.2829 525.096 33.4629 522.126 33.4629C518.916 33.4629 516.126 33.3429 513.906 33.1029V37.9029ZM512.406 45.6129C512.196 46.6929 511.836 48.1629 511.836 49.9929C511.836 54.2529 515.196 56.7129 522.426 56.7129C526.566 56.7129 530.016 56.3529 532.866 55.7229L532.836 50.6229C529.986 51.3429 526.206 51.7929 522.246 51.7929C518.226 51.7929 516.696 50.5329 516.696 48.8529C516.696 47.8929 516.906 47.0529 517.146 46.0329L512.406 45.6129Z" fill="#ECEFFF"/>
<path d="M544.746 32.0829L544.956 36.6429C546.036 36.5229 547.116 36.4029 547.836 36.3429C549.006 36.2229 551.796 36.0729 552.966 35.9829C551.136 37.6329 547.746 40.5729 545.406 42.0129C543.846 42.1929 541.746 42.4629 540.156 42.6129L540.576 46.9929C543.246 46.5129 546.186 46.0629 548.646 45.8829C547.806 46.9629 547.236 48.6129 547.236 50.0529C547.236 55.2129 551.916 57.5229 559.746 57.1929L560.676 52.4529C559.566 52.5429 557.616 52.5429 556.026 52.3929C553.386 52.1229 551.856 51.2529 551.856 49.2729C551.856 47.0529 553.836 45.4029 556.446 45.0429C558.276 44.8029 561.336 44.8329 564.156 45.0129L564.126 40.7829C560.886 40.7829 556.206 41.0529 552.516 41.4129C554.346 39.9729 556.506 38.1729 558.576 36.5529C559.296 35.9529 560.586 35.1129 561.336 34.6329L558.516 31.3029C558.066 31.4529 557.316 31.6029 556.206 31.7229C554.316 31.9329 549.066 32.2029 547.836 32.2029C546.756 32.2029 545.796 32.1729 544.746 32.0829Z" fill="#ECEFFF"/>
<path d="M578.796 54.2229C577.476 52.5429 574.476 49.4529 572.376 47.7129L568.566 50.9829C570.636 52.8129 573.156 55.3929 574.926 57.5529L578.796 54.2229Z" fill="#ECEFFF"/>
<path d="M46.35 88.7729V84.9029H49.44V88.7729H46.35ZM53.85 93.9329V84.9029H58.23V80.7029H53.85V74.2229H49.44V80.7029H46.35V73.9529H41.94V80.7029H38.7V74.5829H34.2V80.7029H30V84.9029H34.2V102.123H38.7V100.383H57.15V96.1829H38.7V84.9029H41.94V93.9329H46.35V92.8229H49.44V93.9329H53.85Z" fill="#ECEFFF"/>
<path d="M70.44 87.9329C69.39 91.3829 68.49 93.1829 67.29 93.1829C66.27 93.1829 65.37 91.8329 65.37 89.2529C65.37 86.4029 67.56 82.4129 71.97 81.2129C71.61 83.5529 71.1 85.9229 70.44 87.9329ZM75.66 100.773C83.4 99.4829 87.09 94.8929 87.09 88.6529C87.09 81.9029 82.29 76.6829 74.73 76.6829C66.78 76.6829 60.69 82.6829 60.69 89.7329C60.69 94.8029 63.51 98.7929 67.17 98.7929C70.68 98.7929 73.35 94.8029 75.12 88.8629C75.93 86.1329 76.47 83.5229 76.86 81.1229C80.28 81.9329 82.14 84.6629 82.14 88.5029C82.14 92.4029 79.62 95.0429 75.84 95.9729C75 96.1829 74.19 96.3629 72.93 96.5129L75.66 100.773Z" fill="#ECEFFF"/>
<path d="M106.32 88.6529V83.0429H112.11V88.6529H106.32ZM95.94 88.6529V83.0429H101.7V88.6529H95.94ZM106.32 78.7529V73.6229H101.7V78.7529H91.56V94.5029H95.94V92.9429H101.7V102.123H106.32V92.9429H112.11V94.3529H116.7V78.7529H106.32Z" fill="#ECEFFF"/>
<path d="M138.27 94.8029C138.24 93.4829 138.18 91.4729 138.15 89.8529C139.71 89.1629 141.15 88.5929 142.29 88.1729C143.43 87.7229 145.29 87.0329 146.34 86.7329L144.57 82.5929C143.31 83.1929 142.08 83.7629 140.79 84.3329C139.74 84.8129 138.78 85.2029 137.58 85.7729C136.8 84.3929 135.36 83.6729 133.62 83.6729C132.78 83.6729 131.28 83.7929 130.68 83.9729C131.07 83.3729 131.46 82.6529 131.82 81.8729C135 81.7529 138.63 81.4829 141.42 81.1229L141.45 76.9529C138.96 77.4029 136.11 77.6429 133.44 77.7929C133.77 76.6829 133.98 75.7529 134.1 75.0929L129.36 74.7029C129.33 75.4529 129.18 76.5929 128.85 77.9429H127.68C126.09 77.9429 123.81 77.8229 122.34 77.5829V81.7529C123.9 81.9029 126.06 81.9629 127.29 81.9629C125.85 84.6929 123.75 87.1229 120.93 89.6129L124.77 92.4929C125.79 91.1429 126.63 90.0629 127.53 89.1329C128.55 88.1429 130.38 87.1529 131.91 87.1529C132.48 87.1529 133.08 87.3029 133.53 87.7529C130.23 89.4929 126.69 91.9829 126.69 95.8529C126.69 99.8129 130.2 101.073 135.09 101.073C138.03 101.073 141.84 100.803 143.67 100.563L143.82 95.9129C141.21 96.4829 137.82 96.8429 135.18 96.8429C132.39 96.8429 131.46 96.3329 131.46 95.0729C131.46 93.8729 132.27 92.9129 134.13 91.8329C134.1 92.9429 134.04 94.0529 133.98 94.8029H138.27Z" fill="#ECEFFF"/>
<path d="M167.52 92.9729C166.59 93.8429 165.48 94.5629 164.22 95.1929C162.99 94.5629 161.94 93.8429 161.07 92.9729H167.52ZM165.81 79.9829V84.6029C165.81 84.9029 165.72 84.9629 165.39 84.9629C165.06 84.9629 163.98 84.9629 163.17 84.9329C163.62 85.8629 164.07 87.1529 164.28 88.2329L161.55 87.6929C163.53 85.2629 163.86 82.3829 163.89 79.9829H165.81ZM171.24 89.4329L170.52 89.5829H163.68C163.92 89.2829 164.13 88.9829 164.37 88.6829V88.7429C166.08 88.7429 167.46 88.7129 168.6 88.1129C169.8 87.5129 170.04 86.4929 170.04 84.7229V79.9829H177.57V75.9929H166.32V73.6229H161.82V75.9929H150.69V79.9829H159.84C159.81 82.2029 159.24 84.9029 155.91 86.8829C156.69 87.4229 157.83 88.4129 158.61 89.2529C156.84 90.9629 154.26 92.4929 150.6 93.6029C151.5 94.2629 152.76 95.8229 153.3 96.8429C154.89 96.2129 156.3 95.5529 157.56 94.8329C158.19 95.5529 158.88 96.2429 159.63 96.8429C156.66 97.5929 153.27 98.0429 149.61 98.2529C150.36 99.1829 151.32 101.103 151.65 102.183C156.09 101.733 160.32 100.923 163.95 99.5129C167.19 100.953 171.15 101.733 176.07 102.063C176.61 100.863 177.72 98.9729 178.62 97.9529C174.93 97.8329 171.72 97.5029 168.99 96.8729C171.09 95.4029 172.83 93.5729 174.09 91.2929L171.24 89.4329ZM154.14 80.6729C153.42 82.4129 151.83 84.4529 150.03 85.6229C150.87 86.1929 152.25 87.3329 153.03 88.1129C155.07 86.6429 156.96 84.1829 158.19 81.7529L154.14 80.6729ZM170.49 82.5029C172.05 84.2729 173.94 86.7029 174.69 88.2929L178.32 86.1329C177.42 84.5129 175.44 82.2329 173.85 80.5829L170.49 82.5029Z" fill="#ECEFFF"/>
<path d="M188.49 74.6729L187.8 78.8429C191.31 79.3829 197.04 80.0129 200.25 80.2529L200.82 76.0529C197.61 75.8429 191.88 75.2429 188.49 74.6729ZM202.11 84.6329L199.5 81.6929C199.17 81.8129 198.27 81.9929 197.7 82.0529C195.09 82.3829 188.46 82.5929 187.2 82.5929C186.06 82.5929 184.86 82.5329 184.17 82.4729L184.59 87.4229C185.22 87.3029 186.21 87.1229 187.26 87.0329C188.91 86.8829 191.64 86.6429 193.56 86.6129C190.98 89.4329 186.06 94.3229 184.32 96.0629C183.42 96.9629 182.58 97.6829 181.95 98.1929L186.18 101.133C188.43 98.2829 190.08 96.4229 191.07 95.3729C191.79 94.6229 192.39 94.1129 192.84 94.1129C193.35 94.1129 193.98 94.4129 194.31 95.4629C194.49 96.1529 194.79 97.3529 195.12 98.2229C195.87 100.143 197.46 100.773 200.49 100.773C201.99 100.773 205.23 100.593 206.46 100.383L206.76 95.6729C205.2 95.9429 203.28 96.1529 200.82 96.1529C199.86 96.1529 199.23 95.7029 198.99 94.8929C198.75 94.2329 198.51 93.3029 198.24 92.5529C197.85 91.5029 197.4 90.9329 196.71 90.6029C196.35 90.4229 195.81 90.2729 195.57 90.2729C196.05 89.7329 198.54 87.4829 200.01 86.2529C200.64 85.7429 201.21 85.2629 202.11 84.6329Z" fill="#ECEFFF"/>
<path d="M209.616 78.3029L210.066 83.1929C213.636 82.4129 218.856 81.8129 221.406 81.5429C219.816 82.9829 217.656 86.1329 217.656 90.2129C217.656 96.5429 223.326 100.143 229.956 100.653L231.636 95.6429C226.506 95.3429 222.396 93.6329 222.396 89.2529C222.396 85.7429 225.156 82.2629 228.366 81.5429C230.016 81.2129 232.536 81.2129 234.066 81.1829L234.036 76.5629C231.876 76.6529 228.366 76.8329 225.396 77.0729C219.966 77.5529 215.466 77.9129 212.676 78.1529C212.106 78.2129 210.816 78.2729 209.616 78.3029Z" fill="#ECEFFF"/>
<path d="M246.036 77.6129L240.516 77.5529C240.726 78.6029 240.786 79.8629 240.786 80.7629C240.786 82.6529 240.816 86.0429 241.116 88.8629C241.956 96.9929 244.866 99.9929 248.376 99.9929C250.986 99.9929 252.876 98.1329 254.946 92.8829L251.316 88.4429C250.896 90.4529 249.846 94.1729 248.466 94.1729C246.756 94.1729 246.156 91.4429 245.796 87.5429C245.616 85.5629 245.616 83.6129 245.616 81.6629C245.616 80.7929 245.796 78.8729 246.036 77.6129ZM260.556 78.1829L255.966 79.6829C259.446 83.4629 260.886 91.0529 261.306 95.5229L266.076 93.6929C265.836 89.4029 263.466 81.6029 260.556 78.1829Z" fill="#ECEFFF"/>
<path d="M285.846 74.2829C285.306 75.0929 284.226 76.1429 283.236 77.1029C281.226 79.0229 277.416 82.1729 275.046 84.0929C271.896 86.6729 271.716 88.4729 274.746 91.0829C277.446 93.3929 281.706 97.0529 283.356 98.7629C284.316 99.7529 285.306 100.773 286.266 101.853L290.466 97.9529C287.496 95.1329 281.646 90.6029 279.696 88.8929C278.256 87.6329 278.196 87.3629 279.666 86.1029C281.526 84.4829 285.246 81.6329 287.106 80.2229C287.916 79.5929 288.936 78.8129 290.046 78.0029L285.846 74.2829Z" fill="#ECEFFF"/>
<path d="M320.496 80.8829V78.0629C320.496 76.8329 320.616 75.8729 320.706 75.0929H315.546C315.666 75.8429 315.726 76.8329 315.726 78.0629V80.8829H309.426V78.4229C309.426 77.1329 309.546 76.1129 309.636 75.3929H304.476C304.566 76.1129 304.686 77.1629 304.686 78.3929V80.8829H302.526C300.906 80.8829 299.826 80.6729 299.136 80.5529V85.4729C300.006 85.4129 300.906 85.3529 302.526 85.3529H304.686V88.9829C304.686 90.4529 304.596 91.6229 304.506 92.3729H309.576C309.516 91.6229 309.426 90.4529 309.426 88.9829V85.3529H315.726V86.4329C315.726 93.2129 313.296 95.8229 307.296 97.8029L311.196 101.463C318.666 98.1929 320.496 93.4229 320.496 86.3129V85.3529H322.116C323.826 85.3529 324.876 85.3529 325.716 85.4429V80.6429C324.666 80.8229 323.826 80.8829 322.086 80.8829H320.496Z" fill="#ECEFFF"/>
<path d="M330.156 90.6029C331.386 90.5129 333.636 90.4229 335.346 90.4229H351.276C352.506 90.4229 354.186 90.5729 354.966 90.6029V84.8729C354.096 84.9329 352.626 85.0829 351.276 85.0829H335.346C333.876 85.0829 331.356 84.9629 330.156 84.8729V90.6029Z" fill="#ECEFFF"/>
<path d="M382.236 78.6329C381.696 77.5829 380.646 75.6329 379.896 74.5229L377.076 75.6629C377.886 76.8329 378.756 78.6029 379.386 79.8329L382.236 78.6329ZM366.996 89.2829C370.956 88.2929 375.576 86.8529 378.456 85.7729C379.506 85.3829 381.006 84.7529 382.326 84.2129L380.406 79.6229C379.026 80.4329 377.946 80.9429 376.776 81.3929C374.346 82.3829 370.506 83.6429 366.996 84.5429V79.5029C366.996 78.6329 367.086 77.0129 367.236 75.9929H361.896C362.046 77.0129 362.136 78.8429 362.136 79.5029V95.7329C362.136 98.4329 363.786 100.053 366.546 100.563C367.866 100.773 369.696 100.923 371.736 100.923C375.066 100.923 379.626 100.743 382.596 100.323V95.0129C380.136 95.6729 375.156 96.0929 372.036 96.0929C370.776 96.0929 369.726 96.0629 368.856 95.9429C367.566 95.7029 366.996 95.4029 366.996 94.2329V89.2829ZM380.766 74.2229C381.576 75.3629 382.536 77.1329 383.136 78.3629L385.956 77.1629C385.446 76.1429 384.366 74.2229 383.586 73.0829L380.766 74.2229Z" fill="#ECEFFF"/>
<path d="M410.196 76.5929C409.506 76.8329 408.096 77.0429 406.596 77.0429H396.576C395.706 77.0429 393.786 76.9529 392.736 76.8029V81.9629C393.576 81.9029 395.226 81.7229 396.576 81.7229H405.906C405.276 83.6429 403.656 86.2829 401.706 88.5029C399.036 91.4729 394.296 95.1629 389.436 96.9329L393.216 100.863C397.146 98.9729 401.076 95.9429 404.226 92.6729C406.926 95.2829 409.476 98.1629 411.396 100.893L415.566 97.2629C413.916 95.2229 410.316 91.4129 407.406 88.8929C409.356 86.1929 410.946 83.1929 411.936 80.9729C412.266 80.2229 412.896 79.1729 413.166 78.7829L410.196 76.5929Z" fill="#ECEFFF"/>
<path d="M447.096 77.0429C446.586 76.0229 445.506 74.1029 444.726 72.9629L441.906 74.1029C442.716 75.2429 443.676 77.0129 444.276 78.2429L447.096 77.0429ZM426.396 75.2129C426.456 77.0429 426.246 79.1129 425.826 81.4229C424.506 81.5129 423.276 81.6029 422.406 81.6329C421.236 81.6629 420.096 81.7229 418.956 81.6329L419.346 86.4629C420.336 86.2829 422.046 86.0429 423.006 85.9229C423.426 85.8629 424.086 85.7729 424.866 85.6529C423.756 89.7029 421.836 95.2529 419.016 99.0629L423.726 100.953C426.246 96.8729 428.466 89.7329 429.666 85.1129C430.206 85.0829 430.716 85.0529 431.046 85.0529C432.906 85.0529 433.806 85.3229 433.806 87.4829C433.806 90.2429 433.446 93.6329 432.696 95.1029C432.306 95.9129 431.616 96.2429 430.686 96.2429C429.936 96.2429 428.136 95.9129 427.056 95.6129L427.836 100.353C428.886 100.593 430.296 100.773 431.436 100.773C433.866 100.773 435.606 100.023 436.626 97.8929C437.886 95.2529 438.276 90.4829 438.276 87.0029C438.276 82.5629 436.026 80.9429 432.606 80.9429C432.066 80.9429 431.376 80.9729 430.596 81.0329C430.776 80.2529 430.956 79.4429 431.106 78.6329C431.286 77.7929 431.526 76.6829 431.736 75.7829L426.396 75.2129ZM443.376 78.5129C442.836 77.4629 441.786 75.5129 441.036 74.4029L438.216 75.5429C438.906 76.5629 439.656 78.0329 440.256 79.2029L437.646 80.2829C439.806 83.0429 441.786 88.3229 442.506 91.7729L447.096 89.6429C446.286 86.9129 444.066 81.7829 442.296 78.9629L443.376 78.5129Z" fill="#ECEFFF"/>
<path d="M470.346 89.1629V96.1829H464.646V87.7229H473.706V76.4129H469.086V83.4929H464.646V74.0129H460.116V83.4929H455.976V76.4429H451.596V87.7229H460.116V96.1829H454.836V89.1629H450.396V102.123H454.836V100.443H470.346V102.123H474.906V89.1629H470.346Z" fill="#ECEFFF"/>
<path d="M479.616 78.3029L480.066 83.1929C483.636 82.4129 488.856 81.8129 491.406 81.5429C489.816 82.9829 487.656 86.1329 487.656 90.2129C487.656 96.5429 493.326 100.143 499.956 100.653L501.636 95.6429C496.506 95.3429 492.396 93.6329 492.396 89.2529C492.396 85.7429 495.156 82.2629 498.366 81.5429C500.016 81.2129 502.536 81.2129 504.066 81.1829L504.036 76.5629C501.876 76.6529 498.366 76.8329 495.396 77.0729C489.966 77.5529 485.466 77.9129 482.676 78.1529C482.106 78.2129 480.816 78.2729 479.616 78.3029Z" fill="#ECEFFF"/>
<path d="M524.938 74.2829C524.398 75.0929 523.318 76.1429 522.328 77.1029C520.318 79.0229 516.508 82.1729 514.138 84.0929C510.988 86.6729 510.808 88.4729 513.838 91.0829C516.538 93.3929 520.798 97.0529 522.448 98.7629C523.408 99.7529 524.398 100.773 525.358 101.853L529.558 97.9529C526.588 95.1329 520.738 90.6029 518.788 88.8929C517.348 87.6329 517.288 87.3629 518.758 86.1029C520.618 84.4829 524.338 81.6329 526.198 80.2229C527.008 79.5929 528.028 78.8129 529.138 78.0029L524.938 74.2829Z" fill="#ECEFFF"/>
<path d="M550.692 96.9929C549.192 96.9929 548.202 96.3329 548.202 95.4029C548.202 94.8029 548.772 94.2329 549.732 94.2329C550.992 94.2329 551.892 95.2829 552.042 96.9329C551.622 96.9629 551.172 96.9929 550.692 96.9929ZM557.442 75.6629C557.052 75.7829 556.212 75.9029 554.802 76.0229C553.032 76.1729 547.092 76.2629 545.502 76.2629C544.512 76.2629 543.402 76.2029 542.472 76.0829L542.622 80.7329C543.342 80.6129 544.392 80.5229 545.292 80.4629C546.882 80.3429 549.942 80.2229 551.442 80.1929C550.002 81.4829 547.242 83.6129 545.592 84.9929C543.822 86.4329 540.372 89.3729 538.452 90.8729L541.722 94.2629C544.572 90.7829 547.692 88.1729 552.042 88.1729C555.312 88.1729 557.922 89.7629 557.922 92.3129C557.922 93.7529 557.352 94.9229 556.182 95.7329C555.672 92.9129 553.332 90.8129 549.702 90.8129C546.342 90.8129 543.942 93.2429 543.942 95.8529C543.942 99.1229 547.422 101.073 551.622 101.073C559.302 101.073 562.662 97.0229 562.662 92.3729C562.662 87.9029 558.642 84.6329 553.542 84.6329C552.822 84.6329 552.252 84.6629 551.472 84.8129C553.092 83.5529 555.702 81.4229 557.382 80.2829C558.132 79.7729 558.882 79.3229 559.662 78.8429L557.442 75.6629Z" fill="#ECEFFF"/>
<path d="M1126.52 48.9728C1125.59 49.8428 1124.48 50.5628 1123.22 51.1928C1121.99 50.5628 1120.94 49.8428 1120.07 48.9728H1126.52ZM1124.81 35.9828V40.6028C1124.81 40.9028 1124.72 40.9628 1124.39 40.9628C1124.06 40.9628 1122.98 40.9628 1122.17 40.9328C1122.62 41.8628 1123.07 43.1528 1123.28 44.2328L1120.55 43.6928C1122.53 41.2628 1122.86 38.3828 1122.89 35.9828H1124.81ZM1130.24 45.4328L1129.52 45.5828H1122.68C1122.92 45.2828 1123.13 44.9828 1123.37 44.6828V44.7428C1125.08 44.7428 1126.46 44.7128 1127.6 44.1128C1128.8 43.5128 1129.04 42.4928 1129.04 40.7228V35.9828H1136.57V31.9928H1125.32V29.6228H1120.82V31.9928H1109.69V35.9828H1118.84C1118.81 38.2028 1118.24 40.9028 1114.91 42.8828C1115.69 43.4228 1116.83 44.4128 1117.61 45.2528C1115.84 46.9628 1113.26 48.4928 1109.6 49.6028C1110.5 50.2628 1111.76 51.8228 1112.3 52.8428C1113.89 52.2128 1115.3 51.5528 1116.56 50.8328C1117.19 51.5528 1117.88 52.2428 1118.63 52.8428C1115.66 53.5928 1112.27 54.0428 1108.61 54.2528C1109.36 55.1828 1110.32 57.1028 1110.65 58.1828C1115.09 57.7328 1119.32 56.9228 1122.95 55.5128C1126.19 56.9528 1130.15 57.7328 1135.07 58.0628C1135.61 56.8628 1136.72 54.9728 1137.62 53.9528C1133.93 53.8328 1130.72 53.5028 1127.99 52.8728C1130.09 51.4028 1131.83 49.5728 1133.09 47.2928L1130.24 45.4328ZM1113.14 36.6728C1112.42 38.4128 1110.83 40.4528 1109.03 41.6228C1109.87 42.1928 1111.25 43.3328 1112.03 44.1128C1114.07 42.6428 1115.96 40.1828 1117.19 37.7528L1113.14 36.6728ZM1129.49 38.5028C1131.05 40.2728 1132.94 42.7028 1133.69 44.2928L1137.32 42.1328C1136.42 40.5128 1134.44 38.2328 1132.85 36.5828L1129.49 38.5028Z" fill="#ECEFFF"/>
<path d="M1146.11 29.9828C1144.34 34.3928 1141.28 38.7728 1138.16 41.4728C1138.94 42.5828 1140.2 45.0428 1140.65 46.1528C1141.46 45.4028 1142.27 44.5328 1143.08 43.5728V58.0628H1147.46V37.3328C1148.6 35.3828 1149.62 33.3728 1150.43 31.4228L1146.11 29.9828ZM1158.17 53.7728C1156.82 53.7728 1156.67 53.5328 1156.67 51.6728V44.7428C1160.06 43.2128 1163.63 41.3228 1166.69 39.3128L1163.48 35.4728C1161.59 37.0028 1159.19 38.7728 1156.67 40.2428V30.4328H1152.26V51.6428C1152.26 56.4128 1153.43 57.8228 1157.57 57.8228H1162.16C1165.94 57.8228 1167.08 55.7828 1167.56 50.4428C1166.36 50.1728 1164.56 49.3628 1163.54 48.6128C1163.3 52.7828 1163.06 53.7728 1161.71 53.7728H1158.17Z" fill="#ECEFFF"/>
<path d="M1187.27 50.8028C1187.24 49.4828 1187.18 47.4728 1187.15 45.8528C1188.71 45.1628 1190.15 44.5928 1191.29 44.1728C1192.43 43.7228 1194.29 43.0328 1195.34 42.7328L1193.57 38.5928C1192.31 39.1928 1191.08 39.7628 1189.79 40.3328C1188.74 40.8128 1187.78 41.2028 1186.58 41.7728C1185.8 40.3928 1184.36 39.6728 1182.62 39.6728C1181.78 39.6728 1180.28 39.7928 1179.68 39.9728C1180.07 39.3728 1180.46 38.6528 1180.82 37.8728C1184 37.7528 1187.63 37.4828 1190.42 37.1228L1190.45 32.9528C1187.96 33.4028 1185.11 33.6428 1182.44 33.7928C1182.77 32.6828 1182.98 31.7528 1183.1 31.0928L1178.36 30.7028C1178.33 31.4528 1178.18 32.5928 1177.85 33.9428H1176.68C1175.09 33.9428 1172.81 33.8228 1171.34 33.5828V37.7528C1172.9 37.9028 1175.06 37.9628 1176.29 37.9628C1174.85 40.6928 1172.75 43.1228 1169.93 45.6128L1173.77 48.4928C1174.79 47.1428 1175.63 46.0628 1176.53 45.1328C1177.55 44.1428 1179.38 43.1528 1180.91 43.1528C1181.48 43.1528 1182.08 43.3028 1182.53 43.7528C1179.23 45.4928 1175.69 47.9828 1175.69 51.8528C1175.69 55.8128 1179.2 57.0728 1184.09 57.0728C1187.03 57.0728 1190.84 56.8028 1192.67 56.5628L1192.82 51.9128C1190.21 52.4828 1186.82 52.8428 1184.18 52.8428C1181.39 52.8428 1180.46 52.3328 1180.46 51.0728C1180.46 49.8728 1181.27 48.9128 1183.13 47.8328C1183.1 48.9428 1183.04 50.0528 1182.98 50.8028H1187.27Z" fill="#ECEFFF"/>
<path d="M1206.89 35.8928C1205.93 34.5128 1203.83 32.7128 1202.12 31.5128L1199.12 34.0028C1200.83 35.3528 1202.84 37.3028 1203.68 38.6828L1206.89 35.8928ZM1214.87 37.2728H1211.03V35.8328H1214.87V37.2728ZM1211.03 40.3028H1214.87V41.7728H1211.03V40.3028ZM1226.54 50.4428V46.6928H1215.26V45.0428H1219.1V41.8028C1221.14 42.9728 1223.48 44.4728 1224.68 45.5228L1227.38 42.2528C1225.79 41.0228 1222.55 39.2828 1220.39 38.2028L1219.1 39.7028V36.2828L1221.65 37.9628C1223.12 36.8228 1225.01 35.0828 1226.6 33.3428L1222.85 31.0928C1221.92 32.4128 1220.39 34.0328 1219.1 35.2328V32.5628H1214.87C1215.2 31.8128 1215.53 30.9728 1215.86 30.1028L1210.94 29.5928C1210.85 30.4928 1210.64 31.5728 1210.4 32.5628H1207.01V41.5028L1205.99 38.4728C1203.35 39.8528 1200.68 41.2328 1198.85 42.0428L1201.01 45.6428C1202.84 44.5928 1205.03 43.2728 1207.01 42.0428V45.0428H1210.82V46.6928H1199.66V50.4428H1207.31C1204.94 52.0928 1201.82 53.5028 1198.73 54.3428C1199.66 55.2128 1200.98 56.8928 1201.64 57.9728C1204.97 56.8028 1208.24 54.8528 1210.82 52.4828V58.0928H1215.26V52.4828C1217.96 54.7028 1221.26 56.6228 1224.53 57.7328C1225.16 56.6528 1226.48 54.9428 1227.44 54.0728C1224.41 53.2928 1221.26 51.9728 1218.86 50.4428H1226.54Z" fill="#ECEFFF"/>
<path d="M1233.98 31.2728C1234.28 32.6228 1234.43 34.2428 1234.43 35.8328C1234.43 38.0828 1234.16 46.0328 1234.16 49.7828C1234.16 54.9728 1237.4 57.3128 1242.59 57.3128C1249.52 57.3128 1253.93 53.2328 1255.79 50.3828L1252.52 46.3628C1250.36 49.6928 1247.24 52.3928 1242.62 52.3928C1240.61 52.3928 1238.96 51.4928 1238.96 48.6428C1238.96 45.3728 1239.17 38.9528 1239.32 35.8328C1239.38 34.5428 1239.56 32.7428 1239.77 31.3328L1233.98 31.2728Z" fill="#ECEFFF"/>
<path d="M1286.81 39.1928C1285.49 37.6328 1282.22 34.5728 1280.3 33.4028L1277.27 36.4028C1279.01 37.6628 1281.86 40.4828 1283.57 42.5228L1286.81 39.1928ZM1264.01 46.1228C1264.01 44.6828 1264.82 43.7228 1265.84 43.7228C1266.56 43.7228 1267.04 44.2928 1267.04 45.2828C1267.04 46.8128 1266.56 47.8628 1265.42 47.8628C1264.7 47.8628 1264.01 47.2328 1264.01 46.1228ZM1279.01 45.4628C1279.22 46.9628 1279.25 48.1328 1279.25 49.3028C1279.25 50.5928 1278.77 51.6428 1277.24 52.1228C1276.07 52.4828 1274.36 52.6628 1272.95 52.6628C1269.89 52.6628 1269.62 52.0028 1269.62 50.9228V50.1428C1270.64 48.8828 1271.15 47.0828 1271.15 45.1028C1271.15 43.8128 1270.85 42.7328 1270.22 41.8928V38.3828C1271.84 38.2028 1273.61 37.9628 1275.29 37.5728V33.2528C1273.55 33.7328 1271.87 34.0628 1270.22 34.2728C1270.25 32.6228 1270.4 31.6928 1270.55 30.8228H1265.54C1265.75 31.7528 1265.87 32.6528 1265.87 34.6028H1265.18C1263.83 34.6028 1261.91 34.4228 1260.32 34.2128L1260.59 38.4128C1262.66 38.5928 1264.25 38.6528 1265.51 38.6528H1265.87V40.1528C1262.6 40.2728 1260.26 42.7928 1260.26 46.5128C1260.26 50.5028 1262.54 52.1828 1264.97 52.1828H1265.18V52.3928C1265.18 54.3728 1265.15 57.0128 1272.62 57.0128C1274.66 57.0128 1277.87 56.8028 1279.25 56.3528C1283.09 55.1228 1283.75 53.2328 1283.93 50.6228C1284.02 49.3628 1283.99 48.7028 1283.99 46.9628L1279.01 45.4628Z" fill="#ECEFFF"/>
<path d="M1114.4 81.9028C1116.86 82.0828 1119.47 82.2328 1122.65 82.2328C1125.53 82.2328 1129.46 82.0528 1131.56 81.8728V77.0428C1129.22 77.2828 1125.59 77.4628 1122.62 77.4628C1119.41 77.4628 1116.62 77.3428 1114.4 77.1028V81.9028ZM1112.9 89.6128C1112.69 90.6928 1112.33 92.1628 1112.33 93.9928C1112.33 98.2528 1115.69 100.713 1122.92 100.713C1127.06 100.713 1130.51 100.353 1133.36 99.7228L1133.33 94.6228C1130.48 95.3428 1126.7 95.7928 1122.74 95.7928C1118.72 95.7928 1117.19 94.5328 1117.19 92.8528C1117.19 91.8928 1117.4 91.0528 1117.64 90.0328L1112.9 89.6128Z" fill="#ECEFFF"/>
<path d="M1160.21 77.8528C1159.34 78.5728 1158.38 79.1428 1157.12 79.8628C1155.83 80.6128 1153.58 81.7828 1151.39 83.0428C1150.22 80.8228 1148.9 78.1228 1147.82 75.1228L1143.29 76.9528C1144.61 80.0728 1145.99 83.1028 1147.37 85.6528C1144.64 87.7228 1142.54 90.1528 1142.54 93.5428C1142.54 99.0328 1147.25 100.683 1153.37 100.683C1157.33 100.683 1160.3 100.383 1163 99.9328L1163.06 94.7428C1160.24 95.3728 1156.19 95.8828 1153.25 95.8828C1149.44 95.8828 1147.55 94.9528 1147.55 93.0028C1147.55 91.0528 1149.2 89.4628 1151.51 87.9628C1154.12 86.2828 1157.6 84.6928 1159.37 83.8228C1160.57 83.2228 1161.65 82.6528 1162.7 82.0228L1160.21 77.8528Z" fill="#ECEFFF"/>
<path d="M1197.59 77.0428C1197.08 76.0228 1196 74.1028 1195.22 72.9628L1192.4 74.1028C1193.21 75.2428 1194.17 77.0128 1194.77 78.2428L1197.59 77.0428ZM1176.89 75.2128C1176.95 77.0428 1176.74 79.1128 1176.32 81.4228C1175 81.5128 1173.77 81.6028 1172.9 81.6328C1171.73 81.6628 1170.59 81.7228 1169.45 81.6328L1169.84 86.4628C1170.83 86.2828 1172.54 86.0428 1173.5 85.9228C1173.92 85.8628 1174.58 85.7728 1175.36 85.6528C1174.25 89.7028 1172.33 95.2528 1169.51 99.0628L1174.22 100.953C1176.74 96.8728 1178.96 89.7328 1180.16 85.1128C1180.7 85.0828 1181.21 85.0528 1181.54 85.0528C1183.4 85.0528 1184.3 85.3228 1184.3 87.4828C1184.3 90.2428 1183.94 93.6328 1183.19 95.1028C1182.8 95.9128 1182.11 96.2428 1181.18 96.2428C1180.43 96.2428 1178.63 95.9128 1177.55 95.6128L1178.33 100.353C1179.38 100.593 1180.79 100.773 1181.93 100.773C1184.36 100.773 1186.1 100.023 1187.12 97.8928C1188.38 95.2528 1188.77 90.4828 1188.77 87.0028C1188.77 82.5628 1186.52 80.9428 1183.1 80.9428C1182.56 80.9428 1181.87 80.9728 1181.09 81.0328C1181.27 80.2528 1181.45 79.4428 1181.6 78.6328C1181.78 77.7928 1182.02 76.6828 1182.23 75.7828L1176.89 75.2128ZM1193.87 78.5128C1193.33 77.4628 1192.28 75.5128 1191.53 74.4028L1188.71 75.5428C1189.4 76.5628 1190.15 78.0328 1190.75 79.2028L1188.14 80.2828C1190.3 83.0428 1192.28 88.3228 1193 91.7728L1197.59 89.6428C1196.78 86.9128 1194.56 81.7828 1192.79 78.9628L1193.87 78.5128Z" fill="#ECEFFF"/>
<path d="M1220.42 83.6728L1217.81 84.7528C1218.77 86.1328 1219.28 87.1228 1220.09 88.8628L1222.76 87.6928C1222.22 86.5828 1221.17 84.7828 1220.42 83.6728ZM1223.81 82.2328L1221.23 83.4028C1222.22 84.7528 1222.79 85.6828 1223.66 87.3928L1226.3 86.1328C1225.7 85.0528 1224.59 83.3128 1223.81 82.2328ZM1200.11 78.3028L1200.56 83.1928C1204.13 82.4128 1209.35 81.8128 1211.9 81.5428C1210.31 82.9828 1208.15 86.1328 1208.15 90.2128C1208.15 96.5428 1213.82 100.143 1220.45 100.653L1222.13 95.6428C1217 95.3428 1212.89 93.6328 1212.89 89.2528C1212.89 85.7428 1215.65 82.2628 1218.86 81.5428C1220.51 81.2128 1223.03 81.2128 1224.56 81.1828L1224.53 76.5628C1222.37 76.6528 1218.86 76.8328 1215.89 77.0728C1210.46 77.5528 1205.96 77.9128 1203.17 78.1528C1202.6 78.2128 1201.31 78.2728 1200.11 78.3028Z" fill="#ECEFFF"/>
<path d="M1233.47 90.6328C1233.11 91.7728 1232.72 93.4528 1232.72 94.8328C1232.72 99.2128 1236.29 101.133 1242.02 101.133C1245.26 101.133 1248.38 100.803 1249.91 100.533L1250.06 95.9428C1247.99 96.3328 1244.96 96.6028 1241.9 96.6028C1238.27 96.6028 1237.22 95.4328 1237.22 93.8428C1237.22 93.1228 1237.55 91.9228 1237.91 91.0228L1233.47 90.6328ZM1253.48 81.7528C1252.16 82.2328 1250.51 82.7428 1248.23 83.1928L1247.87 82.3528C1247.69 81.9328 1247.48 81.4828 1247.3 81.0328C1249.13 80.7028 1250.6 80.3128 1252.1 79.8628L1251.35 75.8728C1249.58 76.4728 1247.75 76.8928 1245.8 77.2228C1245.44 76.2328 1245.17 75.2728 1244.99 74.4328L1239.86 75.3928C1240.37 76.1728 1240.76 76.8028 1241.21 77.7328C1238.72 77.8228 1235.93 77.7028 1232.66 77.3428L1232.9 81.4228C1236.44 81.7828 1240.1 81.7828 1242.98 81.5728L1243.76 83.3728L1243.94 83.8228C1240.7 84.1228 1236.83 84.1228 1232.45 83.7028L1232.63 87.8128C1237.07 88.1128 1241.87 88.0528 1245.56 87.6628C1245.86 88.3828 1246.19 89.1928 1246.58 90.0628C1245.83 90.0028 1244.78 89.9128 1243.76 89.8228L1243.37 93.2428C1245.41 93.4828 1248.5 93.9628 1250.24 94.3228L1252.34 91.6228C1251.47 89.9728 1250.69 88.3528 1250 86.9128C1251.62 86.5828 1253.15 86.2228 1254.32 85.8028L1253.48 81.7528Z" fill="#ECEFFF"/>
<path d="M1272.09 96.9928C1270.59 96.9928 1269.6 96.3328 1269.6 95.4028C1269.6 94.8028 1270.17 94.2328 1271.13 94.2328C1272.39 94.2328 1273.29 95.2828 1273.44 96.9328C1273.02 96.9628 1272.57 96.9928 1272.09 96.9928ZM1278.84 75.6628C1278.45 75.7828 1277.61 75.9028 1276.2 76.0228C1274.43 76.1728 1268.49 76.2628 1266.9 76.2628C1265.91 76.2628 1264.8 76.2028 1263.87 76.0828L1264.02 80.7328C1264.74 80.6128 1265.79 80.5228 1266.69 80.4628C1268.28 80.3428 1271.34 80.2228 1272.84 80.1928C1271.4 81.4828 1268.64 83.6128 1266.99 84.9928C1265.22 86.4328 1261.77 89.3728 1259.85 90.8728L1263.12 94.2628C1265.97 90.7828 1269.09 88.1728 1273.44 88.1728C1276.71 88.1728 1279.32 89.7628 1279.32 92.3128C1279.32 93.7528 1278.75 94.9228 1277.58 95.7328C1277.07 92.9128 1274.73 90.8128 1271.1 90.8128C1267.74 90.8128 1265.34 93.2428 1265.34 95.8528C1265.34 99.1228 1268.82 101.073 1273.02 101.073C1280.7 101.073 1284.06 97.0228 1284.06 92.3728C1284.06 87.9028 1280.04 84.6328 1274.94 84.6328C1274.22 84.6328 1273.65 84.6628 1272.87 84.8128C1274.49 83.5528 1277.1 81.4228 1278.78 80.2828C1279.53 79.7728 1280.28 79.3228 1281.06 78.8428L1278.84 75.6628Z" fill="#ECEFFF"/>
<path d="M1299.42 74.2228C1299.21 78.1528 1299.87 91.4428 1287.93 98.3728C1289.46 99.3928 1290.87 100.743 1291.65 101.883C1297.44 98.1028 1300.56 92.8228 1302.27 87.7828C1304.07 93.0328 1307.43 98.6128 1313.82 101.853C1314.48 100.653 1315.77 99.1828 1317.18 98.1328C1306.05 92.8528 1304.61 80.5228 1304.37 76.2028C1304.4 75.4528 1304.43 74.7928 1304.46 74.2228H1299.42Z" fill="#ECEFFF"/>
<path d="M2129.47 52.6328V50.2628H2142.82V52.6328H2129.47ZM2142.82 43.9028V46.2428H2129.47V43.9028H2142.82ZM2142.82 37.5728V39.8828H2129.47V37.5728H2142.82ZM2137.45 33.4028C2137.87 32.4128 2138.35 31.2728 2138.77 30.1328L2133.43 29.5928C2133.31 30.7328 2133.07 32.1428 2132.8 33.4028H2125.06V58.0628H2129.47V56.6528H2142.82V58.0628H2147.47V33.4028H2137.45Z" fill="#ECEFFF"/>
<path d="M2167.66 31.5428C2169.25 34.6028 2171.38 37.7228 2173.57 40.4528H2159.14C2161.36 37.7828 2163.34 34.5728 2164.75 31.2728L2160.01 29.8928C2158.24 34.4228 2154.91 38.6528 2151.19 41.1128C2152.24 41.9228 2154.13 43.6928 2154.94 44.6528C2155.66 44.0828 2156.35 43.4528 2157.04 42.7628V44.6828H2161.54C2160.97 48.6428 2159.41 52.1528 2152.84 54.3128C2153.89 55.2728 2155.15 57.1328 2155.69 58.3628C2163.61 55.3628 2165.59 50.3528 2166.31 44.6828H2171.23C2171.02 50.2328 2170.75 52.7228 2170.21 53.3228C2169.85 53.6828 2169.52 53.7728 2169.01 53.7728C2168.26 53.7728 2166.85 53.7428 2165.35 53.6228C2166.13 54.8528 2166.73 56.7428 2166.79 58.0328C2168.5 58.0628 2170.18 58.0628 2171.23 57.8828C2172.46 57.6728 2173.36 57.3428 2174.23 56.2028C2175.22 54.9428 2175.55 51.4928 2175.82 43.0628C2176.27 43.5428 2176.72 43.9928 2177.14 44.4128C2177.98 43.1828 2179.69 41.3828 2180.86 40.4528C2177.56 37.7828 2173.84 33.5228 2171.98 29.8328L2167.66 31.5428Z" fill="#ECEFFF"/>
<path d="M2192.44 43.9328C2191.39 47.3828 2190.49 49.1828 2189.29 49.1828C2188.27 49.1828 2187.37 47.8328 2187.37 45.2528C2187.37 42.4028 2189.56 38.4128 2193.97 37.2128C2193.61 39.5528 2193.1 41.9228 2192.44 43.9328ZM2197.66 56.7728C2205.4 55.4828 2209.09 50.8928 2209.09 44.6528C2209.09 37.9028 2204.29 32.6828 2196.73 32.6828C2188.78 32.6828 2182.69 38.6828 2182.69 45.7328C2182.69 50.8028 2185.51 54.7928 2189.17 54.7928C2192.68 54.7928 2195.35 50.8028 2197.12 44.8628C2197.93 42.1328 2198.47 39.5228 2198.86 37.1228C2202.28 37.9328 2204.14 40.6628 2204.14 44.5028C2204.14 48.4028 2201.62 51.0428 2197.84 51.9728C2197 52.1828 2196.19 52.3628 2194.93 52.5128L2197.66 56.7728Z" fill="#ECEFFF"/>
<path d="M2239.27 31.2728H2224.66V35.4128H2239.27V31.2728ZM2218.48 29.6228C2217.07 31.6928 2214.19 34.4228 2211.7 35.9828C2212.45 36.8528 2213.56 38.5928 2214.1 39.5828C2217.07 37.5428 2220.4 34.3328 2222.68 31.3628L2218.48 29.6228ZM2219.59 36.2228C2217.67 39.6128 2214.4 43.0928 2211.37 45.1928C2212.24 46.0928 2213.71 48.0728 2214.31 49.0028C2214.94 48.4928 2215.57 47.8928 2216.23 47.2928V58.1228H2220.61V42.3728C2221.78 40.8728 2222.86 39.3128 2223.73 37.8128L2219.59 36.2228ZM2240.02 39.6128H2223.4V43.7528H2231.62V53.1128C2231.62 53.5328 2231.44 53.6528 2230.9 53.6528C2230.36 53.6528 2228.38 53.6528 2226.91 53.5628C2227.48 54.8228 2228.05 56.7428 2228.2 58.0328C2230.75 58.0328 2232.76 57.9728 2234.2 57.3128C2235.7 56.6528 2236.09 55.4528 2236.09 53.2328V43.7528H2240.02V39.6128Z" fill="#ECEFFF"/>
<path d="M2251.6 51.9428H2256.82C2256.67 52.1828 2256.52 52.3928 2256.37 52.6028C2254.78 52.7228 2253.19 52.8428 2251.6 52.9628V51.9428ZM2246.17 45.4928V44.5928H2247.67V45.4928H2246.17ZM2246.17 41.2328H2247.67V42.1328H2246.17V41.2328ZM2253.07 41.2328V42.1328H2251.6V41.2328H2253.07ZM2253.07 45.4928H2251.6V44.5928H2253.07V45.4928ZM2263.75 36.2828C2263.78 34.3628 2263.78 32.3228 2263.78 30.1928H2259.61C2259.61 32.3528 2259.61 34.3928 2259.61 36.2828H2257.15V40.2728H2259.52C2259.31 45.1028 2258.71 48.9428 2256.82 51.9428V48.9128H2251.6V48.1328H2256.64V38.5928H2251.6V37.8428H2257.03V34.7528H2251.6V33.7028C2253.46 33.4928 2255.23 33.2528 2256.79 32.9228L2254.96 29.7128C2251.54 30.4328 2246.47 30.9428 2241.97 31.1528C2242.36 31.9928 2242.78 33.3428 2242.9 34.2128C2244.43 34.1828 2246.05 34.1228 2247.67 34.0328V34.7528H2242.03V37.8428H2247.67V38.5928H2242.75V48.1328H2247.67V48.9128H2242.63V51.9428H2247.67V53.2328C2245.45 53.3828 2243.44 53.5028 2241.79 53.5928L2242.27 57.1928C2245.78 56.8928 2250.46 56.4728 2255.02 56.0228C2255.77 56.7728 2256.55 57.7028 2256.94 58.3928C2261.86 54.4028 2263.21 48.3728 2263.63 40.2728H2265.46C2265.31 49.2728 2265.07 52.7828 2264.5 53.5628C2264.2 53.9828 2263.93 54.1028 2263.48 54.1028C2262.88 54.1028 2261.86 54.1028 2260.66 53.9828C2261.35 55.1528 2261.83 56.9228 2261.92 58.1228C2263.36 58.1528 2264.74 58.1528 2265.7 57.9428C2266.75 57.7028 2267.5 57.3428 2268.25 56.2028C2269.21 54.7928 2269.42 50.2928 2269.66 38.1428C2269.66 37.6328 2269.69 36.2828 2269.69 36.2828H2263.75Z" fill="#ECEFFF"/>
<path d="M2293.21 33.8528C2292.34 34.5728 2291.38 35.1428 2290.12 35.8628C2288.83 36.6128 2286.58 37.7828 2284.39 39.0428C2283.22 36.8228 2281.9 34.1228 2280.82 31.1228L2276.29 32.9528C2277.61 36.0728 2278.99 39.1028 2280.37 41.6528C2277.64 43.7228 2275.54 46.1528 2275.54 49.5428C2275.54 55.0328 2280.25 56.6828 2286.37 56.6828C2290.33 56.6828 2293.3 56.3828 2296 55.9328L2296.06 50.7428C2293.24 51.3728 2289.19 51.8828 2286.25 51.8828C2282.44 51.8828 2280.55 50.9528 2280.55 49.0028C2280.55 47.0528 2282.2 45.4628 2284.51 43.9628C2287.12 42.2828 2290.6 40.6928 2292.37 39.8228C2293.57 39.2228 2294.65 38.6528 2295.7 38.0228L2293.21 33.8528Z" fill="#ECEFFF"/>
<path d="M2324.62 30.9428H2307.73V34.3328H2324.62V30.9428ZM2321.23 51.8228V53.6528H2310.82V51.8228H2321.23ZM2306.53 58.0928H2310.82V57.1928H2321.23V58.0028H2325.76V48.2228H2306.53V58.0928ZM2307.1 47.3228H2325.22V43.9328H2307.1V47.3228ZM2325.22 39.6728H2307.1V43.0628H2325.22V39.6728ZM2302.33 35.1728V38.8328H2329.9V35.1728H2302.33Z" fill="#ECEFFF"/>
<path d="M2341.6 51.9428H2346.82C2346.67 52.1828 2346.52 52.3928 2346.37 52.6028C2344.78 52.7228 2343.19 52.8428 2341.6 52.9628V51.9428ZM2336.17 45.4928V44.5928H2337.67V45.4928H2336.17ZM2336.17 41.2328H2337.67V42.1328H2336.17V41.2328ZM2343.07 41.2328V42.1328H2341.6V41.2328H2343.07ZM2343.07 45.4928H2341.6V44.5928H2343.07V45.4928ZM2353.75 36.2828C2353.78 34.3628 2353.78 32.3228 2353.78 30.1928H2349.61C2349.61 32.3528 2349.61 34.3928 2349.61 36.2828H2347.15V40.2728H2349.52C2349.31 45.1028 2348.71 48.9428 2346.82 51.9428V48.9128H2341.6V48.1328H2346.64V38.5928H2341.6V37.8428H2347.03V34.7528H2341.6V33.7028C2343.46 33.4928 2345.23 33.2528 2346.79 32.9228L2344.96 29.7128C2341.54 30.4328 2336.47 30.9428 2331.97 31.1528C2332.36 31.9928 2332.78 33.3428 2332.9 34.2128C2334.43 34.1828 2336.05 34.1228 2337.67 34.0328V34.7528H2332.03V37.8428H2337.67V38.5928H2332.75V48.1328H2337.67V48.9128H2332.63V51.9428H2337.67V53.2328C2335.45 53.3828 2333.44 53.5028 2331.79 53.5928L2332.27 57.1928C2335.78 56.8928 2340.46 56.4728 2345.02 56.0228C2345.77 56.7728 2346.55 57.7028 2346.94 58.3928C2351.86 54.4028 2353.21 48.3728 2353.63 40.2728H2355.46C2355.31 49.2728 2355.07 52.7828 2354.5 53.5628C2354.2 53.9828 2353.93 54.1028 2353.48 54.1028C2352.88 54.1028 2351.86 54.1028 2350.66 53.9828C2351.35 55.1528 2351.83 56.9228 2351.92 58.1228C2353.36 58.1528 2354.74 58.1528 2355.7 57.9428C2356.75 57.7028 2357.5 57.3428 2358.25 56.2028C2359.21 54.7928 2359.42 50.2928 2359.66 38.1428C2359.66 37.6328 2359.69 36.2828 2359.69 36.2828H2353.75Z" fill="#ECEFFF"/>
<path d="M2383.42 39.6728L2380.81 40.7528C2381.77 42.1328 2382.28 43.1228 2383.09 44.8628L2385.76 43.6928C2385.22 42.5828 2384.17 40.7828 2383.42 39.6728ZM2386.81 38.2328L2384.23 39.4028C2385.22 40.7528 2385.79 41.6828 2386.66 43.3928L2389.3 42.1328C2388.7 41.0528 2387.59 39.3128 2386.81 38.2328ZM2363.11 34.3028L2363.56 39.1928C2367.13 38.4128 2372.35 37.8128 2374.9 37.5428C2373.31 38.9828 2371.15 42.1328 2371.15 46.2128C2371.15 52.5428 2376.82 56.1428 2383.45 56.6528L2385.13 51.6428C2380 51.3428 2375.89 49.6328 2375.89 45.2528C2375.89 41.7428 2378.65 38.2628 2381.86 37.5428C2383.51 37.2128 2386.03 37.2128 2387.56 37.1828L2387.53 32.5628C2385.37 32.6528 2381.86 32.8328 2378.89 33.0728C2373.46 33.5528 2368.96 33.9128 2366.17 34.1528C2365.6 34.2128 2364.31 34.2728 2363.11 34.3028Z" fill="#ECEFFF"/>
<path d="M2122.12 85.2028V89.9728H2150.08V85.2028H2122.12Z" fill="#ECEFFF"/>
<path d="M2159.98 74.9428C2160.04 76.7728 2159.83 78.8428 2159.41 81.1528C2158.09 81.2428 2156.86 81.3328 2155.99 81.3628C2154.82 81.3928 2153.68 81.4528 2152.54 81.3628L2152.93 86.1928C2153.92 86.0128 2155.63 85.7728 2156.59 85.6528C2157.01 85.5928 2157.67 85.5028 2158.45 85.3828C2157.34 89.4328 2155.42 94.9828 2152.6 98.7928L2157.31 100.683C2159.83 96.6028 2162.05 89.4628 2163.25 84.8428C2163.79 84.8128 2164.3 84.7828 2164.63 84.7828C2166.49 84.7828 2167.39 85.0528 2167.39 87.2128C2167.39 89.9728 2167.03 93.3628 2166.28 94.8328C2165.89 95.6428 2165.2 95.9728 2164.27 95.9728C2163.52 95.9728 2161.72 95.6428 2160.64 95.3428L2161.42 100.083C2162.47 100.323 2163.88 100.503 2165.02 100.503C2167.45 100.503 2169.19 99.7528 2170.21 97.6228C2171.47 94.9828 2171.86 90.2128 2171.86 86.7328C2171.86 82.2928 2169.61 80.6728 2166.19 80.6728C2165.65 80.6728 2164.96 80.7028 2164.18 80.7628C2164.36 79.9828 2164.54 79.1728 2164.69 78.3628C2164.87 77.5228 2165.11 76.4128 2165.32 75.5128L2159.98 74.9428ZM2171.23 79.8628C2173.39 82.6228 2175.37 88.0528 2176.09 91.5028L2180.68 89.3728C2179.81 86.4928 2177.38 80.7328 2175.58 78.0628L2171.23 79.8628Z" fill="#ECEFFF"/>
<path d="M2189.98 79.1728C2192.32 79.7728 2199.04 81.1828 2202.16 81.6028L2203.24 77.1628C2200.63 76.8628 2194.09 75.7828 2191.12 74.8528L2189.98 79.1728ZM2191.78 81.1228L2186.95 80.4628C2186.74 84.4828 2186.05 90.0628 2185.48 93.0928L2189.59 94.1128C2189.89 93.4528 2190.22 92.9728 2190.82 92.2528C2192.56 90.1528 2195.47 89.0128 2198.5 89.0128C2200.87 89.0128 2202.49 90.2728 2202.49 91.9528C2202.49 95.5828 2197.69 97.4728 2189.02 96.1828L2190.43 100.893C2203.51 102.033 2207.56 97.5628 2207.56 92.0428C2207.56 88.4128 2204.53 84.9328 2198.95 84.9328C2196.1 84.9328 2193.31 85.6828 2190.73 87.3328C2190.88 85.7428 2191.39 82.5928 2191.78 81.1228Z" fill="#ECEFFF"/>
<path d="M2237.89 74.6728H2224.09V78.0328H2237.89V74.6728ZM2218.33 73.6828C2216.77 77.8228 2214.07 81.9628 2211.31 84.5728C2212.03 85.6528 2213.17 88.0528 2213.53 89.1028C2214.22 88.4128 2214.91 87.6628 2215.57 86.8228V102.033H2219.71V80.5828C2220.73 78.7528 2221.63 76.8328 2222.38 75.0028L2218.33 73.6828ZM2234.53 95.5528V97.6528H2227.15V95.5528H2234.53ZM2222.98 102.093H2227.15V101.043H2234.53V102.003H2238.94V92.2228H2222.98V102.093ZM2223.55 91.2028H2238.28V87.8428H2223.55V91.2028ZM2238.43 83.4928H2223.55V86.8528H2238.43V83.4928ZM2221.21 79.0228V82.5028H2240.41V79.0228H2221.21Z" fill="#ECEFFF"/>
<path d="M2245.78 85.0528H2247.13V87.1528H2245.78V85.0528ZM2251.75 87.1528H2250.37V85.0528H2251.75V87.1528ZM2255.32 93.8428C2254.84 93.3028 2253.22 91.6528 2251.93 90.3928H2255.08V81.8428H2250.67V80.3728H2255.08V76.5628H2250.67V73.6828H2246.83V76.5628H2242.24V80.3728H2246.83V81.8428H2242.66V90.3928H2245.81C2244.64 92.3728 2243.02 94.4728 2241.46 95.7928C2242.06 96.8728 2242.93 98.6428 2243.26 99.8128C2244.52 98.6428 2245.75 96.9328 2246.83 95.1028V102.093H2250.67V93.8728C2251.51 95.0428 2252.32 96.2728 2252.83 97.2028L2255.32 93.8428ZM2265.19 84.4828H2260.33V83.2228H2265.19V84.4828ZM2265.19 88.6828H2260.33V87.4228H2265.19V88.6828ZM2265.19 92.9128H2260.33V91.6528H2265.19V92.9128ZM2269.3 96.0928V80.0428H2264.35C2264.53 79.5028 2264.74 78.9328 2264.95 78.3628H2270.17V74.6728H2255.44V78.3628H2260.39C2260.33 78.9028 2260.24 79.5028 2260.15 80.0428H2256.43V96.0928H2258.44C2257.06 97.2928 2254.75 98.7328 2252.71 99.4828C2253.61 100.203 2254.84 101.433 2255.53 102.213C2257.81 101.313 2260.57 99.5728 2262.22 98.0128L2259.31 96.0928H2266.06L2262.94 98.0128C2264.5 99.2428 2266.57 101.073 2267.5 102.183L2270.89 99.9928C2269.81 98.8528 2267.68 97.2028 2266.15 96.0928H2269.3Z" fill="#ECEFFF"/>
<path d="M2276.98 75.2728C2277.28 76.6228 2277.43 78.2428 2277.43 79.8328C2277.43 82.0828 2277.16 90.0328 2277.16 93.7828C2277.16 98.9728 2280.4 101.313 2285.59 101.313C2292.52 101.313 2296.93 97.2328 2298.79 94.3828L2295.52 90.3628C2293.36 93.6928 2290.24 96.3928 2285.62 96.3928C2283.61 96.3928 2281.96 95.4928 2281.96 92.6428C2281.96 89.3728 2282.17 82.9528 2282.32 79.8328C2282.38 78.5428 2282.56 76.7428 2282.77 75.3328L2276.98 75.2728Z" fill="#ECEFFF"/>
<path d="M2302.2 78.3028L2302.65 83.1928C2306.22 82.4128 2311.44 81.8128 2313.99 81.5428C2312.4 82.9828 2310.24 86.1328 2310.24 90.2128C2310.24 96.5428 2315.91 100.143 2322.54 100.653L2324.22 95.6428C2319.09 95.3428 2314.98 93.6328 2314.98 89.2528C2314.98 85.7428 2317.74 82.2628 2320.95 81.5428C2322.6 81.2128 2325.12 81.2128 2326.65 81.1828L2326.62 76.5628C2324.46 76.6528 2320.95 76.8328 2317.98 77.0728C2312.55 77.5528 2308.05 77.9128 2305.26 78.1528C2304.69 78.2128 2303.4 78.2728 2302.2 78.3028Z" fill="#ECEFFF"/>
<path d="M2347.84 86.9728C2349.64 88.7728 2350.78 90.5428 2350.78 92.5528C2350.78 94.6528 2348.83 96.5128 2344.9 96.5128C2342.23 96.5128 2340.82 95.4328 2340.82 93.2128C2340.82 92.7928 2340.85 92.1928 2340.91 91.5028C2341.3 91.5028 2341.72 91.5028 2342.14 91.5028C2343.91 91.5028 2345.59 91.3828 2347.06 91.2328L2347.18 86.9728C2345.32 87.1828 2343.04 87.3328 2341.36 87.3328H2341.33C2341.45 86.2528 2341.6 85.1128 2341.75 84.0328C2344.12 84.0328 2345.62 83.9128 2347.27 83.7328L2347.42 79.4728C2346.19 79.6828 2344.36 79.8328 2342.32 79.8628C2342.44 79.0528 2342.53 78.4228 2342.59 78.0328C2342.74 77.1928 2342.89 76.3228 2343.19 75.0628L2338.15 74.7928C2338.24 75.9028 2338.15 76.8628 2338.09 77.7328C2338.06 78.3028 2338 78.9628 2337.91 79.7128C2335.78 79.5328 2333.65 79.1728 2332 78.6028L2331.79 82.7428C2333.47 83.1928 2335.42 83.5828 2337.43 83.7928L2337.01 87.1228C2335.15 86.9428 2333.29 86.5828 2331.4 85.9528L2331.16 90.3028C2332.63 90.6928 2334.46 91.0228 2336.53 91.2328C2336.41 92.3728 2336.35 93.3328 2336.35 93.9928C2336.35 99.0328 2339.68 101.193 2344.75 101.193C2351.59 101.193 2355.67 97.6828 2355.67 93.1528C2355.67 90.6328 2354.8 88.5328 2352.88 85.8928L2347.84 86.9728Z" fill="#ECEFFF"/>
<path d="M2367.58 79.1728C2369.92 79.7728 2376.64 81.1828 2379.76 81.6028L2380.84 77.1628C2378.23 76.8628 2371.69 75.7828 2368.72 74.8528L2367.58 79.1728ZM2369.38 81.1228L2364.55 80.4628C2364.34 84.4828 2363.65 90.0628 2363.08 93.0928L2367.19 94.1128C2367.49 93.4528 2367.82 92.9728 2368.42 92.2528C2370.16 90.1528 2373.07 89.0128 2376.1 89.0128C2378.47 89.0128 2380.09 90.2728 2380.09 91.9528C2380.09 95.5828 2375.29 97.4728 2366.62 96.1828L2368.03 100.893C2381.11 102.033 2385.16 97.5628 2385.16 92.0428C2385.16 88.4128 2382.13 84.9328 2376.55 84.9328C2373.7 84.9328 2370.91 85.6828 2368.33 87.3328C2368.48 85.7428 2368.99 82.5928 2369.38 81.1228Z" fill="#ECEFFF"/>
<path d="M2408.56 89.4928C2408.56 93.7828 2404.03 95.9428 2396.56 96.7528L2399.14 101.253C2407.72 100.143 2413.69 96.0028 2413.69 89.6728C2413.69 84.8128 2410.3 81.9628 2405.32 81.9628C2401.81 81.9628 2398.51 82.7728 2396.26 83.2528C2395.27 83.4628 2393.83 83.7028 2392.75 83.7928L2394.07 88.8928C2395 88.5628 2396.32 88.0228 2397.16 87.7828C2398.54 87.3628 2401.51 86.3428 2404.69 86.3428C2407.33 86.3428 2408.56 87.8428 2408.56 89.4928ZM2397.34 74.7328L2396.65 79.0528C2400.1 79.6528 2406.82 80.2228 2410.39 80.4628L2411.11 76.0528C2407.84 76.0528 2400.91 75.4828 2397.34 74.7328Z" fill="#ECEFFF"/>
<path d="M680.822 65.976C680.67 73.576 680.366 76.692 679.758 77.604C679.15 78.364 678.466 78.592 677.478 78.592C676.262 78.592 674.286 78.516 672.006 78.288C672.538 74.032 672.842 69.852 672.994 65.976H680.822ZM712.514 51.612C710.994 56.856 709.018 61.72 706.662 66.204C705.598 60.96 704.762 54.956 704.23 48.724H727.41V37.856H719.354L723.154 33.904C720.494 31.396 715.174 28.052 711.298 26L704.61 32.612C706.966 34.056 709.854 36.032 712.21 37.856H703.622C703.47 34.36 703.47 30.864 703.546 27.368H691.918C691.918 30.864 691.994 34.36 692.146 37.856H661.442V60.656C661.442 70.612 661.062 84.064 655.438 93.032C657.946 94.324 662.962 98.428 664.862 100.632C668.738 94.78 670.866 86.648 671.93 78.592C673.45 81.328 674.59 85.508 674.742 88.624C678.238 88.624 681.43 88.548 683.482 88.168C685.762 87.712 687.51 86.952 689.182 84.748C691.006 82.316 691.386 75.324 691.614 59.82C691.614 58.604 691.69 55.944 691.69 55.944H673.07V48.724H692.83C693.742 59.668 695.338 70.156 697.922 78.668C693.818 83.304 688.954 87.18 683.482 90.144C685.838 92.272 689.866 96.908 691.462 99.264C695.49 96.68 699.29 93.64 702.71 90.22C705.978 95.692 710.082 98.96 715.098 98.96C722.926 98.96 726.498 95.768 728.17 80.948C725.206 79.808 721.33 77.224 718.822 74.64C718.442 83.912 717.53 87.712 716.01 87.712C714.186 87.712 712.286 85.204 710.614 80.872C716.086 73.196 720.494 64.228 723.686 54.272L712.514 51.612Z" fill="#ECEFFF"/>
<path d="M762.294 68.256C759.178 69.092 755.91 69.928 752.718 70.764V45.456H761.762V35.044H732.654V45.456H741.774V73.424C737.974 74.26 734.478 75.096 731.59 75.628L734.174 87.18C742.762 84.824 753.706 81.784 763.738 78.744L762.294 68.256ZM783.726 42.796C783.802 38.236 783.878 33.448 783.878 28.508H772.63C772.63 33.524 772.63 38.312 772.554 42.796H763.206V53.36H772.25C771.262 70.232 767.538 82.468 753.478 90.6C756.214 92.652 759.634 96.756 761.23 99.644C777.57 89.536 782.054 73.88 783.346 53.36H790.794C790.262 75.4 789.578 84.52 787.982 86.572C787.146 87.636 786.386 87.94 785.018 87.94C783.27 87.94 779.926 87.94 776.278 87.636C778.178 90.676 779.546 95.388 779.698 98.504C783.802 98.58 787.83 98.58 790.49 98.048C793.53 97.516 795.582 96.528 797.71 93.412C800.37 89.688 801.054 78.288 801.738 47.66C801.814 46.292 801.814 42.796 801.814 42.796H783.726Z" fill="#ECEFFF"/>
<path d="M839.814 38.236L839.89 49.94C849.922 50.776 863.07 50.7 872.95 49.94V38.16C864.514 39.072 849.618 39.452 839.814 38.236ZM837.154 70.308C836.318 73.956 835.786 77.224 835.786 80.644C835.786 88.624 842.322 93.564 855.47 93.564C864.362 93.564 870.366 93.032 875.306 92.12L875.078 79.808C868.238 81.176 862.842 81.784 856.078 81.784C849.922 81.784 846.806 80.568 846.806 77.224C846.806 75.248 847.034 73.576 847.566 71.22L837.154 70.308ZM817.09 32.612C817.014 35.424 816.482 38.844 816.178 41.124C815.418 46.672 813.214 59.212 813.214 70.764C813.214 80.948 814.734 90.448 816.254 95.54L826.742 94.856C826.666 93.64 826.666 92.272 826.666 91.436C826.666 90.752 826.894 88.928 827.122 87.864C827.958 83.608 830.314 75.324 832.594 68.484L827.046 64.152C826.058 66.28 825.146 67.8 824.158 69.928C824.082 69.624 824.082 68.408 824.082 68.18C824.082 61.188 826.818 45.228 827.654 41.352C827.958 39.984 829.098 35.348 829.782 33.676L817.09 32.612Z" fill="#ECEFFF"/>
<path d="M915.966 63.164H919.766V59.82C921.21 61.72 922.806 64.684 923.566 66.736C925.01 66.508 926.378 66.204 927.746 65.9C923.718 68.484 918.626 71.372 913.306 73.956C912.546 73.424 911.786 72.968 910.95 72.436C914.294 70.612 918.17 68.332 921.818 65.9L915.966 63.164ZM907.682 63.164H911.026C910.038 64.076 908.898 64.988 907.682 65.9V63.164ZM907.682 55.564H918.702V40.516C919.994 41.656 921.742 43.632 923.11 45.304H921.438V52.22H929.342L923.414 53.588C924.402 55.184 925.542 56.628 926.834 57.92C924.63 58.452 922.274 58.908 919.766 59.136V57.236H907.682V55.564ZM895.75 50.852V49.028H898.41V50.852H895.75ZM895.75 42.796H898.41V44.544H895.75V42.796ZM910.19 49.028V50.852H907.682V49.028H910.19ZM910.19 42.796V44.544H907.682V42.796H910.19ZM938.614 52.22C937.55 53.132 936.334 53.968 935.042 54.728C933.902 53.968 932.99 53.132 932.154 52.22H938.614ZM946.29 45.076L944.618 45.304H927.67C930.786 42.796 932.078 39.68 932.534 36.488H937.17C937.322 39.604 937.854 41.048 938.994 42.188C940.21 43.556 942.414 44.164 944.314 44.164H947.81C949.026 44.164 950.622 43.936 951.61 43.48C952.75 42.948 953.662 42.112 954.27 41.048C954.802 40.06 955.182 37.856 955.41 35.652C953.282 34.968 950.394 33.524 949.026 32.232C948.95 33.752 948.874 34.892 948.722 35.5C948.57 36.032 948.418 36.336 948.19 36.412C948.038 36.488 947.886 36.488 947.658 36.488H946.974C946.746 36.488 946.594 36.412 946.442 36.184C946.366 35.956 946.366 35.348 946.366 34.36V29.268H923.49V33.296C923.49 35.804 923.034 37.856 918.702 39.756V38.084H907.682V36.336H919.69V30.636H907.682V27.216H898.41V30.636H886.478V36.336H898.41V38.084H887.618V55.564H898.41V57.236H885.87V63.164H898.41V66.204H907.226C906.162 66.964 905.098 67.724 904.034 68.484C902.97 67.876 901.83 67.268 900.842 66.812L893.774 72.208C896.966 73.88 900.614 76.16 903.73 78.288C902.97 78.592 902.21 78.896 901.45 79.2C895.826 79.2 890.734 79.2 886.478 79.124L886.782 87.56C890.658 87.484 895.066 87.484 899.778 87.332C895.75 89.308 890.05 90.98 884.73 91.968C887.01 93.716 890.658 97.364 892.482 99.34C898.79 97.364 906.618 93.868 911.558 90.144L904.338 87.256L914.218 87.104V99.492H925.162V86.8L935.118 86.572L928.506 91.056C934.13 93.26 941.882 96.832 945.53 99.112L954.118 93.108C950.394 90.98 944.01 88.32 938.842 86.42L943.174 86.268C944.238 87.256 945.226 88.092 945.986 88.928L953.662 83.076C950.014 79.58 942.794 75.02 937.246 72.132L930.102 77.452C931.09 77.984 932.078 78.592 933.142 79.2H919.614C925.77 76.54 932.154 73.424 937.626 70.384L929.266 65.52C931.242 64.988 933.142 64.38 934.89 63.696C939.222 65.824 944.466 67.116 950.85 67.8C951.914 65.368 954.346 61.72 956.322 59.896C951.762 59.668 947.734 59.136 944.162 58.376C947.582 55.412 950.166 51.688 951.914 46.824L946.29 45.076Z" fill="#ECEFFF"/>
<path d="M1008.53 47.888L1001.31 50.776C1003.37 53.816 1005.8 59.212 1007.39 62.404L1014.84 59.288C1013.47 56.552 1010.59 50.776 1008.53 47.888ZM1017.88 44.164L1010.51 47.204C1012.64 50.168 1015.22 55.488 1016.89 58.68L1024.19 55.564C1022.82 52.904 1019.86 47.128 1017.88 44.164ZM1003.06 28.964C1001.69 31.016 998.958 33.676 996.45 36.108C991.358 40.972 981.706 48.952 975.702 53.816C967.722 60.352 967.266 64.912 974.942 71.524C981.782 77.376 992.574 86.648 996.754 90.98C999.186 93.488 1001.69 96.072 1004.13 98.808L1014.77 88.928C1007.24 81.784 992.422 70.308 987.482 65.976C983.834 62.784 983.682 62.1 987.406 58.908C992.118 54.804 1001.54 47.584 1006.25 44.012C1008.31 42.416 1010.89 40.44 1013.7 38.388L1003.06 28.964Z" fill="#ECEFFF"/>
<path d="M1424.62 67.8006V76.1606H1413.6V67.8006H1424.62ZM1434.8 85.2046V58.8326H1403.49V89.9926H1413.6V85.2046H1434.8ZM1437.77 45.0766H1400.07V54.2726H1437.77V45.0766ZM1452.05 30.7126H1386.24V99.4926H1396.95V41.1246H1441.19V87.1046C1441.19 88.3206 1440.73 88.7766 1439.44 88.8526C1438.15 88.8526 1433.74 88.8526 1430.17 88.6246C1431.76 91.4366 1433.43 96.5286 1433.81 99.5686C1440.12 99.5686 1444.53 99.2646 1447.8 97.4406C1451.07 95.6926 1452.05 92.6526 1452.05 87.2566V30.7126Z" fill="#ECEFFF"/>
<path d="M1504.11 37.8566L1496.21 41.1246C1499.17 45.3046 1500.69 48.3446 1503.13 53.5886L1511.26 50.0926C1509.59 46.6726 1506.39 41.2766 1504.11 37.8566ZM1514.53 33.5246L1506.7 37.0966C1509.66 41.1246 1511.33 43.9366 1513.99 49.1806L1521.9 45.3806C1520.23 42.0366 1516.88 36.7926 1514.53 33.5246ZM1470.75 31.8526C1471.51 35.2726 1471.89 39.3766 1471.89 43.4046C1471.89 49.1046 1471.21 69.2446 1471.21 78.7446C1471.21 91.8926 1479.41 97.8206 1492.56 97.8206C1510.12 97.8206 1521.29 87.4846 1526 80.2646L1517.72 70.0806C1512.25 78.5166 1504.34 85.3566 1492.64 85.3566C1487.55 85.3566 1483.37 83.0766 1483.37 75.8566C1483.37 67.5726 1483.9 51.3086 1484.28 43.4046C1484.43 40.1366 1484.89 35.5766 1485.42 32.0046L1470.75 31.8526Z" fill="#ECEFFF"/>
<path d="M1554.2 83.1526V76.3126H1586.88V83.1526H1554.2ZM1586.88 58.9086V65.9006H1554.2V58.9086H1586.88ZM1586.88 41.8846V48.4966H1554.2V41.8846H1586.88ZM1543.03 31.0926V98.4286H1554.2V93.9446H1586.88V98.4286H1598.66V31.0926H1543.03Z" fill="#ECEFFF"/>
<path d="M1652.16 53.2846H1669.64V55.7926H1652.16V53.2846ZM1652.16 43.0246H1669.64V45.5326H1652.16V43.0246ZM1630.88 74.5646V68.3326L1633.24 68.1046C1633.62 69.6246 1634 70.9926 1634.15 72.2086L1640.84 69.2446V77.3766H1646.39C1645.09 80.1886 1643.42 82.6966 1641.45 84.7486C1640.99 81.2526 1639.55 76.2366 1637.95 72.3606L1630.88 74.5646ZM1625.87 59.5926C1626.78 58.4526 1627.69 57.2366 1628.6 56.0206C1629.13 57.0846 1629.59 58.1486 1630.12 59.2886L1625.87 59.5926ZM1674.81 65.0646C1673.37 67.1166 1671.31 69.4726 1669.19 71.6766C1668.05 69.3206 1667.13 66.8126 1666.45 64.4566V64.1526H1680.05V34.6646H1665.61C1666.75 32.8406 1667.89 30.9406 1668.96 28.8886L1656.34 27.1406C1655.81 29.4206 1654.9 32.1566 1653.91 34.6646H1642.28V64.1526H1656.65V69.9286L1652.31 68.1806L1650.72 68.4086H1642.36C1641.45 63.9246 1638.71 57.2366 1635.82 52.0686L1629.67 54.6526C1633.09 50.0166 1636.51 45.0766 1639.47 40.5926L1630.58 36.5646C1628.91 40.0606 1626.7 44.0886 1624.35 48.0406C1623.89 47.4326 1623.43 46.8246 1622.9 46.2166C1625.56 41.9606 1628.68 36.0326 1631.49 30.6366L1621.99 27.3686C1620.85 31.1686 1619.03 35.8806 1617.13 39.9846L1615.76 38.6926L1610.44 46.2166C1613.33 49.2566 1616.67 53.2086 1618.72 56.6286C1617.81 57.8446 1616.97 59.0606 1616.14 60.2006L1610.44 60.5046L1611.58 69.9286L1621.46 69.0926V74.1086L1612.95 72.6646C1612.49 78.9726 1611.5 85.8126 1609.53 90.2206C1611.65 91.0566 1615.61 92.8046 1617.43 94.0206C1619.25 89.6126 1620.7 83.0006 1621.46 76.3886V99.4926H1630.88V76.2366C1632.17 80.0366 1633.24 84.5966 1633.47 87.7126L1640.91 85.3566C1639.39 86.8006 1637.72 88.0926 1635.9 89.1566C1637.87 90.6006 1641.29 94.4006 1642.66 96.4526C1648.74 92.5006 1653.68 85.7366 1656.65 76.3886V89.2326C1656.65 89.9926 1656.42 90.2206 1655.51 90.2206C1654.67 90.2206 1652.01 90.2206 1649.81 90.1446C1650.95 92.8046 1652.09 96.7566 1652.39 99.4926C1656.95 99.4926 1660.37 99.3406 1663.11 97.8206C1665.84 96.3766 1666.45 93.7926 1666.45 89.3846V84.2926C1669.34 89.1566 1673.06 93.5646 1677.93 96.3766C1679.29 93.6406 1682.49 89.4606 1684.46 87.4846C1680.21 85.5846 1676.79 82.7726 1674.05 79.4286C1677.01 77.1486 1680.28 74.4126 1683.7 71.7526L1674.81 65.0646Z" fill="#ECEFFF"/>
<path d="M1741.69 52.7526L1735.08 55.4886C1737.51 58.9846 1738.8 61.4926 1740.85 65.9006L1747.62 62.9366C1746.25 60.1246 1743.59 55.5646 1741.69 52.7526ZM1750.28 49.1046L1743.74 52.0686C1746.25 55.4886 1747.69 57.8446 1749.9 62.1766L1756.59 58.9846C1755.07 56.2486 1752.25 51.8406 1750.28 49.1046ZM1690.24 39.1486L1691.38 51.5366C1700.42 49.5606 1713.65 48.0406 1720.11 47.3566C1716.08 51.0046 1710.61 58.9846 1710.61 69.3206C1710.61 85.3566 1724.97 94.4766 1741.77 95.7686L1746.02 83.0766C1733.03 82.3166 1722.61 77.9846 1722.61 66.8886C1722.61 57.9966 1729.61 49.1806 1737.74 47.3566C1741.92 46.5206 1748.3 46.5206 1752.18 46.4446L1752.1 34.7406C1746.63 34.9686 1737.74 35.4246 1730.21 36.0326C1716.46 37.2486 1705.06 38.1606 1697.99 38.7686C1696.55 38.9206 1693.28 39.0726 1690.24 39.1486Z" fill="#ECEFFF"/>
<path d="M1790.1 29.4966H1767.15V37.7046H1790.1V29.4966ZM1781.13 81.7086V88.1686H1775.59V81.7086H1781.13ZM1790.48 73.1206H1766.39V99.4926H1775.59V96.7566H1790.48V73.1206ZM1766.69 70.3846H1790.03V62.1766H1766.69V70.3846ZM1790.03 51.3846H1766.69V59.5926H1790.03V51.3846ZM1762.97 48.8006H1792.46V40.2126H1762.97V48.8006ZM1821.64 86.0406H1807.2V77.9846H1821.64V86.0406ZM1835.55 59.6686V49.2566H1819.97V40.1366C1824.83 39.3006 1829.62 38.2366 1833.88 37.0206L1826.2 27.8246C1817.92 30.4846 1805.45 32.4606 1793.9 33.4486C1795.12 35.8806 1796.56 40.0606 1796.94 42.7206C1800.67 42.4926 1804.62 42.1886 1808.57 41.7326V49.2566H1793.07V59.6686H1808.57V68.1046H1796.79V99.5686H1807.2V95.9206H1821.64V99.2646H1832.66V68.1046H1819.97V59.6686H1835.55Z" fill="#ECEFFF"/>
<path d="M1885.71 80.9486C1885.63 77.6046 1885.48 72.5126 1885.41 68.4086C1889.36 66.6606 1893.01 65.2166 1895.89 64.1526C1898.78 63.0126 1903.49 61.2646 1906.15 60.5046L1901.67 50.0166C1898.48 51.5366 1895.36 52.9806 1892.09 54.4246C1889.43 55.6406 1887 56.6286 1883.96 58.0726C1881.99 54.5766 1878.34 52.7526 1873.93 52.7526C1871.8 52.7526 1868 53.0566 1866.48 53.5126C1867.47 51.9926 1868.46 50.1686 1869.37 48.1926C1877.43 47.8886 1886.62 47.2046 1893.69 46.2926L1893.77 35.7286C1887.46 36.8686 1880.24 37.4766 1873.47 37.8566C1874.31 35.0446 1874.84 32.6886 1875.15 31.0166L1863.14 30.0286C1863.06 31.9286 1862.68 34.8166 1861.85 38.2366H1858.88C1854.85 38.2366 1849.08 37.9326 1845.35 37.3246V47.8886C1849.31 48.2686 1854.78 48.4206 1857.89 48.4206C1854.25 55.3366 1848.93 61.4926 1841.78 67.8006L1851.51 75.0966C1854.09 71.6766 1856.22 68.9406 1858.5 66.5846C1861.09 64.0766 1865.72 61.5686 1869.6 61.5686C1871.04 61.5686 1872.56 61.9486 1873.7 63.0886C1865.34 67.4966 1856.37 73.8046 1856.37 83.6086C1856.37 93.6406 1865.27 96.8326 1877.65 96.8326C1885.1 96.8326 1894.75 96.1486 1899.39 95.5406L1899.77 83.7606C1893.16 85.2046 1884.57 86.1166 1877.88 86.1166C1870.81 86.1166 1868.46 84.8246 1868.46 81.6326C1868.46 78.5926 1870.51 76.1606 1875.22 73.4246C1875.15 76.2366 1874.99 79.0486 1874.84 80.9486H1885.71Z" fill="#ECEFFF"/>
<path d="M1938.68 37.6286V40.0606H1929.41V37.6286H1938.68ZM1929.41 49.5606V46.9006H1938.68V49.5606H1929.41ZM1949.02 57.1606V30.0286H1918.62V99.4926H1929.41V57.1606H1949.02ZM1963.46 49.7886V46.9006H1973.03V49.7886H1963.46ZM1973.03 37.6286V40.0606H1963.46V37.6286H1973.03ZM1946.05 86.4206V83.3806H1955.48V85.8126L1946.05 86.4206ZM1955.48 67.1166V69.3206H1946.05V67.1166H1955.48ZM1946.05 75.1726H1955.48V77.5286H1946.05V75.1726ZM1983.9 30.0286H1952.97V57.3886H1973.03V87.0286C1973.03 88.0926 1972.65 88.4726 1971.67 88.4726C1970.68 88.4726 1967.87 88.4726 1965.36 88.3206V67.1166H1969.31V59.7446H1932.68V67.1166H1936.48V87.0286L1931.84 87.2566L1932.3 95.3126C1938.83 94.7806 1947.12 94.1726 1955.48 93.4886V97.2126H1965.36V89.8406C1966.5 92.7286 1967.56 96.6806 1967.79 99.1886C1973.34 99.2646 1977.14 98.9606 1980.18 97.1366C1983.14 95.3126 1983.9 92.2726 1983.9 87.1806V30.0286Z" fill="#ECEFFF"/>
<path d="M2035.35 28.9646C2033.99 31.0166 2031.25 33.6766 2028.74 36.1086C2023.65 40.9726 2014 48.9526 2007.99 53.8166C2000.01 60.3526 1999.56 64.9126 2007.23 71.5246C2014.07 77.3766 2024.87 86.6486 2029.05 90.9806C2031.48 93.4886 2033.99 96.0726 2036.42 98.8086L2047.06 88.9286C2039.53 81.7846 2024.71 70.3086 2019.77 65.9766C2016.13 62.7846 2015.97 62.1006 2019.7 58.9086C2024.41 54.8046 2033.83 47.5846 2038.55 44.0126C2040.6 42.4166 2043.18 40.4406 2045.99 38.3886L2035.35 28.9646Z" fill="#ECEFFF"/>
</svg>
