<svg width="2049" height="128" viewBox="0 0 2049 128" fill="none" xmlns="http://www.w3.org/2000/svg">
<path d="M1880.91 42.7161C1879.86 46.1661 1878.96 47.9661 1877.76 47.9661C1876.74 47.9661 1875.84 46.6161 1875.84 44.0361C1875.84 41.1861 1878.03 37.1961 1882.44 35.9961C1882.08 38.3361 1881.57 40.7061 1880.91 42.7161ZM1886.13 55.5561C1893.87 54.2661 1897.56 49.6761 1897.56 43.4361C1897.56 36.6861 1892.76 31.4661 1885.2 31.4661C1877.25 31.4661 1871.16 37.4661 1871.16 44.5161C1871.16 49.5861 1873.98 53.5761 1877.64 53.5761C1881.15 53.5761 1883.82 49.5861 1885.59 43.6461C1886.4 40.9161 1886.94 38.3061 1887.33 35.9061C1890.75 36.7161 1892.61 39.4461 1892.61 43.2861C1892.61 47.1861 1890.09 49.8261 1886.31 50.7561C1885.47 50.9661 1884.66 51.1461 1883.4 51.2961L1886.13 55.5561Z" fill="#ECEFFF"/>
<path d="M1911.87 28.2861C1909.86 32.1261 1905.33 36.8961 1899.99 39.3261C1900.92 40.2261 1902.15 41.8761 1902.69 42.9561C1904.22 42.1761 1905.72 41.2461 1907.1 40.2561V43.1361C1907.1 46.4661 1906.56 50.6661 1901.49 53.7861C1902.66 54.4761 1904.4 55.9461 1905.18 56.9061C1911 53.1261 1911.6 47.5161 1911.6 43.2561V39.8061H1907.7C1910.55 37.6461 1912.95 35.1561 1914.42 32.7561C1915.86 35.0661 1918.29 37.5261 1921.05 39.6261H1917.24V56.9061H1921.8V40.1661C1923.27 41.2161 1924.8 42.1461 1926.33 42.8961C1927.14 41.5461 1928.1 40.0461 1929.21 38.8761C1924.23 37.1361 1919.73 33.4461 1916.61 28.2861H1911.87Z" fill="#ECEFFF"/>
<path d="M1951.29 46.1661H1956.81V42.1461H1951.29V37.6161H1946.88V42.1461H1941.12V46.1661H1946.88V52.1061H1939.98V56.1261H1957.95V52.1061H1951.29V46.1661ZM1943.91 32.3061C1944.24 31.3461 1944.57 30.4161 1944.87 29.4561L1940.31 28.3761C1939.98 29.6661 1939.59 30.9861 1939.08 32.3061H1931.07V36.4761H1937.16C1935.39 39.7161 1932.99 42.6261 1929.99 44.5161C1930.65 45.5961 1931.61 47.5461 1932.06 48.7761C1932.84 48.2661 1933.59 47.6961 1934.28 47.0961V56.8761H1938.69V42.3261C1940.04 40.4961 1941.18 38.5161 1942.14 36.4761H1958.1V32.3061H1943.91Z" fill="#ECEFFF"/>
<path d="M1979.19 38.2761H1978.05V35.1861H1979.19V38.2761ZM1983.96 50.8761H1982.82V42.0561H1983.96V50.8761ZM1973.31 42.0561H1974.39V50.8761H1973.31V42.0561ZM1979.19 42.0561V50.8761H1978.02V42.0561H1979.19ZM1988.28 35.1861V31.2861H1969.35C1969.56 30.7761 1969.77 30.2361 1969.95 29.7261L1966.02 28.4661C1964.64 32.4561 1962.27 36.4461 1959.78 38.9661C1960.47 40.0161 1961.61 42.3561 1961.97 43.3761C1962.39 42.9261 1962.81 42.4461 1963.23 41.9361V56.9061H1967.31V35.6061C1967.94 34.3761 1968.54 33.1461 1969.08 31.8861V35.1861H1973.97V38.2761H1969.32V56.1861H1973.31V54.5961H1983.96V56.0061H1988.16V38.2761H1983.3V35.1861H1988.28Z" fill="#ECEFFF"/>
<path d="M2013.15 39.9261H2009.1V38.9061H2013.15V39.9261ZM2013.15 43.8261H2009.1V42.7761H2013.15V43.8261ZM2013.15 47.6961H2009.1V46.6761H2013.15V47.6961ZM2007.69 35.8461H2005.08V50.7561H2017.35V35.8461H2011.74L2011.92 34.6461H2018.37V30.9561H2012.34C2012.43 30.1761 2012.49 29.3961 2012.55 28.6461L2008.2 28.4361C2008.17 29.2461 2008.14 30.0861 2008.08 30.9561H2000.67V34.6461H2007.81L2007.69 35.8461ZM1996.2 28.5261C1994.76 32.6661 1992.27 36.8061 1989.69 39.4161C1990.41 40.4961 1991.58 42.9261 1991.97 44.0061C1992.45 43.4661 1992.96 42.8961 1993.44 42.2961V56.8761H1997.58V35.8461C1998.63 33.8661 1999.56 31.7961 2000.31 29.8161L1996.2 28.5261ZM2018.52 51.8661H2003.73V37.7361H1999.71V56.9061H2003.73V55.5861H2018.52V51.8661Z" fill="#ECEFFF"/>
<path d="M1873.62 74.4161C1873.59 75.5261 1873.41 76.8761 1873.29 77.7761C1872.96 79.9661 1872.12 85.5461 1872.12 90.1061C1872.12 94.1261 1872.72 97.6061 1873.35 99.6161L1877.4 99.3461C1877.37 98.8661 1877.37 98.3261 1877.37 97.9961C1877.37 97.6961 1877.46 97.0061 1877.55 96.5861C1877.91 94.8761 1878.81 91.8761 1879.71 89.2061L1877.52 87.4661C1877.13 88.3361 1876.77 88.9061 1876.41 89.7761C1876.38 89.6561 1876.38 89.1761 1876.38 89.0861C1876.38 86.3261 1877.4 79.3961 1877.76 77.8661C1877.88 77.3261 1878.3 75.4961 1878.57 74.8361L1873.62 74.4161ZM1888.53 92.8661C1888.53 94.4861 1887.96 95.2661 1886.52 95.2661C1885.26 95.2661 1884.21 94.9061 1884.21 93.8561C1884.21 92.9261 1885.14 92.3861 1886.52 92.3861C1887.21 92.3861 1887.87 92.4761 1888.53 92.6561V92.8661ZM1898.67 93.9161C1897.35 92.6861 1895.52 91.1261 1892.97 90.0761C1892.88 88.3361 1892.73 86.2061 1892.67 83.5061C1894.23 83.3861 1895.7 83.2061 1897.02 83.0261V78.5561C1895.67 78.8261 1894.2 79.0661 1892.7 79.2161C1892.73 77.9861 1892.76 76.9961 1892.79 76.4261C1892.82 75.7661 1892.88 75.0161 1892.97 74.4461H1887.84C1887.96 75.0761 1888.08 76.0361 1888.08 76.4861C1888.11 77.0261 1888.11 78.1361 1888.14 79.5161C1887.57 79.5461 1887.03 79.5461 1886.46 79.5461C1884.66 79.5461 1882.89 79.4561 1881.15 79.2761L1881.18 83.5661C1882.95 83.6861 1884.72 83.7461 1886.49 83.7461C1887.03 83.7461 1887.6 83.7461 1888.17 83.7161C1888.2 85.5761 1888.29 87.4061 1888.38 88.9661C1887.9 88.9361 1887.39 88.9061 1886.88 88.9061C1882.74 88.9061 1880.01 91.0361 1880.01 94.3661C1880.01 97.7261 1882.77 99.5261 1886.94 99.5261C1890.84 99.5261 1892.67 97.7861 1893.06 94.9961C1894.08 95.7461 1895.13 96.6461 1896.24 97.6961L1898.67 93.9161Z" fill="#ECEFFF"/>
<path d="M1916.7 85.3961V89.1761H1914.42V85.3961H1916.7ZM1920.72 92.8961V81.6761H1910.34V94.7861H1914.42V92.8961H1920.72ZM1928.79 74.8061H1910.31C1910.46 74.4161 1910.61 74.0261 1910.76 73.6361L1906.68 72.3161C1905.21 76.3961 1902.66 80.5061 1900.05 83.0561C1900.77 84.1661 1901.94 86.5961 1902.3 87.6461C1902.9 87.0461 1903.47 86.3861 1904.04 85.6661V100.816H1908.39V78.8861C1909.08 77.5661 1909.74 76.1861 1910.28 74.8361V78.9761H1922.82V95.9561C1922.82 96.4961 1922.61 96.6461 1922.04 96.6461C1921.44 96.6461 1919.43 96.6461 1917.72 96.5561C1918.32 97.7861 1919.01 99.7361 1919.16 100.966C1921.86 100.996 1923.93 100.846 1925.34 100.186C1926.75 99.4961 1927.2 98.3561 1927.2 96.0161V78.9761H1928.79V74.8061Z" fill="#ECEFFF"/>
<path d="M1938.45 73.7261C1938.51 75.5561 1938.3 77.6261 1937.88 79.9361C1936.56 80.0261 1935.33 80.1161 1934.46 80.1461C1933.29 80.1761 1932.15 80.2361 1931.01 80.1461L1931.4 84.9761C1932.39 84.7961 1934.1 84.5561 1935.06 84.4361C1935.48 84.3761 1936.14 84.2861 1936.92 84.1661C1935.81 88.2161 1933.89 93.7661 1931.07 97.5761L1935.78 99.4661C1938.3 95.3861 1940.52 88.2461 1941.72 83.6261C1942.26 83.5961 1942.77 83.5661 1943.1 83.5661C1944.96 83.5661 1945.86 83.8361 1945.86 85.9961C1945.86 88.7561 1945.5 92.1461 1944.75 93.6161C1944.36 94.4261 1943.67 94.7561 1942.74 94.7561C1941.99 94.7561 1940.19 94.4261 1939.11 94.1261L1939.89 98.8661C1940.94 99.1061 1942.35 99.2861 1943.49 99.2861C1945.92 99.2861 1947.66 98.5361 1948.68 96.4061C1949.94 93.7661 1950.33 88.9961 1950.33 85.5161C1950.33 81.0761 1948.08 79.4561 1944.66 79.4561C1944.12 79.4561 1943.43 79.4861 1942.65 79.5461C1942.83 78.7661 1943.01 77.9561 1943.16 77.1461C1943.34 76.3061 1943.58 75.1961 1943.79 74.2961L1938.45 73.7261ZM1949.7 78.6461C1951.86 81.4061 1953.84 86.8361 1954.56 90.2861L1959.15 88.1561C1958.28 85.2761 1955.85 79.5161 1954.05 76.8461L1949.7 78.6461Z" fill="#ECEFFF"/>
<path d="M1971.9 90.0761H1976.58C1976.31 86.1161 1982.52 85.8161 1982.52 81.4961C1982.52 77.2061 1979.07 75.2561 1974.66 75.2561C1971.48 75.2561 1968.66 76.7561 1966.8 79.0361L1969.74 81.7361C1970.94 80.3561 1972.32 79.5761 1974.03 79.5761C1976.01 79.5761 1977.42 80.3261 1977.42 81.9761C1977.42 84.6161 1971.42 85.5161 1971.9 90.0761ZM1970.7 95.0861C1970.7 97.0061 1972.17 98.4161 1974.24 98.4161C1976.31 98.4161 1977.78 97.0061 1977.78 95.0861C1977.78 93.1661 1976.31 91.8161 1974.24 91.8161C1972.17 91.8161 1970.7 93.1661 1970.7 95.0861Z" fill="#ECEFFF"/>
<path d="M1730.82 84.368V78.364H1764.64V84.368H1730.82ZM1764.64 62.252V68.18H1730.82V62.252H1764.64ZM1764.64 46.216V52.068H1730.82V46.216H1764.64ZM1751.04 35.652C1752.1 33.144 1753.32 30.256 1754.38 27.368L1740.86 26C1740.55 28.888 1739.94 32.46 1739.26 35.652H1719.65V98.124H1730.82V94.552H1764.64V98.124H1776.42V35.652H1751.04Z" fill="#ECEFFF"/>
<path d="M1827.57 30.94C1831.6 38.692 1837 46.596 1842.54 53.512H1805.99C1811.61 46.748 1816.63 38.616 1820.2 30.256L1808.19 26.76C1803.71 38.236 1795.27 48.952 1785.85 55.184C1788.51 57.236 1793.3 61.72 1795.35 64.152C1797.17 62.708 1798.92 61.112 1800.67 59.364V64.228H1812.07C1810.62 74.26 1806.67 83.152 1790.03 88.624C1792.69 91.056 1795.88 95.768 1797.25 98.884C1817.31 91.284 1822.33 78.592 1824.15 64.228H1836.62C1836.08 78.288 1835.4 84.596 1834.03 86.116C1833.12 87.028 1832.28 87.256 1830.99 87.256C1829.09 87.256 1825.52 87.18 1821.72 86.876C1823.7 89.992 1825.22 94.78 1825.37 98.048C1829.7 98.124 1833.96 98.124 1836.62 97.668C1839.73 97.136 1842.01 96.3 1844.22 93.412C1846.72 90.22 1847.56 81.48 1848.24 60.124C1849.38 61.34 1850.52 62.48 1851.59 63.544C1853.72 60.428 1858.05 55.868 1861.01 53.512C1852.65 46.748 1843.23 35.956 1838.52 26.608L1827.57 30.94Z" fill="#ECEFFF"/>
<path d="M219.064 31.8261C218.554 30.8061 217.474 28.8861 216.694 27.7461L213.874 28.8861C214.684 30.0261 215.644 31.7961 216.244 33.0261L219.064 31.8261ZM198.364 29.9961C198.424 31.8261 198.214 33.8961 197.794 36.2061C196.474 36.2961 195.244 36.3861 194.374 36.4161C193.204 36.4461 192.064 36.5061 190.924 36.4161L191.314 41.2461C192.304 41.0661 194.014 40.8261 194.974 40.7061C195.394 40.6461 196.054 40.5561 196.834 40.4361C195.724 44.4861 193.804 50.0361 190.984 53.8461L195.694 55.7361C198.214 51.6561 200.434 44.5161 201.634 39.8961C202.174 39.8661 202.684 39.8361 203.014 39.8361C204.874 39.8361 205.774 40.1061 205.774 42.2661C205.774 45.0261 205.414 48.4161 204.664 49.8861C204.274 50.6961 203.584 51.0261 202.654 51.0261C201.904 51.0261 200.104 50.6961 199.024 50.3961L199.804 55.1361C200.854 55.3761 202.264 55.5561 203.404 55.5561C205.834 55.5561 207.574 54.8061 208.594 52.6761C209.854 50.0361 210.244 45.2661 210.244 41.7861C210.244 37.3461 207.994 35.7261 204.574 35.7261C204.034 35.7261 203.344 35.7561 202.564 35.8161C202.744 35.0361 202.924 34.2261 203.074 33.4161C203.254 32.5761 203.494 31.4661 203.704 30.5661L198.364 29.9961ZM215.344 33.2961C214.804 32.2461 213.754 30.2961 213.004 29.1861L210.184 30.3261C210.874 31.3461 211.624 32.8161 212.224 33.9861L209.614 35.0661C211.774 37.8261 213.754 43.1061 214.474 46.5561L219.064 44.4261C218.254 41.6961 216.034 36.5661 214.264 33.7461L215.344 33.2961Z" fill="#ECEFFF"/>
<path d="M233.554 46.5861C233.404 45.3561 233.314 44.0361 233.284 42.5361C234.244 42.2661 235.324 42.0561 236.554 41.9961C235.714 43.9161 234.664 45.3561 233.554 46.5861ZM227.494 50.2461C226.624 50.2461 226.324 49.7961 226.324 48.9861C226.324 47.6961 227.464 45.8061 229.294 44.4261C229.384 46.2261 229.564 47.9661 229.834 49.5561C228.964 50.0061 228.154 50.2461 227.494 50.2461ZM237.964 36.6561C237.934 37.0761 237.844 37.7061 237.724 38.3361H237.544C236.134 38.3361 234.724 38.4861 233.404 38.7861C233.464 38.0661 233.524 37.3461 233.584 36.6261C237.274 36.4761 241.264 36.0861 244.054 35.5761L244.024 31.4661C240.634 32.2761 237.664 32.6361 234.154 32.7561C234.214 32.3361 234.304 31.9161 234.394 31.5261C234.514 31.0161 234.634 30.4761 234.844 29.7861L230.194 29.6661C230.224 30.2661 230.164 31.0761 230.104 31.6461L229.984 32.8461H229.264C227.134 32.8461 224.524 32.5761 223.474 32.4261L223.594 36.5361C225.064 36.5961 227.374 36.7461 229.114 36.7461H229.594C229.474 37.8261 229.384 38.9661 229.324 40.0761C225.154 42.0861 222.094 46.1361 222.094 49.9461C222.094 53.2461 224.074 54.6261 226.384 54.6261C227.914 54.6261 229.384 54.2061 230.734 53.6061C230.854 53.9661 230.944 54.3261 231.064 54.6261L235.204 53.3961C234.964 52.7061 234.754 52.0161 234.544 51.2961C236.674 49.5261 238.984 46.5561 240.574 42.6561C242.194 43.4061 243.004 44.7261 243.004 46.2561C243.004 48.6561 241.234 51.6261 235.294 52.2861L237.664 56.0361C245.164 54.9261 247.474 50.6361 247.474 46.4661C247.474 42.9261 245.164 40.2561 241.804 39.0561C242.014 38.5161 242.194 37.9761 242.314 37.6761L237.964 36.6561Z" fill="#ECEFFF"/>
<path d="M264.154 51.7761C262.654 51.7761 261.664 51.1161 261.664 50.1861C261.664 49.5861 262.234 49.0161 263.194 49.0161C264.454 49.0161 265.354 50.0661 265.504 51.7161C265.084 51.7461 264.634 51.7761 264.154 51.7761ZM270.904 30.4461C270.514 30.5661 269.674 30.6861 268.264 30.8061C266.494 30.9561 260.554 31.0461 258.964 31.0461C257.974 31.0461 256.864 30.9861 255.934 30.8661L256.084 35.5161C256.804 35.3961 257.854 35.3061 258.754 35.2461C260.344 35.1261 263.404 35.0061 264.904 34.9761C263.464 36.2661 260.704 38.3961 259.054 39.7761C257.284 41.2161 253.834 44.1561 251.914 45.6561L255.184 49.0461C258.034 45.5661 261.154 42.9561 265.504 42.9561C268.774 42.9561 271.384 44.5461 271.384 47.0961C271.384 48.5361 270.814 49.7061 269.644 50.5161C269.134 47.6961 266.794 45.5961 263.164 45.5961C259.804 45.5961 257.404 48.0261 257.404 50.6361C257.404 53.9061 260.884 55.8561 265.084 55.8561C272.764 55.8561 276.124 51.8061 276.124 47.1561C276.124 42.6861 272.104 39.4161 267.004 39.4161C266.284 39.4161 265.714 39.4461 264.934 39.5961C266.554 38.3361 269.164 36.2061 270.844 35.0661C271.594 34.5561 272.344 34.1061 273.124 33.6261L270.904 30.4461Z" fill="#ECEFFF"/>
<path d="M200.914 86.7161C199.864 90.1661 198.964 91.9661 197.764 91.9661C196.744 91.9661 195.844 90.6161 195.844 88.0361C195.844 85.1861 198.034 81.1961 202.444 79.9961C202.084 82.3361 201.574 84.7061 200.914 86.7161ZM206.134 99.5561C213.874 98.2661 217.564 93.6761 217.564 87.4361C217.564 80.6861 212.764 75.4661 205.204 75.4661C197.254 75.4661 191.164 81.4661 191.164 88.5161C191.164 93.5861 193.984 97.5761 197.644 97.5761C201.154 97.5761 203.824 93.5861 205.594 87.6461C206.404 84.9161 206.944 82.3061 207.334 79.9061C210.754 80.7161 212.614 83.4461 212.614 87.2861C212.614 91.1861 210.094 93.8261 206.314 94.7561C205.474 94.9661 204.664 95.1461 203.404 95.2961L206.134 99.5561Z" fill="#ECEFFF"/>
<path d="M249.064 75.8261C248.554 74.8061 247.474 72.8861 246.694 71.7461L243.874 72.8861C244.684 74.0261 245.644 75.7961 246.244 77.0261L249.064 75.8261ZM228.364 73.9961C228.424 75.8261 228.214 77.8961 227.794 80.2061C226.474 80.2961 225.244 80.3861 224.374 80.4161C223.204 80.4461 222.064 80.5061 220.924 80.4161L221.314 85.2461C222.304 85.0661 224.014 84.8261 224.974 84.7061C225.394 84.6461 226.054 84.5561 226.834 84.4361C225.724 88.4861 223.804 94.0361 220.984 97.8461L225.694 99.7361C228.214 95.6561 230.434 88.5161 231.634 83.8961C232.174 83.8661 232.684 83.8361 233.014 83.8361C234.874 83.8361 235.774 84.1061 235.774 86.2661C235.774 89.0261 235.414 92.4161 234.664 93.8861C234.274 94.6961 233.584 95.0261 232.654 95.0261C231.904 95.0261 230.104 94.6961 229.024 94.3961L229.804 99.1361C230.854 99.3761 232.264 99.5561 233.404 99.5561C235.834 99.5561 237.574 98.8061 238.594 96.6761C239.854 94.0361 240.244 89.2661 240.244 85.7861C240.244 81.3461 237.994 79.7261 234.574 79.7261C234.034 79.7261 233.344 79.7561 232.564 79.8161C232.744 79.0361 232.924 78.2261 233.074 77.4161C233.254 76.5761 233.494 75.4661 233.704 74.5661L228.364 73.9961ZM245.344 77.2961C244.804 76.2461 243.754 74.2961 243.004 73.1861L240.184 74.3261C240.874 75.3461 241.624 76.8161 242.224 77.9861L239.614 79.0661C241.774 81.8261 243.754 87.1061 244.474 90.5561L249.064 88.4261C248.254 85.6961 246.034 80.5661 244.264 77.7461L245.344 77.2961Z" fill="#ECEFFF"/>
<path d="M267.874 92.5061H272.554V96.2561H267.874V92.5061ZM272.554 77.7161V81.1361H267.874V77.7161H272.554ZM272.554 88.6061H267.874V85.0361H272.554V88.6061ZM256.414 85.2761C256.864 84.7361 257.284 84.1661 257.734 83.5661C258.004 84.0761 258.244 84.6161 258.484 85.1861L256.414 85.2761ZM276.964 96.2561V73.8161H263.674V96.2561H261.754L263.134 95.7461C262.774 94.2161 261.994 91.9061 261.244 90.1061L258.574 90.9761V88.6661L259.744 88.5761C259.894 89.1161 260.014 89.6261 260.104 90.0761L263.374 88.5761C263.014 86.8061 261.874 84.1661 260.704 82.1261L257.914 83.3561C259.324 81.4661 260.704 79.4261 261.934 77.5661L258.274 76.0661C257.614 77.4761 256.714 79.0961 255.754 80.6861C255.574 80.4461 255.334 80.1761 255.124 79.9061C256.174 78.2261 257.404 75.8861 258.544 73.7561L254.704 72.4361C254.254 73.9661 253.504 75.8561 252.754 77.4761L252.154 76.9661L250.144 79.9961C251.344 81.1661 252.694 82.6961 253.564 84.0161C253.204 84.4961 252.874 84.9761 252.514 85.4261L250.144 85.5161L250.504 89.2661L254.734 88.9661V90.9461L251.224 90.3161C251.044 92.8061 250.624 95.5061 249.844 97.2461C250.744 97.5761 252.364 98.3261 253.114 98.8061C253.864 97.0361 254.464 94.2761 254.734 91.6061V100.906H258.574V92.6261C259.084 94.1561 259.564 95.8061 259.774 96.9761L261.124 96.4961V100.156H278.824V96.2561H276.964Z" fill="#ECEFFF"/>
<path d="M299.914 86.2961H291.154V88.4261C290.974 87.4961 290.644 86.3861 290.224 85.2461H300.604C300.754 88.5461 301.024 91.3961 301.414 93.7061C300.934 94.2761 300.454 94.8161 299.914 95.3261V86.2961ZM294.394 94.6661V93.3461H296.434V94.6661H294.394ZM296.434 90.5261H294.394V89.2361H296.434V90.5261ZM285.484 85.2761C285.784 84.8561 286.084 84.4061 286.384 83.9561C286.534 84.3761 286.714 84.7661 286.864 85.1861L285.484 85.2761ZM292.174 78.2561L290.944 78.5261C291.304 79.5761 291.544 80.8661 291.604 81.8861H289.594V83.6861C289.384 83.1761 289.144 82.6961 288.904 82.2161L287.074 82.9061C288.094 81.3161 289.114 79.6661 290.044 78.1061V78.2561H292.174ZM296.404 81.8861H293.764L294.634 81.6761C294.604 80.7461 294.334 79.3661 293.944 78.2561H296.134C295.924 79.3361 295.564 80.6561 295.264 81.6161L296.404 81.8861ZM305.554 86.1161C305.254 87.1061 304.864 88.0961 304.384 89.0561C304.294 87.8861 304.234 86.6261 304.174 85.2461H308.524V81.8861H304.054C303.994 80.2961 303.994 78.6161 303.964 76.9061C304.714 78.4661 305.374 80.2061 305.674 81.4361L309.004 79.9961C308.524 78.4361 307.474 76.0661 306.454 74.2661L303.964 75.2561C303.964 74.3861 303.994 73.5161 303.994 72.6161H300.304C300.334 75.9461 300.364 79.0661 300.454 81.8861H298.324C298.744 80.9261 299.194 79.6361 299.704 78.3761L299.134 78.2561H300.064V75.0461H297.064V72.3761H293.104V75.0461H290.044V77.4761L287.014 76.1861C286.504 77.4161 285.874 78.7661 285.124 80.1761C284.974 79.9661 284.824 79.7561 284.674 79.5761C285.544 77.8961 286.534 75.6161 287.464 73.5761L283.834 72.4361C283.504 73.8161 282.964 75.5561 282.364 77.0861L281.914 76.6361L280.174 79.7561C281.224 80.8661 282.394 82.3061 283.234 83.5661C282.814 84.2261 282.424 84.8561 282.034 85.4261L280.054 85.5161L280.414 89.2661L283.924 88.9361V90.7961L281.014 90.3161C280.894 92.8061 280.624 95.5061 279.934 97.2461C280.714 97.5461 282.154 98.1761 282.814 98.5961C283.294 97.3061 283.684 95.5061 283.924 93.6161V100.906H287.434V93.1361C287.734 94.3661 288.004 95.5661 288.124 96.4961L291.094 95.4761C290.824 94.0061 290.224 91.8161 289.654 90.0761L287.434 90.7961V88.6061L287.914 88.5461C288.034 89.0861 288.124 89.5961 288.184 90.0461L291.154 88.8461V98.9861H294.394V97.5761H297.064C296.734 97.7861 296.434 97.9661 296.104 98.1461C296.884 98.7461 298.144 100.156 298.654 100.966C300.064 100.096 301.324 99.0761 302.494 97.9361C303.274 99.9761 304.354 101.056 305.824 101.116C306.964 101.146 308.524 100.156 309.334 95.3261C308.764 94.9361 307.264 93.7961 306.694 92.9561C306.574 95.0861 306.334 96.3461 306.004 96.3161C305.704 96.2861 305.404 95.7461 305.164 94.7561C306.754 92.5061 308.014 89.8961 308.944 87.0461L305.554 86.1161Z" fill="#ECEFFF"/>
<path d="M44.972 26.2272C41.704 36.7912 36.08 47.3552 30 54.1192C31.672 57.0072 34.332 63.5432 35.092 66.2792C36.384 64.8352 37.6 63.3152 38.816 61.6432V98.3512H49.304V43.7072C51.508 38.9952 53.484 34.0552 55.08 29.3432L44.972 26.2272ZM80.464 74.1072H75.6V68.3312H80.464V74.1072ZM89.888 55.2592V47.4312H82.136V40.1352H73.7V47.4312H66.556V55.2592H73.7V60.8832H67.848V81.4792H88.672V60.8832H82.136V55.2592H89.888ZM65.264 84.2912V39.0712H91.104V84.2912H65.264ZM55.232 29.5712V98.1992H65.264V93.7912H91.104V97.5152H101.592V29.5712H55.232Z" fill="#ECEFFF"/>
<path d="M162.164 85.5072V72.3592H175.16V62.0992H162.164V51.4592H176.756V41.0472H162.164V26.6072H151.144V41.0472H146.888C147.496 37.8552 147.952 34.5112 148.332 31.1672L137.616 29.5712C137.084 35.4232 136.096 41.3512 134.652 46.5192C133.664 43.9352 132.448 41.1992 131.232 38.8432L126.976 40.6672V26.0752H115.88V41.6552L109.8 40.8192C109.268 47.2032 107.976 55.7912 106.228 60.9592L114.284 63.8472C114.892 61.7192 115.424 59.2112 115.88 56.5512V98.2752H126.976V49.9392C127.508 51.6872 127.964 53.2072 128.192 54.4992L132.6 52.5232C131.992 53.8912 131.384 55.1072 130.7 56.2472C133.36 57.3112 138.3 59.7432 140.504 61.2632C141.948 58.5272 143.24 55.1832 144.38 51.4592H151.144V62.0992H137.16V72.3592H151.144V85.5072H131.46V95.9952H179.416V85.5072H162.164Z" fill="#ECEFFF"/>
<path d="M387.454 34.7953H391.234C390.574 35.3953 389.884 35.9953 389.164 36.5653H387.454V34.7953ZM400.744 40.1953V36.5653H394.924C396.604 34.9453 398.164 33.2053 399.544 31.4053L396.004 29.5153C395.194 30.6253 394.294 31.7053 393.304 32.7553V31.2853H387.454V28.4053H383.134V31.2853H376.534V34.7953H383.134V36.5653H374.254V40.1953H384.064C383.344 40.6453 382.624 41.0953 381.874 41.5153L380.914 41.3953L380.764 42.0853C378.244 43.4353 375.574 44.6053 372.874 45.5353C373.654 46.3153 374.944 47.9953 375.514 48.8653C376.894 48.3253 378.274 47.6953 379.624 47.0353C379.234 48.5653 378.844 50.0053 378.454 51.1453L382.804 51.7453C382.924 51.3553 383.044 50.9053 383.164 50.4553H392.674C392.314 51.7453 391.924 52.4953 391.504 52.7953C391.144 53.0353 390.724 53.0953 390.184 53.0953C389.374 53.0953 387.484 53.0353 385.864 52.8853C386.614 54.0253 387.154 55.6753 387.214 56.9053C389.014 56.9653 390.694 56.9353 391.714 56.8453C393.124 56.7553 394.054 56.5153 394.954 55.6453C396.004 54.6853 396.784 52.6153 397.474 48.7153C397.624 48.1153 397.714 46.9753 397.714 46.9753H384.064L384.334 45.8053C388.804 45.5353 393.814 44.9653 397.594 43.9453L394.984 41.1253C393.064 41.6653 390.424 42.1153 387.604 42.4453C388.684 41.7253 389.704 40.9753 390.724 40.1953H400.744Z" fill="#ECEFFF"/>
<path d="M411.964 29.4553L411.274 33.6253C414.784 34.1653 420.514 34.7953 423.724 35.0353L424.294 30.8353C421.084 30.6253 415.354 30.0253 411.964 29.4553ZM425.584 39.4153L422.974 36.4753C422.644 36.5953 421.744 36.7753 421.174 36.8353C418.564 37.1653 411.934 37.3753 410.674 37.3753C409.534 37.3753 408.334 37.3153 407.644 37.2553L408.064 42.2053C408.694 42.0853 409.684 41.9053 410.734 41.8153C412.384 41.6653 415.114 41.4253 417.034 41.3953C414.454 44.2153 409.534 49.1053 407.794 50.8453C406.894 51.7453 406.054 52.4653 405.424 52.9753L409.654 55.9153C411.904 53.0653 413.554 51.2053 414.544 50.1553C415.264 49.4053 415.864 48.8953 416.314 48.8953C416.824 48.8953 417.454 49.1953 417.784 50.2453C417.964 50.9353 418.264 52.1353 418.594 53.0053C419.344 54.9253 420.934 55.5553 423.964 55.5553C425.464 55.5553 428.704 55.3753 429.934 55.1653L430.234 50.4553C428.674 50.7253 426.754 50.9353 424.294 50.9353C423.334 50.9353 422.704 50.4853 422.464 49.6753C422.224 49.0153 421.984 48.0853 421.714 47.3353C421.324 46.2853 420.874 45.7153 420.184 45.3853C419.824 45.2053 419.284 45.0553 419.044 45.0553C419.524 44.5153 422.014 42.2653 423.484 41.0353C424.114 40.5253 424.684 40.0453 425.584 39.4153Z" fill="#ECEFFF"/>
<path d="M446.246 51.7753C444.746 51.7753 443.756 51.1153 443.756 50.1853C443.756 49.5853 444.326 49.0153 445.286 49.0153C446.546 49.0153 447.446 50.0653 447.596 51.7153C447.176 51.7453 446.726 51.7753 446.246 51.7753ZM452.996 30.4453C452.606 30.5653 451.766 30.6853 450.356 30.8053C448.586 30.9553 442.646 31.0453 441.056 31.0453C440.066 31.0453 438.956 30.9853 438.026 30.8653L438.176 35.5153C438.896 35.3953 439.946 35.3053 440.846 35.2453C442.436 35.1253 445.496 35.0053 446.996 34.9753C445.556 36.2653 442.796 38.3953 441.146 39.7753C439.376 41.2153 435.926 44.1553 434.006 45.6553L437.276 49.0453C440.126 45.5653 443.246 42.9553 447.596 42.9553C450.866 42.9553 453.476 44.5453 453.476 47.0953C453.476 48.5353 452.906 49.7053 451.736 50.5153C451.226 47.6953 448.886 45.5953 445.256 45.5953C441.896 45.5953 439.496 48.0253 439.496 50.6353C439.496 53.9053 442.976 55.8553 447.176 55.8553C454.856 55.8553 458.216 51.8053 458.216 47.1553C458.216 42.6853 454.196 39.4153 449.096 39.4153C448.376 39.4153 447.806 39.4453 447.026 39.5953C448.646 38.3353 451.256 36.2053 452.936 35.0653C453.686 34.5553 454.436 34.1053 455.216 33.6253L452.996 30.4453Z" fill="#ECEFFF"/>
<path d="M490.766 33.6853C490.256 32.6653 489.176 30.7453 488.396 29.6053L485.576 30.7453C486.386 31.8853 487.346 33.6553 487.946 34.8853L490.766 33.6853ZM487.046 35.1553C486.506 34.1053 485.456 32.1553 484.706 31.0453L481.886 32.1853C482.696 33.3553 483.566 35.1253 484.196 36.3553L487.046 35.1553ZM476.636 43.4653C478.526 43.2253 480.356 43.1353 482.516 43.1353C484.346 43.1353 486.206 43.3453 487.676 43.5253L487.766 39.2053C485.966 39.0253 484.166 38.9353 482.516 38.9353C480.566 38.9353 478.346 39.0853 476.636 39.2653V43.4653ZM479.216 32.9653C477.716 33.3253 476.186 33.6253 474.656 33.8653L474.776 33.3553C474.926 32.6653 475.226 31.2253 475.466 30.2953L469.976 29.8753C470.066 30.6253 470.036 31.9453 469.886 33.2053C469.856 33.5653 469.796 33.9553 469.706 34.4053C468.926 34.4353 468.116 34.4653 467.336 34.4653C466.046 34.4653 465.116 34.4053 463.496 34.2253L463.616 38.6953C464.636 38.7553 465.776 38.8153 467.306 38.8153C467.786 38.8153 468.296 38.8153 468.806 38.7853C468.656 39.4753 468.446 40.1953 468.266 40.8853C467.156 45.0253 464.816 51.3553 463.046 54.2953L468.056 55.9753C469.736 52.3153 471.716 46.2853 472.796 42.1453C473.096 40.9753 473.396 39.6553 473.696 38.3953C475.616 38.1853 477.536 37.8553 479.216 37.4653V32.9653ZM474.656 46.4653C474.416 47.5753 474.116 49.1953 474.116 50.6953C474.116 53.7253 476.726 55.6153 481.916 55.6153C484.406 55.6153 486.416 55.4053 488.126 55.1953L488.306 50.6053C486.026 50.9953 483.956 51.2353 481.946 51.2353C479.336 51.2353 478.556 50.4553 478.556 49.2253C478.556 48.6253 478.736 47.6353 478.946 46.8553L474.656 46.4653Z" fill="#ECEFFF"/>
<path d="M495.236 30.0553C495.206 30.9253 495.176 32.0353 495.026 32.9353C494.636 35.3353 494.126 39.9253 494.126 44.8153C494.126 48.4753 495.236 52.7653 495.926 54.5653L499.946 54.1753C499.916 53.6953 499.886 53.1253 499.886 52.7953C499.886 52.4953 499.976 51.7753 500.096 51.2953C500.486 49.4953 501.206 46.5253 502.166 43.6753L499.976 42.2653C499.526 43.1353 499.046 44.3653 498.656 45.0853C498.056 42.0853 499.136 35.9953 499.736 33.2653C499.886 32.6053 500.246 31.4053 500.546 30.5653L495.236 30.0553ZM519.206 35.1853C518.066 35.3653 516.596 35.5153 514.976 35.6353C514.976 34.1653 514.976 32.8153 515.006 32.2153C515.036 31.5553 515.066 30.7753 515.186 30.0253H509.996C510.146 30.5953 510.296 31.6153 510.356 32.2153C510.416 33.0253 510.476 34.4053 510.476 35.8753C509.396 35.9053 508.316 35.9353 507.326 35.9353C505.736 35.9353 504.536 35.8453 502.976 35.6353V40.1953C504.566 40.2553 506.216 40.3453 507.446 40.3453C508.436 40.3453 509.486 40.3453 510.536 40.3153V41.4553C510.536 46.0753 509.846 48.3253 508.106 50.4553C507.206 51.5053 505.556 52.5553 504.296 53.1253L508.436 56.3953C514.136 52.5853 514.976 48.5953 514.976 41.4853V40.1353C516.596 40.0453 518.066 39.9553 519.176 39.8653L519.206 35.1853Z" fill="#ECEFFF"/>
<path d="M543.986 38.4553L541.376 39.5353C542.336 40.9153 542.846 41.9053 543.656 43.6453L546.326 42.4753C545.786 41.3653 544.736 39.5653 543.986 38.4553ZM547.376 37.0153L544.796 38.1853C545.786 39.5353 546.356 40.4653 547.226 42.1753L549.866 40.9153C549.266 39.8353 548.156 38.0953 547.376 37.0153ZM523.676 33.0853L524.126 37.9753C527.696 37.1953 532.916 36.5953 535.466 36.3253C533.876 37.7653 531.716 40.9153 531.716 44.9953C531.716 51.3253 537.386 54.9253 544.016 55.4353L545.696 50.4253C540.566 50.1253 536.456 48.4153 536.456 44.0353C536.456 40.5253 539.216 37.0453 542.426 36.3253C544.076 35.9953 546.596 35.9953 548.126 35.9653L548.096 31.3453C545.936 31.4353 542.426 31.6153 539.456 31.8553C534.026 32.3353 529.526 32.6953 526.736 32.9353C526.166 32.9953 524.876 33.0553 523.676 33.0853Z" fill="#ECEFFF"/>
<path d="M580.256 37.3153C578.666 36.2053 574.826 34.1653 572.696 33.2353L570.386 36.8053C572.456 37.7053 575.936 39.7153 577.706 41.0953L580.256 37.3153ZM568.796 32.6953C567.806 32.9953 566.546 33.2953 565.166 33.5653C565.586 32.0653 565.916 30.7153 566.126 29.7853L561.206 29.3053C561.146 30.8353 560.876 32.5453 560.456 34.1653C559.676 34.2253 558.926 34.2553 558.146 34.2553C557.156 34.2553 555.386 34.1953 554.006 34.0453L554.336 38.1853C555.716 38.2753 556.916 38.3053 558.176 38.3053C558.476 38.3053 558.806 38.3053 559.136 38.2753C557.846 41.3653 555.566 45.5353 553.226 48.4453L557.576 50.6353C559.976 47.1853 562.496 42.0253 563.876 37.8553C565.886 37.5553 567.686 37.1653 568.916 36.8353L568.796 32.6953ZM569.036 49.2253C569.036 50.8753 568.496 51.9253 566.726 51.9253C565.466 51.9253 564.656 51.2653 564.656 50.3053C564.656 49.4653 565.556 48.8653 567.026 48.8653C567.716 48.8653 568.406 48.9553 569.036 49.0753V49.2253ZM568.556 39.0853C568.646 40.7653 568.766 43.1953 568.886 45.3253C568.376 45.2653 567.866 45.2353 567.326 45.2353C562.736 45.2353 560.396 47.7853 560.396 50.7553C560.396 54.2053 563.456 56.0353 567.386 56.0353C571.766 56.0353 573.326 53.9053 573.416 51.0553C574.886 52.0753 576.086 53.2153 577.016 54.0853L579.386 50.2153C577.916 48.8353 575.816 47.3353 573.236 46.3453C573.176 45.1153 573.116 43.9453 573.086 43.2553C573.056 41.7853 572.996 40.3753 573.086 39.0853H568.556Z" fill="#ECEFFF"/>
<path d="M599.906 29.0653C599.366 29.8753 598.286 30.9253 597.296 31.8853C595.286 33.8053 591.476 36.9553 589.106 38.8753C585.956 41.4553 585.776 43.2553 588.806 45.8653C591.506 48.1753 595.766 51.8353 597.416 53.5453C598.376 54.5353 599.366 55.5553 600.326 56.6353L604.526 52.7353C601.556 49.9153 595.706 45.3853 593.756 43.6753C592.316 42.4153 592.256 42.1453 593.726 40.8853C595.586 39.2653 599.306 36.4153 601.166 35.0053C601.976 34.3753 602.996 33.5953 604.106 32.7853L599.906 29.0653Z" fill="#ECEFFF"/>
<path d="M378.904 80.4153V78.6453H395.974V80.4153H389.554V79.1553H385.144V80.4153H378.904ZM400.804 93.7653V90.0153H389.404C389.464 89.5653 389.524 89.1153 389.524 88.6653H397.294V85.1853H389.554V83.8953H398.014V81.6753H400.504V74.8653H389.764V72.4653H385.264V74.8653H374.584V81.6753H377.344V83.8953H385.144V85.1853H377.824V88.6653H385.114C385.084 89.1153 385.054 89.5653 384.934 90.0153H374.464V93.7653H382.744C381.064 95.2353 378.274 96.4953 373.744 97.3953C374.704 98.2953 375.964 99.9753 376.444 100.905C382.144 99.4653 385.504 97.3653 387.394 94.8753C389.764 98.2653 393.154 100.155 398.704 100.995C399.244 99.8253 400.354 98.0853 401.254 97.1853C396.844 96.7953 393.724 95.6853 391.624 93.7653H400.804Z" fill="#ECEFFF"/>
<path d="M414.514 93.4053C413.884 95.1453 412.714 96.9753 411.454 98.2053C412.354 98.6553 413.944 99.6153 414.724 100.215C415.984 98.8053 417.424 96.5253 418.234 94.3953L414.514 93.4053ZM429.544 92.6853V89.2053H414.124V92.6853H419.824V96.9453C419.824 97.2453 419.704 97.3053 419.374 97.3053C419.044 97.3053 417.874 97.3053 416.974 97.2753C417.484 98.2653 418.084 99.8253 418.264 100.935C419.974 100.935 421.324 100.875 422.464 100.305C423.634 99.7353 423.904 98.7753 423.904 97.0353V92.6853H429.544ZM424.594 94.9053C425.884 96.4953 427.354 98.6853 427.954 100.095L431.464 98.2353C430.774 96.7953 429.184 94.7253 427.894 93.2253L424.594 94.9053ZM411.994 85.6653C411.784 85.0953 411.544 84.4953 411.214 83.8953C411.394 83.2653 411.574 82.5153 411.754 81.7053C412.204 82.1253 412.624 82.5153 412.894 82.8153C413.104 82.6353 413.314 82.4253 413.524 82.2453C414.004 82.6053 414.544 83.0253 414.904 83.4153C414.034 84.3153 413.044 85.0953 411.994 85.6653ZM408.214 91.8753V84.5853C409.144 86.5953 409.234 88.4553 409.234 89.8053C409.234 90.7353 409.144 91.3653 408.934 91.6053C408.784 91.7853 408.574 91.8753 408.364 91.8753H408.214ZM409.114 77.5653C408.844 79.3653 408.514 81.5553 408.214 83.2653V77.5653H409.114ZM418.354 77.4453C418.234 77.8653 418.084 78.2853 417.904 78.6753C417.544 78.4353 417.124 78.1953 416.704 77.9853L417.004 77.4453H418.354ZM416.374 81.5853C415.984 81.2253 415.474 80.8653 414.994 80.5653C415.174 80.3553 415.354 80.1153 415.504 79.8753C415.984 80.1753 416.464 80.5353 416.854 80.8353C416.704 81.0753 416.524 81.3153 416.374 81.5853ZM418.774 84.4053C420.064 82.6653 421.114 80.5653 421.864 78.1053C422.644 80.5053 423.664 82.6353 424.984 84.4053H418.774ZM426.964 77.4153C426.754 78.0453 426.484 78.6453 426.214 79.2153C425.914 78.6453 425.644 78.0453 425.374 77.4153H426.964ZM429.154 74.2053L428.464 74.3853H424.984V76.3353C424.624 75.2553 424.294 74.1153 424.054 72.9153L420.634 73.5453C420.724 73.9653 420.814 74.3853 420.934 74.8053L420.214 74.5653L419.584 74.6853H418.204C418.384 74.2053 418.534 73.7253 418.684 73.2153L415.414 72.5253C414.814 74.7453 413.824 76.7853 412.474 78.4653C412.744 77.2653 412.984 76.0653 413.194 75.0153L410.614 73.5753L410.074 73.6953H404.464V100.935H408.214V93.2853C408.364 94.0053 408.424 94.7553 408.424 95.3253C408.994 95.3253 409.504 95.2953 409.894 95.2353C410.524 95.1153 411.034 94.9353 411.484 94.5453C412.324 93.8553 412.714 92.5353 412.714 90.3753C412.714 89.1453 412.594 87.7653 412.174 86.2653C412.834 86.9553 413.554 87.9753 413.944 88.6953C414.994 88.0953 415.954 87.3753 416.854 86.5353V87.7953H426.604V86.2653C427.504 87.1353 428.524 87.9153 429.694 88.5453C430.264 87.5553 431.404 86.0553 432.244 85.3353C430.654 84.5853 429.334 83.5353 428.224 82.2453C429.544 80.4753 430.714 77.9253 431.494 75.5553L429.154 74.2053Z" fill="#ECEFFF"/>
<path d="M445.864 76.7253L445.894 81.3453C449.854 81.6753 455.044 81.6453 458.944 81.3453V76.6953C455.614 77.0553 449.734 77.2053 445.864 76.7253ZM444.814 89.3853C444.484 90.8253 444.274 92.1153 444.274 93.4653C444.274 96.6153 446.854 98.5653 452.044 98.5653C455.554 98.5653 457.924 98.3553 459.874 97.9953L459.784 93.1353C457.084 93.6753 454.954 93.9153 452.284 93.9153C449.854 93.9153 448.624 93.4353 448.624 92.1153C448.624 91.3353 448.714 90.6753 448.924 89.7453L444.814 89.3853ZM436.894 74.5053C436.864 75.6153 436.654 76.9653 436.534 77.8653C436.234 80.0553 435.364 85.0053 435.364 89.5653C435.364 93.5853 435.964 97.3353 436.564 99.3453L440.704 99.0753C440.674 98.5953 440.674 98.0553 440.674 97.7253C440.674 97.4553 440.764 96.7353 440.854 96.3153C441.184 94.6353 442.114 91.3653 443.014 88.6653L440.824 86.9553C440.434 87.7953 440.074 88.3953 439.684 89.2353C439.654 89.1153 439.654 88.6353 439.654 88.5453C439.654 85.7853 440.734 79.4853 441.064 77.9553C441.184 77.4153 441.634 75.5853 441.904 74.9253L436.894 74.5053Z" fill="#ECEFFF"/>
<path d="M473.074 94.7253H478.294C478.144 94.9653 477.994 95.1753 477.844 95.3853C476.254 95.5053 474.664 95.6253 473.074 95.7453V94.7253ZM467.644 88.2753V87.3753H469.144V88.2753H467.644ZM467.644 84.0153H469.144V84.9153H467.644V84.0153ZM474.544 84.0153V84.9153H473.074V84.0153H474.544ZM474.544 88.2753H473.074V87.3753H474.544V88.2753ZM485.224 79.0653C485.254 77.1453 485.254 75.1053 485.254 72.9753H481.084C481.084 75.1353 481.084 77.1753 481.084 79.0653H478.624V83.0553H480.994C480.784 87.8853 480.184 91.7253 478.294 94.7253V91.6953H473.074V90.9153H478.114V81.3753H473.074V80.6253H478.504V77.5353H473.074V76.4853C474.934 76.2753 476.704 76.0353 478.264 75.7053L476.434 72.4953C473.014 73.2153 467.944 73.7253 463.444 73.9353C463.834 74.7753 464.254 76.1253 464.374 76.9953C465.904 76.9653 467.524 76.9053 469.144 76.8153V77.5353H463.504V80.6253H469.144V81.3753H464.224V90.9153H469.144V91.6953H464.104V94.7253H469.144V96.0153C466.924 96.1653 464.914 96.2853 463.264 96.3753L463.744 99.9753C467.254 99.6753 471.934 99.2553 476.494 98.8053C477.244 99.5553 478.024 100.485 478.414 101.175C483.334 97.1853 484.684 91.1553 485.104 83.0553H486.934C486.784 92.0553 486.544 95.5653 485.974 96.3453C485.674 96.7653 485.404 96.8853 484.954 96.8853C484.354 96.8853 483.334 96.8853 482.134 96.7653C482.824 97.9353 483.304 99.7053 483.394 100.905C484.834 100.935 486.214 100.935 487.174 100.725C488.224 100.485 488.974 100.125 489.724 98.9853C490.684 97.5753 490.894 93.0753 491.134 80.9253C491.134 80.4153 491.164 79.0653 491.164 79.0653H485.224Z" fill="#ECEFFF"/>
<path d="M510.814 73.0653C510.274 73.8753 509.194 74.9253 508.204 75.8853C506.194 77.8053 502.384 80.9553 500.014 82.8753C496.864 85.4553 496.684 87.2553 499.714 89.8653C502.414 92.1753 506.674 95.8353 508.324 97.5453C509.284 98.5353 510.274 99.5553 511.234 100.635L515.434 96.7353C512.464 93.9153 506.614 89.3853 504.664 87.6753C503.224 86.4153 503.164 86.1453 504.634 84.8853C506.494 83.2653 510.214 80.4153 512.074 79.0053C512.884 78.3753 513.904 77.5953 515.014 76.7853L510.814 73.0653Z" fill="#ECEFFF"/>
<path d="M528.874 80.6853C531.334 80.8653 533.944 81.0153 537.124 81.0153C540.004 81.0153 543.934 80.8353 546.034 80.6553V75.8253C543.694 76.0653 540.064 76.2453 537.094 76.2453C533.884 76.2453 531.094 76.1253 528.874 75.8853V80.6853ZM527.374 88.3953C527.164 89.4753 526.804 90.9453 526.804 92.7753C526.804 97.0353 530.164 99.4953 537.394 99.4953C541.534 99.4953 544.984 99.1353 547.834 98.5053L547.804 93.4053C544.954 94.1253 541.174 94.5753 537.214 94.5753C533.194 94.5753 531.664 93.3153 531.664 91.6353C531.664 90.6753 531.874 89.8353 532.114 88.8153L527.374 88.3953Z" fill="#ECEFFF"/>
<path d="M574.684 76.6353C573.814 77.3553 572.854 77.9253 571.594 78.6453C570.304 79.3953 568.054 80.5653 565.864 81.8253C564.694 79.6053 563.374 76.9053 562.294 73.9053L557.764 75.7353C559.084 78.8553 560.464 81.8853 561.844 84.4353C559.114 86.5053 557.014 88.9353 557.014 92.3253C557.014 97.8153 561.724 99.4653 567.844 99.4653C571.804 99.4653 574.774 99.1653 577.474 98.7153L577.534 93.5253C574.714 94.1553 570.664 94.6653 567.724 94.6653C563.914 94.6653 562.024 93.7353 562.024 91.7853C562.024 89.8353 563.674 88.2453 565.984 86.7453C568.594 85.0653 572.074 83.4753 573.844 82.6053C575.044 82.0053 576.124 81.4353 577.174 80.8053L574.684 76.6353Z" fill="#ECEFFF"/>
<path d="M690.736 56.476H701.832V26H690.736V31.32H674.168V39.68H690.736V43.328C683.82 44.24 677.284 45.076 672.42 45.532L673.864 54.5C678.804 53.664 684.732 52.676 690.736 51.688V56.476ZM692.028 78.288V75.552H720.908V78.288H692.028ZM720.908 65.52V68.104H692.028V65.52H720.908ZM732.308 57.692H680.78V98.352H692.028V85.736H720.908V87.408C720.908 88.472 720.452 88.776 719.084 88.852C717.944 88.852 712.776 88.852 709.508 88.624C710.876 91.284 712.396 95.312 712.852 98.2C719.084 98.2 723.872 98.124 727.444 96.68C731.092 95.16 732.308 92.652 732.308 87.56V57.692ZM722.352 46.748C719.768 46.748 719.312 46.444 719.312 43.86V41.504C725.924 40.212 733.296 38.54 739.528 36.488L732.536 28.584C728.964 30.028 724.176 31.624 719.312 32.992V26H708.064V43.936C708.064 52.98 710.496 55.944 720.604 55.944H730.028C737.476 55.944 740.364 53.436 741.504 45C738.54 44.392 734.056 42.872 731.852 41.352C731.548 45.836 731.016 46.748 728.888 46.748H722.352Z" fill="#ECEFFF"/>
<path d="M788.244 64.152V49.94H802.912V64.152H788.244ZM761.948 64.152V49.94H776.54V64.152H761.948ZM788.244 39.072V26.076H776.54V39.072H750.852V78.972H761.948V75.02H776.54V98.276H788.244V75.02H802.912V78.592H814.54V39.072H788.244Z" fill="#ECEFFF"/>
<path d="M877.164 51.536L870.552 54.272C872.984 57.768 874.276 60.276 876.328 64.684L883.092 61.72C881.724 58.908 879.064 54.348 877.164 51.536ZM885.752 47.888L879.216 50.852C881.724 54.272 883.168 56.628 885.372 60.96L892.06 57.768C890.54 55.032 887.728 50.624 885.752 47.888ZM825.712 37.932L826.852 50.32C835.896 48.344 849.12 46.824 855.58 46.14C851.552 49.788 846.08 57.768 846.08 68.104C846.08 84.14 860.444 93.26 877.24 94.552L881.496 81.86C868.5 81.1 858.088 76.768 858.088 65.672C858.088 56.78 865.08 47.964 873.212 46.14C877.392 45.304 883.776 45.304 887.652 45.228L887.576 33.524C882.104 33.752 873.212 34.208 865.688 34.816C851.932 36.032 840.532 36.944 833.464 37.552C832.02 37.704 828.752 37.856 825.712 37.932Z" fill="#ECEFFF"/>
<path d="M924.588 28.28H902.624V36.488H924.588V28.28ZM927.248 38.996H898.444V47.584H927.248V38.996ZM924.436 50.168H902.168V58.376H924.436V50.168ZM902.168 69.168H924.436V60.96H902.168V69.168ZM915.772 80.492V86.952H911.06V80.492H915.772ZM925.12 71.904H901.864V98.276H911.06V95.54H925.12V71.904ZM955.216 78.82V85.888H942.22V78.82H955.216ZM931.884 98.276H942.22V95.692H955.216V97.972H966.008V69.016H931.884V98.276ZM954 50.548V56.4H946.02C946.4 54.576 946.704 52.6 947.084 50.548H954ZM964.564 56.4V41.276H948.528L949.136 37.248H968.136V27.9H929.452V37.248H938.42L937.888 41.276H930.668V50.548H936.444C936.14 52.6 935.76 54.576 935.38 56.4H926.412V65.976H970.948V56.4H964.564Z" fill="#ECEFFF"/>
<path d="M1009.56 85.28C1005.76 85.28 1003.25 83.608 1003.25 81.252C1003.25 79.732 1004.69 78.288 1007.12 78.288C1010.32 78.288 1012.6 80.948 1012.98 85.128C1011.91 85.204 1010.77 85.28 1009.56 85.28ZM1026.66 31.244C1025.67 31.548 1023.54 31.852 1019.97 32.156C1015.48 32.536 1000.44 32.764 996.408 32.764C993.9 32.764 991.088 32.612 988.732 32.308L989.112 44.088C990.936 43.784 993.596 43.556 995.876 43.404C999.904 43.1 1007.66 42.796 1011.46 42.72C1007.81 45.988 1000.82 51.384 996.636 54.88C992.152 58.528 983.412 65.976 978.548 69.776L986.832 78.364C994.052 69.548 1001.96 62.936 1012.98 62.936C1021.26 62.936 1027.87 66.964 1027.87 73.424C1027.87 77.072 1026.43 80.036 1023.46 82.088C1022.17 74.944 1016.24 69.624 1007.05 69.624C998.536 69.624 992.456 75.78 992.456 82.392C992.456 90.676 1001.27 95.616 1011.91 95.616C1031.37 95.616 1039.88 85.356 1039.88 73.576C1039.88 62.252 1029.7 53.968 1016.78 53.968C1014.95 53.968 1013.51 54.044 1011.53 54.424C1015.64 51.232 1022.25 45.836 1026.5 42.948C1028.4 41.656 1030.3 40.516 1032.28 39.3L1026.66 31.244Z" fill="#ECEFFF"/>
<path d="M1092.78 77.756V48.952H1107.67C1109.88 48.952 1112.69 49.104 1115.12 49.332V36.716C1112.76 37.02 1109.95 37.248 1107.67 37.248H1066.48C1064.12 37.248 1060.78 37.02 1058.8 36.716V49.332C1060.78 49.104 1064.12 48.952 1066.48 48.952H1079.86V77.756H1061.69C1059.26 77.756 1056.3 77.528 1053.79 77.072V90.372C1056.45 90.068 1059.34 89.992 1061.69 89.992H1111.78C1113.68 89.992 1117.1 90.068 1119.3 90.372V77.072C1117.32 77.376 1114.66 77.756 1111.78 77.756H1092.78Z" fill="#ECEFFF"/>
<path d="M1131.08 69.092C1134.2 68.864 1139.9 68.636 1144.23 68.636H1184.58C1187.7 68.636 1191.96 69.016 1193.93 69.092V54.576C1191.73 54.728 1188 55.108 1184.58 55.108H1144.23C1140.5 55.108 1134.12 54.804 1131.08 54.576V69.092Z" fill="#ECEFFF"/>
<path d="M1254.06 33.6C1252.31 34.208 1248.74 34.74 1244.94 34.74H1219.56C1217.35 34.74 1212.49 34.512 1209.83 34.132V47.204C1211.96 47.052 1216.14 46.596 1219.56 46.596H1243.19C1241.6 51.46 1237.49 58.148 1232.55 63.772C1225.79 71.296 1213.78 80.644 1201.47 85.128L1211.05 95.084C1221 90.296 1230.96 82.62 1238.94 74.336C1245.78 80.948 1252.24 88.244 1257.1 95.16L1267.67 85.964C1263.49 80.796 1254.37 71.144 1246.99 64.76C1251.93 57.92 1255.96 50.32 1258.47 44.696C1259.31 42.796 1260.9 40.136 1261.59 39.148L1254.06 33.6Z" fill="#ECEFFF"/>
<path d="M1306.5 37.02L1306.58 48.724C1316.61 49.56 1329.76 49.484 1339.64 48.724V36.944C1331.2 37.856 1316.31 38.236 1306.5 37.02ZM1303.84 69.092C1303.01 72.74 1302.47 76.008 1302.47 79.428C1302.47 87.408 1309.01 92.348 1322.16 92.348C1331.05 92.348 1337.05 91.816 1341.99 90.904L1341.77 78.592C1334.93 79.96 1329.53 80.568 1322.77 80.568C1316.61 80.568 1313.49 79.352 1313.49 76.008C1313.49 74.032 1313.72 72.36 1314.25 70.004L1303.84 69.092ZM1283.78 31.396C1283.7 34.208 1283.17 37.628 1282.87 39.908C1282.11 45.456 1279.9 57.996 1279.9 69.548C1279.9 79.732 1281.42 89.232 1282.94 94.324L1293.43 93.64C1293.35 92.424 1293.35 91.056 1293.35 90.22C1293.35 89.536 1293.58 87.712 1293.81 86.648C1294.65 82.392 1297 74.108 1299.28 67.268L1293.73 62.936C1292.75 65.064 1291.83 66.584 1290.85 68.712C1290.77 68.408 1290.77 67.192 1290.77 66.964C1290.77 59.972 1293.51 44.012 1294.34 40.136C1294.65 38.768 1295.79 34.132 1296.47 32.46L1283.78 31.396Z" fill="#ECEFFF"/>
<path d="M1421.26 48.648C1417.23 45.836 1407.51 40.668 1402.11 38.312L1396.26 47.356C1401.5 49.636 1410.32 54.728 1414.8 58.224L1421.26 48.648ZM1392.23 36.944C1389.72 37.704 1386.53 38.464 1383.03 39.148C1384.1 35.348 1384.93 31.928 1385.47 29.572L1373 28.356C1372.85 32.232 1372.17 36.564 1371.1 40.668C1369.13 40.82 1367.23 40.896 1365.25 40.896C1362.74 40.896 1358.26 40.744 1354.76 40.364L1355.6 50.852C1359.09 51.08 1362.13 51.156 1365.33 51.156C1366.09 51.156 1366.92 51.156 1367.76 51.08C1364.49 58.908 1358.71 69.472 1352.79 76.844L1363.81 82.392C1369.89 73.652 1376.27 60.58 1379.77 50.016C1384.86 49.256 1389.42 48.268 1392.53 47.432L1392.23 36.944ZM1392.84 78.82C1392.84 83 1391.47 85.66 1386.99 85.66C1383.79 85.66 1381.74 83.988 1381.74 81.556C1381.74 79.428 1384.02 77.908 1387.75 77.908C1389.49 77.908 1391.24 78.136 1392.84 78.44V78.82ZM1391.62 53.132C1391.85 57.388 1392.15 63.544 1392.46 68.94C1391.17 68.788 1389.87 68.712 1388.51 68.712C1376.88 68.712 1370.95 75.172 1370.95 82.696C1370.95 91.436 1378.7 96.072 1388.66 96.072C1399.75 96.072 1403.71 90.676 1403.93 83.456C1407.66 86.04 1410.7 88.928 1413.05 91.132L1419.06 81.328C1415.33 77.832 1410.01 74.032 1403.48 71.524C1403.33 68.408 1403.17 65.444 1403.1 63.696C1403.02 59.972 1402.87 56.4 1403.1 53.132H1391.62Z" fill="#ECEFFF"/>
<path d="M1440.87 29.116C1440.87 31.396 1440.64 34.816 1440.26 37.78C1439.05 46.52 1438.29 54.804 1438.29 61.796C1438.29 66.888 1438.82 71.752 1439.27 74.64L1450.52 73.88C1450.14 70.612 1450.07 68.256 1450.07 66.66C1450.07 56.78 1457.36 43.556 1465.95 43.556C1471.27 43.556 1475.07 48.876 1475.07 60.276C1475.07 78.136 1463.9 83 1446.95 85.66L1453.87 96.224C1474.54 92.424 1487.53 81.784 1487.53 60.276C1487.53 43.252 1478.87 32.916 1468.08 32.916C1460.25 32.916 1454.4 37.552 1450.52 42.264C1450.98 38.692 1452.5 32.308 1453.26 29.648L1440.87 29.116Z" fill="#ECEFFF"/>
<path d="M1541.04 63.468C1545.83 62.86 1550.46 62.632 1555.93 62.632C1560.57 62.632 1565.28 63.164 1569.01 63.62L1569.23 52.676C1564.67 52.22 1560.11 51.992 1555.93 51.992C1550.99 51.992 1545.37 52.372 1541.04 52.828V63.468ZM1547.57 36.868C1543.77 37.78 1539.9 38.54 1536.02 39.148L1536.33 37.856C1536.71 36.108 1537.47 32.46 1538.07 30.104L1524.17 29.04C1524.39 30.94 1524.32 34.284 1523.94 37.476C1523.86 38.388 1523.71 39.376 1523.48 40.516C1521.51 40.592 1519.45 40.668 1517.48 40.668C1514.21 40.668 1511.85 40.516 1507.75 40.06L1508.05 51.384C1510.64 51.536 1513.53 51.688 1517.4 51.688C1518.62 51.688 1519.91 51.688 1521.2 51.612C1520.82 53.36 1520.29 55.184 1519.83 56.932C1517.02 67.42 1511.09 83.456 1506.61 90.904L1519.3 95.16C1523.56 85.888 1528.57 70.612 1531.31 60.124C1532.07 57.16 1532.83 53.816 1533.59 50.624C1538.45 50.092 1543.32 49.256 1547.57 48.268V36.868ZM1536.02 71.068C1535.41 73.88 1534.65 77.984 1534.65 81.784C1534.65 89.46 1541.27 94.248 1554.41 94.248C1560.72 94.248 1565.81 93.716 1570.15 93.184L1570.6 81.556C1564.83 82.544 1559.58 83.152 1554.49 83.152C1547.88 83.152 1545.9 81.176 1545.9 78.06C1545.9 76.54 1546.36 74.032 1546.89 72.056L1536.02 71.068Z" fill="#ECEFFF"/>
<path d="M1598.19 36.184L1584.21 36.032C1584.74 38.692 1584.89 41.884 1584.89 44.164C1584.89 48.952 1584.97 57.54 1585.73 64.684C1587.85 85.28 1595.23 92.88 1604.12 92.88C1610.73 92.88 1615.52 88.168 1620.76 74.868L1611.57 63.62C1610.5 68.712 1607.84 78.136 1604.35 78.136C1600.01 78.136 1598.49 71.22 1597.58 61.34C1597.13 56.324 1597.13 51.384 1597.13 46.444C1597.13 44.24 1597.58 39.376 1598.19 36.184ZM1634.97 37.628L1623.35 41.428C1632.16 51.004 1635.81 70.232 1636.87 81.556L1648.96 76.92C1648.35 66.052 1642.35 46.292 1634.97 37.628Z" fill="#ECEFFF"/>
</svg>
