<svg width="1280" height="564" viewBox="0 0 1280 564" fill="none" xmlns="http://www.w3.org/2000/svg">
<path d="M96.2625 560.886H108.166V557.91H104.302C103.486 557.91 102.31 558.006 101.422 558.102C104.662 554.934 107.326 551.478 107.326 548.262C107.326 544.95 105.094 542.79 101.734 542.79C99.3105 542.79 97.7265 543.75 96.0945 545.478L98.0145 547.398C98.9025 546.414 99.9825 545.574 101.278 545.574C102.958 545.574 103.942 546.654 103.942 548.454C103.942 551.19 101.086 554.526 96.2625 558.846V560.886Z" fill="#1D1D1E"/>
<path d="M116.443 561.222C120.043 561.222 122.443 558.054 122.443 551.934C122.443 545.814 120.043 542.79 116.443 542.79C112.819 542.79 110.419 545.79 110.419 551.934C110.419 558.054 112.819 561.222 116.443 561.222ZM116.443 558.462C114.907 558.462 113.755 556.926 113.755 551.934C113.755 546.966 114.907 545.526 116.443 545.526C117.955 545.526 119.107 546.966 119.107 551.934C119.107 556.926 117.955 558.462 116.443 558.462Z" fill="#1D1D1E"/>
<path d="M125.464 560.886H136.144V558.03H132.808V543.126H130.192C129.064 543.822 127.84 544.278 126.064 544.614V546.798H129.28V558.03H125.464V560.886Z" fill="#1D1D1E"/>
<path d="M144.205 561.222C147.589 561.222 150.445 559.326 150.445 556.062C150.445 553.734 148.909 552.246 146.893 551.694V551.574C148.789 550.83 149.869 549.438 149.869 547.518C149.869 544.47 147.541 542.79 144.109 542.79C142.021 542.79 140.317 543.63 138.781 544.974L140.581 547.134C141.637 546.174 142.669 545.574 143.941 545.55C145.453 545.574 146.317 546.39 146.317 547.782C146.317 549.366 145.261 550.494 141.997 550.494V553.038C145.861 553.038 146.893 554.118 146.893 555.87C146.893 557.454 145.669 558.342 143.869 558.342C142.261 558.342 140.965 557.55 139.909 556.518L138.253 558.75C139.501 560.166 141.397 561.222 144.205 561.222Z" fill="#1D1D1E"/>
<path d="M159.442 555.126V551.478H163.594V555.126H159.442ZM174.754 555.126H166.546V551.478H172.882V548.838H166.546V545.958H173.434V543.198H159.874C160.186 542.55 160.45 541.902 160.666 541.23L157.762 540.486C156.73 543.582 154.882 546.654 152.722 548.478C153.418 548.886 154.642 549.846 155.194 550.326C156.322 549.198 157.474 547.662 158.458 545.958H163.594V548.838H156.586V555.126H152.794V557.862H163.594V562.998H166.546V557.862H174.754V555.126Z" fill="#1D1D1E"/>
<path d="M194.149 558.558C192.661 558.558 191.461 557.31 191.125 554.07C192.013 552.702 193.069 552.198 194.029 552.198C195.565 552.198 196.549 553.182 196.549 555.294C196.549 557.454 195.469 558.558 194.149 558.558ZM199.525 544.806C198.445 543.702 196.861 542.79 194.701 542.79C191.125 542.79 187.837 545.622 187.837 552.246C187.837 558.51 190.837 561.222 194.221 561.222C197.245 561.222 199.789 558.942 199.789 555.294C199.789 551.478 197.677 549.702 194.701 549.702C193.549 549.702 192.013 550.422 191.053 551.598C191.197 547.158 192.877 545.622 194.917 545.622C195.949 545.622 197.029 546.198 197.653 546.918L199.525 544.806Z" fill="#1D1D1E"/>
<path d="M206.29 553.158H209.266V554.79H206.29V553.158ZM209.266 545.886V547.278H206.29V545.886H209.266ZM206.29 549.462H209.266V550.974H206.29V549.462ZM213.346 554.79H211.882V545.886H213.514V543.39H211.882V540.846H209.266V543.39H206.29V540.846H203.722V543.39H201.85V545.886H203.722V554.79H201.562V557.286H213.346V554.79ZM204.538 557.454C203.866 558.894 202.618 560.406 201.37 561.342C202.018 561.726 203.122 562.542 203.65 563.046C204.946 561.87 206.362 559.998 207.202 558.246L204.538 557.454ZM216.97 552.486C216.994 551.742 216.994 551.046 216.994 550.422V549.534H220.45V552.486H216.97ZM220.45 544.206V547.014H216.994V544.206H220.45ZM223.21 541.614H214.33V550.422C214.33 553.542 214.21 557.598 212.818 560.598C212.218 559.614 211.09 558.294 210.226 557.334L208.066 558.51C209.002 559.614 210.154 561.198 210.634 562.134L212.626 561.006C212.554 561.15 212.458 561.27 212.386 561.414C213.01 561.654 214.186 562.518 214.642 563.022C215.938 560.862 216.538 557.862 216.802 555.03H220.45V559.758C220.45 560.142 220.33 560.262 219.97 560.262C219.634 560.262 218.482 560.286 217.45 560.214C217.81 560.934 218.17 562.182 218.266 562.926C220.042 562.95 221.266 562.878 222.106 562.422C222.946 561.966 223.21 561.222 223.21 559.806V541.614Z" fill="#1D1D1E"/>
<path d="M336.262 560.886H348.166V557.91H344.302C343.486 557.91 342.31 558.006 341.422 558.102C344.662 554.934 347.326 551.478 347.326 548.262C347.326 544.95 345.094 542.79 341.734 542.79C339.31 542.79 337.726 543.75 336.094 545.478L338.014 547.398C338.902 546.414 339.982 545.574 341.278 545.574C342.958 545.574 343.942 546.654 343.942 548.454C343.942 551.19 341.086 554.526 336.262 558.846V560.886Z" fill="#1D1D1E"/>
<path d="M356.443 561.222C360.043 561.222 362.443 558.054 362.443 551.934C362.443 545.814 360.043 542.79 356.443 542.79C352.819 542.79 350.419 545.79 350.419 551.934C350.419 558.054 352.819 561.222 356.443 561.222ZM356.443 558.462C354.907 558.462 353.755 556.926 353.755 551.934C353.755 546.966 354.907 545.526 356.443 545.526C357.955 545.526 359.107 546.966 359.107 551.934C359.107 556.926 357.955 558.462 356.443 558.462Z" fill="#1D1D1E"/>
<path d="M365.464 560.886H376.144V558.03H372.808V543.126H370.192C369.064 543.822 367.84 544.278 366.064 544.614V546.798H369.28V558.03H365.464V560.886Z" fill="#1D1D1E"/>
<path d="M381.565 553.59L384.325 549.174C384.829 548.214 385.309 547.23 385.741 546.294H385.837C385.789 547.326 385.693 548.934 385.693 549.966V553.59H381.565ZM391.093 553.59H388.981V543.126H384.757L378.133 553.878V556.278H385.693V560.886H388.981V556.278H391.093V553.59Z" fill="#1D1D1E"/>
<path d="M399.442 555.126V551.478H403.594V555.126H399.442ZM414.754 555.126H406.546V551.478H412.882V548.838H406.546V545.958H413.434V543.198H399.874C400.186 542.55 400.45 541.902 400.666 541.23L397.762 540.486C396.73 543.582 394.882 546.654 392.722 548.478C393.418 548.886 394.642 549.846 395.194 550.326C396.322 549.198 397.474 547.662 398.458 545.958H403.594V548.838H396.586V555.126H392.794V557.862H403.594V562.998H406.546V557.862H414.754V555.126Z" fill="#1D1D1E"/>
<path d="M431.101 560.886H434.677C434.965 553.926 435.517 550.302 439.645 545.262V543.126H427.837V546.078H435.829C432.445 550.782 431.413 554.718 431.101 560.886Z" fill="#1D1D1E"/>
<path d="M446.29 553.158H449.266V554.79H446.29V553.158ZM449.266 545.886V547.278H446.29V545.886H449.266ZM446.29 549.462H449.266V550.974H446.29V549.462ZM453.346 554.79H451.882V545.886H453.514V543.39H451.882V540.846H449.266V543.39H446.29V540.846H443.722V543.39H441.85V545.886H443.722V554.79H441.562V557.286H453.346V554.79ZM444.538 557.454C443.866 558.894 442.618 560.406 441.37 561.342C442.018 561.726 443.122 562.542 443.65 563.046C444.946 561.87 446.362 559.998 447.202 558.246L444.538 557.454ZM456.97 552.486C456.994 551.742 456.994 551.046 456.994 550.422V549.534H460.45V552.486H456.97ZM460.45 544.206V547.014H456.994V544.206H460.45ZM463.21 541.614H454.33V550.422C454.33 553.542 454.21 557.598 452.818 560.598C452.218 559.614 451.09 558.294 450.226 557.334L448.066 558.51C449.002 559.614 450.154 561.198 450.634 562.134L452.626 561.006C452.554 561.15 452.458 561.27 452.386 561.414C453.01 561.654 454.186 562.518 454.642 563.022C455.938 560.862 456.538 557.862 456.802 555.03H460.45V559.758C460.45 560.142 460.33 560.262 459.97 560.262C459.634 560.262 458.482 560.286 457.45 560.214C457.81 560.934 458.17 562.182 458.266 562.926C460.042 562.95 461.266 562.878 462.106 562.422C462.946 561.966 463.21 561.222 463.21 559.806V541.614Z" fill="#1D1D1E"/>
<path d="M576.262 560.886H588.166V557.91H584.302C583.486 557.91 582.31 558.006 581.422 558.102C584.662 554.934 587.326 551.478 587.326 548.262C587.326 544.95 585.094 542.79 581.734 542.79C579.31 542.79 577.726 543.75 576.094 545.478L578.014 547.398C578.902 546.414 579.982 545.574 581.278 545.574C582.958 545.574 583.942 546.654 583.942 548.454C583.942 551.19 581.086 554.526 576.262 558.846V560.886Z" fill="#1D1D1E"/>
<path d="M596.443 561.222C600.043 561.222 602.443 558.054 602.443 551.934C602.443 545.814 600.043 542.79 596.443 542.79C592.819 542.79 590.419 545.79 590.419 551.934C590.419 558.054 592.819 561.222 596.443 561.222ZM596.443 558.462C594.907 558.462 593.755 556.926 593.755 551.934C593.755 546.966 594.907 545.526 596.443 545.526C597.955 545.526 599.107 546.966 599.107 551.934C599.107 556.926 597.955 558.462 596.443 558.462Z" fill="#1D1D1E"/>
<path d="M605.464 560.886H616.144V558.03H612.808V543.126H610.192C609.064 543.822 607.84 544.278 606.064 544.614V546.798H609.28V558.03H605.464V560.886Z" fill="#1D1D1E"/>
<path d="M624.253 561.222C627.541 561.222 630.469 558.942 630.469 554.982C630.469 551.118 627.973 549.342 624.997 549.342C624.181 549.342 623.557 549.51 622.861 549.846L623.197 546.078H629.653V543.126H620.149L619.669 551.742L621.277 552.798C622.309 552.126 622.885 551.862 623.941 551.862C625.741 551.862 626.941 553.014 626.941 555.078C626.941 557.166 625.645 558.342 623.797 558.342C622.141 558.342 620.893 557.526 619.885 556.542L618.253 558.798C619.573 560.118 621.445 561.222 624.253 561.222Z" fill="#1D1D1E"/>
<path d="M639.442 555.126V551.478H643.594V555.126H639.442ZM654.754 555.126H646.546V551.478H652.882V548.838H646.546V545.958H653.434V543.198H639.874C640.186 542.55 640.45 541.902 640.666 541.23L637.762 540.486C636.73 543.582 634.882 546.654 632.722 548.478C633.418 548.886 634.642 549.846 635.194 550.326C636.322 549.198 637.474 547.662 638.458 545.958H643.594V548.838H636.586V555.126H632.794V557.862H643.594V562.998H646.546V557.862H654.754V555.126Z" fill="#1D1D1E"/>
<path d="M673.693 561.222C677.293 561.222 679.669 559.158 679.669 556.47C679.669 554.046 678.325 552.606 676.693 551.718V551.598C677.869 550.758 678.973 549.294 678.973 547.542C678.973 544.71 676.957 542.814 673.813 542.814C670.717 542.814 668.461 544.638 668.461 547.494C668.461 549.39 669.445 550.734 670.813 551.718V551.838C669.157 552.726 667.765 554.19 667.765 556.47C667.765 559.254 670.309 561.222 673.693 561.222ZM674.821 550.734C672.949 549.99 671.581 549.174 671.581 547.494C671.581 546.078 672.541 545.286 673.741 545.286C675.229 545.286 676.093 546.318 676.093 547.758C676.093 548.814 675.685 549.822 674.821 550.734ZM673.789 558.726C672.133 558.726 670.813 557.694 670.813 556.086C670.813 554.766 671.485 553.566 672.445 552.798C674.749 553.734 676.381 554.502 676.381 556.35C676.381 557.886 675.277 558.726 673.789 558.726Z" fill="#1D1D1E"/>
<path d="M686.29 553.158H689.266V554.79H686.29V553.158ZM689.266 545.886V547.278H686.29V545.886H689.266ZM686.29 549.462H689.266V550.974H686.29V549.462ZM693.346 554.79H691.882V545.886H693.514V543.39H691.882V540.846H689.266V543.39H686.29V540.846H683.722V543.39H681.85V545.886H683.722V554.79H681.562V557.286H693.346V554.79ZM684.538 557.454C683.866 558.894 682.618 560.406 681.37 561.342C682.018 561.726 683.122 562.542 683.65 563.046C684.946 561.87 686.362 559.998 687.202 558.246L684.538 557.454ZM696.97 552.486C696.994 551.742 696.994 551.046 696.994 550.422V549.534H700.45V552.486H696.97ZM700.45 544.206V547.014H696.994V544.206H700.45ZM703.21 541.614H694.33V550.422C694.33 553.542 694.21 557.598 692.818 560.598C692.218 559.614 691.09 558.294 690.226 557.334L688.066 558.51C689.002 559.614 690.154 561.198 690.634 562.134L692.626 561.006C692.554 561.15 692.458 561.27 692.386 561.414C693.01 561.654 694.186 562.518 694.642 563.022C695.938 560.862 696.538 557.862 696.802 555.03H700.45V559.758C700.45 560.142 700.33 560.262 699.97 560.262C699.634 560.262 698.482 560.286 697.45 560.214C697.81 560.934 698.17 562.182 698.266 562.926C700.042 562.95 701.266 562.878 702.106 562.422C702.946 561.966 703.21 561.222 703.21 559.806V541.614Z" fill="#1D1D1E"/>
<path d="M816.262 560.886H828.166V557.91H824.302C823.486 557.91 822.31 558.006 821.422 558.102C824.662 554.934 827.326 551.478 827.326 548.262C827.326 544.95 825.094 542.79 821.734 542.79C819.31 542.79 817.726 543.75 816.094 545.478L818.014 547.398C818.902 546.414 819.982 545.574 821.278 545.574C822.958 545.574 823.942 546.654 823.942 548.454C823.942 551.19 821.086 554.526 816.262 558.846V560.886Z" fill="#1D1D1E"/>
<path d="M836.443 561.222C840.043 561.222 842.443 558.054 842.443 551.934C842.443 545.814 840.043 542.79 836.443 542.79C832.819 542.79 830.419 545.79 830.419 551.934C830.419 558.054 832.819 561.222 836.443 561.222ZM836.443 558.462C834.907 558.462 833.755 556.926 833.755 551.934C833.755 546.966 834.907 545.526 836.443 545.526C837.955 545.526 839.107 546.966 839.107 551.934C839.107 556.926 837.955 558.462 836.443 558.462Z" fill="#1D1D1E"/>
<path d="M845.464 560.886H856.144V558.03H852.808V543.126H850.192C849.064 543.822 847.84 544.278 846.064 544.614V546.798H849.28V558.03H845.464V560.886Z" fill="#1D1D1E"/>
<path d="M865.141 558.558C863.653 558.558 862.453 557.31 862.117 554.07C863.005 552.702 864.061 552.198 865.021 552.198C866.557 552.198 867.541 553.182 867.541 555.294C867.541 557.454 866.461 558.558 865.141 558.558ZM870.517 544.806C869.437 543.702 867.853 542.79 865.693 542.79C862.117 542.79 858.829 545.622 858.829 552.246C858.829 558.51 861.829 561.222 865.213 561.222C868.237 561.222 870.781 558.942 870.781 555.294C870.781 551.478 868.669 549.702 865.693 549.702C864.541 549.702 863.005 550.422 862.045 551.598C862.189 547.158 863.869 545.622 865.909 545.622C866.941 545.622 868.021 546.198 868.645 546.918L870.517 544.806Z" fill="#1D1D1E"/>
<path d="M879.442 555.126V551.478H883.594V555.126H879.442ZM894.754 555.126H886.546V551.478H892.882V548.838H886.546V545.958H893.434V543.198H879.874C880.186 542.55 880.45 541.902 880.666 541.23L877.762 540.486C876.73 543.582 874.882 546.654 872.722 548.478C873.418 548.886 874.642 549.846 875.194 550.326C876.322 549.198 877.474 547.662 878.458 545.958H883.594V548.838H876.586V555.126H872.794V557.862H883.594V562.998H886.546V557.862H894.754V555.126Z" fill="#1D1D1E"/>
<path d="M913.357 551.79C911.821 551.79 910.837 550.806 910.837 548.718C910.837 546.534 911.917 545.454 913.237 545.454C914.749 545.454 915.973 546.654 916.285 549.894C915.421 551.262 914.317 551.79 913.357 551.79ZM907.885 559.206C908.941 560.286 910.549 561.222 912.757 561.222C916.285 561.222 919.573 558.318 919.573 551.598C919.573 545.43 916.549 542.79 913.189 542.79C910.141 542.79 907.597 545.07 907.597 548.718C907.597 552.486 909.733 554.31 912.685 554.31C913.909 554.31 915.421 553.566 916.333 552.366C916.189 556.83 914.533 558.342 912.541 558.342C911.485 558.342 910.381 557.79 909.733 557.094L907.885 559.206Z" fill="#1D1D1E"/>
<path d="M926.29 553.158H929.266V554.79H926.29V553.158ZM929.266 545.886V547.278H926.29V545.886H929.266ZM926.29 549.462H929.266V550.974H926.29V549.462ZM933.346 554.79H931.882V545.886H933.514V543.39H931.882V540.846H929.266V543.39H926.29V540.846H923.722V543.39H921.85V545.886H923.722V554.79H921.562V557.286H933.346V554.79ZM924.538 557.454C923.866 558.894 922.618 560.406 921.37 561.342C922.018 561.726 923.122 562.542 923.65 563.046C924.946 561.87 926.362 559.998 927.202 558.246L924.538 557.454ZM936.97 552.486C936.994 551.742 936.994 551.046 936.994 550.422V549.534H940.45V552.486H936.97ZM940.45 544.206V547.014H936.994V544.206H940.45ZM943.21 541.614H934.33V550.422C934.33 553.542 934.21 557.598 932.818 560.598C932.218 559.614 931.09 558.294 930.226 557.334L928.066 558.51C929.002 559.614 930.154 561.198 930.634 562.134L932.626 561.006C932.554 561.15 932.458 561.27 932.386 561.414C933.01 561.654 934.186 562.518 934.642 563.022C935.938 560.862 936.538 557.862 936.802 555.03H940.45V559.758C940.45 560.142 940.33 560.262 939.97 560.262C939.634 560.262 938.482 560.286 937.45 560.214C937.81 560.934 938.17 562.182 938.266 562.926C940.042 562.95 941.266 562.878 942.106 562.422C942.946 561.966 943.21 561.222 943.21 559.806V541.614Z" fill="#1D1D1E"/>
<path d="M1049.2 560.886H1061.1V557.91H1057.24C1056.42 557.91 1055.24 558.006 1054.36 558.102C1057.6 554.934 1060.26 551.478 1060.26 548.262C1060.26 544.95 1058.03 542.79 1054.67 542.79C1052.24 542.79 1050.66 543.75 1049.03 545.478L1050.95 547.398C1051.84 546.414 1052.92 545.574 1054.21 545.574C1055.89 545.574 1056.88 546.654 1056.88 548.454C1056.88 551.19 1054.02 554.526 1049.2 558.846V560.886Z" fill="#1D1D1E"/>
<path d="M1069.38 561.222C1072.98 561.222 1075.38 558.054 1075.38 551.934C1075.38 545.814 1072.98 542.79 1069.38 542.79C1065.75 542.79 1063.35 545.79 1063.35 551.934C1063.35 558.054 1065.75 561.222 1069.38 561.222ZM1069.38 558.462C1067.84 558.462 1066.69 556.926 1066.69 551.934C1066.69 546.966 1067.84 545.526 1069.38 545.526C1070.89 545.526 1072.04 546.966 1072.04 551.934C1072.04 556.926 1070.89 558.462 1069.38 558.462Z" fill="#1D1D1E"/>
<path d="M1078.4 560.886H1089.08V558.03H1085.74V543.126H1083.13C1082 543.822 1080.77 544.278 1079 544.614V546.798H1082.21V558.03H1078.4V560.886Z" fill="#1D1D1E"/>
<path d="M1095.03 560.886H1098.6C1098.89 553.926 1099.44 550.302 1103.57 545.262V543.126H1091.76V546.078H1099.75C1096.37 550.782 1095.34 554.718 1095.03 560.886Z" fill="#1D1D1E"/>
<path d="M1112.38 555.126V551.478H1116.53V555.126H1112.38ZM1127.69 555.126H1119.48V551.478H1125.82V548.838H1119.48V545.958H1126.37V543.198H1112.81C1113.12 542.55 1113.38 541.902 1113.6 541.23L1110.7 540.486C1109.66 543.582 1107.82 546.654 1105.66 548.478C1106.35 548.886 1107.58 549.846 1108.13 550.326C1109.26 549.198 1110.41 547.662 1111.39 545.958H1116.53V548.838H1109.52V555.126H1105.73V557.862H1116.53V562.998H1119.48V557.862H1127.69V555.126Z" fill="#1D1D1E"/>
<path d="M1141.54 560.886H1152.22V558.03H1148.88V543.126H1146.27C1145.14 543.822 1143.91 544.278 1142.14 544.614V546.798H1145.35V558.03H1141.54V560.886Z" fill="#1D1D1E"/>
<path d="M1160.78 561.222C1164.38 561.222 1166.78 558.054 1166.78 551.934C1166.78 545.814 1164.38 542.79 1160.78 542.79C1157.16 542.79 1154.76 545.79 1154.76 551.934C1154.76 558.054 1157.16 561.222 1160.78 561.222ZM1160.78 558.462C1159.25 558.462 1158.1 556.926 1158.1 551.934C1158.1 546.966 1159.25 545.526 1160.78 545.526C1162.3 545.526 1163.45 546.966 1163.45 551.934C1163.45 556.926 1162.3 558.462 1160.78 558.462Z" fill="#1D1D1E"/>
<path d="M1173.36 553.158H1176.33V554.79H1173.36V553.158ZM1176.33 545.886V547.278H1173.36V545.886H1176.33ZM1173.36 549.462H1176.33V550.974H1173.36V549.462ZM1180.41 554.79H1178.95V545.886H1180.58V543.39H1178.95V540.846H1176.33V543.39H1173.36V540.846H1170.79V543.39H1168.92V545.886H1170.79V554.79H1168.63V557.286H1180.41V554.79ZM1171.6 557.454C1170.93 558.894 1169.68 560.406 1168.44 561.342C1169.08 561.726 1170.19 562.542 1170.72 563.046C1172.01 561.87 1173.43 559.998 1174.27 558.246L1171.6 557.454ZM1184.04 552.486C1184.06 551.742 1184.06 551.046 1184.06 550.422V549.534H1187.52V552.486H1184.04ZM1187.52 544.206V547.014H1184.06V544.206H1187.52ZM1190.28 541.614H1181.4V550.422C1181.4 553.542 1181.28 557.598 1179.88 560.598C1179.28 559.614 1178.16 558.294 1177.29 557.334L1175.13 558.51C1176.07 559.614 1177.22 561.198 1177.7 562.134L1179.69 561.006C1179.62 561.15 1179.52 561.27 1179.45 561.414C1180.08 561.654 1181.25 562.518 1181.71 563.022C1183 560.862 1183.6 557.862 1183.87 555.03H1187.52V559.758C1187.52 560.142 1187.4 560.262 1187.04 560.262C1186.7 560.262 1185.55 560.286 1184.52 560.214C1184.88 560.934 1185.24 562.182 1185.33 562.926C1187.11 562.95 1188.33 562.878 1189.17 562.422C1190.01 561.966 1190.28 561.222 1190.28 559.806V541.614Z" fill="#1D1D1E"/>
<path fill-rule="evenodd" clip-rule="evenodd" d="M1280 521H0V519H1280V521Z" fill="black"/>
<path d="M80 339H240V521H80V339Z" fill="#001377"/>
<path d="M124.908 410.84L129.508 403.48C130.348 401.88 131.148 400.24 131.868 398.68H132.028C131.948 400.4 131.788 403.08 131.788 404.8V410.84H124.908ZM140.788 410.84H137.268V393.4H130.228L119.188 411.32V415.32H131.788V423H137.268V415.32H140.788V410.84Z" fill="white"/>
<path d="M148.383 423.56C150.503 423.56 152.063 421.88 152.063 419.72C152.063 417.56 150.503 415.88 148.383 415.88C146.303 415.88 144.743 417.56 144.743 419.72C144.743 421.88 146.303 423.56 148.383 423.56Z" fill="white"/>
<path d="M165.951 423.56C171.431 423.56 176.311 419.76 176.311 413.16C176.311 406.72 172.151 403.76 167.191 403.76C165.831 403.76 164.791 404.04 163.631 404.6L164.191 398.32H174.951V393.4H159.111L158.311 407.76L160.991 409.52C162.711 408.4 163.671 407.96 165.431 407.96C168.431 407.96 170.431 409.88 170.431 413.32C170.431 416.8 168.271 418.76 165.191 418.76C162.431 418.76 160.351 417.4 158.671 415.76L155.951 419.52C158.151 421.72 161.271 423.56 165.951 423.56Z" fill="white"/>
<path d="M187.081 415.992H184.573L184.945 415.896C184.861 415.56 184.621 415.044 184.369 414.684L183.613 414.852C183.829 415.2 184.033 415.656 184.141 415.992H181.993V416.724H189.973V415.992H187.705C187.921 415.656 188.161 415.212 188.377 414.792L187.921 414.672H189.565V413.976H186.373V413.04H185.485V413.976H182.557V414.672H187.465C187.333 415.068 187.093 415.596 186.913 415.944L187.081 415.992ZM188.137 418.704H183.853V417.936H188.137V418.704ZM188.137 420.036H183.853V419.256H188.137V420.036ZM189.001 417.336H183.001V420.636H185.281L184.981 420.876C185.557 421.224 186.217 421.74 186.529 422.112L187.105 421.62C186.841 421.32 186.361 420.936 185.869 420.636H189.001V417.336ZM181.729 412.992C181.045 414.78 179.905 416.544 178.717 417.66C178.873 417.864 179.125 418.332 179.221 418.524C179.641 418.104 180.049 417.624 180.433 417.096V423.9H181.285V415.8C181.765 414.984 182.197 414.12 182.545 413.244L181.729 412.992ZM182.341 423.612C182.941 423.096 183.349 422.268 183.613 421.56L182.929 421.284C182.677 421.932 182.233 422.688 181.681 423.144L182.341 423.612ZM185.473 423.156C185.053 423.156 184.981 423.12 184.981 422.856V421.26H184.165V422.856C184.165 423.66 184.393 423.864 185.389 423.864H187.033C187.753 423.864 187.993 423.612 188.089 422.556C187.861 422.508 187.525 422.388 187.357 422.256C187.321 423.06 187.261 423.156 186.925 423.156H185.473ZM187.741 421.548C188.389 422.172 189.085 423.036 189.385 423.612L190.093 423.18C189.793 422.604 189.061 421.764 188.413 421.176L187.741 421.548Z" fill="white"/>
<path d="M196.873 418.164V414.648H200.521V418.164H196.873ZM192.481 414.648H195.997V418.164H192.481V414.648ZM201.421 413.784H191.593V423.924H192.481V419.052H200.521V422.724C200.521 422.952 200.437 423.024 200.221 423.024C199.993 423.036 199.213 423.048 198.397 423.012C198.529 423.252 198.685 423.66 198.733 423.9C199.801 423.9 200.473 423.888 200.869 423.744C201.277 423.588 201.421 423.3 201.421 422.724V413.784Z" fill="white"/>
<path d="M320 273H480V521H320V273Z" fill="#001377"/>
<path d="M369.388 357.56C374.868 357.56 379.748 353.76 379.748 347.16C379.748 340.72 375.588 337.76 370.628 337.76C369.268 337.76 368.228 338.04 367.068 338.6L367.628 332.32H378.388V327.4H362.548L361.748 341.76L364.428 343.52C366.148 342.4 367.108 341.96 368.868 341.96C371.868 341.96 373.868 343.88 373.868 347.32C373.868 350.8 371.708 352.76 368.628 352.76C365.868 352.76 363.788 351.4 362.108 349.76L359.388 353.52C361.588 355.72 364.708 357.56 369.388 357.56Z" fill="white"/>
<path d="M388.383 357.56C390.503 357.56 392.063 355.88 392.063 353.72C392.063 351.56 390.503 349.88 388.383 349.88C386.303 349.88 384.743 351.56 384.743 353.72C384.743 355.88 386.303 357.56 388.383 357.56Z" fill="white"/>
<path d="M406.111 341.84C403.551 341.84 401.911 340.2 401.911 336.72C401.911 333.08 403.711 331.28 405.911 331.28C408.431 331.28 410.471 333.28 410.991 338.68C409.551 340.96 407.711 341.84 406.111 341.84ZM396.991 354.2C398.751 356 401.431 357.56 405.111 357.56C410.991 357.56 416.471 352.72 416.471 341.52C416.471 331.24 411.431 326.84 405.831 326.84C400.751 326.84 396.511 330.64 396.511 336.72C396.511 343 400.071 346.04 404.991 346.04C407.031 346.04 409.551 344.8 411.071 342.8C410.831 350.24 408.071 352.76 404.751 352.76C402.991 352.76 401.151 351.84 400.071 350.68L396.991 354.2Z" fill="white"/>
<path d="M427.081 349.992H424.573L424.945 349.896C424.861 349.56 424.621 349.044 424.369 348.684L423.613 348.852C423.829 349.2 424.033 349.656 424.141 349.992H421.993V350.724H429.973V349.992H427.705C427.921 349.656 428.161 349.212 428.377 348.792L427.921 348.672H429.565V347.976H426.373V347.04H425.485V347.976H422.557V348.672H427.465C427.333 349.068 427.093 349.596 426.913 349.944L427.081 349.992ZM428.137 352.704H423.853V351.936H428.137V352.704ZM428.137 354.036H423.853V353.256H428.137V354.036ZM429.001 351.336H423.001V354.636H425.281L424.981 354.876C425.557 355.224 426.217 355.74 426.529 356.112L427.105 355.62C426.841 355.32 426.361 354.936 425.869 354.636H429.001V351.336ZM421.729 346.992C421.045 348.78 419.905 350.544 418.717 351.66C418.873 351.864 419.125 352.332 419.221 352.524C419.641 352.104 420.049 351.624 420.433 351.096V357.9H421.285V349.8C421.765 348.984 422.197 348.12 422.545 347.244L421.729 346.992ZM422.341 357.612C422.941 357.096 423.349 356.268 423.613 355.56L422.929 355.284C422.677 355.932 422.233 356.688 421.681 357.144L422.341 357.612ZM425.473 357.156C425.053 357.156 424.981 357.12 424.981 356.856V355.26H424.165V356.856C424.165 357.66 424.393 357.864 425.389 357.864H427.033C427.753 357.864 427.993 357.612 428.089 356.556C427.861 356.508 427.525 356.388 427.357 356.256C427.321 357.06 427.261 357.156 426.925 357.156H425.473ZM427.741 355.548C428.389 356.172 429.085 357.036 429.385 357.612L430.093 357.18C429.793 356.604 429.061 355.764 428.413 355.176L427.741 355.548Z" fill="white"/>
<path d="M436.873 352.164V348.648H440.521V352.164H436.873ZM432.481 348.648H435.997V352.164H432.481V348.648ZM441.421 347.784H431.593V357.924H432.481V353.052H440.521V356.724C440.521 356.952 440.437 357.024 440.221 357.024C439.993 357.036 439.213 357.048 438.397 357.012C438.529 357.252 438.685 357.66 438.733 357.9C439.801 357.9 440.473 357.888 440.869 357.744C441.277 357.588 441.421 357.3 441.421 356.724V347.784Z" fill="white"/>
<path d="M560 195H720V521H560V195Z" fill="#001377"/>
<path d="M560 195H720V521H560V195Z" fill="#001377"/>
<path d="M605.788 279H611.748C612.228 267.4 613.148 261.36 620.028 252.96V249.4H600.348V254.32H613.668C608.028 262.16 606.308 268.72 605.788 279Z" fill="white"/>
<path d="M628.383 279.56C630.503 279.56 632.063 277.88 632.063 275.72C632.063 273.56 630.503 271.88 628.383 271.88C626.303 271.88 624.743 273.56 624.743 275.72C624.743 277.88 626.303 279.56 628.383 279.56Z" fill="white"/>
<path d="M645.871 279.56C651.511 279.56 656.271 276.4 656.271 270.96C656.271 267.08 653.711 264.6 650.351 263.68V263.48C653.511 262.24 655.311 259.92 655.311 256.72C655.311 251.64 651.431 248.84 645.711 248.84C642.231 248.84 639.391 250.24 636.831 252.48L639.831 256.08C641.591 254.48 643.311 253.48 645.431 253.44C647.951 253.48 649.391 254.84 649.391 257.16C649.391 259.8 647.631 261.68 642.191 261.68V265.92C648.631 265.92 650.351 267.72 650.351 270.64C650.351 273.28 648.311 274.76 645.311 274.76C642.631 274.76 640.471 273.44 638.711 271.72L635.951 275.44C638.031 277.8 641.191 279.56 645.871 279.56Z" fill="white"/>
<path d="M667.081 271.992H664.573L664.945 271.896C664.861 271.56 664.621 271.044 664.369 270.684L663.613 270.852C663.829 271.2 664.033 271.656 664.141 271.992H661.993V272.724H669.973V271.992H667.705C667.921 271.656 668.161 271.212 668.377 270.792L667.921 270.672H669.565V269.976H666.373V269.04H665.485V269.976H662.557V270.672H667.465C667.333 271.068 667.093 271.596 666.913 271.944L667.081 271.992ZM668.137 274.704H663.853V273.936H668.137V274.704ZM668.137 276.036H663.853V275.256H668.137V276.036ZM669.001 273.336H663.001V276.636H665.281L664.981 276.876C665.557 277.224 666.217 277.74 666.529 278.112L667.105 277.62C666.841 277.32 666.361 276.936 665.869 276.636H669.001V273.336ZM661.729 268.992C661.045 270.78 659.905 272.544 658.717 273.66C658.873 273.864 659.125 274.332 659.221 274.524C659.641 274.104 660.049 273.624 660.433 273.096V279.9H661.285V271.8C661.765 270.984 662.197 270.12 662.545 269.244L661.729 268.992ZM662.341 279.612C662.941 279.096 663.349 278.268 663.613 277.56L662.929 277.284C662.677 277.932 662.233 278.688 661.681 279.144L662.341 279.612ZM665.473 279.156C665.053 279.156 664.981 279.12 664.981 278.856V277.26H664.165V278.856C664.165 279.66 664.393 279.864 665.389 279.864H667.033C667.753 279.864 667.993 279.612 668.089 278.556C667.861 278.508 667.525 278.388 667.357 278.256C667.321 279.06 667.261 279.156 666.925 279.156H665.473ZM667.741 277.548C668.389 278.172 669.085 279.036 669.385 279.612L670.093 279.18C669.793 278.604 669.061 277.764 668.413 277.176L667.741 277.548Z" fill="white"/>
<path d="M676.873 274.164V270.648H680.521V274.164H676.873ZM672.481 270.648H675.997V274.164H672.481V270.648ZM681.421 269.784H671.593V279.924H672.481V275.052H680.521V278.724C680.521 278.952 680.437 279.024 680.221 279.024C679.993 279.036 679.213 279.048 678.397 279.012C678.529 279.252 678.685 279.66 678.733 279.9C679.801 279.9 680.473 279.888 680.869 279.744C681.277 279.588 681.421 279.3 681.421 278.724V269.784Z" fill="white"/>
<path d="M800 93H960V521H800V93Z" fill="#001377"/>
<path d="M849.548 161.84C846.988 161.84 845.348 160.2 845.348 156.72C845.348 153.08 847.148 151.28 849.348 151.28C851.868 151.28 853.908 153.28 854.428 158.68C852.988 160.96 851.148 161.84 849.548 161.84ZM840.428 174.2C842.188 176 844.868 177.56 848.548 177.56C854.428 177.56 859.908 172.72 859.908 161.52C859.908 151.24 854.868 146.84 849.268 146.84C844.188 146.84 839.948 150.64 839.948 156.72C839.948 163 843.508 166.04 848.428 166.04C850.468 166.04 852.988 164.8 854.508 162.8C854.268 170.24 851.508 172.76 848.188 172.76C846.428 172.76 844.588 171.84 843.508 170.68L840.428 174.2Z" fill="white"/>
<path d="M868.383 177.56C870.503 177.56 872.063 175.88 872.063 173.72C872.063 171.56 870.503 169.88 868.383 169.88C866.303 169.88 864.743 171.56 864.743 173.72C864.743 175.88 866.303 177.56 868.383 177.56Z" fill="white"/>
<path d="M876.631 177H896.471V172.04H890.031C888.671 172.04 886.711 172.2 885.231 172.36C890.631 167.08 895.071 161.32 895.071 155.96C895.071 150.44 891.351 146.84 885.751 146.84C881.711 146.84 879.071 148.44 876.351 151.32L879.551 154.52C881.031 152.88 882.831 151.48 884.991 151.48C887.791 151.48 889.431 153.28 889.431 156.28C889.431 160.84 884.671 166.4 876.631 173.6V177Z" fill="white"/>
<path d="M907.081 169.992H904.573L904.945 169.896C904.861 169.56 904.621 169.044 904.369 168.684L903.613 168.852C903.829 169.2 904.033 169.656 904.141 169.992H901.993V170.724H909.973V169.992H907.705C907.921 169.656 908.161 169.212 908.377 168.792L907.921 168.672H909.565V167.976H906.373V167.04H905.485V167.976H902.557V168.672H907.465C907.333 169.068 907.093 169.596 906.913 169.944L907.081 169.992ZM908.137 172.704H903.853V171.936H908.137V172.704ZM908.137 174.036H903.853V173.256H908.137V174.036ZM909.001 171.336H903.001V174.636H905.281L904.981 174.876C905.557 175.224 906.217 175.74 906.529 176.112L907.105 175.62C906.841 175.32 906.361 174.936 905.869 174.636H909.001V171.336ZM901.729 166.992C901.045 168.78 899.905 170.544 898.717 171.66C898.873 171.864 899.125 172.332 899.221 172.524C899.641 172.104 900.049 171.624 900.433 171.096V177.9H901.285V169.8C901.765 168.984 902.197 168.12 902.545 167.244L901.729 166.992ZM902.341 177.612C902.941 177.096 903.349 176.268 903.613 175.56L902.929 175.284C902.677 175.932 902.233 176.688 901.681 177.144L902.341 177.612ZM905.473 177.156C905.053 177.156 904.981 177.12 904.981 176.856V175.26H904.165V176.856C904.165 177.66 904.393 177.864 905.389 177.864H907.033C907.753 177.864 907.993 177.612 908.089 176.556C907.861 176.508 907.525 176.388 907.357 176.256C907.321 177.06 907.261 177.156 906.925 177.156H905.473ZM907.741 175.548C908.389 176.172 909.085 177.036 909.385 177.612L910.093 177.18C909.793 176.604 909.061 175.764 908.413 175.176L907.741 175.548Z" fill="white"/>
<path d="M916.873 172.164V168.648H920.521V172.164H916.873ZM912.481 168.648H915.997V172.164H912.481V168.648ZM921.421 167.784H911.593V177.924H912.481V173.052H920.521V176.724C920.521 176.952 920.437 177.024 920.221 177.024C919.993 177.036 919.213 177.048 918.397 177.012C918.529 177.252 918.685 177.66 918.733 177.9C919.801 177.9 920.473 177.888 920.869 177.744C921.277 177.588 921.421 177.3 921.421 176.724V167.784Z" fill="white"/>
<path d="M1040 0H1200V521H1040V0Z" fill="#4C66F2"/>
<path d="M1054.02 89.0004H1078.94V82.3364H1071.16V47.5604H1065.05C1062.42 49.1844 1059.57 50.2484 1055.42 51.0324V56.1284H1062.93V82.3364H1054.02V89.0004Z" fill="white"/>
<path d="M1084.81 89.0004H1112.59V82.0564H1103.57C1101.67 82.0564 1098.93 82.2804 1096.85 82.5044C1104.41 75.1124 1110.63 67.0484 1110.63 59.5444C1110.63 51.8164 1105.42 46.7764 1097.58 46.7764C1091.93 46.7764 1088.23 49.0164 1084.42 53.0484L1088.9 57.5284C1090.97 55.2324 1093.49 53.2724 1096.52 53.2724C1100.44 53.2724 1102.73 55.7924 1102.73 59.9924C1102.73 66.3764 1096.07 74.1604 1084.81 84.2404V89.0004Z" fill="white"/>
<path d="M1124.45 89.7844C1127.42 89.7844 1129.61 87.4324 1129.61 84.4084C1129.61 81.3844 1127.42 79.0324 1124.45 79.0324C1121.54 79.0324 1119.36 81.3844 1119.36 84.4084C1119.36 87.4324 1121.54 89.7844 1124.45 89.7844Z" fill="white"/>
<path d="M1142.78 71.9764L1149.22 61.6724C1150.39 59.4324 1151.51 57.1364 1152.52 54.9524H1152.75C1152.63 57.3604 1152.41 61.1124 1152.41 63.5204V71.9764H1142.78ZM1165.01 71.9764H1160.08V47.5604H1150.23L1134.77 72.6484V78.2484H1152.41V89.0004H1160.08V78.2484H1165.01V71.9764Z" fill="white"/>
<path d="M1175.19 81.9924H1172.68L1173.05 81.8964C1172.97 81.5604 1172.73 81.0444 1172.47 80.6844L1171.72 80.8524C1171.93 81.2004 1172.14 81.6564 1172.25 81.9924H1170.1V82.7244H1178.08V81.9924H1175.81C1176.03 81.6564 1176.27 81.2124 1176.48 80.7924L1176.03 80.6724H1177.67V79.9764H1174.48V79.0404H1173.59V79.9764H1170.66V80.6724H1175.57C1175.44 81.0684 1175.2 81.5964 1175.02 81.9444L1175.19 81.9924ZM1176.24 84.7044H1171.96V83.9364H1176.24V84.7044ZM1176.24 86.0364H1171.96V85.2564H1176.24V86.0364ZM1177.11 83.3364H1171.11V86.6364H1173.39L1173.09 86.8764C1173.66 87.2244 1174.32 87.7404 1174.63 88.1124L1175.21 87.6204C1174.95 87.3204 1174.47 86.9364 1173.97 86.6364H1177.11V83.3364ZM1169.83 78.9924C1169.15 80.7804 1168.01 82.5444 1166.82 83.6604C1166.98 83.8644 1167.23 84.3324 1167.33 84.5244C1167.75 84.1044 1168.15 83.6244 1168.54 83.0964V89.9004H1169.39V81.8004C1169.87 80.9844 1170.3 80.1204 1170.65 79.2444L1169.83 78.9924ZM1170.45 89.6124C1171.05 89.0964 1171.45 88.2684 1171.72 87.5604L1171.03 87.2844C1170.78 87.9324 1170.34 88.6884 1169.79 89.1444L1170.45 89.6124ZM1173.58 89.1564C1173.16 89.1564 1173.09 89.1204 1173.09 88.8564V87.2604H1172.27V88.8564C1172.27 89.6604 1172.5 89.8644 1173.49 89.8644H1175.14C1175.86 89.8644 1176.1 89.6124 1176.19 88.5564C1175.97 88.5084 1175.63 88.3884 1175.46 88.2564C1175.43 89.0604 1175.37 89.1564 1175.03 89.1564H1173.58ZM1175.85 87.5484C1176.49 88.1724 1177.19 89.0364 1177.49 89.6124L1178.2 89.1804C1177.9 88.6044 1177.17 87.7644 1176.52 87.1764L1175.85 87.5484Z" fill="white"/>
<path d="M1184.98 84.1644V80.6484H1188.63V84.1644H1184.98ZM1180.59 80.6484H1184.1V84.1644H1180.59V80.6484ZM1189.53 79.7844H1179.7V89.9244H1180.59V85.0524H1188.63V88.7244C1188.63 88.9524 1188.54 89.0244 1188.33 89.0244C1188.1 89.0364 1187.32 89.0484 1186.5 89.0124C1186.63 89.2524 1186.79 89.6604 1186.84 89.9004C1187.91 89.9004 1188.58 89.8884 1188.97 89.7444C1189.38 89.5884 1189.53 89.3004 1189.53 88.7244V79.7844Z" fill="white"/>
</svg>
