<svg width="60" height="60" viewBox="0 0 60 60" fill="none" xmlns="http://www.w3.org/2000/svg">
<rect width="60" height="60" fill="#D61231"/>
<path d="M36.995 17.0654L29.4347 13.978C29.315 14.0294 22.0258 17.0947 21.907 17.1453C21.8581 17.2659 18.8701 24.5922 18.8213 24.7137L21.9868 32.2454L29.5438 35.3319L37.0715 32.1655C37.1212 32.0449 40.1084 24.7177 40.158 24.5971L36.995 17.0654ZM28.4463 33.1036L27.8381 33.1167L28.3226 32.7483L28.1215 32.1737L28.6214 32.5209L29.1058 32.1525L28.9299 32.7361L29.429 33.0833L28.8208 33.0963L28.6458 33.6782L28.4463 33.1036ZM29.7001 34.1632L29.5251 34.7451L29.3248 34.1705L28.7166 34.1844L29.2051 33.8152L29.0048 33.2446L29.5039 33.591L29.9883 33.2226L29.8125 33.8062L30.3124 34.1534L29.7001 34.1632ZM30.5355 33.0596L30.3604 33.6424L30.1601 33.0678L29.5519 33.08L30.0404 32.7116L29.8402 32.1411L30.3401 32.4891L30.8245 32.1207L30.6486 32.7035L31.1485 33.0507L30.5355 33.0596ZM36.6034 31.701L22.4549 31.7735L19.4881 24.7055L22.3824 17.6098L29.4412 14.6398L36.5277 17.5373L39.4912 24.6045L36.6034 31.701Z" fill="white"/>
<path d="M37.6805 16.3718L29.4298 13L21.2141 16.4557L17.8467 24.7153L21.2987 32.939L29.5486 36.31L37.7643 32.8551L41.1325 24.5955L37.6805 16.3718ZM37.3198 32.4141L29.5454 35.6841L21.7424 32.4932L18.4728 24.7121L21.661 16.8959L29.433 13.6268L37.24 16.8168L40.5064 24.5979L37.3198 32.4141Z" fill="white"/>
<path fill-rule="evenodd" clip-rule="evenodd" d="M25.8133 19.6019C25.9982 19.6899 25.4022 19.8057 25.3167 19.9499C26.0885 19.5938 27.0346 19.2294 28.1988 19.1047C29.3142 18.9866 30.5355 19.0314 31.4742 18.7054C31.6582 18.641 31.7942 18.487 31.9717 18.4609C32.3893 18.3875 32.6393 18.5799 32.9641 18.5603C33.3264 18.5375 33.6252 18.275 34.0063 18.262C35.6533 18.2058 35.5882 19.5188 36.1907 20.5441C36.3234 20.7699 36.509 20.8277 36.6376 21.0413C36.969 21.5963 36.8469 22.2198 36.8859 22.9802C36.925 23.7407 37.1953 24.6551 37.2328 25.4702C37.2564 25.9592 37.1904 26.383 37.4322 26.6626C37.3386 26.7107 37.2694 26.5142 37.2328 26.6626C37.0822 27.5884 36.6425 28.67 35.7933 28.899C34.8628 29.146 34.0364 28.5314 33.955 27.7523C33.8353 26.621 35.1208 26.5297 35.9904 26.2616V25.0195C35.7306 24.8483 35.7461 25.3202 35.4945 25.3169C35.5108 25.0464 35.5173 24.5019 35.1461 24.4726C34.6869 24.6013 34.0877 24.7057 33.6073 24.4726C33.4705 25.1564 33.0227 25.6992 33.0122 26.3602C33.0016 26.9666 33.6187 27.9088 34.0543 28.4972C34.5737 29.2047 34.9214 29.7271 35.0972 30.5845C35.1892 31.0352 35.9342 31.4248 35.9407 31.9261H22.7871C23.0672 31.1469 23.0851 30.1036 23.3334 29.2927C22.8286 28.8697 23.4148 28.4051 23.3334 27.7515C23.2007 26.7294 22.7871 25.6063 22.7871 24.4726C22.7871 22.8189 23.3147 21.3045 24.277 20.646C24.2078 20.7422 24.0979 20.7976 24.0776 20.9435C24.4293 20.7332 24.5929 20.3322 24.9731 20.1488C24.7289 20.0763 24.5082 20.699 24.229 20.5963C24.6043 20.1252 25.3981 19.7234 25.8133 19.6019ZM23.3806 22.536C23.484 22.4847 23.4067 23.0381 23.4303 23.2321C23.4466 23.4766 23.5117 23.184 23.48 23.0821V22.6852C23.4865 22.3836 23.8056 21.8971 23.629 21.7406C23.6412 21.9932 23.3709 22.3567 23.3831 22.536H23.3806ZM29.8337 30.6359C29.9859 29.3734 30.5371 28.1223 30.7773 26.9584C30.6348 26.8525 30.6487 26.59 30.4801 26.511C30.3637 26.7139 30.117 26.6324 29.8842 26.7098C29.3753 26.881 28.8257 27.2926 28.3951 27.3562C28.0873 27.401 27.7576 27.2168 27.4995 27.5053C27.7112 29.115 27.9294 30.7198 28.6393 31.825C29.0309 31.825 29.1767 31.8739 29.5349 31.825C29.7547 31.4648 29.7775 31.1233 29.8361 30.6342L29.8337 30.6359ZM35.6956 27.4059C35.6061 26.7327 34.301 26.9804 34.7032 27.9022C35.2161 28.1981 35.7518 27.8395 35.694 27.4042L35.6956 27.4059ZM32.9161 31.8788C32.9649 31.6799 32.7679 31.728 32.8168 31.53C34.038 30.7043 32.6132 29.4695 31.9733 28.996C31.3733 29.8714 30.9328 32.2178 32.9145 31.8772L32.9161 31.8788ZM25.9656 31.8788C26.0071 31.3042 26.4134 30.9366 26.3141 30.3881C26.2237 29.8991 25.6986 29.5282 25.5691 29.0954C25.0879 29.8714 24.2274 31.8405 25.964 31.8772L25.9656 31.8788Z" fill="white"/>
<path d="M13.3338 45.1761L12.3193 45.3506C12.2016 45.1795 12.1224 44.9848 12.0873 44.78C11.8341 45.1647 11.3847 45.3506 10.9141 45.3506C10.3051 45.3506 9.53003 45.0457 9.53003 43.965C9.53003 42.8843 10.139 42.6014 11.9432 42.5297V42.3667C11.9432 42.0325 11.8919 41.8516 11.3269 41.8516C10.9086 41.8655 10.4973 41.9628 10.117 42.1377L9.87279 41.1442C10.3827 40.9544 10.9221 40.8562 11.4661 40.854C12.6181 40.854 13.0814 41.2746 13.0814 42.3626V43.9438C13.0798 44.5094 13.1604 44.9496 13.3338 45.1761ZM10.6601 43.9365C10.6601 44.2845 10.9214 44.3717 11.1746 44.3717C11.5369 44.3717 11.8919 44.0954 11.9432 43.762V43.414C10.9646 43.4646 10.6601 43.5232 10.6601 43.9365Z" fill="white"/>
<path d="M15.369 40.5785H14.1519V39.5557H15.369V40.5785ZM15.369 45.256H14.1519V40.9918H15.369V45.256Z" fill="white"/>
<path d="M18.7532 40.9043C19.4631 40.9043 19.7237 41.1871 19.8686 41.3689C20.1804 41.1072 20.7161 40.9043 21.2307 40.9043C22.4617 40.9043 22.6652 41.6949 22.6652 42.2752V45.2558H21.47V42.5939C21.47 42.1448 21.26 41.8905 20.8325 41.8905C20.5663 41.9015 20.3101 41.9956 20.0998 42.1594C20.1418 42.3865 20.1587 42.6174 20.1503 42.8482V45.2558H18.9746V42.5857C18.9746 42.1065 18.7719 41.8889 18.3298 41.8889C18.1198 41.8889 17.8079 42.0046 17.6703 42.1863V45.2541H16.4491V41.9997C16.4572 41.6827 16.4257 41.3659 16.3555 41.0567L17.4635 40.9043C17.5267 41.0564 17.5752 41.2141 17.6085 41.3754C17.8258 41.1439 18.2891 40.9043 18.7532 40.9043Z" fill="white"/>
<path d="M23.5562 42.0061V41.0639H24.2148V40.9335C24.2148 40.3385 24.5559 39.3523 25.8431 39.3523C26.1225 39.3491 26.4014 39.3734 26.676 39.4249L26.5132 40.4029C26.3471 40.363 26.1768 40.3436 26.006 40.3451C25.5281 40.3451 25.3831 40.6352 25.3831 40.9759V41.0631H26.1802V42.0053H25.3831V45.2548H24.2148V42.0061H23.5562Z" fill="white"/>
<path d="M30.3872 45.176L29.3735 45.3504C29.2551 45.1797 29.1759 44.9848 29.1415 44.7799C28.8883 45.1646 28.4389 45.3504 27.9683 45.3504C27.3593 45.3504 26.5842 45.0456 26.5842 43.9648C26.5842 42.8841 27.1932 42.6013 28.9974 42.5296V42.3666C28.9974 42.0324 28.9461 41.8514 28.3811 41.8514C27.963 41.8643 27.5517 41.9605 27.1712 42.1343L26.927 41.1407C27.4372 40.9511 27.9768 40.8529 28.5211 40.8506C29.6732 40.8506 30.1364 41.2711 30.1364 42.3592V43.9404C30.134 44.5093 30.2138 44.9494 30.3872 45.176ZM27.7143 43.9363C27.7143 44.2843 27.9756 44.3715 28.2288 44.3715C28.5911 44.3715 28.9461 44.0952 28.9974 43.7619V43.4139C28.0188 43.4644 27.7143 43.5231 27.7143 43.9363Z" fill="white"/>
<path d="M31.0108 43.1459C31.0108 42.0285 31.4383 40.8687 33.2139 40.8687C33.5528 40.8667 33.8899 40.9178 34.2129 41.0203L33.9955 42.0285C33.7547 41.9382 33.4997 41.8915 33.2424 41.8908C32.5545 41.8908 32.2353 42.3333 32.2353 43.1459C32.2353 43.9585 32.6115 44.3497 33.2709 44.3497C33.5429 44.3462 33.8123 44.2972 34.068 44.2046L34.2308 45.2267C33.8961 45.3343 33.5468 45.3893 33.1952 45.3897C31.479 45.3897 31.0076 44.2878 31.0076 43.1565L31.0108 43.1459Z" fill="white"/>
<path d="M36.9675 44.3561V45.2755L36.4676 45.2967C35.6925 45.3333 35.1568 45.0367 35.1568 44.2599V42.0064H34.5339V41.0642H35.1568V40.1579L36.3446 39.8457V41.0642H37.127V42.0064H36.3446V43.7619C36.3446 44.2045 36.4098 44.3561 36.7069 44.3561H36.9675Z" fill="white"/>
<path d="M41.929 43.0954C41.929 44.1321 41.4722 45.4305 39.791 45.4305C38.1097 45.4305 37.6538 44.1346 37.6538 43.0873C37.6538 42.0864 38.1106 40.8174 39.791 40.8174C41.4714 40.8174 41.929 42.0864 41.929 43.0873V43.0954ZM39.7991 44.4076C40.3202 44.4076 40.6898 44.0449 40.6898 43.0734C40.6898 42.1304 40.3202 41.8109 39.7942 41.8109C39.2683 41.8109 38.8987 42.1304 38.8987 43.0734C38.8987 44.0449 39.261 44.4076 39.7942 44.4076H39.7991Z" fill="white"/>
<path d="M45.2474 40.9336L45.1904 42.0152C44.741 42.0152 44.2052 42.1171 44.0457 42.4659V45.2574H42.8293V41.9997C42.8376 41.6826 42.8058 41.3658 42.7349 41.0567L43.8429 40.9043C43.9103 41.0808 43.9615 41.263 43.996 41.4487C44.1743 41.1944 44.6742 40.9336 45.2474 40.9336Z" fill="white"/>
<path d="M48.2026 40.9917H49.5362C49.217 42.0064 48.5144 44.1532 48.1383 45.1256C47.8191 45.952 47.5073 46.569 47.1816 47.0001L45.9929 46.4785C46.3267 46.137 46.6744 45.5999 46.9789 44.9039L45.3848 40.9917H46.7322L47.5797 43.5998C47.767 42.9347 48.0495 41.7529 48.2026 40.9917Z" fill="white"/>
</svg>
