<svg width="1197" height="564" viewBox="0 0 1197 564" fill="none" xmlns="http://www.w3.org/2000/svg">
<path d="M61.2625 560.886H73.1665V557.91H69.3025C68.4865 557.91 67.3105 558.006 66.4225 558.102C69.6625 554.934 72.3265 551.478 72.3265 548.262C72.3265 544.95 70.0945 542.79 66.7345 542.79C64.3105 542.79 62.7265 543.75 61.0945 545.478L63.0145 547.398C63.9025 546.414 64.9825 545.574 66.2785 545.574C67.9585 545.574 68.9425 546.654 68.9425 548.454C68.9425 551.19 66.0865 554.526 61.2625 558.846V560.886Z" fill="#1D1D1E"/>
<path d="M81.4433 561.222C85.0433 561.222 87.4433 558.054 87.4433 551.934C87.4433 545.814 85.0433 542.79 81.4433 542.79C77.8193 542.79 75.4193 545.79 75.4193 551.934C75.4193 558.054 77.8193 561.222 81.4433 561.222ZM81.4433 558.462C79.9073 558.462 78.7553 556.926 78.7553 551.934C78.7553 546.966 79.9073 545.526 81.4433 545.526C82.9553 545.526 84.1073 546.966 84.1073 551.934C84.1073 556.926 82.9553 558.462 81.4433 558.462Z" fill="#1D1D1E"/>
<path d="M90.4641 560.886H101.144V558.03H97.8081V543.126H95.1921C94.0641 543.822 92.8401 544.278 91.0641 544.614V546.798H94.2801V558.03H90.4641V560.886Z" fill="#1D1D1E"/>
<path d="M106.565 553.59L109.325 549.174C109.829 548.214 110.309 547.23 110.741 546.294H110.837C110.789 547.326 110.693 548.934 110.693 549.966V553.59H106.565ZM116.093 553.59H113.981V543.126H109.757L103.133 553.878V556.278H110.693V560.886H113.981V556.278H116.093V553.59Z" fill="#1D1D1E"/>
<path d="M124.442 555.126V551.478H128.594V555.126H124.442ZM139.754 555.126H131.546V551.478H137.882V548.838H131.546V545.958H138.434V543.198H124.874C125.186 542.55 125.45 541.902 125.666 541.23L122.762 540.486C121.73 543.582 119.882 546.654 117.722 548.478C118.418 548.886 119.642 549.846 120.194 550.326C121.322 549.198 122.474 547.662 123.458 545.958H128.594V548.838H121.586V555.126H117.794V557.862H128.594V562.998H131.546V557.862H139.754V555.126Z" fill="#1D1D1E"/>
<path d="M156.101 560.886H159.677C159.965 553.926 160.517 550.302 164.645 545.262V543.126H152.837V546.078H160.829C157.445 550.782 156.413 554.718 156.101 560.886Z" fill="#1D1D1E"/>
<path d="M171.29 553.158H174.266V554.79H171.29V553.158ZM174.266 545.886V547.278H171.29V545.886H174.266ZM171.29 549.462H174.266V550.974H171.29V549.462ZM178.346 554.79H176.882V545.886H178.514V543.39H176.882V540.846H174.266V543.39H171.29V540.846H168.722V543.39H166.85V545.886H168.722V554.79H166.562V557.286H178.346V554.79ZM169.538 557.454C168.866 558.894 167.618 560.406 166.37 561.342C167.018 561.726 168.122 562.542 168.65 563.046C169.946 561.87 171.362 559.998 172.202 558.246L169.538 557.454ZM181.97 552.486C181.994 551.742 181.994 551.046 181.994 550.422V549.534H185.45V552.486H181.97ZM185.45 544.206V547.014H181.994V544.206H185.45ZM188.21 541.614H179.33V550.422C179.33 553.542 179.21 557.598 177.818 560.598C177.218 559.614 176.09 558.294 175.226 557.334L173.066 558.51C174.002 559.614 175.154 561.198 175.634 562.134L177.626 561.006C177.554 561.15 177.458 561.27 177.386 561.414C178.01 561.654 179.186 562.518 179.642 563.022C180.938 560.862 181.538 557.862 181.802 555.03H185.45V559.758C185.45 560.142 185.33 560.262 184.97 560.262C184.634 560.262 183.482 560.286 182.45 560.214C182.81 560.934 183.17 562.182 183.266 562.926C185.042 562.95 186.266 562.878 187.106 562.422C187.946 561.966 188.21 561.222 188.21 559.806V541.614Z" fill="#1D1D1E"/>
<path d="M301.262 560.886H313.166V557.91H309.302C308.486 557.91 307.31 558.006 306.422 558.102C309.662 554.934 312.326 551.478 312.326 548.262C312.326 544.95 310.094 542.79 306.734 542.79C304.31 542.79 302.726 543.75 301.094 545.478L303.014 547.398C303.902 546.414 304.982 545.574 306.278 545.574C307.958 545.574 308.942 546.654 308.942 548.454C308.942 551.19 306.086 554.526 301.262 558.846V560.886Z" fill="#1D1D1E"/>
<path d="M321.443 561.222C325.043 561.222 327.443 558.054 327.443 551.934C327.443 545.814 325.043 542.79 321.443 542.79C317.819 542.79 315.419 545.79 315.419 551.934C315.419 558.054 317.819 561.222 321.443 561.222ZM321.443 558.462C319.907 558.462 318.755 556.926 318.755 551.934C318.755 546.966 319.907 545.526 321.443 545.526C322.955 545.526 324.107 546.966 324.107 551.934C324.107 556.926 322.955 558.462 321.443 558.462Z" fill="#1D1D1E"/>
<path d="M330.464 560.886H341.144V558.03H337.808V543.126H335.192C334.064 543.822 332.84 544.278 331.064 544.614V546.798H334.28V558.03H330.464V560.886Z" fill="#1D1D1E"/>
<path d="M349.253 561.222C352.541 561.222 355.469 558.942 355.469 554.982C355.469 551.118 352.973 549.342 349.997 549.342C349.181 549.342 348.557 549.51 347.861 549.846L348.197 546.078H354.653V543.126H345.149L344.669 551.742L346.277 552.798C347.309 552.126 347.885 551.862 348.941 551.862C350.741 551.862 351.941 553.014 351.941 555.078C351.941 557.166 350.645 558.342 348.797 558.342C347.141 558.342 345.893 557.526 344.885 556.542L343.253 558.798C344.573 560.118 346.445 561.222 349.253 561.222Z" fill="#1D1D1E"/>
<path d="M364.442 555.126V551.478H368.594V555.126H364.442ZM379.754 555.126H371.546V551.478H377.882V548.838H371.546V545.958H378.434V543.198H364.874C365.186 542.55 365.45 541.902 365.666 541.23L362.762 540.486C361.73 543.582 359.882 546.654 357.722 548.478C358.418 548.886 359.642 549.846 360.194 550.326C361.322 549.198 362.474 547.662 363.458 545.958H368.594V548.838H361.586V555.126H357.794V557.862H368.594V562.998H371.546V557.862H379.754V555.126Z" fill="#1D1D1E"/>
<path d="M398.693 561.222C402.293 561.222 404.669 559.158 404.669 556.47C404.669 554.046 403.325 552.606 401.693 551.718V551.598C402.869 550.758 403.973 549.294 403.973 547.542C403.973 544.71 401.957 542.814 398.813 542.814C395.717 542.814 393.461 544.638 393.461 547.494C393.461 549.39 394.445 550.734 395.813 551.718V551.838C394.157 552.726 392.765 554.19 392.765 556.47C392.765 559.254 395.309 561.222 398.693 561.222ZM399.821 550.734C397.949 549.99 396.581 549.174 396.581 547.494C396.581 546.078 397.541 545.286 398.741 545.286C400.229 545.286 401.093 546.318 401.093 547.758C401.093 548.814 400.685 549.822 399.821 550.734ZM398.789 558.726C397.133 558.726 395.813 557.694 395.813 556.086C395.813 554.766 396.485 553.566 397.445 552.798C399.749 553.734 401.381 554.502 401.381 556.35C401.381 557.886 400.277 558.726 398.789 558.726Z" fill="#1D1D1E"/>
<path d="M411.29 553.158H414.266V554.79H411.29V553.158ZM414.266 545.886V547.278H411.29V545.886H414.266ZM411.29 549.462H414.266V550.974H411.29V549.462ZM418.346 554.79H416.882V545.886H418.514V543.39H416.882V540.846H414.266V543.39H411.29V540.846H408.722V543.39H406.85V545.886H408.722V554.79H406.562V557.286H418.346V554.79ZM409.538 557.454C408.866 558.894 407.618 560.406 406.37 561.342C407.018 561.726 408.122 562.542 408.65 563.046C409.946 561.87 411.362 559.998 412.202 558.246L409.538 557.454ZM421.97 552.486C421.994 551.742 421.994 551.046 421.994 550.422V549.534H425.45V552.486H421.97ZM425.45 544.206V547.014H421.994V544.206H425.45ZM428.21 541.614H419.33V550.422C419.33 553.542 419.21 557.598 417.818 560.598C417.218 559.614 416.09 558.294 415.226 557.334L413.066 558.51C414.002 559.614 415.154 561.198 415.634 562.134L417.626 561.006C417.554 561.15 417.458 561.27 417.386 561.414C418.01 561.654 419.186 562.518 419.642 563.022C420.938 560.862 421.538 557.862 421.802 555.03H425.45V559.758C425.45 560.142 425.33 560.262 424.97 560.262C424.634 560.262 423.482 560.286 422.45 560.214C422.81 560.934 423.17 562.182 423.266 562.926C425.042 562.95 426.266 562.878 427.106 562.422C427.946 561.966 428.21 561.222 428.21 559.806V541.614Z" fill="#1D1D1E"/>
<path d="M541.262 560.886H553.166V557.91H549.302C548.486 557.91 547.31 558.006 546.422 558.102C549.662 554.934 552.326 551.478 552.326 548.262C552.326 544.95 550.094 542.79 546.734 542.79C544.31 542.79 542.726 543.75 541.094 545.478L543.014 547.398C543.902 546.414 544.982 545.574 546.278 545.574C547.958 545.574 548.942 546.654 548.942 548.454C548.942 551.19 546.086 554.526 541.262 558.846V560.886Z" fill="#1D1D1E"/>
<path d="M561.443 561.222C565.043 561.222 567.443 558.054 567.443 551.934C567.443 545.814 565.043 542.79 561.443 542.79C557.819 542.79 555.419 545.79 555.419 551.934C555.419 558.054 557.819 561.222 561.443 561.222ZM561.443 558.462C559.907 558.462 558.755 556.926 558.755 551.934C558.755 546.966 559.907 545.526 561.443 545.526C562.955 545.526 564.107 546.966 564.107 551.934C564.107 556.926 562.955 558.462 561.443 558.462Z" fill="#1D1D1E"/>
<path d="M570.464 560.886H581.144V558.03H577.808V543.126H575.192C574.064 543.822 572.84 544.278 571.064 544.614V546.798H574.28V558.03H570.464V560.886Z" fill="#1D1D1E"/>
<path d="M590.141 558.558C588.653 558.558 587.453 557.31 587.117 554.07C588.005 552.702 589.061 552.198 590.021 552.198C591.557 552.198 592.541 553.182 592.541 555.294C592.541 557.454 591.461 558.558 590.141 558.558ZM595.517 544.806C594.437 543.702 592.853 542.79 590.693 542.79C587.117 542.79 583.829 545.622 583.829 552.246C583.829 558.51 586.829 561.222 590.213 561.222C593.237 561.222 595.781 558.942 595.781 555.294C595.781 551.478 593.669 549.702 590.693 549.702C589.541 549.702 588.005 550.422 587.045 551.598C587.189 547.158 588.869 545.622 590.909 545.622C591.941 545.622 593.021 546.198 593.645 546.918L595.517 544.806Z" fill="#1D1D1E"/>
<path d="M604.442 555.126V551.478H608.594V555.126H604.442ZM619.754 555.126H611.546V551.478H617.882V548.838H611.546V545.958H618.434V543.198H604.874C605.186 542.55 605.45 541.902 605.666 541.23L602.762 540.486C601.73 543.582 599.882 546.654 597.722 548.478C598.418 548.886 599.642 549.846 600.194 550.326C601.322 549.198 602.474 547.662 603.458 545.958H608.594V548.838H601.586V555.126H597.794V557.862H608.594V562.998H611.546V557.862H619.754V555.126Z" fill="#1D1D1E"/>
<path d="M638.357 551.79C636.821 551.79 635.837 550.806 635.837 548.718C635.837 546.534 636.917 545.454 638.237 545.454C639.749 545.454 640.973 546.654 641.285 549.894C640.421 551.262 639.317 551.79 638.357 551.79ZM632.885 559.206C633.941 560.286 635.549 561.222 637.757 561.222C641.285 561.222 644.573 558.318 644.573 551.598C644.573 545.43 641.549 542.79 638.189 542.79C635.141 542.79 632.597 545.07 632.597 548.718C632.597 552.486 634.733 554.31 637.685 554.31C638.909 554.31 640.421 553.566 641.333 552.366C641.189 556.83 639.533 558.342 637.541 558.342C636.485 558.342 635.381 557.79 634.733 557.094L632.885 559.206Z" fill="#1D1D1E"/>
<path d="M651.29 553.158H654.266V554.79H651.29V553.158ZM654.266 545.886V547.278H651.29V545.886H654.266ZM651.29 549.462H654.266V550.974H651.29V549.462ZM658.346 554.79H656.882V545.886H658.514V543.39H656.882V540.846H654.266V543.39H651.29V540.846H648.722V543.39H646.85V545.886H648.722V554.79H646.562V557.286H658.346V554.79ZM649.538 557.454C648.866 558.894 647.618 560.406 646.37 561.342C647.018 561.726 648.122 562.542 648.65 563.046C649.946 561.87 651.362 559.998 652.202 558.246L649.538 557.454ZM661.97 552.486C661.994 551.742 661.994 551.046 661.994 550.422V549.534H665.45V552.486H661.97ZM665.45 544.206V547.014H661.994V544.206H665.45ZM668.21 541.614H659.33V550.422C659.33 553.542 659.21 557.598 657.818 560.598C657.218 559.614 656.09 558.294 655.226 557.334L653.066 558.51C654.002 559.614 655.154 561.198 655.634 562.134L657.626 561.006C657.554 561.15 657.458 561.27 657.386 561.414C658.01 561.654 659.186 562.518 659.642 563.022C660.938 560.862 661.538 557.862 661.802 555.03H665.45V559.758C665.45 560.142 665.33 560.262 664.97 560.262C664.634 560.262 663.482 560.286 662.45 560.214C662.81 560.934 663.17 562.182 663.266 562.926C665.042 562.95 666.266 562.878 667.106 562.422C667.946 561.966 668.21 561.222 668.21 559.806V541.614Z" fill="#1D1D1E"/>
<path d="M774.196 560.886H786.1V557.91H782.236C781.42 557.91 780.244 558.006 779.356 558.102C782.596 554.934 785.26 551.478 785.26 548.262C785.26 544.95 783.028 542.79 779.668 542.79C777.244 542.79 775.66 543.75 774.028 545.478L775.948 547.398C776.836 546.414 777.916 545.574 779.212 545.574C780.892 545.574 781.876 546.654 781.876 548.454C781.876 551.19 779.02 554.526 774.196 558.846V560.886Z" fill="#1D1D1E"/>
<path d="M794.377 561.222C797.977 561.222 800.377 558.054 800.377 551.934C800.377 545.814 797.977 542.79 794.377 542.79C790.753 542.79 788.353 545.79 788.353 551.934C788.353 558.054 790.753 561.222 794.377 561.222ZM794.377 558.462C792.841 558.462 791.689 556.926 791.689 551.934C791.689 546.966 792.841 545.526 794.377 545.526C795.889 545.526 797.041 546.966 797.041 551.934C797.041 556.926 795.889 558.462 794.377 558.462Z" fill="#1D1D1E"/>
<path d="M803.398 560.886H814.078V558.03H810.742V543.126H808.126C806.998 543.822 805.774 544.278 803.998 544.614V546.798H807.214V558.03H803.398V560.886Z" fill="#1D1D1E"/>
<path d="M820.027 560.886H823.603C823.891 553.926 824.443 550.302 828.571 545.262V543.126H816.763V546.078H824.755C821.371 550.782 820.339 554.718 820.027 560.886Z" fill="#1D1D1E"/>
<path d="M837.375 555.126V551.478H841.527V555.126H837.375ZM852.687 555.126H844.479V551.478H850.815V548.838H844.479V545.958H851.367V543.198H837.807C838.119 542.55 838.383 541.902 838.599 541.23L835.695 540.486C834.663 543.582 832.815 546.654 830.655 548.478C831.351 548.886 832.575 549.846 833.127 550.326C834.255 549.198 835.407 547.662 836.391 545.958H841.527V548.838H834.519V555.126H830.727V557.862H841.527V562.998H844.479V557.862H852.687V555.126Z" fill="#1D1D1E"/>
<path d="M866.538 560.886H877.218V558.03H873.882V543.126H871.266C870.138 543.822 868.914 544.278 867.138 544.614V546.798H870.354V558.03H866.538V560.886Z" fill="#1D1D1E"/>
<path d="M885.783 561.222C889.383 561.222 891.783 558.054 891.783 551.934C891.783 545.814 889.383 542.79 885.783 542.79C882.159 542.79 879.759 545.79 879.759 551.934C879.759 558.054 882.159 561.222 885.783 561.222ZM885.783 558.462C884.247 558.462 883.095 556.926 883.095 551.934C883.095 546.966 884.247 545.526 885.783 545.526C887.295 545.526 888.447 546.966 888.447 551.934C888.447 556.926 887.295 558.462 885.783 558.462Z" fill="#1D1D1E"/>
<path d="M898.356 553.158H901.332V554.79H898.356V553.158ZM901.332 545.886V547.278H898.356V545.886H901.332ZM898.356 549.462H901.332V550.974H898.356V549.462ZM905.412 554.79H903.948V545.886H905.58V543.39H903.948V540.846H901.332V543.39H898.356V540.846H895.788V543.39H893.916V545.886H895.788V554.79H893.628V557.286H905.412V554.79ZM896.604 557.454C895.932 558.894 894.684 560.406 893.436 561.342C894.084 561.726 895.188 562.542 895.716 563.046C897.012 561.87 898.428 559.998 899.268 558.246L896.604 557.454ZM909.036 552.486C909.06 551.742 909.06 551.046 909.06 550.422V549.534H912.516V552.486H909.036ZM912.516 544.206V547.014H909.06V544.206H912.516ZM915.276 541.614H906.396V550.422C906.396 553.542 906.276 557.598 904.884 560.598C904.284 559.614 903.156 558.294 902.292 557.334L900.132 558.51C901.068 559.614 902.22 561.198 902.7 562.134L904.692 561.006C904.62 561.15 904.524 561.27 904.452 561.414C905.076 561.654 906.252 562.518 906.708 563.022C908.004 560.862 908.604 557.862 908.868 555.03H912.516V559.758C912.516 560.142 912.396 560.262 912.036 560.262C911.7 560.262 910.548 560.286 909.516 560.214C909.876 560.934 910.236 562.182 910.332 562.926C912.108 562.95 913.332 562.878 914.172 562.422C915.012 561.966 915.276 561.222 915.276 559.806V541.614Z" fill="#1D1D1E"/>
<path d="M986.196 560.886H998.1V557.91H994.236C993.42 557.91 992.244 558.006 991.356 558.102C994.596 554.934 997.26 551.478 997.26 548.262C997.26 544.95 995.028 542.79 991.668 542.79C989.244 542.79 987.66 543.75 986.028 545.478L987.948 547.398C988.836 546.414 989.916 545.574 991.212 545.574C992.892 545.574 993.876 546.654 993.876 548.454C993.876 551.19 991.02 554.526 986.196 558.846V560.886Z" fill="#1D1D1E"/>
<path d="M1006.38 561.222C1009.98 561.222 1012.38 558.054 1012.38 551.934C1012.38 545.814 1009.98 542.79 1006.38 542.79C1002.75 542.79 1000.35 545.79 1000.35 551.934C1000.35 558.054 1002.75 561.222 1006.38 561.222ZM1006.38 558.462C1004.84 558.462 1003.69 556.926 1003.69 551.934C1003.69 546.966 1004.84 545.526 1006.38 545.526C1007.89 545.526 1009.04 546.966 1009.04 551.934C1009.04 556.926 1007.89 558.462 1006.38 558.462Z" fill="#1D1D1E"/>
<path d="M1015.4 560.886H1026.08V558.03H1022.74V543.126H1020.13C1019 543.822 1017.77 544.278 1016 544.614V546.798H1019.21V558.03H1015.4V560.886Z" fill="#1D1D1E"/>
<path d="M1034.62 561.222C1038.22 561.222 1040.59 559.158 1040.59 556.47C1040.59 554.046 1039.25 552.606 1037.62 551.718V551.598C1038.79 550.758 1039.9 549.294 1039.9 547.542C1039.9 544.71 1037.88 542.814 1034.74 542.814C1031.64 542.814 1029.39 544.638 1029.39 547.494C1029.39 549.39 1030.37 550.734 1031.74 551.718V551.838C1030.08 552.726 1028.69 554.19 1028.69 556.47C1028.69 559.254 1031.23 561.222 1034.62 561.222ZM1035.75 550.734C1033.87 549.99 1032.51 549.174 1032.51 547.494C1032.51 546.078 1033.47 545.286 1034.67 545.286C1036.15 545.286 1037.02 546.318 1037.02 547.758C1037.02 548.814 1036.61 549.822 1035.75 550.734ZM1034.71 558.726C1033.06 558.726 1031.74 557.694 1031.74 556.086C1031.74 554.766 1032.41 553.566 1033.37 552.798C1035.67 553.734 1037.31 554.502 1037.31 556.35C1037.31 557.886 1036.2 558.726 1034.71 558.726Z" fill="#1D1D1E"/>
<path d="M1049.38 555.126V551.478H1053.53V555.126H1049.38ZM1064.69 555.126H1056.48V551.478H1062.82V548.838H1056.48V545.958H1063.37V543.198H1049.81C1050.12 542.55 1050.38 541.902 1050.6 541.23L1047.7 540.486C1046.66 543.582 1044.82 546.654 1042.66 548.478C1043.35 548.886 1044.58 549.846 1045.13 550.326C1046.26 549.198 1047.41 547.662 1048.39 545.958H1053.53V548.838H1046.52V555.126H1042.73V557.862H1053.53V562.998H1056.48V557.862H1064.69V555.126Z" fill="#1D1D1E"/>
<path d="M1078.54 560.886H1089.22V558.03H1085.88V543.126H1083.27C1082.14 543.822 1080.91 544.278 1079.14 544.614V546.798H1082.35V558.03H1078.54V560.886Z" fill="#1D1D1E"/>
<path d="M1092.67 560.886H1103.35V558.03H1100.02V543.126H1097.4C1096.27 543.822 1095.05 544.278 1093.27 544.614V546.798H1096.49V558.03H1092.67V560.886Z" fill="#1D1D1E"/>
<path d="M1110.36 553.158H1113.33V554.79H1110.36V553.158ZM1113.33 545.886V547.278H1110.36V545.886H1113.33ZM1110.36 549.462H1113.33V550.974H1110.36V549.462ZM1117.41 554.79H1115.95V545.886H1117.58V543.39H1115.95V540.846H1113.33V543.39H1110.36V540.846H1107.79V543.39H1105.92V545.886H1107.79V554.79H1105.63V557.286H1117.41V554.79ZM1108.6 557.454C1107.93 558.894 1106.68 560.406 1105.44 561.342C1106.08 561.726 1107.19 562.542 1107.72 563.046C1109.01 561.87 1110.43 559.998 1111.27 558.246L1108.6 557.454ZM1121.04 552.486C1121.06 551.742 1121.06 551.046 1121.06 550.422V549.534H1124.52V552.486H1121.04ZM1124.52 544.206V547.014H1121.06V544.206H1124.52ZM1127.28 541.614H1118.4V550.422C1118.4 553.542 1118.28 557.598 1116.88 560.598C1116.28 559.614 1115.16 558.294 1114.29 557.334L1112.13 558.51C1113.07 559.614 1114.22 561.198 1114.7 562.134L1116.69 561.006C1116.62 561.15 1116.52 561.27 1116.45 561.414C1117.08 561.654 1118.25 562.518 1118.71 563.022C1120 560.862 1120.6 557.862 1120.87 555.03H1124.52V559.758C1124.52 560.142 1124.4 560.262 1124.04 560.262C1123.7 560.262 1122.55 560.286 1121.52 560.214C1121.88 560.934 1122.24 562.182 1122.33 562.926C1124.11 562.95 1125.33 562.878 1126.17 562.422C1127.01 561.966 1127.28 561.222 1127.28 559.806V541.614Z" fill="#1D1D1E"/>
<path fill-rule="evenodd" clip-rule="evenodd" d="M1197 521L-1.74846e-07 521L0 519L1197 519L1197 521Z" fill="black"/>
<path d="M45 286H205V521.464H45V286Z" fill="#001377"/>
<path d="M94.3882 367.56C99.8682 367.56 104.748 363.76 104.748 357.16C104.748 350.72 100.588 347.76 95.6282 347.76C94.2682 347.76 93.2282 348.04 92.0682 348.6L92.6282 342.32H103.388V337.4H87.5482L86.7482 351.76L89.4282 353.52C91.1482 352.4 92.1082 351.96 93.8682 351.96C96.8682 351.96 98.8682 353.88 98.8682 357.32C98.8682 360.8 96.7082 362.76 93.6282 362.76C90.8682 362.76 88.7882 361.4 87.1082 359.76L84.3882 363.52C86.5882 365.72 89.7082 367.56 94.3882 367.56Z" fill="white"/>
<path d="M113.383 367.56C115.503 367.56 117.063 365.88 117.063 363.72C117.063 361.56 115.503 359.88 113.383 359.88C111.303 359.88 109.743 361.56 109.743 363.72C109.743 365.88 111.303 367.56 113.383 367.56Z" fill="white"/>
<path d="M131.111 351.84C128.551 351.84 126.911 350.2 126.911 346.72C126.911 343.08 128.711 341.28 130.911 341.28C133.431 341.28 135.471 343.28 135.991 348.68C134.551 350.96 132.711 351.84 131.111 351.84ZM121.991 364.2C123.751 366 126.431 367.56 130.111 367.56C135.991 367.56 141.471 362.72 141.471 351.52C141.471 341.24 136.431 336.84 130.831 336.84C125.751 336.84 121.511 340.64 121.511 346.72C121.511 353 125.071 356.04 129.991 356.04C132.031 356.04 134.551 354.8 136.071 352.8C135.831 360.24 133.071 362.76 129.751 362.76C127.991 362.76 126.151 361.84 125.071 360.68L121.991 364.2Z" fill="white"/>
<path d="M152.081 359.992H149.573L149.945 359.896C149.861 359.56 149.621 359.044 149.369 358.684L148.613 358.852C148.829 359.2 149.033 359.656 149.141 359.992H146.993V360.724H154.973V359.992H152.705C152.921 359.656 153.161 359.212 153.377 358.792L152.921 358.672H154.565V357.976H151.373V357.04H150.485V357.976H147.557V358.672H152.465C152.333 359.068 152.093 359.596 151.913 359.944L152.081 359.992ZM153.137 362.704H148.853V361.936H153.137V362.704ZM153.137 364.036H148.853V363.256H153.137V364.036ZM154.001 361.336H148.001V364.636H150.281L149.981 364.876C150.557 365.224 151.217 365.74 151.529 366.112L152.105 365.62C151.841 365.32 151.361 364.936 150.869 364.636H154.001V361.336ZM146.729 356.992C146.045 358.78 144.905 360.544 143.717 361.66C143.873 361.864 144.125 362.332 144.221 362.524C144.641 362.104 145.049 361.624 145.433 361.096V367.9H146.285V359.8C146.765 358.984 147.197 358.12 147.545 357.244L146.729 356.992ZM147.341 367.612C147.941 367.096 148.349 366.268 148.613 365.56L147.929 365.284C147.677 365.932 147.233 366.688 146.681 367.144L147.341 367.612ZM150.473 367.156C150.053 367.156 149.981 367.12 149.981 366.856V365.26H149.165V366.856C149.165 367.66 149.393 367.864 150.389 367.864H152.033C152.753 367.864 152.993 367.612 153.089 366.556C152.861 366.508 152.525 366.388 152.357 366.256C152.321 367.06 152.261 367.156 151.925 367.156H150.473ZM152.741 365.548C153.389 366.172 154.085 367.036 154.385 367.612L155.093 367.18C154.793 366.604 154.061 365.764 153.413 365.176L152.741 365.548Z" fill="white"/>
<path d="M161.873 362.164V358.648H165.521V362.164H161.873ZM157.481 358.648H160.997V362.164H157.481V358.648ZM166.421 357.784H156.593V367.924H157.481V363.052H165.521V366.724C165.521 366.952 165.437 367.024 165.221 367.024C164.993 367.036 164.213 367.048 163.397 367.012C163.529 367.252 163.685 367.66 163.733 367.9C164.801 367.9 165.473 367.888 165.869 367.744C166.277 367.588 166.421 367.3 166.421 366.724V357.784Z" fill="white"/>
<path d="M285 225H445V521.229H285V225Z" fill="#001377"/>
<path d="M330.881 303H336.841C337.321 291.4 338.241 285.36 345.121 276.96V273.4H325.441V278.32H338.761C333.121 286.16 331.401 292.72 330.881 303Z" fill="white"/>
<path d="M353.476 303.56C355.596 303.56 357.156 301.88 357.156 299.72C357.156 297.56 355.596 295.88 353.476 295.88C351.396 295.88 349.836 297.56 349.836 299.72C349.836 301.88 351.396 303.56 353.476 303.56Z" fill="white"/>
<path d="M370.964 303.56C376.604 303.56 381.364 300.4 381.364 294.96C381.364 291.08 378.804 288.6 375.444 287.68V287.48C378.604 286.24 380.404 283.92 380.404 280.72C380.404 275.64 376.524 272.84 370.804 272.84C367.324 272.84 364.484 274.24 361.924 276.48L364.924 280.08C366.684 278.48 368.404 277.48 370.524 277.44C373.044 277.48 374.484 278.84 374.484 281.16C374.484 283.8 372.724 285.68 367.284 285.68V289.92C373.724 289.92 375.444 291.72 375.444 294.64C375.444 297.28 373.404 298.76 370.404 298.76C367.724 298.76 365.564 297.44 363.804 295.72L361.044 299.44C363.124 301.8 366.284 303.56 370.964 303.56Z" fill="white"/>
<path d="M392.175 295.992H389.667L390.039 295.896C389.955 295.56 389.715 295.044 389.463 294.684L388.707 294.852C388.923 295.2 389.127 295.656 389.235 295.992H387.087V296.724H395.067V295.992H392.799C393.015 295.656 393.255 295.212 393.471 294.792L393.015 294.672H394.659V293.976H391.467V293.04H390.579V293.976H387.651V294.672H392.559C392.427 295.068 392.187 295.596 392.007 295.944L392.175 295.992ZM393.231 298.704H388.947V297.936H393.231V298.704ZM393.231 300.036H388.947V299.256H393.231V300.036ZM394.095 297.336H388.095V300.636H390.375L390.075 300.876C390.651 301.224 391.311 301.74 391.623 302.112L392.199 301.62C391.935 301.32 391.455 300.936 390.963 300.636H394.095V297.336ZM386.823 292.992C386.139 294.78 384.999 296.544 383.811 297.66C383.967 297.864 384.219 298.332 384.315 298.524C384.735 298.104 385.143 297.624 385.527 297.096V303.9H386.379V295.8C386.859 294.984 387.291 294.12 387.639 293.244L386.823 292.992ZM387.435 303.612C388.035 303.096 388.443 302.268 388.707 301.56L388.023 301.284C387.771 301.932 387.327 302.688 386.775 303.144L387.435 303.612ZM390.567 303.156C390.147 303.156 390.075 303.12 390.075 302.856V301.26H389.259V302.856C389.259 303.66 389.487 303.864 390.483 303.864H392.127C392.847 303.864 393.087 303.612 393.183 302.556C392.955 302.508 392.619 302.388 392.451 302.256C392.415 303.06 392.355 303.156 392.019 303.156H390.567ZM392.835 301.548C393.483 302.172 394.179 303.036 394.479 303.612L395.187 303.18C394.887 302.604 394.155 301.764 393.507 301.176L392.835 301.548Z" fill="white"/>
<path d="M401.967 298.164V294.648H405.615V298.164H401.967ZM397.575 294.648H401.091V298.164H397.575V294.648ZM406.515 293.784H396.687V303.924H397.575V299.052H405.615V302.724C405.615 302.952 405.531 303.024 405.315 303.024C405.087 303.036 404.307 303.048 403.491 303.012C403.623 303.252 403.779 303.66 403.827 303.9C404.895 303.9 405.567 303.888 405.963 303.744C406.371 303.588 406.515 303.3 406.515 302.724V293.784Z" fill="white"/>
<path d="M525 156H685V521H525V156Z" fill="#001377"/>
<path d="M574.641 215.84C572.081 215.84 570.441 214.2 570.441 210.72C570.441 207.08 572.241 205.28 574.441 205.28C576.961 205.28 579.001 207.28 579.521 212.68C578.081 214.96 576.241 215.84 574.641 215.84ZM565.521 228.2C567.281 230 569.961 231.56 573.641 231.56C579.521 231.56 585.001 226.72 585.001 215.52C585.001 205.24 579.961 200.84 574.361 200.84C569.281 200.84 565.041 204.64 565.041 210.72C565.041 217 568.601 220.04 573.521 220.04C575.561 220.04 578.081 218.8 579.601 216.8C579.361 224.24 576.601 226.76 573.281 226.76C571.521 226.76 569.681 225.84 568.601 224.68L565.521 228.2Z" fill="white"/>
<path d="M593.476 231.56C595.596 231.56 597.156 229.88 597.156 227.72C597.156 225.56 595.596 223.88 593.476 223.88C591.396 223.88 589.836 225.56 589.836 227.72C589.836 229.88 591.396 231.56 593.476 231.56Z" fill="white"/>
<path d="M601.724 231H621.564V226.04H615.124C613.764 226.04 611.804 226.2 610.324 226.36C615.724 221.08 620.164 215.32 620.164 209.96C620.164 204.44 616.444 200.84 610.844 200.84C606.804 200.84 604.164 202.44 601.444 205.32L604.644 208.52C606.124 206.88 607.924 205.48 610.084 205.48C612.884 205.48 614.524 207.28 614.524 210.28C614.524 214.84 609.764 220.4 601.724 227.6V231Z" fill="white"/>
<path d="M632.175 223.992H629.667L630.039 223.896C629.955 223.56 629.715 223.044 629.463 222.684L628.707 222.852C628.923 223.2 629.127 223.656 629.235 223.992H627.087V224.724H635.067V223.992H632.799C633.015 223.656 633.255 223.212 633.471 222.792L633.015 222.672H634.659V221.976H631.467V221.04H630.579V221.976H627.651V222.672H632.559C632.427 223.068 632.187 223.596 632.007 223.944L632.175 223.992ZM633.231 226.704H628.947V225.936H633.231V226.704ZM633.231 228.036H628.947V227.256H633.231V228.036ZM634.095 225.336H628.095V228.636H630.375L630.075 228.876C630.651 229.224 631.311 229.74 631.623 230.112L632.199 229.62C631.935 229.32 631.455 228.936 630.963 228.636H634.095V225.336ZM626.823 220.992C626.139 222.78 624.999 224.544 623.811 225.66C623.967 225.864 624.219 226.332 624.315 226.524C624.735 226.104 625.143 225.624 625.527 225.096V231.9H626.379V223.8C626.859 222.984 627.291 222.12 627.639 221.244L626.823 220.992ZM627.435 231.612C628.035 231.096 628.443 230.268 628.707 229.56L628.023 229.284C627.771 229.932 627.327 230.688 626.775 231.144L627.435 231.612ZM630.567 231.156C630.147 231.156 630.075 231.12 630.075 230.856V229.26H629.259V230.856C629.259 231.66 629.487 231.864 630.483 231.864H632.127C632.847 231.864 633.087 231.612 633.183 230.556C632.955 230.508 632.619 230.388 632.451 230.256C632.415 231.06 632.355 231.156 632.019 231.156H630.567ZM632.835 229.548C633.483 230.172 634.179 231.036 634.479 231.612L635.187 231.18C634.887 230.604 634.155 229.764 633.507 229.176L632.835 229.548Z" fill="white"/>
<path d="M641.967 226.164V222.648H645.615V226.164H641.967ZM637.575 222.648H641.091V226.164H637.575V222.648ZM646.515 221.784H636.687V231.924H637.575V227.052H645.615V230.724C645.615 230.952 645.531 231.024 645.315 231.024C645.087 231.036 644.307 231.048 643.491 231.012C643.623 231.252 643.779 231.66 643.827 231.9C644.895 231.9 645.567 231.888 645.963 231.744C646.371 231.588 646.515 231.3 646.515 230.724V221.784Z" fill="white"/>
<path d="M765 89H925V521H765V89Z" fill="#001377"/>
<path d="M794.944 167H812.744V162.24H807.184V137.4H802.824C800.944 138.56 798.904 139.32 795.944 139.88V143.52H801.304V162.24H794.944V167Z" fill="white"/>
<path d="M818.499 167H836.299V162.24H830.739V137.4H826.379C824.499 138.56 822.459 139.32 819.499 139.88V143.52H824.859V162.24H818.499V167Z" fill="white"/>
<path d="M845.253 167.56C847.373 167.56 848.933 165.88 848.933 163.72C848.933 161.56 847.373 159.88 845.253 159.88C843.173 159.88 841.613 161.56 841.613 163.72C841.613 165.88 843.173 167.56 845.253 167.56Z" fill="white"/>
<path d="M858.341 154.84L862.941 147.48C863.781 145.88 864.581 144.24 865.301 142.68H865.461C865.381 144.4 865.221 147.08 865.221 148.8V154.84H858.341ZM874.221 154.84H870.701V137.4H863.661L852.621 155.32V159.32H865.221V167H870.701V159.32H874.221V154.84Z" fill="white"/>
<path d="M883.952 159.992H881.444L881.816 159.896C881.732 159.56 881.492 159.044 881.24 158.684L880.484 158.852C880.7 159.2 880.904 159.656 881.012 159.992H878.864V160.724H886.844V159.992H884.576C884.792 159.656 885.032 159.212 885.248 158.792L884.792 158.672H886.436V157.976H883.244V157.04H882.356V157.976H879.428V158.672H884.336C884.204 159.068 883.964 159.596 883.784 159.944L883.952 159.992ZM885.008 162.704H880.724V161.936H885.008V162.704ZM885.008 164.036H880.724V163.256H885.008V164.036ZM885.872 161.336H879.872V164.636H882.152L881.852 164.876C882.428 165.224 883.088 165.74 883.4 166.112L883.976 165.62C883.712 165.32 883.232 164.936 882.74 164.636H885.872V161.336ZM878.6 156.992C877.916 158.78 876.776 160.544 875.588 161.66C875.744 161.864 875.996 162.332 876.092 162.524C876.512 162.104 876.92 161.624 877.304 161.096V167.9H878.156V159.8C878.636 158.984 879.068 158.12 879.416 157.244L878.6 156.992ZM879.212 167.612C879.812 167.096 880.22 166.268 880.484 165.56L879.8 165.284C879.548 165.932 879.104 166.688 878.552 167.144L879.212 167.612ZM882.344 167.156C881.924 167.156 881.852 167.12 881.852 166.856V165.26H881.036V166.856C881.036 167.66 881.264 167.864 882.26 167.864H883.904C884.624 167.864 884.864 167.612 884.96 166.556C884.732 166.508 884.396 166.388 884.228 166.256C884.192 167.06 884.132 167.156 883.796 167.156H882.344ZM884.612 165.548C885.26 166.172 885.956 167.036 886.256 167.612L886.964 167.18C886.664 166.604 885.932 165.764 885.284 165.176L884.612 165.548Z" fill="white"/>
<path d="M893.744 162.164V158.648H897.392V162.164H893.744ZM889.352 158.648H892.868V162.164H889.352V158.648ZM898.292 157.784H888.464V167.924H889.352V163.052H897.392V166.724C897.392 166.952 897.308 167.024 897.092 167.024C896.864 167.036 896.084 167.048 895.268 167.012C895.4 167.252 895.556 167.66 895.604 167.9C896.672 167.9 897.344 167.888 897.74 167.744C898.148 167.588 898.292 167.3 898.292 166.724V157.784Z" fill="white"/>
<path d="M1005 0H1165V521H1005V0Z" fill="#4C66F2"/>
<path d="M1019.02 89H1043.94V82.336H1036.16V47.56H1030.05C1027.42 49.184 1024.57 50.248 1020.42 51.032V56.128H1027.93V82.336H1019.02V89Z" fill="white"/>
<path d="M1062.86 89.784C1070.53 89.784 1077.37 84.464 1077.37 75.224C1077.37 66.208 1071.54 62.064 1064.6 62.064C1062.69 62.064 1061.24 62.456 1059.61 63.24L1060.4 54.448H1075.46V47.56H1053.29L1052.17 67.664L1055.92 70.128C1058.33 68.56 1059.67 67.944 1062.13 67.944C1066.33 67.944 1069.13 70.632 1069.13 75.448C1069.13 80.32 1066.11 83.064 1061.8 83.064C1057.93 83.064 1055.02 81.16 1052.67 78.864L1048.86 84.128C1051.94 87.208 1056.31 89.784 1062.86 89.784Z" fill="white"/>
<path d="M1089.45 89.784C1092.42 89.784 1094.61 87.432 1094.61 84.408C1094.61 81.384 1092.42 79.032 1089.45 79.032C1086.54 79.032 1084.36 81.384 1084.36 84.408C1084.36 87.432 1086.54 89.784 1089.45 89.784Z" fill="white"/>
<path d="M1115.06 89.784C1123.46 89.784 1129 84.968 1129 78.696C1129 73.04 1125.87 69.68 1122.06 67.608V67.328C1124.8 65.368 1127.38 61.952 1127.38 57.864C1127.38 51.256 1122.67 46.832 1115.34 46.832C1108.11 46.832 1102.85 51.088 1102.85 57.752C1102.85 62.176 1105.15 65.312 1108.34 67.608V67.888C1104.47 69.96 1101.23 73.376 1101.23 78.696C1101.23 85.192 1107.16 89.784 1115.06 89.784ZM1117.69 65.312C1113.32 63.576 1110.13 61.672 1110.13 57.752C1110.13 54.448 1112.37 52.6 1115.17 52.6C1118.64 52.6 1120.66 55.008 1120.66 58.368C1120.66 60.832 1119.71 63.184 1117.69 65.312ZM1115.28 83.96C1111.42 83.96 1108.34 81.552 1108.34 77.8C1108.34 74.72 1109.91 71.92 1112.15 70.128C1117.52 72.312 1121.33 74.104 1121.33 78.416C1121.33 82 1118.75 83.96 1115.28 83.96Z" fill="white"/>
<path d="M1140.19 81.992H1137.68L1138.05 81.896C1137.97 81.56 1137.73 81.044 1137.47 80.684L1136.72 80.852C1136.93 81.2 1137.14 81.656 1137.25 81.992H1135.1V82.724H1143.08V81.992H1140.81C1141.03 81.656 1141.27 81.212 1141.48 80.792L1141.03 80.672H1142.67V79.976H1139.48V79.04H1138.59V79.976H1135.66V80.672H1140.57C1140.44 81.068 1140.2 81.596 1140.02 81.944L1140.19 81.992ZM1141.24 84.704H1136.96V83.936H1141.24V84.704ZM1141.24 86.036H1136.96V85.256H1141.24V86.036ZM1142.11 83.336H1136.11V86.636H1138.39L1138.09 86.876C1138.66 87.224 1139.32 87.74 1139.63 88.112L1140.21 87.62C1139.95 87.32 1139.47 86.936 1138.97 86.636H1142.11V83.336ZM1134.83 78.992C1134.15 80.78 1133.01 82.544 1131.82 83.66C1131.98 83.864 1132.23 84.332 1132.33 84.524C1132.75 84.104 1133.15 83.624 1133.54 83.096V89.9H1134.39V81.8C1134.87 80.984 1135.3 80.12 1135.65 79.244L1134.83 78.992ZM1135.45 89.612C1136.05 89.096 1136.45 88.268 1136.72 87.56L1136.03 87.284C1135.78 87.932 1135.34 88.688 1134.79 89.144L1135.45 89.612ZM1138.58 89.156C1138.16 89.156 1138.09 89.12 1138.09 88.856V87.26H1137.27V88.856C1137.27 89.66 1137.5 89.864 1138.49 89.864H1140.14C1140.86 89.864 1141.1 89.612 1141.19 88.556C1140.97 88.508 1140.63 88.388 1140.46 88.256C1140.43 89.06 1140.37 89.156 1140.03 89.156H1138.58ZM1140.85 87.548C1141.49 88.172 1142.19 89.036 1142.49 89.612L1143.2 89.18C1142.9 88.604 1142.17 87.764 1141.52 87.176L1140.85 87.548Z" fill="white"/>
<path d="M1149.98 84.164V80.648H1153.63V84.164H1149.98ZM1145.59 80.648H1149.1V84.164H1145.59V80.648ZM1154.53 79.784H1144.7V89.924H1145.59V85.052H1153.63V88.724C1153.63 88.952 1153.54 89.024 1153.33 89.024C1153.1 89.036 1152.32 89.048 1151.5 89.012C1151.63 89.252 1151.79 89.66 1151.84 89.9C1152.91 89.9 1153.58 89.888 1153.97 89.744C1154.38 89.588 1154.53 89.3 1154.53 88.724V79.784Z" fill="white"/>
</svg>
